<svg id="SvgjsSvg1063" width="803" height="410" xmlns="http://www.w3.org/2000/svg" version="1.1" xmlns:xlink="http://www.w3.org/1999/xlink" xmlns:svgjs="http://svgjs.com/svgjs"><defs id="SvgjsDefs1064"><pattern patternUnits="userSpaceOnUse" id="pattern_mark_0" width="300" height="300"><text x="150" y="100" fill="rgba(229,229,229,0.8)" font-size="18" transform="rotate(-45, 150, 150)" style="dominant-baseline: middle; text-anchor: middle;"></text></pattern><pattern patternUnits="userSpaceOnUse" id="pattern_mark_1" width="300" height="300"><text x="150" y="200" fill="rgba(229,229,229,0.8)" font-size="18" transform="rotate(-45, 150, 150)" style="dominant-baseline: middle; text-anchor: middle;"></text></pattern><marker id="SvgjsMarker1113" markerWidth="13" markerHeight="9" refX="9.5" refY="4.5" viewBox="0 0 13 9" orient="auto" markerUnits="userSpaceOnUse" stroke-dasharray="0,0"><path id="SvgjsPath1114" d="M0,0 L13,4.5 L0,9 L0,0" fill="#323232" stroke="#323232" stroke-width="1"></path></marker><marker id="SvgjsMarker1117" markerWidth="13" markerHeight="9" refX="9.5" refY="4.5" viewBox="0 0 13 9" orient="auto" markerUnits="userSpaceOnUse" stroke-dasharray="0,0"><path id="SvgjsPath1118" d="M0,0 L13,4.5 L0,9 L0,0" fill="#323232" stroke="#323232" stroke-width="1"></path></marker></defs><rect id="svgbackgroundid" width="803" height="410" fill="transparent"></rect><rect id="SvgjsRect1066" width="803" height="410" fill="url(#pattern_mark_0)"></rect><rect id="SvgjsRect1067" width="803" height="410" fill="url(#pattern_mark_1)"></rect><g id="SvgjsG1068" transform="translate(56,41)"><path id="SvgjsPath1069" d="M 0 4Q 0 0 4 0L 516 0Q 520 0 520 4L 520 50Q 520 54 516 54L 4 54Q 0 54 0 50Z" stroke="rgba(242,242,242,1)" stroke-width="1.5" fill-opacity="1" fill="#fadcdb"></path><g id="SvgjsG1070"><text id="SvgjsText1071" font-family="&quot;Microsoft YaHei&quot;, 微软雅黑, Arial" text-anchor="middle" font-size="18px" width="500px" fill="#323232" font-weight="400" align="middle" lineHeight="125%" anchor="middle" family="&quot;Microsoft YaHei&quot;, 微软雅黑, Arial" size="18px" weight="400" font-style="" opacity="1" y="11.25" transform="rotate(0)"><tspan id="SvgjsTspan1072" dy="22.5" x="260"><tspan id="SvgjsTspan1073" style="">OpenWebUI / CherryStudio / 等等</tspan></tspan></text></g></g><g id="SvgjsG1074" transform="translate(156,178)"><path id="SvgjsPath1075" d="M 0 4Q 0 0 4 0L 316 0Q 320 0 320 4L 320 50Q 320 54 316 54L 4 54Q 0 54 0 50Z" stroke="rgba(255,255,255,1)" stroke-width="1.5" fill-opacity="1" fill="#b0e38f"></path><g id="SvgjsG1076"><text id="SvgjsText1077" font-family="&quot;Microsoft YaHei&quot;, 微软雅黑, Arial" text-anchor="middle" font-size="18px" width="300px" fill="#323232" font-weight="400" align="middle" lineHeight="125%" anchor="middle" family="&quot;Microsoft YaHei&quot;, 微软雅黑, Arial" size="18px" weight="400" font-style="" opacity="1" y="11.25" transform="rotate(0)"><tspan id="SvgjsTspan1078" dy="22.5" x="160"><tspan id="SvgjsTspan1079" style="">ollama / vLLM / 等等</tspan></tspan></text></g></g><g id="SvgjsG1080" transform="translate(604,25)"><path id="SvgjsPath1081" d="M 0 86Q 9 86 9 77.4L 9 51.6Q 9 43 22 43Q 9 43 9 34.4L 9 8.6Q 9 0 0 0" stroke="rgba(33,41,48,1)" stroke-width="1.5" fill="none"></path><path id="SvgjsPath1082" d="M 0 0L 146 0L 146 86L 0 86Z" stroke="none" fill="none"></path><g id="SvgjsG1083"><text id="SvgjsText1084" font-family="&quot;Microsoft YaHei&quot;, 微软雅黑, Arial" text-anchor="start" font-size="18px" width="119px" fill="#323232" font-weight="400" align="middle" lineHeight="125%" anchor="start" family="&quot;Microsoft YaHei&quot;, 微软雅黑, Arial" size="18px" weight="400" font-style="" opacity="1" y="27.25" transform="rotate(0)"><tspan id="SvgjsTspan1085" dy="22.5" x="27"><tspan id="SvgjsTspan1086" style="">前端图形界面</tspan></tspan></text></g></g><g id="SvgjsG1087"><path id="SvgjsPath1088" d="M27 139L396 139L396 139L765 139" stroke="#323232" stroke-width="1.5" fill="none"></path></g><g id="SvgjsG1089" transform="translate(604,162)"><path id="SvgjsPath1090" d="M 0 86Q 9 86 9 77.4L 9 51.6Q 9 43 22 43Q 9 43 9 34.4L 9 8.6Q 9 0 0 0" stroke="rgba(33,41,48,1)" stroke-width="1.5" fill="none"></path><path id="SvgjsPath1091" d="M 0 0L 174 0L 174 86L 0 86Z" stroke="none" fill="none"></path><g id="SvgjsG1092"><text id="SvgjsText1093" font-family="&quot;Microsoft YaHei&quot;, 微软雅黑, Arial" text-anchor="start" font-size="18px" width="147px" fill="#323232" font-weight="400" align="middle" lineHeight="125%" anchor="start" family="&quot;Microsoft YaHei&quot;, 微软雅黑, Arial" size="18px" weight="400" font-style="" opacity="1" y="27.25" transform="rotate(0)"><tspan id="SvgjsTspan1094" dy="22.5" x="27"><tspan id="SvgjsTspan1095" style="">大模型服务框架</tspan></tspan></text></g></g><g id="SvgjsG1096"><path id="SvgjsPath1097" d="M25 276L394 276L394 276L763 276" stroke="#323232" stroke-width="1.5" fill="none"></path></g><g id="SvgjsG1098" transform="translate(90,315)"><path id="SvgjsPath1099" d="M 0 4Q 0 0 4 0L 448 0Q 452 0 452 4L 452 50Q 452 54 448 54L 4 54Q 0 54 0 50Z" stroke="rgba(255,255,255,1)" stroke-width="1.5" fill-opacity="1" fill="#5b79e8"></path><g id="SvgjsG1100"><text id="SvgjsText1101" font-family="&quot;Microsoft YaHei&quot;, 微软雅黑, Arial" text-anchor="middle" font-size="18px" width="432px" fill="#ffffff" font-weight="400" align="middle" lineHeight="125%" anchor="middle" family="&quot;Microsoft YaHei&quot;, 微软雅黑, Arial" size="18px" weight="400" font-style="" opacity="1" y="11.25" transform="rotate(0)"><tspan id="SvgjsTspan1102" dy="22.5" x="226"><tspan id="SvgjsTspan1103" style="">Qwen3-32B  / DeepSeekR1-671B / 等等</tspan></tspan></text></g></g><g id="SvgjsG1104" transform="translate(604,299)"><path id="SvgjsPath1105" d="M 0 86Q 9 86 9 77.4L 9 51.6Q 9 43 22 43Q 9 43 9 34.4L 9 8.6Q 9 0 0 0" stroke="rgba(33,41,48,1)" stroke-width="1.5" fill="none"></path><path id="SvgjsPath1106" d="M 0 0L 146 0L 146 86L 0 86Z" stroke="none" fill="none"></path><g id="SvgjsG1107"><text id="SvgjsText1108" font-family="&quot;Microsoft YaHei&quot;, 微软雅黑, Arial" text-anchor="start" font-size="18px" width="119px" fill="#323232" font-weight="400" align="middle" lineHeight="125%" anchor="start" family="&quot;Microsoft YaHei&quot;, 微软雅黑, Arial" size="18px" weight="400" font-style="" opacity="1" y="27.25" transform="rotate(0)"><tspan id="SvgjsTspan1109" dy="22.5" x="27"><tspan id="SvgjsTspan1110" style="">AI 模型</tspan></tspan></text></g></g><g id="SvgjsG1111"><path id="SvgjsPath1112" d="M316 314.25L316 276.5L316 276.5L316 238" stroke="#323232" stroke-width="1.5" fill="none" marker-end="url(#SvgjsMarker1113)"></path></g><g id="SvgjsG1115"><path id="SvgjsPath1116" d="M316 177.25L316 136.5L316 136.5L316 97.69999999999999" stroke="#323232" stroke-width="1.5" fill="none" marker-end="url(#SvgjsMarker1117)"></path></g><g id="SvgjsG1119"></g></svg>