<svg id="SvgjsSvg1088" width="928" height="391" xmlns="http://www.w3.org/2000/svg" version="1.1" xmlns:xlink="http://www.w3.org/1999/xlink" xmlns:svgjs="http://svgjs.com/svgjs"><defs id="SvgjsDefs1089"><pattern patternUnits="userSpaceOnUse" id="pattern_mark_0" width="300" height="300"><text x="150" y="100" fill="rgba(229,229,229,0.8)" font-size="18" transform="rotate(-45, 150, 150)" style="dominant-baseline: middle; text-anchor: middle;"></text></pattern><pattern patternUnits="userSpaceOnUse" id="pattern_mark_1" width="300" height="300"><text x="150" y="200" fill="rgba(229,229,229,0.8)" font-size="18" transform="rotate(-45, 150, 150)" style="dominant-baseline: middle; text-anchor: middle;"></text></pattern><marker id="SvgjsMarker1119" markerWidth="13" markerHeight="9" refX="9.5" refY="4.5" viewBox="0 0 13 9" orient="auto" markerUnits="userSpaceOnUse" stroke-dasharray="0,0"><path id="SvgjsPath1120" d="M0,0 L13,4.5 L0,9 L0,0" fill="#323232" stroke="#323232" stroke-width="1"></path></marker><marker id="SvgjsMarker1123" markerWidth="13" markerHeight="9" refX="9.5" refY="4.5" viewBox="0 0 13 9" orient="auto" markerUnits="userSpaceOnUse" stroke-dasharray="0,0"><path id="SvgjsPath1124" d="M0,0 L13,4.5 L0,9 L0,0" fill="#323232" stroke="#323232" stroke-width="1"></path></marker><marker id="SvgjsMarker1127" markerWidth="13" markerHeight="9" refX="9.5" refY="4.5" viewBox="0 0 13 9" orient="auto" markerUnits="userSpaceOnUse" stroke-dasharray="0,0"><path id="SvgjsPath1128" d="M0,0 L13,4.5 L0,9 L0,0" fill="#323232" stroke="#323232" stroke-width="1"></path></marker><marker id="SvgjsMarker1131" markerWidth="13" markerHeight="9" refX="9.5" refY="4.5" viewBox="0 0 13 9" orient="auto" markerUnits="userSpaceOnUse" stroke-dasharray="0,0"><path id="SvgjsPath1132" d="M0,0 L13,4.5 L0,9 L0,0" fill="#323232" stroke="#323232" stroke-width="1"></path></marker></defs><rect id="svgbackgroundid" width="928" height="391" fill="transparent"></rect><rect id="SvgjsRect1091" width="928" height="391" fill="url(#pattern_mark_0)"></rect><rect id="SvgjsRect1092" width="928" height="391" fill="url(#pattern_mark_1)"></rect><g id="SvgjsG1093" transform="translate(140,74)"><path id="SvgjsPath1094" d="M 0 4Q 0 0 4 0L 92 0Q 96 0 96 4L 96 50Q 96 54 92 54L 4 54Q 0 54 0 50Z" stroke="rgba(255,255,255,1)" stroke-width="1.5" fill-opacity="1" fill="#5b79e8"></path><g id="SvgjsG1095"><text id="SvgjsText1096" font-family="&quot;Microsoft YaHei&quot;, 微软雅黑, Arial" text-anchor="middle" font-size="13px" width="76px" fill="#323232" font-weight="400" align="middle" lineHeight="125%" anchor="middle" family="&quot;Microsoft YaHei&quot;, 微软雅黑, Arial" size="13px" weight="400" font-style="" opacity="1" y="16.375" transform="rotate(0)"></text></g></g><g id="SvgjsG1097" transform="translate(140,129)"><path id="SvgjsPath1098" d="M 0 4Q 0 0 4 0L 92 0Q 96 0 96 4L 96 50Q 96 54 92 54L 4 54Q 0 54 0 50Z" stroke="rgba(255,255,255,1)" stroke-width="1.5" fill-opacity="1" fill="#5b79e8"></path><g id="SvgjsG1099"><text id="SvgjsText1100" font-family="&quot;Microsoft YaHei&quot;, 微软雅黑, Arial" text-anchor="middle" font-size="13px" width="76px" fill="#323232" font-weight="400" align="middle" lineHeight="125%" anchor="middle" family="&quot;Microsoft YaHei&quot;, 微软雅黑, Arial" size="13px" weight="400" font-style="" opacity="1" y="16.375" transform="rotate(0)"></text></g></g><g id="SvgjsG1101" transform="translate(140,184)"><path id="SvgjsPath1102" d="M 0 4Q 0 0 4 0L 92 0Q 96 0 96 4L 96 50Q 96 54 92 54L 4 54Q 0 54 0 50Z" stroke="rgba(255,255,255,1)" stroke-width="1.5" fill-opacity="1" fill="#5b79e8"></path><g id="SvgjsG1103"><text id="SvgjsText1104" font-family="&quot;Microsoft YaHei&quot;, 微软雅黑, Arial" text-anchor="middle" font-size="13px" width="76px" fill="#323232" font-weight="400" align="middle" lineHeight="125%" anchor="middle" family="&quot;Microsoft YaHei&quot;, 微软雅黑, Arial" size="13px" weight="400" font-style="" opacity="1" y="16.375" transform="rotate(0)"></text></g></g><g id="SvgjsG1105" transform="translate(140,239)"><path id="SvgjsPath1106" d="M 0 4Q 0 0 4 0L 92 0Q 96 0 96 4L 96 50Q 96 54 92 54L 4 54Q 0 54 0 50Z" stroke="rgba(255,255,255,1)" stroke-width="1.5" fill-opacity="1" fill="#5b79e8"></path><g id="SvgjsG1107"><text id="SvgjsText1108" font-family="&quot;Microsoft YaHei&quot;, 微软雅黑, Arial" text-anchor="middle" font-size="13px" width="76px" fill="#323232" font-weight="400" align="middle" lineHeight="125%" anchor="middle" family="&quot;Microsoft YaHei&quot;, 微软雅黑, Arial" size="13px" weight="400" font-style="" opacity="1" y="16.375" transform="rotate(0)"></text></g></g><g id="SvgjsG1109" transform="translate(376,25)"><path id="SvgjsPath1110" d="M 0 4Q 0 0 4 0L 65 0Q 69 0 69 4L 69 50Q 69 54 65 54L 4 54Q 0 54 0 50Z" stroke="rgba(255,255,255,1)" stroke-width="1.5" fill-opacity="1" fill="#95da69"></path><g id="SvgjsG1111"><text id="SvgjsText1112" font-family="&quot;Microsoft YaHei&quot;, 微软雅黑, Arial" text-anchor="middle" font-size="13px" width="49px" fill="#323232" font-weight="400" align="middle" lineHeight="125%" anchor="middle" family="&quot;Microsoft YaHei&quot;, 微软雅黑, Arial" size="13px" weight="400" font-style="" opacity="1" y="16.375" transform="rotate(0)"></text></g></g><g id="SvgjsG1113" transform="translate(140,294)"><path id="SvgjsPath1114" d="M 0 4Q 0 0 4 0L 92 0Q 96 0 96 4L 96 50Q 96 54 92 54L 4 54Q 0 54 0 50Z" stroke="rgba(255,255,255,1)" stroke-width="1.5" fill-opacity="1" fill="#5b79e8"></path><g id="SvgjsG1115"><text id="SvgjsText1116" font-family="&quot;Microsoft YaHei&quot;, 微软雅黑, Arial" text-anchor="middle" font-size="13px" width="76px" fill="#323232" font-weight="400" align="middle" lineHeight="125%" anchor="middle" family="&quot;Microsoft YaHei&quot;, 微软雅黑, Arial" size="13px" weight="400" font-style="" opacity="1" y="16.375" transform="rotate(0)"></text></g></g><g id="SvgjsG1117"><path id="SvgjsPath1118" d="M236.70789376727453 100.75223718145392L373.4515824378118 52.89194614676589" stroke="#323232" stroke-width="1.5" fill="none" marker-end="url(#SvgjsMarker1119)"></path></g><g id="SvgjsG1121"><path id="SvgjsPath1122" d="M236.74809402487307 155.9465647125091L376 146" stroke="#323232" stroke-width="1.5" fill="none" marker-end="url(#SvgjsMarker1123)"></path></g><g id="SvgjsG1125"><path id="SvgjsPath1126" d="M236.73281133808626 211.1596481843688L376 241.5" stroke="#323232" stroke-width="1.5" fill="none" marker-end="url(#SvgjsMarker1127)"></path></g><g id="SvgjsG1129"><path id="SvgjsPath1130" d="M236.6650233131703 266.3467621561531L376 339" stroke="#323232" stroke-width="1.5" fill="none" marker-end="url(#SvgjsMarker1131)"></path></g><g id="SvgjsG1133" transform="translate(25,128)"><path id="SvgjsPath1134" d="M 0 0L 36 0L 52 16L 52 140.5L 0 140.5L 0 0Z" stroke="none" fill-opacity="1" fill="#fff7bc"></path><path id="SvgjsPath1135" d="M 36 0L 36 16L 52 16Z" stroke="none" fill-opacity="1" fill="#e4d089"></path><path id="SvgjsPath1136" d="M 0 0L 36 0L 52 16L 52 140.5L 0 140.5L 0 0Z" stroke="none" fill="none"></path><g id="SvgjsG1137"><text id="SvgjsText1138" font-family="&quot;Microsoft YaHei&quot;, 微软雅黑, Arial" text-anchor="middle" font-size="20px" width="32px" fill="#323232" font-weight="400" align="middle" lineHeight="125%" anchor="middle" family="&quot;Microsoft YaHei&quot;, 微软雅黑, Arial" size="20px" weight="400" font-style="" opacity="1" y="27.25" transform="rotate(0)"><tspan id="SvgjsTspan1139" dy="25" x="26"><tspan id="SvgjsTspan1140" style="">映</tspan></tspan><tspan id="SvgjsTspan1141" dy="25" x="26"><tspan id="SvgjsTspan1142" style="">射</tspan></tspan><tspan id="SvgjsTspan1143" dy="25" x="26"><tspan id="SvgjsTspan1144" style="">表</tspan></tspan></text></g></g><g id="SvgjsG1145" transform="translate(859,128)"><path id="SvgjsPath1146" d="M 0 0L 28 0L 44 16L 44 115.5L 0 115.5L 0 0Z" stroke="none" fill-opacity="1" fill="#fff7bc"></path><path id="SvgjsPath1147" d="M 28 0L 28 16L 44 16Z" stroke="none" fill-opacity="1" fill="#e4d089"></path><path id="SvgjsPath1148" d="M 0 0L 28 0L 44 16L 44 115.5L 0 115.5L 0 0Z" stroke="none" fill="none"></path><g id="SvgjsG1149"><text id="SvgjsText1150" font-family="&quot;Microsoft YaHei&quot;, 微软雅黑, Arial" text-anchor="middle" font-size="20px" width="24px" fill="#323232" font-weight="400" align="middle" lineHeight="125%" anchor="middle" family="&quot;Microsoft YaHei&quot;, 微软雅黑, Arial" size="20px" weight="400" font-style="" opacity="1" y="14.75" transform="rotate(0)"><tspan id="SvgjsTspan1151" dy="25" x="22"><tspan id="SvgjsTspan1152" style="">内</tspan></tspan><tspan id="SvgjsTspan1153" dy="25" x="22"><tspan id="SvgjsTspan1154" style="">存</tspan></tspan><tspan id="SvgjsTspan1155" dy="25" x="22"><tspan id="SvgjsTspan1156" style="">块</tspan></tspan></text></g></g><g id="SvgjsG1157" transform="translate(445.5,25)"><path id="SvgjsPath1158" d="M 0 4Q 0 0 4 0L 65 0Q 69 0 69 4L 69 50Q 69 54 65 54L 4 54Q 0 54 0 50Z" stroke="rgba(255,255,255,1)" stroke-width="1.5" fill-opacity="1" fill="#95da69"></path><g id="SvgjsG1159"><text id="SvgjsText1160" font-family="&quot;Microsoft YaHei&quot;, 微软雅黑, Arial" text-anchor="middle" font-size="13px" width="49px" fill="#323232" font-weight="400" align="middle" lineHeight="125%" anchor="middle" family="&quot;Microsoft YaHei&quot;, 微软雅黑, Arial" size="13px" weight="400" font-style="" opacity="1" y="16.375" transform="rotate(0)"></text></g></g><g id="SvgjsG1161" transform="translate(515,25)"><path id="SvgjsPath1162" d="M 0 4Q 0 0 4 0L 65 0Q 69 0 69 4L 69 50Q 69 54 65 54L 4 54Q 0 54 0 50Z" stroke="rgba(255,255,255,1)" stroke-width="1.5" fill-opacity="1" fill="#95da69"></path><g id="SvgjsG1163"><text id="SvgjsText1164" font-family="&quot;Microsoft YaHei&quot;, 微软雅黑, Arial" text-anchor="middle" font-size="13px" width="49px" fill="#323232" font-weight="400" align="middle" lineHeight="125%" anchor="middle" family="&quot;Microsoft YaHei&quot;, 微软雅黑, Arial" size="13px" weight="400" font-style="" opacity="1" y="16.375" transform="rotate(0)"></text></g></g><g id="SvgjsG1165" transform="translate(654,25)"><path id="SvgjsPath1166" d="M 0 4Q 0 0 4 0L 65 0Q 69 0 69 4L 69 50Q 69 54 65 54L 4 54Q 0 54 0 50Z" stroke="rgba(255,255,255,1)" stroke-width="1.5" fill-opacity="1" fill="#95da69"></path><g id="SvgjsG1167"><text id="SvgjsText1168" font-family="&quot;Microsoft YaHei&quot;, 微软雅黑, Arial" text-anchor="middle" font-size="13px" width="49px" fill="#323232" font-weight="400" align="middle" lineHeight="125%" anchor="middle" family="&quot;Microsoft YaHei&quot;, 微软雅黑, Arial" size="13px" weight="400" font-style="" opacity="1" y="16.375" transform="rotate(0)"></text></g></g><g id="SvgjsG1169" transform="translate(723.5,25)"><path id="SvgjsPath1170" d="M 0 4Q 0 0 4 0L 65 0Q 69 0 69 4L 69 50Q 69 54 65 54L 4 54Q 0 54 0 50Z" stroke="rgba(255,255,255,1)" stroke-width="1.5" fill-opacity="1" fill="#95da69"></path><g id="SvgjsG1171"><text id="SvgjsText1172" font-family="&quot;Microsoft YaHei&quot;, 微软雅黑, Arial" text-anchor="middle" font-size="13px" width="49px" fill="#323232" font-weight="400" align="middle" lineHeight="125%" anchor="middle" family="&quot;Microsoft YaHei&quot;, 微软雅黑, Arial" size="13px" weight="400" font-style="" opacity="1" y="16.375" transform="rotate(0)"></text></g></g><g id="SvgjsG1173" transform="translate(584.5,25)"><path id="SvgjsPath1174" d="M 0 4Q 0 0 4 0L 65 0Q 69 0 69 4L 69 50Q 69 54 65 54L 4 54Q 0 54 0 50Z" stroke="rgba(255,255,255,1)" stroke-width="1.5" fill-opacity="1" fill="#95da69"></path><g id="SvgjsG1175"><text id="SvgjsText1176" font-family="&quot;Microsoft YaHei&quot;, 微软雅黑, Arial" text-anchor="middle" font-size="13px" width="49px" fill="#323232" font-weight="400" align="middle" lineHeight="125%" anchor="middle" family="&quot;Microsoft YaHei&quot;, 微软雅黑, Arial" size="13px" weight="400" font-style="" opacity="1" y="16.375" transform="rotate(0)"></text></g></g><g id="SvgjsG1177" transform="translate(376,119.75)"><path id="SvgjsPath1178" d="M 0 4Q 0 0 4 0L 65 0Q 69 0 69 4L 69 50Q 69 54 65 54L 4 54Q 0 54 0 50Z" stroke="rgba(255,255,255,1)" stroke-width="1.5" fill-opacity="1" fill="#95da69"></path><g id="SvgjsG1179"><text id="SvgjsText1180" font-family="&quot;Microsoft YaHei&quot;, 微软雅黑, Arial" text-anchor="middle" font-size="13px" width="49px" fill="#323232" font-weight="400" align="middle" lineHeight="125%" anchor="middle" family="&quot;Microsoft YaHei&quot;, 微软雅黑, Arial" size="13px" weight="400" font-style="" opacity="1" y="16.375" transform="rotate(0)"></text></g></g><g id="SvgjsG1181" transform="translate(445.5,119.75)"><path id="SvgjsPath1182" d="M 0 4Q 0 0 4 0L 65 0Q 69 0 69 4L 69 50Q 69 54 65 54L 4 54Q 0 54 0 50Z" stroke="rgba(255,255,255,1)" stroke-width="1.5" fill-opacity="1" fill="#95da69"></path><g id="SvgjsG1183"><text id="SvgjsText1184" font-family="&quot;Microsoft YaHei&quot;, 微软雅黑, Arial" text-anchor="middle" font-size="13px" width="49px" fill="#323232" font-weight="400" align="middle" lineHeight="125%" anchor="middle" family="&quot;Microsoft YaHei&quot;, 微软雅黑, Arial" size="13px" weight="400" font-style="" opacity="1" y="16.375" transform="rotate(0)"></text></g></g><g id="SvgjsG1185" transform="translate(515,119.75)"><path id="SvgjsPath1186" d="M 0 4Q 0 0 4 0L 65 0Q 69 0 69 4L 69 50Q 69 54 65 54L 4 54Q 0 54 0 50Z" stroke="rgba(255,255,255,1)" stroke-width="1.5" fill-opacity="1" fill="#95da69"></path><g id="SvgjsG1187"><text id="SvgjsText1188" font-family="&quot;Microsoft YaHei&quot;, 微软雅黑, Arial" text-anchor="middle" font-size="13px" width="49px" fill="#323232" font-weight="400" align="middle" lineHeight="125%" anchor="middle" family="&quot;Microsoft YaHei&quot;, 微软雅黑, Arial" size="13px" weight="400" font-style="" opacity="1" y="16.375" transform="rotate(0)"></text></g></g><g id="SvgjsG1189" transform="translate(654,119.75)"><path id="SvgjsPath1190" d="M 0 4Q 0 0 4 0L 65 0Q 69 0 69 4L 69 50Q 69 54 65 54L 4 54Q 0 54 0 50Z" stroke="rgba(255,255,255,1)" stroke-width="1.5" fill-opacity="1" fill="#95da69"></path><g id="SvgjsG1191"><text id="SvgjsText1192" font-family="&quot;Microsoft YaHei&quot;, 微软雅黑, Arial" text-anchor="middle" font-size="13px" width="49px" fill="#323232" font-weight="400" align="middle" lineHeight="125%" anchor="middle" family="&quot;Microsoft YaHei&quot;, 微软雅黑, Arial" size="13px" weight="400" font-style="" opacity="1" y="16.375" transform="rotate(0)"></text></g></g><g id="SvgjsG1193" transform="translate(723.5,119.75)"><path id="SvgjsPath1194" d="M 0 4Q 0 0 4 0L 65 0Q 69 0 69 4L 69 50Q 69 54 65 54L 4 54Q 0 54 0 50Z" stroke="rgba(255,255,255,1)" stroke-width="1.5" fill-opacity="1" fill="#95da69"></path><g id="SvgjsG1195"><text id="SvgjsText1196" font-family="&quot;Microsoft YaHei&quot;, 微软雅黑, Arial" text-anchor="middle" font-size="13px" width="49px" fill="#323232" font-weight="400" align="middle" lineHeight="125%" anchor="middle" family="&quot;Microsoft YaHei&quot;, 微软雅黑, Arial" size="13px" weight="400" font-style="" opacity="1" y="16.375" transform="rotate(0)"></text></g></g><g id="SvgjsG1197" transform="translate(584.5,119.75)"><path id="SvgjsPath1198" d="M 0 4Q 0 0 4 0L 65 0Q 69 0 69 4L 69 50Q 69 54 65 54L 4 54Q 0 54 0 50Z" stroke="rgba(255,255,255,1)" stroke-width="1.5" fill-opacity="1" fill="#95da69"></path><g id="SvgjsG1199"><text id="SvgjsText1200" font-family="&quot;Microsoft YaHei&quot;, 微软雅黑, Arial" text-anchor="middle" font-size="13px" width="49px" fill="#323232" font-weight="400" align="middle" lineHeight="125%" anchor="middle" family="&quot;Microsoft YaHei&quot;, 微软雅黑, Arial" size="13px" weight="400" font-style="" opacity="1" y="16.375" transform="rotate(0)"></text></g></g><g id="SvgjsG1201" transform="translate(376,214.5)"><path id="SvgjsPath1202" d="M 0 4Q 0 0 4 0L 65 0Q 69 0 69 4L 69 50Q 69 54 65 54L 4 54Q 0 54 0 50Z" stroke="rgba(255,255,255,1)" stroke-width="1.5" fill-opacity="1" fill="#95da69"></path><g id="SvgjsG1203"><text id="SvgjsText1204" font-family="&quot;Microsoft YaHei&quot;, 微软雅黑, Arial" text-anchor="middle" font-size="13px" width="49px" fill="#323232" font-weight="400" align="middle" lineHeight="125%" anchor="middle" family="&quot;Microsoft YaHei&quot;, 微软雅黑, Arial" size="13px" weight="400" font-style="" opacity="1" y="16.375" transform="rotate(0)"></text></g></g><g id="SvgjsG1205" transform="translate(445.5,214.5)"><path id="SvgjsPath1206" d="M 0 4Q 0 0 4 0L 65 0Q 69 0 69 4L 69 50Q 69 54 65 54L 4 54Q 0 54 0 50Z" stroke="rgba(255,255,255,1)" stroke-width="1.5" fill-opacity="1" fill="#95da69"></path><g id="SvgjsG1207"><text id="SvgjsText1208" font-family="&quot;Microsoft YaHei&quot;, 微软雅黑, Arial" text-anchor="middle" font-size="13px" width="49px" fill="#323232" font-weight="400" align="middle" lineHeight="125%" anchor="middle" family="&quot;Microsoft YaHei&quot;, 微软雅黑, Arial" size="13px" weight="400" font-style="" opacity="1" y="16.375" transform="rotate(0)"></text></g></g><g id="SvgjsG1209" transform="translate(515,214.5)"><path id="SvgjsPath1210" d="M 0 4Q 0 0 4 0L 65 0Q 69 0 69 4L 69 50Q 69 54 65 54L 4 54Q 0 54 0 50Z" stroke="rgba(255,255,255,1)" stroke-width="1.5" fill-opacity="1" fill="#95da69"></path><g id="SvgjsG1211"><text id="SvgjsText1212" font-family="&quot;Microsoft YaHei&quot;, 微软雅黑, Arial" text-anchor="middle" font-size="13px" width="49px" fill="#323232" font-weight="400" align="middle" lineHeight="125%" anchor="middle" family="&quot;Microsoft YaHei&quot;, 微软雅黑, Arial" size="13px" weight="400" font-style="" opacity="1" y="16.375" transform="rotate(0)"></text></g></g><g id="SvgjsG1213" transform="translate(654,214.5)"><path id="SvgjsPath1214" d="M 0 4Q 0 0 4 0L 65 0Q 69 0 69 4L 69 50Q 69 54 65 54L 4 54Q 0 54 0 50Z" stroke="rgba(255,255,255,1)" stroke-width="1.5" fill-opacity="1" fill="#95da69"></path><g id="SvgjsG1215"><text id="SvgjsText1216" font-family="&quot;Microsoft YaHei&quot;, 微软雅黑, Arial" text-anchor="middle" font-size="13px" width="49px" fill="#323232" font-weight="400" align="middle" lineHeight="125%" anchor="middle" family="&quot;Microsoft YaHei&quot;, 微软雅黑, Arial" size="13px" weight="400" font-style="" opacity="1" y="16.375" transform="rotate(0)"></text></g></g><g id="SvgjsG1217" transform="translate(723.5,214.5)"><path id="SvgjsPath1218" d="M 0 4Q 0 0 4 0L 65 0Q 69 0 69 4L 69 50Q 69 54 65 54L 4 54Q 0 54 0 50Z" stroke="rgba(255,255,255,1)" stroke-width="1.5" fill-opacity="1" fill="#95da69"></path><g id="SvgjsG1219"><text id="SvgjsText1220" font-family="&quot;Microsoft YaHei&quot;, 微软雅黑, Arial" text-anchor="middle" font-size="13px" width="49px" fill="#323232" font-weight="400" align="middle" lineHeight="125%" anchor="middle" family="&quot;Microsoft YaHei&quot;, 微软雅黑, Arial" size="13px" weight="400" font-style="" opacity="1" y="16.375" transform="rotate(0)"></text></g></g><g id="SvgjsG1221" transform="translate(584.5,214.5)"><path id="SvgjsPath1222" d="M 0 4Q 0 0 4 0L 65 0Q 69 0 69 4L 69 50Q 69 54 65 54L 4 54Q 0 54 0 50Z" stroke="rgba(255,255,255,1)" stroke-width="1.5" fill-opacity="1" fill="#95da69"></path><g id="SvgjsG1223"><text id="SvgjsText1224" font-family="&quot;Microsoft YaHei&quot;, 微软雅黑, Arial" text-anchor="middle" font-size="13px" width="49px" fill="#323232" font-weight="400" align="middle" lineHeight="125%" anchor="middle" family="&quot;Microsoft YaHei&quot;, 微软雅黑, Arial" size="13px" weight="400" font-style="" opacity="1" y="16.375" transform="rotate(0)"></text></g></g><g id="SvgjsG1225" transform="translate(376,312)"><path id="SvgjsPath1226" d="M 0 4Q 0 0 4 0L 65 0Q 69 0 69 4L 69 50Q 69 54 65 54L 4 54Q 0 54 0 50Z" stroke="rgba(255,255,255,1)" stroke-width="1.5" fill-opacity="1" fill="#95da69"></path><g id="SvgjsG1227"><text id="SvgjsText1228" font-family="&quot;Microsoft YaHei&quot;, 微软雅黑, Arial" text-anchor="middle" font-size="13px" width="49px" fill="#323232" font-weight="400" align="middle" lineHeight="125%" anchor="middle" family="&quot;Microsoft YaHei&quot;, 微软雅黑, Arial" size="13px" weight="400" font-style="" opacity="1" y="16.375" transform="rotate(0)"></text></g></g><g id="SvgjsG1229" transform="translate(445.5,312)"><path id="SvgjsPath1230" d="M 0 4Q 0 0 4 0L 65 0Q 69 0 69 4L 69 50Q 69 54 65 54L 4 54Q 0 54 0 50Z" stroke="rgba(255,255,255,1)" stroke-width="1.5" fill-opacity="1" fill="#95da69"></path><g id="SvgjsG1231"><text id="SvgjsText1232" font-family="&quot;Microsoft YaHei&quot;, 微软雅黑, Arial" text-anchor="middle" font-size="13px" width="49px" fill="#323232" font-weight="400" align="middle" lineHeight="125%" anchor="middle" family="&quot;Microsoft YaHei&quot;, 微软雅黑, Arial" size="13px" weight="400" font-style="" opacity="1" y="16.375" transform="rotate(0)"></text></g></g><g id="SvgjsG1233" transform="translate(515,312)"><path id="SvgjsPath1234" d="M 0 4Q 0 0 4 0L 65 0Q 69 0 69 4L 69 50Q 69 54 65 54L 4 54Q 0 54 0 50Z" stroke="rgba(255,255,255,1)" stroke-width="1.5" fill-opacity="1" fill="#95da69"></path><g id="SvgjsG1235"><text id="SvgjsText1236" font-family="&quot;Microsoft YaHei&quot;, 微软雅黑, Arial" text-anchor="middle" font-size="13px" width="49px" fill="#323232" font-weight="400" align="middle" lineHeight="125%" anchor="middle" family="&quot;Microsoft YaHei&quot;, 微软雅黑, Arial" size="13px" weight="400" font-style="" opacity="1" y="16.375" transform="rotate(0)"></text></g></g><g id="SvgjsG1237" transform="translate(654,312)"><path id="SvgjsPath1238" d="M 0 4Q 0 0 4 0L 65 0Q 69 0 69 4L 69 50Q 69 54 65 54L 4 54Q 0 54 0 50Z" stroke="rgba(255,255,255,1)" stroke-width="1.5" fill-opacity="1" fill="#95da69"></path><g id="SvgjsG1239"><text id="SvgjsText1240" font-family="&quot;Microsoft YaHei&quot;, 微软雅黑, Arial" text-anchor="middle" font-size="13px" width="49px" fill="#323232" font-weight="400" align="middle" lineHeight="125%" anchor="middle" family="&quot;Microsoft YaHei&quot;, 微软雅黑, Arial" size="13px" weight="400" font-style="" opacity="1" y="16.375" transform="rotate(0)"></text></g></g><g id="SvgjsG1241" transform="translate(723.5,312)"><path id="SvgjsPath1242" d="M 0 4Q 0 0 4 0L 65 0Q 69 0 69 4L 69 50Q 69 54 65 54L 4 54Q 0 54 0 50Z" stroke="rgba(255,255,255,1)" stroke-width="1.5" fill-opacity="1" fill="#95da69"></path><g id="SvgjsG1243"><text id="SvgjsText1244" font-family="&quot;Microsoft YaHei&quot;, 微软雅黑, Arial" text-anchor="middle" font-size="13px" width="49px" fill="#323232" font-weight="400" align="middle" lineHeight="125%" anchor="middle" family="&quot;Microsoft YaHei&quot;, 微软雅黑, Arial" size="13px" weight="400" font-style="" opacity="1" y="16.375" transform="rotate(0)"></text></g></g><g id="SvgjsG1245" transform="translate(584.5,312)"><path id="SvgjsPath1246" d="M 0 4Q 0 0 4 0L 65 0Q 69 0 69 4L 69 50Q 69 54 65 54L 4 54Q 0 54 0 50Z" stroke="rgba(255,255,255,1)" stroke-width="1.5" fill-opacity="1" fill="#95da69"></path><g id="SvgjsG1247"><text id="SvgjsText1248" font-family="&quot;Microsoft YaHei&quot;, 微软雅黑, Arial" text-anchor="middle" font-size="13px" width="49px" fill="#323232" font-weight="400" align="middle" lineHeight="125%" anchor="middle" family="&quot;Microsoft YaHei&quot;, 微软雅黑, Arial" size="13px" weight="400" font-style="" opacity="1" y="16.375" transform="rotate(0)"></text></g></g><g id="SvgjsG1249"></g></svg>