<svg id="SvgjsSvg1143" width="1780.5" height="486.0047169811321" xmlns="http://www.w3.org/2000/svg" version="1.1" xmlns:xlink="http://www.w3.org/1999/xlink" xmlns:svgjs="http://svgjs.com/svgjs"><defs id="SvgjsDefs1144"><pattern patternUnits="userSpaceOnUse" id="pattern_mark_0" width="300" height="300"><text x="150" y="100" fill="rgba(229,229,229,0.8)" font-size="18" transform="rotate(-45, 150, 150)" style="dominant-baseline: middle; text-anchor: middle;"></text></pattern><pattern patternUnits="userSpaceOnUse" id="pattern_mark_1" width="300" height="300"><text x="150" y="200" fill="rgba(229,229,229,0.8)" font-size="18" transform="rotate(-45, 150, 150)" style="dominant-baseline: middle; text-anchor: middle;"></text></pattern></defs><rect id="svgbackgroundid" width="1780.5" height="486.0047169811321" fill="transparent"></rect><rect id="SvgjsRect1146" width="1780.5" height="486.0047169811321" fill="url(#pattern_mark_0)"></rect><rect id="SvgjsRect1147" width="1780.5" height="486.0047169811321" fill="url(#pattern_mark_1)"></rect><g id="SvgjsG1148" transform="translate(1420.9139784946237,252.5047169811321)"><path id="SvgjsPath1149" d="M 0 4Q 0 0 4 0L 109.086 0Q 113.086 0 113.086 4L 113.086 105Q 113.086 109 109.086 109L 4 109Q 0 109 0 105Z" stroke-dasharray="20,8,4,8" stroke="rgba(123,209,68,1)" stroke-width="4" fill="none"></path><g id="SvgjsG1150"><text id="SvgjsText1151" font-family="&quot;Microsoft YaHei&quot;, 微软雅黑, Arial" text-anchor="middle" font-size="13px" width="94px" fill="#323232" font-weight="400" align="middle" lineHeight="125%" anchor="middle" family="&quot;Microsoft YaHei&quot;, 微软雅黑, Arial" size="13px" weight="400" font-style="" opacity="1" y="43.875" transform="rotate(0)"></text></g></g><g id="SvgjsG1152" transform="translate(577.0000000000001,391.0047169811321)"><path id="SvgjsPath1153" d="M 0 35C 0 -11.667 70 -11.667 70 35C 70 81.667 0 81.667 0 35Z" stroke="rgba(255,255,255,1)" stroke-width="1.5" fill-opacity="1" fill="#e60c0c"></path><g id="SvgjsG1154"><text id="SvgjsText1155" font-family="&quot;Microsoft YaHei&quot;, 微软雅黑, Arial" text-anchor="middle" font-size="30px" width="50px" fill="#ffffff" font-weight="400" align="middle" lineHeight="125%" anchor="middle" family="&quot;Microsoft YaHei&quot;, 微软雅黑, Arial" size="30px" weight="400" font-style="" opacity="1" y="9.25" transform="rotate(0)"><tspan id="SvgjsTspan1156" dy="37.5" x="35"><tspan id="SvgjsTspan1157" style="">15</tspan></tspan></text></g></g><g id="SvgjsG1158" transform="translate(150,147)"><path id="SvgjsPath1159" d="M 0 35C 0 -11.667 70 -11.667 70 35C 70 81.667 0 81.667 0 35Z" stroke="rgba(255,255,255,1)" stroke-width="1.5" fill-opacity="1" fill="#000000"></path><g id="SvgjsG1160"><text id="SvgjsText1161" font-family="&quot;Microsoft YaHei&quot;, 微软雅黑, Arial" text-anchor="middle" font-size="30px" width="50px" fill="#ffffff" font-weight="400" align="middle" lineHeight="125%" anchor="middle" family="&quot;Microsoft YaHei&quot;, 微软雅黑, Arial" size="30px" weight="400" font-style="" opacity="1" y="9.25" transform="rotate(0)"></text></g></g><g id="SvgjsG1162" transform="translate(25,272.0047169811321)"><path id="SvgjsPath1163" d="M 0 35C 0 -11.667 70 -11.667 70 35C 70 81.667 0 81.667 0 35Z" stroke="rgba(255,255,255,1)" stroke-width="1.5" fill-opacity="1" fill="#000000"></path><g id="SvgjsG1164"><text id="SvgjsText1165" font-family="&quot;Microsoft YaHei&quot;, 微软雅黑, Arial" text-anchor="middle" font-size="30px" width="50px" fill="#ffffff" font-weight="400" align="middle" lineHeight="125%" anchor="middle" family="&quot;Microsoft YaHei&quot;, 微软雅黑, Arial" size="30px" weight="400" font-style="" opacity="1" y="9.25" transform="rotate(0)"></text></g></g><g id="SvgjsG1166" transform="translate(395.0000000000001,25)"><path id="SvgjsPath1167" d="M 0 35C 0 -11.667 70 -11.667 70 35C 70 81.667 0 81.667 0 35Z" stroke="rgba(255,255,255,1)" stroke-width="1.5" fill-opacity="1" fill="#000000"></path><g id="SvgjsG1168"><text id="SvgjsText1169" font-family="&quot;Microsoft YaHei&quot;, 微软雅黑, Arial" text-anchor="middle" font-size="30px" width="50px" fill="#ffffff" font-weight="400" align="middle" lineHeight="125%" anchor="middle" family="&quot;Microsoft YaHei&quot;, 微软雅黑, Arial" size="30px" weight="400" font-style="" opacity="1" y="9.25" transform="rotate(0)"><tspan id="SvgjsTspan1170" dy="37.5" x="35"><tspan id="SvgjsTspan1171" style="">11</tspan></tspan></text></g></g><g id="SvgjsG1172" transform="translate(274.0000000000001,272.0047169811321)"><path id="SvgjsPath1173" d="M 0 35C 0 -11.667 70 -11.667 70 35C 70 81.667 0 81.667 0 35Z" stroke="rgba(255,255,255,1)" stroke-width="1.5" fill-opacity="1" fill="#000000"></path><g id="SvgjsG1174"><text id="SvgjsText1175" font-family="&quot;Microsoft YaHei&quot;, 微软雅黑, Arial" text-anchor="middle" font-size="30px" width="50px" fill="#ffffff" font-weight="400" align="middle" lineHeight="125%" anchor="middle" family="&quot;Microsoft YaHei&quot;, 微软雅黑, Arial" size="30px" weight="400" font-style="" opacity="1" y="9.25" transform="rotate(0)"></text></g></g><g id="SvgjsG1176"><path id="SvgjsPath1177" d="M158.13306323785883 205.76824801997634L60.62164634236393 271.58512691329736" stroke="#323232" stroke-width="1.5" fill="none"></path></g><g id="SvgjsG1178"><path id="SvgjsPath1179" d="M211.84430358781913 205.1495800862739L308.38214851106716 271.57955873103776" stroke="#323232" stroke-width="1.5" fill="none"></path></g><g id="SvgjsG1180" transform="translate(604.5000000000001,147)"><path id="SvgjsPath1181" d="M 0 35C 0 -11.667 70 -11.667 70 35C 70 81.667 0 81.667 0 35Z" stroke="rgba(255,255,255,1)" stroke-width="1.5" fill-opacity="1" fill="#000000"></path><g id="SvgjsG1182"><text id="SvgjsText1183" font-family="&quot;Microsoft YaHei&quot;, 微软雅黑, Arial" text-anchor="middle" font-size="30px" width="50px" fill="#ffffff" font-weight="400" align="middle" lineHeight="125%" anchor="middle" family="&quot;Microsoft YaHei&quot;, 微软雅黑, Arial" size="30px" weight="400" font-style="" opacity="1" y="9.25" transform="rotate(0)"><tspan id="SvgjsTspan1184" dy="37.5" x="35"><tspan id="SvgjsTspan1185" style="">17</tspan></tspan></text></g></g><g id="SvgjsG1186" transform="translate(479.5000000000001,272.0047169811321)"><path id="SvgjsPath1187" d="M 0 35C 0 -11.667 70 -11.667 70 35C 70 81.667 0 81.667 0 35Z" stroke="rgba(255,255,255,1)" stroke-width="1.5" fill-opacity="1" fill="#000000"></path><g id="SvgjsG1188"><text id="SvgjsText1189" font-family="&quot;Microsoft YaHei&quot;, 微软雅黑, Arial" text-anchor="middle" font-size="30px" width="50px" fill="#ffffff" font-weight="400" align="middle" lineHeight="125%" anchor="middle" family="&quot;Microsoft YaHei&quot;, 微软雅黑, Arial" size="30px" weight="400" font-style="" opacity="1" y="9.25" transform="rotate(0)"><tspan id="SvgjsTspan1190" dy="37.5" x="35"><tspan id="SvgjsTspan1191" style="">13</tspan></tspan></text></g></g><g id="SvgjsG1192" transform="translate(728.5000000000001,272.0047169811321)"><path id="SvgjsPath1193" d="M 0 35C 0 -11.667 70 -11.667 70 35C 70 81.667 0 81.667 0 35Z" stroke="rgba(255,255,255,1)" stroke-width="1.5" fill-opacity="1" fill="#000000"></path><g id="SvgjsG1194"><text id="SvgjsText1195" font-family="&quot;Microsoft YaHei&quot;, 微软雅黑, Arial" text-anchor="middle" font-size="30px" width="50px" fill="#ffffff" font-weight="400" align="middle" lineHeight="125%" anchor="middle" family="&quot;Microsoft YaHei&quot;, 微软雅黑, Arial" size="30px" weight="400" font-style="" opacity="1" y="9.25" transform="rotate(0)"><tspan id="SvgjsTspan1196" dy="37.5" x="35"><tspan id="SvgjsTspan1197" style="">20</tspan></tspan></text></g></g><g id="SvgjsG1198"><path id="SvgjsPath1199" d="M612.6330632378591 205.76824801997634L515.121646342364 271.58512691329736" stroke="#323232" stroke-width="1.5" fill="none"></path></g><g id="SvgjsG1200"><path id="SvgjsPath1201" d="M666.3443035878191 205.1495800862739L762.8821485110672 271.57955873103776" stroke="#323232" stroke-width="1.5" fill="none"></path></g><g id="SvgjsG1202"><path id="SvgjsPath1203" d="M394.3071080272954 60.287055245834836L185.69289197270479 146.71294475416516" stroke="#323232" stroke-width="1.5" fill="none"></path></g><g id="SvgjsG1204"><path id="SvgjsPath1205" d="M465.67120459661214 60.33464068713613L638.8287954033881 146.66535931286387" stroke="#323232" stroke-width="1.5" fill="none"></path></g><g id="SvgjsG1206"><path id="SvgjsPath1207" d="M539.8725027641564 331.77358580325676L611.4203904546572 390.528741377821" stroke="#323232" stroke-width="1.5" fill="none"></path></g><g id="SvgjsG1208" transform="translate(463.91397849462385,252.5047169811321)"><path id="SvgjsPath1209" d="M 0 4Q 0 0 4 0L 109.086 0Q 113.086 0 113.086 4L 113.086 105Q 113.086 109 109.086 109L 4 109Q 0 109 0 105Z" stroke-dasharray="20,8,4,8" stroke="rgba(123,209,68,1)" stroke-width="4" fill="none"></path><g id="SvgjsG1210"><text id="SvgjsText1211" font-family="&quot;Microsoft YaHei&quot;, 微软雅黑, Arial" text-anchor="middle" font-size="13px" width="94px" fill="#323232" font-weight="400" align="middle" lineHeight="125%" anchor="middle" family="&quot;Microsoft YaHei&quot;, 微软雅黑, Arial" size="13px" weight="400" font-style="" opacity="1" y="43.875" transform="rotate(0)"></text></g></g><g id="SvgjsG1212" transform="translate(1440,272.0047169811321)"><path id="SvgjsPath1213" d="M 0 35C 0 -11.667 70 -11.667 70 35C 70 81.667 0 81.667 0 35Z" stroke="rgba(255,255,255,1)" stroke-width="1.5" fill-opacity="1" fill="#e60c0c"></path><g id="SvgjsG1214"><text id="SvgjsText1215" font-family="&quot;Microsoft YaHei&quot;, 微软雅黑, Arial" text-anchor="middle" font-size="30px" width="50px" fill="#ffffff" font-weight="400" align="middle" lineHeight="125%" anchor="middle" family="&quot;Microsoft YaHei&quot;, 微软雅黑, Arial" size="30px" weight="400" font-style="" opacity="1" y="9.25" transform="rotate(0)"><tspan id="SvgjsTspan1216" dy="37.5" x="35"><tspan id="SvgjsTspan1217" style="">15</tspan></tspan></text></g></g><g id="SvgjsG1218" transform="translate(1107,147)"><path id="SvgjsPath1219" d="M 0 35C 0 -11.667 70 -11.667 70 35C 70 81.667 0 81.667 0 35Z" stroke="rgba(255,255,255,1)" stroke-width="1.5" fill-opacity="1" fill="#000000"></path><g id="SvgjsG1220"><text id="SvgjsText1221" font-family="&quot;Microsoft YaHei&quot;, 微软雅黑, Arial" text-anchor="middle" font-size="30px" width="50px" fill="#ffffff" font-weight="400" align="middle" lineHeight="125%" anchor="middle" family="&quot;Microsoft YaHei&quot;, 微软雅黑, Arial" size="30px" weight="400" font-style="" opacity="1" y="9.25" transform="rotate(0)"></text></g></g><g id="SvgjsG1222" transform="translate(982,272.0047169811321)"><path id="SvgjsPath1223" d="M 0 35C 0 -11.667 70 -11.667 70 35C 70 81.667 0 81.667 0 35Z" stroke="rgba(255,255,255,1)" stroke-width="1.5" fill-opacity="1" fill="#000000"></path><g id="SvgjsG1224"><text id="SvgjsText1225" font-family="&quot;Microsoft YaHei&quot;, 微软雅黑, Arial" text-anchor="middle" font-size="30px" width="50px" fill="#ffffff" font-weight="400" align="middle" lineHeight="125%" anchor="middle" family="&quot;Microsoft YaHei&quot;, 微软雅黑, Arial" size="30px" weight="400" font-style="" opacity="1" y="9.25" transform="rotate(0)"></text></g></g><g id="SvgjsG1226" transform="translate(1352,25)"><path id="SvgjsPath1227" d="M 0 35C 0 -11.667 70 -11.667 70 35C 70 81.667 0 81.667 0 35Z" stroke="rgba(255,255,255,1)" stroke-width="1.5" fill-opacity="1" fill="#000000"></path><g id="SvgjsG1228"><text id="SvgjsText1229" font-family="&quot;Microsoft YaHei&quot;, 微软雅黑, Arial" text-anchor="middle" font-size="30px" width="50px" fill="#ffffff" font-weight="400" align="middle" lineHeight="125%" anchor="middle" family="&quot;Microsoft YaHei&quot;, 微软雅黑, Arial" size="30px" weight="400" font-style="" opacity="1" y="9.25" transform="rotate(0)"><tspan id="SvgjsTspan1230" dy="37.5" x="35"><tspan id="SvgjsTspan1231" style="">11</tspan></tspan></text></g></g><g id="SvgjsG1232" transform="translate(1231,272.0047169811321)"><path id="SvgjsPath1233" d="M 0 35C 0 -11.667 70 -11.667 70 35C 70 81.667 0 81.667 0 35Z" stroke="rgba(255,255,255,1)" stroke-width="1.5" fill-opacity="1" fill="#000000"></path><g id="SvgjsG1234"><text id="SvgjsText1235" font-family="&quot;Microsoft YaHei&quot;, 微软雅黑, Arial" text-anchor="middle" font-size="30px" width="50px" fill="#ffffff" font-weight="400" align="middle" lineHeight="125%" anchor="middle" family="&quot;Microsoft YaHei&quot;, 微软雅黑, Arial" size="30px" weight="400" font-style="" opacity="1" y="9.25" transform="rotate(0)"></text></g></g><g id="SvgjsG1236"><path id="SvgjsPath1237" d="M1115.133063237859 205.76824801997634L1017.6216463423639 271.58512691329736" stroke="#323232" stroke-width="1.5" fill="none"></path></g><g id="SvgjsG1238"><path id="SvgjsPath1239" d="M1168.844303587819 205.1495800862739L1265.382148511067 271.57955873103776" stroke="#323232" stroke-width="1.5" fill="none"></path></g><g id="SvgjsG1240" transform="translate(1561.5,147)"><path id="SvgjsPath1241" d="M 0 35C 0 -11.667 70 -11.667 70 35C 70 81.667 0 81.667 0 35Z" stroke="rgba(255,255,255,1)" stroke-width="1.5" fill-opacity="1" fill="#000000"></path><g id="SvgjsG1242"><text id="SvgjsText1243" font-family="&quot;Microsoft YaHei&quot;, 微软雅黑, Arial" text-anchor="middle" font-size="30px" width="50px" fill="#ffffff" font-weight="400" align="middle" lineHeight="125%" anchor="middle" family="&quot;Microsoft YaHei&quot;, 微软雅黑, Arial" size="30px" weight="400" font-style="" opacity="1" y="9.25" transform="rotate(0)"><tspan id="SvgjsTspan1244" dy="37.5" x="35"><tspan id="SvgjsTspan1245" style="">17</tspan></tspan></text></g></g><g id="SvgjsG1246" transform="translate(1685.5,272.0047169811321)"><path id="SvgjsPath1247" d="M 0 35C 0 -11.667 70 -11.667 70 35C 70 81.667 0 81.667 0 35Z" stroke="rgba(255,255,255,1)" stroke-width="1.5" fill-opacity="1" fill="#000000"></path><g id="SvgjsG1248"><text id="SvgjsText1249" font-family="&quot;Microsoft YaHei&quot;, 微软雅黑, Arial" text-anchor="middle" font-size="30px" width="50px" fill="#ffffff" font-weight="400" align="middle" lineHeight="125%" anchor="middle" family="&quot;Microsoft YaHei&quot;, 微软雅黑, Arial" size="30px" weight="400" font-style="" opacity="1" y="9.25" transform="rotate(0)"><tspan id="SvgjsTspan1250" dy="37.5" x="35"><tspan id="SvgjsTspan1251" style="">20</tspan></tspan></text></g></g><g id="SvgjsG1252"><path id="SvgjsPath1253" d="M1569.64021825194 205.77865842593792L1475.6144913282828 271.5747165073358" stroke="#323232" stroke-width="1.5" fill="none"></path></g><g id="SvgjsG1254"><path id="SvgjsPath1255" d="M1623.344303587819 205.1495800862739L1719.882148511067 271.57955873103776" stroke="#323232" stroke-width="1.5" fill="none"></path></g><g id="SvgjsG1256"><path id="SvgjsPath1257" d="M1351.3071080272953 60.287055245834836L1142.6928919727047 146.71294475416516" stroke="#323232" stroke-width="1.5" fill="none"></path></g><g id="SvgjsG1258"><path id="SvgjsPath1259" d="M1422.671204596612 60.33464068713613L1595.828795403388 146.66535931286387" stroke="#323232" stroke-width="1.5" fill="none"></path></g><g id="SvgjsG1260" transform="translate(758.5,176.2547169811321)"><path id="SvgjsPath1261" d="M 0 19.8L 216.25 19.8L 216.25 0L 246.25 30L 216.25 60L 216.25 40.2L 0 40.2L 0 19.8Z" stroke="rgba(33,41,48,1)" stroke-width="1.5" fill-opacity="1" fill="#ffffff"></path><g id="SvgjsG1262"><text id="SvgjsText1263" font-family="&quot;Microsoft YaHei&quot;, 微软雅黑, Arial" text-anchor="middle" font-size="13px" width="247px" fill="#323232" font-weight="400" align="middle" lineHeight="125%" anchor="middle" family="&quot;Microsoft YaHei&quot;, 微软雅黑, Arial" size="13px" weight="400" font-style="" opacity="1" y="19.375" transform="rotate(0)"></text></g></g><g id="SvgjsG1264"></g></svg>