<svg id="SvgjsSvg1006" width="696.1269956316266" height="340" xmlns="http://www.w3.org/2000/svg" version="1.1" xmlns:xlink="http://www.w3.org/1999/xlink" xmlns:svgjs="http://svgjs.com/svgjs"><defs id="SvgjsDefs1007"><pattern patternUnits="userSpaceOnUse" id="pattern_mark_0" width="300" height="300"><text x="150" y="100" fill="rgba(229,229,229,0.8)" font-size="18" transform="rotate(-45, 150, 150)" style="dominant-baseline: middle; text-anchor: middle;"></text></pattern><pattern patternUnits="userSpaceOnUse" id="pattern_mark_1" width="300" height="300"><text x="150" y="200" fill="rgba(229,229,229,0.8)" font-size="18" transform="rotate(-45, 150, 150)" style="dominant-baseline: middle; text-anchor: middle;"></text></pattern><marker id="SvgjsMarker1047" markerWidth="13" markerHeight="9" refX="9.5" refY="4.5" viewBox="0 0 13 9" orient="auto" markerUnits="userSpaceOnUse" stroke-dasharray="0,0"><path id="SvgjsPath1048" d="M0,0 L13,4.5 L0,9 L0,0" fill="#323232" stroke="#323232" stroke-width="1"></path></marker></defs><rect id="svgbackgroundid" width="696.1269956316266" height="340" fill="transparent"></rect><rect id="SvgjsRect1009" width="696.1269956316266" height="340" fill="url(#pattern_mark_0)"></rect><rect id="SvgjsRect1010" width="696.1269956316266" height="340" fill="url(#pattern_mark_1)"></rect><g id="SvgjsG1011" transform="translate(187,86)"><path id="SvgjsPath1012" d="M 0 4Q 0 0 4 0L 204 0Q 208 0 208 4L 208 50Q 208 54 204 54L 4 54Q 0 54 0 50Z" stroke="rgba(255,255,255,1)" stroke-width="1.5" fill-opacity="1" fill="#95da69"></path><g id="SvgjsG1013"><text id="SvgjsText1014" font-family="&quot;Microsoft YaHei&quot;, 微软雅黑, Arial" text-anchor="middle" font-size="20px" width="188px" fill="#323232" font-weight="400" align="middle" lineHeight="125%" anchor="middle" family="&quot;Microsoft YaHei&quot;, 微软雅黑, Arial" size="20px" weight="400" font-style="" opacity="1" y="9" transform="rotate(0)"><tspan id="SvgjsTspan1015" dy="25" x="104"><tspan id="SvgjsTspan1016" style="">int a</tspan></tspan></text></g></g><g id="SvgjsG1017" transform="translate(187,142)"><path id="SvgjsPath1018" d="M 0 4Q 0 0 4 0L 204 0Q 208 0 208 4L 208 50Q 208 54 204 54L 4 54Q 0 54 0 50Z" stroke="rgba(255,255,255,1)" stroke-width="1.5" fill-opacity="1" fill="#e9d66f"></path><g id="SvgjsG1019"><text id="SvgjsText1020" font-family="&quot;Microsoft YaHei&quot;, 微软雅黑, Arial" text-anchor="middle" font-size="20px" width="188px" fill="#323232" font-weight="400" align="middle" lineHeight="125%" anchor="middle" family="&quot;Microsoft YaHei&quot;, 微软雅黑, Arial" size="20px" weight="400" font-style="" opacity="1" y="9" transform="rotate(0)"><tspan id="SvgjsTspan1021" dy="25" x="104"><tspan id="SvgjsTspan1022" style="">int b</tspan></tspan></text></g></g><g id="SvgjsG1023" transform="translate(187,198)"><path id="SvgjsPath1024" d="M 0 4Q 0 0 4 0L 204 0Q 208 0 208 4L 208 50Q 208 54 204 54L 4 54Q 0 54 0 50Z" stroke="rgba(255,255,255,1)" stroke-width="1.5" fill-opacity="1" fill="#70d5d7"></path><g id="SvgjsG1025"><text id="SvgjsText1026" font-family="&quot;Microsoft YaHei&quot;, 微软雅黑, Arial" text-anchor="middle" font-size="20px" width="188px" fill="#323232" font-weight="400" align="middle" lineHeight="125%" anchor="middle" family="&quot;Microsoft YaHei&quot;, 微软雅黑, Arial" size="20px" weight="400" font-style="" opacity="1" y="9" transform="rotate(0)"><tspan id="SvgjsTspan1027" dy="25" x="104"><tspan id="SvgjsTspan1028" style="">int c</tspan></tspan></text></g></g><g id="SvgjsG1029" transform="translate(25,25)"><path id="SvgjsPath1030" d="M 0 0L 84 0L 100 16L 100 40L 0 40L 0 0Z" stroke="none" fill-opacity="1" fill="#fff7bc"></path><path id="SvgjsPath1031" d="M 84 0L 84 16L 100 16Z" stroke="none" fill-opacity="1" fill="#e4d089"></path><path id="SvgjsPath1032" d="M 0 0L 84 0L 100 16L 100 40L 0 40L 0 0Z" stroke="none" fill="none"></path><g id="SvgjsG1033"><text id="SvgjsText1034" font-family="&quot;Microsoft YaHei&quot;, 微软雅黑, Arial" text-anchor="middle" font-size="20px" width="80px" fill="#323232" font-weight="400" align="middle" lineHeight="125%" anchor="middle" family="&quot;Microsoft YaHei&quot;, 微软雅黑, Arial" size="20px" weight="400" font-style="" opacity="1" y="2" transform="rotate(0)"><tspan id="SvgjsTspan1035" dy="25" x="50"><tspan id="SvgjsTspan1036" style="">低地址</tspan></tspan></text></g></g><g id="SvgjsG1037" transform="translate(25,275)"><path id="SvgjsPath1038" d="M 0 0L 84 0L 100 16L 100 40L 0 40L 0 0Z" stroke="none" fill-opacity="1" fill="#fff7bc"></path><path id="SvgjsPath1039" d="M 84 0L 84 16L 100 16Z" stroke="none" fill-opacity="1" fill="#e4d089"></path><path id="SvgjsPath1040" d="M 0 0L 84 0L 100 16L 100 40L 0 40L 0 0Z" stroke="none" fill="none"></path><g id="SvgjsG1041"><text id="SvgjsText1042" font-family="&quot;Microsoft YaHei&quot;, 微软雅黑, Arial" text-anchor="middle" font-size="20px" width="80px" fill="#323232" font-weight="400" align="middle" lineHeight="125%" anchor="middle" family="&quot;Microsoft YaHei&quot;, 微软雅黑, Arial" size="20px" weight="400" font-style="" opacity="1" y="2" transform="rotate(0)"><tspan id="SvgjsTspan1043" dy="25" x="50"><tspan id="SvgjsTspan1044" style="">高地址</tspan></tspan></text></g></g><g id="SvgjsG1045"><path id="SvgjsPath1046" d="M75 65L75 170L75 170L75 273.05" stroke="#323232" stroke-width="1.5" fill="none" marker-end="url(#SvgjsMarker1047)"></path></g><g id="SvgjsG1049" transform="translate(450.412709917341,86)"><path id="SvgjsPath1050" d="M 0 56Q 9 56 9 50.4L 9 33.6Q 9 28 22 28Q 9 28 9 22.4L 9 5.6Q 9 0 0 0" stroke="rgba(33,41,48,1)" stroke-width="1.5" fill="none"></path><path id="SvgjsPath1051" d="M 0 0L 120 0L 120 56L 0 56Z" stroke="none" fill="none"></path><g id="SvgjsG1052"><text id="SvgjsText1053" font-family="&quot;Microsoft YaHei&quot;, 微软雅黑, Arial" text-anchor="start" font-size="20px" width="93px" fill="#323232" font-weight="400" align="middle" lineHeight="125%" anchor="start" family="&quot;Microsoft YaHei&quot;, 微软雅黑, Arial" size="20px" weight="400" font-style="" opacity="1" y="10" transform="rotate(0)"><tspan id="SvgjsTspan1054" dy="25" x="27"><tspan id="SvgjsTspan1055" style="">A</tspan></tspan></text></g></g><g id="SvgjsG1056" transform="translate(498.98413848876953,85)"><path id="SvgjsPath1057" d="M 0 111Q 9 111 9 102L 9 64.5Q 9 55.5 22 55.5Q 9 55.5 9 46.5L 9 9Q 9 0 0 0" stroke="rgba(33,41,48,1)" stroke-width="1.5" fill="none"></path><path id="SvgjsPath1058" d="M 0 0L 120 0L 120 111L 0 111Z" stroke="none" fill="none"></path><g id="SvgjsG1059"><text id="SvgjsText1060" font-family="&quot;Microsoft YaHei&quot;, 微软雅黑, Arial" text-anchor="start" font-size="20px" width="93px" fill="#323232" font-weight="400" align="middle" lineHeight="125%" anchor="start" family="&quot;Microsoft YaHei&quot;, 微软雅黑, Arial" size="20px" weight="400" font-style="" opacity="1" y="37.5" transform="rotate(0)"><tspan id="SvgjsTspan1061" dy="25" x="27"><tspan id="SvgjsTspan1062" style="">B</tspan></tspan></text></g></g><g id="SvgjsG1063" transform="translate(551.1269956316266,86)"><path id="SvgjsPath1064" d="M 0 166Q 9 166 9 157L 9 92Q 9 83 22 83Q 9 83 9 74L 9 9Q 9 0 0 0" stroke="rgba(33,41,48,1)" stroke-width="1.5" fill="none"></path><path id="SvgjsPath1065" d="M 0 0L 120 0L 120 166L 0 166Z" stroke="none" fill="none"></path><g id="SvgjsG1066"><text id="SvgjsText1067" font-family="&quot;Microsoft YaHei&quot;, 微软雅黑, Arial" text-anchor="start" font-size="20px" width="93px" fill="#323232" font-weight="400" align="middle" lineHeight="125%" anchor="start" family="&quot;Microsoft YaHei&quot;, 微软雅黑, Arial" size="20px" weight="400" font-style="" opacity="1" y="65" transform="rotate(0)"><tspan id="SvgjsTspan1068" dy="25" x="27"><tspan id="SvgjsTspan1069" style="">C</tspan></tspan></text></g></g><g id="SvgjsG1070"></g></svg>