<svg id="SvgjsSvg1006" width="652.3030326149678" height="460" xmlns="http://www.w3.org/2000/svg" version="1.1" xmlns:xlink="http://www.w3.org/1999/xlink" xmlns:svgjs="http://svgjs.com/svgjs"><defs id="SvgjsDefs1007"><pattern patternUnits="userSpaceOnUse" id="pattern_mark_0" width="300" height="300"><text x="150" y="100" fill="rgba(229,229,229,0.8)" font-size="18" transform="rotate(-45, 150, 150)" style="dominant-baseline: middle; text-anchor: middle;"></text></pattern><pattern patternUnits="userSpaceOnUse" id="pattern_mark_1" width="300" height="300"><text x="150" y="200" fill="rgba(229,229,229,0.8)" font-size="18" transform="rotate(-45, 150, 150)" style="dominant-baseline: middle; text-anchor: middle;"></text></pattern><marker id="SvgjsMarker1047" markerWidth="13" markerHeight="9" refX="9.5" refY="4.5" viewBox="0 0 13 9" orient="auto" markerUnits="userSpaceOnUse" stroke-dasharray="0,0"><path id="SvgjsPath1048" d="M0,0 L13,4.5 L0,9 L0,0" fill="#323232" stroke="#323232" stroke-width="1"></path></marker></defs><rect id="svgbackgroundid" width="652.3030326149678" height="460" fill="transparent"></rect><rect id="SvgjsRect1009" width="652.3030326149678" height="460" fill="url(#pattern_mark_0)"></rect><rect id="SvgjsRect1010" width="652.3030326149678" height="460" fill="url(#pattern_mark_1)"></rect><g id="SvgjsG1011" transform="translate(147,70)"><path id="SvgjsPath1012" d="M 0 4Q 0 0 4 0L 204 0Q 208 0 208 4L 208 50Q 208 54 204 54L 4 54Q 0 54 0 50Z" stroke="rgba(255,255,255,1)" stroke-width="1.5" fill-opacity="1" fill="#95da69"></path><g id="SvgjsG1013"><text id="SvgjsText1014" font-family="&quot;Microsoft YaHei&quot;, 微软雅黑, Arial" text-anchor="middle" font-size="20px" width="188px" fill="#323232" font-weight="400" align="middle" lineHeight="125%" anchor="middle" family="&quot;Microsoft YaHei&quot;, 微软雅黑, Arial" size="20px" weight="400" font-style="" opacity="1" y="9" transform="rotate(0)"><tspan id="SvgjsTspan1015" dy="25" x="104"><tspan id="SvgjsTspan1016" style="">A::a</tspan></tspan></text></g></g><g id="SvgjsG1017" transform="translate(147,120)"><path id="SvgjsPath1018" d="M 0 4Q 0 0 4 0L 204 0Q 208 0 208 4L 208 50Q 208 54 204 54L 4 54Q 0 54 0 50Z" stroke="rgba(255,255,255,1)" stroke-width="1.5" fill-opacity="1" fill="#e9d66f"></path><g id="SvgjsG1019"><text id="SvgjsText1020" font-family="&quot;Microsoft YaHei&quot;, 微软雅黑, Arial" text-anchor="middle" font-size="20px" width="188px" fill="#323232" font-weight="400" align="middle" lineHeight="125%" anchor="middle" family="&quot;Microsoft YaHei&quot;, 微软雅黑, Arial" size="20px" weight="400" font-style="" opacity="1" y="9" transform="rotate(0)"><tspan id="SvgjsTspan1021" dy="25" x="104"><tspan id="SvgjsTspan1022" style="">B::b</tspan></tspan></text></g></g><g id="SvgjsG1023" transform="translate(147,279)"><path id="SvgjsPath1024" d="M 0 4Q 0 0 4 0L 204 0Q 208 0 208 4L 208 50Q 208 54 204 54L 4 54Q 0 54 0 50Z" stroke="rgba(255,255,255,1)" stroke-width="1.5" fill-opacity="1" fill="#70d5d7"></path><g id="SvgjsG1025"><text id="SvgjsText1026" font-family="&quot;Microsoft YaHei&quot;, 微软雅黑, Arial" text-anchor="middle" font-size="20px" width="188px" fill="#323232" font-weight="400" align="middle" lineHeight="125%" anchor="middle" family="&quot;Microsoft YaHei&quot;, 微软雅黑, Arial" size="20px" weight="400" font-style="" opacity="1" y="9" transform="rotate(0)"><tspan id="SvgjsTspan1027" dy="25" x="104"><tspan id="SvgjsTspan1028" style="">C::c</tspan></tspan></text></g></g><g id="SvgjsG1029" transform="translate(25,25)"><path id="SvgjsPath1030" d="M 0 0L 84 0L 100 16L 100 40L 0 40L 0 0Z" stroke="none" fill-opacity="1" fill="#fff7bc"></path><path id="SvgjsPath1031" d="M 84 0L 84 16L 100 16Z" stroke="none" fill-opacity="1" fill="#e4d089"></path><path id="SvgjsPath1032" d="M 0 0L 84 0L 100 16L 100 40L 0 40L 0 0Z" stroke="none" fill="none"></path><g id="SvgjsG1033"><text id="SvgjsText1034" font-family="&quot;Microsoft YaHei&quot;, 微软雅黑, Arial" text-anchor="middle" font-size="20px" width="80px" fill="#323232" font-weight="400" align="middle" lineHeight="125%" anchor="middle" family="&quot;Microsoft YaHei&quot;, 微软雅黑, Arial" size="20px" weight="400" font-style="" opacity="1" y="2" transform="rotate(0)"><tspan id="SvgjsTspan1035" dy="25" x="50"><tspan id="SvgjsTspan1036" style="">低地址</tspan></tspan></text></g></g><g id="SvgjsG1037" transform="translate(25,395)"><path id="SvgjsPath1038" d="M 0 0L 84 0L 100 16L 100 40L 0 40L 0 0Z" stroke="none" fill-opacity="1" fill="#fff7bc"></path><path id="SvgjsPath1039" d="M 84 0L 84 16L 100 16Z" stroke="none" fill-opacity="1" fill="#e4d089"></path><path id="SvgjsPath1040" d="M 0 0L 84 0L 100 16L 100 40L 0 40L 0 0Z" stroke="none" fill="none"></path><g id="SvgjsG1041"><text id="SvgjsText1042" font-family="&quot;Microsoft YaHei&quot;, 微软雅黑, Arial" text-anchor="middle" font-size="20px" width="80px" fill="#323232" font-weight="400" align="middle" lineHeight="125%" anchor="middle" family="&quot;Microsoft YaHei&quot;, 微软雅黑, Arial" size="20px" weight="400" font-style="" opacity="1" y="2" transform="rotate(0)"><tspan id="SvgjsTspan1043" dy="25" x="50"><tspan id="SvgjsTspan1044" style="">高地址</tspan></tspan></text></g></g><g id="SvgjsG1045"><path id="SvgjsPath1046" d="M75 65L75 230L75 230L75 393.05" stroke="#323232" stroke-width="1.5" fill="none" marker-end="url(#SvgjsMarker1047)"></path></g><g id="SvgjsG1049" transform="translate(147,225)"><path id="SvgjsPath1050" d="M 0 4Q 0 0 4 0L 204 0Q 208 0 208 4L 208 50Q 208 54 204 54L 4 54Q 0 54 0 50Z" stroke="rgba(255,255,255,1)" stroke-width="1.5" fill-opacity="1" fill="#70d5d7"></path><g id="SvgjsG1051"><text id="SvgjsText1052" font-family="&quot;Microsoft YaHei&quot;, 微软雅黑, Arial" text-anchor="middle" font-size="20px" width="188px" fill="#323232" font-weight="400" align="middle" lineHeight="125%" anchor="middle" family="&quot;Microsoft YaHei&quot;, 微软雅黑, Arial" size="20px" weight="400" font-style="" opacity="1" y="9" transform="rotate(0)"><tspan id="SvgjsTspan1053" dy="25" x="104"><tspan id="SvgjsTspan1054" style="">C::b</tspan></tspan></text></g></g><g id="SvgjsG1055" transform="translate(147,173)"><path id="SvgjsPath1056" d="M 0 4Q 0 0 4 0L 204 0Q 208 0 208 4L 208 50Q 208 54 204 54L 4 54Q 0 54 0 50Z" stroke="rgba(255,255,255,1)" stroke-width="1.5" fill-opacity="1" fill="#70d5d7"></path><g id="SvgjsG1057"><text id="SvgjsText1058" font-family="&quot;Microsoft YaHei&quot;, 微软雅黑, Arial" text-anchor="middle" font-size="20px" width="188px" fill="#323232" font-weight="400" align="middle" lineHeight="125%" anchor="middle" family="&quot;Microsoft YaHei&quot;, 微软雅黑, Arial" size="20px" weight="400" font-style="" opacity="1" y="9" transform="rotate(0)"><tspan id="SvgjsTspan1059" dy="25" x="104"><tspan id="SvgjsTspan1060" style="">C::a</tspan></tspan></text></g></g><g id="SvgjsG1061" transform="translate(390.0303053422407,70)"><path id="SvgjsPath1062" d="M 0 54Q 9 54 9 48.6L 9 32.4Q 9 27 22 27Q 9 27 9 21.6L 9 5.4Q 9 0 0 0" stroke="rgba(33,41,48,1)" stroke-width="1.5" fill="none"></path><path id="SvgjsPath1063" d="M 0 0L 120 0L 120 54L 0 54Z" stroke="none" fill="none"></path><g id="SvgjsG1064"><text id="SvgjsText1065" font-family="&quot;Microsoft YaHei&quot;, 微软雅黑, Arial" text-anchor="start" font-size="20px" width="93px" fill="#323232" font-weight="400" align="middle" lineHeight="125%" anchor="start" family="&quot;Microsoft YaHei&quot;, 微软雅黑, Arial" size="20px" weight="400" font-style="" opacity="1" y="9" transform="rotate(0)"><tspan id="SvgjsTspan1066" dy="25" x="27"><tspan id="SvgjsTspan1067" style="">A</tspan></tspan></text></g></g><g id="SvgjsG1068" transform="translate(448.2121235240588,70)"><path id="SvgjsPath1069" d="M 0 103Q 9 103 9 94L 9 60.5Q 9 51.5 22 51.5Q 9 51.5 9 42.5L 9 9Q 9 0 0 0" stroke="rgba(33,41,48,1)" stroke-width="1.5" fill="none"></path><path id="SvgjsPath1070" d="M 0 0L 120 0L 120 103L 0 103Z" stroke="none" fill="none"></path><g id="SvgjsG1071"><text id="SvgjsText1072" font-family="&quot;Microsoft YaHei&quot;, 微软雅黑, Arial" text-anchor="start" font-size="20px" width="93px" fill="#323232" font-weight="400" align="middle" lineHeight="125%" anchor="start" family="&quot;Microsoft YaHei&quot;, 微软雅黑, Arial" size="20px" weight="400" font-style="" opacity="1" y="33.5" transform="rotate(0)"><tspan id="SvgjsTspan1073" dy="25" x="27"><tspan id="SvgjsTspan1074" style="">B</tspan></tspan></text></g></g><g id="SvgjsG1075" transform="translate(507.30303261496783,70)"><path id="SvgjsPath1076" d="M 0 260Q 9 260 9 251L 9 139Q 9 130 22 130Q 9 130 9 121L 9 9Q 9 0 0 0" stroke="rgba(33,41,48,1)" stroke-width="1.5" fill="none"></path><path id="SvgjsPath1077" d="M 0 0L 120 0L 120 260L 0 260Z" stroke="none" fill="none"></path><g id="SvgjsG1078"><text id="SvgjsText1079" font-family="&quot;Microsoft YaHei&quot;, 微软雅黑, Arial" text-anchor="start" font-size="20px" width="93px" fill="#323232" font-weight="400" align="middle" lineHeight="125%" anchor="start" family="&quot;Microsoft YaHei&quot;, 微软雅黑, Arial" size="20px" weight="400" font-style="" opacity="1" y="112" transform="rotate(0)"><tspan id="SvgjsTspan1080" dy="25" x="27"><tspan id="SvgjsTspan1081" style="">C</tspan></tspan></text></g></g><g id="SvgjsG1082"></g></svg>