<svg id="SvgjsSvg1006" width="521" height="188" xmlns="http://www.w3.org/2000/svg" version="1.1" xmlns:xlink="http://www.w3.org/1999/xlink" xmlns:svgjs="http://svgjs.com/svgjs"><defs id="SvgjsDefs1007"><pattern patternUnits="userSpaceOnUse" id="pattern_mark_0" width="300" height="300"><text x="150" y="100" fill="rgba(229,229,229,0.8)" font-size="18" transform="rotate(-45, 150, 150)" style="dominant-baseline: middle; text-anchor: middle;"></text></pattern><pattern patternUnits="userSpaceOnUse" id="pattern_mark_1" width="300" height="300"><text x="150" y="200" fill="rgba(229,229,229,0.8)" font-size="18" transform="rotate(-45, 150, 150)" style="dominant-baseline: middle; text-anchor: middle;"></text></pattern></defs><rect id="svgbackgroundid" width="521" height="188" fill="transparent"></rect><rect id="SvgjsRect1009" width="521" height="188" fill="url(#pattern_mark_0)"></rect><rect id="SvgjsRect1010" width="521" height="188" fill="url(#pattern_mark_1)"></rect><g id="SvgjsG1011" transform="translate(31,25)"><path id="SvgjsPath1012" d="M 0 4Q 0 0 4 0L 97 0Q 101 0 101 4L 101 50Q 101 54 97 54L 4 54Q 0 54 0 50Z" stroke="rgba(33,41,48,1)" stroke-width="1.5" fill-opacity="1" fill="#ed9745"></path><g id="SvgjsG1013"><text id="SvgjsText1014" font-family="&quot;Microsoft YaHei&quot;, 微软雅黑, Arial" text-anchor="middle" font-size="20px" width="81px" fill="#ffffff" font-weight="400" align="middle" lineHeight="125%" anchor="middle" family="&quot;Microsoft YaHei&quot;, 微软雅黑, Arial" size="20px" weight="400" font-style="" opacity="1" y="-3.5" transform="rotate(0)"><tspan id="SvgjsTspan1015" dy="25" x="50.5"><tspan id="SvgjsTspan1016" style="">对象A的</tspan></tspan><tspan id="SvgjsTspan1017" dy="25" x="50.5"><tspan id="SvgjsTspan1018" style="">成员变量</tspan></tspan></text></g></g><g id="SvgjsG1019" transform="translate(203,25)"><path id="SvgjsPath1020" d="M 0 4Q 0 0 3.9999999999999996 0L 103 0Q 107 0 107 4L 107 50Q 107 54 103 54L 3.9999999999999996 54Q 0 54 0 50Z" stroke="rgba(33,41,48,1)" stroke-width="1.5" fill-opacity="1" fill="#4669ea"></path><g id="SvgjsG1021"><text id="SvgjsText1022" font-family="&quot;Microsoft YaHei&quot;, 微软雅黑, Arial" text-anchor="middle" font-size="20px" width="87px" fill="#ffffff" font-weight="400" align="middle" lineHeight="125%" anchor="middle" family="&quot;Microsoft YaHei&quot;, 微软雅黑, Arial" size="20px" weight="400" font-style="" opacity="1" y="-3.5" transform="rotate(0)"><tspan id="SvgjsTspan1023" dy="25" x="53.5"><tspan id="SvgjsTspan1024" style="">对象B的</tspan></tspan><tspan id="SvgjsTspan1025" dy="25" x="53.5"><tspan id="SvgjsTspan1026" style="">成员变量</tspan></tspan></text></g></g><g id="SvgjsG1027" transform="translate(384,25)"><path id="SvgjsPath1028" d="M 0 4Q 0 0 4 0L 100 0Q 104 0 104 4L 104 50Q 104 54 100 54L 4 54Q 0 54 0 50Z" stroke="rgba(33,41,48,1)" stroke-width="1.5" fill-opacity="1" fill="#569230"></path><g id="SvgjsG1029"><text id="SvgjsText1030" font-family="&quot;Microsoft YaHei&quot;, 微软雅黑, Arial" text-anchor="middle" font-size="20px" width="84px" fill="#ffffff" font-weight="400" align="middle" lineHeight="125%" anchor="middle" family="&quot;Microsoft YaHei&quot;, 微软雅黑, Arial" size="20px" weight="400" font-style="" opacity="1" y="-3.5" transform="rotate(0)"><tspan id="SvgjsTspan1031" dy="25" x="52"><tspan id="SvgjsTspan1032" style="">对象C的</tspan></tspan><tspan id="SvgjsTspan1033" dy="25" x="52"><tspan id="SvgjsTspan1034" style="">成员变量</tspan></tspan></text></g></g><g id="SvgjsG1035" transform="translate(25,109)"><path id="SvgjsPath1036" d="M 0 4Q 0 0 4 0L 467 0Q 471 0 471 4L 471 50Q 471 54 467 54L 4 54Q 0 54 0 50Z" stroke="rgba(33,41,48,1)" stroke-width="1.5" fill-opacity="1" fill="#9d8c88"></path><g id="SvgjsG1037"><text id="SvgjsText1038" font-family="&quot;Microsoft YaHei&quot;, 微软雅黑, Arial" text-anchor="middle" font-size="20px" width="451px" fill="#ffffff" font-weight="400" align="middle" lineHeight="125%" anchor="middle" family="&quot;Microsoft YaHei&quot;, 微软雅黑, Arial" size="20px" weight="400" font-style="" opacity="1" y="9" transform="rotate(0)"><tspan id="SvgjsTspan1039" dy="25" x="235.5"><tspan id="SvgjsTspan1040" style="">成员函数</tspan></tspan></text></g></g><g id="SvgjsG1041"></g></svg>