<svg id="SvgjsSvg1063" width="418.0370178222656" height="266.9166717529297" xmlns="http://www.w3.org/2000/svg" version="1.1" xmlns:xlink="http://www.w3.org/1999/xlink" xmlns:svgjs="http://svgjs.com/svgjs"><defs id="SvgjsDefs1064"><pattern patternUnits="userSpaceOnUse" id="pattern_mark_0" width="300" height="300"><text x="150" y="100" fill="rgba(229,229,229,0.8)" font-size="18" transform="rotate(-45, 150, 150)" style="dominant-baseline: middle; text-anchor: middle;"></text></pattern><pattern patternUnits="userSpaceOnUse" id="pattern_mark_1" width="300" height="300"><text x="150" y="200" fill="rgba(229,229,229,0.8)" font-size="18" transform="rotate(-45, 150, 150)" style="dominant-baseline: middle; text-anchor: middle;"></text></pattern><marker id="SvgjsMarker1110" markerWidth="13" markerHeight="9" refX="9.5" refY="4.5" viewBox="0 0 13 9" orient="auto" markerUnits="userSpaceOnUse" stroke-dasharray="0,0"><path id="SvgjsPath1111" d="M0,0 L13,4.5 L0,9 L0,0" fill="#323232" stroke="#323232" stroke-width="1"></path></marker></defs><rect id="svgbackgroundid" width="418.0370178222656" height="266.9166717529297" fill="transparent"></rect><rect id="SvgjsRect1066" width="418.0370178222656" height="266.9166717529297" fill="url(#pattern_mark_0)"></rect><rect id="SvgjsRect1067" width="418.0370178222656" height="266.9166717529297" fill="url(#pattern_mark_1)"></rect><g id="SvgjsG1068" transform="translate(145.620361328125,175.1666717529297)"><path id="SvgjsPath1069" d="M 0 4Q 0 0 4 0L 92 0Q 96 0 96 4L 96 39Q 96 43 92 43L 4 43Q 0 43 0 39Z" stroke="rgba(255,255,255,1)" stroke-width="1.5" fill-opacity="1" fill="#4669ea"></path><g id="SvgjsG1070"><text id="SvgjsText1071" font-family="&quot;Microsoft YaHei&quot;, 微软雅黑, Arial" text-anchor="middle" font-size="20px" width="76px" fill="#ffffff" font-weight="400" align="middle" lineHeight="125%" anchor="middle" family="&quot;Microsoft YaHei&quot;, 微软雅黑, Arial" size="20px" weight="400" font-style="" opacity="1" y="3.5" transform="rotate(0)"><tspan id="SvgjsTspan1072" dy="25" x="48"><tspan id="SvgjsTspan1073" style="">A::a</tspan></tspan></text></g></g><g id="SvgjsG1074" transform="translate(145.620361328125,133.33333587646484)"><path id="SvgjsPath1075" d="M 0 4Q 0 0 4 0L 92 0Q 96 0 96 4L 96 37.333Q 96 41.333 92 41.333L 4 41.333Q 0 41.333 0 37.333Z" stroke="rgba(255,255,255,1)" stroke-width="1.5" fill-opacity="1" fill="#148ba3"></path><g id="SvgjsG1076"><text id="SvgjsText1077" font-family="&quot;Microsoft YaHei&quot;, 微软雅黑, Arial" text-anchor="middle" font-size="20px" width="76px" fill="#ffffff" font-weight="400" align="middle" lineHeight="125%" anchor="middle" family="&quot;Microsoft YaHei&quot;, 微软雅黑, Arial" size="20px" weight="400" font-style="" opacity="1" y="2.666499999999999" transform="rotate(0)"><tspan id="SvgjsTspan1078" dy="25" x="48"><tspan id="SvgjsTspan1079" style="">D::d</tspan></tspan></text></g></g><g id="SvgjsG1080" transform="translate(145.620361328125,91.33333587646484)"><path id="SvgjsPath1081" d="M 0 4Q 0 0 4 0L 92 0Q 96 0 96 4L 96 38Q 96 42 92 42L 4 42Q 0 42 0 38Z" stroke="rgba(255,255,255,1)" stroke-width="1.5" fill-opacity="1" fill="#569230"></path><g id="SvgjsG1082"><text id="SvgjsText1083" font-family="&quot;Microsoft YaHei&quot;, 微软雅黑, Arial" text-anchor="middle" font-size="20px" width="76px" fill="#ffffff" font-weight="400" align="middle" lineHeight="125%" anchor="middle" family="&quot;Microsoft YaHei&quot;, 微软雅黑, Arial" size="20px" weight="400" font-style="" opacity="1" y="3" transform="rotate(0)"><tspan id="SvgjsTspan1084" dy="25" x="48"><tspan id="SvgjsTspan1085" style="">C::c</tspan></tspan></text></g></g><g id="SvgjsG1086" transform="translate(144.620361328125,48.5)"><path id="SvgjsPath1087" d="M 0 4Q 0 0 4 0L 92 0Q 96 0 96 4L 96 38.833Q 96 42.833 92 42.833L 4 42.833Q 0 42.833 0 38.833Z" stroke="rgba(255,255,255,1)" stroke-width="1.5" fill-opacity="1" fill="#ed9745"></path><g id="SvgjsG1088"><text id="SvgjsText1089" font-family="&quot;Microsoft YaHei&quot;, 微软雅黑, Arial" text-anchor="middle" font-size="20px" width="76px" fill="#ffffff" font-weight="400" align="middle" lineHeight="125%" anchor="middle" family="&quot;Microsoft YaHei&quot;, 微软雅黑, Arial" size="20px" weight="400" font-style="" opacity="1" y="3.416499999999999" transform="rotate(0)"><tspan id="SvgjsTspan1090" dy="25" x="48"><tspan id="SvgjsTspan1091" style="">B::b</tspan></tspan></text></g></g><g id="SvgjsG1092" transform="translate(25,218.1666717529297)"><path id="SvgjsPath1093" d="M 0 0L 73.204 0L 89.204 16L 89.204 22.5L 0 22.5L 0 0Z" stroke="none" fill-opacity="1" fill="#fff7bc"></path><path id="SvgjsPath1094" d="M 73.204 0L 73.204 16L 89.204 16Z" stroke="none" fill-opacity="1" fill="#e4d089"></path><path id="SvgjsPath1095" d="M 0 0L 73.204 0L 89.204 16L 89.204 22.5L 0 22.5L 0 0Z" stroke="none" fill="none"></path><g id="SvgjsG1096"><text id="SvgjsText1097" font-family="&quot;Microsoft YaHei&quot;, 微软雅黑, Arial" text-anchor="middle" font-size="20px" width="70px" fill="#323232" font-weight="400" align="middle" lineHeight="125%" anchor="middle" family="&quot;Microsoft YaHei&quot;, 微软雅黑, Arial" size="20px" weight="400" font-style="" opacity="1" y="-6.75" transform="rotate(0)"><tspan id="SvgjsTspan1098" dy="25" x="45"><tspan id="SvgjsTspan1099" style="">高地址</tspan></tspan></text></g></g><g id="SvgjsG1100" transform="translate(26.25,26.5)"><path id="SvgjsPath1101" d="M 0 0L 70.704 0L 86.704 16L 86.704 22L 0 22L 0 0Z" stroke="none" fill-opacity="1" fill="#fff7bc"></path><path id="SvgjsPath1102" d="M 70.704 0L 70.704 16L 86.704 16Z" stroke="none" fill-opacity="1" fill="#e4d089"></path><path id="SvgjsPath1103" d="M 0 0L 70.704 0L 86.704 16L 86.704 22L 0 22L 0 0Z" stroke="none" fill="none"></path><g id="SvgjsG1104"><text id="SvgjsText1105" font-family="&quot;Microsoft YaHei&quot;, 微软雅黑, Arial" text-anchor="middle" font-size="20px" width="67px" fill="#323232" font-weight="400" align="middle" lineHeight="125%" anchor="middle" family="&quot;Microsoft YaHei&quot;, 微软雅黑, Arial" size="20px" weight="400" font-style="" opacity="1" y="-7" transform="rotate(0)"><tspan id="SvgjsTspan1106" dy="25" x="43.5"><tspan id="SvgjsTspan1107" style="">低地址</tspan></tspan></text></g></g><g id="SvgjsG1108"><path id="SvgjsPath1109" d="M69.60185241699219 48.5L69.60185241699219 133.33333587646484L69.60185241699219 133.33333587646484L69.60185241699219 216.2166717529297" stroke="#323232" stroke-width="1.5" fill="none" marker-end="url(#SvgjsMarker1110)"></path></g><g id="SvgjsG1112" transform="translate(273.0370178222656,174.6666717529297)"><path id="SvgjsPath1113" d="M 0 43.5Q 9 43.5 9 39.15L 9 26.1Q 9 21.75 22 21.75Q 9 21.75 9 17.4L 9 4.35Q 9 0 0 0" stroke="rgba(33,41,48,1)" stroke-width="1.5" fill="none"></path><path id="SvgjsPath1114" d="M 0 0L 120 0L 120 43.5L 0 43.5Z" stroke="none" fill="none"></path><g id="SvgjsG1115"><text id="SvgjsText1116" font-family="&quot;Microsoft YaHei&quot;, 微软雅黑, Arial" text-anchor="start" font-size="20px" width="93px" fill="#323232" font-weight="400" align="middle" lineHeight="125%" anchor="start" family="&quot;Microsoft YaHei&quot;, 微软雅黑, Arial" size="20px" weight="400" font-style="" opacity="1" y="3.75" transform="rotate(0)"><tspan id="SvgjsTspan1117" dy="25" x="27"><tspan id="SvgjsTspan1118" style="">子对象A</tspan></tspan></text></g></g><g id="SvgjsG1119"></g></svg>