<svg id="SvgjsSvg1006" width="1559.75" height="1693.0551948051946" xmlns="http://www.w3.org/2000/svg" version="1.1" xmlns:xlink="http://www.w3.org/1999/xlink" xmlns:svgjs="http://svgjs.com/svgjs"><defs id="SvgjsDefs1007"><pattern patternUnits="userSpaceOnUse" id="pattern_mark_0" width="300" height="300"><text x="150" y="100" fill="rgba(229,229,229,0.8)" font-size="18" transform="rotate(-45, 150, 150)" style="dominant-baseline: middle; text-anchor: middle;"></text></pattern><pattern patternUnits="userSpaceOnUse" id="pattern_mark_1" width="300" height="300"><text x="150" y="200" fill="rgba(229,229,229,0.8)" font-size="18" transform="rotate(-45, 150, 150)" style="dominant-baseline: middle; text-anchor: middle;"></text></pattern><marker id="SvgjsMarker1049" markerWidth="16" markerHeight="12" refX="11" refY="6" viewBox="0 0 16 12" orient="auto" markerUnits="userSpaceOnUse" stroke-dasharray="0,0"><path id="SvgjsPath1050" d="M0,0 L16,6 L0,12 L0,0" fill="#000000" stroke="#000000" stroke-width="1"></path></marker><marker id="SvgjsMarker1069" markerWidth="16" markerHeight="12" refX="11" refY="6" viewBox="0 0 16 12" orient="auto" markerUnits="userSpaceOnUse" stroke-dasharray="0,0"><path id="SvgjsPath1070" d="M0,0 L16,6 L0,12 L0,0" fill="#000000" stroke="#000000" stroke-width="1"></path></marker><marker id="SvgjsMarker1073" markerWidth="16" markerHeight="12" refX="11" refY="6" viewBox="0 0 16 12" orient="auto" markerUnits="userSpaceOnUse" stroke-dasharray="0,0"><path id="SvgjsPath1074" d="M0,0 L16,6 L0,12 L0,0" fill="#000000" stroke="#000000" stroke-width="1"></path></marker><marker id="SvgjsMarker1077" markerWidth="16" markerHeight="12" refX="11" refY="6" viewBox="0 0 16 12" orient="auto" markerUnits="userSpaceOnUse" stroke-dasharray="0,0"><path id="SvgjsPath1078" d="M0,0 L16,6 L0,12 L0,0" fill="#323232" stroke="#323232" stroke-width="1"></path></marker><marker id="SvgjsMarker1127" markerWidth="16" markerHeight="12" refX="11" refY="6" viewBox="0 0 16 12" orient="auto" markerUnits="userSpaceOnUse" stroke-dasharray="0,0"><path id="SvgjsPath1128" d="M0,0 L16,6 L0,12 L0,0" fill="#000000" stroke="#000000" stroke-width="1"></path></marker><marker id="SvgjsMarker1147" markerWidth="16" markerHeight="12" refX="11" refY="6" viewBox="0 0 16 12" orient="auto" markerUnits="userSpaceOnUse" stroke-dasharray="0,0"><path id="SvgjsPath1148" d="M0,0 L16,6 L0,12 L0,0" fill="#000000" stroke="#000000" stroke-width="1"></path></marker><marker id="SvgjsMarker1151" markerWidth="16" markerHeight="12" refX="11" refY="6" viewBox="0 0 16 12" orient="auto" markerUnits="userSpaceOnUse" stroke-dasharray="0,0"><path id="SvgjsPath1152" d="M0,0 L16,6 L0,12 L0,0" fill="#000000" stroke="#000000" stroke-width="1"></path></marker><marker id="SvgjsMarker1155" markerWidth="16" markerHeight="12" refX="11" refY="6" viewBox="0 0 16 12" orient="auto" markerUnits="userSpaceOnUse" stroke-dasharray="0,0"><path id="SvgjsPath1156" d="M0,0 L16,6 L0,12 L0,0" fill="#323232" stroke="#323232" stroke-width="1"></path></marker><marker id="SvgjsMarker1175" markerWidth="16" markerHeight="12" refX="11" refY="6" viewBox="0 0 16 12" orient="auto" markerUnits="userSpaceOnUse" stroke-dasharray="0,0"><path id="SvgjsPath1176" d="M0,0 L16,6 L0,12 L0,0" fill="#e32222" stroke="#e32222" stroke-width="1"></path></marker><marker id="SvgjsMarker1205" markerWidth="16" markerHeight="12" refX="11" refY="6" viewBox="0 0 16 12" orient="auto" markerUnits="userSpaceOnUse" stroke-dasharray="0,0"><path id="SvgjsPath1206" d="M0,0 L16,6 L0,12 L0,0" fill="#e32222" stroke="#e32222" stroke-width="1"></path></marker><marker id="SvgjsMarker1225" markerWidth="16" markerHeight="12" refX="11" refY="6" viewBox="0 0 16 12" orient="auto" markerUnits="userSpaceOnUse" stroke-dasharray="0,0"><path id="SvgjsPath1226" d="M0,0 L16,6 L0,12 L0,0" fill="#000000" stroke="#000000" stroke-width="1"></path></marker><marker id="SvgjsMarker1229" markerWidth="16" markerHeight="12" refX="11" refY="6" viewBox="0 0 16 12" orient="auto" markerUnits="userSpaceOnUse" stroke-dasharray="0,0"><path id="SvgjsPath1230" d="M0,0 L16,6 L0,12 L0,0" fill="#000000" stroke="#000000" stroke-width="1"></path></marker><marker id="SvgjsMarker1233" markerWidth="16" markerHeight="12" refX="11" refY="6" viewBox="0 0 16 12" orient="auto" markerUnits="userSpaceOnUse" stroke-dasharray="0,0"><path id="SvgjsPath1234" d="M0,0 L16,6 L0,12 L0,0" fill="#323232" stroke="#323232" stroke-width="1"></path></marker><marker id="SvgjsMarker1253" markerWidth="16" markerHeight="12" refX="11" refY="6" viewBox="0 0 16 12" orient="auto" markerUnits="userSpaceOnUse" stroke-dasharray="0,0"><path id="SvgjsPath1254" d="M0,0 L16,6 L0,12 L0,0" fill="#e32222" stroke="#e32222" stroke-width="1"></path></marker><marker id="SvgjsMarker1283" markerWidth="16" markerHeight="12" refX="11" refY="6" viewBox="0 0 16 12" orient="auto" markerUnits="userSpaceOnUse" stroke-dasharray="0,0"><path id="SvgjsPath1284" d="M0,0 L16,6 L0,12 L0,0" fill="#e32222" stroke="#e32222" stroke-width="1"></path></marker><marker id="SvgjsMarker1303" markerWidth="16" markerHeight="12" refX="11" refY="6" viewBox="0 0 16 12" orient="auto" markerUnits="userSpaceOnUse" stroke-dasharray="0,0"><path id="SvgjsPath1304" d="M0,0 L16,6 L0,12 L0,0" fill="#000000" stroke="#000000" stroke-width="1"></path></marker><marker id="SvgjsMarker1307" markerWidth="16" markerHeight="12" refX="11" refY="6" viewBox="0 0 16 12" orient="auto" markerUnits="userSpaceOnUse" stroke-dasharray="0,0"><path id="SvgjsPath1308" d="M0,0 L16,6 L0,12 L0,0" fill="#000000" stroke="#000000" stroke-width="1"></path></marker><marker id="SvgjsMarker1327" markerWidth="16" markerHeight="12" refX="11" refY="6" viewBox="0 0 16 12" orient="auto" markerUnits="userSpaceOnUse" stroke-dasharray="0,0"><path id="SvgjsPath1328" d="M0,0 L16,6 L0,12 L0,0" fill="#e32222" stroke="#e32222" stroke-width="1"></path></marker><marker id="SvgjsMarker1331" markerWidth="16" markerHeight="12" refX="11" refY="6" viewBox="0 0 16 12" orient="auto" markerUnits="userSpaceOnUse" stroke-dasharray="0,0"><path id="SvgjsPath1332" d="M0,0 L16,6 L0,12 L0,0" fill="#e32222" stroke="#e32222" stroke-width="1"></path></marker></defs><rect id="svgbackgroundid" width="1559.75" height="1693.0551948051946" fill="transparent"></rect><rect id="SvgjsRect1009" width="1559.75" height="1693.0551948051946" fill="url(#pattern_mark_0)"></rect><rect id="SvgjsRect1010" width="1559.75" height="1693.0551948051946" fill="url(#pattern_mark_1)"></rect><g id="SvgjsG1011" transform="translate(829.6237373737372,477.2215007215008)"><path id="SvgjsPath1012" d="M 19.8 0L 40.2 0L 40.2 60L 60 60L 30 90L 0 60L 19.8 60L 19.8 0Z" stroke="rgba(0,0,0,1)" stroke-width="1.5" fill-opacity="1" fill="#000000"></path><g id="SvgjsG1013"><text id="SvgjsText1014" font-family="&quot;Microsoft YaHei&quot;, 微软雅黑, Arial" text-anchor="middle" font-size="20px" width="84px" fill="#323232" font-weight="400" align="middle" lineHeight="125%" anchor="middle" family="&quot;Microsoft YaHei&quot;, 微软雅黑, Arial" size="20px" weight="400" font-style="" opacity="1" y="22.5" transform="rotate(0)"></text></g></g><g id="SvgjsG1015" transform="translate(499.75,264.51948051948034)"><path id="SvgjsPath1016" d="M 0 4Q 0 0 4 0L 220 0Q 224 0 224 4L 224 114Q 224 118 220 118L 4 118Q 0 118 0 114Z" stroke="rgba(255,255,255,1)" stroke-width="1.5" fill-opacity="1" fill="#7bd144"></path><g id="SvgjsG1017"><text id="SvgjsText1018" font-family="&quot;Microsoft YaHei&quot;, 微软雅黑, Arial" text-anchor="middle" font-size="20px" width="204px" fill="#323232" font-weight="400" align="middle" lineHeight="125%" anchor="middle" family="&quot;Microsoft YaHei&quot;, 微软雅黑, Arial" size="20px" weight="400" font-style="" opacity="1" y="41" transform="rotate(0)"></text></g></g><g id="SvgjsG1019" transform="translate(606.75,274.01948051948034)"><path id="SvgjsPath1020" d="M 0 4Q 0 0 4 0L 101 0Q 105 0 105 4L 105 33Q 105 37 101 37L 4 37Q 0 37 0 33Z" stroke="rgba(33,41,48,1)" stroke-width="1.5" fill-opacity="1" fill="#000000"></path><g id="SvgjsG1021"><text id="SvgjsText1022" font-family="&quot;Microsoft YaHei&quot;, 微软雅黑, Arial" text-anchor="middle" font-size="20px" width="85px" fill="#ffffff" font-weight="400" align="middle" lineHeight="125%" anchor="middle" family="&quot;Microsoft YaHei&quot;, 微软雅黑, Arial" size="20px" weight="400" font-style="" opacity="1" y="0.5" transform="rotate(0)"><tspan id="SvgjsTspan1023" dy="25" x="52.5"><tspan id="SvgjsTspan1024" style="">sqe_next</tspan></tspan></text></g></g><g id="SvgjsG1025" transform="translate(320.5,68)"><path id="SvgjsPath1026" d="M 0 4Q 0 0 4 0L 127 0Q 131 0 131 4L 131 111Q 131 115 127 115L 4 115Q 0 115 0 111Z" stroke="rgba(255,255,255,1)" stroke-width="1.5" fill-opacity="1" fill="#beb3af"></path><g id="SvgjsG1027"><text id="SvgjsText1028" font-family="&quot;Microsoft YaHei&quot;, 微软雅黑, Arial" text-anchor="middle" font-size="20px" width="111px" fill="#323232" font-weight="400" align="middle" lineHeight="125%" anchor="middle" family="&quot;Microsoft YaHei&quot;, 微软雅黑, Arial" size="20px" weight="400" font-style="" opacity="1" y="39.5" transform="rotate(0)"></text></g></g><g id="SvgjsG1029" transform="translate(333.5,80)"><path id="SvgjsPath1030" d="M 0 4Q 0 0 4 0L 101 0Q 105 0 105 4L 105 33Q 105 37 101 37L 4 37Q 0 37 0 33Z" stroke="rgba(33,41,48,1)" stroke-width="1.5" fill-opacity="1" fill="#000000"></path><g id="SvgjsG1031"><text id="SvgjsText1032" font-family="&quot;Microsoft YaHei&quot;, 微软雅黑, Arial" text-anchor="middle" font-size="20px" width="85px" fill="#ffffff" font-weight="400" align="middle" lineHeight="125%" anchor="middle" family="&quot;Microsoft YaHei&quot;, 微软雅黑, Arial" size="20px" weight="400" font-style="" opacity="1" y="0.5" transform="rotate(0)"><tspan id="SvgjsTspan1033" dy="25" x="52.5"><tspan id="SvgjsTspan1034" style="">sqh_first</tspan></tspan></text></g></g><g id="SvgjsG1035" transform="translate(333.5,132)"><path id="SvgjsPath1036" d="M 0 4Q 0 0 4 0L 101 0Q 105 0 105 4L 105 33Q 105 37 101 37L 4 37Q 0 37 0 33Z" stroke="rgba(33,41,48,1)" stroke-width="1.5" fill-opacity="1" fill="#000000"></path><g id="SvgjsG1037"><text id="SvgjsText1038" font-family="&quot;Microsoft YaHei&quot;, 微软雅黑, Arial" text-anchor="middle" font-size="20px" width="85px" fill="#ffffff" font-weight="400" align="middle" lineHeight="125%" anchor="middle" family="&quot;Microsoft YaHei&quot;, 微软雅黑, Arial" size="20px" weight="400" font-style="" opacity="1" y="0.5" transform="rotate(0)"><tspan id="SvgjsTspan1039" dy="25" x="52.5"><tspan id="SvgjsTspan1040" style="">sqh_last</tspan></tspan></text></g></g><g id="SvgjsG1041" transform="translate(918.75,264.51948051948034)"><path id="SvgjsPath1042" d="M 0 4Q 0 0 4 0L 92 0Q 96 0 96 4L 96 50Q 96 54 92 54L 4 54Q 0 54 0 50Z" stroke="rgba(255,255,255,1)" stroke-width="1.5" fill-opacity="1" fill="#7bd144"></path><g id="SvgjsG1043"><text id="SvgjsText1044" font-family="&quot;Microsoft YaHei&quot;, 微软雅黑, Arial" text-anchor="middle" font-size="20px" width="76px" fill="#323232" font-weight="400" align="middle" lineHeight="125%" anchor="middle" family="&quot;Microsoft YaHei&quot;, 微软雅黑, Arial" size="20px" weight="400" font-style="" opacity="1" y="9" transform="rotate(0)"><tspan id="SvgjsTspan1045" dy="25" x="48"><tspan id="SvgjsTspan1046" style="">NULL</tspan></tspan></text></g></g><g id="SvgjsG1047"><path id="SvgjsPath1048" d="M712.4999998202429 292.518961254946C 794.5509661779379 292.51948051948034 835.9490338220621 291.51948051948034 914.1000011144943 291.5226999595934" stroke="#000000" stroke-width="3" fill="none" marker-end="url(#SvgjsMarker1049)"></path></g><g id="SvgjsG1051" transform="translate(338.5,25)"><path id="SvgjsPath1052" d="M 0 0L 100 0L 100 40L 0 40Z" stroke="none" fill="none"></path><g id="SvgjsG1053"><text id="SvgjsText1054" font-family="&quot;Microsoft YaHei&quot;, 微软雅黑, Arial" text-anchor="middle" font-size="20px" width="100px" fill="#323232" font-weight="700" align="middle" lineHeight="125%" anchor="middle" family="&quot;Microsoft YaHei&quot;, 微软雅黑, Arial" size="20px" weight="700" font-style="" opacity="1" y="2" transform="rotate(0)"><tspan id="SvgjsTspan1055" dy="25" x="50"><tspan id="SvgjsTspan1056" style="">HEAD</tspan></tspan></text></g></g><g id="SvgjsG1057" transform="translate(25,264.51948051948034)"><path id="SvgjsPath1058" d="M 0 4Q 0 0 4 0L 220 0Q 224 0 224 4L 224 114Q 224 118 220 118L 4 118Q 0 118 0 114Z" stroke="rgba(255,255,255,1)" stroke-width="1.5" fill-opacity="1" fill="#7bd144"></path><g id="SvgjsG1059"><text id="SvgjsText1060" font-family="&quot;Microsoft YaHei&quot;, 微软雅黑, Arial" text-anchor="middle" font-size="20px" width="204px" fill="#323232" font-weight="400" align="middle" lineHeight="125%" anchor="middle" family="&quot;Microsoft YaHei&quot;, 微软雅黑, Arial" size="20px" weight="400" font-style="" opacity="1" y="41" transform="rotate(0)"></text></g></g><g id="SvgjsG1061" transform="translate(132,274.51948051948034)"><path id="SvgjsPath1062" d="M 0 4Q 0 0 4 0L 101 0Q 105 0 105 4L 105 33Q 105 37 101 37L 4 37Q 0 37 0 33Z" stroke="rgba(33,41,48,1)" stroke-width="1.5" fill-opacity="1" fill="#000000"></path><g id="SvgjsG1063"><text id="SvgjsText1064" font-family="&quot;Microsoft YaHei&quot;, 微软雅黑, Arial" text-anchor="middle" font-size="20px" width="85px" fill="#ffffff" font-weight="400" align="middle" lineHeight="125%" anchor="middle" family="&quot;Microsoft YaHei&quot;, 微软雅黑, Arial" size="20px" weight="400" font-style="" opacity="1" y="0.5" transform="rotate(0)"><tspan id="SvgjsTspan1065" dy="25" x="52.5"><tspan id="SvgjsTspan1066" style="">sqe_next</tspan></tspan></text></g></g><g id="SvgjsG1067"><path id="SvgjsPath1068" d="M237.75 293.01948051948034L365.625 293.01948051948034L365.625 293.01948051948034L494.25 293.01948051948034" stroke="#000000" stroke-width="3" fill="none" marker-end="url(#SvgjsMarker1069)"></path></g><g id="SvgjsG1071"><path id="SvgjsPath1072" d="M332.75459831029605 98.58292358522436C 169.25 114.42857142857156 186.25 160.42857142857156 138.93273626631571 260.2901743677732" stroke="#000000" stroke-width="3" fill="none" marker-end="url(#SvgjsMarker1073)"></path></g><g id="SvgjsG1075"><path id="SvgjsPath1076" d="M439.24995201745514 150.5084836027063C 539.6831010141927 150.5 611.25 173.42857142857156 657.1482846519539 269.8715542188106" stroke="#323232" stroke-width="3" fill="none" marker-end="url(#SvgjsMarker1077)"></path></g><g id="SvgjsG1079" transform="translate(1154.5,274.01948051948034)"><path id="SvgjsPath1080" d="M 0 4Q 0 0 4 0L 220 0Q 224 0 224 4L 224 114Q 224 118 220 118L 4 118Q 0 118 0 114Z" stroke="rgba(255,255,255,1)" stroke-width="1.5" fill-opacity="1" fill="#f1ac6a"></path><g id="SvgjsG1081"><text id="SvgjsText1082" font-family="&quot;Microsoft YaHei&quot;, 微软雅黑, Arial" text-anchor="middle" font-size="20px" width="204px" fill="#323232" font-weight="400" align="middle" lineHeight="125%" anchor="middle" family="&quot;Microsoft YaHei&quot;, 微软雅黑, Arial" size="20px" weight="400" font-style="" opacity="1" y="41" transform="rotate(0)"></text></g></g><g id="SvgjsG1083" transform="translate(1261.5,284.01948051948034)"><path id="SvgjsPath1084" d="M 0 4Q 0 0 4 0L 101 0Q 105 0 105 4L 105 33Q 105 37 101 37L 4 37Q 0 37 0 33Z" stroke="rgba(33,41,48,1)" stroke-width="1.5" fill-opacity="1" fill="#000000"></path><g id="SvgjsG1085"><text id="SvgjsText1086" font-family="&quot;Microsoft YaHei&quot;, 微软雅黑, Arial" text-anchor="middle" font-size="20px" width="85px" fill="#ffffff" font-weight="400" align="middle" lineHeight="125%" anchor="middle" family="&quot;Microsoft YaHei&quot;, 微软雅黑, Arial" size="20px" weight="400" font-style="" opacity="1" y="0.5" transform="rotate(0)"><tspan id="SvgjsTspan1087" dy="25" x="52.5"><tspan id="SvgjsTspan1088" style="">sqe_next</tspan></tspan></text></g></g><g id="SvgjsG1089" transform="translate(1039.625,336.42857142857156)"><path id="SvgjsPath1090" d="M 0 17.295L 17.295 0L 17.295 11.415L 66.625 11.415L 66.625 23.176L 17.295 23.176L 17.295 34.591L 0 17.295Z" stroke="rgba(227,34,34,1)" stroke-width="1.5" fill-opacity="1" fill="#e32222"></path><g id="SvgjsG1091"><text id="SvgjsText1092" font-family="&quot;Microsoft YaHei&quot;, 微软雅黑, Arial" text-anchor="middle" font-size="13px" width="67px" fill="#323232" font-weight="400" align="middle" lineHeight="125%" anchor="middle" family="&quot;Microsoft YaHei&quot;, 微软雅黑, Arial" size="13px" weight="400" font-style="" opacity="1" y="6.670499999999999" transform="rotate(0)"></text></g></g><g id="SvgjsG1093" transform="translate(499.75,683.2694805194803)"><path id="SvgjsPath1094" d="M 0 4Q 0 0 4 0L 220 0Q 224 0 224 4L 224 114Q 224 118 220 118L 4 118Q 0 118 0 114Z" stroke="rgba(255,255,255,1)" stroke-width="1.5" fill-opacity="1" fill="#7bd144"></path><g id="SvgjsG1095"><text id="SvgjsText1096" font-family="&quot;Microsoft YaHei&quot;, 微软雅黑, Arial" text-anchor="middle" font-size="20px" width="204px" fill="#323232" font-weight="400" align="middle" lineHeight="125%" anchor="middle" family="&quot;Microsoft YaHei&quot;, 微软雅黑, Arial" size="20px" weight="400" font-style="" opacity="1" y="41" transform="rotate(0)"></text></g></g><g id="SvgjsG1097" transform="translate(606.75,692.7694805194803)"><path id="SvgjsPath1098" d="M 0 4Q 0 0 4 0L 101 0Q 105 0 105 4L 105 33Q 105 37 101 37L 4 37Q 0 37 0 33Z" stroke="rgba(33,41,48,1)" stroke-width="1.5" fill-opacity="1" fill="#000000"></path><g id="SvgjsG1099"><text id="SvgjsText1100" font-family="&quot;Microsoft YaHei&quot;, 微软雅黑, Arial" text-anchor="middle" font-size="20px" width="85px" fill="#ffffff" font-weight="400" align="middle" lineHeight="125%" anchor="middle" family="&quot;Microsoft YaHei&quot;, 微软雅黑, Arial" size="20px" weight="400" font-style="" opacity="1" y="0.5" transform="rotate(0)"><tspan id="SvgjsTspan1101" dy="25" x="52.5"><tspan id="SvgjsTspan1102" style="">sqe_next</tspan></tspan></text></g></g><g id="SvgjsG1103" transform="translate(320.5000000000001,486.75)"><path id="SvgjsPath1104" d="M 0 4Q 0 0 4 0L 127 0Q 131 0 131 4L 131 111Q 131 115 127 115L 4 115Q 0 115 0 111Z" stroke="rgba(255,255,255,1)" stroke-width="1.5" fill-opacity="1" fill="#beb3af"></path><g id="SvgjsG1105"><text id="SvgjsText1106" font-family="&quot;Microsoft YaHei&quot;, 微软雅黑, Arial" text-anchor="middle" font-size="20px" width="111px" fill="#323232" font-weight="400" align="middle" lineHeight="125%" anchor="middle" family="&quot;Microsoft YaHei&quot;, 微软雅黑, Arial" size="20px" weight="400" font-style="" opacity="1" y="39.5" transform="rotate(0)"></text></g></g><g id="SvgjsG1107" transform="translate(333.5000000000001,498.75)"><path id="SvgjsPath1108" d="M 0 4Q 0 0 4 0L 101 0Q 105 0 105 4L 105 33Q 105 37 101 37L 4 37Q 0 37 0 33Z" stroke="rgba(33,41,48,1)" stroke-width="1.5" fill-opacity="1" fill="#000000"></path><g id="SvgjsG1109"><text id="SvgjsText1110" font-family="&quot;Microsoft YaHei&quot;, 微软雅黑, Arial" text-anchor="middle" font-size="20px" width="85px" fill="#ffffff" font-weight="400" align="middle" lineHeight="125%" anchor="middle" family="&quot;Microsoft YaHei&quot;, 微软雅黑, Arial" size="20px" weight="400" font-style="" opacity="1" y="0.5" transform="rotate(0)"><tspan id="SvgjsTspan1111" dy="25" x="52.5"><tspan id="SvgjsTspan1112" style="">sqh_first</tspan></tspan></text></g></g><g id="SvgjsG1113" transform="translate(333.5000000000001,550.75)"><path id="SvgjsPath1114" d="M 0 4Q 0 0 4 0L 101 0Q 105 0 105 4L 105 33Q 105 37 101 37L 4 37Q 0 37 0 33Z" stroke="rgba(33,41,48,1)" stroke-width="1.5" fill-opacity="1" fill="#000000"></path><g id="SvgjsG1115"><text id="SvgjsText1116" font-family="&quot;Microsoft YaHei&quot;, 微软雅黑, Arial" text-anchor="middle" font-size="20px" width="85px" fill="#ffffff" font-weight="400" align="middle" lineHeight="125%" anchor="middle" family="&quot;Microsoft YaHei&quot;, 微软雅黑, Arial" size="20px" weight="400" font-style="" opacity="1" y="0.5" transform="rotate(0)"><tspan id="SvgjsTspan1117" dy="25" x="52.5"><tspan id="SvgjsTspan1118" style="">sqh_last</tspan></tspan></text></g></g><g id="SvgjsG1119" transform="translate(918.75,683.2694805194803)"><path id="SvgjsPath1120" d="M 0 4Q 0 0 4 0L 92 0Q 96 0 96 4L 96 50Q 96 54 92 54L 4 54Q 0 54 0 50Z" stroke="rgba(255,255,255,1)" stroke-width="1.5" fill-opacity="1" fill="#7bd144"></path><g id="SvgjsG1121"><text id="SvgjsText1122" font-family="&quot;Microsoft YaHei&quot;, 微软雅黑, Arial" text-anchor="middle" font-size="20px" width="76px" fill="#323232" font-weight="400" align="middle" lineHeight="125%" anchor="middle" family="&quot;Microsoft YaHei&quot;, 微软雅黑, Arial" size="20px" weight="400" font-style="" opacity="1" y="9" transform="rotate(0)"><tspan id="SvgjsTspan1123" dy="25" x="48"><tspan id="SvgjsTspan1124" style="">NULL</tspan></tspan></text></g></g><g id="SvgjsG1125"><path id="SvgjsPath1126" d="M712.4999998202429 711.268961254946C 794.5509661779379 711.2694805194803 835.9490338220621 710.2694805194803 914.1000011144943 710.2726999595934" stroke="#000000" stroke-width="3" fill="none" marker-end="url(#SvgjsMarker1127)"></path></g><g id="SvgjsG1129" transform="translate(338.5000000000001,443.75)"><path id="SvgjsPath1130" d="M 0 0L 100 0L 100 40L 0 40Z" stroke="none" fill="none"></path><g id="SvgjsG1131"><text id="SvgjsText1132" font-family="&quot;Microsoft YaHei&quot;, 微软雅黑, Arial" text-anchor="middle" font-size="20px" width="100px" fill="#323232" font-weight="700" align="middle" lineHeight="125%" anchor="middle" family="&quot;Microsoft YaHei&quot;, 微软雅黑, Arial" size="20px" weight="700" font-style="" opacity="1" y="2" transform="rotate(0)"><tspan id="SvgjsTspan1133" dy="25" x="50"><tspan id="SvgjsTspan1134" style="">HEAD</tspan></tspan></text></g></g><g id="SvgjsG1135" transform="translate(25.000000000000114,683.2694805194803)"><path id="SvgjsPath1136" d="M 0 4Q 0 0 4 0L 220 0Q 224 0 224 4L 224 114Q 224 118 220 118L 4 118Q 0 118 0 114Z" stroke="rgba(255,255,255,1)" stroke-width="1.5" fill-opacity="1" fill="#7bd144"></path><g id="SvgjsG1137"><text id="SvgjsText1138" font-family="&quot;Microsoft YaHei&quot;, 微软雅黑, Arial" text-anchor="middle" font-size="20px" width="204px" fill="#323232" font-weight="400" align="middle" lineHeight="125%" anchor="middle" family="&quot;Microsoft YaHei&quot;, 微软雅黑, Arial" size="20px" weight="400" font-style="" opacity="1" y="41" transform="rotate(0)"></text></g></g><g id="SvgjsG1139" transform="translate(132.0000000000001,693.2694805194803)"><path id="SvgjsPath1140" d="M 0 4Q 0 0 4 0L 101 0Q 105 0 105 4L 105 33Q 105 37 101 37L 4 37Q 0 37 0 33Z" stroke="rgba(33,41,48,1)" stroke-width="1.5" fill-opacity="1" fill="#000000"></path><g id="SvgjsG1141"><text id="SvgjsText1142" font-family="&quot;Microsoft YaHei&quot;, 微软雅黑, Arial" text-anchor="middle" font-size="20px" width="85px" fill="#ffffff" font-weight="400" align="middle" lineHeight="125%" anchor="middle" family="&quot;Microsoft YaHei&quot;, 微软雅黑, Arial" size="20px" weight="400" font-style="" opacity="1" y="0.5" transform="rotate(0)"><tspan id="SvgjsTspan1143" dy="25" x="52.5"><tspan id="SvgjsTspan1144" style="">sqe_next</tspan></tspan></text></g></g><g id="SvgjsG1145"><path id="SvgjsPath1146" d="M237.7500000000001 711.7694805194803L365.625 711.7694805194803L365.625 711.7694805194803L494.25 711.7694805194803" stroke="#000000" stroke-width="3" fill="none" marker-end="url(#SvgjsMarker1147)"></path></g><g id="SvgjsG1149"><path id="SvgjsPath1150" d="M332.75459831029616 517.3329235852244C 169.2500000000001 533.1785714285716 186.2500000000001 579.1785714285716 138.93273626631594 679.0401743677733" stroke="#000000" stroke-width="3" fill="none" marker-end="url(#SvgjsMarker1151)"></path></g><g id="SvgjsG1153"><path id="SvgjsPath1154" d="M439.24995201745526 569.2584836027063C 539.6831010141927 569.25 611.25 592.1785714285716 657.1482846519539 688.6215542188106" stroke="#323232" stroke-width="3" fill="none" marker-end="url(#SvgjsMarker1155)"></path></g><g id="SvgjsG1157" transform="translate(1154.5,692.7694805194803)"><path id="SvgjsPath1158" d="M 0 4Q 0 0 4 0L 220 0Q 224 0 224 4L 224 114Q 224 118 220 118L 4 118Q 0 118 0 114Z" stroke="rgba(255,255,255,1)" stroke-width="1.5" fill-opacity="1" fill="#f1ac6a"></path><g id="SvgjsG1159"><text id="SvgjsText1160" font-family="&quot;Microsoft YaHei&quot;, 微软雅黑, Arial" text-anchor="middle" font-size="20px" width="204px" fill="#323232" font-weight="400" align="middle" lineHeight="125%" anchor="middle" family="&quot;Microsoft YaHei&quot;, 微软雅黑, Arial" size="20px" weight="400" font-style="" opacity="1" y="41" transform="rotate(0)"></text></g></g><g id="SvgjsG1161" transform="translate(1261.5,702.7694805194803)"><path id="SvgjsPath1162" d="M 0 4Q 0 0 4 0L 101 0Q 105 0 105 4L 105 33Q 105 37 101 37L 4 37Q 0 37 0 33Z" stroke="rgba(33,41,48,1)" stroke-width="1.5" fill-opacity="1" fill="#000000"></path><g id="SvgjsG1163"><text id="SvgjsText1164" font-family="&quot;Microsoft YaHei&quot;, 微软雅黑, Arial" text-anchor="middle" font-size="20px" width="85px" fill="#ffffff" font-weight="400" align="middle" lineHeight="125%" anchor="middle" family="&quot;Microsoft YaHei&quot;, 微软雅黑, Arial" size="20px" weight="400" font-style="" opacity="1" y="0.5" transform="rotate(0)"><tspan id="SvgjsTspan1165" dy="25" x="52.5"><tspan id="SvgjsTspan1166" style="">sqe_next</tspan></tspan></text></g></g><g id="SvgjsG1167" transform="translate(1438.75,694.2694805194803)"><path id="SvgjsPath1168" d="M 0 4Q 0 0 4 0L 92 0Q 96 0 96 4L 96 50Q 96 54 92 54L 4 54Q 0 54 0 50Z" stroke="rgba(255,255,255,1)" stroke-width="1.5" fill-opacity="1" fill="#7bd144"></path><g id="SvgjsG1169"><text id="SvgjsText1170" font-family="&quot;Microsoft YaHei&quot;, 微软雅黑, Arial" text-anchor="middle" font-size="20px" width="76px" fill="#323232" font-weight="400" align="middle" lineHeight="125%" anchor="middle" family="&quot;Microsoft YaHei&quot;, 微软雅黑, Arial" size="20px" weight="400" font-style="" opacity="1" y="9" transform="rotate(0)"><tspan id="SvgjsTspan1171" dy="25" x="48"><tspan id="SvgjsTspan1172" style="">NULL</tspan></tspan></text></g></g><g id="SvgjsG1173"><path id="SvgjsPath1174" d="M1367.25 721.2694805194803L1402.625 721.2694805194803L1402.625 721.2694805194803L1434.1 721.2694805194803" stroke="#e32222" stroke-width="3" fill="none" marker-end="url(#SvgjsMarker1175)"></path></g><g id="SvgjsG1177" transform="translate(499.75,1110.4123376623374)"><path id="SvgjsPath1178" d="M 0 4Q 0 0 4 0L 220 0Q 224 0 224 4L 224 114Q 224 118 220 118L 4 118Q 0 118 0 114Z" stroke="rgba(255,255,255,1)" stroke-width="1.5" fill-opacity="1" fill="#7bd144"></path><g id="SvgjsG1179"><text id="SvgjsText1180" font-family="&quot;Microsoft YaHei&quot;, 微软雅黑, Arial" text-anchor="middle" font-size="20px" width="204px" fill="#323232" font-weight="400" align="middle" lineHeight="125%" anchor="middle" family="&quot;Microsoft YaHei&quot;, 微软雅黑, Arial" size="20px" weight="400" font-style="" opacity="1" y="41" transform="rotate(0)"></text></g></g><g id="SvgjsG1181" transform="translate(606.7499999999995,1119.9123376623374)"><path id="SvgjsPath1182" d="M 0 4Q 0 0 4 0L 101 0Q 105 0 105 4L 105 33Q 105 37 101 37L 4 37Q 0 37 0 33Z" stroke="rgba(33,41,48,1)" stroke-width="1.5" fill-opacity="1" fill="#000000"></path><g id="SvgjsG1183"><text id="SvgjsText1184" font-family="&quot;Microsoft YaHei&quot;, 微软雅黑, Arial" text-anchor="middle" font-size="20px" width="85px" fill="#ffffff" font-weight="400" align="middle" lineHeight="125%" anchor="middle" family="&quot;Microsoft YaHei&quot;, 微软雅黑, Arial" size="20px" weight="400" font-style="" opacity="1" y="0.5" transform="rotate(0)"><tspan id="SvgjsTspan1185" dy="25" x="52.5"><tspan id="SvgjsTspan1186" style="">sqe_next</tspan></tspan></text></g></g><g id="SvgjsG1187" transform="translate(320.5000000000001,913.8928571428571)"><path id="SvgjsPath1188" d="M 0 4Q 0 0 4 0L 127 0Q 131 0 131 4L 131 111Q 131 115 127 115L 4 115Q 0 115 0 111Z" stroke="rgba(255,255,255,1)" stroke-width="1.5" fill-opacity="1" fill="#beb3af"></path><g id="SvgjsG1189"><text id="SvgjsText1190" font-family="&quot;Microsoft YaHei&quot;, 微软雅黑, Arial" text-anchor="middle" font-size="20px" width="111px" fill="#323232" font-weight="400" align="middle" lineHeight="125%" anchor="middle" family="&quot;Microsoft YaHei&quot;, 微软雅黑, Arial" size="20px" weight="400" font-style="" opacity="1" y="39.5" transform="rotate(0)"></text></g></g><g id="SvgjsG1191" transform="translate(333.5000000000001,925.8928571428571)"><path id="SvgjsPath1192" d="M 0 4Q 0 0 4 0L 101 0Q 105 0 105 4L 105 33Q 105 37 101 37L 4 37Q 0 37 0 33Z" stroke="rgba(33,41,48,1)" stroke-width="1.5" fill-opacity="1" fill="#000000"></path><g id="SvgjsG1193"><text id="SvgjsText1194" font-family="&quot;Microsoft YaHei&quot;, 微软雅黑, Arial" text-anchor="middle" font-size="20px" width="85px" fill="#ffffff" font-weight="400" align="middle" lineHeight="125%" anchor="middle" family="&quot;Microsoft YaHei&quot;, 微软雅黑, Arial" size="20px" weight="400" font-style="" opacity="1" y="0.5" transform="rotate(0)"><tspan id="SvgjsTspan1195" dy="25" x="52.5"><tspan id="SvgjsTspan1196" style="">sqh_first</tspan></tspan></text></g></g><g id="SvgjsG1197" transform="translate(333.5000000000001,977.8928571428571)"><path id="SvgjsPath1198" d="M 0 4Q 0 0 4 0L 101 0Q 105 0 105 4L 105 33Q 105 37 101 37L 4 37Q 0 37 0 33Z" stroke="rgba(33,41,48,1)" stroke-width="1.5" fill-opacity="1" fill="#000000"></path><g id="SvgjsG1199"><text id="SvgjsText1200" font-family="&quot;Microsoft YaHei&quot;, 微软雅黑, Arial" text-anchor="middle" font-size="20px" width="85px" fill="#ffffff" font-weight="400" align="middle" lineHeight="125%" anchor="middle" family="&quot;Microsoft YaHei&quot;, 微软雅黑, Arial" size="20px" weight="400" font-style="" opacity="1" y="0.5" transform="rotate(0)"><tspan id="SvgjsTspan1201" dy="25" x="52.5"><tspan id="SvgjsTspan1202" style="">sqh_last</tspan></tspan></text></g></g><g id="SvgjsG1203"><path id="SvgjsPath1204" d="M712.4999999999995 1138.4123376623374L930.0714285714284 1138.4123376623374L930.0714285714284 1138.4123376623374L1148.3928571428573 1138.4123376623374" stroke="#e32222" stroke-width="3" fill="none" marker-end="url(#SvgjsMarker1205)"></path></g><g id="SvgjsG1207" transform="translate(338.5000000000001,870.8928571428571)"><path id="SvgjsPath1208" d="M 0 0L 100 0L 100 40L 0 40Z" stroke="none" fill="none"></path><g id="SvgjsG1209"><text id="SvgjsText1210" font-family="&quot;Microsoft YaHei&quot;, 微软雅黑, Arial" text-anchor="middle" font-size="20px" width="100px" fill="#323232" font-weight="700" align="middle" lineHeight="125%" anchor="middle" family="&quot;Microsoft YaHei&quot;, 微软雅黑, Arial" size="20px" weight="700" font-style="" opacity="1" y="2" transform="rotate(0)"><tspan id="SvgjsTspan1211" dy="25" x="50"><tspan id="SvgjsTspan1212" style="">HEAD</tspan></tspan></text></g></g><g id="SvgjsG1213" transform="translate(25.000000000000114,1110.4123376623374)"><path id="SvgjsPath1214" d="M 0 4Q 0 0 4 0L 220 0Q 224 0 224 4L 224 114Q 224 118 220 118L 4 118Q 0 118 0 114Z" stroke="rgba(255,255,255,1)" stroke-width="1.5" fill-opacity="1" fill="#7bd144"></path><g id="SvgjsG1215"><text id="SvgjsText1216" font-family="&quot;Microsoft YaHei&quot;, 微软雅黑, Arial" text-anchor="middle" font-size="20px" width="204px" fill="#323232" font-weight="400" align="middle" lineHeight="125%" anchor="middle" family="&quot;Microsoft YaHei&quot;, 微软雅黑, Arial" size="20px" weight="400" font-style="" opacity="1" y="41" transform="rotate(0)"></text></g></g><g id="SvgjsG1217" transform="translate(132.0000000000001,1120.4123376623374)"><path id="SvgjsPath1218" d="M 0 4Q 0 0 4 0L 101 0Q 105 0 105 4L 105 33Q 105 37 101 37L 4 37Q 0 37 0 33Z" stroke="rgba(33,41,48,1)" stroke-width="1.5" fill-opacity="1" fill="#000000"></path><g id="SvgjsG1219"><text id="SvgjsText1220" font-family="&quot;Microsoft YaHei&quot;, 微软雅黑, Arial" text-anchor="middle" font-size="20px" width="85px" fill="#ffffff" font-weight="400" align="middle" lineHeight="125%" anchor="middle" family="&quot;Microsoft YaHei&quot;, 微软雅黑, Arial" size="20px" weight="400" font-style="" opacity="1" y="0.5" transform="rotate(0)"><tspan id="SvgjsTspan1221" dy="25" x="52.5"><tspan id="SvgjsTspan1222" style="">sqe_next</tspan></tspan></text></g></g><g id="SvgjsG1223"><path id="SvgjsPath1224" d="M237.7500000000001 1138.9123376623374L365.625 1138.9123376623374L365.625 1138.9123376623374L494.25 1138.9123376623374" stroke="#000000" stroke-width="3" fill="none" marker-end="url(#SvgjsMarker1225)"></path></g><g id="SvgjsG1227"><path id="SvgjsPath1228" d="M332.75459831029616 944.4757807280814C 169.2500000000001 960.3214285714287 186.2500000000001 1006.3214285714287 138.93273626631594 1106.1830315106304" stroke="#000000" stroke-width="3" fill="none" marker-end="url(#SvgjsMarker1229)"></path></g><g id="SvgjsG1231"><path id="SvgjsPath1232" d="M439.24995201745526 996.4013407455634C 539.6831010141927 996.3928571428571 611.2499999999995 1019.3214285714287 657.1482846519536 1115.7644113616677" stroke="#323232" stroke-width="3" fill="none" marker-end="url(#SvgjsMarker1233)"></path></g><g id="SvgjsG1235" transform="translate(1154.4999999999995,1119.9123376623374)"><path id="SvgjsPath1236" d="M 0 4Q 0 0 4 0L 220 0Q 224 0 224 4L 224 114Q 224 118 220 118L 4 118Q 0 118 0 114Z" stroke="rgba(255,255,255,1)" stroke-width="1.5" fill-opacity="1" fill="#f1ac6a"></path><g id="SvgjsG1237"><text id="SvgjsText1238" font-family="&quot;Microsoft YaHei&quot;, 微软雅黑, Arial" text-anchor="middle" font-size="20px" width="204px" fill="#323232" font-weight="400" align="middle" lineHeight="125%" anchor="middle" family="&quot;Microsoft YaHei&quot;, 微软雅黑, Arial" size="20px" weight="400" font-style="" opacity="1" y="41" transform="rotate(0)"></text></g></g><g id="SvgjsG1239" transform="translate(1261.4999999999995,1129.9123376623374)"><path id="SvgjsPath1240" d="M 0 4Q 0 0 4 0L 101 0Q 105 0 105 4L 105 33Q 105 37 101 37L 4 37Q 0 37 0 33Z" stroke="rgba(33,41,48,1)" stroke-width="1.5" fill-opacity="1" fill="#000000"></path><g id="SvgjsG1241"><text id="SvgjsText1242" font-family="&quot;Microsoft YaHei&quot;, 微软雅黑, Arial" text-anchor="middle" font-size="20px" width="85px" fill="#ffffff" font-weight="400" align="middle" lineHeight="125%" anchor="middle" family="&quot;Microsoft YaHei&quot;, 微软雅黑, Arial" size="20px" weight="400" font-style="" opacity="1" y="0.5" transform="rotate(0)"><tspan id="SvgjsTspan1243" dy="25" x="52.5"><tspan id="SvgjsTspan1244" style="">sqe_next</tspan></tspan></text></g></g><g id="SvgjsG1245" transform="translate(1438.7499999999995,1121.4123376623374)"><path id="SvgjsPath1246" d="M 0 4Q 0 0 4 0L 92 0Q 96 0 96 4L 96 50Q 96 54 92 54L 4 54Q 0 54 0 50Z" stroke="rgba(255,255,255,1)" stroke-width="1.5" fill-opacity="1" fill="#7bd144"></path><g id="SvgjsG1247"><text id="SvgjsText1248" font-family="&quot;Microsoft YaHei&quot;, 微软雅黑, Arial" text-anchor="middle" font-size="20px" width="76px" fill="#323232" font-weight="400" align="middle" lineHeight="125%" anchor="middle" family="&quot;Microsoft YaHei&quot;, 微软雅黑, Arial" size="20px" weight="400" font-style="" opacity="1" y="9" transform="rotate(0)"><tspan id="SvgjsTspan1249" dy="25" x="48"><tspan id="SvgjsTspan1250" style="">NULL</tspan></tspan></text></g></g><g id="SvgjsG1251"><path id="SvgjsPath1252" d="M1367.2499999999995 1148.4123376623374L1402.6249999999995 1148.4123376623374L1402.6249999999995 1148.4123376623374L1434.0999999999995 1148.4123376623374" stroke="#e32222" stroke-width="3" fill="none" marker-end="url(#SvgjsMarker1253)"></path></g><g id="SvgjsG1255" transform="translate(499.75,1540.5551948051946)"><path id="SvgjsPath1256" d="M 0 4Q 0 0 4 0L 220 0Q 224 0 224 4L 224 114Q 224 118 220 118L 4 118Q 0 118 0 114Z" stroke="rgba(255,255,255,1)" stroke-width="1.5" fill-opacity="1" fill="#7bd144"></path><g id="SvgjsG1257"><text id="SvgjsText1258" font-family="&quot;Microsoft YaHei&quot;, 微软雅黑, Arial" text-anchor="middle" font-size="20px" width="204px" fill="#323232" font-weight="400" align="middle" lineHeight="125%" anchor="middle" family="&quot;Microsoft YaHei&quot;, 微软雅黑, Arial" size="20px" weight="400" font-style="" opacity="1" y="41" transform="rotate(0)"></text></g></g><g id="SvgjsG1259" transform="translate(606.7499999999991,1550.0551948051946)"><path id="SvgjsPath1260" d="M 0 4Q 0 0 4 0L 101 0Q 105 0 105 4L 105 33Q 105 37 101 37L 4 37Q 0 37 0 33Z" stroke="rgba(33,41,48,1)" stroke-width="1.5" fill-opacity="1" fill="#000000"></path><g id="SvgjsG1261"><text id="SvgjsText1262" font-family="&quot;Microsoft YaHei&quot;, 微软雅黑, Arial" text-anchor="middle" font-size="20px" width="85px" fill="#ffffff" font-weight="400" align="middle" lineHeight="125%" anchor="middle" family="&quot;Microsoft YaHei&quot;, 微软雅黑, Arial" size="20px" weight="400" font-style="" opacity="1" y="0.5" transform="rotate(0)"><tspan id="SvgjsTspan1263" dy="25" x="52.5"><tspan id="SvgjsTspan1264" style="">sqe_next</tspan></tspan></text></g></g><g id="SvgjsG1265" transform="translate(320.5000000000001,1344.0357142857142)"><path id="SvgjsPath1266" d="M 0 4Q 0 0 4 0L 127 0Q 131 0 131 4L 131 111Q 131 115 127 115L 4 115Q 0 115 0 111Z" stroke="rgba(255,255,255,1)" stroke-width="1.5" fill-opacity="1" fill="#beb3af"></path><g id="SvgjsG1267"><text id="SvgjsText1268" font-family="&quot;Microsoft YaHei&quot;, 微软雅黑, Arial" text-anchor="middle" font-size="20px" width="111px" fill="#323232" font-weight="400" align="middle" lineHeight="125%" anchor="middle" family="&quot;Microsoft YaHei&quot;, 微软雅黑, Arial" size="20px" weight="400" font-style="" opacity="1" y="39.5" transform="rotate(0)"></text></g></g><g id="SvgjsG1269" transform="translate(333.5,1356.0357142857142)"><path id="SvgjsPath1270" d="M 0 4Q 0 0 4 0L 101 0Q 105 0 105 4L 105 33Q 105 37 101 37L 4 37Q 0 37 0 33Z" stroke="rgba(33,41,48,1)" stroke-width="1.5" fill-opacity="1" fill="#000000"></path><g id="SvgjsG1271"><text id="SvgjsText1272" font-family="&quot;Microsoft YaHei&quot;, 微软雅黑, Arial" text-anchor="middle" font-size="20px" width="85px" fill="#ffffff" font-weight="400" align="middle" lineHeight="125%" anchor="middle" family="&quot;Microsoft YaHei&quot;, 微软雅黑, Arial" size="20px" weight="400" font-style="" opacity="1" y="0.5" transform="rotate(0)"><tspan id="SvgjsTspan1273" dy="25" x="52.5"><tspan id="SvgjsTspan1274" style="">sqh_first</tspan></tspan></text></g></g><g id="SvgjsG1275" transform="translate(333.5,1408.0357142857142)"><path id="SvgjsPath1276" d="M 0 4Q 0 0 4 0L 101 0Q 105 0 105 4L 105 33Q 105 37 101 37L 4 37Q 0 37 0 33Z" stroke="rgba(33,41,48,1)" stroke-width="1.5" fill-opacity="1" fill="#000000"></path><g id="SvgjsG1277"><text id="SvgjsText1278" font-family="&quot;Microsoft YaHei&quot;, 微软雅黑, Arial" text-anchor="middle" font-size="20px" width="85px" fill="#ffffff" font-weight="400" align="middle" lineHeight="125%" anchor="middle" family="&quot;Microsoft YaHei&quot;, 微软雅黑, Arial" size="20px" weight="400" font-style="" opacity="1" y="0.5" transform="rotate(0)"><tspan id="SvgjsTspan1279" dy="25" x="52.5"><tspan id="SvgjsTspan1280" style="">sqh_last</tspan></tspan></text></g></g><g id="SvgjsG1281"><path id="SvgjsPath1282" d="M712.4999999999991 1568.5551948051946L930.071428571428 1568.5551948051946L930.071428571428 1568.5551948051946L1148.3928571428569 1568.5551948051946" stroke="#e32222" stroke-width="3" fill="none" marker-end="url(#SvgjsMarker1283)"></path></g><g id="SvgjsG1285" transform="translate(338.5000000000002,1301.0357142857142)"><path id="SvgjsPath1286" d="M 0 0L 100 0L 100 40L 0 40Z" stroke="none" fill="none"></path><g id="SvgjsG1287"><text id="SvgjsText1288" font-family="&quot;Microsoft YaHei&quot;, 微软雅黑, Arial" text-anchor="middle" font-size="20px" width="100px" fill="#323232" font-weight="700" align="middle" lineHeight="125%" anchor="middle" family="&quot;Microsoft YaHei&quot;, 微软雅黑, Arial" size="20px" weight="700" font-style="" opacity="1" y="2" transform="rotate(0)"><tspan id="SvgjsTspan1289" dy="25" x="50"><tspan id="SvgjsTspan1290" style="">HEAD</tspan></tspan></text></g></g><g id="SvgjsG1291" transform="translate(25.000000000000114,1540.5551948051946)"><path id="SvgjsPath1292" d="M 0 4Q 0 0 4 0L 220 0Q 224 0 224 4L 224 114Q 224 118 220 118L 4 118Q 0 118 0 114Z" stroke="rgba(255,255,255,1)" stroke-width="1.5" fill-opacity="1" fill="#7bd144"></path><g id="SvgjsG1293"><text id="SvgjsText1294" font-family="&quot;Microsoft YaHei&quot;, 微软雅黑, Arial" text-anchor="middle" font-size="20px" width="204px" fill="#323232" font-weight="400" align="middle" lineHeight="125%" anchor="middle" family="&quot;Microsoft YaHei&quot;, 微软雅黑, Arial" size="20px" weight="400" font-style="" opacity="1" y="41" transform="rotate(0)"></text></g></g><g id="SvgjsG1295" transform="translate(132.0000000000001,1550.5551948051946)"><path id="SvgjsPath1296" d="M 0 4Q 0 0 4 0L 101 0Q 105 0 105 4L 105 33Q 105 37 101 37L 4 37Q 0 37 0 33Z" stroke="rgba(33,41,48,1)" stroke-width="1.5" fill-opacity="1" fill="#000000"></path><g id="SvgjsG1297"><text id="SvgjsText1298" font-family="&quot;Microsoft YaHei&quot;, 微软雅黑, Arial" text-anchor="middle" font-size="20px" width="85px" fill="#ffffff" font-weight="400" align="middle" lineHeight="125%" anchor="middle" family="&quot;Microsoft YaHei&quot;, 微软雅黑, Arial" size="20px" weight="400" font-style="" opacity="1" y="0.5" transform="rotate(0)"><tspan id="SvgjsTspan1299" dy="25" x="52.5"><tspan id="SvgjsTspan1300" style="">sqe_next</tspan></tspan></text></g></g><g id="SvgjsG1301"><path id="SvgjsPath1302" d="M237.7500000000001 1569.0551948051946L365.625 1569.0551948051946L365.625 1569.0551948051946L494.25 1569.0551948051946" stroke="#000000" stroke-width="3" fill="none" marker-end="url(#SvgjsMarker1303)"></path></g><g id="SvgjsG1305"><path id="SvgjsPath1306" d="M332.75459831029605 1374.6186378709385C 169.2500000000001 1390.4642857142858 186.2500000000001 1436.4642857142858 138.93273626631594 1536.3258886534875" stroke="#000000" stroke-width="3" fill="none" marker-end="url(#SvgjsMarker1307)"></path></g><g id="SvgjsG1309" transform="translate(1154.499999999999,1550.0551948051946)"><path id="SvgjsPath1310" d="M 0 4Q 0 0 4 0L 220 0Q 224 0 224 4L 224 114Q 224 118 220 118L 4 118Q 0 118 0 114Z" stroke="rgba(255,255,255,1)" stroke-width="1.5" fill-opacity="1" fill="#f1ac6a"></path><g id="SvgjsG1311"><text id="SvgjsText1312" font-family="&quot;Microsoft YaHei&quot;, 微软雅黑, Arial" text-anchor="middle" font-size="20px" width="204px" fill="#323232" font-weight="400" align="middle" lineHeight="125%" anchor="middle" family="&quot;Microsoft YaHei&quot;, 微软雅黑, Arial" size="20px" weight="400" font-style="" opacity="1" y="41" transform="rotate(0)"></text></g></g><g id="SvgjsG1313" transform="translate(1261.499999999999,1560.0551948051946)"><path id="SvgjsPath1314" d="M 0 4Q 0 0 4 0L 101 0Q 105 0 105 4L 105 33Q 105 37 101 37L 4 37Q 0 37 0 33Z" stroke="rgba(33,41,48,1)" stroke-width="1.5" fill-opacity="1" fill="#000000"></path><g id="SvgjsG1315"><text id="SvgjsText1316" font-family="&quot;Microsoft YaHei&quot;, 微软雅黑, Arial" text-anchor="middle" font-size="20px" width="85px" fill="#ffffff" font-weight="400" align="middle" lineHeight="125%" anchor="middle" family="&quot;Microsoft YaHei&quot;, 微软雅黑, Arial" size="20px" weight="400" font-style="" opacity="1" y="0.5" transform="rotate(0)"><tspan id="SvgjsTspan1317" dy="25" x="52.5"><tspan id="SvgjsTspan1318" style="">sqe_next</tspan></tspan></text></g></g><g id="SvgjsG1319" transform="translate(1438.7499999999982,1551.5551948051946)"><path id="SvgjsPath1320" d="M 0 4Q 0 0 4 0L 92 0Q 96 0 96 4L 96 50Q 96 54 92 54L 4 54Q 0 54 0 50Z" stroke="rgba(255,255,255,1)" stroke-width="1.5" fill-opacity="1" fill="#7bd144"></path><g id="SvgjsG1321"><text id="SvgjsText1322" font-family="&quot;Microsoft YaHei&quot;, 微软雅黑, Arial" text-anchor="middle" font-size="20px" width="76px" fill="#323232" font-weight="400" align="middle" lineHeight="125%" anchor="middle" family="&quot;Microsoft YaHei&quot;, 微软雅黑, Arial" size="20px" weight="400" font-style="" opacity="1" y="9" transform="rotate(0)"><tspan id="SvgjsTspan1323" dy="25" x="48"><tspan id="SvgjsTspan1324" style="">NULL</tspan></tspan></text></g></g><g id="SvgjsG1325"><path id="SvgjsPath1326" d="M1367.249999999999 1578.5551948051946L1402.6249999999986 1578.5551948051946L1402.6249999999986 1578.5551948051946L1434.099999999998 1578.5551948051946" stroke="#e32222" stroke-width="3" fill="none" marker-end="url(#SvgjsMarker1327)"></path></g><g id="SvgjsG1329"><path id="SvgjsPath1330" d="M439.2499792915802 1426.5412876331084C 889.0277777777778 1430.5396825396826 1052.361111111111 1382.7619047619048 1310.135815959971 1557.4685789263303" stroke="#e32222" stroke-width="3" fill="none" marker-end="url(#SvgjsMarker1331)"></path></g><g id="SvgjsG1333" transform="translate(829.6237373737372,899.3928571428571)"><path id="SvgjsPath1334" d="M 19.8 0L 40.2 0L 40.2 60L 60 60L 30 90L 0 60L 19.8 60L 19.8 0Z" stroke="rgba(0,0,0,1)" stroke-width="1.5" fill-opacity="1" fill="#000000"></path><g id="SvgjsG1335"><text id="SvgjsText1336" font-family="&quot;Microsoft YaHei&quot;, 微软雅黑, Arial" text-anchor="middle" font-size="20px" width="84px" fill="#323232" font-weight="400" align="middle" lineHeight="125%" anchor="middle" family="&quot;Microsoft YaHei&quot;, 微软雅黑, Arial" size="20px" weight="400" font-style="" opacity="1" y="22.5" transform="rotate(0)"></text></g></g><g id="SvgjsG1337" transform="translate(829.6237373737372,1228.4123376623374)"><path id="SvgjsPath1338" d="M 19.8 0L 40.2 0L 40.2 60L 60 60L 30 90L 0 60L 19.8 60L 19.8 0Z" stroke="rgba(0,0,0,1)" stroke-width="1.5" fill-opacity="1" fill="#000000"></path><g id="SvgjsG1339"><text id="SvgjsText1340" font-family="&quot;Microsoft YaHei&quot;, 微软雅黑, Arial" text-anchor="middle" font-size="20px" width="84px" fill="#323232" font-weight="400" align="middle" lineHeight="125%" anchor="middle" family="&quot;Microsoft YaHei&quot;, 微软雅黑, Arial" size="20px" weight="400" font-style="" opacity="1" y="22.5" transform="rotate(0)"></text></g></g><g id="SvgjsG1341"></g></svg>