<svg id="SvgjsSvg1006" width="1156.6666666666665" height="1673.8809523809534" xmlns="http://www.w3.org/2000/svg" version="1.1" xmlns:xlink="http://www.w3.org/1999/xlink" xmlns:svgjs="http://svgjs.com/svgjs"><defs id="SvgjsDefs1007"><pattern patternUnits="userSpaceOnUse" id="pattern_mark_0" width="300" height="300"><text x="150" y="100" fill="rgba(229,229,229,0.8)" font-size="18" transform="rotate(-45, 150, 150)" style="dominant-baseline: middle; text-anchor: middle;"></text></pattern><pattern patternUnits="userSpaceOnUse" id="pattern_mark_1" width="300" height="300"><text x="150" y="200" fill="rgba(229,229,229,0.8)" font-size="18" transform="rotate(-45, 150, 150)" style="dominant-baseline: middle; text-anchor: middle;"></text></pattern><marker id="SvgjsMarker1045" markerWidth="12" markerHeight="8" refX="9" refY="4" viewBox="0 0 12 8" orient="auto" markerUnits="userSpaceOnUse" stroke-dasharray="0,0"><path id="SvgjsPath1046" d="M0,0 L12,4 L0,8 L0,0" fill="#000000" stroke="#000000" stroke-width="1"></path></marker><marker id="SvgjsMarker1055" markerWidth="12" markerHeight="8" refX="9" refY="4" viewBox="0 0 12 8" orient="auto" markerUnits="userSpaceOnUse" stroke-dasharray="0,0"><path id="SvgjsPath1056" d="M0,0 L12,4 L0,8 L0,0" fill="#000000" stroke="#000000" stroke-width="1"></path></marker><marker id="SvgjsMarker1063" markerWidth="12" markerHeight="8" refX="9" refY="4" viewBox="0 0 12 8" orient="auto" markerUnits="userSpaceOnUse" stroke-dasharray="0,0"><path id="SvgjsPath1064" d="M0,0 L12,4 L0,8 L0,0" fill="#000000" stroke="#000000" stroke-width="1"></path></marker><marker id="SvgjsMarker1073" markerWidth="16" markerHeight="12" refX="11" refY="6" viewBox="0 0 16 12" orient="auto" markerUnits="userSpaceOnUse" stroke-dasharray="0,0"><path id="SvgjsPath1074" d="M0,0 L16,6 L0,12 L0,0" fill="#e32222" stroke="#e32222" stroke-width="1"></path></marker><marker id="SvgjsMarker1109" markerWidth="12" markerHeight="8" refX="9" refY="4" viewBox="0 0 12 8" orient="auto" markerUnits="userSpaceOnUse" stroke-dasharray="0,0"><path id="SvgjsPath1110" d="M0,0 L12,4 L0,8 L0,0" fill="#000000" stroke="#000000" stroke-width="1"></path></marker><marker id="SvgjsMarker1119" markerWidth="12" markerHeight="8" refX="9" refY="4" viewBox="0 0 12 8" orient="auto" markerUnits="userSpaceOnUse" stroke-dasharray="0,0"><path id="SvgjsPath1120" d="M0,0 L12,4 L0,8 L0,0" fill="#000000" stroke="#000000" stroke-width="1"></path></marker><marker id="SvgjsMarker1123" markerWidth="12" markerHeight="8" refX="9" refY="4" viewBox="0 0 12 8" orient="auto" markerUnits="userSpaceOnUse" stroke-dasharray="0,0"><path id="SvgjsPath1124" d="M0,0 L12,4 L0,8 L0,0" fill="#000000" stroke="#000000" stroke-width="1"></path></marker><marker id="SvgjsMarker1159" markerWidth="12" markerHeight="8" refX="9" refY="4" viewBox="0 0 12 8" orient="auto" markerUnits="userSpaceOnUse" stroke-dasharray="0,0"><path id="SvgjsPath1160" d="M0,0 L12,4 L0,8 L0,0" fill="#000000" stroke="#000000" stroke-width="1"></path></marker><marker id="SvgjsMarker1169" markerWidth="12" markerHeight="8" refX="9" refY="4" viewBox="0 0 12 8" orient="auto" markerUnits="userSpaceOnUse" stroke-dasharray="0,0"><path id="SvgjsPath1170" d="M0,0 L12,4 L0,8 L0,0" fill="#000000" stroke="#000000" stroke-width="1"></path></marker><marker id="SvgjsMarker1179" markerWidth="16" markerHeight="12" refX="11" refY="6" viewBox="0 0 16 12" orient="auto" markerUnits="userSpaceOnUse" stroke-dasharray="0,0"><path id="SvgjsPath1180" d="M0,0 L16,6 L0,12 L0,0" fill="#e32222" stroke="#e32222" stroke-width="1"></path></marker><marker id="SvgjsMarker1183" markerWidth="16" markerHeight="12" refX="11" refY="6" viewBox="0 0 16 12" orient="auto" markerUnits="userSpaceOnUse" stroke-dasharray="0,0"><path id="SvgjsPath1184" d="M0,0 L16,6 L0,12 L0,0" fill="#e32222" stroke="#e32222" stroke-width="1"></path></marker><marker id="SvgjsMarker1219" markerWidth="12" markerHeight="8" refX="9" refY="4" viewBox="0 0 12 8" orient="auto" markerUnits="userSpaceOnUse" stroke-dasharray="0,0"><path id="SvgjsPath1220" d="M0,0 L12,4 L0,8 L0,0" fill="#000000" stroke="#000000" stroke-width="1"></path></marker><marker id="SvgjsMarker1235" markerWidth="16" markerHeight="12" refX="11" refY="6" viewBox="0 0 16 12" orient="auto" markerUnits="userSpaceOnUse" stroke-dasharray="0,0"><path id="SvgjsPath1236" d="M0,0 L16,6 L0,12 L0,0" fill="#e32222" stroke="#e32222" stroke-width="1"></path></marker><marker id="SvgjsMarker1239" markerWidth="16" markerHeight="12" refX="11" refY="6" viewBox="0 0 16 12" orient="auto" markerUnits="userSpaceOnUse" stroke-dasharray="0,0"><path id="SvgjsPath1240" d="M0,0 L16,6 L0,12 L0,0" fill="#e32222" stroke="#e32222" stroke-width="1"></path></marker><marker id="SvgjsMarker1243" markerWidth="16" markerHeight="12" refX="11" refY="6" viewBox="0 0 16 12" orient="auto" markerUnits="userSpaceOnUse" stroke-dasharray="0,0"><path id="SvgjsPath1244" d="M0,0 L16,6 L0,12 L0,0" fill="#e32222" stroke="#e32222" stroke-width="1"></path></marker><marker id="SvgjsMarker1275" markerWidth="16" markerHeight="12" refX="11" refY="6" viewBox="0 0 16 12" orient="auto" markerUnits="userSpaceOnUse" stroke-dasharray="0,0"><path id="SvgjsPath1276" d="M0,0 L16,6 L0,12 L0,0" fill="#e32222" stroke="#e32222" stroke-width="1"></path></marker><marker id="SvgjsMarker1279" markerWidth="16" markerHeight="12" refX="11" refY="6" viewBox="0 0 16 12" orient="auto" markerUnits="userSpaceOnUse" stroke-dasharray="0,0"><path id="SvgjsPath1280" d="M0,0 L16,6 L0,12 L0,0" fill="#e32222" stroke="#e32222" stroke-width="1"></path></marker></defs><rect id="svgbackgroundid" width="1156.6666666666665" height="1673.8809523809534" fill="transparent"></rect><rect id="SvgjsRect1009" width="1156.6666666666665" height="1673.8809523809534" fill="url(#pattern_mark_0)"></rect><rect id="SvgjsRect1010" width="1156.6666666666665" height="1673.8809523809534" fill="url(#pattern_mark_1)"></rect><g id="SvgjsG1011" transform="translate(553.3333333333335,335.6071428571429)"><path id="SvgjsPath1012" d="M 0 4Q 0 0 4 0L 220 0Q 224 0 224 4L 224 114Q 224 118 220 118L 4 118Q 0 118 0 114Z" stroke="rgba(255,255,255,1)" stroke-width="1.5" fill-opacity="1" fill="#7bd144"></path><g id="SvgjsG1013"><text id="SvgjsText1014" font-family="&quot;Microsoft YaHei&quot;, 微软雅黑, Arial" text-anchor="middle" font-size="20px" width="204px" fill="#323232" font-weight="400" align="middle" lineHeight="125%" anchor="middle" family="&quot;Microsoft YaHei&quot;, 微软雅黑, Arial" size="20px" weight="400" font-style="" opacity="1" y="41" transform="rotate(0)"></text></g></g><g id="SvgjsG1015" transform="translate(660.3333333333335,345.1071428571429)"><path id="SvgjsPath1016" d="M 0 4Q 0 0 4 0L 101 0Q 105 0 105 4L 105 33Q 105 37 101 37L 4 37Q 0 37 0 33Z" stroke="rgba(33,41,48,1)" stroke-width="1.5" fill-opacity="1" fill="#000000"></path><g id="SvgjsG1017"><text id="SvgjsText1018" font-family="&quot;Microsoft YaHei&quot;, 微软雅黑, Arial" text-anchor="middle" font-size="20px" width="85px" fill="#ffffff" font-weight="400" align="middle" lineHeight="125%" anchor="middle" family="&quot;Microsoft YaHei&quot;, 微软雅黑, Arial" size="20px" weight="400" font-style="" opacity="1" y="0.5" transform="rotate(0)"><tspan id="SvgjsTspan1019" dy="25" x="52.5"><tspan id="SvgjsTspan1020" style="">sqe_next</tspan></tspan></text></g></g><g id="SvgjsG1021" transform="translate(276.3333333333335,337.1071428571429)"><path id="SvgjsPath1022" d="M 0 4Q 0 0 4 0L 127 0Q 131 0 131 4L 131 111Q 131 115 127 115L 4 115Q 0 115 0 111Z" stroke="rgba(255,255,255,1)" stroke-width="1.5" fill-opacity="1" fill="#beb3af"></path><g id="SvgjsG1023"><text id="SvgjsText1024" font-family="&quot;Microsoft YaHei&quot;, 微软雅黑, Arial" text-anchor="middle" font-size="20px" width="111px" fill="#323232" font-weight="400" align="middle" lineHeight="125%" anchor="middle" family="&quot;Microsoft YaHei&quot;, 微软雅黑, Arial" size="20px" weight="400" font-style="" opacity="1" y="39.5" transform="rotate(0)"></text></g></g><g id="SvgjsG1025" transform="translate(289.3333333333335,349.1071428571429)"><path id="SvgjsPath1026" d="M 0 4Q 0 0 4 0L 101 0Q 105 0 105 4L 105 33Q 105 37 101 37L 4 37Q 0 37 0 33Z" stroke="rgba(33,41,48,1)" stroke-width="1.5" fill-opacity="1" fill="#000000"></path><g id="SvgjsG1027"><text id="SvgjsText1028" font-family="&quot;Microsoft YaHei&quot;, 微软雅黑, Arial" text-anchor="middle" font-size="20px" width="85px" fill="#ffffff" font-weight="400" align="middle" lineHeight="125%" anchor="middle" family="&quot;Microsoft YaHei&quot;, 微软雅黑, Arial" size="20px" weight="400" font-style="" opacity="1" y="0.5" transform="rotate(0)"><tspan id="SvgjsTspan1029" dy="25" x="52.5"><tspan id="SvgjsTspan1030" style="">sqh_first</tspan></tspan></text></g></g><g id="SvgjsG1031" transform="translate(289.3333333333335,401.1071428571429)"><path id="SvgjsPath1032" d="M 0 4Q 0 0 4 0L 101 0Q 105 0 105 4L 105 33Q 105 37 101 37L 4 37Q 0 37 0 33Z" stroke="rgba(33,41,48,1)" stroke-width="1.5" fill-opacity="1" fill="#000000"></path><g id="SvgjsG1033"><text id="SvgjsText1034" font-family="&quot;Microsoft YaHei&quot;, 微软雅黑, Arial" text-anchor="middle" font-size="20px" width="85px" fill="#ffffff" font-weight="400" align="middle" lineHeight="125%" anchor="middle" family="&quot;Microsoft YaHei&quot;, 微软雅黑, Arial" size="20px" weight="400" font-style="" opacity="1" y="0.5" transform="rotate(0)"><tspan id="SvgjsTspan1035" dy="25" x="52.5"><tspan id="SvgjsTspan1036" style="">sqh_last</tspan></tspan></text></g></g><g id="SvgjsG1037" transform="translate(972.333333333333,335.6071428571429)"><path id="SvgjsPath1038" d="M 0 4Q 0 0 4 0L 92 0Q 96 0 96 4L 96 50Q 96 54 92 54L 4 54Q 0 54 0 50Z" stroke="rgba(255,255,255,1)" stroke-width="1.5" fill-opacity="1" fill="#7bd144"></path><g id="SvgjsG1039"><text id="SvgjsText1040" font-family="&quot;Microsoft YaHei&quot;, 微软雅黑, Arial" text-anchor="middle" font-size="20px" width="76px" fill="#323232" font-weight="400" align="middle" lineHeight="125%" anchor="middle" family="&quot;Microsoft YaHei&quot;, 微软雅黑, Arial" size="20px" weight="400" font-style="" opacity="1" y="9" transform="rotate(0)"><tspan id="SvgjsTspan1041" dy="25" x="48"><tspan id="SvgjsTspan1042" style="">NULL</tspan></tspan></text></g></g><g id="SvgjsG1043"><path id="SvgjsPath1044" d="M766.0833331535764 363.6066235926085C 848.1342995112709 363.6071428571429 889.5323671553951 362.6071428571429 970.2833338246692 362.60856218020353" stroke="#000000" stroke-width="1" fill="none" marker-end="url(#SvgjsMarker1045)"></path></g><g id="SvgjsG1047" transform="translate(294.3333333333335,294.1071428571429)"><path id="SvgjsPath1048" d="M 0 0L 100 0L 100 40L 0 40Z" stroke="none" fill="none"></path><g id="SvgjsG1049"><text id="SvgjsText1050" font-family="&quot;Microsoft YaHei&quot;, 微软雅黑, Arial" text-anchor="middle" font-size="20px" width="100px" fill="#323232" font-weight="700" align="middle" lineHeight="125%" anchor="middle" family="&quot;Microsoft YaHei&quot;, 微软雅黑, Arial" size="20px" weight="700" font-style="" opacity="1" y="2" transform="rotate(0)"><tspan id="SvgjsTspan1051" dy="25" x="50"><tspan id="SvgjsTspan1052" style="">HEAD</tspan></tspan></text></g></g><g id="SvgjsG1053"><path id="SvgjsPath1054" d="M395.0833333333335 367.6071428571429C 457.9333333333334 367.6071428571429 489.7333333333336 367.6071428571429 551.2833333333335 367.6071428571429" stroke="#000000" stroke-width="1" fill="none" marker-end="url(#SvgjsMarker1055)"></path></g><g id="SvgjsG1057" transform="translate(840.0000000000002,208.33333333333334)"><path id="SvgjsPath1058" d="M 19.8 0L 40.2 0L 40.2 60L 60 60L 30 90L 0 60L 19.8 60L 19.8 0Z" stroke="rgba(0,0,0,1)" stroke-width="1.5" fill-opacity="1" fill="#000000"></path><g id="SvgjsG1059"><text id="SvgjsText1060" font-family="&quot;Microsoft YaHei&quot;, 微软雅黑, Arial" text-anchor="middle" font-size="20px" width="84px" fill="#323232" font-weight="400" align="middle" lineHeight="125%" anchor="middle" family="&quot;Microsoft YaHei&quot;, 微软雅黑, Arial" size="20px" weight="400" font-style="" opacity="1" y="22.5" transform="rotate(0)"></text></g></g><g id="SvgjsG1061"><path id="SvgjsPath1062" d="M395.0629219515745 419.7809256184664C 510.3333333333335 448.1071428571429 614.3333333333335 451.1071428571429 711.13179228446 383.2504967214379" stroke="#000000" stroke-width="1" fill="none" marker-end="url(#SvgjsMarker1063)"></path></g><g id="SvgjsG1065" transform="translate(87.33333333333348,240.1071428571429)"><path id="SvgjsPath1066" d="M 0 4Q 0 0 4 0L 92 0Q 96 0 96 4L 96 50Q 96 54 92 54L 4 54Q 0 54 0 50Z" stroke="rgba(255,255,255,1)" stroke-width="1.5" fill-opacity="1" fill="#5b79e8"></path><g id="SvgjsG1067"><text id="SvgjsText1068" font-family="&quot;Microsoft YaHei&quot;, 微软雅黑, Arial" text-anchor="middle" font-size="20px" width="76px" fill="#ffffff" font-weight="400" align="middle" lineHeight="125%" anchor="middle" family="&quot;Microsoft YaHei&quot;, 微软雅黑, Arial" size="20px" weight="400" font-style="" opacity="1" y="9" transform="rotate(0)"><tspan id="SvgjsTspan1069" dy="25" x="48"><tspan id="SvgjsTspan1070" style="">elm</tspan></tspan></text></g></g><g id="SvgjsG1071"><path id="SvgjsPath1072" d="M184.08333293515904 267.1063700301853C 353.5530736691712 267.10714285714295 463.3333333333335 260.1071428571429 599.2178417844091 333.4426038044271" stroke="#e32222" stroke-width="3" fill="none" marker-end="url(#SvgjsMarker1073)"></path></g><g id="SvgjsG1075" transform="translate(553.3333333333335,66.5)"><path id="SvgjsPath1076" d="M 0 4Q 0 0 4 0L 220 0Q 224 0 224 4L 224 114Q 224 118 220 118L 4 118Q 0 118 0 114Z" stroke="rgba(255,255,255,1)" stroke-width="1.5" fill-opacity="1" fill="#7bd144"></path><g id="SvgjsG1077"><text id="SvgjsText1078" font-family="&quot;Microsoft YaHei&quot;, 微软雅黑, Arial" text-anchor="middle" font-size="20px" width="204px" fill="#323232" font-weight="400" align="middle" lineHeight="125%" anchor="middle" family="&quot;Microsoft YaHei&quot;, 微软雅黑, Arial" size="20px" weight="400" font-style="" opacity="1" y="41" transform="rotate(0)"></text></g></g><g id="SvgjsG1079" transform="translate(660.3333333333335,76)"><path id="SvgjsPath1080" d="M 0 4Q 0 0 4 0L 101 0Q 105 0 105 4L 105 33Q 105 37 101 37L 4 37Q 0 37 0 33Z" stroke="rgba(33,41,48,1)" stroke-width="1.5" fill-opacity="1" fill="#000000"></path><g id="SvgjsG1081"><text id="SvgjsText1082" font-family="&quot;Microsoft YaHei&quot;, 微软雅黑, Arial" text-anchor="middle" font-size="20px" width="85px" fill="#ffffff" font-weight="400" align="middle" lineHeight="125%" anchor="middle" family="&quot;Microsoft YaHei&quot;, 微软雅黑, Arial" size="20px" weight="400" font-style="" opacity="1" y="0.5" transform="rotate(0)"><tspan id="SvgjsTspan1083" dy="25" x="52.5"><tspan id="SvgjsTspan1084" style="">sqe_next</tspan></tspan></text></g></g><g id="SvgjsG1085" transform="translate(276.3333333333335,68)"><path id="SvgjsPath1086" d="M 0 4Q 0 0 4 0L 127 0Q 131 0 131 4L 131 111Q 131 115 127 115L 4 115Q 0 115 0 111Z" stroke="rgba(255,255,255,1)" stroke-width="1.5" fill-opacity="1" fill="#beb3af"></path><g id="SvgjsG1087"><text id="SvgjsText1088" font-family="&quot;Microsoft YaHei&quot;, 微软雅黑, Arial" text-anchor="middle" font-size="20px" width="111px" fill="#323232" font-weight="400" align="middle" lineHeight="125%" anchor="middle" family="&quot;Microsoft YaHei&quot;, 微软雅黑, Arial" size="20px" weight="400" font-style="" opacity="1" y="39.5" transform="rotate(0)"></text></g></g><g id="SvgjsG1089" transform="translate(289.3333333333335,80)"><path id="SvgjsPath1090" d="M 0 4Q 0 0 4 0L 101 0Q 105 0 105 4L 105 33Q 105 37 101 37L 4 37Q 0 37 0 33Z" stroke="rgba(33,41,48,1)" stroke-width="1.5" fill-opacity="1" fill="#000000"></path><g id="SvgjsG1091"><text id="SvgjsText1092" font-family="&quot;Microsoft YaHei&quot;, 微软雅黑, Arial" text-anchor="middle" font-size="20px" width="85px" fill="#ffffff" font-weight="400" align="middle" lineHeight="125%" anchor="middle" family="&quot;Microsoft YaHei&quot;, 微软雅黑, Arial" size="20px" weight="400" font-style="" opacity="1" y="0.5" transform="rotate(0)"><tspan id="SvgjsTspan1093" dy="25" x="52.5"><tspan id="SvgjsTspan1094" style="">sqh_first</tspan></tspan></text></g></g><g id="SvgjsG1095" transform="translate(289.3333333333335,132)"><path id="SvgjsPath1096" d="M 0 4Q 0 0 4 0L 101 0Q 105 0 105 4L 105 33Q 105 37 101 37L 4 37Q 0 37 0 33Z" stroke="rgba(33,41,48,1)" stroke-width="1.5" fill-opacity="1" fill="#000000"></path><g id="SvgjsG1097"><text id="SvgjsText1098" font-family="&quot;Microsoft YaHei&quot;, 微软雅黑, Arial" text-anchor="middle" font-size="20px" width="85px" fill="#ffffff" font-weight="400" align="middle" lineHeight="125%" anchor="middle" family="&quot;Microsoft YaHei&quot;, 微软雅黑, Arial" size="20px" weight="400" font-style="" opacity="1" y="0.5" transform="rotate(0)"><tspan id="SvgjsTspan1099" dy="25" x="52.5"><tspan id="SvgjsTspan1100" style="">sqh_last</tspan></tspan></text></g></g><g id="SvgjsG1101" transform="translate(972.333333333333,66.5)"><path id="SvgjsPath1102" d="M 0 4Q 0 0 4 0L 92 0Q 96 0 96 4L 96 50Q 96 54 92 54L 4 54Q 0 54 0 50Z" stroke="rgba(255,255,255,1)" stroke-width="1.5" fill-opacity="1" fill="#7bd144"></path><g id="SvgjsG1103"><text id="SvgjsText1104" font-family="&quot;Microsoft YaHei&quot;, 微软雅黑, Arial" text-anchor="middle" font-size="20px" width="76px" fill="#323232" font-weight="400" align="middle" lineHeight="125%" anchor="middle" family="&quot;Microsoft YaHei&quot;, 微软雅黑, Arial" size="20px" weight="400" font-style="" opacity="1" y="9" transform="rotate(0)"><tspan id="SvgjsTspan1105" dy="25" x="48"><tspan id="SvgjsTspan1106" style="">NULL</tspan></tspan></text></g></g><g id="SvgjsG1107"><path id="SvgjsPath1108" d="M766.0833331535764 94.49948073546562C 848.1342995112709 94.5 889.5323671553951 93.5 970.2833338246692 93.50141932306063" stroke="#000000" stroke-width="1" fill="none" marker-end="url(#SvgjsMarker1109)"></path></g><g id="SvgjsG1111" transform="translate(294.3333333333335,25)"><path id="SvgjsPath1112" d="M 0 0L 100 0L 100 40L 0 40Z" stroke="none" fill="none"></path><g id="SvgjsG1113"><text id="SvgjsText1114" font-family="&quot;Microsoft YaHei&quot;, 微软雅黑, Arial" text-anchor="middle" font-size="20px" width="100px" fill="#323232" font-weight="700" align="middle" lineHeight="125%" anchor="middle" family="&quot;Microsoft YaHei&quot;, 微软雅黑, Arial" size="20px" weight="700" font-style="" opacity="1" y="2" transform="rotate(0)"><tspan id="SvgjsTspan1115" dy="25" x="50"><tspan id="SvgjsTspan1116" style="">HEAD</tspan></tspan></text></g></g><g id="SvgjsG1117"><path id="SvgjsPath1118" d="M395.0833333333335 98.5C 457.9333333333334 98.5 489.7333333333336 98.5 551.2833333333335 98.5" stroke="#000000" stroke-width="1" fill="none" marker-end="url(#SvgjsMarker1119)"></path></g><g id="SvgjsG1121"><path id="SvgjsPath1122" d="M395.0629219515745 150.6737827613235C 510.3333333333335 179 614.3333333333335 182 711.13179228446 114.14335386429502" stroke="#000000" stroke-width="1" fill="none" marker-end="url(#SvgjsMarker1123)"></path></g><g id="SvgjsG1125" transform="translate(534.9999999999998,982.3809523809527)"><path id="SvgjsPath1126" d="M 0 4Q 0 0 4 0L 220 0Q 224 0 224 4L 224 114Q 224 118 220 118L 4 118Q 0 118 0 114Z" stroke="rgba(255,255,255,1)" stroke-width="1.5" fill-opacity="1" fill="#7bd144"></path><g id="SvgjsG1127"><text id="SvgjsText1128" font-family="&quot;Microsoft YaHei&quot;, 微软雅黑, Arial" text-anchor="middle" font-size="20px" width="204px" fill="#323232" font-weight="400" align="middle" lineHeight="125%" anchor="middle" family="&quot;Microsoft YaHei&quot;, 微软雅黑, Arial" size="20px" weight="400" font-style="" opacity="1" y="41" transform="rotate(0)"></text></g></g><g id="SvgjsG1129" transform="translate(641.9999999999998,991.8809523809527)"><path id="SvgjsPath1130" d="M 0 4Q 0 0 4 0L 101 0Q 105 0 105 4L 105 33Q 105 37 101 37L 4 37Q 0 37 0 33Z" stroke="rgba(33,41,48,1)" stroke-width="1.5" fill-opacity="1" fill="#000000"></path><g id="SvgjsG1131"><text id="SvgjsText1132" font-family="&quot;Microsoft YaHei&quot;, 微软雅黑, Arial" text-anchor="middle" font-size="20px" width="85px" fill="#ffffff" font-weight="400" align="middle" lineHeight="125%" anchor="middle" family="&quot;Microsoft YaHei&quot;, 微软雅黑, Arial" size="20px" weight="400" font-style="" opacity="1" y="0.5" transform="rotate(0)"><tspan id="SvgjsTspan1133" dy="25" x="52.5"><tspan id="SvgjsTspan1134" style="">sqe_next</tspan></tspan></text></g></g><g id="SvgjsG1135" transform="translate(257.9999999999998,983.8809523809527)"><path id="SvgjsPath1136" d="M 0 4Q 0 0 4 0L 127 0Q 131 0 131 4L 131 111Q 131 115 127 115L 4 115Q 0 115 0 111Z" stroke="rgba(255,255,255,1)" stroke-width="1.5" fill-opacity="1" fill="#beb3af"></path><g id="SvgjsG1137"><text id="SvgjsText1138" font-family="&quot;Microsoft YaHei&quot;, 微软雅黑, Arial" text-anchor="middle" font-size="20px" width="111px" fill="#323232" font-weight="400" align="middle" lineHeight="125%" anchor="middle" family="&quot;Microsoft YaHei&quot;, 微软雅黑, Arial" size="20px" weight="400" font-style="" opacity="1" y="39.5" transform="rotate(0)"></text></g></g><g id="SvgjsG1139" transform="translate(270.9999999999998,995.8809523809527)"><path id="SvgjsPath1140" d="M 0 4Q 0 0 4 0L 101 0Q 105 0 105 4L 105 33Q 105 37 101 37L 4 37Q 0 37 0 33Z" stroke="rgba(33,41,48,1)" stroke-width="1.5" fill-opacity="1" fill="#000000"></path><g id="SvgjsG1141"><text id="SvgjsText1142" font-family="&quot;Microsoft YaHei&quot;, 微软雅黑, Arial" text-anchor="middle" font-size="20px" width="85px" fill="#ffffff" font-weight="400" align="middle" lineHeight="125%" anchor="middle" family="&quot;Microsoft YaHei&quot;, 微软雅黑, Arial" size="20px" weight="400" font-style="" opacity="1" y="0.5" transform="rotate(0)"><tspan id="SvgjsTspan1143" dy="25" x="52.5"><tspan id="SvgjsTspan1144" style="">sqh_first</tspan></tspan></text></g></g><g id="SvgjsG1145" transform="translate(270.9999999999998,1047.8809523809527)"><path id="SvgjsPath1146" d="M 0 4Q 0 0 4 0L 101 0Q 105 0 105 4L 105 33Q 105 37 101 37L 4 37Q 0 37 0 33Z" stroke="rgba(33,41,48,1)" stroke-width="1.5" fill-opacity="1" fill="#000000"></path><g id="SvgjsG1147"><text id="SvgjsText1148" font-family="&quot;Microsoft YaHei&quot;, 微软雅黑, Arial" text-anchor="middle" font-size="20px" width="85px" fill="#ffffff" font-weight="400" align="middle" lineHeight="125%" anchor="middle" family="&quot;Microsoft YaHei&quot;, 微软雅黑, Arial" size="20px" weight="400" font-style="" opacity="1" y="0.5" transform="rotate(0)"><tspan id="SvgjsTspan1149" dy="25" x="52.5"><tspan id="SvgjsTspan1150" style="">sqh_last</tspan></tspan></text></g></g><g id="SvgjsG1151" transform="translate(953.9999999999993,982.3809523809527)"><path id="SvgjsPath1152" d="M 0 4Q 0 0 4 0L 92 0Q 96 0 96 4L 96 50Q 96 54 92 54L 4 54Q 0 54 0 50Z" stroke="rgba(255,255,255,1)" stroke-width="1.5" fill-opacity="1" fill="#7bd144"></path><g id="SvgjsG1153"><text id="SvgjsText1154" font-family="&quot;Microsoft YaHei&quot;, 微软雅黑, Arial" text-anchor="middle" font-size="20px" width="76px" fill="#323232" font-weight="400" align="middle" lineHeight="125%" anchor="middle" family="&quot;Microsoft YaHei&quot;, 微软雅黑, Arial" size="20px" weight="400" font-style="" opacity="1" y="9" transform="rotate(0)"><tspan id="SvgjsTspan1155" dy="25" x="48"><tspan id="SvgjsTspan1156" style="">NULL</tspan></tspan></text></g></g><g id="SvgjsG1157"><path id="SvgjsPath1158" d="M747.7499998202427 1010.3804331164184C 829.8009661779372 1010.3809523809527 871.1990338220614 1009.3809523809527 951.9500004913355 1009.3823717040134" stroke="#000000" stroke-width="1" fill="none" marker-end="url(#SvgjsMarker1159)"></path></g><g id="SvgjsG1161" transform="translate(275.9999999999998,940.8809523809527)"><path id="SvgjsPath1162" d="M 0 0L 100 0L 100 40L 0 40Z" stroke="none" fill="none"></path><g id="SvgjsG1163"><text id="SvgjsText1164" font-family="&quot;Microsoft YaHei&quot;, 微软雅黑, Arial" text-anchor="middle" font-size="20px" width="100px" fill="#323232" font-weight="700" align="middle" lineHeight="125%" anchor="middle" family="&quot;Microsoft YaHei&quot;, 微软雅黑, Arial" size="20px" weight="700" font-style="" opacity="1" y="2" transform="rotate(0)"><tspan id="SvgjsTspan1165" dy="25" x="50"><tspan id="SvgjsTspan1166" style="">HEAD</tspan></tspan></text></g></g><g id="SvgjsG1167"><path id="SvgjsPath1168" d="M376.72958861824077 1066.5547351422763C 491.9999999999998 1094.880952380953 595.9999999999998 1097.880952380953 692.7984589511262 1030.0243062452478" stroke="#000000" stroke-width="1" fill="none" marker-end="url(#SvgjsMarker1169)"></path></g><g id="SvgjsG1171" transform="translate(68.99999999999977,886.8809523809527)"><path id="SvgjsPath1172" d="M 0 4Q 0 0 4 0L 92 0Q 96 0 96 4L 96 50Q 96 54 92 54L 4 54Q 0 54 0 50Z" stroke="rgba(255,255,255,1)" stroke-width="1.5" fill-opacity="1" fill="#5b79e8"></path><g id="SvgjsG1173"><text id="SvgjsText1174" font-family="&quot;Microsoft YaHei&quot;, 微软雅黑, Arial" text-anchor="middle" font-size="20px" width="76px" fill="#ffffff" font-weight="400" align="middle" lineHeight="125%" anchor="middle" family="&quot;Microsoft YaHei&quot;, 微软雅黑, Arial" size="20px" weight="400" font-style="" opacity="1" y="9" transform="rotate(0)"><tspan id="SvgjsTspan1175" dy="25" x="48"><tspan id="SvgjsTspan1176" style="">elm</tspan></tspan></text></g></g><g id="SvgjsG1177"><path id="SvgjsPath1178" d="M165.74999960182532 913.8801795539952C 335.2197403358375 913.8809523809527 444.9999999999998 906.8809523809527 580.8845084510754 980.216413328237" stroke="#e32222" stroke-width="3" fill="none" marker-end="url(#SvgjsMarker1179)"></path></g><g id="SvgjsG1181"><path id="SvgjsPath1182" d="M376.66764719353046 1014.0392694504885C 570.9999999999998 913.8809523809527 691.9999999999998 886.8809523809527 997.551080065939 981.0283210859134" stroke="#e32222" stroke-width="3" fill="none" marker-end="url(#SvgjsMarker1183)"></path></g><g id="SvgjsG1185" transform="translate(534.9999999999998,1257.3809523809534)"><path id="SvgjsPath1186" d="M 0 4Q 0 0 4 0L 220 0Q 224 0 224 4L 224 114Q 224 118 220 118L 4 118Q 0 118 0 114Z" stroke="rgba(255,255,255,1)" stroke-width="1.5" fill-opacity="1" fill="#7bd144"></path><g id="SvgjsG1187"><text id="SvgjsText1188" font-family="&quot;Microsoft YaHei&quot;, 微软雅黑, Arial" text-anchor="middle" font-size="20px" width="204px" fill="#323232" font-weight="400" align="middle" lineHeight="125%" anchor="middle" family="&quot;Microsoft YaHei&quot;, 微软雅黑, Arial" size="20px" weight="400" font-style="" opacity="1" y="41" transform="rotate(0)"></text></g></g><g id="SvgjsG1189" transform="translate(641.9999999999998,1266.8809523809534)"><path id="SvgjsPath1190" d="M 0 4Q 0 0 4 0L 101 0Q 105 0 105 4L 105 33Q 105 37 101 37L 4 37Q 0 37 0 33Z" stroke="rgba(33,41,48,1)" stroke-width="1.5" fill-opacity="1" fill="#000000"></path><g id="SvgjsG1191"><text id="SvgjsText1192" font-family="&quot;Microsoft YaHei&quot;, 微软雅黑, Arial" text-anchor="middle" font-size="20px" width="85px" fill="#ffffff" font-weight="400" align="middle" lineHeight="125%" anchor="middle" family="&quot;Microsoft YaHei&quot;, 微软雅黑, Arial" size="20px" weight="400" font-style="" opacity="1" y="0.5" transform="rotate(0)"><tspan id="SvgjsTspan1193" dy="25" x="52.5"><tspan id="SvgjsTspan1194" style="">sqe_next</tspan></tspan></text></g></g><g id="SvgjsG1195" transform="translate(257.9999999999998,1258.8809523809534)"><path id="SvgjsPath1196" d="M 0 4Q 0 0 4 0L 127 0Q 131 0 131 4L 131 111Q 131 115 127 115L 4 115Q 0 115 0 111Z" stroke="rgba(255,255,255,1)" stroke-width="1.5" fill-opacity="1" fill="#beb3af"></path><g id="SvgjsG1197"><text id="SvgjsText1198" font-family="&quot;Microsoft YaHei&quot;, 微软雅黑, Arial" text-anchor="middle" font-size="20px" width="111px" fill="#323232" font-weight="400" align="middle" lineHeight="125%" anchor="middle" family="&quot;Microsoft YaHei&quot;, 微软雅黑, Arial" size="20px" weight="400" font-style="" opacity="1" y="39.5" transform="rotate(0)"></text></g></g><g id="SvgjsG1199" transform="translate(270.9999999999998,1270.880952380953)"><path id="SvgjsPath1200" d="M 0 4Q 0 0 4 0L 101 0Q 105 0 105 4L 105 33Q 105 37 101 37L 4 37Q 0 37 0 33Z" stroke="rgba(33,41,48,1)" stroke-width="1.5" fill-opacity="1" fill="#000000"></path><g id="SvgjsG1201"><text id="SvgjsText1202" font-family="&quot;Microsoft YaHei&quot;, 微软雅黑, Arial" text-anchor="middle" font-size="20px" width="85px" fill="#ffffff" font-weight="400" align="middle" lineHeight="125%" anchor="middle" family="&quot;Microsoft YaHei&quot;, 微软雅黑, Arial" size="20px" weight="400" font-style="" opacity="1" y="0.5" transform="rotate(0)"><tspan id="SvgjsTspan1203" dy="25" x="52.5"><tspan id="SvgjsTspan1204" style="">sqh_first</tspan></tspan></text></g></g><g id="SvgjsG1205" transform="translate(270.9999999999998,1322.8809523809534)"><path id="SvgjsPath1206" d="M 0 4Q 0 0 4 0L 101 0Q 105 0 105 4L 105 33Q 105 37 101 37L 4 37Q 0 37 0 33Z" stroke="rgba(33,41,48,1)" stroke-width="1.5" fill-opacity="1" fill="#000000"></path><g id="SvgjsG1207"><text id="SvgjsText1208" font-family="&quot;Microsoft YaHei&quot;, 微软雅黑, Arial" text-anchor="middle" font-size="20px" width="85px" fill="#ffffff" font-weight="400" align="middle" lineHeight="125%" anchor="middle" family="&quot;Microsoft YaHei&quot;, 微软雅黑, Arial" size="20px" weight="400" font-style="" opacity="1" y="0.5" transform="rotate(0)"><tspan id="SvgjsTspan1209" dy="25" x="52.5"><tspan id="SvgjsTspan1210" style="">sqh_last</tspan></tspan></text></g></g><g id="SvgjsG1211" transform="translate(953.9999999999993,1257.3809523809534)"><path id="SvgjsPath1212" d="M 0 4Q 0 0 4 0L 92 0Q 96 0 96 4L 96 50Q 96 54 92 54L 4 54Q 0 54 0 50Z" stroke="rgba(255,255,255,1)" stroke-width="1.5" fill-opacity="1" fill="#7bd144"></path><g id="SvgjsG1213"><text id="SvgjsText1214" font-family="&quot;Microsoft YaHei&quot;, 微软雅黑, Arial" text-anchor="middle" font-size="20px" width="76px" fill="#323232" font-weight="400" align="middle" lineHeight="125%" anchor="middle" family="&quot;Microsoft YaHei&quot;, 微软雅黑, Arial" size="20px" weight="400" font-style="" opacity="1" y="9" transform="rotate(0)"><tspan id="SvgjsTspan1215" dy="25" x="48"><tspan id="SvgjsTspan1216" style="">NULL</tspan></tspan></text></g></g><g id="SvgjsG1217"><path id="SvgjsPath1218" d="M747.7499998202427 1285.380433116419C 829.8009661779372 1285.3809523809534 871.1990338220614 1284.3809523809534 951.9500004913355 1284.382371704014" stroke="#000000" stroke-width="1" fill="none" marker-end="url(#SvgjsMarker1219)"></path></g><g id="SvgjsG1221" transform="translate(275.9999999999998,1215.880952380953)"><path id="SvgjsPath1222" d="M 0 0L 100 0L 100 40L 0 40Z" stroke="none" fill="none"></path><g id="SvgjsG1223"><text id="SvgjsText1224" font-family="&quot;Microsoft YaHei&quot;, 微软雅黑, Arial" text-anchor="middle" font-size="20px" width="100px" fill="#323232" font-weight="700" align="middle" lineHeight="125%" anchor="middle" family="&quot;Microsoft YaHei&quot;, 微软雅黑, Arial" size="20px" weight="700" font-style="" opacity="1" y="2" transform="rotate(0)"><tspan id="SvgjsTspan1225" dy="25" x="50"><tspan id="SvgjsTspan1226" style="">HEAD</tspan></tspan></text></g></g><g id="SvgjsG1227" transform="translate(68.99999999999977,1161.880952380953)"><path id="SvgjsPath1228" d="M 0 4Q 0 0 4 0L 92 0Q 96 0 96 4L 96 50Q 96 54 92 54L 4 54Q 0 54 0 50Z" stroke="rgba(255,255,255,1)" stroke-width="1.5" fill-opacity="1" fill="#5b79e8"></path><g id="SvgjsG1229"><text id="SvgjsText1230" font-family="&quot;Microsoft YaHei&quot;, 微软雅黑, Arial" text-anchor="middle" font-size="20px" width="76px" fill="#ffffff" font-weight="400" align="middle" lineHeight="125%" anchor="middle" family="&quot;Microsoft YaHei&quot;, 微软雅黑, Arial" size="20px" weight="400" font-style="" opacity="1" y="9" transform="rotate(0)"><tspan id="SvgjsTspan1231" dy="25" x="48"><tspan id="SvgjsTspan1232" style="">elm</tspan></tspan></text></g></g><g id="SvgjsG1233"><path id="SvgjsPath1234" d="M165.74999960182532 1188.8801795539957C 335.2197403358375 1188.8809523809532 444.9999999999998 1181.8809523809532 580.8845084510754 1255.2164133282376" stroke="#e32222" stroke-width="3" fill="none" marker-end="url(#SvgjsMarker1235)"></path></g><g id="SvgjsG1237"><path id="SvgjsPath1238" d="M376.66764719353046 1289.0392694504892C 570.9999999999998 1188.8809523809532 691.9999999999998 1161.880952380953 997.551080065939 1256.028321085914" stroke="#e32222" stroke-width="3" fill="none" marker-end="url(#SvgjsMarker1239)"></path></g><g id="SvgjsG1241"><path id="SvgjsPath1242" d="M270.25318814932336 1341.311872284766C 140.99999999999977 1338.8809523809534 130.99999999999977 1301.880952380953 266.4094862495924 1290.1223588196365" stroke="#e32222" stroke-width="3" fill="none" marker-end="url(#SvgjsMarker1243)"></path></g><g id="SvgjsG1245" transform="translate(257.9999999999998,1533.8809523809534)"><path id="SvgjsPath1246" d="M 0 4Q 0 0 4 0L 127 0Q 131 0 131 4L 131 111Q 131 115 127 115L 4 115Q 0 115 0 111Z" stroke="rgba(255,255,255,1)" stroke-width="1.5" fill-opacity="1" fill="#beb3af"></path><g id="SvgjsG1247"><text id="SvgjsText1248" font-family="&quot;Microsoft YaHei&quot;, 微软雅黑, Arial" text-anchor="middle" font-size="20px" width="111px" fill="#323232" font-weight="400" align="middle" lineHeight="125%" anchor="middle" family="&quot;Microsoft YaHei&quot;, 微软雅黑, Arial" size="20px" weight="400" font-style="" opacity="1" y="39.5" transform="rotate(0)"></text></g></g><g id="SvgjsG1249" transform="translate(270.9999999999998,1545.8809523809534)"><path id="SvgjsPath1250" d="M 0 4Q 0 0 4 0L 101 0Q 105 0 105 4L 105 33Q 105 37 101 37L 4 37Q 0 37 0 33Z" stroke="rgba(33,41,48,1)" stroke-width="1.5" fill-opacity="1" fill="#000000"></path><g id="SvgjsG1251"><text id="SvgjsText1252" font-family="&quot;Microsoft YaHei&quot;, 微软雅黑, Arial" text-anchor="middle" font-size="20px" width="85px" fill="#ffffff" font-weight="400" align="middle" lineHeight="125%" anchor="middle" family="&quot;Microsoft YaHei&quot;, 微软雅黑, Arial" size="20px" weight="400" font-style="" opacity="1" y="0.5" transform="rotate(0)"><tspan id="SvgjsTspan1253" dy="25" x="52.5"><tspan id="SvgjsTspan1254" style="">sqh_first</tspan></tspan></text></g></g><g id="SvgjsG1255" transform="translate(270.9999999999998,1597.8809523809534)"><path id="SvgjsPath1256" d="M 0 4Q 0 0 4 0L 101 0Q 105 0 105 4L 105 33Q 105 37 101 37L 4 37Q 0 37 0 33Z" stroke="rgba(33,41,48,1)" stroke-width="1.5" fill-opacity="1" fill="#000000"></path><g id="SvgjsG1257"><text id="SvgjsText1258" font-family="&quot;Microsoft YaHei&quot;, 微软雅黑, Arial" text-anchor="middle" font-size="20px" width="85px" fill="#ffffff" font-weight="400" align="middle" lineHeight="125%" anchor="middle" family="&quot;Microsoft YaHei&quot;, 微软雅黑, Arial" size="20px" weight="400" font-style="" opacity="1" y="0.5" transform="rotate(0)"><tspan id="SvgjsTspan1259" dy="25" x="52.5"><tspan id="SvgjsTspan1260" style="">sqh_last</tspan></tspan></text></g></g><g id="SvgjsG1261" transform="translate(953.9999999999993,1537.3809523809534)"><path id="SvgjsPath1262" d="M 0 4Q 0 0 4 0L 92 0Q 96 0 96 4L 96 50Q 96 54 92 54L 4 54Q 0 54 0 50Z" stroke="rgba(255,255,255,1)" stroke-width="1.5" fill-opacity="1" fill="#7bd144"></path><g id="SvgjsG1263"><text id="SvgjsText1264" font-family="&quot;Microsoft YaHei&quot;, 微软雅黑, Arial" text-anchor="middle" font-size="20px" width="76px" fill="#323232" font-weight="400" align="middle" lineHeight="125%" anchor="middle" family="&quot;Microsoft YaHei&quot;, 微软雅黑, Arial" size="20px" weight="400" font-style="" opacity="1" y="9" transform="rotate(0)"><tspan id="SvgjsTspan1265" dy="25" x="48"><tspan id="SvgjsTspan1266" style="">NULL</tspan></tspan></text></g></g><g id="SvgjsG1267" transform="translate(275.9999999999998,1490.8809523809534)"><path id="SvgjsPath1268" d="M 0 0L 100 0L 100 40L 0 40Z" stroke="none" fill="none"></path><g id="SvgjsG1269"><text id="SvgjsText1270" font-family="&quot;Microsoft YaHei&quot;, 微软雅黑, Arial" text-anchor="middle" font-size="20px" width="100px" fill="#323232" font-weight="700" align="middle" lineHeight="125%" anchor="middle" family="&quot;Microsoft YaHei&quot;, 微软雅黑, Arial" size="20px" weight="700" font-style="" opacity="1" y="2" transform="rotate(0)"><tspan id="SvgjsTspan1271" dy="25" x="50"><tspan id="SvgjsTspan1272" style="">HEAD</tspan></tspan></text></g></g><g id="SvgjsG1273"><path id="SvgjsPath1274" d="M376.7499999999998 1564.3809523809534L664.9999999999995 1564.3809523809534L664.9999999999995 1564.3809523809534L949.3499999999992 1564.3809523809534" stroke="#e32222" stroke-width="3" fill="none" marker-end="url(#SvgjsMarker1275)"></path></g><g id="SvgjsG1277"><path id="SvgjsPath1278" d="M270.25318814932336 1616.3118722847664C 140.99999999999977 1613.8809523809539 130.99999999999977 1576.8809523809534 266.4094862495924 1565.1223588196365" stroke="#e32222" stroke-width="3" fill="none" marker-end="url(#SvgjsMarker1279)"></path></g><g id="SvgjsG1281" transform="translate(840.0000000000002,415.1071428571429)"><path id="SvgjsPath1282" d="M 19.8 0L 40.2 0L 40.2 60L 60 60L 30 90L 0 60L 19.8 60L 19.8 0Z" stroke="rgba(0,0,0,1)" stroke-width="1.5" fill-opacity="1" fill="#000000"></path><g id="SvgjsG1283"><text id="SvgjsText1284" font-family="&quot;Microsoft YaHei&quot;, 微软雅黑, Arial" text-anchor="middle" font-size="20px" width="84px" fill="#323232" font-weight="400" align="middle" lineHeight="125%" anchor="middle" family="&quot;Microsoft YaHei&quot;, 微软雅黑, Arial" size="20px" weight="400" font-style="" opacity="1" y="22.5" transform="rotate(0)"></text></g></g><g id="SvgjsG1285" transform="translate(821.6666666666667,1060.2142857142862)"><path id="SvgjsPath1286" d="M 19.8 0L 40.2 0L 40.2 60L 60 60L 30 90L 0 60L 19.8 60L 19.8 0Z" stroke="rgba(0,0,0,1)" stroke-width="1.5" fill-opacity="1" fill="#000000"></path><g id="SvgjsG1287"><text id="SvgjsText1288" font-family="&quot;Microsoft YaHei&quot;, 微软雅黑, Arial" text-anchor="middle" font-size="20px" width="84px" fill="#323232" font-weight="400" align="middle" lineHeight="125%" anchor="middle" family="&quot;Microsoft YaHei&quot;, 微软雅黑, Arial" size="20px" weight="400" font-style="" opacity="1" y="22.5" transform="rotate(0)"></text></g></g><g id="SvgjsG1289" transform="translate(821.6666666666667,1385.214285714287)"><path id="SvgjsPath1290" d="M 19.8 0L 40.2 0L 40.2 60L 60 60L 30 90L 0 60L 19.8 60L 19.8 0Z" stroke="rgba(0,0,0,1)" stroke-width="1.5" fill-opacity="1" fill="#000000"></path><g id="SvgjsG1291"><text id="SvgjsText1292" font-family="&quot;Microsoft YaHei&quot;, 微软雅黑, Arial" text-anchor="middle" font-size="20px" width="84px" fill="#323232" font-weight="400" align="middle" lineHeight="125%" anchor="middle" family="&quot;Microsoft YaHei&quot;, 微软雅黑, Arial" size="20px" weight="400" font-style="" opacity="1" y="22.5" transform="rotate(0)"></text></g></g><g id="SvgjsG1293" transform="translate(25,526.7738095238097)"><path id="SvgjsPath1294" d="M 0 0L 1090.667 0L 1106.667 16L 1106.667 208.333L 0 208.333L 0 0Z" stroke="none" fill-opacity="1" fill="#fff7bc"></path><path id="SvgjsPath1295" d="M 1090.667 0L 1090.667 16L 1106.667 16Z" stroke="none" fill-opacity="1" fill="#e4d089"></path><path id="SvgjsPath1296" d="M 0 0L 1090.667 0L 1106.667 16L 1106.667 208.333L 0 208.333L 0 0Z" stroke="none" fill="none"></path><g id="SvgjsG1297"><text id="SvgjsText1298" font-family="&quot;Microsoft YaHei&quot;, 微软雅黑, Arial" text-anchor="middle" font-size="36px" width="1087px" fill="#323232" font-weight="400" align="middle" lineHeight="125%" anchor="middle" family="&quot;Microsoft YaHei&quot;, 微软雅黑, Arial" size="36px" weight="400" font-style="" opacity="1" y="28.1665" transform="rotate(0)"><tspan id="SvgjsTspan1299" dy="45" x="553.5"><tspan id="SvgjsTspan1300" style="">(((head)-&gt;sqh_first = elm-&gt;field.sqe_next) == NULL)</tspan></tspan><tspan id="SvgjsTspan1301" dy="45" x="553.5"><tspan id="SvgjsTspan1302" style="">因为 elm-&gt;field.sqe_next == NULL</tspan></tspan><tspan id="SvgjsTspan1303" dy="45" x="553.5"><tspan id="SvgjsTspan1304" style="">所以 (head)-&gt;sqh_first == NULL</tspan></tspan></text></g></g><g id="SvgjsG1305" transform="translate(821.6666666666667,774.2142857142858)"><path id="SvgjsPath1306" d="M 19.8 0L 40.2 0L 40.2 60L 60 60L 30 90L 0 60L 19.8 60L 19.8 0Z" stroke="rgba(0,0,0,1)" stroke-width="1.5" fill-opacity="1" fill="#000000"></path><g id="SvgjsG1307"><text id="SvgjsText1308" font-family="&quot;Microsoft YaHei&quot;, 微软雅黑, Arial" text-anchor="middle" font-size="20px" width="84px" fill="#323232" font-weight="400" align="middle" lineHeight="125%" anchor="middle" family="&quot;Microsoft YaHei&quot;, 微软雅黑, Arial" size="20px" weight="400" font-style="" opacity="1" y="22.5" transform="rotate(0)"></text></g></g><g id="SvgjsG1309"></g></svg>