<svg id="SvgjsSvg1006" width="910.3750000000001" height="1004.5" xmlns="http://www.w3.org/2000/svg" version="1.1" xmlns:xlink="http://www.w3.org/1999/xlink" xmlns:svgjs="http://svgjs.com/svgjs"><defs id="SvgjsDefs1007"><pattern patternUnits="userSpaceOnUse" id="pattern_mark_0" width="300" height="300"><text x="150" y="100" fill="rgba(229,229,229,0.8)" font-size="18" transform="rotate(-45, 150, 150)" style="dominant-baseline: middle; text-anchor: middle;"></text></pattern><pattern patternUnits="userSpaceOnUse" id="pattern_mark_1" width="300" height="300"><text x="150" y="200" fill="rgba(229,229,229,0.8)" font-size="18" transform="rotate(-45, 150, 150)" style="dominant-baseline: middle; text-anchor: middle;"></text></pattern><marker id="SvgjsMarker1045" markerWidth="13" markerHeight="9" refX="9.5" refY="4.5" viewBox="0 0 13 9" orient="auto" markerUnits="userSpaceOnUse" stroke-dasharray="0,0"><path id="SvgjsPath1046" d="M0,0 L13,4.5 L0,9 L0,0" fill="#323232" stroke="#323232" stroke-width="1"></path></marker><marker id="SvgjsMarker1049" markerWidth="13" markerHeight="9" refX="9.5" refY="4.5" viewBox="0 0 13 9" orient="auto" markerUnits="userSpaceOnUse" stroke-dasharray="0,0"><path id="SvgjsPath1050" d="M0,0 L13,4.5 L0,9 L0,0" fill="#323232" stroke="#323232" stroke-width="1"></path></marker><marker id="SvgjsMarker1053" markerWidth="16" markerHeight="12" refX="11" refY="6" viewBox="0 0 16 12" orient="auto" markerUnits="userSpaceOnUse" stroke-dasharray="0,0"><path id="SvgjsPath1054" d="M0,0 L16,6 L0,12 L0,0" fill="#e32222" stroke="#e32222" stroke-width="1"></path></marker><marker id="SvgjsMarker1095" markerWidth="16" markerHeight="12" refX="11" refY="6" viewBox="0 0 16 12" orient="auto" markerUnits="userSpaceOnUse" stroke-dasharray="0,0"><path id="SvgjsPath1096" d="M0,0 L16,6 L0,12 L0,0" fill="#e32222" stroke="#e32222" stroke-width="1"></path></marker><marker id="SvgjsMarker1105" markerWidth="16" markerHeight="12" refX="11" refY="6" viewBox="0 0 16 12" orient="auto" markerUnits="userSpaceOnUse" stroke-dasharray="0,0"><path id="SvgjsPath1106" d="M0,0 L16,6 L0,12 L0,0" fill="#e32222" stroke="#e32222" stroke-width="1"></path></marker><marker id="SvgjsMarker1135" markerWidth="13" markerHeight="9" refX="9.5" refY="4.5" viewBox="0 0 13 9" orient="auto" markerUnits="userSpaceOnUse" stroke-dasharray="0,0"><path id="SvgjsPath1136" d="M0,0 L13,4.5 L0,9 L0,0" fill="#323232" stroke="#323232" stroke-width="1"></path></marker><marker id="SvgjsMarker1139" markerWidth="13" markerHeight="9" refX="9.5" refY="4.5" viewBox="0 0 13 9" orient="auto" markerUnits="userSpaceOnUse" stroke-dasharray="0,0"><path id="SvgjsPath1140" d="M0,0 L13,4.5 L0,9 L0,0" fill="#323232" stroke="#323232" stroke-width="1"></path></marker><marker id="SvgjsMarker1179" markerWidth="13" markerHeight="9" refX="9.5" refY="4.5" viewBox="0 0 13 9" orient="auto" markerUnits="userSpaceOnUse" stroke-dasharray="0,0"><path id="SvgjsPath1180" d="M0,0 L13,4.5 L0,9 L0,0" fill="#323232" stroke="#323232" stroke-width="1"></path></marker><marker id="SvgjsMarker1183" markerWidth="16" markerHeight="12" refX="11" refY="6" viewBox="0 0 16 12" orient="auto" markerUnits="userSpaceOnUse" stroke-dasharray="0,0"><path id="SvgjsPath1184" d="M0,0 L16,6 L0,12 L0,0" fill="#e32222" stroke="#e32222" stroke-width="1"></path></marker><marker id="SvgjsMarker1193" markerWidth="16" markerHeight="12" refX="11" refY="6" viewBox="0 0 16 12" orient="auto" markerUnits="userSpaceOnUse" stroke-dasharray="0,0"><path id="SvgjsPath1194" d="M0,0 L16,6 L0,12 L0,0" fill="#e32222" stroke="#e32222" stroke-width="1"></path></marker><marker id="SvgjsMarker1197" markerWidth="16" markerHeight="12" refX="11" refY="6" viewBox="0 0 16 12" orient="auto" markerUnits="userSpaceOnUse" stroke-dasharray="0,0"><path id="SvgjsPath1198" d="M0,0 L16,6 L0,12 L0,0" fill="#e32222" stroke="#e32222" stroke-width="1"></path></marker></defs><rect id="svgbackgroundid" width="910.3750000000001" height="1004.5" fill="transparent"></rect><rect id="SvgjsRect1009" width="910.3750000000001" height="1004.5" fill="url(#pattern_mark_0)"></rect><rect id="SvgjsRect1010" width="910.3750000000001" height="1004.5" fill="url(#pattern_mark_1)"></rect><g id="SvgjsG1011" transform="translate(370.3750000000001,300)"><path id="SvgjsPath1012" d="M 0 4Q 0 0 4 0L 220 0Q 224 0 224 4L 224 114Q 224 118 220 118L 4 118Q 0 118 0 114Z" stroke="rgba(255,255,255,1)" stroke-width="1.5" fill-opacity="1" fill="#7bd144"></path><g id="SvgjsG1013"><text id="SvgjsText1014" font-family="&quot;Microsoft YaHei&quot;, 微软雅黑, Arial" text-anchor="middle" font-size="20px" width="204px" fill="#323232" font-weight="400" align="middle" lineHeight="125%" anchor="middle" family="&quot;Microsoft YaHei&quot;, 微软雅黑, Arial" size="20px" weight="400" font-style="" opacity="1" y="41" transform="rotate(0)"></text></g></g><g id="SvgjsG1015" transform="translate(477.3750000000001,310)"><path id="SvgjsPath1016" d="M 0 4Q 0 0 4 0L 101 0Q 105 0 105 4L 105 33Q 105 37 101 37L 4 37Q 0 37 0 33Z" stroke="rgba(33,41,48,1)" stroke-width="1.5" fill-opacity="1" fill="#000000"></path><g id="SvgjsG1017"><text id="SvgjsText1018" font-family="&quot;Microsoft YaHei&quot;, 微软雅黑, Arial" text-anchor="middle" font-size="20px" width="85px" fill="#ffffff" font-weight="400" align="middle" lineHeight="125%" anchor="middle" family="&quot;Microsoft YaHei&quot;, 微软雅黑, Arial" size="20px" weight="400" font-style="" opacity="1" y="0.5" transform="rotate(0)"><tspan id="SvgjsTspan1019" dy="25" x="52.5"><tspan id="SvgjsTspan1020" style="">sqe_next</tspan></tspan></text></g></g><g id="SvgjsG1021" transform="translate(93.37500000000011,236)"><path id="SvgjsPath1022" d="M 0 4Q 0 0 4 0L 127 0Q 131 0 131 4L 131 111Q 131 115 127 115L 4 115Q 0 115 0 111Z" stroke="rgba(255,255,255,1)" stroke-width="1.5" fill-opacity="1" fill="#beb3af"></path><g id="SvgjsG1023"><text id="SvgjsText1024" font-family="&quot;Microsoft YaHei&quot;, 微软雅黑, Arial" text-anchor="middle" font-size="20px" width="111px" fill="#323232" font-weight="400" align="middle" lineHeight="125%" anchor="middle" family="&quot;Microsoft YaHei&quot;, 微软雅黑, Arial" size="20px" weight="400" font-style="" opacity="1" y="39.5" transform="rotate(0)"></text></g></g><g id="SvgjsG1025" transform="translate(106.37500000000011,248)"><path id="SvgjsPath1026" d="M 0 4Q 0 0 4 0L 101 0Q 105 0 105 4L 105 33Q 105 37 101 37L 4 37Q 0 37 0 33Z" stroke="rgba(33,41,48,1)" stroke-width="1.5" fill-opacity="1" fill="#000000"></path><g id="SvgjsG1027"><text id="SvgjsText1028" font-family="&quot;Microsoft YaHei&quot;, 微软雅黑, Arial" text-anchor="middle" font-size="20px" width="85px" fill="#ffffff" font-weight="400" align="middle" lineHeight="125%" anchor="middle" family="&quot;Microsoft YaHei&quot;, 微软雅黑, Arial" size="20px" weight="400" font-style="" opacity="1" y="0.5" transform="rotate(0)"><tspan id="SvgjsTspan1029" dy="25" x="52.5"><tspan id="SvgjsTspan1030" style="">sqh_first</tspan></tspan></text></g></g><g id="SvgjsG1031" transform="translate(106.37500000000011,300)"><path id="SvgjsPath1032" d="M 0 4Q 0 0 4 0L 101 0Q 105 0 105 4L 105 33Q 105 37 101 37L 4 37Q 0 37 0 33Z" stroke="rgba(33,41,48,1)" stroke-width="1.5" fill-opacity="1" fill="#000000"></path><g id="SvgjsG1033"><text id="SvgjsText1034" font-family="&quot;Microsoft YaHei&quot;, 微软雅黑, Arial" text-anchor="middle" font-size="20px" width="85px" fill="#ffffff" font-weight="400" align="middle" lineHeight="125%" anchor="middle" family="&quot;Microsoft YaHei&quot;, 微软雅黑, Arial" size="20px" weight="400" font-style="" opacity="1" y="0.5" transform="rotate(0)"><tspan id="SvgjsTspan1035" dy="25" x="52.5"><tspan id="SvgjsTspan1036" style="">sqh_last</tspan></tspan></text></g></g><g id="SvgjsG1037" transform="translate(789.3750000000001,239.5)"><path id="SvgjsPath1038" d="M 0 4Q 0 0 4 0L 92 0Q 96 0 96 4L 96 50Q 96 54 92 54L 4 54Q 0 54 0 50Z" stroke="rgba(255,255,255,1)" stroke-width="1.5" fill-opacity="1" fill="#7bd144"></path><g id="SvgjsG1039"><text id="SvgjsText1040" font-family="&quot;Microsoft YaHei&quot;, 微软雅黑, Arial" text-anchor="middle" font-size="20px" width="76px" fill="#323232" font-weight="400" align="middle" lineHeight="125%" anchor="middle" family="&quot;Microsoft YaHei&quot;, 微软雅黑, Arial" size="20px" weight="400" font-style="" opacity="1" y="9" transform="rotate(0)"><tspan id="SvgjsTspan1041" dy="25" x="48"><tspan id="SvgjsTspan1042" style="">NULL</tspan></tspan></text></g></g><g id="SvgjsG1043"><path id="SvgjsPath1044" d="M212.1250000000001 266.5C 442.57500000000016 266.5000000000001 558.1750000000001 266.5 786.6750000000001 266.5" stroke="#323232" stroke-width="1.5" fill="none" marker-end="url(#SvgjsMarker1045)"></path></g><g id="SvgjsG1047"><path id="SvgjsPath1048" d="M105.62796470548449 318.43337966715814C -2.6249999999998863 325 -1.6249999999998863 260 103.68577876564905 266.7410169137538" stroke="#323232" stroke-width="1.5" fill="none" marker-end="url(#SvgjsMarker1049)"></path></g><g id="SvgjsG1051"><path id="SvgjsPath1052" d="M583.1244113637811 328.47029128350215C 668.8092524697241 328.5 702.9407475302761 266.5 784.7286495445582 266.6841940422866" stroke="#e32222" stroke-width="3" fill="none" marker-end="url(#SvgjsMarker1053)"></path></g><g id="SvgjsG1055" transform="translate(111.37500000000011,193)"><path id="SvgjsPath1056" d="M 0 0L 100 0L 100 40L 0 40Z" stroke="none" fill="none"></path><g id="SvgjsG1057"><text id="SvgjsText1058" font-family="&quot;Microsoft YaHei&quot;, 微软雅黑, Arial" text-anchor="middle" font-size="20px" width="100px" fill="#323232" font-weight="700" align="middle" lineHeight="125%" anchor="middle" family="&quot;Microsoft YaHei&quot;, 微软雅黑, Arial" size="20px" weight="700" font-style="" opacity="1" y="2" transform="rotate(0)"><tspan id="SvgjsTspan1059" dy="25" x="50"><tspan id="SvgjsTspan1060" style="">HEAD</tspan></tspan></text></g></g><g id="SvgjsG1061" transform="translate(370.3750000000001,861.5)"><path id="SvgjsPath1062" d="M 0 4Q 0 0 4 0L 220 0Q 224 0 224 4L 224 114Q 224 118 220 118L 4 118Q 0 118 0 114Z" stroke="rgba(255,255,255,1)" stroke-width="1.5" fill-opacity="1" fill="#7bd144"></path><g id="SvgjsG1063"><text id="SvgjsText1064" font-family="&quot;Microsoft YaHei&quot;, 微软雅黑, Arial" text-anchor="middle" font-size="20px" width="204px" fill="#323232" font-weight="400" align="middle" lineHeight="125%" anchor="middle" family="&quot;Microsoft YaHei&quot;, 微软雅黑, Arial" size="20px" weight="400" font-style="" opacity="1" y="41" transform="rotate(0)"></text></g></g><g id="SvgjsG1065" transform="translate(477.3750000000001,871)"><path id="SvgjsPath1066" d="M 0 4Q 0 0 4 0L 101 0Q 105 0 105 4L 105 33Q 105 37 101 37L 4 37Q 0 37 0 33Z" stroke="rgba(33,41,48,1)" stroke-width="1.5" fill-opacity="1" fill="#000000"></path><g id="SvgjsG1067"><text id="SvgjsText1068" font-family="&quot;Microsoft YaHei&quot;, 微软雅黑, Arial" text-anchor="middle" font-size="20px" width="85px" fill="#ffffff" font-weight="400" align="middle" lineHeight="125%" anchor="middle" family="&quot;Microsoft YaHei&quot;, 微软雅黑, Arial" size="20px" weight="400" font-style="" opacity="1" y="0.5" transform="rotate(0)"><tspan id="SvgjsTspan1069" dy="25" x="52.5"><tspan id="SvgjsTspan1070" style="">sqe_next</tspan></tspan></text></g></g><g id="SvgjsG1071" transform="translate(93.37500000000011,863)"><path id="SvgjsPath1072" d="M 0 4Q 0 0 4 0L 127 0Q 131 0 131 4L 131 111Q 131 115 127 115L 4 115Q 0 115 0 111Z" stroke="rgba(255,255,255,1)" stroke-width="1.5" fill-opacity="1" fill="#beb3af"></path><g id="SvgjsG1073"><text id="SvgjsText1074" font-family="&quot;Microsoft YaHei&quot;, 微软雅黑, Arial" text-anchor="middle" font-size="20px" width="111px" fill="#323232" font-weight="400" align="middle" lineHeight="125%" anchor="middle" family="&quot;Microsoft YaHei&quot;, 微软雅黑, Arial" size="20px" weight="400" font-style="" opacity="1" y="39.5" transform="rotate(0)"></text></g></g><g id="SvgjsG1075" transform="translate(106.37500000000011,875)"><path id="SvgjsPath1076" d="M 0 4Q 0 0 4 0L 101 0Q 105 0 105 4L 105 33Q 105 37 101 37L 4 37Q 0 37 0 33Z" stroke="rgba(33,41,48,1)" stroke-width="1.5" fill-opacity="1" fill="#000000"></path><g id="SvgjsG1077"><text id="SvgjsText1078" font-family="&quot;Microsoft YaHei&quot;, 微软雅黑, Arial" text-anchor="middle" font-size="20px" width="85px" fill="#ffffff" font-weight="400" align="middle" lineHeight="125%" anchor="middle" family="&quot;Microsoft YaHei&quot;, 微软雅黑, Arial" size="20px" weight="400" font-style="" opacity="1" y="0.5" transform="rotate(0)"><tspan id="SvgjsTspan1079" dy="25" x="52.5"><tspan id="SvgjsTspan1080" style="">sqh_first</tspan></tspan></text></g></g><g id="SvgjsG1081" transform="translate(106.37500000000011,927)"><path id="SvgjsPath1082" d="M 0 4Q 0 0 4 0L 101 0Q 105 0 105 4L 105 33Q 105 37 101 37L 4 37Q 0 37 0 33Z" stroke="rgba(33,41,48,1)" stroke-width="1.5" fill-opacity="1" fill="#000000"></path><g id="SvgjsG1083"><text id="SvgjsText1084" font-family="&quot;Microsoft YaHei&quot;, 微软雅黑, Arial" text-anchor="middle" font-size="20px" width="85px" fill="#ffffff" font-weight="400" align="middle" lineHeight="125%" anchor="middle" family="&quot;Microsoft YaHei&quot;, 微软雅黑, Arial" size="20px" weight="400" font-style="" opacity="1" y="0.5" transform="rotate(0)"><tspan id="SvgjsTspan1085" dy="25" x="52.5"><tspan id="SvgjsTspan1086" style="">sqh_last</tspan></tspan></text></g></g><g id="SvgjsG1087" transform="translate(789.3749999999997,861.5)"><path id="SvgjsPath1088" d="M 0 4Q 0 0 4 0L 92 0Q 96 0 96 4L 96 50Q 96 54 92 54L 4 54Q 0 54 0 50Z" stroke="rgba(255,255,255,1)" stroke-width="1.5" fill-opacity="1" fill="#7bd144"></path><g id="SvgjsG1089"><text id="SvgjsText1090" font-family="&quot;Microsoft YaHei&quot;, 微软雅黑, Arial" text-anchor="middle" font-size="20px" width="76px" fill="#323232" font-weight="400" align="middle" lineHeight="125%" anchor="middle" family="&quot;Microsoft YaHei&quot;, 微软雅黑, Arial" size="20px" weight="400" font-style="" opacity="1" y="9" transform="rotate(0)"><tspan id="SvgjsTspan1091" dy="25" x="48"><tspan id="SvgjsTspan1092" style="">NULL</tspan></tspan></text></g></g><g id="SvgjsG1093"><path id="SvgjsPath1094" d="M583.124999820243 889.4994807354657C 665.1759661779375 889.5 706.5740338220618 888.5 784.7250011144939 888.5032194401131" stroke="#e32222" stroke-width="3" fill="none" marker-end="url(#SvgjsMarker1095)"></path></g><g id="SvgjsG1097" transform="translate(111.37500000000011,820)"><path id="SvgjsPath1098" d="M 0 0L 100 0L 100 40L 0 40Z" stroke="none" fill="none"></path><g id="SvgjsG1099"><text id="SvgjsText1100" font-family="&quot;Microsoft YaHei&quot;, 微软雅黑, Arial" text-anchor="middle" font-size="20px" width="100px" fill="#323232" font-weight="700" align="middle" lineHeight="125%" anchor="middle" family="&quot;Microsoft YaHei&quot;, 微软雅黑, Arial" size="20px" weight="700" font-style="" opacity="1" y="2" transform="rotate(0)"><tspan id="SvgjsTspan1101" dy="25" x="50"><tspan id="SvgjsTspan1102" style="">HEAD</tspan></tspan></text></g></g><g id="SvgjsG1103"><path id="SvgjsPath1104" d="M212.1250000000001 893.5C 274.97500000000014 893.5 306.7750000000001 893.5 365.72500000000014 893.5" stroke="#e32222" stroke-width="3" fill="none" marker-end="url(#SvgjsMarker1105)"></path></g><g id="SvgjsG1107" transform="translate(452.3750000000001,735.8928571428571)"><path id="SvgjsPath1108" d="M 19.8 0L 40.2 0L 40.2 60L 60 60L 30 90L 0 60L 19.8 60L 19.8 0Z" stroke="rgba(0,0,0,1)" stroke-width="1.5" fill-opacity="1" fill="#000000"></path><g id="SvgjsG1109"><text id="SvgjsText1110" font-family="&quot;Microsoft YaHei&quot;, 微软雅黑, Arial" text-anchor="middle" font-size="20px" width="84px" fill="#323232" font-weight="400" align="middle" lineHeight="125%" anchor="middle" family="&quot;Microsoft YaHei&quot;, 微软雅黑, Arial" size="20px" weight="400" font-style="" opacity="1" y="22.5" transform="rotate(0)"></text></g></g><g id="SvgjsG1111" transform="translate(96.37500000000011,25)"><path id="SvgjsPath1112" d="M 0 4Q 0 0 4 0L 127 0Q 131 0 131 4L 131 111Q 131 115 127 115L 4 115Q 0 115 0 111Z" stroke="rgba(255,255,255,1)" stroke-width="1.5" fill-opacity="1" fill="#beb3af"></path><g id="SvgjsG1113"><text id="SvgjsText1114" font-family="&quot;Microsoft YaHei&quot;, 微软雅黑, Arial" text-anchor="middle" font-size="20px" width="111px" fill="#323232" font-weight="400" align="middle" lineHeight="125%" anchor="middle" family="&quot;Microsoft YaHei&quot;, 微软雅黑, Arial" size="20px" weight="400" font-style="" opacity="1" y="39.5" transform="rotate(0)"></text></g></g><g id="SvgjsG1115" transform="translate(109.37500000000011,37)"><path id="SvgjsPath1116" d="M 0 4Q 0 0 4 0L 101 0Q 105 0 105 4L 105 33Q 105 37 101 37L 4 37Q 0 37 0 33Z" stroke="rgba(33,41,48,1)" stroke-width="1.5" fill-opacity="1" fill="#000000"></path><g id="SvgjsG1117"><text id="SvgjsText1118" font-family="&quot;Microsoft YaHei&quot;, 微软雅黑, Arial" text-anchor="middle" font-size="20px" width="85px" fill="#ffffff" font-weight="400" align="middle" lineHeight="125%" anchor="middle" family="&quot;Microsoft YaHei&quot;, 微软雅黑, Arial" size="20px" weight="400" font-style="" opacity="1" y="0.5" transform="rotate(0)"><tspan id="SvgjsTspan1119" dy="25" x="52.5"><tspan id="SvgjsTspan1120" style="">sqh_first</tspan></tspan></text></g></g><g id="SvgjsG1121" transform="translate(109.37500000000011,89)"><path id="SvgjsPath1122" d="M 0 4Q 0 0 4 0L 101 0Q 105 0 105 4L 105 33Q 105 37 101 37L 4 37Q 0 37 0 33Z" stroke="rgba(33,41,48,1)" stroke-width="1.5" fill-opacity="1" fill="#000000"></path><g id="SvgjsG1123"><text id="SvgjsText1124" font-family="&quot;Microsoft YaHei&quot;, 微软雅黑, Arial" text-anchor="middle" font-size="20px" width="85px" fill="#ffffff" font-weight="400" align="middle" lineHeight="125%" anchor="middle" family="&quot;Microsoft YaHei&quot;, 微软雅黑, Arial" size="20px" weight="400" font-style="" opacity="1" y="0.5" transform="rotate(0)"><tspan id="SvgjsTspan1125" dy="25" x="52.5"><tspan id="SvgjsTspan1126" style="">sqh_last</tspan></tspan></text></g></g><g id="SvgjsG1127" transform="translate(789.3750000000001,28.5)"><path id="SvgjsPath1128" d="M 0 4Q 0 0 4 0L 92 0Q 96 0 96 4L 96 50Q 96 54 92 54L 4 54Q 0 54 0 50Z" stroke="rgba(255,255,255,1)" stroke-width="1.5" fill-opacity="1" fill="#7bd144"></path><g id="SvgjsG1129"><text id="SvgjsText1130" font-family="&quot;Microsoft YaHei&quot;, 微软雅黑, Arial" text-anchor="middle" font-size="20px" width="76px" fill="#323232" font-weight="400" align="middle" lineHeight="125%" anchor="middle" family="&quot;Microsoft YaHei&quot;, 微软雅黑, Arial" size="20px" weight="400" font-style="" opacity="1" y="9" transform="rotate(0)"><tspan id="SvgjsTspan1131" dy="25" x="48"><tspan id="SvgjsTspan1132" style="">NULL</tspan></tspan></text></g></g><g id="SvgjsG1133"><path id="SvgjsPath1134" d="M215.1250000000001 55.5C 444.3750000000001 55.50000000000007 559.3750000000001 55.5 786.6750000000001 55.5" stroke="#323232" stroke-width="1.5" fill="none" marker-end="url(#SvgjsMarker1135)"></path></g><g id="SvgjsG1137"><path id="SvgjsPath1138" d="M108.62796470548449 107.43337966715812C 0.3750000000001137 114 1.3750000000001137 49 106.68577876564905 55.74101691375385" stroke="#323232" stroke-width="1.5" fill="none" marker-end="url(#SvgjsMarker1139)"></path></g><g id="SvgjsG1141" transform="translate(460.3750000000001,130)"><path id="SvgjsPath1142" d="M 19.8 0L 40.2 0L 40.2 60L 60 60L 30 90L 0 60L 19.8 60L 19.8 0Z" stroke="rgba(0,0,0,1)" stroke-width="1.5" fill-opacity="1" fill="#000000"></path><g id="SvgjsG1143"><text id="SvgjsText1144" font-family="&quot;Microsoft YaHei&quot;, 微软雅黑, Arial" text-anchor="middle" font-size="20px" width="84px" fill="#323232" font-weight="400" align="middle" lineHeight="125%" anchor="middle" family="&quot;Microsoft YaHei&quot;, 微软雅黑, Arial" size="20px" weight="400" font-style="" opacity="1" y="22.5" transform="rotate(0)"></text></g></g><g id="SvgjsG1145" transform="translate(370.3750000000001,592)"><path id="SvgjsPath1146" d="M 0 4Q 0 0 4 0L 220 0Q 224 0 224 4L 224 114Q 224 118 220 118L 4 118Q 0 118 0 114Z" stroke="rgba(255,255,255,1)" stroke-width="1.5" fill-opacity="1" fill="#7bd144"></path><g id="SvgjsG1147"><text id="SvgjsText1148" font-family="&quot;Microsoft YaHei&quot;, 微软雅黑, Arial" text-anchor="middle" font-size="20px" width="204px" fill="#323232" font-weight="400" align="middle" lineHeight="125%" anchor="middle" family="&quot;Microsoft YaHei&quot;, 微软雅黑, Arial" size="20px" weight="400" font-style="" opacity="1" y="41" transform="rotate(0)"></text></g></g><g id="SvgjsG1149" transform="translate(477.3750000000001,602)"><path id="SvgjsPath1150" d="M 0 4Q 0 0 4 0L 101 0Q 105 0 105 4L 105 33Q 105 37 101 37L 4 37Q 0 37 0 33Z" stroke="rgba(33,41,48,1)" stroke-width="1.5" fill-opacity="1" fill="#000000"></path><g id="SvgjsG1151"><text id="SvgjsText1152" font-family="&quot;Microsoft YaHei&quot;, 微软雅黑, Arial" text-anchor="middle" font-size="20px" width="85px" fill="#ffffff" font-weight="400" align="middle" lineHeight="125%" anchor="middle" family="&quot;Microsoft YaHei&quot;, 微软雅黑, Arial" size="20px" weight="400" font-style="" opacity="1" y="0.5" transform="rotate(0)"><tspan id="SvgjsTspan1153" dy="25" x="52.5"><tspan id="SvgjsTspan1154" style="">sqe_next</tspan></tspan></text></g></g><g id="SvgjsG1155" transform="translate(93.37500000000011,528)"><path id="SvgjsPath1156" d="M 0 4Q 0 0 4 0L 127 0Q 131 0 131 4L 131 111Q 131 115 127 115L 4 115Q 0 115 0 111Z" stroke="rgba(255,255,255,1)" stroke-width="1.5" fill-opacity="1" fill="#beb3af"></path><g id="SvgjsG1157"><text id="SvgjsText1158" font-family="&quot;Microsoft YaHei&quot;, 微软雅黑, Arial" text-anchor="middle" font-size="20px" width="111px" fill="#323232" font-weight="400" align="middle" lineHeight="125%" anchor="middle" family="&quot;Microsoft YaHei&quot;, 微软雅黑, Arial" size="20px" weight="400" font-style="" opacity="1" y="39.5" transform="rotate(0)"></text></g></g><g id="SvgjsG1159" transform="translate(106.37500000000011,540)"><path id="SvgjsPath1160" d="M 0 4Q 0 0 4 0L 101 0Q 105 0 105 4L 105 33Q 105 37 101 37L 4 37Q 0 37 0 33Z" stroke="rgba(33,41,48,1)" stroke-width="1.5" fill-opacity="1" fill="#000000"></path><g id="SvgjsG1161"><text id="SvgjsText1162" font-family="&quot;Microsoft YaHei&quot;, 微软雅黑, Arial" text-anchor="middle" font-size="20px" width="85px" fill="#ffffff" font-weight="400" align="middle" lineHeight="125%" anchor="middle" family="&quot;Microsoft YaHei&quot;, 微软雅黑, Arial" size="20px" weight="400" font-style="" opacity="1" y="0.5" transform="rotate(0)"><tspan id="SvgjsTspan1163" dy="25" x="52.5"><tspan id="SvgjsTspan1164" style="">sqh_first</tspan></tspan></text></g></g><g id="SvgjsG1165" transform="translate(106.37500000000011,592)"><path id="SvgjsPath1166" d="M 0 4Q 0 0 4 0L 101 0Q 105 0 105 4L 105 33Q 105 37 101 37L 4 37Q 0 37 0 33Z" stroke="rgba(33,41,48,1)" stroke-width="1.5" fill-opacity="1" fill="#000000"></path><g id="SvgjsG1167"><text id="SvgjsText1168" font-family="&quot;Microsoft YaHei&quot;, 微软雅黑, Arial" text-anchor="middle" font-size="20px" width="85px" fill="#ffffff" font-weight="400" align="middle" lineHeight="125%" anchor="middle" family="&quot;Microsoft YaHei&quot;, 微软雅黑, Arial" size="20px" weight="400" font-style="" opacity="1" y="0.5" transform="rotate(0)"><tspan id="SvgjsTspan1169" dy="25" x="52.5"><tspan id="SvgjsTspan1170" style="">sqh_last</tspan></tspan></text></g></g><g id="SvgjsG1171" transform="translate(789.3750000000001,531.5)"><path id="SvgjsPath1172" d="M 0 4Q 0 0 4 0L 92 0Q 96 0 96 4L 96 50Q 96 54 92 54L 4 54Q 0 54 0 50Z" stroke="rgba(255,255,255,1)" stroke-width="1.5" fill-opacity="1" fill="#7bd144"></path><g id="SvgjsG1173"><text id="SvgjsText1174" font-family="&quot;Microsoft YaHei&quot;, 微软雅黑, Arial" text-anchor="middle" font-size="20px" width="76px" fill="#323232" font-weight="400" align="middle" lineHeight="125%" anchor="middle" family="&quot;Microsoft YaHei&quot;, 微软雅黑, Arial" size="20px" weight="400" font-style="" opacity="1" y="9" transform="rotate(0)"><tspan id="SvgjsTspan1175" dy="25" x="48"><tspan id="SvgjsTspan1176" style="">NULL</tspan></tspan></text></g></g><g id="SvgjsG1177"><path id="SvgjsPath1178" d="M212.1250000000001 558.5C 442.57500000000016 558.5000000000001 558.1750000000003 558.5 786.6750000000001 558.5" stroke="#323232" stroke-width="1.5" fill="none" marker-end="url(#SvgjsMarker1179)"></path></g><g id="SvgjsG1181"><path id="SvgjsPath1182" d="M583.1249958885752 620.5024833687717C 668.8092524697241 620.5 704.3750000000001 627 785.7123419947599 561.3648623591107" stroke="#e32222" stroke-width="3" fill="none" marker-end="url(#SvgjsMarker1183)"></path></g><g id="SvgjsG1185" transform="translate(111.37500000000011,485)"><path id="SvgjsPath1186" d="M 0 0L 100 0L 100 40L 0 40Z" stroke="none" fill="none"></path><g id="SvgjsG1187"><text id="SvgjsText1188" font-family="&quot;Microsoft YaHei&quot;, 微软雅黑, Arial" text-anchor="middle" font-size="20px" width="100px" fill="#323232" font-weight="700" align="middle" lineHeight="125%" anchor="middle" family="&quot;Microsoft YaHei&quot;, 微软雅黑, Arial" size="20px" weight="700" font-style="" opacity="1" y="2" transform="rotate(0)"><tspan id="SvgjsTspan1189" dy="25" x="50"><tspan id="SvgjsTspan1190" style="">HEAD</tspan></tspan></text></g></g><g id="SvgjsG1191"><path id="SvgjsPath1192" d="M212.1045886182411 945.6737827613235C 327.3750000000001 974 431.3750000000001 977 526.0154068891406 910.5934612043765" stroke="#e32222" stroke-width="3" fill="none" marker-end="url(#SvgjsMarker1193)"></path></g><g id="SvgjsG1195"><path id="SvgjsPath1196" d="M212.00726344175678 610.9034141051302C 293.3750000000001 663 391.3750000000001 723 525.8425770171818 641.3156132854256" stroke="#e32222" stroke-width="3" fill="none" marker-end="url(#SvgjsMarker1197)"></path></g><g id="SvgjsG1199" transform="translate(460.3750000000001,441.5)"><path id="SvgjsPath1200" d="M 19.8 0L 40.2 0L 40.2 60L 60 60L 30 90L 0 60L 19.8 60L 19.8 0Z" stroke="rgba(0,0,0,1)" stroke-width="1.5" fill-opacity="1" fill="#000000"></path><g id="SvgjsG1201"><text id="SvgjsText1202" font-family="&quot;Microsoft YaHei&quot;, 微软雅黑, Arial" text-anchor="middle" font-size="20px" width="84px" fill="#323232" font-weight="400" align="middle" lineHeight="125%" anchor="middle" family="&quot;Microsoft YaHei&quot;, 微软雅黑, Arial" size="20px" weight="400" font-style="" opacity="1" y="22.5" transform="rotate(0)"></text></g></g><g id="SvgjsG1203"></g></svg>