<svg id="SvgjsSvg1006" width="486.375" height="165" xmlns="http://www.w3.org/2000/svg" version="1.1" xmlns:xlink="http://www.w3.org/1999/xlink" xmlns:svgjs="http://svgjs.com/svgjs"><defs id="SvgjsDefs1007"><pattern patternUnits="userSpaceOnUse" id="pattern_mark_0" width="300" height="300"><text x="150" y="100" fill="rgba(229,229,229,0.8)" font-size="18" transform="rotate(-45, 150, 150)" style="dominant-baseline: middle; text-anchor: middle;"></text></pattern><pattern patternUnits="userSpaceOnUse" id="pattern_mark_1" width="300" height="300"><text x="150" y="200" fill="rgba(229,229,229,0.8)" font-size="18" transform="rotate(-45, 150, 150)" style="dominant-baseline: middle; text-anchor: middle;"></text></pattern><marker id="SvgjsMarker1035" markerWidth="13" markerHeight="9" refX="9.5" refY="4.5" viewBox="0 0 13 9" orient="auto" markerUnits="userSpaceOnUse" stroke-dasharray="0,0"><path id="SvgjsPath1036" d="M0,0 L13,4.5 L0,9 L0,0" fill="#323232" stroke="#323232" stroke-width="1"></path></marker><marker id="SvgjsMarker1039" markerWidth="13" markerHeight="9" refX="9.5" refY="4.5" viewBox="0 0 13 9" orient="auto" markerUnits="userSpaceOnUse" stroke-dasharray="0,0"><path id="SvgjsPath1040" d="M0,0 L13,4.5 L0,9 L0,0" fill="#323232" stroke="#323232" stroke-width="1"></path></marker></defs><rect id="svgbackgroundid" width="486.375" height="165" fill="transparent"></rect><rect id="SvgjsRect1009" width="486.375" height="165" fill="url(#pattern_mark_0)"></rect><rect id="SvgjsRect1010" width="486.375" height="165" fill="url(#pattern_mark_1)"></rect><g id="SvgjsG1011" transform="translate(93.375,25)"><path id="SvgjsPath1012" d="M 0 4Q 0 0 4 0L 127 0Q 131 0 131 4L 131 111Q 131 115 127 115L 4 115Q 0 115 0 111Z" stroke="rgba(255,255,255,1)" stroke-width="1.5" fill-opacity="1" fill="#beb3af"></path><g id="SvgjsG1013"><text id="SvgjsText1014" font-family="&quot;Microsoft YaHei&quot;, 微软雅黑, Arial" text-anchor="middle" font-size="13px" width="111px" fill="#323232" font-weight="400" align="middle" lineHeight="125%" anchor="middle" family="&quot;Microsoft YaHei&quot;, 微软雅黑, Arial" size="13px" weight="400" font-style="" opacity="1" y="46.875" transform="rotate(0)"></text></g></g><g id="SvgjsG1015" transform="translate(106.375,37)"><path id="SvgjsPath1016" d="M 0 4Q 0 0 4 0L 101 0Q 105 0 105 4L 105 33Q 105 37 101 37L 4 37Q 0 37 0 33Z" stroke="rgba(33,41,48,1)" stroke-width="1.5" fill-opacity="1" fill="#000000"></path><g id="SvgjsG1017"><text id="SvgjsText1018" font-family="&quot;Microsoft YaHei&quot;, 微软雅黑, Arial" text-anchor="middle" font-size="20px" width="85px" fill="#ffffff" font-weight="400" align="middle" lineHeight="125%" anchor="middle" family="&quot;Microsoft YaHei&quot;, 微软雅黑, Arial" size="20px" weight="400" font-style="" opacity="1" y="0.5" transform="rotate(0)"><tspan id="SvgjsTspan1019" dy="25" x="52.5"><tspan id="SvgjsTspan1020" style="">sqh_first</tspan></tspan></text></g></g><g id="SvgjsG1021" transform="translate(106.375,89)"><path id="SvgjsPath1022" d="M 0 4Q 0 0 4 0L 101 0Q 105 0 105 4L 105 33Q 105 37 101 37L 4 37Q 0 37 0 33Z" stroke="rgba(33,41,48,1)" stroke-width="1.5" fill-opacity="1" fill="#000000"></path><g id="SvgjsG1023"><text id="SvgjsText1024" font-family="&quot;Microsoft YaHei&quot;, 微软雅黑, Arial" text-anchor="middle" font-size="20px" width="85px" fill="#ffffff" font-weight="400" align="middle" lineHeight="125%" anchor="middle" family="&quot;Microsoft YaHei&quot;, 微软雅黑, Arial" size="20px" weight="400" font-style="" opacity="1" y="0.5" transform="rotate(0)"><tspan id="SvgjsTspan1025" dy="25" x="52.5"><tspan id="SvgjsTspan1026" style="">sqh_last</tspan></tspan></text></g></g><g id="SvgjsG1027" transform="translate(365.375,55.5)"><path id="SvgjsPath1028" d="M 0 4Q 0 0 4 0L 92 0Q 96 0 96 4L 96 50Q 96 54 92 54L 4 54Q 0 54 0 50Z" stroke="rgba(255,255,255,1)" stroke-width="1.5" fill-opacity="1" fill="#7bd144"></path><g id="SvgjsG1029"><text id="SvgjsText1030" font-family="&quot;Microsoft YaHei&quot;, 微软雅黑, Arial" text-anchor="middle" font-size="13px" width="76px" fill="#323232" font-weight="400" align="middle" lineHeight="125%" anchor="middle" family="&quot;Microsoft YaHei&quot;, 微软雅黑, Arial" size="13px" weight="400" font-style="" opacity="1" y="16.375" transform="rotate(0)"><tspan id="SvgjsTspan1031" dy="16.25" x="48"><tspan id="SvgjsTspan1032" style="">NULL</tspan></tspan></text></g></g><g id="SvgjsG1033"><path id="SvgjsPath1034" d="M212.12459882108737 55.52452768689372C 273.91458746266244 55.50000000000003 302.83541253733756 82.5 362.67644424408536 82.41170032718256" stroke="#323232" stroke-width="1.5" fill="none" marker-end="url(#SvgjsMarker1035)"></path></g><g id="SvgjsG1037"><path id="SvgjsPath1038" d="M105.62796470548437 107.4333796671581C -2.625 114 -1.625 49 103.68577876564893 55.74101691375384" stroke="#323232" stroke-width="1.5" fill="none" marker-end="url(#SvgjsMarker1039)"></path></g><g id="SvgjsG1041"></g></svg>