<svg id="SvgjsSvg1006" width="1039.75" height="1547.0909090909088" xmlns="http://www.w3.org/2000/svg" version="1.1" xmlns:xlink="http://www.w3.org/1999/xlink" xmlns:svgjs="http://svgjs.com/svgjs"><defs id="SvgjsDefs1007"><pattern patternUnits="userSpaceOnUse" id="pattern_mark_0" width="300" height="300"><text x="150" y="100" fill="rgba(229,229,229,0.8)" font-size="18" transform="rotate(-45, 150, 150)" style="dominant-baseline: middle; text-anchor: middle;"></text></pattern><pattern patternUnits="userSpaceOnUse" id="pattern_mark_1" width="300" height="300"><text x="150" y="200" fill="rgba(229,229,229,0.8)" font-size="18" transform="rotate(-45, 150, 150)" style="dominant-baseline: middle; text-anchor: middle;"></text></pattern><marker id="SvgjsMarker1045" markerWidth="16" markerHeight="12" refX="11" refY="6" viewBox="0 0 16 12" orient="auto" markerUnits="userSpaceOnUse" stroke-dasharray="0,0"><path id="SvgjsPath1046" d="M0,0 L16,6 L0,12 L0,0" fill="#000000" stroke="#000000" stroke-width="1"></path></marker><marker id="SvgjsMarker1055" markerWidth="16" markerHeight="12" refX="11" refY="6" viewBox="0 0 16 12" orient="auto" markerUnits="userSpaceOnUse" stroke-dasharray="0,0"><path id="SvgjsPath1056" d="M0,0 L16,6 L0,12 L0,0" fill="#000000" stroke="#000000" stroke-width="1"></path></marker><marker id="SvgjsMarker1079" markerWidth="16" markerHeight="12" refX="11" refY="6" viewBox="0 0 16 12" orient="auto" markerUnits="userSpaceOnUse" stroke-dasharray="0,0"><path id="SvgjsPath1080" d="M0,0 L16,6 L0,12 L0,0" fill="#323232" stroke="#323232" stroke-width="1"></path></marker><marker id="SvgjsMarker1115" markerWidth="16" markerHeight="12" refX="11" refY="6" viewBox="0 0 16 12" orient="auto" markerUnits="userSpaceOnUse" stroke-dasharray="0,0"><path id="SvgjsPath1116" d="M0,0 L16,6 L0,12 L0,0" fill="#000000" stroke="#000000" stroke-width="1"></path></marker><marker id="SvgjsMarker1125" markerWidth="16" markerHeight="12" refX="11" refY="6" viewBox="0 0 16 12" orient="auto" markerUnits="userSpaceOnUse" stroke-dasharray="0,0"><path id="SvgjsPath1126" d="M0,0 L16,6 L0,12 L0,0" fill="#000000" stroke="#000000" stroke-width="1"></path></marker><marker id="SvgjsMarker1145" markerWidth="16" markerHeight="12" refX="11" refY="6" viewBox="0 0 16 12" orient="auto" markerUnits="userSpaceOnUse" stroke-dasharray="0,0"><path id="SvgjsPath1146" d="M0,0 L16,6 L0,12 L0,0" fill="#323232" stroke="#323232" stroke-width="1"></path></marker><marker id="SvgjsMarker1149" markerWidth="16" markerHeight="12" refX="11" refY="6" viewBox="0 0 16 12" orient="auto" markerUnits="userSpaceOnUse" stroke-dasharray="0,0"><path id="SvgjsPath1150" d="M0,0 L16,6 L0,12 L0,0" fill="#e32222" stroke="#e32222" stroke-width="1"></path></marker><marker id="SvgjsMarker1185" markerWidth="16" markerHeight="12" refX="11" refY="6" viewBox="0 0 16 12" orient="auto" markerUnits="userSpaceOnUse" stroke-dasharray="0,0"><path id="SvgjsPath1186" d="M0,0 L16,6 L0,12 L0,0" fill="#000000" stroke="#000000" stroke-width="1"></path></marker><marker id="SvgjsMarker1211" markerWidth="16" markerHeight="12" refX="11" refY="6" viewBox="0 0 16 12" orient="auto" markerUnits="userSpaceOnUse" stroke-dasharray="0,0"><path id="SvgjsPath1212" d="M0,0 L16,6 L0,12 L0,0" fill="#323232" stroke="#323232" stroke-width="1"></path></marker><marker id="SvgjsMarker1215" markerWidth="16" markerHeight="12" refX="11" refY="6" viewBox="0 0 16 12" orient="auto" markerUnits="userSpaceOnUse" stroke-dasharray="0,0"><path id="SvgjsPath1216" d="M0,0 L16,6 L0,12 L0,0" fill="#e32222" stroke="#e32222" stroke-width="1"></path></marker><marker id="SvgjsMarker1219" markerWidth="16" markerHeight="12" refX="11" refY="6" viewBox="0 0 16 12" orient="auto" markerUnits="userSpaceOnUse" stroke-dasharray="0,0"><path id="SvgjsPath1220" d="M0,0 L16,6 L0,12 L0,0" fill="#e32222" stroke="#e32222" stroke-width="1"></path></marker><marker id="SvgjsMarker1255" markerWidth="16" markerHeight="12" refX="11" refY="6" viewBox="0 0 16 12" orient="auto" markerUnits="userSpaceOnUse" stroke-dasharray="0,0"><path id="SvgjsPath1256" d="M0,0 L16,6 L0,12 L0,0" fill="#000000" stroke="#000000" stroke-width="1"></path></marker><marker id="SvgjsMarker1281" markerWidth="16" markerHeight="12" refX="11" refY="6" viewBox="0 0 16 12" orient="auto" markerUnits="userSpaceOnUse" stroke-dasharray="0,0"><path id="SvgjsPath1282" d="M0,0 L16,6 L0,12 L0,0" fill="#e32222" stroke="#e32222" stroke-width="1"></path></marker><marker id="SvgjsMarker1285" markerWidth="16" markerHeight="12" refX="11" refY="6" viewBox="0 0 16 12" orient="auto" markerUnits="userSpaceOnUse" stroke-dasharray="0,0"><path id="SvgjsPath1286" d="M0,0 L16,6 L0,12 L0,0" fill="#e32222" stroke="#e32222" stroke-width="1"></path></marker><marker id="SvgjsMarker1289" markerWidth="16" markerHeight="12" refX="11" refY="6" viewBox="0 0 16 12" orient="auto" markerUnits="userSpaceOnUse" stroke-dasharray="0,0"><path id="SvgjsPath1290" d="M0,0 L16,6 L0,12 L0,0" fill="#323232" stroke="#323232" stroke-width="1"></path></marker></defs><rect id="svgbackgroundid" width="1039.75" height="1547.0909090909088" fill="transparent"></rect><rect id="SvgjsRect1009" width="1039.75" height="1547.0909090909088" fill="url(#pattern_mark_0)"></rect><rect id="SvgjsRect1010" width="1039.75" height="1547.0909090909088" fill="url(#pattern_mark_1)"></rect><g id="SvgjsG1011" transform="translate(499.75,237)"><path id="SvgjsPath1012" d="M 0 4Q 0 0 4 0L 220 0Q 224 0 224 4L 224 114Q 224 118 220 118L 4 118Q 0 118 0 114Z" stroke="rgba(255,255,255,1)" stroke-width="1.5" fill-opacity="1" fill="#7bd144"></path><g id="SvgjsG1013"><text id="SvgjsText1014" font-family="&quot;Microsoft YaHei&quot;, 微软雅黑, Arial" text-anchor="middle" font-size="20px" width="204px" fill="#323232" font-weight="400" align="middle" lineHeight="125%" anchor="middle" family="&quot;Microsoft YaHei&quot;, 微软雅黑, Arial" size="20px" weight="400" font-style="" opacity="1" y="41" transform="rotate(0)"></text></g></g><g id="SvgjsG1015" transform="translate(606.75,246.5)"><path id="SvgjsPath1016" d="M 0 4Q 0 0 4 0L 101 0Q 105 0 105 4L 105 33Q 105 37 101 37L 4 37Q 0 37 0 33Z" stroke="rgba(33,41,48,1)" stroke-width="1.5" fill-opacity="1" fill="#000000"></path><g id="SvgjsG1017"><text id="SvgjsText1018" font-family="&quot;Microsoft YaHei&quot;, 微软雅黑, Arial" text-anchor="middle" font-size="20px" width="85px" fill="#ffffff" font-weight="400" align="middle" lineHeight="125%" anchor="middle" family="&quot;Microsoft YaHei&quot;, 微软雅黑, Arial" size="20px" weight="400" font-style="" opacity="1" y="0.5" transform="rotate(0)"><tspan id="SvgjsTspan1019" dy="25" x="52.5"><tspan id="SvgjsTspan1020" style="">sqe_next</tspan></tspan></text></g></g><g id="SvgjsG1021" transform="translate(311.5,68)"><path id="SvgjsPath1022" d="M 0 4Q 0 0 4 0L 127 0Q 131 0 131 4L 131 111Q 131 115 127 115L 4 115Q 0 115 0 111Z" stroke="rgba(255,255,255,1)" stroke-width="1.5" fill-opacity="1" fill="#beb3af"></path><g id="SvgjsG1023"><text id="SvgjsText1024" font-family="&quot;Microsoft YaHei&quot;, 微软雅黑, Arial" text-anchor="middle" font-size="20px" width="111px" fill="#323232" font-weight="400" align="middle" lineHeight="125%" anchor="middle" family="&quot;Microsoft YaHei&quot;, 微软雅黑, Arial" size="20px" weight="400" font-style="" opacity="1" y="39.5" transform="rotate(0)"></text></g></g><g id="SvgjsG1025" transform="translate(324.5,80)"><path id="SvgjsPath1026" d="M 0 4Q 0 0 4 0L 101 0Q 105 0 105 4L 105 33Q 105 37 101 37L 4 37Q 0 37 0 33Z" stroke="rgba(33,41,48,1)" stroke-width="1.5" fill-opacity="1" fill="#000000"></path><g id="SvgjsG1027"><text id="SvgjsText1028" font-family="&quot;Microsoft YaHei&quot;, 微软雅黑, Arial" text-anchor="middle" font-size="20px" width="85px" fill="#ffffff" font-weight="400" align="middle" lineHeight="125%" anchor="middle" family="&quot;Microsoft YaHei&quot;, 微软雅黑, Arial" size="20px" weight="400" font-style="" opacity="1" y="0.5" transform="rotate(0)"><tspan id="SvgjsTspan1029" dy="25" x="52.5"><tspan id="SvgjsTspan1030" style="">sqh_first</tspan></tspan></text></g></g><g id="SvgjsG1031" transform="translate(324.5,132)"><path id="SvgjsPath1032" d="M 0 4Q 0 0 4 0L 101 0Q 105 0 105 4L 105 33Q 105 37 101 37L 4 37Q 0 37 0 33Z" stroke="rgba(33,41,48,1)" stroke-width="1.5" fill-opacity="1" fill="#000000"></path><g id="SvgjsG1033"><text id="SvgjsText1034" font-family="&quot;Microsoft YaHei&quot;, 微软雅黑, Arial" text-anchor="middle" font-size="20px" width="85px" fill="#ffffff" font-weight="400" align="middle" lineHeight="125%" anchor="middle" family="&quot;Microsoft YaHei&quot;, 微软雅黑, Arial" size="20px" weight="400" font-style="" opacity="1" y="0.5" transform="rotate(0)"><tspan id="SvgjsTspan1035" dy="25" x="52.5"><tspan id="SvgjsTspan1036" style="">sqh_last</tspan></tspan></text></g></g><g id="SvgjsG1037" transform="translate(918.75,238.5)"><path id="SvgjsPath1038" d="M 0 4Q 0 0 4 0L 92 0Q 96 0 96 4L 96 50Q 96 54 92 54L 4 54Q 0 54 0 50Z" stroke="rgba(255,255,255,1)" stroke-width="1.5" fill-opacity="1" fill="#7bd144"></path><g id="SvgjsG1039"><text id="SvgjsText1040" font-family="&quot;Microsoft YaHei&quot;, 微软雅黑, Arial" text-anchor="middle" font-size="20px" width="76px" fill="#323232" font-weight="400" align="middle" lineHeight="125%" anchor="middle" family="&quot;Microsoft YaHei&quot;, 微软雅黑, Arial" size="20px" weight="400" font-style="" opacity="1" y="9" transform="rotate(0)"><tspan id="SvgjsTspan1041" dy="25" x="48"><tspan id="SvgjsTspan1042" style="">NULL</tspan></tspan></text></g></g><g id="SvgjsG1043"><path id="SvgjsPath1044" d="M712.5 265L815.25 265L815.25 265.5L914.0999999999999 265.5" stroke="#000000" stroke-width="3" fill="none" marker-end="url(#SvgjsMarker1045)"></path></g><g id="SvgjsG1047" transform="translate(329.5,25)"><path id="SvgjsPath1048" d="M 0 0L 100 0L 100 40L 0 40Z" stroke="none" fill="none"></path><g id="SvgjsG1049"><text id="SvgjsText1050" font-family="&quot;Microsoft YaHei&quot;, 微软雅黑, Arial" text-anchor="middle" font-size="20px" width="100px" fill="#323232" font-weight="700" align="middle" lineHeight="125%" anchor="middle" family="&quot;Microsoft YaHei&quot;, 微软雅黑, Arial" size="20px" weight="700" font-style="" opacity="1" y="2" transform="rotate(0)"><tspan id="SvgjsTspan1051" dy="25" x="50"><tspan id="SvgjsTspan1052" style="">HEAD</tspan></tspan></text></g></g><g id="SvgjsG1053"><path id="SvgjsPath1054" d="M430.24972901852243 98.52015933495036C 521.0618370283164 98.50000000000003 611.75 145.43816297168343 611.506841286001 232.3563620037942" stroke="#000000" stroke-width="3" fill="none" marker-end="url(#SvgjsMarker1055)"></path></g><g id="SvgjsG1057" transform="translate(25,237)"><path id="SvgjsPath1058" d="M 0 4Q 0 0 4 0L 220 0Q 224 0 224 4L 224 114Q 224 118 220 118L 4 118Q 0 118 0 114Z" stroke="rgba(255,255,255,1)" stroke-width="1.5" fill-opacity="1" fill="#f1ac6a"></path><g id="SvgjsG1059"><text id="SvgjsText1060" font-family="&quot;Microsoft YaHei&quot;, 微软雅黑, Arial" text-anchor="middle" font-size="20px" width="204px" fill="#323232" font-weight="400" align="middle" lineHeight="125%" anchor="middle" family="&quot;Microsoft YaHei&quot;, 微软雅黑, Arial" size="20px" weight="400" font-style="" opacity="1" y="41" transform="rotate(0)"></text></g></g><g id="SvgjsG1061" transform="translate(132,247)"><path id="SvgjsPath1062" d="M 0 4Q 0 0 4 0L 101 0Q 105 0 105 4L 105 33Q 105 37 101 37L 4 37Q 0 37 0 33Z" stroke="rgba(33,41,48,1)" stroke-width="1.5" fill-opacity="1" fill="#000000"></path><g id="SvgjsG1063"><text id="SvgjsText1064" font-family="&quot;Microsoft YaHei&quot;, 微软雅黑, Arial" text-anchor="middle" font-size="20px" width="85px" fill="#ffffff" font-weight="400" align="middle" lineHeight="125%" anchor="middle" family="&quot;Microsoft YaHei&quot;, 微软雅黑, Arial" size="20px" weight="400" font-style="" opacity="1" y="0.5" transform="rotate(0)"><tspan id="SvgjsTspan1065" dy="25" x="52.5"><tspan id="SvgjsTspan1066" style="">sqe_next</tspan></tspan></text></g></g><g id="SvgjsG1067" transform="translate(25,186)"><path id="SvgjsPath1068" d="M 0 0L 66 0L 66 40L 0 40Z" stroke="none" fill="none"></path><g id="SvgjsG1069"><text id="SvgjsText1070" font-family="&quot;Microsoft YaHei&quot;, 微软雅黑, Arial" text-anchor="middle" font-size="20px" width="66px" fill="#323232" font-weight="400" align="middle" lineHeight="125%" anchor="middle" family="&quot;Microsoft YaHei&quot;, 微软雅黑, Arial" size="20px" weight="400" font-style="" opacity="1" y="2" transform="rotate(0)"><tspan id="SvgjsTspan1071" dy="25" x="33"><tspan id="SvgjsTspan1072" style="">elm</tspan></tspan></text></g></g><g id="SvgjsG1073" transform="matrix(-1.8369701987210297e-16,-1,1,-1.8369701987210297e-16,308.25,308.75)"><path id="SvgjsPath1074" d="M 10.808 0L 21.943 0L 21.943 73.625L 32.75 73.625L 16.375 90L 0 73.625L 10.808 73.625L 10.808 0Z" stroke="rgba(227,34,34,1)" stroke-width="1.5" fill-opacity="1" fill="#e32222"></path><g id="SvgjsG1075"><text id="SvgjsText1076" font-family="&quot;Microsoft YaHei&quot;, 微软雅黑, Arial" text-anchor="middle" font-size="20px" width="46px" fill="#323232" font-weight="400" align="middle" lineHeight="125%" anchor="middle" family="&quot;Microsoft YaHei&quot;, 微软雅黑, Arial" size="20px" weight="400" font-style="" opacity="1" y="22.5" transform="rotate(0)"></text></g></g><g id="SvgjsG1077"><path id="SvgjsPath1078" d="M377.04858259804814 169.7484248333446C 377 268.6000502007906 507.1499497992095 265 602.1000018816162 265.00418318370305" stroke="#323232" stroke-width="3" fill="none" marker-end="url(#SvgjsMarker1079)"></path></g><g id="SvgjsG1081" transform="translate(499.75,638.4285714285714)"><path id="SvgjsPath1082" d="M 0 4Q 0 0 4 0L 220 0Q 224 0 224 4L 224 114Q 224 118 220 118L 4 118Q 0 118 0 114Z" stroke="rgba(255,255,255,1)" stroke-width="1.5" fill-opacity="1" fill="#7bd144"></path><g id="SvgjsG1083"><text id="SvgjsText1084" font-family="&quot;Microsoft YaHei&quot;, 微软雅黑, Arial" text-anchor="middle" font-size="20px" width="204px" fill="#323232" font-weight="400" align="middle" lineHeight="125%" anchor="middle" family="&quot;Microsoft YaHei&quot;, 微软雅黑, Arial" size="20px" weight="400" font-style="" opacity="1" y="41" transform="rotate(0)"></text></g></g><g id="SvgjsG1085" transform="translate(606.75,647.9285714285714)"><path id="SvgjsPath1086" d="M 0 4Q 0 0 4 0L 101 0Q 105 0 105 4L 105 33Q 105 37 101 37L 4 37Q 0 37 0 33Z" stroke="rgba(33,41,48,1)" stroke-width="1.5" fill-opacity="1" fill="#000000"></path><g id="SvgjsG1087"><text id="SvgjsText1088" font-family="&quot;Microsoft YaHei&quot;, 微软雅黑, Arial" text-anchor="middle" font-size="20px" width="85px" fill="#ffffff" font-weight="400" align="middle" lineHeight="125%" anchor="middle" family="&quot;Microsoft YaHei&quot;, 微软雅黑, Arial" size="20px" weight="400" font-style="" opacity="1" y="0.5" transform="rotate(0)"><tspan id="SvgjsTspan1089" dy="25" x="52.5"><tspan id="SvgjsTspan1090" style="">sqe_next</tspan></tspan></text></g></g><g id="SvgjsG1091" transform="translate(311.5,469.42857142857144)"><path id="SvgjsPath1092" d="M 0 4Q 0 0 4 0L 127 0Q 131 0 131 4L 131 111Q 131 115 127 115L 4 115Q 0 115 0 111Z" stroke="rgba(255,255,255,1)" stroke-width="1.5" fill-opacity="1" fill="#beb3af"></path><g id="SvgjsG1093"><text id="SvgjsText1094" font-family="&quot;Microsoft YaHei&quot;, 微软雅黑, Arial" text-anchor="middle" font-size="20px" width="111px" fill="#323232" font-weight="400" align="middle" lineHeight="125%" anchor="middle" family="&quot;Microsoft YaHei&quot;, 微软雅黑, Arial" size="20px" weight="400" font-style="" opacity="1" y="39.5" transform="rotate(0)"></text></g></g><g id="SvgjsG1095" transform="translate(324.5,481.42857142857144)"><path id="SvgjsPath1096" d="M 0 4Q 0 0 4 0L 101 0Q 105 0 105 4L 105 33Q 105 37 101 37L 4 37Q 0 37 0 33Z" stroke="rgba(33,41,48,1)" stroke-width="1.5" fill-opacity="1" fill="#000000"></path><g id="SvgjsG1097"><text id="SvgjsText1098" font-family="&quot;Microsoft YaHei&quot;, 微软雅黑, Arial" text-anchor="middle" font-size="20px" width="85px" fill="#ffffff" font-weight="400" align="middle" lineHeight="125%" anchor="middle" family="&quot;Microsoft YaHei&quot;, 微软雅黑, Arial" size="20px" weight="400" font-style="" opacity="1" y="0.5" transform="rotate(0)"><tspan id="SvgjsTspan1099" dy="25" x="52.5"><tspan id="SvgjsTspan1100" style="">sqh_first</tspan></tspan></text></g></g><g id="SvgjsG1101" transform="translate(324.5,533.4285714285714)"><path id="SvgjsPath1102" d="M 0 4Q 0 0 4 0L 101 0Q 105 0 105 4L 105 33Q 105 37 101 37L 4 37Q 0 37 0 33Z" stroke="rgba(33,41,48,1)" stroke-width="1.5" fill-opacity="1" fill="#000000"></path><g id="SvgjsG1103"><text id="SvgjsText1104" font-family="&quot;Microsoft YaHei&quot;, 微软雅黑, Arial" text-anchor="middle" font-size="20px" width="85px" fill="#ffffff" font-weight="400" align="middle" lineHeight="125%" anchor="middle" family="&quot;Microsoft YaHei&quot;, 微软雅黑, Arial" size="20px" weight="400" font-style="" opacity="1" y="0.5" transform="rotate(0)"><tspan id="SvgjsTspan1105" dy="25" x="52.5"><tspan id="SvgjsTspan1106" style="">sqh_last</tspan></tspan></text></g></g><g id="SvgjsG1107" transform="translate(918.75,639.4285714285714)"><path id="SvgjsPath1108" d="M 0 4Q 0 0 4 0L 92 0Q 96 0 96 4L 96 50Q 96 54 92 54L 4 54Q 0 54 0 50Z" stroke="rgba(255,255,255,1)" stroke-width="1.5" fill-opacity="1" fill="#7bd144"></path><g id="SvgjsG1109"><text id="SvgjsText1110" font-family="&quot;Microsoft YaHei&quot;, 微软雅黑, Arial" text-anchor="middle" font-size="20px" width="76px" fill="#323232" font-weight="400" align="middle" lineHeight="125%" anchor="middle" family="&quot;Microsoft YaHei&quot;, 微软雅黑, Arial" size="20px" weight="400" font-style="" opacity="1" y="9" transform="rotate(0)"><tspan id="SvgjsTspan1111" dy="25" x="48"><tspan id="SvgjsTspan1112" style="">NULL</tspan></tspan></text></g></g><g id="SvgjsG1113"><path id="SvgjsPath1114" d="M712.5 666.4285714285714L815.25 666.4285714285714L815.25 666.4285714285714L914.0999999999999 666.4285714285714" stroke="#000000" stroke-width="3" fill="none" marker-end="url(#SvgjsMarker1115)"></path></g><g id="SvgjsG1117" transform="translate(329.5,426.42857142857144)"><path id="SvgjsPath1118" d="M 0 0L 100 0L 100 40L 0 40Z" stroke="none" fill="none"></path><g id="SvgjsG1119"><text id="SvgjsText1120" font-family="&quot;Microsoft YaHei&quot;, 微软雅黑, Arial" text-anchor="middle" font-size="20px" width="100px" fill="#323232" font-weight="700" align="middle" lineHeight="125%" anchor="middle" family="&quot;Microsoft YaHei&quot;, 微软雅黑, Arial" size="20px" weight="700" font-style="" opacity="1" y="2" transform="rotate(0)"><tspan id="SvgjsTspan1121" dy="25" x="50"><tspan id="SvgjsTspan1122" style="">HEAD</tspan></tspan></text></g></g><g id="SvgjsG1123"><path id="SvgjsPath1124" d="M430.24972901852243 499.9487307635218C 521.0618370283164 499.92857142857144 611.75 546.8667344002548 611.506841286001 633.7849334323656" stroke="#000000" stroke-width="3" fill="none" marker-end="url(#SvgjsMarker1125)"></path></g><g id="SvgjsG1127" transform="translate(25,638.4285714285714)"><path id="SvgjsPath1128" d="M 0 4Q 0 0 4 0L 220 0Q 224 0 224 4L 224 114Q 224 118 220 118L 4 118Q 0 118 0 114Z" stroke="rgba(255,255,255,1)" stroke-width="1.5" fill-opacity="1" fill="#f1ac6a"></path><g id="SvgjsG1129"><text id="SvgjsText1130" font-family="&quot;Microsoft YaHei&quot;, 微软雅黑, Arial" text-anchor="middle" font-size="20px" width="204px" fill="#323232" font-weight="400" align="middle" lineHeight="125%" anchor="middle" family="&quot;Microsoft YaHei&quot;, 微软雅黑, Arial" size="20px" weight="400" font-style="" opacity="1" y="41" transform="rotate(0)"></text></g></g><g id="SvgjsG1131" transform="translate(132,648.4285714285714)"><path id="SvgjsPath1132" d="M 0 4Q 0 0 4 0L 101 0Q 105 0 105 4L 105 33Q 105 37 101 37L 4 37Q 0 37 0 33Z" stroke="rgba(33,41,48,1)" stroke-width="1.5" fill-opacity="1" fill="#000000"></path><g id="SvgjsG1133"><text id="SvgjsText1134" font-family="&quot;Microsoft YaHei&quot;, 微软雅黑, Arial" text-anchor="middle" font-size="20px" width="85px" fill="#ffffff" font-weight="400" align="middle" lineHeight="125%" anchor="middle" family="&quot;Microsoft YaHei&quot;, 微软雅黑, Arial" size="20px" weight="400" font-style="" opacity="1" y="0.5" transform="rotate(0)"><tspan id="SvgjsTspan1135" dy="25" x="52.5"><tspan id="SvgjsTspan1136" style="">sqe_next</tspan></tspan></text></g></g><g id="SvgjsG1137" transform="translate(25,587.4285714285714)"><path id="SvgjsPath1138" d="M 0 0L 66 0L 66 40L 0 40Z" stroke="none" fill="none"></path><g id="SvgjsG1139"><text id="SvgjsText1140" font-family="&quot;Microsoft YaHei&quot;, 微软雅黑, Arial" text-anchor="middle" font-size="20px" width="66px" fill="#323232" font-weight="400" align="middle" lineHeight="125%" anchor="middle" family="&quot;Microsoft YaHei&quot;, 微软雅黑, Arial" size="20px" weight="400" font-style="" opacity="1" y="2" transform="rotate(0)"><tspan id="SvgjsTspan1141" dy="25" x="33"><tspan id="SvgjsTspan1142" style="">elm</tspan></tspan></text></g></g><g id="SvgjsG1143"><path id="SvgjsPath1144" d="M377.04858259804814 571.1769962619161C 377 670.028621629362 507.1499497992095 666.4285714285714 602.1000018816162 666.4327546122745" stroke="#323232" stroke-width="3" fill="none" marker-end="url(#SvgjsMarker1145)"></path></g><g id="SvgjsG1147"><path id="SvgjsPath1148" d="M237.74993685800337 666.9383032838869C 342.8057181819586 666.9285714285714 393.9442818180414 697.4285714285714 495.1003914803787 697.368233925616" stroke="#e32222" stroke-width="3" fill="none" marker-end="url(#SvgjsMarker1149)"></path></g><g id="SvgjsG1151" transform="translate(499.75,1013)"><path id="SvgjsPath1152" d="M 0 4Q 0 0 4 0L 220 0Q 224 0 224 4L 224 114Q 224 118 220 118L 4 118Q 0 118 0 114Z" stroke="rgba(255,255,255,1)" stroke-width="1.5" fill-opacity="1" fill="#7bd144"></path><g id="SvgjsG1153"><text id="SvgjsText1154" font-family="&quot;Microsoft YaHei&quot;, 微软雅黑, Arial" text-anchor="middle" font-size="20px" width="204px" fill="#323232" font-weight="400" align="middle" lineHeight="125%" anchor="middle" family="&quot;Microsoft YaHei&quot;, 微软雅黑, Arial" size="20px" weight="400" font-style="" opacity="1" y="41" transform="rotate(0)"></text></g></g><g id="SvgjsG1155" transform="translate(606.75,1022.5)"><path id="SvgjsPath1156" d="M 0 4Q 0 0 4 0L 101 0Q 105 0 105 4L 105 33Q 105 37 101 37L 4 37Q 0 37 0 33Z" stroke="rgba(33,41,48,1)" stroke-width="1.5" fill-opacity="1" fill="#000000"></path><g id="SvgjsG1157"><text id="SvgjsText1158" font-family="&quot;Microsoft YaHei&quot;, 微软雅黑, Arial" text-anchor="middle" font-size="20px" width="85px" fill="#ffffff" font-weight="400" align="middle" lineHeight="125%" anchor="middle" family="&quot;Microsoft YaHei&quot;, 微软雅黑, Arial" size="20px" weight="400" font-style="" opacity="1" y="0.5" transform="rotate(0)"><tspan id="SvgjsTspan1159" dy="25" x="52.5"><tspan id="SvgjsTspan1160" style="">sqe_next</tspan></tspan></text></g></g><g id="SvgjsG1161" transform="translate(311.5,844)"><path id="SvgjsPath1162" d="M 0 4Q 0 0 4 0L 127 0Q 131 0 131 4L 131 111Q 131 115 127 115L 4 115Q 0 115 0 111Z" stroke="rgba(255,255,255,1)" stroke-width="1.5" fill-opacity="1" fill="#beb3af"></path><g id="SvgjsG1163"><text id="SvgjsText1164" font-family="&quot;Microsoft YaHei&quot;, 微软雅黑, Arial" text-anchor="middle" font-size="20px" width="111px" fill="#323232" font-weight="400" align="middle" lineHeight="125%" anchor="middle" family="&quot;Microsoft YaHei&quot;, 微软雅黑, Arial" size="20px" weight="400" font-style="" opacity="1" y="39.5" transform="rotate(0)"></text></g></g><g id="SvgjsG1165" transform="translate(324.5,856)"><path id="SvgjsPath1166" d="M 0 4Q 0 0 4 0L 101 0Q 105 0 105 4L 105 33Q 105 37 101 37L 4 37Q 0 37 0 33Z" stroke="rgba(33,41,48,1)" stroke-width="1.5" fill-opacity="1" fill="#000000"></path><g id="SvgjsG1167"><text id="SvgjsText1168" font-family="&quot;Microsoft YaHei&quot;, 微软雅黑, Arial" text-anchor="middle" font-size="20px" width="85px" fill="#ffffff" font-weight="400" align="middle" lineHeight="125%" anchor="middle" family="&quot;Microsoft YaHei&quot;, 微软雅黑, Arial" size="20px" weight="400" font-style="" opacity="1" y="0.5" transform="rotate(0)"><tspan id="SvgjsTspan1169" dy="25" x="52.5"><tspan id="SvgjsTspan1170" style="">sqh_first</tspan></tspan></text></g></g><g id="SvgjsG1171" transform="translate(324.5,908)"><path id="SvgjsPath1172" d="M 0 4Q 0 0 4 0L 101 0Q 105 0 105 4L 105 33Q 105 37 101 37L 4 37Q 0 37 0 33Z" stroke="rgba(33,41,48,1)" stroke-width="1.5" fill-opacity="1" fill="#000000"></path><g id="SvgjsG1173"><text id="SvgjsText1174" font-family="&quot;Microsoft YaHei&quot;, 微软雅黑, Arial" text-anchor="middle" font-size="20px" width="85px" fill="#ffffff" font-weight="400" align="middle" lineHeight="125%" anchor="middle" family="&quot;Microsoft YaHei&quot;, 微软雅黑, Arial" size="20px" weight="400" font-style="" opacity="1" y="0.5" transform="rotate(0)"><tspan id="SvgjsTspan1175" dy="25" x="52.5"><tspan id="SvgjsTspan1176" style="">sqh_last</tspan></tspan></text></g></g><g id="SvgjsG1177" transform="translate(918.75,1013)"><path id="SvgjsPath1178" d="M 0 4Q 0 0 4 0L 92 0Q 96 0 96 4L 96 50Q 96 54 92 54L 4 54Q 0 54 0 50Z" stroke="rgba(255,255,255,1)" stroke-width="1.5" fill-opacity="1" fill="#7bd144"></path><g id="SvgjsG1179"><text id="SvgjsText1180" font-family="&quot;Microsoft YaHei&quot;, 微软雅黑, Arial" text-anchor="middle" font-size="20px" width="76px" fill="#323232" font-weight="400" align="middle" lineHeight="125%" anchor="middle" family="&quot;Microsoft YaHei&quot;, 微软雅黑, Arial" size="20px" weight="400" font-style="" opacity="1" y="9" transform="rotate(0)"><tspan id="SvgjsTspan1181" dy="25" x="48"><tspan id="SvgjsTspan1182" style="">NULL</tspan></tspan></text></g></g><g id="SvgjsG1183"><path id="SvgjsPath1184" d="M712.4999998202429 1040.9994807354656C 794.5509661779379 1041 835.9490338220621 1040 914.1000011144943 1040.003219440113" stroke="#000000" stroke-width="3" fill="none" marker-end="url(#SvgjsMarker1185)"></path></g><g id="SvgjsG1187" transform="translate(329.5,801)"><path id="SvgjsPath1188" d="M 0 0L 100 0L 100 40L 0 40Z" stroke="none" fill="none"></path><g id="SvgjsG1189"><text id="SvgjsText1190" font-family="&quot;Microsoft YaHei&quot;, 微软雅黑, Arial" text-anchor="middle" font-size="20px" width="100px" fill="#323232" font-weight="700" align="middle" lineHeight="125%" anchor="middle" family="&quot;Microsoft YaHei&quot;, 微软雅黑, Arial" size="20px" weight="700" font-style="" opacity="1" y="2" transform="rotate(0)"><tspan id="SvgjsTspan1191" dy="25" x="50"><tspan id="SvgjsTspan1192" style="">HEAD</tspan></tspan></text></g></g><g id="SvgjsG1193" transform="translate(25,1013)"><path id="SvgjsPath1194" d="M 0 4Q 0 0 4 0L 220 0Q 224 0 224 4L 224 114Q 224 118 220 118L 4 118Q 0 118 0 114Z" stroke="rgba(255,255,255,1)" stroke-width="1.5" fill-opacity="1" fill="#f1ac6a"></path><g id="SvgjsG1195"><text id="SvgjsText1196" font-family="&quot;Microsoft YaHei&quot;, 微软雅黑, Arial" text-anchor="middle" font-size="20px" width="204px" fill="#323232" font-weight="400" align="middle" lineHeight="125%" anchor="middle" family="&quot;Microsoft YaHei&quot;, 微软雅黑, Arial" size="20px" weight="400" font-style="" opacity="1" y="41" transform="rotate(0)"></text></g></g><g id="SvgjsG1197" transform="translate(132,1023)"><path id="SvgjsPath1198" d="M 0 4Q 0 0 4 0L 101 0Q 105 0 105 4L 105 33Q 105 37 101 37L 4 37Q 0 37 0 33Z" stroke="rgba(33,41,48,1)" stroke-width="1.5" fill-opacity="1" fill="#000000"></path><g id="SvgjsG1199"><text id="SvgjsText1200" font-family="&quot;Microsoft YaHei&quot;, 微软雅黑, Arial" text-anchor="middle" font-size="20px" width="85px" fill="#ffffff" font-weight="400" align="middle" lineHeight="125%" anchor="middle" family="&quot;Microsoft YaHei&quot;, 微软雅黑, Arial" size="20px" weight="400" font-style="" opacity="1" y="0.5" transform="rotate(0)"><tspan id="SvgjsTspan1201" dy="25" x="52.5"><tspan id="SvgjsTspan1202" style="">sqe_next</tspan></tspan></text></g></g><g id="SvgjsG1203" transform="translate(25,962)"><path id="SvgjsPath1204" d="M 0 0L 66 0L 66 40L 0 40Z" stroke="none" fill="none"></path><g id="SvgjsG1205"><text id="SvgjsText1206" font-family="&quot;Microsoft YaHei&quot;, 微软雅黑, Arial" text-anchor="middle" font-size="20px" width="66px" fill="#323232" font-weight="400" align="middle" lineHeight="125%" anchor="middle" family="&quot;Microsoft YaHei&quot;, 微软雅黑, Arial" size="20px" weight="400" font-style="" opacity="1" y="2" transform="rotate(0)"><tspan id="SvgjsTspan1207" dy="25" x="33"><tspan id="SvgjsTspan1208" style="">elm</tspan></tspan></text></g></g><g id="SvgjsG1209"><path id="SvgjsPath1210" d="M377.04858259804814 945.7484248333446C 377 1044.6000502007905 507.1499497992095 1041 602.1000018816162 1041.004183183703" stroke="#323232" stroke-width="3" fill="none" marker-end="url(#SvgjsMarker1211)"></path></g><g id="SvgjsG1213"><path id="SvgjsPath1214" d="M237.74993685800337 1041.5097318553153C 342.8057181819586 1041.5 393.9442818180414 1072 495.1003914803787 1071.9396624970445" stroke="#e32222" stroke-width="3" fill="none" marker-end="url(#SvgjsMarker1215)"></path></g><g id="SvgjsG1217"><path id="SvgjsPath1218" d="M323.7502346557335 874.5187597584526C 231.257520410491 874.5 137 919.757520410491 137.24391285518868 1008.3564015549282" stroke="#e32222" stroke-width="3" fill="none" marker-end="url(#SvgjsMarker1219)"></path></g><g id="SvgjsG1221" transform="translate(499.75,1404.0909090909088)"><path id="SvgjsPath1222" d="M 0 4Q 0 0 4 0L 220 0Q 224 0 224 4L 224 114Q 224 118 220 118L 4 118Q 0 118 0 114Z" stroke="rgba(255,255,255,1)" stroke-width="1.5" fill-opacity="1" fill="#7bd144"></path><g id="SvgjsG1223"><text id="SvgjsText1224" font-family="&quot;Microsoft YaHei&quot;, 微软雅黑, Arial" text-anchor="middle" font-size="20px" width="204px" fill="#323232" font-weight="400" align="middle" lineHeight="125%" anchor="middle" family="&quot;Microsoft YaHei&quot;, 微软雅黑, Arial" size="20px" weight="400" font-style="" opacity="1" y="41" transform="rotate(0)"></text></g></g><g id="SvgjsG1225" transform="translate(606.75,1413.5909090909088)"><path id="SvgjsPath1226" d="M 0 4Q 0 0 4 0L 101 0Q 105 0 105 4L 105 33Q 105 37 101 37L 4 37Q 0 37 0 33Z" stroke="rgba(33,41,48,1)" stroke-width="1.5" fill-opacity="1" fill="#000000"></path><g id="SvgjsG1227"><text id="SvgjsText1228" font-family="&quot;Microsoft YaHei&quot;, 微软雅黑, Arial" text-anchor="middle" font-size="20px" width="85px" fill="#ffffff" font-weight="400" align="middle" lineHeight="125%" anchor="middle" family="&quot;Microsoft YaHei&quot;, 微软雅黑, Arial" size="20px" weight="400" font-style="" opacity="1" y="0.5" transform="rotate(0)"><tspan id="SvgjsTspan1229" dy="25" x="52.5"><tspan id="SvgjsTspan1230" style="">sqe_next</tspan></tspan></text></g></g><g id="SvgjsG1231" transform="translate(320.5,1207.5714285714284)"><path id="SvgjsPath1232" d="M 0 4Q 0 0 4 0L 127 0Q 131 0 131 4L 131 111Q 131 115 127 115L 4 115Q 0 115 0 111Z" stroke="rgba(255,255,255,1)" stroke-width="1.5" fill-opacity="1" fill="#beb3af"></path><g id="SvgjsG1233"><text id="SvgjsText1234" font-family="&quot;Microsoft YaHei&quot;, 微软雅黑, Arial" text-anchor="middle" font-size="20px" width="111px" fill="#323232" font-weight="400" align="middle" lineHeight="125%" anchor="middle" family="&quot;Microsoft YaHei&quot;, 微软雅黑, Arial" size="20px" weight="400" font-style="" opacity="1" y="39.5" transform="rotate(0)"></text></g></g><g id="SvgjsG1235" transform="translate(333.5,1219.5714285714284)"><path id="SvgjsPath1236" d="M 0 4Q 0 0 4 0L 101 0Q 105 0 105 4L 105 33Q 105 37 101 37L 4 37Q 0 37 0 33Z" stroke="rgba(33,41,48,1)" stroke-width="1.5" fill-opacity="1" fill="#000000"></path><g id="SvgjsG1237"><text id="SvgjsText1238" font-family="&quot;Microsoft YaHei&quot;, 微软雅黑, Arial" text-anchor="middle" font-size="20px" width="85px" fill="#ffffff" font-weight="400" align="middle" lineHeight="125%" anchor="middle" family="&quot;Microsoft YaHei&quot;, 微软雅黑, Arial" size="20px" weight="400" font-style="" opacity="1" y="0.5" transform="rotate(0)"><tspan id="SvgjsTspan1239" dy="25" x="52.5"><tspan id="SvgjsTspan1240" style="">sqh_first</tspan></tspan></text></g></g><g id="SvgjsG1241" transform="translate(333.5,1271.5714285714284)"><path id="SvgjsPath1242" d="M 0 4Q 0 0 4 0L 101 0Q 105 0 105 4L 105 33Q 105 37 101 37L 4 37Q 0 37 0 33Z" stroke="rgba(33,41,48,1)" stroke-width="1.5" fill-opacity="1" fill="#000000"></path><g id="SvgjsG1243"><text id="SvgjsText1244" font-family="&quot;Microsoft YaHei&quot;, 微软雅黑, Arial" text-anchor="middle" font-size="20px" width="85px" fill="#ffffff" font-weight="400" align="middle" lineHeight="125%" anchor="middle" family="&quot;Microsoft YaHei&quot;, 微软雅黑, Arial" size="20px" weight="400" font-style="" opacity="1" y="0.5" transform="rotate(0)"><tspan id="SvgjsTspan1245" dy="25" x="52.5"><tspan id="SvgjsTspan1246" style="">sqh_last</tspan></tspan></text></g></g><g id="SvgjsG1247" transform="translate(918.75,1404.0909090909088)"><path id="SvgjsPath1248" d="M 0 4Q 0 0 4 0L 92 0Q 96 0 96 4L 96 50Q 96 54 92 54L 4 54Q 0 54 0 50Z" stroke="rgba(255,255,255,1)" stroke-width="1.5" fill-opacity="1" fill="#7bd144"></path><g id="SvgjsG1249"><text id="SvgjsText1250" font-family="&quot;Microsoft YaHei&quot;, 微软雅黑, Arial" text-anchor="middle" font-size="20px" width="76px" fill="#323232" font-weight="400" align="middle" lineHeight="125%" anchor="middle" family="&quot;Microsoft YaHei&quot;, 微软雅黑, Arial" size="20px" weight="400" font-style="" opacity="1" y="9" transform="rotate(0)"><tspan id="SvgjsTspan1251" dy="25" x="48"><tspan id="SvgjsTspan1252" style="">NULL</tspan></tspan></text></g></g><g id="SvgjsG1253"><path id="SvgjsPath1254" d="M712.4999998202429 1432.0903898263743C 794.5509661779379 1432.0909090909088 835.9490338220621 1431.0909090909088 914.1000011144943 1431.0941285310219" stroke="#000000" stroke-width="3" fill="none" marker-end="url(#SvgjsMarker1255)"></path></g><g id="SvgjsG1257" transform="translate(338.5,1164.5714285714284)"><path id="SvgjsPath1258" d="M 0 0L 100 0L 100 40L 0 40Z" stroke="none" fill="none"></path><g id="SvgjsG1259"><text id="SvgjsText1260" font-family="&quot;Microsoft YaHei&quot;, 微软雅黑, Arial" text-anchor="middle" font-size="20px" width="100px" fill="#323232" font-weight="700" align="middle" lineHeight="125%" anchor="middle" family="&quot;Microsoft YaHei&quot;, 微软雅黑, Arial" size="20px" weight="700" font-style="" opacity="1" y="2" transform="rotate(0)"><tspan id="SvgjsTspan1261" dy="25" x="50"><tspan id="SvgjsTspan1262" style="">HEAD</tspan></tspan></text></g></g><g id="SvgjsG1263" transform="translate(25,1404.0909090909088)"><path id="SvgjsPath1264" d="M 0 4Q 0 0 4 0L 220 0Q 224 0 224 4L 224 114Q 224 118 220 118L 4 118Q 0 118 0 114Z" stroke="rgba(255,255,255,1)" stroke-width="1.5" fill-opacity="1" fill="#f1ac6a"></path><g id="SvgjsG1265"><text id="SvgjsText1266" font-family="&quot;Microsoft YaHei&quot;, 微软雅黑, Arial" text-anchor="middle" font-size="20px" width="204px" fill="#323232" font-weight="400" align="middle" lineHeight="125%" anchor="middle" family="&quot;Microsoft YaHei&quot;, 微软雅黑, Arial" size="20px" weight="400" font-style="" opacity="1" y="41" transform="rotate(0)"></text></g></g><g id="SvgjsG1267" transform="translate(132,1414.0909090909088)"><path id="SvgjsPath1268" d="M 0 4Q 0 0 4 0L 101 0Q 105 0 105 4L 105 33Q 105 37 101 37L 4 37Q 0 37 0 33Z" stroke="rgba(33,41,48,1)" stroke-width="1.5" fill-opacity="1" fill="#000000"></path><g id="SvgjsG1269"><text id="SvgjsText1270" font-family="&quot;Microsoft YaHei&quot;, 微软雅黑, Arial" text-anchor="middle" font-size="20px" width="85px" fill="#ffffff" font-weight="400" align="middle" lineHeight="125%" anchor="middle" family="&quot;Microsoft YaHei&quot;, 微软雅黑, Arial" size="20px" weight="400" font-style="" opacity="1" y="0.5" transform="rotate(0)"><tspan id="SvgjsTspan1271" dy="25" x="52.5"><tspan id="SvgjsTspan1272" style="">sqe_next</tspan></tspan></text></g></g><g id="SvgjsG1273" transform="translate(25,1353.0909090909088)"><path id="SvgjsPath1274" d="M 0 0L 66 0L 66 40L 0 40Z" stroke="none" fill="none"></path><g id="SvgjsG1275"><text id="SvgjsText1276" font-family="&quot;Microsoft YaHei&quot;, 微软雅黑, Arial" text-anchor="middle" font-size="20px" width="66px" fill="#323232" font-weight="400" align="middle" lineHeight="125%" anchor="middle" family="&quot;Microsoft YaHei&quot;, 微软雅黑, Arial" size="20px" weight="400" font-style="" opacity="1" y="2" transform="rotate(0)"><tspan id="SvgjsTspan1277" dy="25" x="33"><tspan id="SvgjsTspan1278" style="">elm</tspan></tspan></text></g></g><g id="SvgjsG1279"><path id="SvgjsPath1280" d="M237.75 1432.5909090909088L365.625 1432.5909090909088L365.625 1432.5909090909088L494.25 1432.5909090909088" stroke="#e32222" stroke-width="3" fill="none" marker-end="url(#SvgjsMarker1281)"></path></g><g id="SvgjsG1283"><path id="SvgjsPath1284" d="M332.75459831029593 1238.1543521566527C 169.25 1254 186.25 1300 138.93273626631571 1399.8616029392017" stroke="#e32222" stroke-width="3" fill="none" marker-end="url(#SvgjsMarker1285)"></path></g><g id="SvgjsG1287"><path id="SvgjsPath1288" d="M439.24995201745514 1290.0799121741347C 539.6831010141927 1290.0714285714284 611.25 1313 657.1482846519539 1409.442982790239" stroke="#323232" stroke-width="3" fill="none" marker-end="url(#SvgjsMarker1289)"></path></g><g id="SvgjsG1291"></g></svg>