<svg id="SvgjsSvg1006" width="1753.6357972886822" height="1118.9349140205768" xmlns="http://www.w3.org/2000/svg" version="1.1" xmlns:xlink="http://www.w3.org/1999/xlink" xmlns:svgjs="http://svgjs.com/svgjs"><defs id="SvgjsDefs1007"><pattern patternUnits="userSpaceOnUse" id="pattern_mark_0" width="300" height="300"><text x="150" y="100" fill="rgba(229,229,229,0.8)" font-size="18" transform="rotate(-45, 150, 150)" style="dominant-baseline: middle; text-anchor: middle;"></text></pattern><pattern patternUnits="userSpaceOnUse" id="pattern_mark_1" width="300" height="300"><text x="150" y="200" fill="rgba(229,229,229,0.8)" font-size="18" transform="rotate(-45, 150, 150)" style="dominant-baseline: middle; text-anchor: middle;"></text></pattern><marker id="SvgjsMarker1057" markerWidth="14" markerHeight="12" refX="16" refY="6" viewBox="0 0 14 12" orient="auto" markerUnits="userSpaceOnUse" stroke-dasharray="0,0"><path id="SvgjsPath1058" d="M1,1 L14,6 L1,11L1,1" fill="#ffffff" stroke="#323232" stroke-width="1.5"></path></marker><marker id="SvgjsMarker1061" markerWidth="14" markerHeight="12" refX="16" refY="6" viewBox="0 0 14 12" orient="auto" markerUnits="userSpaceOnUse" stroke-dasharray="0,0"><path id="SvgjsPath1062" d="M1,1 L14,6 L1,11L1,1" fill="#ffffff" stroke="#323232" stroke-width="1.5"></path></marker><marker id="SvgjsMarker1093" markerWidth="14" markerHeight="12" refX="16" refY="6" viewBox="0 0 14 12" orient="auto" markerUnits="userSpaceOnUse" stroke-dasharray="0,0"><path id="SvgjsPath1094" d="M1,1 L14,6 L1,11L1,1" fill="#ffffff" stroke="#323232" stroke-width="1.5"></path></marker><marker id="SvgjsMarker1097" markerWidth="14" markerHeight="12" refX="16" refY="6" viewBox="0 0 14 12" orient="auto" markerUnits="userSpaceOnUse" stroke-dasharray="0,0"><path id="SvgjsPath1098" d="M1,1 L14,6 L1,11L1,1" fill="#ffffff" stroke="#323232" stroke-width="1.5"></path></marker><marker id="SvgjsMarker1101" markerWidth="14" markerHeight="12" refX="16" refY="6" viewBox="0 0 14 12" orient="auto" markerUnits="userSpaceOnUse" stroke-dasharray="0,0"><path id="SvgjsPath1102" d="M1,1 L14,6 L1,11L1,1" fill="#ffffff" stroke="#323232" stroke-width="1.5"></path></marker><marker id="SvgjsMarker1137" markerWidth="14" markerHeight="12" refX="16" refY="6" viewBox="0 0 14 12" orient="auto" markerUnits="userSpaceOnUse" stroke-dasharray="0,0"><path id="SvgjsPath1138" d="M1,1 L14,6 L1,11L1,1" fill="#ffffff" stroke="#323232" stroke-width="1.5"></path></marker><marker id="SvgjsMarker1141" markerWidth="14" markerHeight="12" refX="16" refY="6" viewBox="0 0 14 12" orient="auto" markerUnits="userSpaceOnUse" stroke-dasharray="0,0"><path id="SvgjsPath1142" d="M1,1 L14,6 L1,11L1,1" fill="#ffffff" stroke="#323232" stroke-width="1.5"></path></marker><marker id="SvgjsMarker1159" markerWidth="16" markerHeight="16" refX="11" refY="8" viewBox="0 0 16 16" orient="auto" markerUnits="userSpaceOnUse" stroke-dasharray="0,0"><path id="SvgjsPath1160" d="M0,0 L10,8 L0,16" fill="none" stroke="#323232" stroke-width="1.5"></path></marker><marker id="SvgjsMarker1163" markerWidth="16" markerHeight="16" refX="11" refY="8" viewBox="0 0 16 16" orient="auto" markerUnits="userSpaceOnUse" stroke-dasharray="0,0"><path id="SvgjsPath1164" d="M0,0 L10,8 L0,16" fill="none" stroke="#323232" stroke-width="1.5"></path></marker><marker id="SvgjsMarker1181" markerWidth="16" markerHeight="16" refX="11" refY="8" viewBox="0 0 16 16" orient="auto" markerUnits="userSpaceOnUse" stroke-dasharray="0,0"><path id="SvgjsPath1182" d="M0,0 L10,8 L0,16" fill="none" stroke="#323232" stroke-width="1.5"></path></marker><marker id="SvgjsMarker1185" markerWidth="16" markerHeight="16" refX="11" refY="8" viewBox="0 0 16 16" orient="auto" markerUnits="userSpaceOnUse" stroke-dasharray="0,0"><path id="SvgjsPath1186" d="M0,0 L10,8 L0,16" fill="none" stroke="#323232" stroke-width="1.5"></path></marker><marker id="SvgjsMarker1213" markerWidth="14" markerHeight="12" refX="16" refY="6" viewBox="0 0 14 12" orient="auto" markerUnits="userSpaceOnUse" stroke-dasharray="0,0"><path id="SvgjsPath1214" d="M1,1 L14,6 L1,11L1,1" fill="#ffffff" stroke="#323232" stroke-width="1.5"></path></marker><marker id="SvgjsMarker1217" markerWidth="14" markerHeight="12" refX="16" refY="6" viewBox="0 0 14 12" orient="auto" markerUnits="userSpaceOnUse" stroke-dasharray="0,0"><path id="SvgjsPath1218" d="M1,1 L14,6 L1,11L1,1" fill="#ffffff" stroke="#323232" stroke-width="1.5"></path></marker></defs><rect id="svgbackgroundid" width="1753.6357972886822" height="1118.9349140205768" fill="transparent"></rect><rect id="SvgjsRect1009" width="1753.6357972886822" height="1118.9349140205768" fill="url(#pattern_mark_0)"></rect><rect id="SvgjsRect1010" width="1753.6357972886822" height="1118.9349140205768" fill="url(#pattern_mark_1)"></rect><g id="SvgjsG1011" transform="translate(1057.7870229085288,255.83333333333331)"><path id="SvgjsPath1012" d="M 0 4Q 0 0 4 0L 226 0Q 230 0 230 4L 230 120Q 230 124 226 124L 4 124Q 0 124 0 120Z" stroke="rgba(33,41,48,1)" stroke-width="1.5" fill-opacity="1" fill="#95da69"></path><path id="SvgjsPath1013" d="M 0 64L 230 64M 0 94L 230 94" stroke="rgba(33,41,48,1)" stroke-width="1.5" fill="none"></path><path id="SvgjsPath1014" d="M 0 0L 230 0L 230 124L 0 124Z" stroke="none" fill="none"></path><g id="SvgjsG1015"><text id="SvgjsText1016" font-family="&quot;Microsoft YaHei&quot;, 微软雅黑, Arial" text-anchor="middle" font-size="20px" width="210px" fill="#000000" font-weight="400" align="middle" lineHeight="125%" anchor="middle" family="&quot;Microsoft YaHei&quot;, 微软雅黑, Arial" size="20px" weight="400" font-style="" opacity="1" y="1.5" transform="rotate(0)"><tspan id="SvgjsTspan1017" dy="25" x="115"><tspan id="SvgjsTspan1018" style="">&lt;&lt;interface&gt;&gt;</tspan></tspan><tspan id="SvgjsTspan1019" dy="25" x="115"><tspan id="SvgjsTspan1020" style="">ISocket</tspan></tspan></text></g><g id="SvgjsG1021"><text id="SvgjsText1022" font-family="&quot;Microsoft YaHei&quot;, 微软雅黑, Arial" text-anchor="start" font-size="20px" width="210px" fill="#000000" font-weight="400" align="middle" lineHeight="125%" anchor="start" family="&quot;Microsoft YaHei&quot;, 微软雅黑, Arial" size="20px" weight="400" font-style="" opacity="1" y="61" transform="rotate(0)"></text></g><g id="SvgjsG1023"><text id="SvgjsText1024" font-family="&quot;Microsoft YaHei&quot;, 微软雅黑, Arial" text-anchor="start" font-size="20px" width="210px" fill="#000000" font-weight="400" align="middle" lineHeight="125%" anchor="start" family="&quot;Microsoft YaHei&quot;, 微软雅黑, Arial" size="20px" weight="400" font-style="" opacity="1" y="91" transform="rotate(0)"></text></g></g><g id="SvgjsG1025" transform="translate(454.879618326823,255.83333333333331)"><path id="SvgjsPath1026" d="M 0 4Q 0 0 4 0L 226 0Q 230 0 230 4L 230 120Q 230 124 226 124L 4 124Q 0 124 0 120Z" stroke="rgba(33,41,48,1)" stroke-width="1.5" fill-opacity="1" fill="#95da69"></path><path id="SvgjsPath1027" d="M 0 64L 230 64M 0 94L 230 94" stroke="rgba(33,41,48,1)" stroke-width="1.5" fill="none"></path><path id="SvgjsPath1028" d="M 0 0L 230 0L 230 124L 0 124Z" stroke="none" fill="none"></path><g id="SvgjsG1029"><text id="SvgjsText1030" font-family="&quot;Microsoft YaHei&quot;, 微软雅黑, Arial" text-anchor="middle" font-size="20px" width="210px" fill="#000000" font-weight="400" align="middle" lineHeight="125%" anchor="middle" family="&quot;Microsoft YaHei&quot;, 微软雅黑, Arial" size="20px" weight="400" font-style="" opacity="1" y="1.5" transform="rotate(0)"><tspan id="SvgjsTspan1031" dy="25" x="115"><tspan id="SvgjsTspan1032" style="">&lt;&lt;interface&gt;&gt;</tspan></tspan><tspan id="SvgjsTspan1033" dy="25" x="115"><tspan id="SvgjsTspan1034" style="">IStream</tspan></tspan></text></g><g id="SvgjsG1035"><text id="SvgjsText1036" font-family="&quot;Microsoft YaHei&quot;, 微软雅黑, Arial" text-anchor="start" font-size="20px" width="210px" fill="#000000" font-weight="400" align="middle" lineHeight="125%" anchor="start" family="&quot;Microsoft YaHei&quot;, 微软雅黑, Arial" size="20px" weight="400" font-style="" opacity="1" y="61" transform="rotate(0)"></text></g><g id="SvgjsG1037"><text id="SvgjsText1038" font-family="&quot;Microsoft YaHei&quot;, 微软雅黑, Arial" text-anchor="start" font-size="20px" width="210px" fill="#000000" font-weight="400" align="middle" lineHeight="125%" anchor="start" family="&quot;Microsoft YaHei&quot;, 微软雅黑, Arial" size="20px" weight="400" font-style="" opacity="1" y="91" transform="rotate(0)"></text></g></g><g id="SvgjsG1039" transform="translate(684.879618326823,24.999999999999986)"><path id="SvgjsPath1040" d="M 0 4Q 0 0 4 0L 368.907 0Q 372.907 0 372.907 4L 372.907 124.741Q 372.907 128.741 368.907 128.741L 4 128.741Q 0 128.741 0 124.741Z" stroke="rgba(33,41,48,1)" stroke-width="1.5" fill-opacity="1" fill="#95da69"></path><path id="SvgjsPath1041" d="M 0 64L 372.907 64M 0 84.662L 372.907 84.662" stroke="rgba(33,41,48,1)" stroke-width="1.5" fill="none"></path><path id="SvgjsPath1042" d="M 0 0L 372.907 0L 372.907 128.741L 0 128.741Z" stroke="none" fill="none"></path><g id="SvgjsG1043"><text id="SvgjsText1044" font-family="&quot;Microsoft YaHei&quot;, 微软雅黑, Arial" text-anchor="middle" font-size="20px" width="353px" fill="#000000" font-weight="400" align="middle" lineHeight="125%" anchor="middle" family="&quot;Microsoft YaHei&quot;, 微软雅黑, Arial" size="20px" weight="400" font-style="" opacity="1" y="1.5" transform="rotate(0)"><tspan id="SvgjsTspan1045" dy="25" x="186.5"><tspan id="SvgjsTspan1046" style="">&lt;&lt;interface&gt;&gt;</tspan></tspan><tspan id="SvgjsTspan1047" dy="25" x="186.5"><tspan id="SvgjsTspan1048" style="">IInterface</tspan></tspan></text></g><g id="SvgjsG1049"><text id="SvgjsText1050" font-family="&quot;Microsoft YaHei&quot;, 微软雅黑, Arial" text-anchor="start" font-size="20px" width="353px" fill="#000000" font-weight="400" align="middle" lineHeight="125%" anchor="start" family="&quot;Microsoft YaHei&quot;, 微软雅黑, Arial" size="20px" weight="400" font-style="" opacity="1" y="56.331" transform="rotate(0)"></text></g><g id="SvgjsG1051"><text id="SvgjsText1052" font-family="&quot;Microsoft YaHei&quot;, 微软雅黑, Arial" text-anchor="start" font-size="20px" width="353px" fill="#000000" font-weight="400" align="middle" lineHeight="125%" anchor="start" family="&quot;Microsoft YaHei&quot;, 微软雅黑, Arial" size="20px" weight="400" font-style="" opacity="1" y="88.70150000000001" transform="rotate(0)"><tspan id="SvgjsTspan1053" dy="25" x="10"><tspan id="SvgjsTspan1054" style="">+ virtual !IInterface() := default</tspan></tspan></text></g></g><g id="SvgjsG1055"><path id="SvgjsPath1056" d="M570.3059145520454 255.2162664582208L683.3449519160223 91.59144075040504" stroke="#323232" stroke-width="1.5" fill="none" marker-end="url(#SvgjsMarker1057)"></path></g><g id="SvgjsG1059"><path id="SvgjsPath1060" d="M1172.3607256680841 255.21626715958098L1059.3212883924234 91.5914382255084" stroke="#323232" stroke-width="1.5" fill="none" marker-end="url(#SvgjsMarker1061)"></path></g><g id="SvgjsG1063" transform="translate(454.879618326823,438.560606060606)"><path id="SvgjsPath1064" d="M 0 4Q 0 0 4 0L 226 0Q 230 0 230 4L 230 120Q 230 124 226 124L 4 124Q 0 124 0 120Z" stroke="rgba(33,41,48,1)" stroke-width="1.5" fill-opacity="1" fill="#95da69"></path><path id="SvgjsPath1065" d="M 0 64L 230 64M 0 94L 230 94" stroke="rgba(33,41,48,1)" stroke-width="1.5" fill="none"></path><path id="SvgjsPath1066" d="M 0 0L 230 0L 230 124L 0 124Z" stroke="none" fill="none"></path><g id="SvgjsG1067"><text id="SvgjsText1068" font-family="&quot;Microsoft YaHei&quot;, 微软雅黑, Arial" text-anchor="middle" font-size="20px" width="210px" fill="#000000" font-weight="400" align="middle" lineHeight="125%" anchor="middle" family="&quot;Microsoft YaHei&quot;, 微软雅黑, Arial" size="20px" weight="400" font-style="" opacity="1" y="1.5" transform="rotate(0)"><tspan id="SvgjsTspan1069" dy="25" x="115"><tspan id="SvgjsTspan1070" style="">&lt;&lt;interface&gt;&gt;</tspan></tspan><tspan id="SvgjsTspan1071" dy="25" x="115"><tspan id="SvgjsTspan1072" style="">IDataSocket</tspan></tspan></text></g><g id="SvgjsG1073"><text id="SvgjsText1074" font-family="&quot;Microsoft YaHei&quot;, 微软雅黑, Arial" text-anchor="start" font-size="20px" width="210px" fill="#000000" font-weight="400" align="middle" lineHeight="125%" anchor="start" family="&quot;Microsoft YaHei&quot;, 微软雅黑, Arial" size="20px" weight="400" font-style="" opacity="1" y="61" transform="rotate(0)"></text></g><g id="SvgjsG1075"><text id="SvgjsText1076" font-family="&quot;Microsoft YaHei&quot;, 微软雅黑, Arial" text-anchor="start" font-size="20px" width="210px" fill="#000000" font-weight="400" align="middle" lineHeight="125%" anchor="start" family="&quot;Microsoft YaHei&quot;, 微软雅黑, Arial" size="20px" weight="400" font-style="" opacity="1" y="91" transform="rotate(0)"></text></g></g><g id="SvgjsG1077" transform="translate(1057.7870229085288,438.560606060606)"><path id="SvgjsPath1078" d="M 0 4Q 0 0 4 0L 226 0Q 230 0 230 4L 230 120Q 230 124 226 124L 4 124Q 0 124 0 120Z" stroke="rgba(33,41,48,1)" stroke-width="1.5" fill-opacity="1" fill="#95da69"></path><path id="SvgjsPath1079" d="M 0 64L 230 64M 0 94L 230 94" stroke="rgba(33,41,48,1)" stroke-width="1.5" fill="none"></path><path id="SvgjsPath1080" d="M 0 0L 230 0L 230 124L 0 124Z" stroke="none" fill="none"></path><g id="SvgjsG1081"><text id="SvgjsText1082" font-family="&quot;Microsoft YaHei&quot;, 微软雅黑, Arial" text-anchor="middle" font-size="20px" width="210px" fill="#000000" font-weight="400" align="middle" lineHeight="125%" anchor="middle" family="&quot;Microsoft YaHei&quot;, 微软雅黑, Arial" size="20px" weight="400" font-style="" opacity="1" y="1.5" transform="rotate(0)"><tspan id="SvgjsTspan1083" dy="25" x="115"><tspan id="SvgjsTspan1084" style="">&lt;&lt;interface&gt;&gt;</tspan></tspan><tspan id="SvgjsTspan1085" dy="25" x="115"><tspan id="SvgjsTspan1086" style="">IListenSocket</tspan></tspan></text></g><g id="SvgjsG1087"><text id="SvgjsText1088" font-family="&quot;Microsoft YaHei&quot;, 微软雅黑, Arial" text-anchor="start" font-size="20px" width="210px" fill="#000000" font-weight="400" align="middle" lineHeight="125%" anchor="start" family="&quot;Microsoft YaHei&quot;, 微软雅黑, Arial" size="20px" weight="400" font-style="" opacity="1" y="61" transform="rotate(0)"></text></g><g id="SvgjsG1089"><text id="SvgjsText1090" font-family="&quot;Microsoft YaHei&quot;, 微软雅黑, Arial" text-anchor="start" font-size="20px" width="210px" fill="#000000" font-weight="400" align="middle" lineHeight="125%" anchor="start" family="&quot;Microsoft YaHei&quot;, 微软雅黑, Arial" size="20px" weight="400" font-style="" opacity="1" y="91" transform="rotate(0)"></text></g></g><g id="SvgjsG1091"><path id="SvgjsPath1092" d="M569.879618326823 437.810606060606L569.879618326823 382.5333333333333" stroke="#323232" stroke-width="1.5" fill="none" marker-end="url(#SvgjsMarker1093)"></path></g><g id="SvgjsG1095"><path id="SvgjsPath1096" d="M685.5531091658265 500.2305907734171L1055.362455888116 319.02138836721343" stroke="#323232" stroke-width="1.5" fill="none" marker-end="url(#SvgjsMarker1097)"></path></g><g id="SvgjsG1099"><path id="SvgjsPath1100" d="M1172.7870229085288 437.810606060606L1172.7870229085288 382.5333333333333" stroke="#323232" stroke-width="1.5" fill="none" marker-end="url(#SvgjsMarker1101)"></path></g><g id="SvgjsG1103" transform="translate(25,765.7323232323229)"><path id="SvgjsPath1104" d="M 0 4Q 0 0 4 0L 459.093 0Q 463.093 0 463.093 4L 463.093 120Q 463.093 124 459.093 124L 4 124Q 0 124 0 120Z" stroke="rgba(33,41,48,1)" stroke-width="1.5" fill-opacity="1" fill="#95da69"></path><path id="SvgjsPath1105" d="M 0 30L 463.093 30M 0 94L 463.093 94" stroke="rgba(33,41,48,1)" stroke-width="1.5" fill="none"></path><path id="SvgjsPath1106" d="M 0 0L 463.093 0L 463.093 124L 0 124Z" stroke="none" fill="none"></path><g id="SvgjsG1107"><text id="SvgjsText1108" font-family="&quot;Microsoft YaHei&quot;, 微软雅黑, Arial" text-anchor="middle" font-size="20px" width="444px" fill="#000000" font-weight="400" align="middle" lineHeight="125%" anchor="middle" family="&quot;Microsoft YaHei&quot;, 微软雅黑, Arial" size="20px" weight="400" font-style="" opacity="1" y="-3" transform="rotate(0)"><tspan id="SvgjsTspan1109" dy="25" x="232"><tspan id="SvgjsTspan1110" style="">TCPSocket</tspan></tspan></text></g><g id="SvgjsG1111"><text id="SvgjsText1112" font-family="&quot;Microsoft YaHei&quot;, 微软雅黑, Arial" text-anchor="start" font-size="20px" width="444px" fill="#000000" font-weight="400" align="middle" lineHeight="125%" anchor="start" family="&quot;Microsoft YaHei&quot;, 微软雅黑, Arial" size="20px" weight="400" font-style="" opacity="1" y="31.5" transform="rotate(0)"><tspan id="SvgjsTspan1113" dy="25" x="10"><tspan id="SvgjsTspan1114" style=""># m_events : IEventQueue *</tspan></tspan><tspan id="SvgjsTspan1115" dy="25" x="10"><tspan id="SvgjsTspan1116" style="">- m_socketMultiplexer  : SocketMultiplexer *</tspan></tspan></text></g><g id="SvgjsG1117"><text id="SvgjsText1118" font-family="&quot;Microsoft YaHei&quot;, 微软雅黑, Arial" text-anchor="start" font-size="20px" width="444px" fill="#000000" font-weight="400" align="middle" lineHeight="125%" anchor="start" family="&quot;Microsoft YaHei&quot;, 微软雅黑, Arial" size="20px" weight="400" font-style="" opacity="1" y="91" transform="rotate(0)"></text></g></g><g id="SvgjsG1119" transform="translate(1281.3826929728189,765.732323232323)"><path id="SvgjsPath1120" d="M 0 4Q 0 0 4 0L 443.253 0Q 447.253 0 447.253 4L 447.253 120Q 447.253 124 443.253 124L 4 124Q 0 124 0 120Z" stroke="rgba(33,41,48,1)" stroke-width="1.5" fill-opacity="1" fill="#95da69"></path><path id="SvgjsPath1121" d="M 0 30L 447.253 30M 0 94L 447.253 94" stroke="rgba(33,41,48,1)" stroke-width="1.5" fill="none"></path><path id="SvgjsPath1122" d="M 0 0L 447.253 0L 447.253 124L 0 124Z" stroke="none" fill="none"></path><g id="SvgjsG1123"><text id="SvgjsText1124" font-family="&quot;Microsoft YaHei&quot;, 微软雅黑, Arial" text-anchor="middle" font-size="20px" width="428px" fill="#000000" font-weight="400" align="middle" lineHeight="125%" anchor="middle" family="&quot;Microsoft YaHei&quot;, 微软雅黑, Arial" size="20px" weight="400" font-style="" opacity="1" y="-3" transform="rotate(0)"><tspan id="SvgjsTspan1125" dy="25" x="224"><tspan id="SvgjsTspan1126" style="">TCPListenSocket</tspan></tspan></text></g><g id="SvgjsG1127"><text id="SvgjsText1128" font-family="&quot;Microsoft YaHei&quot;, 微软雅黑, Arial" text-anchor="start" font-size="20px" width="428px" fill="#000000" font-weight="400" align="middle" lineHeight="125%" anchor="start" family="&quot;Microsoft YaHei&quot;, 微软雅黑, Arial" size="20px" weight="400" font-style="" opacity="1" y="31.5" transform="rotate(0)"><tspan id="SvgjsTspan1129" dy="25" x="10"><tspan id="SvgjsTspan1130" style=""># m_events : IEventQueue *</tspan></tspan><tspan id="SvgjsTspan1131" dy="25" x="10"><tspan id="SvgjsTspan1132" style=""># m_socketMultiplexer  : SocketMultiplexer *</tspan></tspan></text></g><g id="SvgjsG1133"><text id="SvgjsText1134" font-family="&quot;Microsoft YaHei&quot;, 微软雅黑, Arial" text-anchor="start" font-size="20px" width="428px" fill="#000000" font-weight="400" align="middle" lineHeight="125%" anchor="start" family="&quot;Microsoft YaHei&quot;, 微软雅黑, Arial" size="20px" weight="400" font-style="" opacity="1" y="91" transform="rotate(0)"></text></g></g><g id="SvgjsG1135"><path id="SvgjsPath1136" d="M257.1760209271192 765.1477631044398L567.6136040051783 564.028658884622" stroke="#323232" stroke-width="1.5" fill="none" marker-end="url(#SvgjsMarker1137)"></path></g><g id="SvgjsG1139"><path id="SvgjsPath1140" d="M1504.3698573866682 765.3410299629004L1175.0904310186706 563.9692618305274" stroke="#323232" stroke-width="1.5" fill="none" marker-end="url(#SvgjsMarker1141)"></path></g><g id="SvgjsG1143" transform="translate(791.7067938910591,654.9349140205766)"><path id="SvgjsPath1144" d="M 0 4Q 0 0 4 0L 178.062 0Q 182.062 0 182.062 4L 182.062 97.909Q 182.062 101.909 178.062 101.909L 4 101.909Q 0 101.909 0 97.909Z" stroke="rgba(33,41,48,1)" stroke-width="1.5" fill-opacity="1" fill="#95da69"></path><path id="SvgjsPath1145" d="M 0 64L 182.062 64M 0 82.954L 182.062 82.954" stroke="rgba(33,41,48,1)" stroke-width="1.5" fill="none"></path><path id="SvgjsPath1146" d="M 0 0L 182.062 0L 182.062 101.909L 0 101.909Z" stroke="none" fill="none"></path><g id="SvgjsG1147"><text id="SvgjsText1148" font-family="&quot;Microsoft YaHei&quot;, 微软雅黑, Arial" text-anchor="middle" font-size="20px" width="163px" fill="#000000" font-weight="400" align="middle" lineHeight="125%" anchor="middle" family="&quot;Microsoft YaHei&quot;, 微软雅黑, Arial" size="20px" weight="400" font-style="" opacity="1" y="1.5" transform="rotate(0)"><tspan id="SvgjsTspan1149" dy="25" x="91.5"><tspan id="SvgjsTspan1150" style="">&lt;&lt;interface&gt;&gt;</tspan></tspan><tspan id="SvgjsTspan1151" dy="25" x="91.5"><tspan id="SvgjsTspan1152" style="">IEventQueue</tspan></tspan></text></g><g id="SvgjsG1153"><text id="SvgjsText1154" font-family="&quot;Microsoft YaHei&quot;, 微软雅黑, Arial" text-anchor="start" font-size="20px" width="163px" fill="#000000" font-weight="400" align="middle" lineHeight="125%" anchor="start" family="&quot;Microsoft YaHei&quot;, 微软雅黑, Arial" size="20px" weight="400" font-style="" opacity="1" y="55.477000000000004" transform="rotate(0)"></text></g><g id="SvgjsG1155"><text id="SvgjsText1156" font-family="&quot;Microsoft YaHei&quot;, 微软雅黑, Arial" text-anchor="start" font-size="20px" width="163px" fill="#000000" font-weight="400" align="middle" lineHeight="125%" anchor="start" family="&quot;Microsoft YaHei&quot;, 微软雅黑, Arial" size="20px" weight="400" font-style="" opacity="1" y="74.431" transform="rotate(0)"></text></g></g><g id="SvgjsG1157"><path id="SvgjsPath1158" d="M488.7849198194955 827.4429325562647L790.9896209187348 701.0479077355798" stroke-dasharray="7.5,3" stroke="#323232" stroke-width="1.5" fill="none" marker-end="url(#SvgjsMarker1159)"></path></g><g id="SvgjsG1161"><path id="SvgjsPath1162" d="M1280.6853997580192 827.4561309576403L975.1633803206581 706.4412985699419" stroke-dasharray="7.5,3" stroke="#323232" stroke-width="1.5" fill="none" marker-end="url(#SvgjsMarker1163)"></path></g><g id="SvgjsG1165" transform="translate(754.9598727756078,818.2682473539099)"><path id="SvgjsPath1166" d="M 0 4Q 0 0 4 0L 251.556 0Q 255.556 0 255.556 4L 255.556 123.386Q 255.556 127.386 251.556 127.386L 4 127.386Q 0 127.386 0 123.386Z" stroke="rgba(33,41,48,1)" stroke-width="1.5" fill-opacity="1" fill="#95da69"></path><path id="SvgjsPath1167" d="M 0 89L 255.556 89M 0 108.193L 255.556 108.193" stroke="rgba(33,41,48,1)" stroke-width="1.5" fill="none"></path><path id="SvgjsPath1168" d="M 0 0L 255.556 0L 255.556 127.386L 0 127.386Z" stroke="none" fill="none"></path><g id="SvgjsG1169"><text id="SvgjsText1170" font-family="&quot;Microsoft YaHei&quot;, 微软雅黑, Arial" text-anchor="middle" font-size="20px" width="236px" fill="#000000" font-weight="400" align="middle" lineHeight="125%" anchor="middle" family="&quot;Microsoft YaHei&quot;, 微软雅黑, Arial" size="20px" weight="400" font-style="" opacity="1" y="14" transform="rotate(0)"><tspan id="SvgjsTspan1171" dy="25" x="128"><tspan id="SvgjsTspan1172" style="">&lt;&lt;interface&gt;&gt;</tspan></tspan><tspan id="SvgjsTspan1173" dy="25" x="128"><tspan id="SvgjsTspan1174" style="">SocketMultiplexer</tspan></tspan></text></g><g id="SvgjsG1175"><text id="SvgjsText1176" font-family="&quot;Microsoft YaHei&quot;, 微软雅黑, Arial" text-anchor="start" font-size="20px" width="236px" fill="#000000" font-weight="400" align="middle" lineHeight="125%" anchor="start" family="&quot;Microsoft YaHei&quot;, 微软雅黑, Arial" size="20px" weight="400" font-style="" opacity="1" y="80.5965" transform="rotate(0)"></text></g><g id="SvgjsG1177"><text id="SvgjsText1178" font-family="&quot;Microsoft YaHei&quot;, 微软雅黑, Arial" text-anchor="start" font-size="20px" width="236px" fill="#000000" font-weight="400" align="middle" lineHeight="125%" anchor="start" family="&quot;Microsoft YaHei&quot;, 微软雅黑, Arial" size="20px" weight="400" font-style="" opacity="1" y="99.7895" transform="rotate(0)"></text></g></g><g id="SvgjsG1179"><path id="SvgjsPath1180" d="M488.8279788877087 827.8816752815974L753.4899150001904 881.6625432553609" stroke-dasharray="7.5,3" stroke="#323232" stroke-width="1.5" fill="none" marker-end="url(#SvgjsMarker1181)"></path></g><g id="SvgjsG1183"><path id="SvgjsPath1184" d="M1280.6472864892482 827.8795553752892L1011.9866857427492 881.6667830679776" stroke-dasharray="7.5,3" stroke="#323232" stroke-width="1.5" fill="none" marker-end="url(#SvgjsMarker1185)"></path></g><g id="SvgjsG1187" transform="translate(117.18825276692735,969.9349140205767)"><path id="SvgjsPath1188" d="M 0 4Q 0 0 4 0L 274.716 0Q 278.716 0 278.716 4L 278.716 97.909Q 278.716 101.909 274.716 101.909L 4 101.909Q 0 101.909 0 97.909Z" stroke="rgba(33,41,48,1)" stroke-width="1.5" fill-opacity="1" fill="#95da69"></path><path id="SvgjsPath1189" d="M 0 30L 278.716 30M 0 65.954L 278.716 65.954" stroke="rgba(33,41,48,1)" stroke-width="1.5" fill="none"></path><path id="SvgjsPath1190" d="M 0 0L 278.716 0L 278.716 101.909L 0 101.909Z" stroke="none" fill="none"></path><g id="SvgjsG1191"><text id="SvgjsText1192" font-family="&quot;Microsoft YaHei&quot;, 微软雅黑, Arial" text-anchor="middle" font-size="20px" width="259px" fill="#000000" font-weight="400" align="middle" lineHeight="125%" anchor="middle" family="&quot;Microsoft YaHei&quot;, 微软雅黑, Arial" size="20px" weight="400" font-style="" opacity="1" y="-3" transform="rotate(0)"><tspan id="SvgjsTspan1193" dy="25" x="139.5"><tspan id="SvgjsTspan1194" style="">SecureSocket</tspan></tspan></text></g><g id="SvgjsG1195"><text id="SvgjsText1196" font-family="&quot;Microsoft YaHei&quot;, 微软雅黑, Arial" text-anchor="start" font-size="20px" width="259px" fill="#000000" font-weight="400" align="middle" lineHeight="125%" anchor="start" family="&quot;Microsoft YaHei&quot;, 微软雅黑, Arial" size="20px" weight="400" font-style="" opacity="1" y="29.977000000000004" transform="rotate(0)"></text></g><g id="SvgjsG1197"><text id="SvgjsText1198" font-family="&quot;Microsoft YaHei&quot;, 微软雅黑, Arial" text-anchor="start" font-size="20px" width="259px" fill="#000000" font-weight="400" align="middle" lineHeight="125%" anchor="start" family="&quot;Microsoft YaHei&quot;, 微软雅黑, Arial" size="20px" weight="400" font-style="" opacity="1" y="65.931" transform="rotate(0)"></text></g></g><g id="SvgjsG1199" transform="translate(1375.0709754096135,969.9349140205767)"><path id="SvgjsPath1200" d="M 0 4Q 0 0 4 0L 255.877 0Q 259.877 0 259.877 4L 259.877 120Q 259.877 124 255.877 124L 4 124Q 0 124 0 120Z" stroke="rgba(33,41,48,1)" stroke-width="1.5" fill-opacity="1" fill="#95da69"></path><path id="SvgjsPath1201" d="M 0 64L 259.877 64M 0 94L 259.877 94" stroke="rgba(33,41,48,1)" stroke-width="1.5" fill="none"></path><path id="SvgjsPath1202" d="M 0 0L 259.877 0L 259.877 124L 0 124Z" stroke="none" fill="none"></path><g id="SvgjsG1203"><text id="SvgjsText1204" font-family="&quot;Microsoft YaHei&quot;, 微软雅黑, Arial" text-anchor="middle" font-size="20px" width="240px" fill="#000000" font-weight="400" align="middle" lineHeight="125%" anchor="middle" family="&quot;Microsoft YaHei&quot;, 微软雅黑, Arial" size="20px" weight="400" font-style="" opacity="1" y="14" transform="rotate(0)"><tspan id="SvgjsTspan1205" dy="25" x="130"><tspan id="SvgjsTspan1206" style="">SecureListenSocket</tspan></tspan></text></g><g id="SvgjsG1207"><text id="SvgjsText1208" font-family="&quot;Microsoft YaHei&quot;, 微软雅黑, Arial" text-anchor="start" font-size="20px" width="240px" fill="#000000" font-weight="400" align="middle" lineHeight="125%" anchor="start" family="&quot;Microsoft YaHei&quot;, 微软雅黑, Arial" size="20px" weight="400" font-style="" opacity="1" y="61" transform="rotate(0)"></text></g><g id="SvgjsG1209"><text id="SvgjsText1210" font-family="&quot;Microsoft YaHei&quot;, 微软雅黑, Arial" text-anchor="start" font-size="20px" width="240px" fill="#000000" font-weight="400" align="middle" lineHeight="125%" anchor="start" family="&quot;Microsoft YaHei&quot;, 微软雅黑, Arial" size="20px" weight="400" font-style="" opacity="1" y="91" transform="rotate(0)"></text></g></g><g id="SvgjsG1211"><path id="SvgjsPath1212" d="M256.54650371579214 969.184914020577L256.5464308929236 892.4323232323217" stroke="#323232" stroke-width="1.5" fill="none" marker-end="url(#SvgjsMarker1213)"></path></g><g id="SvgjsG1215"><path id="SvgjsPath1216" d="M1505.0089754096134 969.1849140205767L1505.0089754096134 892.432323232323" stroke="#323232" stroke-width="1.5" fill="none" marker-end="url(#SvgjsMarker1217)"></path></g><g id="SvgjsG1219"></g></svg>