<svg id="SvgjsSvg1006" width="1096.5" height="680.3333435058594" xmlns="http://www.w3.org/2000/svg" version="1.1" xmlns:xlink="http://www.w3.org/1999/xlink" xmlns:svgjs="http://svgjs.com/svgjs"><defs id="SvgjsDefs1007"><pattern patternUnits="userSpaceOnUse" id="pattern_mark_0" width="300" height="300"><text x="150" y="100" fill="rgba(229,229,229,0.8)" font-size="18" transform="rotate(-45, 150, 150)" style="dominant-baseline: middle; text-anchor: middle;"></text></pattern><pattern patternUnits="userSpaceOnUse" id="pattern_mark_1" width="300" height="300"><text x="150" y="200" fill="rgba(229,229,229,0.8)" font-size="18" transform="rotate(-45, 150, 150)" style="dominant-baseline: middle; text-anchor: middle;"></text></pattern><marker id="SvgjsMarker1037" markerWidth="13" markerHeight="9" refX="9.5" refY="4.5" viewBox="0 0 13 9" orient="auto" markerUnits="userSpaceOnUse" stroke-dasharray="0,0"><path id="SvgjsPath1038" d="M0,0 L13,4.5 L0,9 L0,0" fill="#323232" stroke="#323232" stroke-width="1"></path></marker><marker id="SvgjsMarker1075" markerWidth="13" markerHeight="9" refX="9.5" refY="4.5" viewBox="0 0 13 9" orient="auto" markerUnits="userSpaceOnUse" stroke-dasharray="0,0"><path id="SvgjsPath1076" d="M0,0 L13,4.5 L0,9 L0,0" fill="#323232" stroke="#323232" stroke-width="1"></path></marker><marker id="SvgjsMarker1079" markerWidth="13" markerHeight="9" refX="9.5" refY="4.5" viewBox="0 0 13 9" orient="auto" markerUnits="userSpaceOnUse" stroke-dasharray="0,0"><path id="SvgjsPath1080" d="M0,0 L13,4.5 L0,9 L0,0" fill="#323232" stroke="#323232" stroke-width="1"></path></marker><marker id="SvgjsMarker1083" markerWidth="13" markerHeight="9" refX="9.5" refY="4.5" viewBox="0 0 13 9" orient="auto" markerUnits="userSpaceOnUse" stroke-dasharray="0,0"><path id="SvgjsPath1084" d="M0,0 L13,4.5 L0,9 L0,0" fill="#323232" stroke="#323232" stroke-width="1"></path></marker><marker id="SvgjsMarker1087" markerWidth="13" markerHeight="9" refX="9.5" refY="4.5" viewBox="0 0 13 9" orient="auto" markerUnits="userSpaceOnUse" stroke-dasharray="0,0"><path id="SvgjsPath1088" d="M0,0 L13,4.5 L0,9 L0,0" fill="#323232" stroke="#323232" stroke-width="1"></path></marker><marker id="SvgjsMarker1091" markerWidth="13" markerHeight="9" refX="9.5" refY="4.5" viewBox="0 0 13 9" orient="auto" markerUnits="userSpaceOnUse" stroke-dasharray="0,0"><path id="SvgjsPath1092" d="M0,0 L13,4.5 L0,9 L0,0" fill="#323232" stroke="#323232" stroke-width="1"></path></marker><marker id="SvgjsMarker1095" markerWidth="13" markerHeight="9" refX="9.5" refY="4.5" viewBox="0 0 13 9" orient="auto" markerUnits="userSpaceOnUse" stroke-dasharray="0,0"><path id="SvgjsPath1096" d="M0,0 L13,4.5 L0,9 L0,0" fill="#323232" stroke="#323232" stroke-width="1"></path></marker><marker id="SvgjsMarker1111" markerWidth="13" markerHeight="9" refX="9.5" refY="4.5" viewBox="0 0 13 9" orient="auto" markerUnits="userSpaceOnUse" stroke-dasharray="0,0"><path id="SvgjsPath1112" d="M0,0 L13,4.5 L0,9 L0,0" fill="#323232" stroke="#323232" stroke-width="1"></path></marker><marker id="SvgjsMarker1115" markerWidth="13" markerHeight="9" refX="9.5" refY="4.5" viewBox="0 0 13 9" orient="auto" markerUnits="userSpaceOnUse" stroke-dasharray="0,0"><path id="SvgjsPath1116" d="M0,0 L13,4.5 L0,9 L0,0" fill="#323232" stroke="#323232" stroke-width="1"></path></marker><marker id="SvgjsMarker1119" markerWidth="13" markerHeight="9" refX="9.5" refY="4.5" viewBox="0 0 13 9" orient="auto" markerUnits="userSpaceOnUse" stroke-dasharray="0,0"><path id="SvgjsPath1120" d="M0,0 L13,4.5 L0,9 L0,0" fill="#323232" stroke="#323232" stroke-width="1"></path></marker><marker id="SvgjsMarker1123" markerWidth="13" markerHeight="9" refX="9.5" refY="4.5" viewBox="0 0 13 9" orient="auto" markerUnits="userSpaceOnUse" stroke-dasharray="0,0"><path id="SvgjsPath1124" d="M0,0 L13,4.5 L0,9 L0,0" fill="#323232" stroke="#323232" stroke-width="1"></path></marker></defs><rect id="svgbackgroundid" width="1096.5" height="680.3333435058594" fill="transparent"></rect><rect id="SvgjsRect1009" width="1096.5" height="680.3333435058594" fill="url(#pattern_mark_0)"></rect><rect id="SvgjsRect1010" width="1096.5" height="680.3333435058594" fill="url(#pattern_mark_1)"></rect><g id="SvgjsG1011" transform="translate(88.18250383649558,485.3333435058594)"><path id="SvgjsPath1012" d="M 0 4Q 0 0 4 0L 771.317 0Q 775.317 0 775.317 4L 775.317 50Q 775.317 54 771.317 54L 4 54Q 0 54 0 50Z" stroke="rgba(33,41,48,1)" stroke-width="1.5" fill-opacity="1" fill="#ffffff"></path><g id="SvgjsG1013"><text id="SvgjsText1014" font-family="&quot;Microsoft YaHei&quot;, 微软雅黑, Arial" text-anchor="middle" font-size="20px" width="756px" fill="#323232" font-weight="400" align="middle" lineHeight="125%" anchor="middle" family="&quot;Microsoft YaHei&quot;, 微软雅黑, Arial" size="20px" weight="400" font-style="" opacity="1" y="9" transform="rotate(0)"><tspan id="SvgjsTspan1015" dy="25" x="388"><tspan id="SvgjsTspan1016" style="">IArchNetwork</tspan></tspan></text></g></g><g id="SvgjsG1017" transform="translate(499,601.3333435058594)"><path id="SvgjsPath1018" d="M 0 4Q 0 0 4 0L 146 0Q 150 0 150 4L 150 50Q 150 54 146 54L 4 54Q 0 54 0 50Z" stroke="rgba(33,41,48,1)" stroke-width="1.5" fill-opacity="1" fill="#ffffff"></path><g id="SvgjsG1019"><text id="SvgjsText1020" font-family="&quot;Microsoft YaHei&quot;, 微软雅黑, Arial" text-anchor="middle" font-size="20px" width="130px" fill="#323232" font-weight="400" align="middle" lineHeight="125%" anchor="middle" family="&quot;Microsoft YaHei&quot;, 微软雅黑, Arial" size="20px" weight="400" font-style="" opacity="1" y="9" transform="rotate(0)"><tspan id="SvgjsTspan1021" dy="25" x="75"><tspan id="SvgjsTspan1022" style="">Linux</tspan></tspan></text></g></g><g id="SvgjsG1023" transform="translate(713.5,601.3333435058594)"><path id="SvgjsPath1024" d="M 0 4Q 0 0 4 0L 146 0Q 150 0 150 4L 150 50Q 150 54 146 54L 4 54Q 0 54 0 50Z" stroke="rgba(33,41,48,1)" stroke-width="1.5" fill-opacity="1" fill="#ffffff"></path><g id="SvgjsG1025"><text id="SvgjsText1026" font-family="&quot;Microsoft YaHei&quot;, 微软雅黑, Arial" text-anchor="middle" font-size="20px" width="130px" fill="#323232" font-weight="400" align="middle" lineHeight="125%" anchor="middle" family="&quot;Microsoft YaHei&quot;, 微软雅黑, Arial" size="20px" weight="400" font-style="" opacity="1" y="9" transform="rotate(0)"><tspan id="SvgjsTspan1027" dy="25" x="75"><tspan id="SvgjsTspan1028" style="">Mac</tspan></tspan></text></g></g><g id="SvgjsG1029" transform="translate(284.5,601.3333435058594)"><path id="SvgjsPath1030" d="M 0 4Q 0 0 4 0L 146 0Q 150 0 150 4L 150 50Q 150 54 146 54L 4 54Q 0 54 0 50Z" stroke="rgba(33,41,48,1)" stroke-width="1.5" fill-opacity="1" fill="#ffffff"></path><g id="SvgjsG1031"><text id="SvgjsText1032" font-family="&quot;Microsoft YaHei&quot;, 微软雅黑, Arial" text-anchor="middle" font-size="20px" width="130px" fill="#323232" font-weight="400" align="middle" lineHeight="125%" anchor="middle" family="&quot;Microsoft YaHei&quot;, 微软雅黑, Arial" size="20px" weight="400" font-style="" opacity="1" y="9" transform="rotate(0)"><tspan id="SvgjsTspan1033" dy="25" x="75"><tspan id="SvgjsTspan1034" style="">Win</tspan></tspan></text></g></g><g id="SvgjsG1035"><path id="SvgjsPath1036" d="M52.94445037841797 571.3333435058594L549.7036806742351 571.3333435058594L549.7036806742351 571.3333435058594L1046.4629109700522 571.3333435058594" stroke="#323232" stroke-width="1.5" fill="none" marker-end="url(#SvgjsMarker1037)"></path></g><g id="SvgjsG1039" transform="translate(945.5,608.3333435058594)"><path id="SvgjsPath1040" d="M 0 0L 110 0L 126 16L 126 40L 0 40L 0 0Z" stroke="none" fill-opacity="1" fill="#fff7bc"></path><path id="SvgjsPath1041" d="M 110 0L 110 16L 126 16Z" stroke="none" fill-opacity="1" fill="#e4d089"></path><path id="SvgjsPath1042" d="M 0 0L 110 0L 126 16L 126 40L 0 40L 0 0Z" stroke="none" fill="none"></path><g id="SvgjsG1043"><text id="SvgjsText1044" font-family="&quot;Microsoft YaHei&quot;, 微软雅黑, Arial" text-anchor="middle" font-size="20px" width="106px" fill="#323232" font-weight="400" align="middle" lineHeight="125%" anchor="middle" family="&quot;Microsoft YaHei&quot;, 微软雅黑, Arial" size="20px" weight="400" font-style="" opacity="1" y="2" transform="rotate(0)"><tspan id="SvgjsTspan1045" dy="25" x="63"><tspan id="SvgjsTspan1046" style="">OS</tspan></tspan></text></g></g><g id="SvgjsG1047" transform="translate(945.5,485.3333435058594)"><path id="SvgjsPath1048" d="M 0 0L 110 0L 126 16L 126 40L 0 40L 0 0Z" stroke="none" fill-opacity="1" fill="#fff7bc"></path><path id="SvgjsPath1049" d="M 110 0L 110 16L 126 16Z" stroke="none" fill-opacity="1" fill="#e4d089"></path><path id="SvgjsPath1050" d="M 0 0L 110 0L 126 16L 126 40L 0 40L 0 0Z" stroke="none" fill="none"></path><g id="SvgjsG1051"><text id="SvgjsText1052" font-family="&quot;Microsoft YaHei&quot;, 微软雅黑, Arial" text-anchor="middle" font-size="20px" width="106px" fill="#323232" font-weight="400" align="middle" lineHeight="125%" anchor="middle" family="&quot;Microsoft YaHei&quot;, 微软雅黑, Arial" size="20px" weight="400" font-style="" opacity="1" y="2" transform="rotate(0)"><tspan id="SvgjsTspan1053" dy="25" x="63"><tspan id="SvgjsTspan1054" style="">平台层接口</tspan></tspan></text></g></g><g id="SvgjsG1055" transform="translate(447.00003814697266,210.51591164725164)"><path id="SvgjsPath1056" d="M 0 4Q 0 0 4 0L 149.444 0Q 153.444 0 153.444 4L 153.444 110.067Q 153.444 114.067 149.444 114.067L 4 114.067Q 0 114.067 0 110.067Z" stroke="rgba(33,41,48,1)" stroke-width="1.5" fill-opacity="1" fill="#ffffff"></path><g id="SvgjsG1057"><text id="SvgjsText1058" font-family="&quot;Microsoft YaHei&quot;, 微软雅黑, Arial" text-anchor="middle" font-size="20px" width="134px" fill="#323232" font-weight="400" align="middle" lineHeight="125%" anchor="middle" family="&quot;Microsoft YaHei&quot;, 微软雅黑, Arial" size="20px" weight="400" font-style="" opacity="1" y="39.0335" transform="rotate(0)"><tspan id="SvgjsTspan1059" dy="25" x="77"><tspan id="SvgjsTspan1060" style="">Socket</tspan></tspan></text></g></g><g id="SvgjsG1061" transform="translate(151.76389694213867,281.9246275765555)"><path id="SvgjsPath1062" d="M 0 4Q 0 0 4 0L 140.694 0Q 144.694 0 144.694 4L 144.694 117.25Q 144.694 121.25 140.694 121.25L 4 121.25Q 0 121.25 0 117.25Z" stroke="rgba(33,41,48,1)" stroke-width="1.5" fill-opacity="1" fill="#ffffff"></path><g id="SvgjsG1063"><text id="SvgjsText1064" font-family="&quot;Microsoft YaHei&quot;, 微软雅黑, Arial" text-anchor="middle" font-size="20px" width="125px" fill="#323232" font-weight="400" align="middle" lineHeight="125%" anchor="middle" family="&quot;Microsoft YaHei&quot;, 微软雅黑, Arial" size="20px" weight="400" font-style="" opacity="1" y="42.625" transform="rotate(0)"><tspan id="SvgjsTspan1065" dy="25" x="72.5"><tspan id="SvgjsTspan1066" style="">多路复用器</tspan></tspan></text></g></g><g id="SvgjsG1067" transform="translate(763.1924536568778,114.26591164725166)"><path id="SvgjsPath1068" d="M 0 4Q 0 0 4 0L 156.615 0Q 160.615 0 160.615 4L 160.615 122.567Q 160.615 126.567 156.615 126.567L 4 126.567Q 0 126.567 0 122.567Z" stroke="rgba(33,41,48,1)" stroke-width="1.5" fill-opacity="1" fill="#ffffff"></path><g id="SvgjsG1069"><text id="SvgjsText1070" font-family="&quot;Microsoft YaHei&quot;, 微软雅黑, Arial" text-anchor="middle" font-size="20px" width="141px" fill="#323232" font-weight="400" align="middle" lineHeight="125%" anchor="middle" family="&quot;Microsoft YaHei&quot;, 微软雅黑, Arial" size="20px" weight="400" font-style="" opacity="1" y="45.2835" transform="rotate(0)"><tspan id="SvgjsTspan1071" dy="25" x="80.5"><tspan id="SvgjsTspan1072" style="">事件机制</tspan></tspan></text></g></g><g id="SvgjsG1073"><path id="SvgjsPath1074" d="M47.5 450.0833435058594L547.0972061157227 450.0833435058594L547.0972061157227 450.0833435058594L1046.6944122314453 450.0833435058594" stroke="#323232" stroke-width="1.5" fill="none" marker-end="url(#SvgjsMarker1075)"></path></g><g id="SvgjsG1077"><path id="SvgjsPath1078" d="M600.1017163540414 246.0554295556285L760.8262961446331 157.71717875842884" stroke="#323232" stroke-width="1.5" fill="none" marker-end="url(#SvgjsMarker1079)"></path></g><g id="SvgjsG1081"><path id="SvgjsPath1082" d="M762.787351675593 198.028302702843L602.2820744952089 286.36483542845656" stroke="#323232" stroke-width="1.5" fill="none" marker-end="url(#SvgjsMarker1083)"></path></g><g id="SvgjsG1085"><path id="SvgjsPath1086" d="M296.3210082261576 313.4700240829016L444.58078104701 240.0018633304072" stroke="#323232" stroke-width="1.5" fill="none" marker-end="url(#SvgjsMarker1087)"></path></g><g id="SvgjsG1089"><path id="SvgjsPath1090" d="M446.9712222884147 287.31639072409007L297.8801789770167 360.79130705849224" stroke="#323232" stroke-width="1.5" fill="none" marker-end="url(#SvgjsMarker1091)"></path></g><g id="SvgjsG1093"><path id="SvgjsPath1094" d="M25 91.9166768391927L524.5972061157227 91.9166768391927L524.5972061157227 91.9166768391927L1024.1944122314453 91.9166768391927" stroke="#323232" stroke-width="1.5" fill="none" marker-end="url(#SvgjsMarker1095)"></path></g><g id="SvgjsG1097" transform="translate(500.44445037841797,25)"><path id="SvgjsPath1098" d="M 0 0L 100 0L 100 40L 0 40Z" stroke="none" fill="none"></path><g id="SvgjsG1099"><text id="SvgjsText1100" font-family="&quot;Microsoft YaHei&quot;, 微软雅黑, Arial" text-anchor="middle" font-size="20px" width="100px" fill="#323232" font-weight="400" align="middle" lineHeight="125%" anchor="middle" family="&quot;Microsoft YaHei&quot;, 微软雅黑, Arial" size="20px" weight="400" font-style="" opacity="1" y="2" transform="rotate(0)"><tspan id="SvgjsTspan1101" dy="25" x="50"><tspan id="SvgjsTspan1102" style="">APP</tspan></tspan></text></g></g><g id="SvgjsG1103" transform="translate(284.5,216.66667938232422)"><path id="SvgjsPath1104" d="M 0 0L 132.5 0L 132.5 40L 0 40Z" stroke="none" fill="none"></path><g id="SvgjsG1105"><text id="SvgjsText1106" font-family="&quot;Microsoft YaHei&quot;, 微软雅黑, Arial" text-anchor="middle" font-size="20px" width="133px" fill="#323232" font-weight="400" align="middle" lineHeight="125%" anchor="middle" family="&quot;Microsoft YaHei&quot;, 微软雅黑, Arial" size="20px" weight="400" font-style="" opacity="1" y="2" transform="rotate(0)"><tspan id="SvgjsTspan1107" dy="25" x="66.5"><tspan id="SvgjsTspan1108" style="">监控网络I/O</tspan></tspan></text></g></g><g id="SvgjsG1109"><path id="SvgjsPath1110" d="M863.5004536568778 134.26591164725164L863.5004536568778 68.6111068725586" stroke="#323232" stroke-width="1.5" fill="none" marker-end="url(#SvgjsMarker1111)"></path></g><g id="SvgjsG1113"><path id="SvgjsPath1114" d="M896.2777709960938 67.77778625488281L896.2777709960938 101.02184895106723L896.2777709960938 101.02184895106723L896.2777709960938 134.26591164725164" stroke="#323232" stroke-width="1.5" fill="none" marker-end="url(#SvgjsMarker1115)"></path></g><g id="SvgjsG1117"><path id="SvgjsPath1118" d="M364.000252259754 485.3333435058593L364.000252259754 356.1593803311101" stroke="#323232" stroke-width="1.5" fill="none" marker-end="url(#SvgjsMarker1119)"></path></g><g id="SvgjsG1121"><path id="SvgjsPath1122" d="M396.77756959897 354.51984569004605L396.77756959897 419.92659459795266L396.77756959897 419.92659459795266L396.77756959897 485.3333435058593" stroke="#323232" stroke-width="1.5" fill="none" marker-end="url(#SvgjsMarker1123)"></path></g><g id="SvgjsG1125"></g></svg>