<svg id="SvgjsSvg1006" width="653.2222137451172" height="545" xmlns="http://www.w3.org/2000/svg" version="1.1" xmlns:xlink="http://www.w3.org/1999/xlink" xmlns:svgjs="http://svgjs.com/svgjs"><defs id="SvgjsDefs1007"><pattern patternUnits="userSpaceOnUse" id="pattern_mark_0" width="300" height="300"><text x="150" y="100" fill="rgba(229,229,229,0.8)" font-size="18" transform="rotate(-45, 150, 150)" style="dominant-baseline: middle; text-anchor: middle;"></text></pattern><pattern patternUnits="userSpaceOnUse" id="pattern_mark_1" width="300" height="300"><text x="150" y="200" fill="rgba(229,229,229,0.8)" font-size="18" transform="rotate(-45, 150, 150)" style="dominant-baseline: middle; text-anchor: middle;"></text></pattern><marker id="SvgjsMarker1033" markerWidth="13" markerHeight="9" refX="9.5" refY="4.5" viewBox="0 0 13 9" orient="auto" markerUnits="userSpaceOnUse" stroke-dasharray="0,0"><path id="SvgjsPath1034" d="M0,0 L13,4.5 L0,9 L0,0" fill="#323232" stroke="#323232" stroke-width="1"></path></marker><marker id="SvgjsMarker1053" markerWidth="13" markerHeight="9" refX="9.5" refY="4.5" viewBox="0 0 13 9" orient="auto" markerUnits="userSpaceOnUse" stroke-dasharray="0,0"><path id="SvgjsPath1054" d="M0,0 L13,4.5 L0,9 L0,0" fill="#323232" stroke="#323232" stroke-width="1"></path></marker></defs><rect id="svgbackgroundid" width="653.2222137451172" height="545" fill="transparent"></rect><rect id="SvgjsRect1009" width="653.2222137451172" height="545" fill="url(#pattern_mark_0)"></rect><rect id="SvgjsRect1010" width="653.2222137451172" height="545" fill="url(#pattern_mark_1)"></rect><g id="SvgjsG1011" transform="translate(295,25)"><path id="SvgjsPath1012" d="M 0 4Q 0 0 4 0L 232 0Q 236 0 236 4L 236 101Q 236 105 232 105L 4 105Q 0 105 0 101Z" stroke="rgba(255,255,255,1)" stroke-width="1.5" fill-opacity="1" fill="#f1ac6a"></path><g id="SvgjsG1013"><text id="SvgjsText1014" font-family="&quot;Microsoft YaHei&quot;, 微软雅黑, Arial" text-anchor="middle" font-size="24px" width="216px" fill="#323232" font-weight="400" align="middle" lineHeight="125%" anchor="middle" family="&quot;Microsoft YaHei&quot;, 微软雅黑, Arial" size="24px" weight="400" font-style="" opacity="1" y="31.5" transform="rotate(0)"><tspan id="SvgjsTspan1015" dy="30" x="118"><tspan id="SvgjsTspan1016" style="">Kernel</tspan></tspan></text></g></g><g id="SvgjsG1017" transform="translate(294,131)"><path id="SvgjsPath1018" d="M 0 4Q 0 0 4 0L 232 0Q 236 0 236 4L 236 361Q 236 365 232 365L 4 365Q 0 365 0 361Z" stroke="rgba(255,255,255,1)" stroke-width="1.5" fill-opacity="1" fill="#4669ea"></path><g id="SvgjsG1019"><text id="SvgjsText1020" font-family="&quot;Microsoft YaHei&quot;, 微软雅黑, Arial" text-anchor="middle" font-size="24px" width="216px" fill="#ffffff" font-weight="400" align="middle" lineHeight="125%" anchor="middle" family="&quot;Microsoft YaHei&quot;, 微软雅黑, Arial" size="24px" weight="400" font-style="" opacity="1" y="161.5" transform="rotate(0)"><tspan id="SvgjsTspan1021" dy="30" x="118"><tspan id="SvgjsTspan1022" style="">User</tspan></tspan></text></g></g><g id="SvgjsG1023" transform="translate(25,106)"><path id="SvgjsPath1024" d="M 0 0L 171 0L 187 16L 187 40L 0 40L 0 0Z" stroke="none" fill-opacity="1" fill="#fff7bc"></path><path id="SvgjsPath1025" d="M 171 0L 171 16L 187 16Z" stroke="none" fill-opacity="1" fill="#e4d089"></path><path id="SvgjsPath1026" d="M 0 0L 171 0L 187 16L 187 40L 0 40L 0 0Z" stroke="none" fill="none"></path><g id="SvgjsG1027"><text id="SvgjsText1028" font-family="&quot;Microsoft YaHei&quot;, 微软雅黑, Arial" text-anchor="middle" font-size="24px" width="167px" fill="#323232" font-weight="400" align="middle" lineHeight="125%" anchor="middle" family="&quot;Microsoft YaHei&quot;, 微软雅黑, Arial" size="24px" weight="400" font-style="" opacity="1" y="-1" transform="rotate(0)"><tspan id="SvgjsTspan1029" dy="30" x="93.5"><tspan id="SvgjsTspan1030" style="">0xC0000000</tspan></tspan></text></g></g><g id="SvgjsG1031"><path id="SvgjsPath1032" d="M212 126L253.9659258262891 126L253.9659258262891 125.48236190979497L293.23185165257814 125.48236190979497" stroke="#323232" stroke-width="1.5" fill="none" marker-end="url(#SvgjsMarker1033)"></path></g><g id="SvgjsG1035" transform="translate(25,106)"><path id="SvgjsPath1036" d="M 0 0L 171 0L 187 16L 187 40L 0 40L 0 0Z" stroke="none" fill-opacity="1" fill="#fff7bc"></path><path id="SvgjsPath1037" d="M 171 0L 171 16L 187 16Z" stroke="none" fill-opacity="1" fill="#e4d089"></path><path id="SvgjsPath1038" d="M 0 0L 171 0L 187 16L 187 40L 0 40L 0 0Z" stroke="none" fill="none"></path><g id="SvgjsG1039"><text id="SvgjsText1040" font-family="&quot;Microsoft YaHei&quot;, 微软雅黑, Arial" text-anchor="middle" font-size="24px" width="167px" fill="#323232" font-weight="400" align="middle" lineHeight="125%" anchor="middle" family="&quot;Microsoft YaHei&quot;, 微软雅黑, Arial" size="24px" weight="400" font-style="" opacity="1" y="-1" transform="rotate(0)"><tspan id="SvgjsTspan1041" dy="30" x="93.5"><tspan id="SvgjsTspan1042" style="">0xC0000000</tspan></tspan></text></g></g><g id="SvgjsG1043" transform="translate(25,466)"><path id="SvgjsPath1044" d="M 0 0L 171 0L 187 16L 187 54L 0 54L 0 0Z" stroke="none" fill-opacity="1" fill="#fff7bc"></path><path id="SvgjsPath1045" d="M 171 0L 171 16L 187 16Z" stroke="none" fill-opacity="1" fill="#e4d089"></path><path id="SvgjsPath1046" d="M 0 0L 171 0L 187 16L 187 54L 0 54L 0 0Z" stroke="none" fill="none"></path><g id="SvgjsG1047"><text id="SvgjsText1048" font-family="&quot;Microsoft YaHei&quot;, 微软雅黑, Arial" text-anchor="middle" font-size="24px" width="167px" fill="#323232" font-weight="400" align="middle" lineHeight="125%" anchor="middle" family="&quot;Microsoft YaHei&quot;, 微软雅黑, Arial" size="24px" weight="400" font-style="" opacity="1" y="6" transform="rotate(0)"><tspan id="SvgjsTspan1049" dy="30" x="93.5"><tspan id="SvgjsTspan1050" style="">0x00000000</tspan></tspan></text></g></g><g id="SvgjsG1051"><path id="SvgjsPath1052" d="M212 493L253.32520765859664 493L253.32520765859664 493.0500279890439L291.9504153171933 493.0500279890439" stroke="#323232" stroke-width="1.5" fill="none" marker-end="url(#SvgjsMarker1053)"></path></g><g id="SvgjsG1055" transform="translate(525.2222137451172,61.888885498046875)"><path id="SvgjsPath1056" d="M 0 0L 100 0L 100 40L 0 40Z" stroke="none" fill="none"></path><g id="SvgjsG1057"><text id="SvgjsText1058" font-family="&quot;Microsoft YaHei&quot;, 微软雅黑, Arial" text-anchor="middle" font-size="24px" width="100px" fill="#323232" font-weight="400" align="middle" lineHeight="125%" anchor="middle" family="&quot;Microsoft YaHei&quot;, 微软雅黑, Arial" size="24px" weight="400" font-style="" opacity="1" y="-1" transform="rotate(0)"><tspan id="SvgjsTspan1059" dy="30" x="50"><tspan id="SvgjsTspan1060" style="">1GB</tspan></tspan></text></g></g><g id="SvgjsG1061" transform="translate(528.2222137451172,301.8888854980469)"><path id="SvgjsPath1062" d="M 0 0L 100 0L 100 40L 0 40Z" stroke="none" fill="none"></path><g id="SvgjsG1063"><text id="SvgjsText1064" font-family="&quot;Microsoft YaHei&quot;, 微软雅黑, Arial" text-anchor="middle" font-size="24px" width="100px" fill="#323232" font-weight="400" align="middle" lineHeight="125%" anchor="middle" family="&quot;Microsoft YaHei&quot;, 微软雅黑, Arial" size="24px" weight="400" font-style="" opacity="1" y="-1" transform="rotate(0)"><tspan id="SvgjsTspan1065" dy="30" x="50"><tspan id="SvgjsTspan1066" style="">3GB</tspan></tspan></text></g></g><g id="SvgjsG1067"></g></svg>