<svg id="SvgjsSvg1006" width="1587.7777777777778" height="327.11111111111114" xmlns="http://www.w3.org/2000/svg" version="1.1" xmlns:xlink="http://www.w3.org/1999/xlink" xmlns:svgjs="http://svgjs.com/svgjs"><defs id="SvgjsDefs1007"><pattern patternUnits="userSpaceOnUse" id="pattern_mark_0" width="300" height="300"><text x="150" y="100" fill="rgba(229,229,229,0.8)" font-size="18" transform="rotate(-45, 150, 150)" style="dominant-baseline: middle; text-anchor: middle;"></text></pattern><pattern patternUnits="userSpaceOnUse" id="pattern_mark_1" width="300" height="300"><text x="150" y="200" fill="rgba(229,229,229,0.8)" font-size="18" transform="rotate(-45, 150, 150)" style="dominant-baseline: middle; text-anchor: middle;"></text></pattern><marker id="SvgjsMarker1049" markerWidth="13" markerHeight="9" refX="9.5" refY="4.5" viewBox="0 0 13 9" orient="auto" markerUnits="userSpaceOnUse" stroke-dasharray="0,0"><path id="SvgjsPath1050" d="M0,0 L13,4.5 L0,9 L0,0" fill="#323232" stroke="#323232" stroke-width="1"></path></marker></defs><rect id="svgbackgroundid" width="1587.7777777777778" height="327.11111111111114" fill="transparent"></rect><rect id="SvgjsRect1009" width="1587.7777777777778" height="327.11111111111114" fill="url(#pattern_mark_0)"></rect><rect id="SvgjsRect1010" width="1587.7777777777778" height="327.11111111111114" fill="url(#pattern_mark_1)"></rect><g id="SvgjsG1011" transform="translate(25,214.8888888888889)"><path id="SvgjsPath1012" d="M 29.074 0L 1508.704 0C 1547.469 0 1547.469 87.222 1508.704 87.222L 29.074 87.222C -9.691 87.222 -9.691 0 29.074 0Z" stroke-dasharray="1,1.5" stroke="rgba(0,0,0,1)" stroke-width="1" fill-opacity="1" fill="#ffffff"></path><g id="SvgjsG1013"><text id="SvgjsText1014" font-family="&quot;Microsoft YaHei&quot;, 微软雅黑, Arial" text-anchor="middle" font-size="13px" width="1518px" fill="#323232" font-weight="400" align="middle" lineHeight="125%" anchor="middle" family="&quot;Microsoft YaHei&quot;, 微软雅黑, Arial" size="13px" weight="400" font-style="" opacity="1" y="32.986" transform="rotate(0)"></text></g></g><g id="SvgjsG1015" transform="translate(262.77777777777777,107.38888888888889)"><path id="SvgjsPath1016" d="M 29.074 0L 1135.37 0C 1174.136 0 1174.136 87.222 1135.37 87.222L 29.074 87.222C -9.691 87.222 -9.691 0 29.074 0Z" stroke-dasharray="1,1.5" stroke="rgba(0,0,0,1)" stroke-width="1" fill-opacity="1" fill="#ffffff"></path><g id="SvgjsG1017"><text id="SvgjsText1018" font-family="&quot;Microsoft YaHei&quot;, 微软雅黑, Arial" text-anchor="middle" font-size="13px" width="1145px" fill="#323232" font-weight="400" align="middle" lineHeight="125%" anchor="middle" family="&quot;Microsoft YaHei&quot;, 微软雅黑, Arial" size="13px" weight="400" font-style="" opacity="1" y="32.986" transform="rotate(0)"></text></g></g><g id="SvgjsG1019" transform="translate(382.0666673448351,131)"><path id="SvgjsPath1020" d="M 0 0L 165 0L 181 16L 181 40L 0 40L 0 0Z" stroke="none" fill-opacity="1" fill="#f1ac6a"></path><path id="SvgjsPath1021" d="M 165 0L 165 16L 181 16Z" stroke="none" fill-opacity="1" fill="#e4d089"></path><path id="SvgjsPath1022" d="M 0 0L 165 0L 181 16L 181 40L 0 40L 0 0Z" stroke="none" fill="none"></path><g id="SvgjsG1023"><text id="SvgjsText1024" font-family="&quot;Microsoft YaHei&quot;, 微软雅黑, Arial" text-anchor="middle" font-size="24px" width="161px" fill="#323232" font-weight="400" align="middle" lineHeight="125%" anchor="middle" family="&quot;Microsoft YaHei&quot;, 微软雅黑, Arial" size="24px" weight="400" font-style="" opacity="1" y="-1" transform="rotate(0)"><tspan id="SvgjsTspan1025" dy="30" x="90.5"><tspan id="SvgjsTspan1026" style="">你好！</tspan></tspan></text></g></g><g id="SvgjsG1027" transform="translate(1040.0666673448352,131)"><path id="SvgjsPath1028" d="M 0 0L 303 0L 319 16L 319 40L 0 40L 0 0Z" stroke="none" fill-opacity="1" fill="#f1ac6a"></path><path id="SvgjsPath1029" d="M 303 0L 303 16L 319 16Z" stroke="none" fill-opacity="1" fill="#e4d089"></path><path id="SvgjsPath1030" d="M 0 0L 303 0L 319 16L 319 40L 0 40L 0 0Z" stroke="none" fill="none"></path><g id="SvgjsG1031"><text id="SvgjsText1032" font-family="&quot;Microsoft YaHei&quot;, 微软雅黑, Arial" text-anchor="middle" font-size="24px" width="299px" fill="#323232" font-weight="400" align="middle" lineHeight="125%" anchor="middle" family="&quot;Microsoft YaHei&quot;, 微软雅黑, Arial" size="24px" weight="400" font-style="" opacity="1" y="-1" transform="rotate(0)"><tspan id="SvgjsTspan1033" dy="30" x="159.5"><tspan id="SvgjsTspan1034" style="">你好呀，很高兴见到你！</tspan></tspan></text></g></g><g id="SvgjsG1035" transform="translate(563.0666673448351,25)"><path id="SvgjsPath1036" d="M 0 0L 100 0L 100 40L 0 40Z" stroke="none" fill="none"></path><g id="SvgjsG1037"><text id="SvgjsText1038" font-family="&quot;Microsoft YaHei&quot;, 微软雅黑, Arial" text-anchor="middle" font-size="25px" width="100px" fill="#323232" font-weight="400" align="middle" lineHeight="125%" anchor="middle" family="&quot;Microsoft YaHei&quot;, 微软雅黑, Arial" size="25px" weight="400" font-style="" opacity="1" y="-1.625" transform="rotate(0)"><tspan id="SvgjsTspan1039" dy="31.25" x="50"><tspan id="SvgjsTspan1040" style="">用户输入</tspan></tspan></text></g></g><g id="SvgjsG1041" transform="translate(1024.0666673448352,25)"><path id="SvgjsPath1042" d="M 0 0L 100 0L 100 40L 0 40Z" stroke="none" fill="none"></path><g id="SvgjsG1043"><text id="SvgjsText1044" font-family="&quot;Microsoft YaHei&quot;, 微软雅黑, Arial" text-anchor="middle" font-size="25px" width="100px" fill="#323232" font-weight="400" align="middle" lineHeight="125%" anchor="middle" family="&quot;Microsoft YaHei&quot;, 微软雅黑, Arial" size="25px" weight="400" font-style="" opacity="1" y="-1.625" transform="rotate(0)"><tspan id="SvgjsTspan1045" dy="31.25" x="50"><tspan id="SvgjsTspan1046" style="">模型输出</tspan></tspan></text></g></g><g id="SvgjsG1047"><path id="SvgjsPath1048" d="M664.0666673448352 45L843.5666673448351 45L843.5666673448351 45L1021.116667344835 45" stroke="#323232" stroke-width="1.5" fill="none" marker-end="url(#SvgjsMarker1049)"></path></g><g id="SvgjsG1051" transform="translate(410.5666673448351,237)"><path id="SvgjsPath1052" d="M 0 0L 112 0L 128 16L 128 43L 0 43L 0 0Z" stroke="none" fill-opacity="1" fill="#f1ac6a"></path><path id="SvgjsPath1053" d="M 112 0L 112 16L 128 16Z" stroke="none" fill-opacity="1" fill="#e4d089"></path><path id="SvgjsPath1054" d="M 0 0L 112 0L 128 16L 128 43L 0 43L 0 0Z" stroke="none" fill="none"></path><g id="SvgjsG1055"><text id="SvgjsText1056" font-family="&quot;Microsoft YaHei&quot;, 微软雅黑, Arial" text-anchor="middle" font-size="24px" width="108px" fill="#323232" font-weight="400" align="middle" lineHeight="125%" anchor="middle" family="&quot;Microsoft YaHei&quot;, 微软雅黑, Arial" size="24px" weight="400" font-style="" opacity="1" y="0.5" transform="rotate(0)"><tspan id="SvgjsTspan1057" dy="30" x="64"><tspan id="SvgjsTspan1058" style="">你好 ！</tspan></tspan></text></g></g><g id="SvgjsG1059" transform="translate(94.56666734483511,237)"><path id="SvgjsPath1060" d="M 0 4Q 0 0 4 0L 180 0Q 184 0 184 4L 184 39Q 184 43 180 43L 4 43Q 0 43 0 39Z" stroke="rgba(255,255,255,1)" stroke-width="1.5" fill-opacity="1" fill="#5b79e8"></path><g id="SvgjsG1061"><text id="SvgjsText1062" font-family="&quot;Microsoft YaHei&quot;, 微软雅黑, Arial" text-anchor="middle" font-size="24px" width="164px" fill="#ffffff" font-weight="400" align="middle" lineHeight="125%" anchor="middle" family="&quot;Microsoft YaHei&quot;, 微软雅黑, Arial" size="24px" weight="400" font-style="" opacity="1" y="0.5" transform="rotate(0)"><tspan id="SvgjsTspan1063" dy="30" x="92"><tspan id="SvgjsTspan1064" style="">&lt;|im_start|&gt;</tspan></tspan></text></g></g><g id="SvgjsG1065" transform="translate(280.5666673448351,237)"><path id="SvgjsPath1066" d="M 0 4Q 0 0 4 0L 124 0Q 128 0 128 4L 128 39Q 128 43 124 43L 4 43Q 0 43 0 39Z" stroke="rgba(33,41,48,1)" stroke-width="1.5" fill-opacity="1" fill="#95da69"></path><g id="SvgjsG1067"><text id="SvgjsText1068" font-family="&quot;Microsoft YaHei&quot;, 微软雅黑, Arial" text-anchor="middle" font-size="24px" width="108px" fill="#323232" font-weight="400" align="middle" lineHeight="125%" anchor="middle" family="&quot;Microsoft YaHei&quot;, 微软雅黑, Arial" size="24px" weight="400" font-style="" opacity="1" y="0.5" transform="rotate(0)"><tspan id="SvgjsTspan1069" dy="30" x="64"><tspan id="SvgjsTspan1070" style="">user</tspan></tspan></text></g></g><g id="SvgjsG1071" transform="translate(540.5666673448351,237)"><path id="SvgjsPath1072" d="M 0 4Q 0 0 4 0L 176 0Q 180 0 180 4L 180 39Q 180 43 176 43L 4 43Q 0 43 0 39Z" stroke="rgba(255,255,255,1)" stroke-width="1.5" fill-opacity="1" fill="#5b79e8"></path><g id="SvgjsG1073"><text id="SvgjsText1074" font-family="&quot;Microsoft YaHei&quot;, 微软雅黑, Arial" text-anchor="middle" font-size="24px" width="160px" fill="#ffffff" font-weight="400" align="middle" lineHeight="125%" anchor="middle" family="&quot;Microsoft YaHei&quot;, 微软雅黑, Arial" size="24px" weight="400" font-style="" opacity="1" y="0.5" transform="rotate(0)"><tspan id="SvgjsTspan1075" dy="30" x="90"><tspan id="SvgjsTspan1076" style="">&lt;|im_start|&gt;</tspan></tspan></text></g></g><g id="SvgjsG1077" transform="translate(722.5666673448351,237)"><path id="SvgjsPath1078" d="M 0 4Q 0 0 4 0L 124 0Q 128 0 128 4L 128 39Q 128 43 124 43L 4 43Q 0 43 0 39Z" stroke="rgba(255,255,255,1)" stroke-width="1.5" fill-opacity="1" fill="#ec7270"></path><g id="SvgjsG1079"><text id="SvgjsText1080" font-family="&quot;Microsoft YaHei&quot;, 微软雅黑, Arial" text-anchor="middle" font-size="24px" width="108px" fill="#323232" font-weight="400" align="middle" lineHeight="125%" anchor="middle" family="&quot;Microsoft YaHei&quot;, 微软雅黑, Arial" size="24px" weight="400" font-style="" opacity="1" y="0.5" transform="rotate(0)"><tspan id="SvgjsTspan1081" dy="30" x="64"><tspan id="SvgjsTspan1082" style="">assistant</tspan></tspan></text></g></g><g id="SvgjsG1083" transform="translate(1342.6666734483508,237)"><path id="SvgjsPath1084" d="M 0 4Q 0 0 4 0L 171.4 0Q 175.4 0 175.4 4L 175.4 39Q 175.4 43 171.4 43L 4 43Q 0 43 0 39Z" stroke="rgba(255,255,255,1)" stroke-width="1.5" fill-opacity="1" fill="#5b79e8"></path><g id="SvgjsG1085"><text id="SvgjsText1086" font-family="&quot;Microsoft YaHei&quot;, 微软雅黑, Arial" text-anchor="middle" font-size="24px" width="156px" fill="#ffffff" font-weight="400" align="middle" lineHeight="125%" anchor="middle" family="&quot;Microsoft YaHei&quot;, 微软雅黑, Arial" size="24px" weight="400" font-style="" opacity="1" y="0.5" transform="rotate(0)"><tspan id="SvgjsTspan1087" dy="30" x="88"><tspan id="SvgjsTspan1088" style="">&lt;|im_end|&gt;</tspan></tspan></text></g></g><g id="SvgjsG1089" transform="translate(1024.0666673448352,238.5)"><path id="SvgjsPath1090" d="M 0 0L 303 0L 319 16L 319 40L 0 40L 0 0Z" stroke="none" fill-opacity="1" fill="#f1ac6a"></path><path id="SvgjsPath1091" d="M 303 0L 303 16L 319 16Z" stroke="none" fill-opacity="1" fill="#e4d089"></path><path id="SvgjsPath1092" d="M 0 0L 303 0L 319 16L 319 40L 0 40L 0 0Z" stroke="none" fill="none"></path><g id="SvgjsG1093"><text id="SvgjsText1094" font-family="&quot;Microsoft YaHei&quot;, 微软雅黑, Arial" text-anchor="middle" font-size="24px" width="299px" fill="#323232" font-weight="400" align="middle" lineHeight="125%" anchor="middle" family="&quot;Microsoft YaHei&quot;, 微软雅黑, Arial" size="24px" weight="400" font-style="" opacity="1" y="-1" transform="rotate(0)"><tspan id="SvgjsTspan1095" dy="30" x="159.5"><tspan id="SvgjsTspan1096" style="">你好呀，很高兴见到你！</tspan></tspan></text></g></g><g id="SvgjsG1097"></g></svg>