<svg id="SvgjsSvg1006" width="1706.7777777777778" height="492.50793650793645" xmlns="http://www.w3.org/2000/svg" version="1.1" xmlns:xlink="http://www.w3.org/1999/xlink" xmlns:svgjs="http://svgjs.com/svgjs"><defs id="SvgjsDefs1007"><pattern patternUnits="userSpaceOnUse" id="pattern_mark_0" width="300" height="300"><text x="150" y="100" fill="rgba(229,229,229,0.8)" font-size="18" transform="rotate(-45, 150, 150)" style="dominant-baseline: middle; text-anchor: middle;"></text></pattern><pattern patternUnits="userSpaceOnUse" id="pattern_mark_1" width="300" height="300"><text x="150" y="200" fill="rgba(229,229,229,0.8)" font-size="18" transform="rotate(-45, 150, 150)" style="dominant-baseline: middle; text-anchor: middle;"></text></pattern><marker id="SvgjsMarker1121" markerWidth="14" markerHeight="12" refX="16" refY="6" viewBox="0 0 14 12" orient="auto" markerUnits="userSpaceOnUse" stroke-dasharray="0,0"><path id="SvgjsPath1122" d="M1,1 L14,6 L1,11L1,1" fill="#ffffff" stroke="#323232" stroke-width="1.5"></path></marker><marker id="SvgjsMarker1125" markerWidth="14" markerHeight="12" refX="16" refY="6" viewBox="0 0 14 12" orient="auto" markerUnits="userSpaceOnUse" stroke-dasharray="0,0"><path id="SvgjsPath1126" d="M1,1 L14,6 L1,11L1,1" fill="#ffffff" stroke="#323232" stroke-width="1.5"></path></marker><marker id="SvgjsMarker1129" markerWidth="14" markerHeight="12" refX="16" refY="6" viewBox="0 0 14 12" orient="auto" markerUnits="userSpaceOnUse" stroke-dasharray="0,0"><path id="SvgjsPath1130" d="M1,1 L14,6 L1,11L1,1" fill="#ffffff" stroke="#323232" stroke-width="1.5"></path></marker><marker id="SvgjsMarker1133" markerWidth="14" markerHeight="12" refX="16" refY="6" viewBox="0 0 14 12" orient="auto" markerUnits="userSpaceOnUse" stroke-dasharray="0,0"><path id="SvgjsPath1134" d="M1,1 L14,6 L1,11L1,1" fill="#ffffff" stroke="#323232" stroke-width="1.5"></path></marker><marker id="SvgjsMarker1137" markerWidth="14" markerHeight="12" refX="16" refY="6" viewBox="0 0 14 12" orient="auto" markerUnits="userSpaceOnUse" stroke-dasharray="0,0"><path id="SvgjsPath1138" d="M1,1 L14,6 L1,11L1,1" fill="#ffffff" stroke="#323232" stroke-width="1.5"></path></marker><marker id="SvgjsMarker1141" markerWidth="14" markerHeight="12" refX="16" refY="6" viewBox="0 0 14 12" orient="auto" markerUnits="userSpaceOnUse" stroke-dasharray="0,0"><path id="SvgjsPath1142" d="M1,1 L14,6 L1,11L1,1" fill="#ffffff" stroke="#323232" stroke-width="1.5"></path></marker><marker id="SvgjsMarker1145" markerWidth="14" markerHeight="12" refX="16" refY="6" viewBox="0 0 14 12" orient="auto" markerUnits="userSpaceOnUse" stroke-dasharray="0,0"><path id="SvgjsPath1146" d="M1,1 L14,6 L1,11L1,1" fill="#ffffff" stroke="#323232" stroke-width="1.5"></path></marker><marker id="SvgjsMarker1149" markerWidth="14" markerHeight="12" refX="16" refY="6" viewBox="0 0 14 12" orient="auto" markerUnits="userSpaceOnUse" stroke-dasharray="0,0"><path id="SvgjsPath1150" d="M1,1 L14,6 L1,11L1,1" fill="#ffffff" stroke="#323232" stroke-width="1.5"></path></marker></defs><rect id="svgbackgroundid" width="1706.7777777777778" height="492.50793650793645" fill="transparent"></rect><rect id="SvgjsRect1009" width="1706.7777777777778" height="492.50793650793645" fill="url(#pattern_mark_0)"></rect><rect id="SvgjsRect1010" width="1706.7777777777778" height="492.50793650793645" fill="url(#pattern_mark_1)"></rect><g id="SvgjsG1011" transform="translate(579.9444444444443,25)"><path id="SvgjsPath1012" d="M 0 4Q 0 0 4 0L 226 0Q 230 0 230 4L 230 94.389Q 230 98.389 226 98.389L 4 98.389Q 0 98.389 0 94.389Z" stroke="rgba(33,41,48,1)" stroke-width="1.5" fill-opacity="1" fill="#fadcdb"></path><path id="SvgjsPath1013" d="M 0 30L 230 30" stroke="rgba(33,41,48,1)" stroke-width="1.5" fill="none"></path><path id="SvgjsPath1014" d="M 0 0L 230 0L 230 98.389L 0 98.389Z" stroke="none" fill="none"></path><g id="SvgjsG1015"><text id="SvgjsText1016" font-family="&quot;Microsoft YaHei&quot;, 微软雅黑, Arial" text-anchor="middle" font-size="20px" width="210px" fill="#323232" font-weight="700" align="middle" lineHeight="125%" anchor="middle" family="&quot;Microsoft YaHei&quot;, 微软雅黑, Arial" size="20px" weight="700" font-style="" opacity="1" y="-3" transform="rotate(0)"><tspan id="SvgjsTspan1017" dy="25" x="115"><tspan id="SvgjsTspan1018" style="">ARCH_DAEMON</tspan></tspan></text></g><g id="SvgjsG1019"><text id="SvgjsText1020" font-family="&quot;Microsoft YaHei&quot;, 微软雅黑, Arial" text-anchor="start" font-size="20px" width="210px" fill="#323232" font-weight="400" align="middle" lineHeight="125%" anchor="start" family="&quot;Microsoft YaHei&quot;, 微软雅黑, Arial" size="20px" weight="400" font-style="" opacity="1" y="46.1945" transform="rotate(0)"><tspan id="SvgjsTspan1021" dy="25" x="10"><tspan id="SvgjsTspan1022" style=""> </tspan></tspan></text></g></g><g id="SvgjsG1023" transform="translate(145.1388888888889,241.3888888888889)"><path id="SvgjsPath1024" d="M 0 4Q 0 0 4 0L 226 0Q 230 0 230 4L 230 96.056Q 230 100.056 226 100.056L 4 100.056Q 0 100.056 0 96.056Z" stroke="rgba(33,41,48,1)" stroke-width="1.5" fill-opacity="1" fill="#fadded"></path><path id="SvgjsPath1025" d="M 0 30L 230 30" stroke="rgba(33,41,48,1)" stroke-width="1.5" fill="none"></path><path id="SvgjsPath1026" d="M 0 0L 230 0L 230 100.056L 0 100.056Z" stroke="none" fill="none"></path><g id="SvgjsG1027"><text id="SvgjsText1028" font-family="&quot;Microsoft YaHei&quot;, 微软雅黑, Arial" text-anchor="middle" font-size="20px" width="210px" fill="#323232" font-weight="700" align="middle" lineHeight="125%" anchor="middle" family="&quot;Microsoft YaHei&quot;, 微软雅黑, Arial" size="20px" weight="700" font-style="" opacity="1" y="-3" transform="rotate(0)"><tspan id="SvgjsTspan1029" dy="25" x="115"><tspan id="SvgjsTspan1030" style="">ARCH_CONSOLE</tspan></tspan></text></g><g id="SvgjsG1031"><text id="SvgjsText1032" font-family="&quot;Microsoft YaHei&quot;, 微软雅黑, Arial" text-anchor="start" font-size="20px" width="210px" fill="#323232" font-weight="400" align="middle" lineHeight="125%" anchor="start" family="&quot;Microsoft YaHei&quot;, 微软雅黑, Arial" size="20px" weight="400" font-style="" opacity="1" y="47.028" transform="rotate(0)"><tspan id="SvgjsTspan1033" dy="25" x="10"><tspan id="SvgjsTspan1034" style=""> </tspan></tspan></text></g></g><g id="SvgjsG1035" transform="translate(728.7857142857143,356.65873015872995)"><path id="SvgjsPath1036" d="M 0 4Q 0 0 4 0L 226 0Q 230 0 230 4L 230 106.849Q 230 110.849 226 110.849L 4 110.849Q 0 110.849 0 106.849Z" stroke="rgba(33,41,48,1)" stroke-width="1.5" fill-opacity="1" fill="#7985ec"></path><path id="SvgjsPath1037" d="M 0 30L 230 30" stroke="rgba(33,41,48,1)" stroke-width="1.5" fill="none"></path><path id="SvgjsPath1038" d="M 0 0L 230 0L 230 110.849L 0 110.849Z" stroke="none" fill="none"></path><g id="SvgjsG1039"><text id="SvgjsText1040" font-family="&quot;Microsoft YaHei&quot;, 微软雅黑, Arial" text-anchor="middle" font-size="20px" width="210px" fill="#ffffff" font-weight="700" align="middle" lineHeight="125%" anchor="middle" family="&quot;Microsoft YaHei&quot;, 微软雅黑, Arial" size="20px" weight="700" font-style="" opacity="1" y="-3" transform="rotate(0)"><tspan id="SvgjsTspan1041" dy="25" x="115"><tspan id="SvgjsTspan1042" style="">Arch</tspan></tspan></text></g><g id="SvgjsG1043"><text id="SvgjsText1044" font-family="&quot;Microsoft YaHei&quot;, 微软雅黑, Arial" text-anchor="start" font-size="20px" width="210px" fill="#ffffff" font-weight="400" align="middle" lineHeight="125%" anchor="start" family="&quot;Microsoft YaHei&quot;, 微软雅黑, Arial" size="20px" weight="400" font-style="" opacity="1" y="52.4245" transform="rotate(0)"><tspan id="SvgjsTspan1045" dy="25" x="10"><tspan id="SvgjsTspan1046" style=""> </tspan></tspan></text></g></g><g id="SvgjsG1047" transform="translate(892.1944444444442,25.06944444444443)"><path id="SvgjsPath1048" d="M 0 4Q 0 0 4 0L 226 0Q 230 0 230 4L 230 94.25Q 230 98.25 226 98.25L 4 98.25Q 0 98.25 0 94.25Z" stroke="rgba(33,41,48,1)" stroke-width="1.5" fill-opacity="1" fill="#fbeada"></path><path id="SvgjsPath1049" d="M 0 30L 230 30" stroke="rgba(33,41,48,1)" stroke-width="1.5" fill="none"></path><path id="SvgjsPath1050" d="M 0 0L 230 0L 230 98.25L 0 98.25Z" stroke="none" fill="none"></path><g id="SvgjsG1051"><text id="SvgjsText1052" font-family="&quot;Microsoft YaHei&quot;, 微软雅黑, Arial" text-anchor="middle" font-size="20px" width="210px" fill="#323232" font-weight="700" align="middle" lineHeight="125%" anchor="middle" family="&quot;Microsoft YaHei&quot;, 微软雅黑, Arial" size="20px" weight="700" font-style="" opacity="1" y="-3" transform="rotate(0)"><tspan id="SvgjsTspan1053" dy="25" x="115"><tspan id="SvgjsTspan1054" style="">ARCH_LOG</tspan></tspan></text></g><g id="SvgjsG1055"><text id="SvgjsText1056" font-family="&quot;Microsoft YaHei&quot;, 微软雅黑, Arial" text-anchor="start" font-size="20px" width="210px" fill="#323232" font-weight="400" align="middle" lineHeight="125%" anchor="start" family="&quot;Microsoft YaHei&quot;, 微软雅黑, Arial" size="20px" weight="400" font-style="" opacity="1" y="46.125" transform="rotate(0)"><tspan id="SvgjsTspan1057" dy="25" x="10"><tspan id="SvgjsTspan1058" style=""> </tspan></tspan></text></g></g><g id="SvgjsG1059" transform="translate(1328.4444444444446,241.38888888888886)"><path id="SvgjsPath1060" d="M 0 4Q 0 0 4 0L 226 0Q 230 0 230 4L 230 96.056Q 230 100.056 226 100.056L 4 100.056Q 0 100.056 0 96.056Z" stroke="rgba(33,41,48,1)" stroke-width="1.5" fill-opacity="1" fill="#e5f6da"></path><path id="SvgjsPath1061" d="M 0 30L 230 30" stroke="rgba(33,41,48,1)" stroke-width="1.5" fill="none"></path><path id="SvgjsPath1062" d="M 0 0L 230 0L 230 100.056L 0 100.056Z" stroke="none" fill="none"></path><g id="SvgjsG1063"><text id="SvgjsText1064" font-family="&quot;Microsoft YaHei&quot;, 微软雅黑, Arial" text-anchor="middle" font-size="20px" width="210px" fill="#323232" font-weight="700" align="middle" lineHeight="125%" anchor="middle" family="&quot;Microsoft YaHei&quot;, 微软雅黑, Arial" size="20px" weight="700" font-style="" opacity="1" y="-3" transform="rotate(0)"><tspan id="SvgjsTspan1065" dy="25" x="115"><tspan id="SvgjsTspan1066" style="">ARCH_MULTITHREAD</tspan></tspan></text></g><g id="SvgjsG1067"><text id="SvgjsText1068" font-family="&quot;Microsoft YaHei&quot;, 微软雅黑, Arial" text-anchor="start" font-size="20px" width="210px" fill="#323232" font-weight="400" align="middle" lineHeight="125%" anchor="start" family="&quot;Microsoft YaHei&quot;, 微软雅黑, Arial" size="20px" weight="400" font-style="" opacity="1" y="47.028" transform="rotate(0)"><tspan id="SvgjsTspan1069" dy="25" x="10"><tspan id="SvgjsTspan1070" style=""> </tspan></tspan></text></g></g><g id="SvgjsG1071" transform="translate(1221.7777777777778,112.77777777777777)"><path id="SvgjsPath1072" d="M 0 4Q 0 0 4 0L 226 0Q 230 0 230 4L 230 98.833Q 230 102.833 226 102.833L 4 102.833Q 0 102.833 0 98.833Z" stroke="rgba(33,41,48,1)" stroke-width="1.5" fill-opacity="1" fill="#fcf9ea"></path><path id="SvgjsPath1073" d="M 0 30L 230 30" stroke="rgba(33,41,48,1)" stroke-width="1.5" fill="none"></path><path id="SvgjsPath1074" d="M 0 0L 230 0L 230 102.833L 0 102.833Z" stroke="none" fill="none"></path><g id="SvgjsG1075"><text id="SvgjsText1076" font-family="&quot;Microsoft YaHei&quot;, 微软雅黑, Arial" text-anchor="middle" font-size="20px" width="210px" fill="#323232" font-weight="700" align="middle" lineHeight="125%" anchor="middle" family="&quot;Microsoft YaHei&quot;, 微软雅黑, Arial" size="20px" weight="700" font-style="" opacity="1" y="-3" transform="rotate(0)"><tspan id="SvgjsTspan1077" dy="25" x="115"><tspan id="SvgjsTspan1078" style="">ARCH_NETWORK</tspan></tspan></text></g><g id="SvgjsG1079"><text id="SvgjsText1080" font-family="&quot;Microsoft YaHei&quot;, 微软雅黑, Arial" text-anchor="start" font-size="20px" width="210px" fill="#323232" font-weight="400" align="middle" lineHeight="125%" anchor="start" family="&quot;Microsoft YaHei&quot;, 微软雅黑, Arial" size="20px" weight="400" font-style="" opacity="1" y="48.4165" transform="rotate(0)"><tspan id="SvgjsTspan1081" dy="25" x="10"><tspan id="SvgjsTspan1082" style=""> </tspan></tspan></text></g></g><g id="SvgjsG1083" transform="translate(267.69444444444446,115.0694444444444)"><path id="SvgjsPath1084" d="M 0 4Q 0 0 4 0L 226 0Q 230 0 230 4L 230 94.25Q 230 98.25 226 98.25L 4 98.25Q 0 98.25 0 94.25Z" stroke="rgba(33,41,48,1)" stroke-width="1.5" fill-opacity="1" fill="#f4c18f"></path><path id="SvgjsPath1085" d="M 0 30L 230 30" stroke="rgba(33,41,48,1)" stroke-width="1.5" fill="none"></path><path id="SvgjsPath1086" d="M 0 0L 230 0L 230 98.25L 0 98.25Z" stroke="none" fill="none"></path><g id="SvgjsG1087"><text id="SvgjsText1088" font-family="&quot;Microsoft YaHei&quot;, 微软雅黑, Arial" text-anchor="middle" font-size="20px" width="210px" fill="#323232" font-weight="700" align="middle" lineHeight="125%" anchor="middle" family="&quot;Microsoft YaHei&quot;, 微软雅黑, Arial" size="20px" weight="700" font-style="" opacity="1" y="-3" transform="rotate(0)"><tspan id="SvgjsTspan1089" dy="25" x="115"><tspan id="SvgjsTspan1090" style="">ARCH_SLEEP</tspan></tspan></text></g><g id="SvgjsG1091"><text id="SvgjsText1092" font-family="&quot;Microsoft YaHei&quot;, 微软雅黑, Arial" text-anchor="start" font-size="20px" width="210px" fill="#323232" font-weight="400" align="middle" lineHeight="125%" anchor="start" family="&quot;Microsoft YaHei&quot;, 微软雅黑, Arial" size="20px" weight="400" font-style="" opacity="1" y="46.125" transform="rotate(0)"><tspan id="SvgjsTspan1093" dy="25" x="10"><tspan id="SvgjsTspan1094" style=""> </tspan></tspan></text></g></g><g id="SvgjsG1095" transform="translate(25,364.38888888888874)"><path id="SvgjsPath1096" d="M 0 4Q 0 0 4 0L 226 0Q 230 0 230 4L 230 91.389Q 230 95.389 226 95.389L 4 95.389Q 0 95.389 0 91.389Z" stroke="rgba(33,41,48,1)" stroke-width="1.5" fill-opacity="1" fill="#b0e38f"></path><path id="SvgjsPath1097" d="M 0 30L 230 30" stroke="rgba(33,41,48,1)" stroke-width="1.5" fill="none"></path><path id="SvgjsPath1098" d="M 0 0L 230 0L 230 95.389L 0 95.389Z" stroke="none" fill="none"></path><g id="SvgjsG1099"><text id="SvgjsText1100" font-family="&quot;Microsoft YaHei&quot;, 微软雅黑, Arial" text-anchor="middle" font-size="20px" width="210px" fill="#323232" font-weight="700" align="middle" lineHeight="125%" anchor="middle" family="&quot;Microsoft YaHei&quot;, 微软雅黑, Arial" size="20px" weight="700" font-style="" opacity="1" y="-3" transform="rotate(0)"><tspan id="SvgjsTspan1101" dy="25" x="115"><tspan id="SvgjsTspan1102" style="">ARCH_STRING</tspan></tspan></text></g><g id="SvgjsG1103"><text id="SvgjsText1104" font-family="&quot;Microsoft YaHei&quot;, 微软雅黑, Arial" text-anchor="start" font-size="20px" width="210px" fill="#323232" font-weight="400" align="middle" lineHeight="125%" anchor="start" family="&quot;Microsoft YaHei&quot;, 微软雅黑, Arial" size="20px" weight="400" font-style="" opacity="1" y="44.6945" transform="rotate(0)"><tspan id="SvgjsTspan1105" dy="25" x="10"><tspan id="SvgjsTspan1106" style=""> </tspan></tspan></text></g></g><g id="SvgjsG1107" transform="translate(1451.7777777777778,356.61111111111103)"><path id="SvgjsPath1108" d="M 0 4Q 0 0 4 0L 226 0Q 230 0 230 4L 230 99.167Q 230 103.167 226 103.167L 4 103.167Q 0 103.167 0 99.167Z" stroke="rgba(33,41,48,1)" stroke-width="1.5" fill-opacity="1" fill="#dbf5f5"></path><path id="SvgjsPath1109" d="M 0 30L 230 30" stroke="rgba(33,41,48,1)" stroke-width="1.5" fill="none"></path><path id="SvgjsPath1110" d="M 0 0L 230 0L 230 103.167L 0 103.167Z" stroke="none" fill="none"></path><g id="SvgjsG1111"><text id="SvgjsText1112" font-family="&quot;Microsoft YaHei&quot;, 微软雅黑, Arial" text-anchor="middle" font-size="20px" width="210px" fill="#323232" font-weight="700" align="middle" lineHeight="125%" anchor="middle" family="&quot;Microsoft YaHei&quot;, 微软雅黑, Arial" size="20px" weight="700" font-style="" opacity="1" y="-3" transform="rotate(0)"><tspan id="SvgjsTspan1113" dy="25" x="115"><tspan id="SvgjsTspan1114" style="">ARCH_TIME</tspan></tspan></text></g><g id="SvgjsG1115"><text id="SvgjsText1116" font-family="&quot;Microsoft YaHei&quot;, 微软雅黑, Arial" text-anchor="start" font-size="20px" width="210px" fill="#323232" font-weight="400" align="middle" lineHeight="125%" anchor="start" family="&quot;Microsoft YaHei&quot;, 微软雅黑, Arial" size="20px" weight="400" font-style="" opacity="1" y="48.5835" transform="rotate(0)"><tspan id="SvgjsTspan1117" dy="25" x="10"><tspan id="SvgjsTspan1118" style=""> </tspan></tspan></text></g></g><g id="SvgjsG1119"><path id="SvgjsPath1120" d="M843.0695226692809 356.4360879153202L385.2727342636049 214.12095652071935" stroke="#323232" stroke-width="1.5" fill="none" marker-end="url(#SvgjsMarker1121)"></path></g><g id="SvgjsG1123"><path id="SvgjsPath1124" d="M843.0428779967272 356.555317162623L377.81309952924215 291.78895345265187" stroke="#323232" stroke-width="1.5" fill="none" marker-end="url(#SvgjsMarker1125)"></path></g><g id="SvgjsG1127"><path id="SvgjsPath1128" d="M844.4540637716989 356.3184229966188L1219.3717196282334 165.4195502280446" stroke="#323232" stroke-width="1.5" fill="none" marker-end="url(#SvgjsMarker1129)"></path></g><g id="SvgjsG1131"><path id="SvgjsPath1132" d="M844.5290098747782 356.5586718393447L1325.7685803238146 291.7768766164535" stroke="#323232" stroke-width="1.5" fill="none" marker-end="url(#SvgjsMarker1133)"></path></g><g id="SvgjsG1135"><path id="SvgjsPath1136" d="M843.3822922774995 356.0264717595862L696.3967636740178 125.66513023691772" stroke="#323232" stroke-width="1.5" fill="none" marker-end="url(#SvgjsMarker1137)"></path></g><g id="SvgjsG1139"><path id="SvgjsPath1140" d="M844.2159368972506 356.04439433483316L1005.6456430429139 125.53105341047291" stroke="#323232" stroke-width="1.5" fill="none" marker-end="url(#SvgjsMarker1141)"></path></g><g id="SvgjsG1143"><path id="SvgjsPath1144" d="M728.0357891514132 412.07313332225493L257.6997304834845 405.4270375001984" stroke="#323232" stroke-width="1.5" fill="none" marker-end="url(#SvgjsMarker1145)"></path></g><g id="SvgjsG1147"><path id="SvgjsPath1148" d="M959.5356909433269 412.07781297728053L1449.0778618103727 408.2154129643283" stroke="#323232" stroke-width="1.5" fill="none" marker-end="url(#SvgjsMarker1149)"></path></g><g id="SvgjsG1151"></g></svg>