<svg id="SvgjsSvg1006" width="810.5178920200897" height="809.72727394104" xmlns="http://www.w3.org/2000/svg" version="1.1" xmlns:xlink="http://www.w3.org/1999/xlink" xmlns:svgjs="http://svgjs.com/svgjs"><defs id="SvgjsDefs1007"><pattern patternUnits="userSpaceOnUse" id="pattern_mark_0" width="300" height="300"><text x="150" y="100" fill="rgba(229,229,229,0.8)" font-size="18" transform="rotate(-45, 150, 150)" style="dominant-baseline: middle; text-anchor: middle;"></text></pattern><pattern patternUnits="userSpaceOnUse" id="pattern_mark_1" width="300" height="300"><text x="150" y="200" fill="rgba(229,229,229,0.8)" font-size="18" transform="rotate(-45, 150, 150)" style="dominant-baseline: middle; text-anchor: middle;"></text></pattern><marker id="SvgjsMarker1045" markerWidth="13" markerHeight="9" refX="9.5" refY="4.5" viewBox="0 0 13 9" orient="auto" markerUnits="userSpaceOnUse" stroke-dasharray="0,0"><path id="SvgjsPath1046" d="M0,0 L13,4.5 L0,9 L0,0" fill="#323232" stroke="#323232" stroke-width="1"></path></marker><marker id="SvgjsMarker1049" markerWidth="13" markerHeight="9" refX="9.5" refY="4.5" viewBox="0 0 13 9" orient="auto" markerUnits="userSpaceOnUse" stroke-dasharray="0,0"><path id="SvgjsPath1050" d="M0,0 L13,4.5 L0,9 L0,0" fill="#323232" stroke="#323232" stroke-width="1"></path></marker><marker id="SvgjsMarker1067" markerWidth="13" markerHeight="9" refX="9.5" refY="4.5" viewBox="0 0 13 9" orient="auto" markerUnits="userSpaceOnUse" stroke-dasharray="0,0"><path id="SvgjsPath1068" d="M0,0 L13,4.5 L0,9 L0,0" fill="#323232" stroke="#323232" stroke-width="1"></path></marker><marker id="SvgjsMarker1093" markerWidth="13" markerHeight="9" refX="9.5" refY="4.5" viewBox="0 0 13 9" orient="auto" markerUnits="userSpaceOnUse" stroke-dasharray="0,0"><path id="SvgjsPath1094" d="M0,0 L13,4.5 L0,9 L0,0" fill="#323232" stroke="#323232" stroke-width="1"></path></marker><marker id="SvgjsMarker1097" markerWidth="13" markerHeight="9" refX="9.5" refY="4.5" viewBox="0 0 13 9" orient="auto" markerUnits="userSpaceOnUse" stroke-dasharray="0,0"><path id="SvgjsPath1098" d="M0,0 L13,4.5 L0,9 L0,0" fill="#323232" stroke="#323232" stroke-width="1"></path></marker><marker id="SvgjsMarker1101" markerWidth="13" markerHeight="9" refX="9.5" refY="4.5" viewBox="0 0 13 9" orient="auto" markerUnits="userSpaceOnUse" stroke-dasharray="0,0"><path id="SvgjsPath1102" d="M0,0 L13,4.5 L0,9 L0,0" fill="#323232" stroke="#323232" stroke-width="1"></path></marker><marker id="SvgjsMarker1129" markerWidth="13" markerHeight="9" refX="9.5" refY="4.5" viewBox="0 0 13 9" orient="auto" markerUnits="userSpaceOnUse" stroke-dasharray="0,0"><path id="SvgjsPath1130" d="M0,0 L13,4.5 L0,9 L0,0" fill="#323232" stroke="#323232" stroke-width="1"></path></marker><marker id="SvgjsMarker1133" markerWidth="13" markerHeight="9" refX="9.5" refY="4.5" viewBox="0 0 13 9" orient="auto" markerUnits="userSpaceOnUse" stroke-dasharray="0,0"><path id="SvgjsPath1134" d="M0,0 L13,4.5 L0,9 L0,0" fill="#323232" stroke="#323232" stroke-width="1"></path></marker><marker id="SvgjsMarker1143" markerWidth="13" markerHeight="9" refX="9.5" refY="4.5" viewBox="0 0 13 9" orient="auto" markerUnits="userSpaceOnUse" stroke-dasharray="0,0"><path id="SvgjsPath1144" d="M0,0 L13,4.5 L0,9 L0,0" fill="#323232" stroke="#323232" stroke-width="1"></path></marker><marker id="SvgjsMarker1147" markerWidth="13" markerHeight="9" refX="9.5" refY="4.5" viewBox="0 0 13 9" orient="auto" markerUnits="userSpaceOnUse" stroke-dasharray="0,0"><path id="SvgjsPath1148" d="M0,0 L13,4.5 L0,9 L0,0" fill="#323232" stroke="#323232" stroke-width="1"></path></marker><marker id="SvgjsMarker1151" markerWidth="13" markerHeight="9" refX="9.5" refY="4.5" viewBox="0 0 13 9" orient="auto" markerUnits="userSpaceOnUse" stroke-dasharray="0,0"><path id="SvgjsPath1152" d="M0,0 L13,4.5 L0,9 L0,0" fill="#323232" stroke="#323232" stroke-width="1"></path></marker><marker id="SvgjsMarker1155" markerWidth="13" markerHeight="9" refX="9.5" refY="4.5" viewBox="0 0 13 9" orient="auto" markerUnits="userSpaceOnUse" stroke-dasharray="0,0"><path id="SvgjsPath1156" d="M0,0 L13,4.5 L0,9 L0,0" fill="#323232" stroke="#323232" stroke-width="1"></path></marker><marker id="SvgjsMarker1159" markerWidth="13" markerHeight="9" refX="9.5" refY="4.5" viewBox="0 0 13 9" orient="auto" markerUnits="userSpaceOnUse" stroke-dasharray="0,0"><path id="SvgjsPath1160" d="M0,0 L13,4.5 L0,9 L0,0" fill="#323232" stroke="#323232" stroke-width="1"></path></marker><marker id="SvgjsMarker1163" markerWidth="13" markerHeight="9" refX="9.5" refY="4.5" viewBox="0 0 13 9" orient="auto" markerUnits="userSpaceOnUse" stroke-dasharray="0,0"><path id="SvgjsPath1164" d="M0,0 L13,4.5 L0,9 L0,0" fill="#323232" stroke="#323232" stroke-width="1"></path></marker></defs><rect id="svgbackgroundid" width="810.5178920200897" height="809.72727394104" fill="transparent"></rect><rect id="SvgjsRect1009" width="810.5178920200897" height="809.72727394104" fill="url(#pattern_mark_0)"></rect><rect id="SvgjsRect1010" width="810.5178920200897" height="809.72727394104" fill="url(#pattern_mark_1)"></rect><g id="SvgjsG1011" transform="translate(25,298.22221035427526)"><path id="SvgjsPath1012" d="M 0 0L 760.518 0L 760.518 201L 0 201Z" stroke="rgba(33,41,48,1)" stroke-width="1.5" fill-opacity="1" fill="#ffffff"></path><g id="SvgjsG1013"><text id="SvgjsText1014" font-family="&quot;Microsoft YaHei&quot;, 微软雅黑, Arial" text-anchor="middle" font-size="18px" width="741px" fill="#323232" font-weight="400" align="middle" lineHeight="125%" anchor="middle" family="&quot;Microsoft YaHei&quot;, 微软雅黑, Arial" size="18px" weight="400" font-style="" opacity="1" y="84.75" transform="rotate(0)"></text></g></g><g id="SvgjsG1015" transform="translate(25,25)"><path id="SvgjsPath1016" d="M 0 0L 760.518 0L 760.518 200L 0 200Z" stroke="rgba(33,41,48,1)" stroke-width="1.5" fill-opacity="1" fill="#ffffff"></path><g id="SvgjsG1017"><text id="SvgjsText1018" font-family="&quot;Microsoft YaHei&quot;, 微软雅黑, Arial" text-anchor="middle" font-size="18px" width="741px" fill="#323232" font-weight="400" align="middle" lineHeight="125%" anchor="middle" family="&quot;Microsoft YaHei&quot;, 微软雅黑, Arial" size="18px" weight="400" font-style="" opacity="1" y="84.25" transform="rotate(0)"></text></g></g><g id="SvgjsG1019" transform="translate(294.146442958287,154.45454788208008)"><path id="SvgjsPath1020" d="M 0 4Q 0 0 3.9999999999999996 0L 99.809 0Q 103.809 0 103.809 4L 103.809 34.545Q 103.809 38.545 99.809 38.545L 3.9999999999999996 38.545Q 0 38.545 0 34.545Z" stroke="rgba(255,255,255,1)" stroke-width="1.5" fill-opacity="1" fill="#7bd144"></path><g id="SvgjsG1021"><text id="SvgjsText1022" font-family="&quot;Microsoft YaHei&quot;, 微软雅黑, Arial" text-anchor="middle" font-size="18px" width="84px" fill="#323232" font-weight="400" align="middle" lineHeight="125%" anchor="middle" family="&quot;Microsoft YaHei&quot;, 微软雅黑, Arial" size="18px" weight="400" font-style="" opacity="1" y="3.522500000000001" transform="rotate(0)"><tspan id="SvgjsTspan1023" dy="22.5" x="52"><tspan id="SvgjsTspan1024" style="">slistelm</tspan></tspan></text></g></g><g id="SvgjsG1025" transform="translate(355.25894601004484,306.7575716442533)"><path id="SvgjsPath1026" d="M 0 0L 100 0L 100 40L 0 40Z" stroke="none" fill="none"></path><g id="SvgjsG1027"><text id="SvgjsText1028" font-family="&quot;Microsoft YaHei&quot;, 微软雅黑, Arial" text-anchor="middle" font-size="18px" width="100px" fill="#323232" font-weight="400" align="middle" lineHeight="125%" anchor="middle" family="&quot;Microsoft YaHei&quot;, 微软雅黑, Arial" size="18px" weight="400" font-style="" opacity="1" y="4.25" transform="rotate(0)"><tspan id="SvgjsTspan1029" dy="22.5" x="50"><tspan id="SvgjsTspan1030" style="">新节点</tspan></tspan></text></g></g><g id="SvgjsG1031" transform="translate(240.1283180600126,235.42928526136615)"><path id="SvgjsPath1032" d="M 10.173 0L 20.654 0L 20.654 36.95L 30.827 36.95L 15.413 52.364L 0 36.95L 10.173 36.95L 10.173 0Z" stroke="rgba(33,41,48,1)" stroke-width="1.5" fill-opacity="1" fill="#000000"></path><g id="SvgjsG1033"><text id="SvgjsText1034" font-family="&quot;Microsoft YaHei&quot;, 微软雅黑, Arial" text-anchor="middle" font-size="18px" width="44px" fill="#323232" font-weight="400" align="middle" lineHeight="125%" anchor="middle" family="&quot;Microsoft YaHei&quot;, 微软雅黑, Arial" size="18px" weight="400" font-style="" opacity="1" y="7.813500000000001" transform="rotate(0)"></text></g></g><g id="SvgjsG1035" transform="translate(422.9549756731317,155)"><path id="SvgjsPath1036" d="M 0 4Q 0 0 4 0L 64 0Q 68 0 68 4L 68 34.545Q 68 38.545 64 38.545L 4 38.545Q 0 38.545 0 34.545Z" stroke="rgba(255,255,255,1)" stroke-width="1.5" fill-opacity="1" fill="#7bd144"></path><g id="SvgjsG1037"><text id="SvgjsText1038" font-family="&quot;Microsoft YaHei&quot;, 微软雅黑, Arial" text-anchor="middle" font-size="18px" width="48px" fill="#323232" font-weight="400" align="middle" lineHeight="125%" anchor="middle" family="&quot;Microsoft YaHei&quot;, 微软雅黑, Arial" size="18px" weight="400" font-style="" opacity="1" y="3.522500000000001" transform="rotate(0)"></text></g></g><g id="SvgjsG1039" transform="translate(515.9549756731317,155)"><path id="SvgjsPath1040" d="M 0 4Q 0 0 4 0L 64 0Q 68 0 68 4L 68 34.545Q 68 38.545 64 38.545L 4 38.545Q 0 38.545 0 34.545Z" stroke="rgba(255,255,255,1)" stroke-width="1.5" fill-opacity="1" fill="#7bd144"></path><g id="SvgjsG1041"><text id="SvgjsText1042" font-family="&quot;Microsoft YaHei&quot;, 微软雅黑, Arial" text-anchor="middle" font-size="18px" width="48px" fill="#323232" font-weight="400" align="middle" lineHeight="125%" anchor="middle" family="&quot;Microsoft YaHei&quot;, 微软雅黑, Arial" size="18px" weight="400" font-style="" opacity="1" y="3.522500000000001" transform="rotate(0)"></text></g></g><g id="SvgjsG1043"><path id="SvgjsPath1044" d="M398.70497567313214 173.7275478820801L420.25497567313164 173.7275478820801" stroke="#323232" stroke-width="1.5" fill="none" marker-end="url(#SvgjsMarker1045)"></path></g><g id="SvgjsG1047"><path id="SvgjsPath1048" d="M491.7049756731317 174.27300000000002L513.2549756731316 174.27300000000002" stroke="#323232" stroke-width="1.5" fill="none" marker-end="url(#SvgjsMarker1049)"></path></g><g id="SvgjsG1051" transform="translate(286.9549756731308,428.5151432885066)"><path id="SvgjsPath1052" d="M 0 4Q 0 0 4 0L 93 0Q 97 0 97 4L 97 34.545Q 97 38.545 93 38.545L 4 38.545Q 0 38.545 0 34.545Z" stroke="rgba(255,255,255,1)" stroke-width="1.5" fill-opacity="1" fill="#7bd144"></path><g id="SvgjsG1053"><text id="SvgjsText1054" font-family="&quot;Microsoft YaHei&quot;, 微软雅黑, Arial" text-anchor="middle" font-size="18px" width="77px" fill="#323232" font-weight="400" align="middle" lineHeight="125%" anchor="middle" family="&quot;Microsoft YaHei&quot;, 微软雅黑, Arial" size="18px" weight="400" font-style="" opacity="1" y="3.522500000000001" transform="rotate(0)"><tspan id="SvgjsTspan1055" dy="22.5" x="48.5"><tspan id="SvgjsTspan1056" style="">slistelm</tspan></tspan></text></g></g><g id="SvgjsG1057" transform="translate(422.9549756731317,428.5151432885066)"><path id="SvgjsPath1058" d="M 0 4Q 0 0 4 0L 64 0Q 68 0 68 4L 68 34.545Q 68 38.545 64 38.545L 4 38.545Q 0 38.545 0 34.545Z" stroke="rgba(255,255,255,1)" stroke-width="1.5" fill-opacity="1" fill="#7bd144"></path><g id="SvgjsG1059"><text id="SvgjsText1060" font-family="&quot;Microsoft YaHei&quot;, 微软雅黑, Arial" text-anchor="middle" font-size="18px" width="48px" fill="#323232" font-weight="400" align="middle" lineHeight="125%" anchor="middle" family="&quot;Microsoft YaHei&quot;, 微软雅黑, Arial" size="18px" weight="400" font-style="" opacity="1" y="3.522500000000001" transform="rotate(0)"></text></g></g><g id="SvgjsG1061" transform="translate(529.9549756731321,428.5151432885066)"><path id="SvgjsPath1062" d="M 0 4Q 0 0 4 0L 64 0Q 68 0 68 4L 68 34.545Q 68 38.545 64 38.545L 4 38.545Q 0 38.545 0 34.545Z" stroke="rgba(255,255,255,1)" stroke-width="1.5" fill-opacity="1" fill="#7bd144"></path><g id="SvgjsG1063"><text id="SvgjsText1064" font-family="&quot;Microsoft YaHei&quot;, 微软雅黑, Arial" text-anchor="middle" font-size="18px" width="48px" fill="#323232" font-weight="400" align="middle" lineHeight="125%" anchor="middle" family="&quot;Microsoft YaHei&quot;, 微软雅黑, Arial" size="18px" weight="400" font-style="" opacity="1" y="3.522500000000001" transform="rotate(0)"></text></g></g><g id="SvgjsG1065"><path id="SvgjsPath1066" d="M491.7049756731317 447.7881432885066L527.2549756731321 447.7881432885066" stroke="#323232" stroke-width="1.5" fill="none" marker-end="url(#SvgjsMarker1067)"></path></g><g id="SvgjsG1069" transform="translate(221.54164686657168,509.65149561564147)"><path id="SvgjsPath1070" d="M 10.173 0L 20.654 0L 20.654 36.95L 30.827 36.95L 15.413 52.364L 0 36.95L 10.173 36.95L 10.173 0Z" stroke="rgba(33,41,48,1)" stroke-width="1.5" fill-opacity="1" fill="#000000"></path><g id="SvgjsG1071"><text id="SvgjsText1072" font-family="&quot;Microsoft YaHei&quot;, 微软雅黑, Arial" text-anchor="middle" font-size="18px" width="44px" fill="#323232" font-weight="400" align="middle" lineHeight="125%" anchor="middle" family="&quot;Microsoft YaHei&quot;, 微软雅黑, Arial" size="18px" weight="400" font-style="" opacity="1" y="7.813500000000001" transform="rotate(0)"></text></g></g><g id="SvgjsG1073" transform="translate(422.9549756731317,63)"><path id="SvgjsPath1074" d="M 0 4Q 0 0 4 0L 64 0Q 68 0 68 4L 68 34.545Q 68 38.545 64 38.545L 4 38.545Q 0 38.545 0 34.545Z" stroke="rgba(255,255,255,1)" stroke-width="1.5" fill-opacity="1" fill="#f1ac6a"></path><g id="SvgjsG1075"><text id="SvgjsText1076" font-family="&quot;Microsoft YaHei&quot;, 微软雅黑, Arial" text-anchor="middle" font-size="18px" width="48px" fill="#323232" font-weight="400" align="middle" lineHeight="125%" anchor="middle" family="&quot;Microsoft YaHei&quot;, 微软雅黑, Arial" size="18px" weight="400" font-style="" opacity="1" y="3.522500000000001" transform="rotate(0)"><tspan id="SvgjsTspan1077" dy="22.5" x="34"><tspan id="SvgjsTspan1078" style="">elm</tspan></tspan></text></g></g><g id="SvgjsG1079" transform="translate(406.95497567313123,29.78786934746654)"><path id="SvgjsPath1080" d="M 0 0L 100 0L 100 40L 0 40Z" stroke="none" fill="none"></path><g id="SvgjsG1081"><text id="SvgjsText1082" font-family="&quot;Microsoft YaHei&quot;, 微软雅黑, Arial" text-anchor="middle" font-size="18px" width="100px" fill="#323232" font-weight="400" align="middle" lineHeight="125%" anchor="middle" family="&quot;Microsoft YaHei&quot;, 微软雅黑, Arial" size="18px" weight="400" font-style="" opacity="1" y="4.25" transform="rotate(0)"><tspan id="SvgjsTspan1083" dy="22.5" x="50"><tspan id="SvgjsTspan1084" style="">新节点</tspan></tspan></text></g></g><g id="SvgjsG1085" transform="translate(372.9549756731303,345.5151432885066)"><path id="SvgjsPath1086" d="M 0 4Q 0 0 4 0L 65.191 0Q 69.191 0 69.191 4L 69.191 34.545Q 69.191 38.545 65.191 38.545L 4 38.545Q 0 38.545 0 34.545Z" stroke="rgba(255,255,255,1)" stroke-width="1.5" fill-opacity="1" fill="#f1ac6a"></path><g id="SvgjsG1087"><text id="SvgjsText1088" font-family="&quot;Microsoft YaHei&quot;, 微软雅黑, Arial" text-anchor="middle" font-size="18px" width="50px" fill="#323232" font-weight="400" align="middle" lineHeight="125%" anchor="middle" family="&quot;Microsoft YaHei&quot;, 微软雅黑, Arial" size="18px" weight="400" font-style="" opacity="1" y="3.522500000000001" transform="rotate(0)"><tspan id="SvgjsTspan1089" dy="22.5" x="35"><tspan id="SvgjsTspan1090" style="">elm</tspan></tspan></text></g></g><g id="SvgjsG1091"><path id="SvgjsPath1092" d="M408.10822952461285 384.56181172150195L454.94790292107837 426.70913692972334" stroke="#323232" stroke-width="1.5" fill="none" marker-end="url(#SvgjsMarker1093)"></path></g><g id="SvgjsG1095"><path id="SvgjsPath1096" d="M122.14644295828703 174.40403027004675L202.14644295828703 174.40403027004675L202.14644295828703 174.40403027004675L282.146442958287 174.40403027004675" stroke="#323232" stroke-width="1.5" fill="none" marker-end="url(#SvgjsMarker1097)"></path></g><g id="SvgjsG1099"><path id="SvgjsPath1100" d="M596.146442958287 174.40403027004675L676.146442958287 174.40403027004675L676.146442958287 174.40403027004675L756.146442958287 174.40403027004675" stroke="#323232" stroke-width="1.5" fill="none" marker-end="url(#SvgjsMarker1101)"></path></g><g id="SvgjsG1103" transform="translate(25,583.72727394104)"><path id="SvgjsPath1104" d="M 0 0L 760.518 0L 760.518 201L 0 201Z" stroke="rgba(33,41,48,1)" stroke-width="1.5" fill-opacity="1" fill="#ffffff"></path><g id="SvgjsG1105"><text id="SvgjsText1106" font-family="&quot;Microsoft YaHei&quot;, 微软雅黑, Arial" text-anchor="middle" font-size="18px" width="741px" fill="#323232" font-weight="400" align="middle" lineHeight="125%" anchor="middle" family="&quot;Microsoft YaHei&quot;, 微软雅黑, Arial" size="18px" weight="400" font-style="" opacity="1" y="84.75" transform="rotate(0)"></text></g></g><g id="SvgjsG1107" transform="translate(355.25894601004484,592.2626352310181)"><path id="SvgjsPath1108" d="M 0 0L 100 0L 100 40L 0 40Z" stroke="none" fill="none"></path><g id="SvgjsG1109"><text id="SvgjsText1110" font-family="&quot;Microsoft YaHei&quot;, 微软雅黑, Arial" text-anchor="middle" font-size="18px" width="100px" fill="#323232" font-weight="400" align="middle" lineHeight="125%" anchor="middle" family="&quot;Microsoft YaHei&quot;, 微软雅黑, Arial" size="18px" weight="400" font-style="" opacity="1" y="4.25" transform="rotate(0)"><tspan id="SvgjsTspan1111" dy="22.5" x="50"><tspan id="SvgjsTspan1112" style="">新节点</tspan></tspan></text></g></g><g id="SvgjsG1113" transform="translate(286.9549756731308,714.0202068752714)"><path id="SvgjsPath1114" d="M 0 4Q 0 0 4 0L 93 0Q 97 0 97 4L 97 34.545Q 97 38.545 93 38.545L 4 38.545Q 0 38.545 0 34.545Z" stroke="rgba(255,255,255,1)" stroke-width="1.5" fill-opacity="1" fill="#7bd144"></path><g id="SvgjsG1115"><text id="SvgjsText1116" font-family="&quot;Microsoft YaHei&quot;, 微软雅黑, Arial" text-anchor="middle" font-size="18px" width="77px" fill="#323232" font-weight="400" align="middle" lineHeight="125%" anchor="middle" family="&quot;Microsoft YaHei&quot;, 微软雅黑, Arial" size="18px" weight="400" font-style="" opacity="1" y="3.522500000000001" transform="rotate(0)"><tspan id="SvgjsTspan1117" dy="22.5" x="48.5"><tspan id="SvgjsTspan1118" style="">slistelm</tspan></tspan></text></g></g><g id="SvgjsG1119" transform="translate(422.9549756731317,714.0202068752714)"><path id="SvgjsPath1120" d="M 0 4Q 0 0 4 0L 64 0Q 68 0 68 4L 68 34.545Q 68 38.545 64 38.545L 4 38.545Q 0 38.545 0 34.545Z" stroke="rgba(255,255,255,1)" stroke-width="1.5" fill-opacity="1" fill="#7bd144"></path><g id="SvgjsG1121"><text id="SvgjsText1122" font-family="&quot;Microsoft YaHei&quot;, 微软雅黑, Arial" text-anchor="middle" font-size="18px" width="48px" fill="#323232" font-weight="400" align="middle" lineHeight="125%" anchor="middle" family="&quot;Microsoft YaHei&quot;, 微软雅黑, Arial" size="18px" weight="400" font-style="" opacity="1" y="3.522500000000001" transform="rotate(0)"></text></g></g><g id="SvgjsG1123" transform="translate(529.9549756731321,714.0202068752714)"><path id="SvgjsPath1124" d="M 0 4Q 0 0 4 0L 64 0Q 68 0 68 4L 68 34.545Q 68 38.545 64 38.545L 4 38.545Q 0 38.545 0 34.545Z" stroke="rgba(255,255,255,1)" stroke-width="1.5" fill-opacity="1" fill="#7bd144"></path><g id="SvgjsG1125"><text id="SvgjsText1126" font-family="&quot;Microsoft YaHei&quot;, 微软雅黑, Arial" text-anchor="middle" font-size="18px" width="48px" fill="#323232" font-weight="400" align="middle" lineHeight="125%" anchor="middle" family="&quot;Microsoft YaHei&quot;, 微软雅黑, Arial" size="18px" weight="400" font-style="" opacity="1" y="3.522500000000001" transform="rotate(0)"></text></g></g><g id="SvgjsG1127"><path id="SvgjsPath1128" d="M335.83534271603276 713.3738161941242L371.5856543186828 652.6202133274013" stroke="#323232" stroke-width="1.5" fill="none" marker-end="url(#SvgjsMarker1129)"></path></g><g id="SvgjsG1131"><path id="SvgjsPath1132" d="M491.7049756731317 733.2932068752714L527.2549756731321 733.2932068752714" stroke="#323232" stroke-width="1.5" fill="none" marker-end="url(#SvgjsMarker1133)"></path></g><g id="SvgjsG1135" transform="translate(372.9549756731303,631.0202068752714)"><path id="SvgjsPath1136" d="M 0 4Q 0 0 4 0L 75.191 0Q 79.191 0 79.191 4L 79.191 34.545Q 79.191 38.545 75.191 38.545L 4 38.545Q 0 38.545 0 34.545Z" stroke="rgba(255,255,255,1)" stroke-width="1.5" fill-opacity="1" fill="#f1ac6a"></path><g id="SvgjsG1137"><text id="SvgjsText1138" font-family="&quot;Microsoft YaHei&quot;, 微软雅黑, Arial" text-anchor="middle" font-size="18px" width="60px" fill="#323232" font-weight="400" align="middle" lineHeight="125%" anchor="middle" family="&quot;Microsoft YaHei&quot;, 微软雅黑, Arial" size="18px" weight="400" font-style="" opacity="1" y="3.522500000000001" transform="rotate(0)"><tspan id="SvgjsTspan1139" dy="22.5" x="40"><tspan id="SvgjsTspan1140" style="">elm</tspan></tspan></text></g></g><g id="SvgjsG1141"><path id="SvgjsPath1142" d="M413.0807365265641 670.0958396633212L455.04687771405474 712.1099288382919" stroke="#323232" stroke-width="1.5" fill="none" marker-end="url(#SvgjsMarker1143)"></path></g><g id="SvgjsG1145"><path id="SvgjsPath1146" d="M384.7049756731308 447.7881432885066L420.25497567313164 447.7881432885066" stroke="#323232" stroke-width="1.5" fill="none" marker-end="url(#SvgjsMarker1147)"></path></g><g id="SvgjsG1149"><path id="SvgjsPath1150" d="M118.14644295828703 448.40403027004675L198.14644295828703 448.40403027004675L198.14644295828703 448.40403027004675L278.146442958287 448.40403027004675" stroke="#323232" stroke-width="1.5" fill="none" marker-end="url(#SvgjsMarker1151)"></path></g><g id="SvgjsG1153"><path id="SvgjsPath1154" d="M607.146442958287 445.40403027004675L687.146442958287 445.40403027004675L687.146442958287 445.40403027004675L767.146442958287 445.40403027004675" stroke="#323232" stroke-width="1.5" fill="none" marker-end="url(#SvgjsMarker1155)"></path></g><g id="SvgjsG1157"><path id="SvgjsPath1158" d="M117.14644295828703 736.4040302700467L197.14644295828703 736.4040302700467L197.14644295828703 736.4040302700467L277.146442958287 736.4040302700467" stroke="#323232" stroke-width="1.5" fill="none" marker-end="url(#SvgjsMarker1159)"></path></g><g id="SvgjsG1161"><path id="SvgjsPath1162" d="M606.146442958287 732.4040302700467L686.146442958287 732.4040302700467L686.146442958287 732.4040302700467L766.146442958287 732.4040302700467" stroke="#323232" stroke-width="1.5" fill="none" marker-end="url(#SvgjsMarker1163)"></path></g><g id="SvgjsG1165"></g></svg>