<svg id="SvgjsSvg1006" width="810.5178920200897" height="1069.666631062827" xmlns="http://www.w3.org/2000/svg" version="1.1" xmlns:xlink="http://www.w3.org/1999/xlink" xmlns:svgjs="http://svgjs.com/svgjs"><defs id="SvgjsDefs1007"><pattern patternUnits="userSpaceOnUse" id="pattern_mark_0" width="300" height="300"><text x="150" y="100" fill="rgba(229,229,229,0.8)" font-size="18" transform="rotate(-45, 150, 150)" style="dominant-baseline: middle; text-anchor: middle;"></text></pattern><pattern patternUnits="userSpaceOnUse" id="pattern_mark_1" width="300" height="300"><text x="150" y="200" fill="rgba(229,229,229,0.8)" font-size="18" transform="rotate(-45, 150, 150)" style="dominant-baseline: middle; text-anchor: middle;"></text></pattern><marker id="SvgjsMarker1035" markerWidth="13" markerHeight="9" refX="9.5" refY="4.5" viewBox="0 0 13 9" orient="auto" markerUnits="userSpaceOnUse" stroke-dasharray="0,0"><path id="SvgjsPath1036" d="M0,0 L13,4.5 L0,9 L0,0" fill="#323232" stroke="#323232" stroke-width="1"></path></marker><marker id="SvgjsMarker1039" markerWidth="13" markerHeight="9" refX="9.5" refY="4.5" viewBox="0 0 13 9" orient="auto" markerUnits="userSpaceOnUse" stroke-dasharray="0,0"><path id="SvgjsPath1040" d="M0,0 L13,4.5 L0,9 L0,0" fill="#323232" stroke="#323232" stroke-width="1"></path></marker><marker id="SvgjsMarker1061" markerWidth="13" markerHeight="9" refX="9.5" refY="4.5" viewBox="0 0 13 9" orient="auto" markerUnits="userSpaceOnUse" stroke-dasharray="0,0"><path id="SvgjsPath1062" d="M0,0 L13,4.5 L0,9 L0,0" fill="#323232" stroke="#323232" stroke-width="1"></path></marker><marker id="SvgjsMarker1065" markerWidth="13" markerHeight="9" refX="9.5" refY="4.5" viewBox="0 0 13 9" orient="auto" markerUnits="userSpaceOnUse" stroke-dasharray="0,0"><path id="SvgjsPath1066" d="M0,0 L13,4.5 L0,9 L0,0" fill="#323232" stroke="#323232" stroke-width="1"></path></marker><marker id="SvgjsMarker1069" markerWidth="13" markerHeight="9" refX="9.5" refY="4.5" viewBox="0 0 13 9" orient="auto" markerUnits="userSpaceOnUse" stroke-dasharray="0,0"><path id="SvgjsPath1070" d="M0,0 L13,4.5 L0,9 L0,0" fill="#323232" stroke="#323232" stroke-width="1"></path></marker><marker id="SvgjsMarker1095" markerWidth="13" markerHeight="9" refX="9.5" refY="4.5" viewBox="0 0 13 9" orient="auto" markerUnits="userSpaceOnUse" stroke-dasharray="0,0"><path id="SvgjsPath1096" d="M0,0 L13,4.5 L0,9 L0,0" fill="#323232" stroke="#323232" stroke-width="1"></path></marker><marker id="SvgjsMarker1099" markerWidth="13" markerHeight="9" refX="9.5" refY="4.5" viewBox="0 0 13 9" orient="auto" markerUnits="userSpaceOnUse" stroke-dasharray="0,0"><path id="SvgjsPath1100" d="M0,0 L13,4.5 L0,9 L0,0" fill="#323232" stroke="#323232" stroke-width="1"></path></marker><marker id="SvgjsMarker1121" markerWidth="13" markerHeight="9" refX="9.5" refY="4.5" viewBox="0 0 13 9" orient="auto" markerUnits="userSpaceOnUse" stroke-dasharray="0,0"><path id="SvgjsPath1122" d="M0,0 L13,4.5 L0,9 L0,0" fill="#323232" stroke="#323232" stroke-width="1"></path></marker><marker id="SvgjsMarker1125" markerWidth="13" markerHeight="9" refX="9.5" refY="4.5" viewBox="0 0 13 9" orient="auto" markerUnits="userSpaceOnUse" stroke-dasharray="0,0"><path id="SvgjsPath1126" d="M0,0 L13,4.5 L0,9 L0,0" fill="#323232" stroke="#323232" stroke-width="1"></path></marker><marker id="SvgjsMarker1129" markerWidth="13" markerHeight="9" refX="9.5" refY="4.5" viewBox="0 0 13 9" orient="auto" markerUnits="userSpaceOnUse" stroke-dasharray="0,0"><path id="SvgjsPath1130" d="M0,0 L13,4.5 L0,9 L0,0" fill="#323232" stroke="#323232" stroke-width="1"></path></marker><marker id="SvgjsMarker1157" markerWidth="13" markerHeight="9" refX="9.5" refY="4.5" viewBox="0 0 13 9" orient="auto" markerUnits="userSpaceOnUse" stroke-dasharray="0,0"><path id="SvgjsPath1158" d="M0,0 L13,4.5 L0,9 L0,0" fill="#323232" stroke="#323232" stroke-width="1"></path></marker><marker id="SvgjsMarker1161" markerWidth="13" markerHeight="9" refX="9.5" refY="4.5" viewBox="0 0 13 9" orient="auto" markerUnits="userSpaceOnUse" stroke-dasharray="0,0"><path id="SvgjsPath1162" d="M0,0 L13,4.5 L0,9 L0,0" fill="#323232" stroke="#323232" stroke-width="1"></path></marker><marker id="SvgjsMarker1189" markerWidth="13" markerHeight="9" refX="9.5" refY="4.5" viewBox="0 0 13 9" orient="auto" markerUnits="userSpaceOnUse" stroke-dasharray="0,0"><path id="SvgjsPath1190" d="M0,0 L13,4.5 L0,9 L0,0" fill="#323232" stroke="#323232" stroke-width="1"></path></marker><marker id="SvgjsMarker1193" markerWidth="13" markerHeight="9" refX="9.5" refY="4.5" viewBox="0 0 13 9" orient="auto" markerUnits="userSpaceOnUse" stroke-dasharray="0,0"><path id="SvgjsPath1194" d="M0,0 L13,4.5 L0,9 L0,0" fill="#323232" stroke="#323232" stroke-width="1"></path></marker><marker id="SvgjsMarker1197" markerWidth="13" markerHeight="9" refX="9.5" refY="4.5" viewBox="0 0 13 9" orient="auto" markerUnits="userSpaceOnUse" stroke-dasharray="0,0"><path id="SvgjsPath1198" d="M0,0 L13,4.5 L0,9 L0,0" fill="#323232" stroke="#323232" stroke-width="1"></path></marker><marker id="SvgjsMarker1233" markerWidth="13" markerHeight="9" refX="9.5" refY="4.5" viewBox="0 0 13 9" orient="auto" markerUnits="userSpaceOnUse" stroke-dasharray="0,0"><path id="SvgjsPath1234" d="M0,0 L13,4.5 L0,9 L0,0" fill="#323232" stroke="#323232" stroke-width="1"></path></marker><marker id="SvgjsMarker1261" markerWidth="13" markerHeight="9" refX="9.5" refY="4.5" viewBox="0 0 13 9" orient="auto" markerUnits="userSpaceOnUse" stroke-dasharray="0,0"><path id="SvgjsPath1262" d="M0,0 L13,4.5 L0,9 L0,0" fill="#323232" stroke="#323232" stroke-width="1"></path></marker><marker id="SvgjsMarker1265" markerWidth="13" markerHeight="9" refX="9.5" refY="4.5" viewBox="0 0 13 9" orient="auto" markerUnits="userSpaceOnUse" stroke-dasharray="0,0"><path id="SvgjsPath1266" d="M0,0 L13,4.5 L0,9 L0,0" fill="#323232" stroke="#323232" stroke-width="1"></path></marker><marker id="SvgjsMarker1269" markerWidth="13" markerHeight="9" refX="9.5" refY="4.5" viewBox="0 0 13 9" orient="auto" markerUnits="userSpaceOnUse" stroke-dasharray="0,0"><path id="SvgjsPath1270" d="M0,0 L13,4.5 L0,9 L0,0" fill="#323232" stroke="#323232" stroke-width="1"></path></marker><marker id="SvgjsMarker1279" markerWidth="13" markerHeight="9" refX="9.5" refY="4.5" viewBox="0 0 13 9" orient="auto" markerUnits="userSpaceOnUse" stroke-dasharray="0,0"><path id="SvgjsPath1280" d="M0,0 L13,4.5 L0,9 L0,0" fill="#323232" stroke="#323232" stroke-width="1"></path></marker></defs><rect id="svgbackgroundid" width="810.5178920200897" height="1069.666631062827" fill="transparent"></rect><rect id="SvgjsRect1009" width="810.5178920200897" height="1069.666631062827" fill="url(#pattern_mark_0)"></rect><rect id="SvgjsRect1010" width="810.5178920200897" height="1069.666631062827" fill="url(#pattern_mark_1)"></rect><g id="SvgjsG1011" transform="translate(25,25)"><path id="SvgjsPath1012" d="M 0 0L 760.518 0L 760.518 200L 0 200Z" stroke="rgba(33,41,48,1)" stroke-width="1.5" fill-opacity="1" fill="#ffffff"></path><g id="SvgjsG1013"><text id="SvgjsText1014" font-family="&quot;Microsoft YaHei&quot;, 微软雅黑, Arial" text-anchor="middle" font-size="18px" width="741px" fill="#323232" font-weight="400" align="middle" lineHeight="125%" anchor="middle" family="&quot;Microsoft YaHei&quot;, 微软雅黑, Arial" size="18px" weight="400" font-style="" opacity="1" y="84.25" transform="rotate(0)"></text></g></g><g id="SvgjsG1015" transform="translate(330.61309233165935,154.45454788208008)"><path id="SvgjsPath1016" d="M 0 4Q 0 0 4 0L 63.342 0Q 67.342 0 67.342 4L 67.342 34.545Q 67.342 38.545 63.342 38.545L 4 38.545Q 0 38.545 0 34.545Z" stroke="rgba(255,255,255,1)" stroke-width="1.5" fill-opacity="1" fill="#7bd144"></path><g id="SvgjsG1017"><text id="SvgjsText1018" font-family="&quot;Microsoft YaHei&quot;, 微软雅黑, Arial" text-anchor="middle" font-size="18px" width="48px" fill="#323232" font-weight="400" align="middle" lineHeight="125%" anchor="middle" family="&quot;Microsoft YaHei&quot;, 微软雅黑, Arial" size="18px" weight="400" font-style="" opacity="1" y="3.522500000000001" transform="rotate(0)"><tspan id="SvgjsTspan1019" dy="22.5" x="34"><tspan id="SvgjsTspan1020" style=""> </tspan></tspan></text></g></g><g id="SvgjsG1021" transform="translate(240.1283180600126,235.42928526136615)"><path id="SvgjsPath1022" d="M 10.173 0L 20.654 0L 20.654 36.95L 30.827 36.95L 15.413 52.364L 0 36.95L 10.173 36.95L 10.173 0Z" stroke="rgba(33,41,48,1)" stroke-width="1.5" fill-opacity="1" fill="#000000"></path><g id="SvgjsG1023"><text id="SvgjsText1024" font-family="&quot;Microsoft YaHei&quot;, 微软雅黑, Arial" text-anchor="middle" font-size="18px" width="44px" fill="#323232" font-weight="400" align="middle" lineHeight="125%" anchor="middle" family="&quot;Microsoft YaHei&quot;, 微软雅黑, Arial" size="18px" weight="400" font-style="" opacity="1" y="7.813500000000001" transform="rotate(0)"></text></g></g><g id="SvgjsG1025" transform="translate(422.9549756731317,155)"><path id="SvgjsPath1026" d="M 0 4Q 0 0 4 0L 64 0Q 68 0 68 4L 68 34.545Q 68 38.545 64 38.545L 4 38.545Q 0 38.545 0 34.545Z" stroke="rgba(255,255,255,1)" stroke-width="1.5" fill-opacity="1" fill="#f1ac6a"></path><g id="SvgjsG1027"><text id="SvgjsText1028" font-family="&quot;Microsoft YaHei&quot;, 微软雅黑, Arial" text-anchor="middle" font-size="18px" width="48px" fill="#323232" font-weight="400" align="middle" lineHeight="125%" anchor="middle" family="&quot;Microsoft YaHei&quot;, 微软雅黑, Arial" size="18px" weight="400" font-style="" opacity="1" y="3.522500000000001" transform="rotate(0)"></text></g></g><g id="SvgjsG1029" transform="translate(515.9549756731317,155)"><path id="SvgjsPath1030" d="M 0 4Q 0 0 4 0L 64 0Q 68 0 68 4L 68 34.545Q 68 38.545 64 38.545L 4 38.545Q 0 38.545 0 34.545Z" stroke="rgba(255,255,255,1)" stroke-width="1.5" fill-opacity="1" fill="#7bd144"></path><g id="SvgjsG1031"><text id="SvgjsText1032" font-family="&quot;Microsoft YaHei&quot;, 微软雅黑, Arial" text-anchor="middle" font-size="18px" width="48px" fill="#323232" font-weight="400" align="middle" lineHeight="125%" anchor="middle" family="&quot;Microsoft YaHei&quot;, 微软雅黑, Arial" size="18px" weight="400" font-style="" opacity="1" y="3.522500000000001" transform="rotate(0)"></text></g></g><g id="SvgjsG1033"><path id="SvgjsPath1034" d="M398.7049756731317 173.7275478820801L420.25497567313164 173.7275478820801" stroke="#323232" stroke-width="1.5" fill="none" marker-end="url(#SvgjsMarker1035)"></path></g><g id="SvgjsG1037"><path id="SvgjsPath1038" d="M491.7049756731317 174.27300000000002L513.2549756731316 174.27300000000002" stroke="#323232" stroke-width="1.5" fill="none" marker-end="url(#SvgjsMarker1039)"></path></g><g id="SvgjsG1041" transform="translate(212.5062562246177,84.11111111111111)"><path id="SvgjsPath1042" d="M 0 4Q 0 0 4 0L 64 0Q 68 0 68 4L 68 34.545Q 68 38.545 64 38.545L 4 38.545Q 0 38.545 0 34.545Z" stroke="rgba(255,255,255,1)" stroke-width="1.5" fill-opacity="1" fill="#f1ac6a"></path><g id="SvgjsG1043"><text id="SvgjsText1044" font-family="&quot;Microsoft YaHei&quot;, 微软雅黑, Arial" text-anchor="middle" font-size="18px" width="48px" fill="#323232" font-weight="400" align="middle" lineHeight="125%" anchor="middle" family="&quot;Microsoft YaHei&quot;, 微软雅黑, Arial" size="18px" weight="400" font-style="" opacity="1" y="3.522500000000001" transform="rotate(0)"><tspan id="SvgjsTspan1045" dy="22.5" x="34"><tspan id="SvgjsTspan1046" style="">elm</tspan></tspan></text></g></g><g id="SvgjsG1047" transform="translate(619.2883090064652,155)"><path id="SvgjsPath1048" d="M 0 4Q 0 0 4 0L 63.342 0Q 67.342 0 67.342 4L 67.342 34.545Q 67.342 38.545 63.342 38.545L 4 38.545Q 0 38.545 0 34.545Z" stroke="rgba(255,255,255,1)" stroke-width="1.5" fill-opacity="1" fill="#7bd144"></path><g id="SvgjsG1049"><text id="SvgjsText1050" font-family="&quot;Microsoft YaHei&quot;, 微软雅黑, Arial" text-anchor="middle" font-size="18px" width="48px" fill="#323232" font-weight="400" align="middle" lineHeight="125%" anchor="middle" family="&quot;Microsoft YaHei&quot;, 微软雅黑, Arial" size="18px" weight="400" font-style="" opacity="1" y="3.522500000000001" transform="rotate(0)"><tspan id="SvgjsTspan1051" dy="22.5" x="34"><tspan id="SvgjsTspan1052" style=""> </tspan></tspan></text></g></g><g id="SvgjsG1053" transform="translate(198.39087010943717,154.45454788208008)"><path id="SvgjsPath1054" d="M 0 4Q 0 0 4 0L 92.231 0Q 96.231 0 96.231 4L 96.231 34.545Q 96.231 38.545 92.231 38.545L 4 38.545Q 0 38.545 0 34.545Z" stroke="rgba(255,255,255,1)" stroke-width="1.5" fill-opacity="1" fill="#7bd144"></path><g id="SvgjsG1055"><text id="SvgjsText1056" font-family="&quot;Microsoft YaHei&quot;, 微软雅黑, Arial" text-anchor="middle" font-size="18px" width="77px" fill="#323232" font-weight="400" align="middle" lineHeight="125%" anchor="middle" family="&quot;Microsoft YaHei&quot;, 微软雅黑, Arial" size="18px" weight="400" font-style="" opacity="1" y="3.522500000000001" transform="rotate(0)"><tspan id="SvgjsTspan1057" dy="22.5" x="48.5"><tspan id="SvgjsTspan1058" style="">curelm</tspan></tspan></text></g></g><g id="SvgjsG1059"><path id="SvgjsPath1060" d="M295.371809043485 173.7275478820801L312.61745068757216 173.7275478820801L312.61745068757216 173.7275478820801L327.9130923316593 173.7275478820801" stroke="#323232" stroke-width="1.5" fill="none" marker-end="url(#SvgjsMarker1061)"></path></g><g id="SvgjsG1063"><path id="SvgjsPath1064" d="M584.7049756731317 174.27300000000002L601.6216423397984 174.27300000000002L601.6216423397984 174.27300000000002L616.5883090064651 174.27300000000002" stroke="#323232" stroke-width="1.5" fill="none" marker-end="url(#SvgjsMarker1065)"></path></g><g id="SvgjsG1067"><path id="SvgjsPath1068" d="M246.5062562246177 123.4061111111111L246.5062562246177 138.5553294965956L246.5062562246177 138.5553294965956L246.5062562246177 151.7545478820801" stroke-dasharray="1.5,2.25" stroke="#323232" stroke-width="1.5" fill="none" marker-end="url(#SvgjsMarker1069)"></path></g><g id="SvgjsG1071" transform="translate(25,298.22221035427526)"><path id="SvgjsPath1072" d="M 0 0L 760.518 0L 760.518 200L 0 200Z" stroke="rgba(33,41,48,1)" stroke-width="1.5" fill-opacity="1" fill="#ffffff"></path><g id="SvgjsG1073"><text id="SvgjsText1074" font-family="&quot;Microsoft YaHei&quot;, 微软雅黑, Arial" text-anchor="middle" font-size="18px" width="741px" fill="#323232" font-weight="400" align="middle" lineHeight="125%" anchor="middle" family="&quot;Microsoft YaHei&quot;, 微软雅黑, Arial" size="18px" weight="400" font-style="" opacity="1" y="84.25" transform="rotate(0)"></text></g></g><g id="SvgjsG1075" transform="translate(305.0575367761038,427.6767582363558)"><path id="SvgjsPath1076" d="M 0 4Q 0 0 4 0L 88.897 0Q 92.897 0 92.897 4L 92.897 34.545Q 92.897 38.545 88.897 38.545L 4 38.545Q 0 38.545 0 34.545Z" stroke="rgba(255,255,255,1)" stroke-width="1.5" fill-opacity="1" fill="#7bd144"></path><g id="SvgjsG1077"><text id="SvgjsText1078" font-family="&quot;Microsoft YaHei&quot;, 微软雅黑, Arial" text-anchor="middle" font-size="18px" width="73px" fill="#323232" font-weight="400" align="middle" lineHeight="125%" anchor="middle" family="&quot;Microsoft YaHei&quot;, 微软雅黑, Arial" size="18px" weight="400" font-style="" opacity="1" y="3.522500000000001" transform="rotate(0)"><tspan id="SvgjsTspan1079" dy="22.5" x="46.5"><tspan id="SvgjsTspan1080" style="">curelm</tspan></tspan></text></g></g><g id="SvgjsG1081" transform="translate(240.1283180600126,508.6514956156419)"><path id="SvgjsPath1082" d="M 10.173 0L 20.654 0L 20.654 36.95L 30.827 36.95L 15.413 52.364L 0 36.95L 10.173 36.95L 10.173 0Z" stroke="rgba(33,41,48,1)" stroke-width="1.5" fill-opacity="1" fill="#000000"></path><g id="SvgjsG1083"><text id="SvgjsText1084" font-family="&quot;Microsoft YaHei&quot;, 微软雅黑, Arial" text-anchor="middle" font-size="18px" width="44px" fill="#323232" font-weight="400" align="middle" lineHeight="125%" anchor="middle" family="&quot;Microsoft YaHei&quot;, 微软雅黑, Arial" size="18px" weight="400" font-style="" opacity="1" y="7.813500000000001" transform="rotate(0)"></text></g></g><g id="SvgjsG1085" transform="translate(422.9549756731317,428.2222103542757)"><path id="SvgjsPath1086" d="M 0 4Q 0 0 4 0L 64 0Q 68 0 68 4L 68 34.545Q 68 38.545 64 38.545L 4 38.545Q 0 38.545 0 34.545Z" stroke="rgba(255,255,255,1)" stroke-width="1.5" fill-opacity="1" fill="#7bd144"></path><g id="SvgjsG1087"><text id="SvgjsText1088" font-family="&quot;Microsoft YaHei&quot;, 微软雅黑, Arial" text-anchor="middle" font-size="18px" width="48px" fill="#323232" font-weight="400" align="middle" lineHeight="125%" anchor="middle" family="&quot;Microsoft YaHei&quot;, 微软雅黑, Arial" size="18px" weight="400" font-style="" opacity="1" y="3.522500000000001" transform="rotate(0)"></text></g></g><g id="SvgjsG1089" transform="translate(515.954975673132,428.2222103542757)"><path id="SvgjsPath1090" d="M 0 4Q 0 0 4 0L 64 0Q 68 0 68 4L 68 34.545Q 68 38.545 64 38.545L 4 38.545Q 0 38.545 0 34.545Z" stroke="rgba(255,255,255,1)" stroke-width="1.5" fill-opacity="1" fill="#f1ac6a"></path><g id="SvgjsG1091"><text id="SvgjsText1092" font-family="&quot;Microsoft YaHei&quot;, 微软雅黑, Arial" text-anchor="middle" font-size="18px" width="48px" fill="#323232" font-weight="400" align="middle" lineHeight="125%" anchor="middle" family="&quot;Microsoft YaHei&quot;, 微软雅黑, Arial" size="18px" weight="400" font-style="" opacity="1" y="3.522500000000001" transform="rotate(0)"></text></g></g><g id="SvgjsG1093"><path id="SvgjsPath1094" d="M398.704975673132 446.9497582363557L420.25497567313164 446.9497582363557" stroke="#323232" stroke-width="1.5" fill="none" marker-end="url(#SvgjsMarker1095)"></path></g><g id="SvgjsG1097"><path id="SvgjsPath1098" d="M491.70497567313146 447.4952103542756L513.254975673132 447.4952103542756" stroke="#323232" stroke-width="1.5" fill="none" marker-end="url(#SvgjsMarker1099)"></path></g><g id="SvgjsG1101" transform="translate(310.1173673357288,358.335870318942)"><path id="SvgjsPath1102" d="M 0 4Q 0 0 4 0L 64 0Q 68 0 68 4L 68 34.545Q 68 38.545 64 38.545L 4 38.545Q 0 38.545 0 34.545Z" stroke="rgba(255,255,255,1)" stroke-width="1.5" fill-opacity="1" fill="#f1ac6a"></path><g id="SvgjsG1103"><text id="SvgjsText1104" font-family="&quot;Microsoft YaHei&quot;, 微软雅黑, Arial" text-anchor="middle" font-size="18px" width="48px" fill="#323232" font-weight="400" align="middle" lineHeight="125%" anchor="middle" family="&quot;Microsoft YaHei&quot;, 微软雅黑, Arial" size="18px" weight="400" font-style="" opacity="1" y="3.522500000000001" transform="rotate(0)"><tspan id="SvgjsTspan1105" dy="22.5" x="34"><tspan id="SvgjsTspan1106" style="">elm</tspan></tspan></text></g></g><g id="SvgjsG1107" transform="translate(619.2883090064656,428.2222103542757)"><path id="SvgjsPath1108" d="M 0 4Q 0 0 4 0L 63.342 0Q 67.342 0 67.342 4L 67.342 34.545Q 67.342 38.545 63.342 38.545L 4 38.545Q 0 38.545 0 34.545Z" stroke="rgba(255,255,255,1)" stroke-width="1.5" fill-opacity="1" fill="#7bd144"></path><g id="SvgjsG1109"><text id="SvgjsText1110" font-family="&quot;Microsoft YaHei&quot;, 微软雅黑, Arial" text-anchor="middle" font-size="18px" width="48px" fill="#323232" font-weight="400" align="middle" lineHeight="125%" anchor="middle" family="&quot;Microsoft YaHei&quot;, 微软雅黑, Arial" size="18px" weight="400" font-style="" opacity="1" y="3.522500000000001" transform="rotate(0)"><tspan id="SvgjsTspan1111" dy="22.5" x="34"><tspan id="SvgjsTspan1112" style=""> </tspan></tspan></text></g></g><g id="SvgjsG1113" transform="translate(178.39087010943717,427.6767582363558)"><path id="SvgjsPath1114" d="M 0 4Q 0 0 4 0L 76.675 0Q 80.675 0 80.675 4L 80.675 34.545Q 80.675 38.545 76.675 38.545L 4 38.545Q 0 38.545 0 34.545Z" stroke="rgba(255,255,255,1)" stroke-width="1.5" fill-opacity="1" fill="#7bd144"></path><g id="SvgjsG1115"><text id="SvgjsText1116" font-family="&quot;Microsoft YaHei&quot;, 微软雅黑, Arial" text-anchor="middle" font-size="18px" width="61px" fill="#323232" font-weight="400" align="middle" lineHeight="125%" anchor="middle" family="&quot;Microsoft YaHei&quot;, 微软雅黑, Arial" size="18px" weight="400" font-style="" opacity="1" y="3.522500000000001" transform="rotate(0)"><tspan id="SvgjsTspan1117" dy="22.5" x="40.5"><tspan id="SvgjsTspan1118" style=""> </tspan></tspan></text></g></g><g id="SvgjsG1119"><path id="SvgjsPath1120" d="M259.81622654053604 446.9497582363557L282.06188165831986 446.9497582363557L282.06188165831986 446.9497582363557L302.35753677610376 446.9497582363557" stroke="#323232" stroke-width="1.5" fill="none" marker-end="url(#SvgjsMarker1121)"></path></g><g id="SvgjsG1123"><path id="SvgjsPath1124" d="M584.7049756731321 447.4952103542756L601.6216423397989 447.4952103542756L601.6216423397989 447.4952103542756L616.5883090064656 447.4952103542756" stroke="#323232" stroke-width="1.5" fill="none" marker-end="url(#SvgjsMarker1125)"></path></g><g id="SvgjsG1127"><path id="SvgjsPath1128" d="M344.1173673357288 397.6308703189419L344.1173673357288 412.3091144180295L343.8424241909296 412.3091144180295L343.8424241909296 425.037358517117" stroke-dasharray="1.5,2.25" stroke="#323232" stroke-width="1.5" fill="none" marker-end="url(#SvgjsMarker1129)"></path></g><g id="SvgjsG1131" transform="translate(25,571.4444207085513)"><path id="SvgjsPath1132" d="M 0 0L 760.518 0L 760.518 200L 0 200Z" stroke="rgba(33,41,48,1)" stroke-width="1.5" fill-opacity="1" fill="#ffffff"></path><g id="SvgjsG1133"><text id="SvgjsText1134" font-family="&quot;Microsoft YaHei&quot;, 微软雅黑, Arial" text-anchor="middle" font-size="18px" width="741px" fill="#323232" font-weight="400" align="middle" lineHeight="125%" anchor="middle" family="&quot;Microsoft YaHei&quot;, 微软雅黑, Arial" size="18px" weight="400" font-style="" opacity="1" y="84.25" transform="rotate(0)"></text></g></g><g id="SvgjsG1135" transform="translate(294.6216423397973,700.898968590632)"><path id="SvgjsPath1136" d="M 0 4Q 0 0 4 0L 63.342 0Q 67.342 0 67.342 4L 67.342 34.545Q 67.342 38.545 63.342 38.545L 4 38.545Q 0 38.545 0 34.545Z" stroke="rgba(255,255,255,1)" stroke-width="1.5" fill-opacity="1" fill="#7bd144"></path><g id="SvgjsG1137"><text id="SvgjsText1138" font-family="&quot;Microsoft YaHei&quot;, 微软雅黑, Arial" text-anchor="middle" font-size="18px" width="48px" fill="#323232" font-weight="400" align="middle" lineHeight="125%" anchor="middle" family="&quot;Microsoft YaHei&quot;, 微软雅黑, Arial" size="18px" weight="400" font-style="" opacity="1" y="3.522500000000001" transform="rotate(0)"><tspan id="SvgjsTspan1139" dy="22.5" x="34"><tspan id="SvgjsTspan1140" style=""> </tspan></tspan></text></g></g><g id="SvgjsG1141" transform="translate(240.1283180600126,781.8737059699178)"><path id="SvgjsPath1142" d="M 10.173 0L 20.654 0L 20.654 36.95L 30.827 36.95L 15.413 52.364L 0 36.95L 10.173 36.95L 10.173 0Z" stroke="rgba(33,41,48,1)" stroke-width="1.5" fill-opacity="1" fill="#000000"></path><g id="SvgjsG1143"><text id="SvgjsText1144" font-family="&quot;Microsoft YaHei&quot;, 微软雅黑, Arial" text-anchor="middle" font-size="18px" width="44px" fill="#323232" font-weight="400" align="middle" lineHeight="125%" anchor="middle" family="&quot;Microsoft YaHei&quot;, 微软雅黑, Arial" size="18px" weight="400" font-style="" opacity="1" y="7.813500000000001" transform="rotate(0)"></text></g></g><g id="SvgjsG1145" transform="translate(399.94642566499283,701.4444207085519)"><path id="SvgjsPath1146" d="M 0 4Q 0 0 4 0L 87.009 0Q 91.009 0 91.009 4L 91.009 34.545Q 91.009 38.545 87.009 38.545L 4 38.545Q 0 38.545 0 34.545Z" stroke="rgba(255,255,255,1)" stroke-width="1.5" fill-opacity="1" fill="#7bd144"></path><g id="SvgjsG1147"><text id="SvgjsText1148" font-family="&quot;Microsoft YaHei&quot;, 微软雅黑, Arial" text-anchor="middle" font-size="18px" width="72px" fill="#323232" font-weight="400" align="middle" lineHeight="125%" anchor="middle" family="&quot;Microsoft YaHei&quot;, 微软雅黑, Arial" size="18px" weight="400" font-style="" opacity="1" y="3.522500000000001" transform="rotate(0)"><tspan id="SvgjsTspan1149" dy="22.5" x="46"><tspan id="SvgjsTspan1150" style="">curelm</tspan></tspan></text></g></g><g id="SvgjsG1151" transform="translate(515.9549756731319,701.4444207085519)"><path id="SvgjsPath1152" d="M 0 4Q 0 0 4 0L 64 0Q 68 0 68 4L 68 34.545Q 68 38.545 64 38.545L 4 38.545Q 0 38.545 0 34.545Z" stroke="rgba(255,255,255,1)" stroke-width="1.5" fill-opacity="1" fill="#f1ac6a"></path><g id="SvgjsG1153"><text id="SvgjsText1154" font-family="&quot;Microsoft YaHei&quot;, 微软雅黑, Arial" text-anchor="middle" font-size="18px" width="48px" fill="#323232" font-weight="400" align="middle" lineHeight="125%" anchor="middle" family="&quot;Microsoft YaHei&quot;, 微软雅黑, Arial" size="18px" weight="400" font-style="" opacity="1" y="3.522500000000001" transform="rotate(0)"></text></g></g><g id="SvgjsG1155"><path id="SvgjsPath1156" d="M362.7135256812694 720.1719685906319L397.2464256649928 720.1719685906319" stroke="#323232" stroke-width="1.5" fill="none" marker-end="url(#SvgjsMarker1157)"></path></g><g id="SvgjsG1159"><path id="SvgjsPath1160" d="M491.70497567313134 720.7174207085518L513.2549756731319 720.7174207085518" stroke="#323232" stroke-width="1.5" fill="none" marker-end="url(#SvgjsMarker1161)"></path></g><g id="SvgjsG1163" transform="translate(411.45070066906214,628.818161434599)"><path id="SvgjsPath1164" d="M 0 4Q 0 0 4 0L 64 0Q 68 0 68 4L 68 34.545Q 68 38.545 64 38.545L 4 38.545Q 0 38.545 0 34.545Z" stroke="rgba(255,255,255,1)" stroke-width="1.5" fill-opacity="1" fill="#f1ac6a"></path><g id="SvgjsG1165"><text id="SvgjsText1166" font-family="&quot;Microsoft YaHei&quot;, 微软雅黑, Arial" text-anchor="middle" font-size="18px" width="48px" fill="#323232" font-weight="400" align="middle" lineHeight="125%" anchor="middle" family="&quot;Microsoft YaHei&quot;, 微软雅黑, Arial" size="18px" weight="400" font-style="" opacity="1" y="3.522500000000001" transform="rotate(0)"><tspan id="SvgjsTspan1167" dy="22.5" x="34"><tspan id="SvgjsTspan1168" style="">elm</tspan></tspan></text></g></g><g id="SvgjsG1169" transform="translate(350.28830900646403,589.2423752678783)"><path id="SvgjsPath1170" d="M 0 0L 190.325 0L 190.325 40L 0 40Z" stroke="none" fill="none"></path><g id="SvgjsG1171"><text id="SvgjsText1172" font-family="&quot;Microsoft YaHei&quot;, 微软雅黑, Arial" text-anchor="middle" font-size="18px" width="191px" fill="#e60c0c" font-weight="400" align="middle" lineHeight="125%" anchor="middle" family="&quot;Microsoft YaHei&quot;, 微软雅黑, Arial" size="18px" weight="400" font-style="" opacity="1" y="4.25" transform="rotate(0)"><tspan id="SvgjsTspan1173" dy="22.5" x="95.5"><tspan id="SvgjsTspan1174" style="">curelm-&gt;next = elm</tspan></tspan></text></g></g><g id="SvgjsG1175" transform="translate(619.2883090064654,701.4444207085519)"><path id="SvgjsPath1176" d="M 0 4Q 0 0 4 0L 63.342 0Q 67.342 0 67.342 4L 67.342 34.545Q 67.342 38.545 63.342 38.545L 4 38.545Q 0 38.545 0 34.545Z" stroke="rgba(255,255,255,1)" stroke-width="1.5" fill-opacity="1" fill="#7bd144"></path><g id="SvgjsG1177"><text id="SvgjsText1178" font-family="&quot;Microsoft YaHei&quot;, 微软雅黑, Arial" text-anchor="middle" font-size="18px" width="48px" fill="#323232" font-weight="400" align="middle" lineHeight="125%" anchor="middle" family="&quot;Microsoft YaHei&quot;, 微软雅黑, Arial" size="18px" weight="400" font-style="" opacity="1" y="3.522500000000001" transform="rotate(0)"><tspan id="SvgjsTspan1179" dy="22.5" x="34"><tspan id="SvgjsTspan1180" style=""> </tspan></tspan></text></g></g><g id="SvgjsG1181" transform="translate(186.168647887215,700.898968590632)"><path id="SvgjsPath1182" d="M 0 4Q 0 0 4 0L 68.897 0Q 72.897 0 72.897 4L 72.897 34.545Q 72.897 38.545 68.897 38.545L 4 38.545Q 0 38.545 0 34.545Z" stroke="rgba(255,255,255,1)" stroke-width="1.5" fill-opacity="1" fill="#7bd144"></path><g id="SvgjsG1183"><text id="SvgjsText1184" font-family="&quot;Microsoft YaHei&quot;, 微软雅黑, Arial" text-anchor="middle" font-size="18px" width="53px" fill="#323232" font-weight="400" align="middle" lineHeight="125%" anchor="middle" family="&quot;Microsoft YaHei&quot;, 微软雅黑, Arial" size="18px" weight="400" font-style="" opacity="1" y="3.522500000000001" transform="rotate(0)"><tspan id="SvgjsTspan1185" dy="22.5" x="36.5"><tspan id="SvgjsTspan1186" style=""> </tspan></tspan></text></g></g><g id="SvgjsG1187"><path id="SvgjsPath1188" d="M259.8162130668394 720.1719685906319L276.8439277033183 720.1719685906319L276.8439277033183 720.1719685906319L291.92164233979724 720.1719685906319" stroke="#323232" stroke-width="1.5" fill="none" marker-end="url(#SvgjsMarker1189)"></path></g><g id="SvgjsG1191"><path id="SvgjsPath1192" d="M584.7049756731319 720.7174207085518L601.6216423397987 720.7174207085518L601.6216423397987 720.7174207085518L616.5883090064654 720.7174207085518" stroke="#323232" stroke-width="1.5" fill="none" marker-end="url(#SvgjsMarker1193)"></path></g><g id="SvgjsG1195"><path id="SvgjsPath1196" d="M445.4507006690617 668.1131614345989L445.4507006690617 684.4037910715754L445.45070066906226 684.4037910715754L445.45070066906226 698.7444207085518" stroke-dasharray="1.5,2.25" stroke="#323232" stroke-width="1.5" fill="none" marker-end="url(#SvgjsMarker1197)"></path></g><g id="SvgjsG1199" transform="translate(256.3438645620197,318.588360892403)"><path id="SvgjsPath1200" d="M 0 0L 190.325 0L 190.325 40L 0 40Z" stroke="none" fill="none"></path><g id="SvgjsG1201"><text id="SvgjsText1202" font-family="&quot;Microsoft YaHei&quot;, 微软雅黑, Arial" text-anchor="middle" font-size="18px" width="191px" fill="#323232" font-weight="400" align="middle" lineHeight="125%" anchor="middle" family="&quot;Microsoft YaHei&quot;, 微软雅黑, Arial" size="18px" weight="400" font-style="" opacity="1" y="4.25" transform="rotate(0)"><tspan id="SvgjsTspan1203" dy="22.5" x="95.5"><tspan id="SvgjsTspan1204" style="">curelm-&gt;next != elm</tspan></tspan></text></g></g><g id="SvgjsG1205" transform="translate(151.34386456201958,43.68681971232277)"><path id="SvgjsPath1206" d="M 0 0L 190.325 0L 190.325 40L 0 40Z" stroke="none" fill="none"></path><g id="SvgjsG1207"><text id="SvgjsText1208" font-family="&quot;Microsoft YaHei&quot;, 微软雅黑, Arial" text-anchor="middle" font-size="18px" width="191px" fill="#323232" font-weight="400" align="middle" lineHeight="125%" anchor="middle" family="&quot;Microsoft YaHei&quot;, 微软雅黑, Arial" size="18px" weight="400" font-style="" opacity="1" y="4.25" transform="rotate(0)"><tspan id="SvgjsTspan1209" dy="22.5" x="95.5"><tspan id="SvgjsTspan1210" style="">curelm-&gt;next != elm</tspan></tspan></text></g></g><g id="SvgjsG1211" transform="translate(25,844.6666310628269)"><path id="SvgjsPath1212" d="M 0 0L 760.518 0L 760.518 200L 0 200Z" stroke="rgba(33,41,48,1)" stroke-width="1.5" fill-opacity="1" fill="#ffffff"></path><g id="SvgjsG1213"><text id="SvgjsText1214" font-family="&quot;Microsoft YaHei&quot;, 微软雅黑, Arial" text-anchor="middle" font-size="18px" width="741px" fill="#323232" font-weight="400" align="middle" lineHeight="125%" anchor="middle" family="&quot;Microsoft YaHei&quot;, 微软雅黑, Arial" size="18px" weight="400" font-style="" opacity="1" y="84.25" transform="rotate(0)"></text></g></g><g id="SvgjsG1215" transform="translate(294.6216423397973,974.1211789449079)"><path id="SvgjsPath1216" d="M 0 4Q 0 0 4 0L 63.342 0Q 67.342 0 67.342 4L 67.342 34.545Q 67.342 38.545 63.342 38.545L 4 38.545Q 0 38.545 0 34.545Z" stroke="rgba(255,255,255,1)" stroke-width="1.5" fill-opacity="1" fill="#7bd144"></path><g id="SvgjsG1217"><text id="SvgjsText1218" font-family="&quot;Microsoft YaHei&quot;, 微软雅黑, Arial" text-anchor="middle" font-size="18px" width="48px" fill="#323232" font-weight="400" align="middle" lineHeight="125%" anchor="middle" family="&quot;Microsoft YaHei&quot;, 微软雅黑, Arial" size="18px" weight="400" font-style="" opacity="1" y="3.522500000000001" transform="rotate(0)"><tspan id="SvgjsTspan1219" dy="22.5" x="34"><tspan id="SvgjsTspan1220" style=""> </tspan></tspan></text></g></g><g id="SvgjsG1221" transform="translate(399.94642566499283,974.6666310628278)"><path id="SvgjsPath1222" d="M 0 4Q 0 0 4 0L 87.009 0Q 91.009 0 91.009 4L 91.009 34.545Q 91.009 38.545 87.009 38.545L 4 38.545Q 0 38.545 0 34.545Z" stroke="rgba(255,255,255,1)" stroke-width="1.5" fill-opacity="1" fill="#7bd144"></path><g id="SvgjsG1223"><text id="SvgjsText1224" font-family="&quot;Microsoft YaHei&quot;, 微软雅黑, Arial" text-anchor="middle" font-size="18px" width="72px" fill="#323232" font-weight="400" align="middle" lineHeight="125%" anchor="middle" family="&quot;Microsoft YaHei&quot;, 微软雅黑, Arial" size="18px" weight="400" font-style="" opacity="1" y="3.522500000000001" transform="rotate(0)"><tspan id="SvgjsTspan1225" dy="22.5" x="46"><tspan id="SvgjsTspan1226" style="">curelm</tspan></tspan></text></g></g><g id="SvgjsG1227" transform="translate(515.9549756731321,974.6666310628278)"><path id="SvgjsPath1228" d="M 0 4Q 0 0 4 0L 64 0Q 68 0 68 4L 68 34.545Q 68 38.545 64 38.545L 4 38.545Q 0 38.545 0 34.545Z" stroke="rgba(255,255,255,1)" stroke-width="1.5" fill-opacity="1" fill="#f1ac6a"></path><g id="SvgjsG1229"><text id="SvgjsText1230" font-family="&quot;Microsoft YaHei&quot;, 微软雅黑, Arial" text-anchor="middle" font-size="18px" width="48px" fill="#323232" font-weight="400" align="middle" lineHeight="125%" anchor="middle" family="&quot;Microsoft YaHei&quot;, 微软雅黑, Arial" size="18px" weight="400" font-style="" opacity="1" y="3.522500000000001" transform="rotate(0)"></text></g></g><g id="SvgjsG1231"><path id="SvgjsPath1232" d="M362.7135256812694 993.3941789449076L397.2464256649928 993.3941789449076" stroke="#323232" stroke-width="1.5" fill="none" marker-end="url(#SvgjsMarker1233)"></path></g><g id="SvgjsG1235" transform="translate(411.45070066906214,904.2625940110969)"><path id="SvgjsPath1236" d="M 0 4Q 0 0 4 0L 64 0Q 68 0 68 4L 68 34.545Q 68 38.545 64 38.545L 4 38.545Q 0 38.545 0 34.545Z" stroke="rgba(255,255,255,1)" stroke-width="1.5" fill-opacity="1" fill="#f1ac6a"></path><g id="SvgjsG1237"><text id="SvgjsText1238" font-family="&quot;Microsoft YaHei&quot;, 微软雅黑, Arial" text-anchor="middle" font-size="18px" width="48px" fill="#323232" font-weight="400" align="middle" lineHeight="125%" anchor="middle" family="&quot;Microsoft YaHei&quot;, 微软雅黑, Arial" size="18px" weight="400" font-style="" opacity="1" y="3.522500000000001" transform="rotate(0)"><tspan id="SvgjsTspan1239" dy="22.5" x="34"><tspan id="SvgjsTspan1240" style="">elm</tspan></tspan></text></g></g><g id="SvgjsG1241" transform="translate(350.28830900646403,862.4645856221541)"><path id="SvgjsPath1242" d="M 0 0L 190.325 0L 190.325 40L 0 40Z" stroke="none" fill="none"></path><g id="SvgjsG1243"><text id="SvgjsText1244" font-family="&quot;Microsoft YaHei&quot;, 微软雅黑, Arial" text-anchor="middle" font-size="18px" width="191px" fill="#e60c0c" font-weight="400" align="middle" lineHeight="125%" anchor="middle" family="&quot;Microsoft YaHei&quot;, 微软雅黑, Arial" size="18px" weight="400" font-style="" opacity="1" y="4.25" transform="rotate(0)"><tspan id="SvgjsTspan1245" dy="22.5" x="95.5"><tspan id="SvgjsTspan1246" style="">curelm-&gt;next = elm</tspan></tspan></text></g></g><g id="SvgjsG1247" transform="translate(619.2883090064656,974.6666310628278)"><path id="SvgjsPath1248" d="M 0 4Q 0 0 4 0L 63.342 0Q 67.342 0 67.342 4L 67.342 34.545Q 67.342 38.545 63.342 38.545L 4 38.545Q 0 38.545 0 34.545Z" stroke="rgba(255,255,255,1)" stroke-width="1.5" fill-opacity="1" fill="#7bd144"></path><g id="SvgjsG1249"><text id="SvgjsText1250" font-family="&quot;Microsoft YaHei&quot;, 微软雅黑, Arial" text-anchor="middle" font-size="18px" width="48px" fill="#323232" font-weight="400" align="middle" lineHeight="125%" anchor="middle" family="&quot;Microsoft YaHei&quot;, 微软雅黑, Arial" size="18px" weight="400" font-style="" opacity="1" y="3.522500000000001" transform="rotate(0)"><tspan id="SvgjsTspan1251" dy="22.5" x="34"><tspan id="SvgjsTspan1252" style=""> </tspan></tspan></text></g></g><g id="SvgjsG1253" transform="translate(186.168647887215,974.1211789449079)"><path id="SvgjsPath1254" d="M 0 4Q 0 0 4 0L 68.897 0Q 72.897 0 72.897 4L 72.897 34.545Q 72.897 38.545 68.897 38.545L 4 38.545Q 0 38.545 0 34.545Z" stroke="rgba(255,255,255,1)" stroke-width="1.5" fill-opacity="1" fill="#7bd144"></path><g id="SvgjsG1255"><text id="SvgjsText1256" font-family="&quot;Microsoft YaHei&quot;, 微软雅黑, Arial" text-anchor="middle" font-size="18px" width="53px" fill="#323232" font-weight="400" align="middle" lineHeight="125%" anchor="middle" family="&quot;Microsoft YaHei&quot;, 微软雅黑, Arial" size="18px" weight="400" font-style="" opacity="1" y="3.522500000000001" transform="rotate(0)"><tspan id="SvgjsTspan1257" dy="22.5" x="36.5"><tspan id="SvgjsTspan1258" style=""> </tspan></tspan></text></g></g><g id="SvgjsG1259"><path id="SvgjsPath1260" d="M259.8162130668394 993.3941789449076L276.8439277033183 993.3941789449076L276.8439277033183 993.3941789449076L291.92164233979724 993.3941789449076" stroke="#323232" stroke-width="1.5" fill="none" marker-end="url(#SvgjsMarker1261)"></path></g><g id="SvgjsG1263"><path id="SvgjsPath1264" d="M445.4507006690618 943.5575940110965L445.4507006690618 958.7371125369622L445.45070066906237 958.7371125369622L445.45070066906237 971.9666310628278" stroke-dasharray="1.5,2.25" stroke="#323232" stroke-width="1.5" fill="none" marker-end="url(#SvgjsMarker1265)"></path></g><g id="SvgjsG1267"><path id="SvgjsPath1268" d="M491.2069199093296 993.2330543542777C 530.6130923316593 866.9596061706544 556.168647887215 949.1818283928766 617.1754153830898 992.2586549962826" stroke="#323232" stroke-width="1.5" fill="none" marker-end="url(#SvgjsMarker1269)"></path></g><g id="SvgjsG1271" transform="translate(726.168647887215,1003.5756967332651)"><path id="SvgjsPath1272" d="M 0 0L 59.349 0L 59.349 40L 0 40Z" stroke="none" fill="none"></path><g id="SvgjsG1273"><text id="SvgjsText1274" font-family="&quot;Microsoft YaHei&quot;, 微软雅黑, Arial" text-anchor="middle" font-size="18px" width="60px" fill="#323232" font-weight="700" align="middle" lineHeight="125%" anchor="middle" family="&quot;Microsoft YaHei&quot;, 微软雅黑, Arial" size="18px" weight="700" font-style="" opacity="1" y="4.25" transform="rotate(0)"><tspan id="SvgjsTspan1275" dy="22.5" x="30"><tspan id="SvgjsTspan1276" style="">NULL</tspan></tspan></text></g></g><g id="SvgjsG1277"><path id="SvgjsPath1278" d="M584.4453690524865 994.5070941307762C 630.6130923316593 1051.4040506150986 646.168647887215 1031.4040506150986 723.4863961474566 1023.8847689005055" stroke="#323232" stroke-width="1.5" fill="none" marker-end="url(#SvgjsMarker1279)"></path></g><g id="SvgjsG1281"></g></svg>