<svg id="SvgjsSvg1006" width="1041.5" height="264" xmlns="http://www.w3.org/2000/svg" version="1.1" xmlns:xlink="http://www.w3.org/1999/xlink" xmlns:svgjs="http://svgjs.com/svgjs"><defs id="SvgjsDefs1007"><pattern patternUnits="userSpaceOnUse" id="pattern_mark_0" width="300" height="300"><text x="150" y="100" fill="rgba(229,229,229,0.8)" font-size="18" transform="rotate(-45, 150, 150)" style="dominant-baseline: middle; text-anchor: middle;"></text></pattern><pattern patternUnits="userSpaceOnUse" id="pattern_mark_1" width="300" height="300"><text x="150" y="200" fill="rgba(229,229,229,0.8)" font-size="18" transform="rotate(-45, 150, 150)" style="dominant-baseline: middle; text-anchor: middle;"></text></pattern><marker id="SvgjsMarker1031" markerWidth="13" markerHeight="9" refX="9.5" refY="4.5" viewBox="0 0 13 9" orient="auto" markerUnits="userSpaceOnUse" stroke-dasharray="0,0"><path id="SvgjsPath1032" d="M0,0 L13,4.5 L0,9 L0,0" fill="#323232" stroke="#323232" stroke-width="1"></path></marker><marker id="SvgjsMarker1035" markerWidth="13" markerHeight="9" refX="9.5" refY="4.5" viewBox="0 0 13 9" orient="auto" markerUnits="userSpaceOnUse" stroke-dasharray="0,0"><path id="SvgjsPath1036" d="M0,0 L13,4.5 L0,9 L0,0" fill="#323232" stroke="#323232" stroke-width="1"></path></marker><marker id="SvgjsMarker1047" markerWidth="13" markerHeight="9" refX="9.5" refY="4.5" viewBox="0 0 13 9" orient="auto" markerUnits="userSpaceOnUse" stroke-dasharray="0,0"><path id="SvgjsPath1048" d="M0,0 L13,4.5 L0,9 L0,0" fill="#323232" stroke="#323232" stroke-width="1"></path></marker><marker id="SvgjsMarker1071" markerWidth="13" markerHeight="9" refX="9.5" refY="4.5" viewBox="0 0 13 9" orient="auto" markerUnits="userSpaceOnUse" stroke-dasharray="0,0"><path id="SvgjsPath1072" d="M0,0 L13,4.5 L0,9 L0,0" fill="#323232" stroke="#323232" stroke-width="1"></path></marker><marker id="SvgjsMarker1075" markerWidth="13" markerHeight="9" refX="9.5" refY="4.5" viewBox="0 0 13 9" orient="auto" markerUnits="userSpaceOnUse" stroke-dasharray="0,0"><path id="SvgjsPath1076" d="M0,0 L13,4.5 L0,9 L0,0" fill="#323232" stroke="#323232" stroke-width="1"></path></marker></defs><rect id="svgbackgroundid" width="1041.5" height="264" fill="transparent"></rect><rect id="SvgjsRect1009" width="1041.5" height="264" fill="url(#pattern_mark_0)"></rect><rect id="SvgjsRect1010" width="1041.5" height="264" fill="url(#pattern_mark_1)"></rect><g id="SvgjsG1011" transform="translate(435.5,189)"><path id="SvgjsPath1012" d="M 16.667 0L 112.333 0C 134.556 0 134.556 50 112.333 50L 16.667 50C -5.556 50 -5.556 0 16.667 0Z" stroke="rgba(91,121,232,1)" stroke-width="1.5" fill-opacity="1" fill="#5b79e8"></path><g id="SvgjsG1013"><text id="SvgjsText1014" font-family="&quot;Microsoft YaHei&quot;, 微软雅黑, Arial" text-anchor="middle" font-size="20px" width="109px" fill="#ffffff" font-weight="400" align="middle" lineHeight="125%" anchor="middle" family="&quot;Microsoft YaHei&quot;, 微软雅黑, Arial" size="20px" weight="400" font-style="" opacity="1" y="7" transform="rotate(0)"><tspan id="SvgjsTspan1015" dy="25" x="64.5"><tspan id="SvgjsTspan1016" style="">CPython</tspan></tspan></text></g></g><g id="SvgjsG1017" transform="translate(582.5,37)"><path id="SvgjsPath1018" d="M 16.667 0L 107.333 0C 129.556 0 129.556 50 107.333 50L 16.667 50C -5.556 50 -5.556 0 16.667 0Z" stroke="rgba(255,255,255,1)" stroke-width="1.5" fill-opacity="1" fill="#7bd144"></path><g id="SvgjsG1019"><text id="SvgjsText1020" font-family="&quot;Microsoft YaHei&quot;, 微软雅黑, Arial" text-anchor="middle" font-size="20px" width="104px" fill="#323232" font-weight="400" align="middle" lineHeight="125%" anchor="middle" family="&quot;Microsoft YaHei&quot;, 微软雅黑, Arial" size="20px" weight="400" font-style="" opacity="1" y="7" transform="rotate(0)"><tspan id="SvgjsTspan1021" dy="25" x="62"><tspan id="SvgjsTspan1022" style="">pybind11</tspan></tspan></text></g></g><g id="SvgjsG1023" transform="translate(303.5,37)"><path id="SvgjsPath1024" d="M 16.667 0L 102.333 0C 124.556 0 124.556 50 102.333 50L 16.667 50C -5.556 50 -5.556 0 16.667 0Z" stroke="rgba(255,255,255,1)" stroke-width="1.5" fill-opacity="1" fill="#7bd144"></path><g id="SvgjsG1025"><text id="SvgjsText1026" font-family="&quot;Microsoft YaHei&quot;, 微软雅黑, Arial" text-anchor="middle" font-size="20px" width="99px" fill="#323232" font-weight="400" align="middle" lineHeight="125%" anchor="middle" family="&quot;Microsoft YaHei&quot;, 微软雅黑, Arial" size="20px" weight="400" font-style="" opacity="1" y="7" transform="rotate(0)"><tspan id="SvgjsTspan1027" dy="25" x="59.5"><tspan id="SvgjsTspan1028" style="">PyCXX</tspan></tspan></text></g></g><g id="SvgjsG1029"><path id="SvgjsPath1030" d="M499.88921018188705 188.2582280564739C 500 120.67957845563302 363 155.32042154436698 363.3988433452066 89.67037899669401" stroke="#323232" stroke-width="1.5" fill="none" marker-end="url(#SvgjsMarker1031)"></path></g><g id="SvgjsG1033"><path id="SvgjsPath1034" d="M500.1091900238098 188.25799087694259C 500 118.25058304127163 644.5 157.74941695872837 644.1069159142849 89.67123284300669" stroke="#323232" stroke-width="1.5" fill="none" marker-end="url(#SvgjsMarker1035)"></path></g><g id="SvgjsG1037" transform="translate(676,149.5)"><path id="SvgjsPath1038" d="M 0 0L 212 0L 228 16L 228 49L 0 49L 0 0Z" stroke="none" fill-opacity="1" fill="#fff7bc"></path><path id="SvgjsPath1039" d="M 212 0L 212 16L 228 16Z" stroke="none" fill-opacity="1" fill="#e4d089"></path><path id="SvgjsPath1040" d="M 0 0L 212 0L 228 16L 228 49L 0 49L 0 0Z" stroke="none" fill="none"></path><g id="SvgjsG1041"><text id="SvgjsText1042" font-family="&quot;Microsoft YaHei&quot;, 微软雅黑, Arial" text-anchor="middle" font-size="20px" width="208px" fill="#323232" font-weight="400" align="middle" lineHeight="125%" anchor="middle" family="&quot;Microsoft YaHei&quot;, 微软雅黑, Arial" size="20px" weight="400" font-style="" opacity="1" y="6.5" transform="rotate(0)"><tspan id="SvgjsTspan1043" dy="25" x="114"><tspan id="SvgjsTspan1044" style="">Python/C API的实现</tspan></tspan></text></g></g><g id="SvgjsG1045"><path id="SvgjsPath1046" d="M676 174C 628.932987796625 174 610.128423138589 202.00061212695977 566.1696301774084 208.0347230247089" stroke-dasharray="1.5,2.25" stroke="#323232" stroke-width="1.5" fill="none" marker-end="url(#SvgjsMarker1047)"></path></g><g id="SvgjsG1049" transform="translate(25,25)"><path id="SvgjsPath1050" d="M 0 0L 196 0L 212 16L 212 74L 0 74L 0 0Z" stroke="none" fill-opacity="1" fill="#fff7bc"></path><path id="SvgjsPath1051" d="M 196 0L 196 16L 212 16Z" stroke="none" fill-opacity="1" fill="#e4d089"></path><path id="SvgjsPath1052" d="M 0 0L 196 0L 212 16L 212 74L 0 74L 0 0Z" stroke="none" fill="none"></path><g id="SvgjsG1053"><text id="SvgjsText1054" font-family="&quot;Microsoft YaHei&quot;, 微软雅黑, Arial" text-anchor="middle" font-size="20px" width="192px" fill="#323232" font-weight="400" align="middle" lineHeight="125%" anchor="middle" family="&quot;Microsoft YaHei&quot;, 微软雅黑, Arial" size="20px" weight="400" font-style="" opacity="1" y="6.5" transform="rotate(0)"><tspan id="SvgjsTspan1055" dy="25" x="106"><tspan id="SvgjsTspan1056" style="">轻量级的C++封装，</tspan></tspan><tspan id="SvgjsTspan1057" dy="25" x="106"><tspan id="SvgjsTspan1058" style="">早期项目，更新慢</tspan></tspan></text></g></g><g id="SvgjsG1059" transform="translate(795.5,25)"><path id="SvgjsPath1060" d="M 0 0L 205 0L 221 16L 221 74L 0 74L 0 0Z" stroke="none" fill-opacity="1" fill="#fff7bc"></path><path id="SvgjsPath1061" d="M 205 0L 205 16L 221 16Z" stroke="none" fill-opacity="1" fill="#e4d089"></path><path id="SvgjsPath1062" d="M 0 0L 205 0L 221 16L 221 74L 0 74L 0 0Z" stroke="none" fill="none"></path><g id="SvgjsG1063"><text id="SvgjsText1064" font-family="&quot;Microsoft YaHei&quot;, 微软雅黑, Arial" text-anchor="middle" font-size="20px" width="201px" fill="#323232" font-weight="400" align="middle" lineHeight="125%" anchor="middle" family="&quot;Microsoft YaHei&quot;, 微软雅黑, Arial" size="20px" weight="400" font-style="" opacity="1" y="6.5" transform="rotate(0)"><tspan id="SvgjsTspan1065" dy="25" x="110.5"><tspan id="SvgjsTspan1066" style="">更完整的C++封装，</tspan></tspan><tspan id="SvgjsTspan1067" dy="25" x="110.5"><tspan id="SvgjsTspan1068" style="">生态较火</tspan></tspan></text></g></g><g id="SvgjsG1069"><path id="SvgjsPath1070" d="M237 62L300.8 62" stroke-dasharray="1.5,2.25" stroke="#323232" stroke-width="1.5" fill="none" marker-end="url(#SvgjsMarker1071)"></path></g><g id="SvgjsG1073"><path id="SvgjsPath1074" d="M795.5 62L709.2 62" stroke-dasharray="1.5,2.25" stroke="#323232" stroke-width="1.5" fill="none" marker-end="url(#SvgjsMarker1075)"></path></g><g id="SvgjsG1077"></g></svg>