<svg id="SvgjsSvg1006" width="2029.8297393105177" height="203.09505393288353" xmlns="http://www.w3.org/2000/svg" version="1.1" xmlns:xlink="http://www.w3.org/1999/xlink" xmlns:svgjs="http://svgjs.com/svgjs"><defs id="SvgjsDefs1007"><pattern patternUnits="userSpaceOnUse" id="pattern_mark_0" width="300" height="300"><text x="150" y="100" fill="rgba(229,229,229,0.8)" font-size="18" transform="rotate(-45, 150, 150)" style="dominant-baseline: middle; text-anchor: middle;"></text></pattern><pattern patternUnits="userSpaceOnUse" id="pattern_mark_1" width="300" height="300"><text x="150" y="200" fill="rgba(229,229,229,0.8)" font-size="18" transform="rotate(-45, 150, 150)" style="dominant-baseline: middle; text-anchor: middle;"></text></pattern></defs><rect id="svgbackgroundid" width="2029.8297393105177" height="203.09505393288353" fill="transparent"></rect><rect id="SvgjsRect1009" width="2029.8297393105177" height="203.09505393288353" fill="url(#pattern_mark_0)"></rect><rect id="SvgjsRect1010" width="2029.8297393105177" height="203.09505393288353" fill="url(#pattern_mark_1)"></rect><g id="SvgjsG1011" transform="translate(30.647921128706457,25)"><path id="SvgjsPath1012" d="M 0 3.9999999999999996Q 0 0 4 0L 122.364 0Q 126.364 0 126.364 3.9999999999999996L 126.364 51.182Q 126.364 55.182 122.364 55.182L 4 55.182Q 0 55.182 0 51.182Z" stroke="rgba(33,41,48,1)" stroke-width="1.5" fill-opacity="1" fill="#f1e4a2"></path><g id="SvgjsG1013"><text id="SvgjsText1014" font-family="&quot;Microsoft YaHei&quot;, 微软雅黑, Arial" text-anchor="middle" font-size="24px" width="107px" fill="#323232" font-weight="400" align="middle" lineHeight="125%" anchor="middle" family="&quot;Microsoft YaHei&quot;, 微软雅黑, Arial" size="24px" weight="400" font-style="" opacity="1" y="6.591000000000001" transform="rotate(0)"><tspan id="SvgjsTspan1015" dy="30" x="63.5"><tspan id="SvgjsTspan1016" style="">Kind=5</tspan></tspan></text></g></g><g id="SvgjsG1017" transform="translate(161.55701203779734,25)"><path id="SvgjsPath1018" d="M 0 3.9999999999999996Q 0 0 4 0L 207.818 0Q 211.818 0 211.818 3.9999999999999996L 211.818 51.182Q 211.818 55.182 207.818 55.182L 4 55.182Q 0 55.182 0 51.182Z" stroke="rgba(33,41,48,1)" stroke-width="1.5" fill-opacity="1" fill="#e9d66f"></path><g id="SvgjsG1019"><text id="SvgjsText1020" font-family="&quot;Microsoft YaHei&quot;, 微软雅黑, Arial" text-anchor="middle" font-size="24px" width="192px" fill="#323232" font-weight="400" align="middle" lineHeight="125%" anchor="middle" family="&quot;Microsoft YaHei&quot;, 微软雅黑, Arial" size="24px" weight="400" font-style="" opacity="1" y="6.591000000000001" transform="rotate(0)"><tspan id="SvgjsTspan1021" dy="30" x="106"><tspan id="SvgjsTspan1022" style="">length=N*8 + 1</tspan></tspan></text></g></g><g id="SvgjsG1023" transform="translate(377.9206484014337,25)"><path id="SvgjsPath1024" d="M 0 3.9999999999999996Q 0 0 4 0L 84.909 0Q 88.909 0 88.909 3.9999999999999996L 88.909 51.182Q 88.909 55.182 84.909 55.182L 4 55.182Q 0 55.182 0 51.182Z" stroke="rgba(33,41,48,1)" stroke-width="1.5" fill-opacity="1" fill="#a6aef3"></path><g id="SvgjsG1025"><text id="SvgjsText1026" font-family="&quot;Microsoft YaHei&quot;, 微软雅黑, Arial" text-anchor="middle" font-size="24px" width="69px" fill="#323232" font-weight="400" align="middle" lineHeight="125%" anchor="middle" family="&quot;Microsoft YaHei&quot;, 微软雅黑, Arial" size="24px" weight="400" font-style="" opacity="1" y="6.591000000000001" transform="rotate(0)"></text></g></g><g id="SvgjsG1027" transform="translate(470.64792112870634,25)"><path id="SvgjsPath1028" d="M 0 3.9999999999999996Q 0 0 4 0L 84.909 0Q 88.909 0 88.909 3.9999999999999996L 88.909 51.182Q 88.909 55.182 84.909 55.182L 4 55.182Q 0 55.182 0 51.182Z" stroke="rgba(33,41,48,1)" stroke-width="1.5" fill-opacity="1" fill="#a6aef3"></path><g id="SvgjsG1029"><text id="SvgjsText1030" font-family="&quot;Microsoft YaHei&quot;, 微软雅黑, Arial" text-anchor="middle" font-size="24px" width="69px" fill="#323232" font-weight="400" align="middle" lineHeight="125%" anchor="middle" family="&quot;Microsoft YaHei&quot;, 微软雅黑, Arial" size="24px" weight="400" font-style="" opacity="1" y="6.591000000000001" transform="rotate(0)"></text></g></g><g id="SvgjsG1031" transform="translate(563.375193855979,25)"><path id="SvgjsPath1032" d="M 0 3.9999999999999996Q 0 0 4 0L 84.909 0Q 88.909 0 88.909 3.9999999999999996L 88.909 51.182Q 88.909 55.182 84.909 55.182L 4 55.182Q 0 55.182 0 51.182Z" stroke="rgba(33,41,48,1)" stroke-width="1.5" fill-opacity="1" fill="#a6aef3"></path><g id="SvgjsG1033"><text id="SvgjsText1034" font-family="&quot;Microsoft YaHei&quot;, 微软雅黑, Arial" text-anchor="middle" font-size="24px" width="69px" fill="#323232" font-weight="400" align="middle" lineHeight="125%" anchor="middle" family="&quot;Microsoft YaHei&quot;, 微软雅黑, Arial" size="24px" weight="400" font-style="" opacity="1" y="6.591000000000001" transform="rotate(0)"></text></g></g><g id="SvgjsG1035" transform="translate(656.1024665832501,25)"><path id="SvgjsPath1036" d="M 0 3.9999999999999996Q 0 0 4 0L 84.909 0Q 88.909 0 88.909 3.9999999999999996L 88.909 51.182Q 88.909 55.182 84.909 55.182L 4 55.182Q 0 55.182 0 51.182Z" stroke="rgba(33,41,48,1)" stroke-width="1.5" fill-opacity="1" fill="#a6aef3"></path><g id="SvgjsG1037"><text id="SvgjsText1038" font-family="&quot;Microsoft YaHei&quot;, 微软雅黑, Arial" text-anchor="middle" font-size="24px" width="69px" fill="#323232" font-weight="400" align="middle" lineHeight="125%" anchor="middle" family="&quot;Microsoft YaHei&quot;, 微软雅黑, Arial" size="24px" weight="400" font-style="" opacity="1" y="6.591000000000001" transform="rotate(0)"></text></g></g><g id="SvgjsG1039" transform="translate(748.8297393105213,25)"><path id="SvgjsPath1040" d="M 0 3.9999999999999996Q 0 0 4 0L 84.909 0Q 88.909 0 88.909 3.9999999999999996L 88.909 51.182Q 88.909 55.182 84.909 55.182L 4 55.182Q 0 55.182 0 51.182Z" stroke="rgba(33,41,48,1)" stroke-width="1.5" fill-opacity="1" fill="#5b79e8"></path><g id="SvgjsG1041"><text id="SvgjsText1042" font-family="&quot;Microsoft YaHei&quot;, 微软雅黑, Arial" text-anchor="middle" font-size="13px" width="69px" fill="#323232" font-weight="400" align="middle" lineHeight="125%" anchor="middle" family="&quot;Microsoft YaHei&quot;, 微软雅黑, Arial" size="13px" weight="400" font-style="" opacity="1" y="16.966" transform="rotate(0)"></text></g></g><g id="SvgjsG1043" transform="translate(841.5570120377938,25)"><path id="SvgjsPath1044" d="M 0 3.9999999999999996Q 0 0 4 0L 84.909 0Q 88.909 0 88.909 3.9999999999999996L 88.909 51.182Q 88.909 55.182 84.909 55.182L 4 55.182Q 0 55.182 0 51.182Z" stroke="rgba(33,41,48,1)" stroke-width="1.5" fill-opacity="1" fill="#5b79e8"></path><g id="SvgjsG1045"><text id="SvgjsText1046" font-family="&quot;Microsoft YaHei&quot;, 微软雅黑, Arial" text-anchor="middle" font-size="13px" width="69px" fill="#323232" font-weight="400" align="middle" lineHeight="125%" anchor="middle" family="&quot;Microsoft YaHei&quot;, 微软雅黑, Arial" size="13px" weight="400" font-style="" opacity="1" y="16.966" transform="rotate(0)"></text></g></g><g id="SvgjsG1047" transform="translate(934.2842847650663,25.00000000000003)"><path id="SvgjsPath1048" d="M 0 3.9999999999999996Q 0 0 4 0L 84.909 0Q 88.909 0 88.909 3.9999999999999996L 88.909 51.182Q 88.909 55.182 84.909 55.182L 4 55.182Q 0 55.182 0 51.182Z" stroke="rgba(33,41,48,1)" stroke-width="1.5" fill-opacity="1" fill="#5b79e8"></path><g id="SvgjsG1049"><text id="SvgjsText1050" font-family="&quot;Microsoft YaHei&quot;, 微软雅黑, Arial" text-anchor="middle" font-size="13px" width="69px" fill="#323232" font-weight="400" align="middle" lineHeight="125%" anchor="middle" family="&quot;Microsoft YaHei&quot;, 微软雅黑, Arial" size="13px" weight="400" font-style="" opacity="1" y="16.966" transform="rotate(0)"></text></g></g><g id="SvgjsG1051" transform="translate(1027.0115574923389,25.00000000000003)"><path id="SvgjsPath1052" d="M 0 3.9999999999999996Q 0 0 4 0L 84.909 0Q 88.909 0 88.909 3.9999999999999996L 88.909 51.182Q 88.909 55.182 84.909 55.182L 4 55.182Q 0 55.182 0 51.182Z" stroke="rgba(33,41,48,1)" stroke-width="1.5" fill-opacity="1" fill="#5b79e8"></path><g id="SvgjsG1053"><text id="SvgjsText1054" font-family="&quot;Microsoft YaHei&quot;, 微软雅黑, Arial" text-anchor="middle" font-size="13px" width="69px" fill="#323232" font-weight="400" align="middle" lineHeight="125%" anchor="middle" family="&quot;Microsoft YaHei&quot;, 微软雅黑, Arial" size="13px" weight="400" font-style="" opacity="1" y="16.966" transform="rotate(0)"></text></g></g><g id="SvgjsG1055" transform="translate(1135.1892655112472,42.59090909090909)"><path id="SvgjsPath1056" d="M 0 10C 0 -3.333 19.645 -3.333 19.645 10C 19.645 23.333 0 23.333 0 10Z" stroke="rgba(33,41,48,1)" stroke-width="1.5" fill-opacity="1" fill="#000000"></path><g id="SvgjsG1057"><text id="SvgjsText1058" font-family="&quot;Microsoft YaHei&quot;, 微软雅黑, Arial" text-anchor="middle" font-size="13px" width="0px" fill="#323232" font-weight="400" align="middle" lineHeight="125%" anchor="middle" family="&quot;Microsoft YaHei&quot;, 微软雅黑, Arial" size="13px" weight="400" font-style="" opacity="1" y="-0.625" transform="rotate(0)"></text></g></g><g id="SvgjsG1059" transform="translate(1174.1024665832483,42.59090909090915)"><path id="SvgjsPath1060" d="M 0 10C 0 -3.333 19.645 -3.333 19.645 10C 19.645 23.333 0 23.333 0 10Z" stroke="rgba(33,41,48,1)" stroke-width="1.5" fill-opacity="1" fill="#000000"></path><g id="SvgjsG1061"><text id="SvgjsText1062" font-family="&quot;Microsoft YaHei&quot;, 微软雅黑, Arial" text-anchor="middle" font-size="13px" width="0px" fill="#323232" font-weight="400" align="middle" lineHeight="125%" anchor="middle" family="&quot;Microsoft YaHei&quot;, 微软雅黑, Arial" size="13px" weight="400" font-style="" opacity="1" y="-0.625" transform="rotate(0)"></text></g></g><g id="SvgjsG1063" transform="translate(1213.0156676552494,42.59090909090915)"><path id="SvgjsPath1064" d="M 0 10C 0 -3.333 19.645 -3.333 19.645 10C 19.645 23.333 0 23.333 0 10Z" stroke="rgba(33,41,48,1)" stroke-width="1.5" fill-opacity="1" fill="#000000"></path><g id="SvgjsG1065"><text id="SvgjsText1066" font-family="&quot;Microsoft YaHei&quot;, 微软雅黑, Arial" text-anchor="middle" font-size="13px" width="0px" fill="#323232" font-weight="400" align="middle" lineHeight="125%" anchor="middle" family="&quot;Microsoft YaHei&quot;, 微软雅黑, Arial" size="13px" weight="400" font-style="" opacity="1" y="-0.625" transform="rotate(0)"></text></g></g><g id="SvgjsG1067" transform="translate(1266.8297393105208,25.000000000000057)"><path id="SvgjsPath1068" d="M 0 3.9999999999999996Q 0 0 4 0L 84.909 0Q 88.909 0 88.909 3.9999999999999996L 88.909 51.182Q 88.909 55.182 84.909 55.182L 4 55.182Q 0 55.182 0 51.182Z" stroke="rgba(33,41,48,1)" stroke-width="1.5" fill-opacity="1" fill="#a6aef3"></path><g id="SvgjsG1069"><text id="SvgjsText1070" font-family="&quot;Microsoft YaHei&quot;, 微软雅黑, Arial" text-anchor="middle" font-size="24px" width="69px" fill="#323232" font-weight="400" align="middle" lineHeight="125%" anchor="middle" family="&quot;Microsoft YaHei&quot;, 微软雅黑, Arial" size="24px" weight="400" font-style="" opacity="1" y="6.591000000000001" transform="rotate(0)"></text></g></g><g id="SvgjsG1071" transform="translate(1359.5570120377934,25.000000000000057)"><path id="SvgjsPath1072" d="M 0 3.9999999999999996Q 0 0 4 0L 84.909 0Q 88.909 0 88.909 3.9999999999999996L 88.909 51.182Q 88.909 55.182 84.909 55.182L 4 55.182Q 0 55.182 0 51.182Z" stroke="rgba(33,41,48,1)" stroke-width="1.5" fill-opacity="1" fill="#a6aef3"></path><g id="SvgjsG1073"><text id="SvgjsText1074" font-family="&quot;Microsoft YaHei&quot;, 微软雅黑, Arial" text-anchor="middle" font-size="24px" width="69px" fill="#323232" font-weight="400" align="middle" lineHeight="125%" anchor="middle" family="&quot;Microsoft YaHei&quot;, 微软雅黑, Arial" size="24px" weight="400" font-style="" opacity="1" y="6.591000000000001" transform="rotate(0)"></text></g></g><g id="SvgjsG1075" transform="translate(1452.284284765066,25.000000000000057)"><path id="SvgjsPath1076" d="M 0 3.9999999999999996Q 0 0 4 0L 84.909 0Q 88.909 0 88.909 3.9999999999999996L 88.909 51.182Q 88.909 55.182 84.909 55.182L 4 55.182Q 0 55.182 0 51.182Z" stroke="rgba(33,41,48,1)" stroke-width="1.5" fill-opacity="1" fill="#a6aef3"></path><g id="SvgjsG1077"><text id="SvgjsText1078" font-family="&quot;Microsoft YaHei&quot;, 微软雅黑, Arial" text-anchor="middle" font-size="24px" width="69px" fill="#323232" font-weight="400" align="middle" lineHeight="125%" anchor="middle" family="&quot;Microsoft YaHei&quot;, 微软雅黑, Arial" size="24px" weight="400" font-style="" opacity="1" y="6.591000000000001" transform="rotate(0)"></text></g></g><g id="SvgjsG1079" transform="translate(1545.0115574923373,25.000000000000057)"><path id="SvgjsPath1080" d="M 0 3.9999999999999996Q 0 0 4 0L 84.909 0Q 88.909 0 88.909 3.9999999999999996L 88.909 51.182Q 88.909 55.182 84.909 55.182L 4 55.182Q 0 55.182 0 51.182Z" stroke="rgba(33,41,48,1)" stroke-width="1.5" fill-opacity="1" fill="#a6aef3"></path><g id="SvgjsG1081"><text id="SvgjsText1082" font-family="&quot;Microsoft YaHei&quot;, 微软雅黑, Arial" text-anchor="middle" font-size="24px" width="69px" fill="#323232" font-weight="400" align="middle" lineHeight="125%" anchor="middle" family="&quot;Microsoft YaHei&quot;, 微软雅黑, Arial" size="24px" weight="400" font-style="" opacity="1" y="6.591000000000001" transform="rotate(0)"></text></g></g><g id="SvgjsG1083" transform="translate(1637.7388302196084,25.000000000000057)"><path id="SvgjsPath1084" d="M 0 3.9999999999999996Q 0 0 4 0L 84.909 0Q 88.909 0 88.909 3.9999999999999996L 88.909 51.182Q 88.909 55.182 84.909 55.182L 4 55.182Q 0 55.182 0 51.182Z" stroke="rgba(33,41,48,1)" stroke-width="1.5" fill-opacity="1" fill="#5b79e8"></path><g id="SvgjsG1085"><text id="SvgjsText1086" font-family="&quot;Microsoft YaHei&quot;, 微软雅黑, Arial" text-anchor="middle" font-size="13px" width="69px" fill="#323232" font-weight="400" align="middle" lineHeight="125%" anchor="middle" family="&quot;Microsoft YaHei&quot;, 微软雅黑, Arial" size="13px" weight="400" font-style="" opacity="1" y="16.966" transform="rotate(0)"></text></g></g><g id="SvgjsG1087" transform="translate(1730.4661029468816,25.000000000000057)"><path id="SvgjsPath1088" d="M 0 3.9999999999999996Q 0 0 4 0L 84.909 0Q 88.909 0 88.909 3.9999999999999996L 88.909 51.182Q 88.909 55.182 84.909 55.182L 4 55.182Q 0 55.182 0 51.182Z" stroke="rgba(33,41,48,1)" stroke-width="1.5" fill-opacity="1" fill="#5b79e8"></path><g id="SvgjsG1089"><text id="SvgjsText1090" font-family="&quot;Microsoft YaHei&quot;, 微软雅黑, Arial" text-anchor="middle" font-size="13px" width="69px" fill="#323232" font-weight="400" align="middle" lineHeight="125%" anchor="middle" family="&quot;Microsoft YaHei&quot;, 微软雅黑, Arial" size="13px" weight="400" font-style="" opacity="1" y="16.966" transform="rotate(0)"></text></g></g><g id="SvgjsG1091" transform="translate(1823.1933756741546,25.000000000000057)"><path id="SvgjsPath1092" d="M 0 3.9999999999999996Q 0 0 4 0L 84.909 0Q 88.909 0 88.909 3.9999999999999996L 88.909 51.182Q 88.909 55.182 84.909 55.182L 4 55.182Q 0 55.182 0 51.182Z" stroke="rgba(33,41,48,1)" stroke-width="1.5" fill-opacity="1" fill="#5b79e8"></path><g id="SvgjsG1093"><text id="SvgjsText1094" font-family="&quot;Microsoft YaHei&quot;, 微软雅黑, Arial" text-anchor="middle" font-size="13px" width="69px" fill="#323232" font-weight="400" align="middle" lineHeight="125%" anchor="middle" family="&quot;Microsoft YaHei&quot;, 微软雅黑, Arial" size="13px" weight="400" font-style="" opacity="1" y="16.966" transform="rotate(0)"></text></g></g><g id="SvgjsG1095" transform="translate(1915.9206484014267,25.000000000000057)"><path id="SvgjsPath1096" d="M 0 3.9999999999999996Q 0 0 4 0L 84.909 0Q 88.909 0 88.909 3.9999999999999996L 88.909 51.182Q 88.909 55.182 84.909 55.182L 4 55.182Q 0 55.182 0 51.182Z" stroke="rgba(33,41,48,1)" stroke-width="1.5" fill-opacity="1" fill="#5b79e8"></path><g id="SvgjsG1097"><text id="SvgjsText1098" font-family="&quot;Microsoft YaHei&quot;, 微软雅黑, Arial" text-anchor="middle" font-size="13px" width="69px" fill="#323232" font-weight="400" align="middle" lineHeight="125%" anchor="middle" family="&quot;Microsoft YaHei&quot;, 微软雅黑, Arial" size="13px" weight="400" font-style="" opacity="1" y="16.966" transform="rotate(0)"></text></g></g><g id="SvgjsG1099" transform="matrix(-1.8369701987210297e-16,-1,1,-1.8369701987210297e-16,35,140.59505462646484)"><path id="SvgjsPath1100" d="M 32.5 0Q 29.25 0 29.25 9L 29.25 47.875Q 29.25 56.875 10.5 56.875Q 29.25 56.875 29.25 65.875L 29.25 104.75Q 29.25 113.75 32.5 113.75" stroke="rgba(33,41,48,1)" stroke-width="2" fill="none"></path><path id="SvgjsPath1101" d="M 0 0L 32.5 0L 32.5 113.75L 0 113.75Z" stroke="none" fill="none"></path><g id="SvgjsG1102"><text id="SvgjsText1103" font-family="&quot;Microsoft YaHei&quot;, 微软雅黑, Arial" text-anchor="end" font-size="13px" width="6px" fill="#323232" font-weight="400" align="middle" lineHeight="125%" anchor="end" family="&quot;Microsoft YaHei&quot;, 微软雅黑, Arial" size="13px" weight="400" font-style="" opacity="1" y="46.25" transform="rotate(0)"></text></g></g><g id="SvgjsG1104" transform="matrix(-1.8369701987210297e-16,-1,1,-1.8369701987210297e-16,167.5,140.59505462646484)"><path id="SvgjsPath1105" d="M 32.5 0Q 29.25 0 29.25 9L 29.25 86Q 29.25 95 10.5 95Q 29.25 95 29.25 104L 29.25 181Q 29.25 190 32.5 190" stroke="rgba(33,41,48,1)" stroke-width="2" fill="none"></path><path id="SvgjsPath1106" d="M 0 0L 32.5 0L 32.5 190L 0 190Z" stroke="none" fill="none"></path><g id="SvgjsG1107"><text id="SvgjsText1108" font-family="&quot;Microsoft YaHei&quot;, 微软雅黑, Arial" text-anchor="end" font-size="13px" width="6px" fill="#323232" font-weight="400" align="middle" lineHeight="125%" anchor="end" family="&quot;Microsoft YaHei&quot;, 微软雅黑, Arial" size="13px" weight="400" font-style="" opacity="1" y="84.375" transform="rotate(0)"></text></g></g><g id="SvgjsG1109" transform="translate(25,138.09505393288353)"><path id="SvgjsPath1110" d="M 0 0L 120 0L 120 40L 0 40Z" stroke="none" fill="none"></path><g id="SvgjsG1111"><text id="SvgjsText1112" font-family="&quot;Microsoft YaHei&quot;, 微软雅黑, Arial" text-anchor="middle" font-size="24px" width="120px" fill="#323232" font-weight="400" align="middle" lineHeight="125%" anchor="middle" family="&quot;Microsoft YaHei&quot;, 微软雅黑, Arial" size="24px" weight="400" font-style="" opacity="1" y="-1" transform="rotate(0)"><tspan id="SvgjsTspan1113" dy="30" x="60"><tspan id="SvgjsTspan1114" style="">选项类型</tspan></tspan></text></g></g><g id="SvgjsG1115" transform="translate(170,138.09505393288353)"><path id="SvgjsPath1116" d="M 0 0L 181.25 0L 181.25 40L 0 40Z" stroke="none" fill="none"></path><g id="SvgjsG1117"><text id="SvgjsText1118" font-family="&quot;Microsoft YaHei&quot;, 微软雅黑, Arial" text-anchor="middle" font-size="24px" width="182px" fill="#323232" font-weight="400" align="middle" lineHeight="125%" anchor="middle" family="&quot;Microsoft YaHei&quot;, 微软雅黑, Arial" size="24px" weight="400" font-style="" opacity="1" y="-1" transform="rotate(0)"><tspan id="SvgjsTspan1119" dy="30" x="91"><tspan id="SvgjsTspan1120" style="">选项整体的长度</tspan></tspan></text></g></g><g id="SvgjsG1121" transform="matrix(-1.8369701987210297e-16,-1,1,-1.8369701987210297e-16,405,151.84505462646484)"><path id="SvgjsPath1122" d="M 42.5 0Q 38.25 0 38.25 9L 38.25 140.375Q 38.25 149.375 20.5 149.375Q 38.25 149.375 38.25 158.375L 38.25 289.75Q 38.25 298.75 42.5 298.75" stroke="rgba(33,41,48,1)" stroke-width="2" fill="none"></path><path id="SvgjsPath1123" d="M 0 0L 42.5 0L 42.5 298.75L 0 298.75Z" stroke="none" fill="none"></path><g id="SvgjsG1124"><text id="SvgjsText1125" font-family="&quot;Microsoft YaHei&quot;, 微软雅黑, Arial" text-anchor="end" font-size="24px" width="16px" fill="#323232" font-weight="400" align="middle" lineHeight="125%" anchor="end" family="&quot;Microsoft YaHei&quot;, 微软雅黑, Arial" size="24px" weight="400" font-style="" opacity="1" y="128.375" transform="rotate(0)"></text></g></g><g id="SvgjsG1126" transform="translate(435.17857142857144,130.59505393288353)"><path id="SvgjsPath1127" d="M 0 0L 241.25 0L 241.25 40L 0 40Z" stroke="none" fill="none"></path><g id="SvgjsG1128"><text id="SvgjsText1129" font-family="&quot;Microsoft YaHei&quot;, 微软雅黑, Arial" text-anchor="middle" font-size="24px" width="242px" fill="#323232" font-weight="400" align="middle" lineHeight="125%" anchor="middle" family="&quot;Microsoft YaHei&quot;, 微软雅黑, Arial" size="24px" weight="400" font-style="" opacity="1" y="-1" transform="rotate(0)"><tspan id="SvgjsTspan1130" dy="30" x="121"><tspan id="SvgjsTspan1131" style="">第1个缺失段左边缘</tspan></tspan></text></g></g><g id="SvgjsG1132" transform="matrix(-1.8369701987210297e-16,-1,1,-1.8369701987210297e-16,777.3297119140625,151.84505462646484)"><path id="SvgjsPath1133" d="M 42.5 0Q 38.25 0 38.25 9L 38.25 140.375Q 38.25 149.375 20.5 149.375Q 38.25 149.375 38.25 158.375L 38.25 289.75Q 38.25 298.75 42.5 298.75" stroke="rgba(33,41,48,1)" stroke-width="2" fill="none"></path><path id="SvgjsPath1134" d="M 0 0L 42.5 0L 42.5 298.75L 0 298.75Z" stroke="none" fill="none"></path><g id="SvgjsG1135"><text id="SvgjsText1136" font-family="&quot;Microsoft YaHei&quot;, 微软雅黑, Arial" text-anchor="end" font-size="24px" width="16px" fill="#323232" font-weight="400" align="middle" lineHeight="125%" anchor="end" family="&quot;Microsoft YaHei&quot;, 微软雅黑, Arial" size="24px" weight="400" font-style="" opacity="1" y="128.375" transform="rotate(0)"></text></g></g><g id="SvgjsG1137" transform="translate(802.5,130.59505393288353)"><path id="SvgjsPath1138" d="M 0 0L 271.25 0L 271.25 40L 0 40Z" stroke="none" fill="none"></path><g id="SvgjsG1139"><text id="SvgjsText1140" font-family="&quot;Microsoft YaHei&quot;, 微软雅黑, Arial" text-anchor="middle" font-size="24px" width="272px" fill="#323232" font-weight="400" align="middle" lineHeight="125%" anchor="middle" family="&quot;Microsoft YaHei&quot;, 微软雅黑, Arial" size="24px" weight="400" font-style="" opacity="1" y="-1" transform="rotate(0)"><tspan id="SvgjsTspan1141" dy="30" x="136"><tspan id="SvgjsTspan1142" style="">第1个缺失段右边缘</tspan></tspan></text></g></g><g id="SvgjsG1143" transform="matrix(-1.8369701987210297e-16,-1,1,-1.8369701987210297e-16,1314.4775390625,157.55933952331543)"><path id="SvgjsPath1144" d="M 42.5 0Q 38.25 0 38.25 9L 38.25 140.375Q 38.25 149.375 20.5 149.375Q 38.25 149.375 38.25 158.375L 38.25 289.75Q 38.25 298.75 42.5 298.75" stroke="rgba(33,41,48,1)" stroke-width="2" fill="none"></path><path id="SvgjsPath1145" d="M 0 0L 42.5 0L 42.5 298.75L 0 298.75Z" stroke="none" fill="none"></path><g id="SvgjsG1146"><text id="SvgjsText1147" font-family="&quot;Microsoft YaHei&quot;, 微软雅黑, Arial" text-anchor="end" font-size="24px" width="16px" fill="#323232" font-weight="400" align="middle" lineHeight="125%" anchor="end" family="&quot;Microsoft YaHei&quot;, 微软雅黑, Arial" size="24px" weight="400" font-style="" opacity="1" y="128.375" transform="rotate(0)"></text></g></g><g id="SvgjsG1148" transform="translate(1343.2275700259518,136.3093396471692)"><path id="SvgjsPath1149" d="M 0 0L 241.25 0L 241.25 40L 0 40Z" stroke="none" fill="none"></path><g id="SvgjsG1150"><text id="SvgjsText1151" font-family="&quot;Microsoft YaHei&quot;, 微软雅黑, Arial" text-anchor="middle" font-size="24px" width="242px" fill="#323232" font-weight="400" align="middle" lineHeight="125%" anchor="middle" family="&quot;Microsoft YaHei&quot;, 微软雅黑, Arial" size="24px" weight="400" font-style="" opacity="1" y="-1" transform="rotate(0)"><tspan id="SvgjsTspan1152" dy="30" x="121"><tspan id="SvgjsTspan1153" style="">第N个缺失段左边缘</tspan></tspan></text></g></g><g id="SvgjsG1154" transform="matrix(-1.8369701987210297e-16,-1,1,-1.8369701987210297e-16,1686.8072509765625,157.55933952331543)"><path id="SvgjsPath1155" d="M 42.5 0Q 38.25 0 38.25 9L 38.25 140.375Q 38.25 149.375 20.5 149.375Q 38.25 149.375 38.25 158.375L 38.25 289.75Q 38.25 298.75 42.5 298.75" stroke="rgba(33,41,48,1)" stroke-width="2" fill="none"></path><path id="SvgjsPath1156" d="M 0 0L 42.5 0L 42.5 298.75L 0 298.75Z" stroke="none" fill="none"></path><g id="SvgjsG1157"><text id="SvgjsText1158" font-family="&quot;Microsoft YaHei&quot;, 微软雅黑, Arial" text-anchor="end" font-size="24px" width="16px" fill="#323232" font-weight="400" align="middle" lineHeight="125%" anchor="end" family="&quot;Microsoft YaHei&quot;, 微软雅黑, Arial" size="24px" weight="400" font-style="" opacity="1" y="128.375" transform="rotate(0)"></text></g></g><g id="SvgjsG1159" transform="translate(1711.977570025953,136.3093396471692)"><path id="SvgjsPath1160" d="M 0 0L 271.25 0L 271.25 40L 0 40Z" stroke="none" fill="none"></path><g id="SvgjsG1161"><text id="SvgjsText1162" font-family="&quot;Microsoft YaHei&quot;, 微软雅黑, Arial" text-anchor="middle" font-size="24px" width="272px" fill="#323232" font-weight="400" align="middle" lineHeight="125%" anchor="middle" family="&quot;Microsoft YaHei&quot;, 微软雅黑, Arial" size="24px" weight="400" font-style="" opacity="1" y="-1" transform="rotate(0)"><tspan id="SvgjsTspan1163" dy="30" x="136"><tspan id="SvgjsTspan1164" style="">第N个缺失段右边缘</tspan></tspan></text></g></g><g id="SvgjsG1165"></g></svg>