<svg id="SvgjsSvg1167" width="1304.3406747735048" height="1041.6666666666665" xmlns="http://www.w3.org/2000/svg" version="1.1" xmlns:xlink="http://www.w3.org/1999/xlink" xmlns:svgjs="http://svgjs.com/svgjs"><defs id="SvgjsDefs1168"><pattern patternUnits="userSpaceOnUse" id="pattern_mark_0" width="300" height="300"><text x="150" y="100" fill="rgba(229,229,229,0.8)" font-size="18" transform="rotate(-45, 150, 150)" style="dominant-baseline: middle; text-anchor: middle;"></text></pattern><pattern patternUnits="userSpaceOnUse" id="pattern_mark_1" width="300" height="300"><text x="150" y="200" fill="rgba(229,229,229,0.8)" font-size="18" transform="rotate(-45, 150, 150)" style="dominant-baseline: middle; text-anchor: middle;"></text></pattern></defs><rect id="svgbackgroundid" width="1304.3406747735048" height="1041.6666666666665" fill="transparent"></rect><rect id="SvgjsRect1170" width="1304.3406747735048" height="1041.6666666666665" fill="url(#pattern_mark_0)"></rect><rect id="SvgjsRect1171" width="1304.3406747735048" height="1041.6666666666665" fill="url(#pattern_mark_1)"></rect><g id="SvgjsG1172" transform="translate(319.5454545454545,95.20202020202018)"><path id="SvgjsPath1173" d="M 19.8 0L 40.2 0L 40.2 891.465L 60 891.465L 30 921.465L 0 891.465L 19.8 891.465L 19.8 0Z" stroke="rgba(33,41,48,1)" stroke-width="1.5" fill-opacity="1" fill="#ffffff"></path><g id="SvgjsG1174"><text id="SvgjsText1175" font-family="&quot;Microsoft YaHei&quot;, 微软雅黑, Arial" text-anchor="middle" font-size="24px" width="84px" fill="#323232" font-weight="400" align="middle" lineHeight="125%" anchor="middle" family="&quot;Microsoft YaHei&quot;, 微软雅黑, Arial" size="24px" weight="400" font-style="" opacity="1" y="393.659" transform="rotate(0)"></text></g></g><g id="SvgjsG1176" transform="translate(1085.909090909091,95.20202020202018)"><path id="SvgjsPath1177" d="M 19.8 0L 40.2 0L 40.2 875.909L 60 875.909L 30 905.909L 0 875.909L 19.8 875.909L 19.8 0Z" stroke="rgba(33,41,48,1)" stroke-width="1.5" fill-opacity="1" fill="#ffffff"></path><g id="SvgjsG1178"><text id="SvgjsText1179" font-family="&quot;Microsoft YaHei&quot;, 微软雅黑, Arial" text-anchor="middle" font-size="24px" width="84px" fill="#323232" font-weight="400" align="middle" lineHeight="125%" anchor="middle" family="&quot;Microsoft YaHei&quot;, 微软雅黑, Arial" size="24px" weight="400" font-style="" opacity="1" y="386.659" transform="rotate(0)"></text></g></g><g id="SvgjsG1180" transform="translate(299.5454545454545,25.000000000000014)"><path id="SvgjsPath1181" d="M 16.667 0L 83.333 0C 105.556 0 105.556 50 83.333 50L 16.667 50C -5.556 50 -5.556 0 16.667 0Z" stroke="rgba(255,255,255,1)" stroke-width="1.5" fill-opacity="1" fill="#7bd144"></path><g id="SvgjsG1182"><text id="SvgjsText1183" font-family="&quot;Microsoft YaHei&quot;, 微软雅黑, Arial" text-anchor="middle" font-size="24px" width="80px" fill="#323232" font-weight="400" align="middle" lineHeight="125%" anchor="middle" family="&quot;Microsoft YaHei&quot;, 微软雅黑, Arial" size="24px" weight="400" font-style="" opacity="1" y="4" transform="rotate(0)"><tspan id="SvgjsTspan1184" dy="30" x="50"><tspan id="SvgjsTspan1185" style="">发送端</tspan></tspan></text></g></g><g id="SvgjsG1186" transform="translate(1065.909090909091,25)"><path id="SvgjsPath1187" d="M 16.667 0L 83.333 0C 105.556 0 105.556 50 83.333 50L 16.667 50C -5.556 50 -5.556 0 16.667 0Z" stroke="rgba(255,255,255,1)" stroke-width="1.5" fill-opacity="1" fill="#f1ac6a"></path><g id="SvgjsG1188"><text id="SvgjsText1189" font-family="&quot;Microsoft YaHei&quot;, 微软雅黑, Arial" text-anchor="middle" font-size="24px" width="80px" fill="#323232" font-weight="400" align="middle" lineHeight="125%" anchor="middle" family="&quot;Microsoft YaHei&quot;, 微软雅黑, Arial" size="24px" weight="400" font-style="" opacity="1" y="4" transform="rotate(0)"><tspan id="SvgjsTspan1190" dy="30" x="50"><tspan id="SvgjsTspan1191" style="">接收端</tspan></tspan></text></g></g><g id="SvgjsG1192" transform="translate(172.77777777777771,141.88888888888889)"><path id="SvgjsPath1193" d="M 0 4Q 0 0 4 0L 150.667 0Q 154.667 0 154.667 4L 154.667 50Q 154.667 54 150.667 54L 4 54Q 0 54 0 50Z" stroke="rgba(255,255,255,1)" stroke-width="1.5" fill-opacity="1" fill="#7bd144"></path><g id="SvgjsG1194"><text id="SvgjsText1195" font-family="&quot;Microsoft YaHei&quot;, 微软雅黑, Arial" text-anchor="middle" font-size="24px" width="135px" fill="#323232" font-weight="400" align="middle" lineHeight="125%" anchor="middle" family="&quot;Microsoft YaHei&quot;, 微软雅黑, Arial" size="24px" weight="400" font-style="" opacity="1" y="6" transform="rotate(0)"><tspan id="SvgjsTspan1196" dy="30" x="77.5"><tspan id="SvgjsTspan1197" style="">seq 1:101</tspan></tspan></text></g></g><g id="SvgjsG1198" transform="translate(142.77777777777777,234.11111111111106)"><path id="SvgjsPath1199" d="M 0 4Q 0 0 4 0L 180.667 0Q 184.667 0 184.667 4L 184.667 50Q 184.667 54 180.667 54L 4 54Q 0 54 0 50Z" stroke="rgba(255,255,255,1)" stroke-width="1.5" fill-opacity="1" fill="#7bd144"></path><g id="SvgjsG1200"><text id="SvgjsText1201" font-family="&quot;Microsoft YaHei&quot;, 微软雅黑, Arial" text-anchor="middle" font-size="24px" width="165px" fill="#323232" font-weight="400" align="middle" lineHeight="125%" anchor="middle" family="&quot;Microsoft YaHei&quot;, 微软雅黑, Arial" size="24px" weight="400" font-style="" opacity="1" y="6" transform="rotate(0)"><tspan id="SvgjsTspan1202" dy="30" x="92.5"><tspan id="SvgjsTspan1203" style="">seq 101:201</tspan></tspan></text></g></g><g id="SvgjsG1204" transform="translate(133.8888888888889,497.44444444444457)"><path id="SvgjsPath1205" d="M 0 4Q 0 0 4 0L 189.556 0Q 193.556 0 193.556 4L 193.556 50Q 193.556 54 189.556 54L 4 54Q 0 54 0 50Z" stroke="rgba(255,255,255,1)" stroke-width="1.5" fill-opacity="1" fill="#7bd144"></path><g id="SvgjsG1206"><text id="SvgjsText1207" font-family="&quot;Microsoft YaHei&quot;, 微软雅黑, Arial" text-anchor="middle" font-size="24px" width="174px" fill="#323232" font-weight="400" align="middle" lineHeight="125%" anchor="middle" family="&quot;Microsoft YaHei&quot;, 微软雅黑, Arial" size="24px" weight="400" font-style="" opacity="1" y="6" transform="rotate(0)"><tspan id="SvgjsTspan1208" dy="30" x="97"><tspan id="SvgjsTspan1209" style="">seq 401:501</tspan></tspan></text></g></g><g id="SvgjsG1210" transform="translate(133.88888888888886,411.8888888888889)"><path id="SvgjsPath1211" d="M 0 4Q 0 0 4 0L 189.556 0Q 193.556 0 193.556 4L 193.556 50Q 193.556 54 189.556 54L 4 54Q 0 54 0 50Z" stroke="rgba(255,255,255,1)" stroke-width="1.5" fill-opacity="1" fill="#7bd144"></path><g id="SvgjsG1212"><text id="SvgjsText1213" font-family="&quot;Microsoft YaHei&quot;, 微软雅黑, Arial" text-anchor="middle" font-size="24px" width="174px" fill="#323232" font-weight="400" align="middle" lineHeight="125%" anchor="middle" family="&quot;Microsoft YaHei&quot;, 微软雅黑, Arial" size="24px" weight="400" font-style="" opacity="1" y="6" transform="rotate(0)"><tspan id="SvgjsTspan1214" dy="30" x="97"><tspan id="SvgjsTspan1215" style="">seq 301:401</tspan></tspan></text></g></g><g id="SvgjsG1216" transform="translate(142.77777777777783,326.33333333333326)"><path id="SvgjsPath1217" d="M 0 4Q 0 0 4 0L 180.667 0Q 184.667 0 184.667 4L 184.667 50Q 184.667 54 180.667 54L 4 54Q 0 54 0 50Z" stroke="rgba(255,255,255,1)" stroke-width="1.5" fill-opacity="1" fill="#7bd144"></path><g id="SvgjsG1218"><text id="SvgjsText1219" font-family="&quot;Microsoft YaHei&quot;, 微软雅黑, Arial" text-anchor="middle" font-size="24px" width="165px" fill="#323232" font-weight="400" align="middle" lineHeight="125%" anchor="middle" family="&quot;Microsoft YaHei&quot;, 微软雅黑, Arial" size="24px" weight="400" font-style="" opacity="1" y="6" transform="rotate(0)"><tspan id="SvgjsTspan1220" dy="30" x="92.5"><tspan id="SvgjsTspan1221" style="">seq 201:301</tspan></tspan></text></g></g><g id="SvgjsG1222" transform="translate(133.8888888888889,860.5757575757576)"><path id="SvgjsPath1223" d="M 0 4Q 0 0 4 0L 189.556 0Q 193.556 0 193.556 4L 193.556 50Q 193.556 54 189.556 54L 4 54Q 0 54 0 50Z" stroke="rgba(255,255,255,1)" stroke-width="1.5" fill-opacity="1" fill="#7bd144"></path><g id="SvgjsG1224"><text id="SvgjsText1225" font-family="&quot;Microsoft YaHei&quot;, 微软雅黑, Arial" text-anchor="middle" font-size="24px" width="174px" fill="#323232" font-weight="400" align="middle" lineHeight="125%" anchor="middle" family="&quot;Microsoft YaHei&quot;, 微软雅黑, Arial" size="24px" weight="400" font-style="" opacity="1" y="6" transform="rotate(0)"><tspan id="SvgjsTspan1226" dy="30" x="97"><tspan id="SvgjsTspan1227" style="">seq 101:201</tspan></tspan></text></g></g><g id="SvgjsG1228" transform="translate(366.27645551260116,163.94155602197426)"><path id="SvgjsPath1229" d="M 0 6.6L 724.704 6.6L 724.704 0L 734.704 10L 724.704 20L 724.704 13.4L 0 13.4L 0 6.6Z" stroke="rgba(255,255,255,1)" stroke-width="1.5" fill-opacity="1" fill="#7bd144"></path><g id="SvgjsG1230"><text id="SvgjsText1231" font-family="&quot;Microsoft YaHei&quot;, 微软雅黑, Arial" text-anchor="middle" font-size="13px" width="735px" fill="#323232" font-weight="400" align="middle" lineHeight="125%" anchor="middle" family="&quot;Microsoft YaHei&quot;, 微软雅黑, Arial" size="13px" weight="400" font-style="" opacity="1" y="-0.625" transform="rotate(0)"></text></g></g><g id="SvgjsG1232" transform="matrix(-0.9961946980917455,0.08715574274765775,-0.08715574274765775,-0.9961946980917455,1099.3434459951964,205.21997889947266)"><path id="SvgjsPath1233" d="M 0 6.6L 724.704 6.6L 724.704 0L 734.704 10L 724.704 20L 724.704 13.4L 0 13.4L 0 6.6Z" stroke="rgba(255,255,255,1)" stroke-width="1.5" fill-opacity="1" fill="#f1ac6a"></path><g id="SvgjsG1234"><text id="SvgjsText1235" font-family="&quot;Microsoft YaHei&quot;, 微软雅黑, Arial" text-anchor="middle" font-size="13px" width="735px" fill="#323232" font-weight="400" align="middle" lineHeight="125%" anchor="middle" family="&quot;Microsoft YaHei&quot;, 微软雅黑, Arial" size="13px" weight="400" font-style="" opacity="1" y="-0.625" transform="rotate(0)"><tspan id="SvgjsTspan1236" dy="16.25" x="367.5"><tspan id="SvgjsTspan1237" style=""> </tspan></tspan></text></g></g><g id="SvgjsG1238" transform="translate(366.27645551260105,268.1111111111111)"><path id="SvgjsPath1239" d="M 0 6.6L 353.168 6.6L 353.168 0L 363.168 10L 353.168 20L 353.168 13.4L 0 13.4L 0 6.6Z" stroke="none" fill-opacity="1" fill="#7bd144"></path><g id="SvgjsG1240"><text id="SvgjsText1241" font-family="&quot;Microsoft YaHei&quot;, 微软雅黑, Arial" text-anchor="middle" font-size="13px" width="364px" fill="#323232" font-weight="400" align="middle" lineHeight="125%" anchor="middle" family="&quot;Microsoft YaHei&quot;, 微软雅黑, Arial" size="13px" weight="400" font-style="" opacity="1" y="-0.625" transform="rotate(0)"></text></g></g><g id="SvgjsG1242" transform="translate(366.27645551260105,360.33333333333326)"><path id="SvgjsPath1243" d="M 0 6.6L 724.704 6.6L 724.704 0L 734.704 10L 724.704 20L 724.704 13.4L 0 13.4L 0 6.6Z" stroke="rgba(255,255,255,1)" stroke-width="1.5" fill-opacity="1" fill="#7bd144"></path><g id="SvgjsG1244"><text id="SvgjsText1245" font-family="&quot;Microsoft YaHei&quot;, 微软雅黑, Arial" text-anchor="middle" font-size="13px" width="735px" fill="#323232" font-weight="400" align="middle" lineHeight="125%" anchor="middle" family="&quot;Microsoft YaHei&quot;, 微软雅黑, Arial" size="13px" weight="400" font-style="" opacity="1" y="-0.625" transform="rotate(0)"></text></g></g><g id="SvgjsG1246" transform="translate(368.49867773482333,442.55555555555543)"><path id="SvgjsPath1247" d="M 0 6.6L 724.704 6.6L 724.704 0L 734.704 10L 724.704 20L 724.704 13.4L 0 13.4L 0 6.6Z" stroke="rgba(255,255,255,1)" stroke-width="1.5" fill-opacity="1" fill="#7bd144"></path><g id="SvgjsG1248"><text id="SvgjsText1249" font-family="&quot;Microsoft YaHei&quot;, 微软雅黑, Arial" text-anchor="middle" font-size="13px" width="735px" fill="#323232" font-weight="400" align="middle" lineHeight="125%" anchor="middle" family="&quot;Microsoft YaHei&quot;, 微软雅黑, Arial" size="13px" weight="400" font-style="" opacity="1" y="-0.625" transform="rotate(0)"></text></g></g><g id="SvgjsG1250" transform="translate(368.49867773482333,531.4444444444446)"><path id="SvgjsPath1251" d="M 0 6.6L 724.704 6.6L 724.704 0L 734.704 10L 724.704 20L 724.704 13.4L 0 13.4L 0 6.6Z" stroke="rgba(255,255,255,1)" stroke-width="1.5" fill-opacity="1" fill="#7bd144"></path><g id="SvgjsG1252"><text id="SvgjsText1253" font-family="&quot;Microsoft YaHei&quot;, 微软雅黑, Arial" text-anchor="middle" font-size="13px" width="735px" fill="#323232" font-weight="400" align="middle" lineHeight="125%" anchor="middle" family="&quot;Microsoft YaHei&quot;, 微软雅黑, Arial" size="13px" weight="400" font-style="" opacity="1" y="-0.625" transform="rotate(0)"></text></g></g><g id="SvgjsG1254" transform="translate(369.33465742445674,877.5757575757576)"><path id="SvgjsPath1255" d="M 0 6.6L 724.704 6.6L 724.704 0L 734.704 10L 724.704 20L 724.704 13.4L 0 13.4L 0 6.6Z" stroke="rgba(255,255,255,1)" stroke-width="1.5" fill-opacity="1" fill="#7bd144"></path><g id="SvgjsG1256"><text id="SvgjsText1257" font-family="&quot;Microsoft YaHei&quot;, 微软雅黑, Arial" text-anchor="middle" font-size="13px" width="735px" fill="#323232" font-weight="400" align="middle" lineHeight="125%" anchor="middle" family="&quot;Microsoft YaHei&quot;, 微软雅黑, Arial" size="13px" weight="400" font-style="" opacity="1" y="-0.625" transform="rotate(0)"></text></g></g><g id="SvgjsG1258" transform="matrix(-0.9396926207859083,0.3420201433256689,-0.3420201433256689,-0.9396926207859083,1100.0736038158536,395.5756899350803)"><path id="SvgjsPath1259" d="M 0 6.6L 765.811 6.6L 765.811 0L 775.811 10L 765.811 20L 765.811 13.4L 0 13.4L 0 6.6Z" stroke="rgba(255,255,255,1)" stroke-width="1.5" fill-opacity="1" fill="#f1ac6a"></path><g id="SvgjsG1260"><text id="SvgjsText1261" font-family="&quot;Microsoft YaHei&quot;, 微软雅黑, Arial" text-anchor="middle" font-size="13px" width="776px" fill="#323232" font-weight="400" align="middle" lineHeight="125%" anchor="middle" family="&quot;Microsoft YaHei&quot;, 微软雅黑, Arial" size="13px" weight="400" font-style="" opacity="1" y="-0.625" transform="rotate(0)"></text></g></g><g id="SvgjsG1262" transform="translate(246.33333333333314,619.661616161616)"><path id="SvgjsPath1263" d="M 81.111 0Q 73 0 73 9L 73 96.472Q 73 105.472 59.111 105.472Q 73 105.472 73 114.472L 73 201.944Q 73 210.944 81.111 210.944" stroke="rgba(33,41,48,1)" stroke-width="3" fill="none"></path><path id="SvgjsPath1264" d="M 0 0L 81.111 0L 81.111 210.944L 0 210.944Z" stroke="none" fill="none"></path><g id="SvgjsG1265"><text id="SvgjsText1266" font-family="&quot;Microsoft YaHei&quot;, 微软雅黑, Arial" text-anchor="end" font-size="13px" width="55px" fill="#323232" font-weight="400" align="middle" lineHeight="125%" anchor="end" family="&quot;Microsoft YaHei&quot;, 微软雅黑, Arial" size="13px" weight="400" font-style="" opacity="1" y="94.847" transform="rotate(0)"></text></g></g><g id="SvgjsG1267" transform="translate(81.2472286150994,708.3838383838383)"><path id="SvgjsPath1268" d="M 0 0L 230 0L 230 60L 0 60Z" stroke="none" fill="none"></path><g id="SvgjsG1269"><text id="SvgjsText1270" font-family="&quot;Microsoft YaHei&quot;, 微软雅黑, Arial" text-anchor="middle" font-size="24px" width="230px" fill="#323232" font-weight="400" align="middle" lineHeight="125%" anchor="middle" family="&quot;Microsoft YaHei&quot;, 微软雅黑, Arial" size="24px" weight="400" font-style="" opacity="1" y="9" transform="rotate(0)"><tspan id="SvgjsTspan1271" dy="30" x="115"><tspan id="SvgjsTspan1272" style="">收到三次ACK 201</tspan></tspan></text></g></g><g id="SvgjsG1273" transform="translate(25,867.5757575757576)"><path id="SvgjsPath1274" d="M 0 0L 100 0L 100 40L 0 40Z" stroke="none" fill="none"></path><g id="SvgjsG1275"><text id="SvgjsText1276" font-family="&quot;Microsoft YaHei&quot;, 微软雅黑, Arial" text-anchor="middle" font-size="24px" width="100px" fill="#323232" font-weight="400" align="middle" lineHeight="125%" anchor="middle" family="&quot;Microsoft YaHei&quot;, 微软雅黑, Arial" size="24px" weight="400" font-style="" opacity="1" y="-1" transform="rotate(0)"><tspan id="SvgjsTspan1277" dy="30" x="50"><tspan id="SvgjsTspan1278" style="">快速重传</tspan></tspan></text></g></g><g id="SvgjsG1279" transform="translate(1137.5906747735048,180.11111111111106)"><path id="SvgjsPath1280" d="M 0 4Q 0 0 4 0L 137.75 0Q 141.75 0 141.75 4L 141.75 50Q 141.75 54 137.75 54L 4 54Q 0 54 0 50Z" stroke="rgba(255,255,255,1)" stroke-width="1.5" fill-opacity="1" fill="#f1ac6a"></path><g id="SvgjsG1281"><text id="SvgjsText1282" font-family="&quot;Microsoft YaHei&quot;, 微软雅黑, Arial" text-anchor="middle" font-size="24px" width="122px" fill="#323232" font-weight="400" align="middle" lineHeight="125%" anchor="middle" family="&quot;Microsoft YaHei&quot;, 微软雅黑, Arial" size="24px" weight="400" font-style="" opacity="1" y="6" transform="rotate(0)"><tspan id="SvgjsTspan1283" dy="30" x="71"><tspan id="SvgjsTspan1284" style="">ACK 101</tspan></tspan></text></g></g><g id="SvgjsG1285" transform="translate(1132.5906747735048,380.33333333333326)"><path id="SvgjsPath1286" d="M 0 4Q 0 0 4 0L 137.75 0Q 141.75 0 141.75 4L 141.75 50Q 141.75 54 137.75 54L 4 54Q 0 54 0 50Z" stroke="rgba(255,255,255,1)" stroke-width="1.5" fill-opacity="1" fill="#f1ac6a"></path><g id="SvgjsG1287"><text id="SvgjsText1288" font-family="&quot;Microsoft YaHei&quot;, 微软雅黑, Arial" text-anchor="middle" font-size="24px" width="122px" fill="#323232" font-weight="400" align="middle" lineHeight="125%" anchor="middle" family="&quot;Microsoft YaHei&quot;, 微软雅黑, Arial" size="24px" weight="400" font-style="" opacity="1" y="6" transform="rotate(0)"><tspan id="SvgjsTspan1289" dy="30" x="71"><tspan id="SvgjsTspan1290" style="">ACK 201</tspan></tspan></text></g></g><g id="SvgjsG1291" transform="translate(1132.5906747735048,472.83333333333326)"><path id="SvgjsPath1292" d="M 0 4Q 0 0 4 0L 137.75 0Q 141.75 0 141.75 4L 141.75 50Q 141.75 54 137.75 54L 4 54Q 0 54 0 50Z" stroke="rgba(255,255,255,1)" stroke-width="1.5" fill-opacity="1" fill="#f1ac6a"></path><g id="SvgjsG1293"><text id="SvgjsText1294" font-family="&quot;Microsoft YaHei&quot;, 微软雅黑, Arial" text-anchor="middle" font-size="24px" width="122px" fill="#323232" font-weight="400" align="middle" lineHeight="125%" anchor="middle" family="&quot;Microsoft YaHei&quot;, 微软雅黑, Arial" size="24px" weight="400" font-style="" opacity="1" y="6" transform="rotate(0)"><tspan id="SvgjsTspan1295" dy="30" x="71"><tspan id="SvgjsTspan1296" style="">ACK 201</tspan></tspan></text></g></g><g id="SvgjsG1297" transform="translate(1132.5906747735048,556.5833333333333)"><path id="SvgjsPath1298" d="M 0 4Q 0 0 4 0L 137.75 0Q 141.75 0 141.75 4L 141.75 50Q 141.75 54 137.75 54L 4 54Q 0 54 0 50Z" stroke="rgba(255,255,255,1)" stroke-width="1.5" fill-opacity="1" fill="#f1ac6a"></path><g id="SvgjsG1299"><text id="SvgjsText1300" font-family="&quot;Microsoft YaHei&quot;, 微软雅黑, Arial" text-anchor="middle" font-size="24px" width="122px" fill="#323232" font-weight="400" align="middle" lineHeight="125%" anchor="middle" family="&quot;Microsoft YaHei&quot;, 微软雅黑, Arial" size="24px" weight="400" font-style="" opacity="1" y="6" transform="rotate(0)"><tspan id="SvgjsTspan1301" dy="30" x="71"><tspan id="SvgjsTspan1302" style="">ACK 201</tspan></tspan></text></g></g><g id="SvgjsG1303" transform="translate(742.0000000000001,251.11111111111106)"><path id="SvgjsPath1304" d="M 0 4Q 0 0 4 0L 92 0Q 96 0 96 4L 96 50Q 96 54 92 54L 4 54Q 0 54 0 50Z" stroke="rgba(255,255,255,1)" stroke-width="1.5" fill-opacity="1" fill="#d90f0f"></path><g id="SvgjsG1305"><text id="SvgjsText1306" font-family="&quot;Microsoft YaHei&quot;, 微软雅黑, Arial" text-anchor="middle" font-size="24px" width="76px" fill="#ffffff" font-weight="400" align="middle" lineHeight="125%" anchor="middle" family="&quot;Microsoft YaHei&quot;, 微软雅黑, Arial" size="24px" weight="400" font-style="" opacity="1" y="6" transform="rotate(0)"><tspan id="SvgjsTspan1307" dy="30" x="48"><tspan id="SvgjsTspan1308" style="">丢了</tspan></tspan></text></g></g><g id="SvgjsG1309" transform="matrix(-0.9961946980917455,0.08715574274765775,-0.08715574274765775,-0.9961946980917455,1102.4530285291867,916.2434281584169)"><path id="SvgjsPath1310" d="M 0 6.6L 734.222 6.6L 734.222 0L 744.222 10L 734.222 20L 734.222 13.4L 0 13.4L 0 6.6Z" stroke="rgba(255,255,255,1)" stroke-width="1.5" fill-opacity="1" fill="#f1ac6a"></path><g id="SvgjsG1311"><text id="SvgjsText1312" font-family="&quot;Microsoft YaHei&quot;, 微软雅黑, Arial" text-anchor="middle" font-size="13px" width="745px" fill="#323232" font-weight="400" align="middle" lineHeight="125%" anchor="middle" family="&quot;Microsoft YaHei&quot;, 微软雅黑, Arial" size="13px" weight="400" font-style="" opacity="1" y="-0.625" transform="rotate(0)"></text></g></g><g id="SvgjsG1313" transform="translate(1132.5906747735048,897.5757575757576)"><path id="SvgjsPath1314" d="M 0 4Q 0 0 4 0L 137.75 0Q 141.75 0 141.75 4L 141.75 50Q 141.75 54 137.75 54L 4 54Q 0 54 0 50Z" stroke="rgba(255,255,255,1)" stroke-width="1.5" fill-opacity="1" fill="#f1ac6a"></path><g id="SvgjsG1315"><text id="SvgjsText1316" font-family="&quot;Microsoft YaHei&quot;, 微软雅黑, Arial" text-anchor="middle" font-size="24px" width="122px" fill="#323232" font-weight="400" align="middle" lineHeight="125%" anchor="middle" family="&quot;Microsoft YaHei&quot;, 微软雅黑, Arial" size="24px" weight="400" font-style="" opacity="1" y="6" transform="rotate(0)"><tspan id="SvgjsTspan1317" dy="30" x="71"><tspan id="SvgjsTspan1318" style="">ACK 501</tspan></tspan></text></g></g><g id="SvgjsG1319" transform="matrix(-0.9396926207859083,0.3420201433256689,-0.3420201433256689,-0.9396926207859083,1100.0736038158536,477.3938662046115)"><path id="SvgjsPath1320" d="M 0 6.6L 765.811 6.6L 765.811 0L 775.811 10L 765.811 20L 765.811 13.4L 0 13.4L 0 6.6Z" stroke="rgba(255,255,255,1)" stroke-width="1.5" fill-opacity="1" fill="#f1ac6a"></path><g id="SvgjsG1321"><text id="SvgjsText1322" font-family="&quot;Microsoft YaHei&quot;, 微软雅黑, Arial" text-anchor="middle" font-size="13px" width="776px" fill="#323232" font-weight="400" align="middle" lineHeight="125%" anchor="middle" family="&quot;Microsoft YaHei&quot;, 微软雅黑, Arial" size="13px" weight="400" font-style="" opacity="1" y="-0.625" transform="rotate(0)"></text></g></g><g id="SvgjsG1323" transform="matrix(-0.9396926207859083,0.3420201433256689,-0.3420201433256689,-0.9396926207859083,1104.6190750072599,559.2120424741428)"><path id="SvgjsPath1324" d="M 0 6.6L 765.811 6.6L 765.811 0L 775.811 10L 765.811 20L 765.811 13.4L 0 13.4L 0 6.6Z" stroke="rgba(255,255,255,1)" stroke-width="1.5" fill-opacity="1" fill="#f1ac6a"></path><g id="SvgjsG1325"><text id="SvgjsText1326" font-family="&quot;Microsoft YaHei&quot;, 微软雅黑, Arial" text-anchor="middle" font-size="13px" width="776px" fill="#323232" font-weight="400" align="middle" lineHeight="125%" anchor="middle" family="&quot;Microsoft YaHei&quot;, 微软雅黑, Arial" size="13px" weight="400" font-style="" opacity="1" y="-0.625" transform="rotate(0)"></text></g></g><g id="SvgjsG1327"></g></svg>