<svg id="SvgjsSvg1006" width="2110.8333333333335" height="930.0533003816919" xmlns="http://www.w3.org/2000/svg" version="1.1" xmlns:xlink="http://www.w3.org/1999/xlink" xmlns:svgjs="http://svgjs.com/svgjs"><defs id="SvgjsDefs1007"><pattern patternUnits="userSpaceOnUse" id="pattern_mark_0" width="300" height="300"><text x="150" y="100" fill="rgba(229,229,229,0.8)" font-size="18" transform="rotate(-45, 150, 150)" style="dominant-baseline: middle; text-anchor: middle;"></text></pattern><pattern patternUnits="userSpaceOnUse" id="pattern_mark_1" width="300" height="300"><text x="150" y="200" fill="rgba(229,229,229,0.8)" font-size="18" transform="rotate(-45, 150, 150)" style="dominant-baseline: middle; text-anchor: middle;"></text></pattern><marker id="SvgjsMarker1051" markerWidth="13" markerHeight="9" refX="9.5" refY="4.5" viewBox="0 0 13 9" orient="auto" markerUnits="userSpaceOnUse" stroke-dasharray="0,0"><path id="SvgjsPath1052" d="M0,0 L13,4.5 L0,9 L0,0" fill="#323232" stroke="#323232" stroke-width="1"></path></marker><marker id="SvgjsMarker1195" markerWidth="13" markerHeight="9" refX="9.5" refY="4.5" viewBox="0 0 13 9" orient="auto" markerUnits="userSpaceOnUse" stroke-dasharray="0,0"><path id="SvgjsPath1196" d="M0,0 L13,4.5 L0,9 L0,0" fill="#323232" stroke="#323232" stroke-width="1"></path></marker><marker id="SvgjsMarker1207" markerWidth="13" markerHeight="9" refX="9.5" refY="4.5" viewBox="0 0 13 9" orient="auto" markerUnits="userSpaceOnUse" stroke-dasharray="0,0"><path id="SvgjsPath1208" d="M0,0 L13,4.5 L0,9 L0,0" fill="#323232" stroke="#323232" stroke-width="1"></path></marker><marker id="SvgjsMarker1217" markerWidth="13" markerHeight="9" refX="9.5" refY="4.5" viewBox="0 0 13 9" orient="auto" markerUnits="userSpaceOnUse" stroke-dasharray="0,0"><path id="SvgjsPath1218" d="M0,0 L13,4.5 L0,9 L0,0" fill="#323232" stroke="#323232" stroke-width="1"></path></marker><marker id="SvgjsMarker1273" markerWidth="13" markerHeight="9" refX="9.5" refY="4.5" viewBox="0 0 13 9" orient="auto" markerUnits="userSpaceOnUse" stroke-dasharray="0,0"><path id="SvgjsPath1274" d="M0,0 L13,4.5 L0,9 L0,0" fill="#323232" stroke="#323232" stroke-width="1"></path></marker><marker id="SvgjsMarker1283" markerWidth="13" markerHeight="9" refX="9.5" refY="4.5" viewBox="0 0 13 9" orient="auto" markerUnits="userSpaceOnUse" stroke-dasharray="0,0"><path id="SvgjsPath1284" d="M0,0 L13,4.5 L0,9 L0,0" fill="#323232" stroke="#323232" stroke-width="1"></path></marker><marker id="SvgjsMarker1343" markerWidth="13" markerHeight="9" refX="9.5" refY="4.5" viewBox="0 0 13 9" orient="auto" markerUnits="userSpaceOnUse" stroke-dasharray="0,0"><path id="SvgjsPath1344" d="M0,0 L13,4.5 L0,9 L0,0" fill="#323232" stroke="#323232" stroke-width="1"></path></marker><marker id="SvgjsMarker1363" markerWidth="13" markerHeight="9" refX="9.5" refY="4.5" viewBox="0 0 13 9" orient="auto" markerUnits="userSpaceOnUse" stroke-dasharray="0,0"><path id="SvgjsPath1364" d="M0,0 L13,4.5 L0,9 L0,0" fill="#323232" stroke="#323232" stroke-width="1"></path></marker></defs><rect id="svgbackgroundid" width="2110.8333333333335" height="930.0533003816919" fill="transparent"></rect><rect id="SvgjsRect1009" width="2110.8333333333335" height="930.0533003816919" fill="url(#pattern_mark_0)"></rect><rect id="SvgjsRect1010" width="2110.8333333333335" height="930.0533003816919" fill="url(#pattern_mark_1)"></rect><g id="SvgjsG1011" transform="matrix(0.5000000000000009,-0.8660254037844382,0.8660254037844382,0.5000000000000009,1557.382729005782,667.4430348970023)"><path id="SvgjsPath1012" d="M 71.952 0L 143.904 0C 239.839 0 239.839 388.386 143.904 388.386L 71.952 388.386C -23.984 388.386 -23.984 0 71.952 0Z" stroke-dasharray="3,4.5" stroke="rgba(70,105,234,1)" stroke-width="3" fill="none"></path><g id="SvgjsG1013"><text id="SvgjsText1014" font-family="&quot;Microsoft YaHei&quot;, 微软雅黑, Arial" text-anchor="middle" font-size="30px" width="196px" fill="#323232" font-weight="400" align="middle" lineHeight="125%" anchor="middle" family="&quot;Microsoft YaHei&quot;, 微软雅黑, Arial" size="30px" weight="400" font-style="" opacity="1" y="168.443" transform="rotate(0)"></text></g></g><g id="SvgjsG1015" transform="translate(227.89999389648438,36.02733459397189)"><path id="SvgjsPath1016" d="M 0 35C 0 -11.667 70 -11.667 70 35C 70 81.667 0 81.667 0 35Z" stroke="rgba(255,255,255,1)" stroke-width="1.5" fill-opacity="1" fill="#000000"></path><g id="SvgjsG1017"><text id="SvgjsText1018" font-family="&quot;Microsoft YaHei&quot;, 微软雅黑, Arial" text-anchor="middle" font-size="30px" width="50px" fill="#ffffff" font-weight="400" align="middle" lineHeight="125%" anchor="middle" family="&quot;Microsoft YaHei&quot;, 微软雅黑, Arial" size="30px" weight="400" font-style="" opacity="1" y="9.25" transform="rotate(0)"><tspan id="SvgjsTspan1019" dy="37.5" x="35"><tspan id="SvgjsTspan1020" style="">7</tspan></tspan></text></g></g><g id="SvgjsG1021" transform="translate(126.89999389648438,153.0273345939719)"><path id="SvgjsPath1022" d="M 0 35C 0 -11.667 70 -11.667 70 35C 70 81.667 0 81.667 0 35Z" stroke="rgba(255,255,255,1)" stroke-width="1.5" fill-opacity="1" fill="#e60c0c"></path><g id="SvgjsG1023"><text id="SvgjsText1024" font-family="&quot;Microsoft YaHei&quot;, 微软雅黑, Arial" text-anchor="middle" font-size="30px" width="50px" fill="#ffffff" font-weight="400" align="middle" lineHeight="125%" anchor="middle" family="&quot;Microsoft YaHei&quot;, 微软雅黑, Arial" size="30px" weight="400" font-style="" opacity="1" y="9.25" transform="rotate(0)"><tspan id="SvgjsTspan1025" dy="37.5" x="35"><tspan id="SvgjsTspan1026" style="">3</tspan></tspan></text></g></g><g id="SvgjsG1027" transform="translate(227.89999389648438,278.0273345939719)"><path id="SvgjsPath1028" d="M 0 35C 0 -11.667 70 -11.667 70 35C 70 81.667 0 81.667 0 35Z" stroke="rgba(255,255,255,1)" stroke-width="1.5" fill-opacity="1" fill="#e60c0c"></path><g id="SvgjsG1029"><text id="SvgjsText1030" font-family="&quot;Microsoft YaHei&quot;, 微软雅黑, Arial" text-anchor="middle" font-size="30px" width="50px" fill="#ffffff" font-weight="400" align="middle" lineHeight="125%" anchor="middle" family="&quot;Microsoft YaHei&quot;, 微软雅黑, Arial" size="30px" weight="400" font-style="" opacity="1" y="9.25" transform="rotate(0)"><tspan id="SvgjsTspan1031" dy="37.5" x="35"><tspan id="SvgjsTspan1032" style="">5</tspan></tspan></text></g></g><g id="SvgjsG1033" transform="translate(42.04545454545453,278.0273345939719)"><path id="SvgjsPath1034" d="M 0 35C 0 -11.667 154.855 -11.667 154.855 35C 154.855 81.667 0 81.667 0 35Z" stroke="rgba(255,255,255,1)" stroke-width="1.5" fill-opacity="1" fill="#7bd144"></path><g id="SvgjsG1035"><text id="SvgjsText1036" font-family="&quot;Microsoft YaHei&quot;, 微软雅黑, Arial" text-anchor="middle" font-size="30px" width="135px" fill="#323232" font-weight="400" align="middle" lineHeight="125%" anchor="middle" family="&quot;Microsoft YaHei&quot;, 微软雅黑, Arial" size="30px" weight="400" font-style="" opacity="1" y="9.25" transform="rotate(0)"><tspan id="SvgjsTspan1037" dy="37.5" x="77.5"><tspan id="SvgjsTspan1038" style="">cur_node</tspan></tspan></text></g></g><g id="SvgjsG1039" transform="translate(323.8999938964844,161.0273345939719)"><path id="SvgjsPath1040" d="M 0 4Q 0 0 4 0L 53 0Q 57 0 57 4L 57 50Q 57 54 53 54L 4 54Q 0 54 0 50Z" stroke="rgba(33,41,48,1)" stroke-width="1.5" fill-opacity="1" fill="#000000"></path><g id="SvgjsG1041"><text id="SvgjsText1042" font-family="&quot;Microsoft YaHei&quot;, 微软雅黑, Arial" text-anchor="middle" font-size="30px" width="37px" fill="#323232" font-weight="400" align="middle" lineHeight="125%" anchor="middle" family="&quot;Microsoft YaHei&quot;, 微软雅黑, Arial" size="30px" weight="400" font-style="" opacity="1" y="1.25" transform="rotate(0)"></text></g></g><g id="SvgjsG1043"><path id="SvgjsPath1044" d="M238.7558175565676 97.11528705903442L185.0968562297458 160.9851813641925" stroke="#323232" stroke-width="1.5" fill="none"></path></g><g id="SvgjsG1045"><path id="SvgjsPath1046" d="M182.69953093628772 217.11889325186996L239.31083931941828 285.7801011027796" stroke="#323232" stroke-width="1.5" fill="none"></path></g><g id="SvgjsG1047"><path id="SvgjsPath1048" d="M287.7035620088761 96.63101554041066L351.86843234384276 160.49823884105643" stroke="#323232" stroke-width="1.5" fill="none"></path></g><g id="SvgjsG1049"><path id="SvgjsPath1050" d="M197.64999389648438 313.0273345939719L225.1999938964844 313.0273345939719" stroke-dasharray="1.5,2.25" stroke="#323232" stroke-width="1.5" fill="none" marker-end="url(#SvgjsMarker1051)"></path></g><g id="SvgjsG1053" transform="translate(1021.8999938964844,36.02733459397189)"><path id="SvgjsPath1054" d="M 0 35C 0 -11.667 70 -11.667 70 35C 70 81.667 0 81.667 0 35Z" stroke="rgba(255,255,255,1)" stroke-width="1.5" fill-opacity="1" fill="#000000"></path><g id="SvgjsG1055"><text id="SvgjsText1056" font-family="&quot;Microsoft YaHei&quot;, 微软雅黑, Arial" text-anchor="middle" font-size="30px" width="50px" fill="#ffffff" font-weight="400" align="middle" lineHeight="125%" anchor="middle" family="&quot;Microsoft YaHei&quot;, 微软雅黑, Arial" size="30px" weight="400" font-style="" opacity="1" y="9.25" transform="rotate(0)"><tspan id="SvgjsTspan1057" dy="37.5" x="35"><tspan id="SvgjsTspan1058" style="">7</tspan></tspan></text></g></g><g id="SvgjsG1059" transform="translate(1117.8999938964844,161.0273345939719)"><path id="SvgjsPath1060" d="M 0 4Q 0 0 4 0L 53 0Q 57 0 57 4L 57 50Q 57 54 53 54L 4 54Q 0 54 0 50Z" stroke="rgba(33,41,48,1)" stroke-width="1.5" fill-opacity="1" fill="#000000"></path><g id="SvgjsG1061"><text id="SvgjsText1062" font-family="&quot;Microsoft YaHei&quot;, 微软雅黑, Arial" text-anchor="middle" font-size="30px" width="37px" fill="#323232" font-weight="400" align="middle" lineHeight="125%" anchor="middle" family="&quot;Microsoft YaHei&quot;, 微软雅黑, Arial" size="30px" weight="400" font-style="" opacity="1" y="1.25" transform="rotate(0)"></text></g></g><g id="SvgjsG1063"><path id="SvgjsPath1064" d="M1032.7770895554365 97.13250612688313L977.5 168.0273345939719" stroke="#323232" stroke-width="1.5" fill="none"></path></g><g id="SvgjsG1065"><path id="SvgjsPath1066" d="M1081.7035620088761 96.63101554041066L1145.8684323438426 160.49823884105643" stroke="#323232" stroke-width="1.5" fill="none"></path></g><g id="SvgjsG1067" transform="translate(594.8829257779036,199.2773345939719)"><path id="SvgjsPath1068" d="M 0 19.8L 190.545 19.8L 190.545 0L 220.545 30L 190.545 60L 190.545 40.2L 0 40.2L 0 19.8Z" stroke="rgba(33,41,48,1)" stroke-width="1.5" fill-opacity="1" fill="#ffffff"></path><g id="SvgjsG1069"><text id="SvgjsText1070" font-family="&quot;Microsoft YaHei&quot;, 微软雅黑, Arial" text-anchor="middle" font-size="30px" width="221px" fill="#323232" font-weight="400" align="middle" lineHeight="125%" anchor="middle" family="&quot;Microsoft YaHei&quot;, 微软雅黑, Arial" size="30px" weight="400" font-style="" opacity="1" y="4.25" transform="rotate(0)"></text></g></g><g id="SvgjsG1071" transform="translate(1734.4115805704737,25)"><path id="SvgjsPath1072" d="M 0 35C 0 -11.667 70 -11.667 70 35C 70 81.667 0 81.667 0 35Z" stroke="rgba(255,255,255,1)" stroke-width="1.5" fill-opacity="1" fill="#000000"></path><g id="SvgjsG1073"><text id="SvgjsText1074" font-family="&quot;Microsoft YaHei&quot;, 微软雅黑, Arial" text-anchor="middle" font-size="30px" width="50px" fill="#ffffff" font-weight="400" align="middle" lineHeight="125%" anchor="middle" family="&quot;Microsoft YaHei&quot;, 微软雅黑, Arial" size="30px" weight="400" font-style="" opacity="1" y="9.25" transform="rotate(0)"><tspan id="SvgjsTspan1075" dy="37.5" x="35"><tspan id="SvgjsTspan1076" style="">7</tspan></tspan></text></g></g><g id="SvgjsG1077" transform="translate(1575.9897989623078,279.5028060370655)"><path id="SvgjsPath1078" d="M 0 35C 0 -11.667 70 -11.667 70 35C 70 81.667 0 81.667 0 35Z" stroke="rgba(255,255,255,1)" stroke-width="1.5" fill-opacity="1" fill="#e60c0c"></path><g id="SvgjsG1079"><text id="SvgjsText1080" font-family="&quot;Microsoft YaHei&quot;, 微软雅黑, Arial" text-anchor="middle" font-size="30px" width="50px" fill="#ffffff" font-weight="400" align="middle" lineHeight="125%" anchor="middle" family="&quot;Microsoft YaHei&quot;, 微软雅黑, Arial" size="30px" weight="400" font-style="" opacity="1" y="9.25" transform="rotate(0)"><tspan id="SvgjsTspan1081" dy="37.5" x="35"><tspan id="SvgjsTspan1082" style="">3</tspan></tspan></text></g></g><g id="SvgjsG1083" transform="translate(1651.9897989623078,147)"><path id="SvgjsPath1084" d="M 0 35C 0 -11.667 70 -11.667 70 35C 70 81.667 0 81.667 0 35Z" stroke="rgba(255,255,255,1)" stroke-width="1.5" fill-opacity="1" fill="#e60c0c"></path><g id="SvgjsG1085"><text id="SvgjsText1086" font-family="&quot;Microsoft YaHei&quot;, 微软雅黑, Arial" text-anchor="middle" font-size="30px" width="50px" fill="#ffffff" font-weight="400" align="middle" lineHeight="125%" anchor="middle" family="&quot;Microsoft YaHei&quot;, 微软雅黑, Arial" size="30px" weight="400" font-style="" opacity="1" y="9.25" transform="rotate(0)"><tspan id="SvgjsTspan1087" dy="37.5" x="35"><tspan id="SvgjsTspan1088" style="">5</tspan></tspan></text></g></g><g id="SvgjsG1089" transform="translate(1830.4115805704737,150)"><path id="SvgjsPath1090" d="M 0 4Q 0 0 4 0L 53 0Q 57 0 57 4L 57 50Q 57 54 53 54L 4 54Q 0 54 0 50Z" stroke="rgba(33,41,48,1)" stroke-width="1.5" fill-opacity="1" fill="#000000"></path><g id="SvgjsG1091"><text id="SvgjsText1092" font-family="&quot;Microsoft YaHei&quot;, 微软雅黑, Arial" text-anchor="middle" font-size="30px" width="37px" fill="#323232" font-weight="400" align="middle" lineHeight="125%" anchor="middle" family="&quot;Microsoft YaHei&quot;, 微软雅黑, Arial" size="30px" weight="400" font-style="" opacity="1" y="1.25" transform="rotate(0)"></text></g></g><g id="SvgjsG1093"><path id="SvgjsPath1094" d="M1745.3196512928416 86.1280686663265L1701.211004406454 149.1199633887075" stroke="#323232" stroke-width="1.5" fill="none"></path></g><g id="SvgjsG1095"><path id="SvgjsPath1096" d="M1794.2151486828654 85.60368094643877L1858.3800190178326 149.47090424708455" stroke="#323232" stroke-width="1.5" fill="none"></path></g><g id="SvgjsG1097" transform="translate(1321.499989827474,161.02733459397234)"><path id="SvgjsPath1098" d="M 0 19.8L 128.333 19.8L 128.333 0L 158.333 30L 128.333 60L 128.333 40.2L 0 40.2L 0 19.8Z" stroke="rgba(33,41,48,1)" stroke-width="1.5" fill-opacity="1" fill="#ffffff"></path><g id="SvgjsG1099"><text id="SvgjsText1100" font-family="&quot;Microsoft YaHei&quot;, 微软雅黑, Arial" text-anchor="middle" font-size="30px" width="159px" fill="#323232" font-weight="400" align="middle" lineHeight="125%" anchor="middle" family="&quot;Microsoft YaHei&quot;, 微软雅黑, Arial" size="30px" weight="400" font-style="" opacity="1" y="4.25" transform="rotate(0)"></text></g></g><g id="SvgjsG1101"><path id="SvgjsPath1102" d="M1671.999284807584 214.0521356207197L1631.786815886776 285.98925627472715" stroke="#323232" stroke-width="1.5" fill="none"></path></g><g id="SvgjsG1103" transform="translate(520.583280280439,137.2773345939719)"><path id="SvgjsPath1104" d="M 0 0L 326.917 0L 326.917 75L 0 75Z" stroke="none" fill="none"></path><g id="SvgjsG1105"><text id="SvgjsText1106" font-family="&quot;Microsoft YaHei&quot;, 微软雅黑, Arial" text-anchor="middle" font-size="30px" width="327px" fill="#323232" font-weight="400" align="middle" lineHeight="125%" anchor="middle" family="&quot;Microsoft YaHei&quot;, 微软雅黑, Arial" size="30px" weight="400" font-style="" opacity="1" y="-6.75" transform="rotate(0)"><tspan id="SvgjsTspan1107" dy="37.5" x="163.5"><tspan id="SvgjsTspan1108" style="">当前节点</tspan></tspan><tspan id="SvgjsTspan1109" dy="37.5" x="163.5"><tspan id="SvgjsTspan1110" style="">和父节点左旋</tspan></tspan></text></g></g><g id="SvgjsG1111" transform="translate(1762.369355534437,708.553266169412)"><path id="SvgjsPath1112" d="M 0 35C 0 -11.667 70 -11.667 70 35C 70 81.667 0 81.667 0 35Z" stroke="rgba(255,255,255,1)" stroke-width="1.5" fill-opacity="1" fill="#000000"></path><g id="SvgjsG1113"><text id="SvgjsText1114" font-family="&quot;Microsoft YaHei&quot;, 微软雅黑, Arial" text-anchor="middle" font-size="30px" width="50px" fill="#ffffff" font-weight="400" align="middle" lineHeight="125%" anchor="middle" family="&quot;Microsoft YaHei&quot;, 微软雅黑, Arial" size="30px" weight="400" font-style="" opacity="1" y="9.25" transform="rotate(0)"><tspan id="SvgjsTspan1115" dy="37.5" x="35"><tspan id="SvgjsTspan1116" style="">7</tspan></tspan></text></g></g><g id="SvgjsG1117" transform="translate(1574.8333231608074,708.553266169412)"><path id="SvgjsPath1118" d="M 0 35C 0 -11.667 70 -11.667 70 35C 70 81.667 0 81.667 0 35Z" stroke="rgba(255,255,255,1)" stroke-width="1.5" fill-opacity="1" fill="#e60c0c"></path><g id="SvgjsG1119"><text id="SvgjsText1120" font-family="&quot;Microsoft YaHei&quot;, 微软雅黑, Arial" text-anchor="middle" font-size="30px" width="50px" fill="#ffffff" font-weight="400" align="middle" lineHeight="125%" anchor="middle" family="&quot;Microsoft YaHei&quot;, 微软雅黑, Arial" size="30px" weight="400" font-style="" opacity="1" y="9.25" transform="rotate(0)"><tspan id="SvgjsTspan1121" dy="37.5" x="35"><tspan id="SvgjsTspan1122" style="">3</tspan></tspan></text></g></g><g id="SvgjsG1123" transform="translate(1651.9897989623078,572.3606679273056)"><path id="SvgjsPath1124" d="M 0 35C 0 -11.667 70 -11.667 70 35C 70 81.667 0 81.667 0 35Z" stroke="rgba(255,255,255,1)" stroke-width="1.5" fill-opacity="1" fill="#e60c0c"></path><g id="SvgjsG1125"><text id="SvgjsText1126" font-family="&quot;Microsoft YaHei&quot;, 微软雅黑, Arial" text-anchor="middle" font-size="30px" width="50px" fill="#ffffff" font-weight="400" align="middle" lineHeight="125%" anchor="middle" family="&quot;Microsoft YaHei&quot;, 微软雅黑, Arial" size="30px" weight="400" font-style="" opacity="1" y="9.25" transform="rotate(0)"><tspan id="SvgjsTspan1127" dy="37.5" x="35"><tspan id="SvgjsTspan1128" style="">5</tspan></tspan></text></g></g><g id="SvgjsG1129" transform="translate(1847.5884381023066,833.553266169412)"><path id="SvgjsPath1130" d="M 0 4Q 0 0 4 0L 53 0Q 57 0 57 4L 57 50Q 57 54 53 54L 4 54Q 0 54 0 50Z" stroke="rgba(33,41,48,1)" stroke-width="1.5" fill-opacity="1" fill="#000000"></path><g id="SvgjsG1131"><text id="SvgjsText1132" font-family="&quot;Microsoft YaHei&quot;, 微软雅黑, Arial" text-anchor="middle" font-size="30px" width="37px" fill="#323232" font-weight="400" align="middle" lineHeight="125%" anchor="middle" family="&quot;Microsoft YaHei&quot;, 微软雅黑, Arial" size="30px" weight="400" font-style="" opacity="1" y="1.25" transform="rotate(0)"></text></g></g><g id="SvgjsG1133" transform="translate(1912.588438102307,814.3606679273054)"><path id="SvgjsPath1134" d="M 0 0L 84 0L 100 16L 100 85L 0 85L 0 0Z" stroke="none" fill-opacity="1" fill="#fff7bc"></path><path id="SvgjsPath1135" d="M 84 0L 84 16L 100 16Z" stroke="none" fill-opacity="1" fill="#e4d089"></path><path id="SvgjsPath1136" d="M 0 0L 84 0L 100 16L 100 85L 0 85L 0 0Z" stroke="none" fill="none"></path><g id="SvgjsG1137"><text id="SvgjsText1138" font-family="&quot;Microsoft YaHei&quot;, 微软雅黑, Arial" text-anchor="middle" font-size="30px" width="80px" fill="#323232" font-weight="400" align="middle" lineHeight="125%" anchor="middle" family="&quot;Microsoft YaHei&quot;, 微软雅黑, Arial" size="30px" weight="400" font-style="" opacity="1" y="-1.75" transform="rotate(0)"><tspan id="SvgjsTspan1139" dy="37.5" x="50"><tspan id="SvgjsTspan1140" style="">叔叔</tspan></tspan><tspan id="SvgjsTspan1141" dy="37.5" x="50"><tspan id="SvgjsTspan1142" style="">节点</tspan></tspan></text></g></g><g id="SvgjsG1143"><path id="SvgjsPath1144" d="M1822.123287526942 769.2025233365553L1875.606512669552 832.9785941957924" stroke="#323232" stroke-width="1.5" fill="none"></path></g><g id="SvgjsG1145"><path id="SvgjsPath1146" d="M1672.0052035402132 639.4160771480069L1630.6244213526463 715.0364428070923" stroke="#323232" stroke-width="1.5" fill="none"></path></g><g id="SvgjsG1147" transform="translate(388.8999938964844,148.0273345939719)"><path id="SvgjsPath1148" d="M 0 0L 84 0L 100 16L 100 71.945L 0 71.945L 0 0Z" stroke="none" fill-opacity="1" fill="#fff7bc"></path><path id="SvgjsPath1149" d="M 84 0L 84 16L 100 16Z" stroke="none" fill-opacity="1" fill="#e4d089"></path><path id="SvgjsPath1150" d="M 0 0L 84 0L 100 16L 100 71.945L 0 71.945L 0 0Z" stroke="none" fill="none"></path><g id="SvgjsG1151"><text id="SvgjsText1152" font-family="&quot;Microsoft YaHei&quot;, 微软雅黑, Arial" text-anchor="middle" font-size="30px" width="80px" fill="#323232" font-weight="400" align="middle" lineHeight="125%" anchor="middle" family="&quot;Microsoft YaHei&quot;, 微软雅黑, Arial" size="30px" weight="400" font-style="" opacity="1" y="-8.2775" transform="rotate(0)"><tspan id="SvgjsTspan1153" dy="37.5" x="50"><tspan id="SvgjsTspan1154" style="">叔叔</tspan></tspan><tspan id="SvgjsTspan1155" dy="37.5" x="50"><tspan id="SvgjsTspan1156" style="">节点</tspan></tspan></text></g></g><g id="SvgjsG1157" transform="translate(1011.9679824053196,385.5273345939719)"><path id="SvgjsPath1158" d="M 0 0L 84 0L 100 16L 100 49L 0 49L 0 0Z" stroke="none" fill-opacity="1" fill="#fff7bc"></path><path id="SvgjsPath1159" d="M 84 0L 84 16L 100 16Z" stroke="none" fill-opacity="1" fill="#e4d089"></path><path id="SvgjsPath1160" d="M 0 0L 84 0L 100 16L 100 49L 0 49L 0 0Z" stroke="none" fill="none"></path><g id="SvgjsG1161"><text id="SvgjsText1162" font-family="&quot;Microsoft YaHei&quot;, 微软雅黑, Arial" text-anchor="middle" font-size="30px" width="80px" fill="#323232" font-weight="400" align="middle" lineHeight="125%" anchor="middle" family="&quot;Microsoft YaHei&quot;, 微软雅黑, Arial" size="30px" weight="400" font-style="" opacity="1" y="-19.75" transform="rotate(0)"><tspan id="SvgjsTspan1163" dy="37.5" x="50"><tspan id="SvgjsTspan1164" style="">原父</tspan></tspan><tspan id="SvgjsTspan1165" dy="37.5" x="50"><tspan id="SvgjsTspan1166" style="">节点</tspan></tspan></text></g></g><g id="SvgjsG1167" transform="translate(1399.1666666666667,346.8069585740883)"><path id="SvgjsPath1168" d="M 0 0L 197.355 0L 213.355 16L 213.355 46.503L 0 46.503L 0 0Z" stroke="none" fill-opacity="1" fill="#fff7bc"></path><path id="SvgjsPath1169" d="M 197.355 0L 197.355 16L 213.355 16Z" stroke="none" fill-opacity="1" fill="#e4d089"></path><path id="SvgjsPath1170" d="M 0 0L 197.355 0L 213.355 16L 213.355 46.503L 0 46.503L 0 0Z" stroke="none" fill="none"></path><g id="SvgjsG1171"><text id="SvgjsText1172" font-family="&quot;Microsoft YaHei&quot;, 微软雅黑, Arial" text-anchor="middle" font-size="30px" width="194px" fill="#323232" font-weight="400" align="middle" lineHeight="125%" anchor="middle" family="&quot;Microsoft YaHei&quot;, 微软雅黑, Arial" size="30px" weight="400" font-style="" opacity="1" y="-2.4985" transform="rotate(0)"><tspan id="SvgjsTspan1173" dy="37.5" x="107"><tspan id="SvgjsTspan1174" style="">原来的父节点</tspan></tspan></text></g></g><g id="SvgjsG1175"><path id="SvgjsPath1176" d="M1710.6893856417444 633.7015156075668L1772.0900883558925 717.4981568450892" stroke="#323232" stroke-width="1.5" fill="none"></path></g><g id="SvgjsG1177" transform="translate(1697.8940140128116,398.21432076194776)"><path id="SvgjsPath1178" d="M 19.8 0L 40.2 0L 40.2 120.836L 60 120.836L 30 150.836L 0 120.836L 19.8 120.836L 19.8 0Z" stroke="rgba(33,41,48,1)" stroke-width="1.5" fill-opacity="1" fill="#ffffff"></path><g id="SvgjsG1179"><text id="SvgjsText1180" font-family="&quot;Microsoft YaHei&quot;, 微软雅黑, Arial" text-anchor="middle" font-size="30px" width="84px" fill="#323232" font-weight="400" align="middle" lineHeight="125%" anchor="middle" family="&quot;Microsoft YaHei&quot;, 微软雅黑, Arial" size="30px" weight="400" font-style="" opacity="1" y="42.12650000000001" transform="rotate(0)"></text></g></g><g id="SvgjsG1181" transform="translate(1744.3602359964111,443.4874463003217)"><path id="SvgjsPath1182" d="M 0 0L 208.14 0L 208.14 40L 0 40Z" stroke="none" fill="none"></path><g id="SvgjsG1183"><text id="SvgjsText1184" font-family="&quot;Microsoft YaHei&quot;, 微软雅黑, Arial" text-anchor="middle" font-size="30px" width="209px" fill="#323232" font-weight="400" align="middle" lineHeight="125%" anchor="middle" family="&quot;Microsoft YaHei&quot;, 微软雅黑, Arial" size="30px" weight="400" font-style="" opacity="1" y="-5.75" transform="rotate(0)"><tspan id="SvgjsTspan1185" dy="37.5" x="104.5"><tspan id="SvgjsTspan1186" style="">右旋爷爷节点</tspan></tspan></text></g></g><g id="SvgjsG1187" transform="translate(1867.7244664069258,668.553266169412)"><path id="SvgjsPath1188" d="M 0 0L 166.442 0L 166.442 40L 0 40Z" stroke="none" fill="none"></path><g id="SvgjsG1189"><text id="SvgjsText1190" font-family="&quot;Microsoft YaHei&quot;, 微软雅黑, Arial" text-anchor="middle" font-size="30px" width="167px" fill="#323232" font-weight="400" align="middle" lineHeight="125%" anchor="middle" family="&quot;Microsoft YaHei&quot;, 微软雅黑, Arial" size="30px" weight="400" font-style="" opacity="1" y="-5.75" transform="rotate(0)"><tspan id="SvgjsTspan1191" dy="37.5" x="83.5"><tspan id="SvgjsTspan1192" style="">被旋转点</tspan></tspan></text></g></g><g id="SvgjsG1193"><path id="SvgjsPath1194" d="M1866.7402755831768 688.7303774972487C 1845.8691001540024 688.553266169412 1839.3269227781232 705.4362214181018 1824.9748566170506 718.1317736664948" stroke-dasharray="1.5,2.25" stroke="#323232" stroke-width="1.5" fill="none" marker-end="url(#SvgjsMarker1195)"></path></g><g id="SvgjsG1197" transform="translate(1507.5,545.8722306964926)"><path id="SvgjsPath1198" d="M 0 0L 67.333 0L 67.333 75L 0 75Z" stroke="none" fill="none"></path><g id="SvgjsG1199"><text id="SvgjsText1200" font-family="&quot;Microsoft YaHei&quot;, 微软雅黑, Arial" text-anchor="middle" font-size="30px" width="68px" fill="#323232" font-weight="400" align="middle" lineHeight="125%" anchor="middle" family="&quot;Microsoft YaHei&quot;, 微软雅黑, Arial" size="30px" weight="400" font-style="" opacity="1" y="-6.75" transform="rotate(0)"><tspan id="SvgjsTspan1201" dy="37.5" x="34"><tspan id="SvgjsTspan1202" style="">旋转</tspan></tspan><tspan id="SvgjsTspan1203" dy="37.5" x="34"><tspan id="SvgjsTspan1204" style="">中心</tspan></tspan></text></g></g><g id="SvgjsG1205"><path id="SvgjsPath1206" d="M1575.8320222834875 583.3212398898925C 1608.1830071309516 583.3722306964926 1630.104896652112 569.9203234068253 1655.6705538423605 586.8542175373607" stroke-dasharray="1.5,2.25" stroke="#323232" stroke-width="1.5" fill="none" marker-end="url(#SvgjsMarker1207)"></path></g><g id="SvgjsG1209" transform="translate(1470.8333333333335,60.333333333333314)"><path id="SvgjsPath1210" d="M 0 35C 0 -11.667 156.781 -11.667 156.781 35C 156.781 81.667 0 81.667 0 35Z" stroke="rgba(255,255,255,1)" stroke-width="1.5" fill-opacity="1" fill="#7bd144"></path><g id="SvgjsG1211"><text id="SvgjsText1212" font-family="&quot;Microsoft YaHei&quot;, 微软雅黑, Arial" text-anchor="middle" font-size="30px" width="137px" fill="#323232" font-weight="400" align="middle" lineHeight="125%" anchor="middle" family="&quot;Microsoft YaHei&quot;, 微软雅黑, Arial" size="30px" weight="400" font-style="" opacity="1" y="9.25" transform="rotate(0)"><tspan id="SvgjsTspan1213" dy="37.5" x="78.5"><tspan id="SvgjsTspan1214" style="">cur_node</tspan></tspan></text></g></g><g id="SvgjsG1215"><path id="SvgjsPath1216" d="M1628.3583023182414 95.42783312575108C 1657.5726594531718 95.33333333333331 1675.69268716494 118.46637076954238 1680.2246163590544 145.35413986497662" stroke="#323232" stroke-width="1.5" fill="none" marker-end="url(#SvgjsMarker1217)"></path></g><g id="SvgjsG1219" transform="translate(1847.5884381023066,723.0518631508793)"><path id="SvgjsPath1220" d="M 0 0L 214 0L 230 16L 230 41.003L 0 41.003L 0 0Z" stroke="none" fill-opacity="1" fill="#fff7bc"></path><path id="SvgjsPath1221" d="M 214 0L 214 16L 230 16Z" stroke="none" fill-opacity="1" fill="#e4d089"></path><path id="SvgjsPath1222" d="M 0 0L 214 0L 230 16L 230 41.003L 0 41.003L 0 0Z" stroke="none" fill="none"></path><g id="SvgjsG1223"><text id="SvgjsText1224" font-family="&quot;Microsoft YaHei&quot;, 微软雅黑, Arial" text-anchor="middle" font-size="30px" width="210px" fill="#323232" font-weight="400" align="middle" lineHeight="125%" anchor="middle" family="&quot;Microsoft YaHei&quot;, 微软雅黑, Arial" size="30px" weight="400" font-style="" opacity="1" y="-5.2485" transform="rotate(0)"><tspan id="SvgjsTspan1225" dy="37.5" x="115"><tspan id="SvgjsTspan1226" style="">原来的爷爷节点</tspan></tspan></text></g></g><g id="SvgjsG1227" transform="translate(342.7543243666116,715.5532661694117)"><path id="SvgjsPath1228" d="M 0 35C 0 -11.667 70 -11.667 70 35C 70 81.667 0 81.667 0 35Z" stroke="rgba(255,255,255,1)" stroke-width="1.5" fill-opacity="1" fill="#e60c0c"></path><g id="SvgjsG1229"><text id="SvgjsText1230" font-family="&quot;Microsoft YaHei&quot;, 微软雅黑, Arial" text-anchor="middle" font-size="30px" width="50px" fill="#ffffff" font-weight="400" align="middle" lineHeight="125%" anchor="middle" family="&quot;Microsoft YaHei&quot;, 微软雅黑, Arial" size="30px" weight="400" font-style="" opacity="1" y="9.25" transform="rotate(0)"><tspan id="SvgjsTspan1231" dy="37.5" x="35"><tspan id="SvgjsTspan1232" style="">7</tspan></tspan></text></g></g><g id="SvgjsG1233" transform="translate(155.21829199298213,715.5532661694117)"><path id="SvgjsPath1234" d="M 0 35C 0 -11.667 70 -11.667 70 35C 70 81.667 0 81.667 0 35Z" stroke="rgba(255,255,255,1)" stroke-width="1.5" fill-opacity="1" fill="#e60c0c"></path><g id="SvgjsG1235"><text id="SvgjsText1236" font-family="&quot;Microsoft YaHei&quot;, 微软雅黑, Arial" text-anchor="middle" font-size="30px" width="50px" fill="#ffffff" font-weight="400" align="middle" lineHeight="125%" anchor="middle" family="&quot;Microsoft YaHei&quot;, 微软雅黑, Arial" size="30px" weight="400" font-style="" opacity="1" y="9.25" transform="rotate(0)"><tspan id="SvgjsTspan1237" dy="37.5" x="35"><tspan id="SvgjsTspan1238" style="">3</tspan></tspan></text></g></g><g id="SvgjsG1239" transform="translate(231.21829199298213,583.0504601323461)"><path id="SvgjsPath1240" d="M 0 35C 0 -11.667 70 -11.667 70 35C 70 81.667 0 81.667 0 35Z" stroke="rgba(255,255,255,1)" stroke-width="1.5" fill-opacity="1" fill="#000000"></path><g id="SvgjsG1241"><text id="SvgjsText1242" font-family="&quot;Microsoft YaHei&quot;, 微软雅黑, Arial" text-anchor="middle" font-size="30px" width="50px" fill="#ffffff" font-weight="400" align="middle" lineHeight="125%" anchor="middle" family="&quot;Microsoft YaHei&quot;, 微软雅黑, Arial" size="30px" weight="400" font-style="" opacity="1" y="9.25" transform="rotate(0)"><tspan id="SvgjsTspan1243" dy="37.5" x="35"><tspan id="SvgjsTspan1244" style="">5</tspan></tspan></text></g></g><g id="SvgjsG1245" transform="translate(427.97340693448064,840.553266169412)"><path id="SvgjsPath1246" d="M 0 4Q 0 0 4 0L 53 0Q 57 0 57 4L 57 50Q 57 54 53 54L 4 54Q 0 54 0 50Z" stroke="rgba(33,41,48,1)" stroke-width="1.5" fill-opacity="1" fill="#000000"></path><g id="SvgjsG1247"><text id="SvgjsText1248" font-family="&quot;Microsoft YaHei&quot;, 微软雅黑, Arial" text-anchor="middle" font-size="30px" width="37px" fill="#323232" font-weight="400" align="middle" lineHeight="125%" anchor="middle" family="&quot;Microsoft YaHei&quot;, 微软雅黑, Arial" size="30px" weight="400" font-style="" opacity="1" y="1.25" transform="rotate(0)"></text></g></g><g id="SvgjsG1249" transform="translate(488.8999938964844,833.040300381692)"><path id="SvgjsPath1250" d="M 0 0L 84 0L 100 16L 100 69.026L 0 69.026L 0 0Z" stroke="none" fill-opacity="1" fill="#fff7bc"></path><path id="SvgjsPath1251" d="M 84 0L 84 16L 100 16Z" stroke="none" fill-opacity="1" fill="#e4d089"></path><path id="SvgjsPath1252" d="M 0 0L 84 0L 100 16L 100 69.026L 0 69.026L 0 0Z" stroke="none" fill="none"></path><g id="SvgjsG1253"><text id="SvgjsText1254" font-family="&quot;Microsoft YaHei&quot;, 微软雅黑, Arial" text-anchor="middle" font-size="30px" width="80px" fill="#323232" font-weight="400" align="middle" lineHeight="125%" anchor="middle" family="&quot;Microsoft YaHei&quot;, 微软雅黑, Arial" size="30px" weight="400" font-style="" opacity="1" y="-9.736999999999998" transform="rotate(0)"><tspan id="SvgjsTspan1255" dy="37.5" x="50"><tspan id="SvgjsTspan1256" style="">叔叔</tspan></tspan><tspan id="SvgjsTspan1257" dy="37.5" x="50"><tspan id="SvgjsTspan1258" style="">节点</tspan></tspan></text></g></g><g id="SvgjsG1259"><path id="SvgjsPath1260" d="M402.50825635911644 776.202523336555L455.99148150172573 839.9785941957924" stroke="#323232" stroke-width="1.5" fill="none"></path></g><g id="SvgjsG1261"><path id="SvgjsPath1262" d="M251.2277778382583 650.1025957530659L211.01530891745034 722.0397164070733" stroke="#323232" stroke-width="1.5" fill="none"></path></g><g id="SvgjsG1263"><path id="SvgjsPath1264" d="M289.9359405958901 644.3776494095898L352.45699526459543 724.511815248106" stroke="#323232" stroke-width="1.5" fill="none"></path></g><g id="SvgjsG1265" transform="translate(448.1094352391003,675.5532661694117)"><path id="SvgjsPath1266" d="M 0 0L 146.773 0L 146.773 40L 0 40Z" stroke="none" fill="none"></path><g id="SvgjsG1267"><text id="SvgjsText1268" font-family="&quot;Microsoft YaHei&quot;, 微软雅黑, Arial" text-anchor="middle" font-size="30px" width="147px" fill="#323232" font-weight="400" align="middle" lineHeight="125%" anchor="middle" family="&quot;Microsoft YaHei&quot;, 微软雅黑, Arial" size="30px" weight="400" font-style="" opacity="1" y="-5.75" transform="rotate(0)"><tspan id="SvgjsTspan1269" dy="37.5" x="73.5"><tspan id="SvgjsTspan1270" style="">被旋转点</tspan></tspan></text></g></g><g id="SvgjsG1271"><path id="SvgjsPath1272" d="M447.1252444153512 695.7303774972485C 426.2540689861769 695.5532661694117 419.7118916102977 712.4362214181015 405.35982544922524 725.1317736664943" stroke-dasharray="1.5,2.25" stroke="#323232" stroke-width="1.5" fill="none" marker-end="url(#SvgjsMarker1273)"></path></g><g id="SvgjsG1275" transform="translate(25,556.0504601323462)"><path id="SvgjsPath1276" d="M 0 0L 130.218 0L 130.218 40L 0 40Z" stroke="none" fill="none"></path><g id="SvgjsG1277"><text id="SvgjsText1278" font-family="&quot;Microsoft YaHei&quot;, 微软雅黑, Arial" text-anchor="middle" font-size="30px" width="131px" fill="#323232" font-weight="400" align="middle" lineHeight="125%" anchor="middle" family="&quot;Microsoft YaHei&quot;, 微软雅黑, Arial" size="30px" weight="400" font-style="" opacity="1" y="-5.75" transform="rotate(0)"><tspan id="SvgjsTspan1279" dy="37.5" x="65.5"><tspan id="SvgjsTspan1280" style="">旋转中心</tspan></tspan></text></g></g><g id="SvgjsG1281"><path id="SvgjsPath1282" d="M156.2180848045981 576.0708153243381C 189.28694760868075 576.0504601323462 208.73040932447242 580.2185355886279 234.992388348284 597.376496374048" stroke-dasharray="1.5,2.25" stroke="#323232" stroke-width="1.5" fill="none" marker-end="url(#SvgjsMarker1283)"></path></g><g id="SvgjsG1285" transform="translate(427.97340693448064,730.051863150879)"><path id="SvgjsPath1286" d="M 0 0L 226.027 0L 242.027 16L 242.027 41.003L 0 41.003L 0 0Z" stroke="none" fill-opacity="1" fill="#fff7bc"></path><path id="SvgjsPath1287" d="M 226.027 0L 226.027 16L 242.027 16Z" stroke="none" fill-opacity="1" fill="#e4d089"></path><path id="SvgjsPath1288" d="M 0 0L 226.027 0L 242.027 16L 242.027 41.003L 0 41.003L 0 0Z" stroke="none" fill="none"></path><g id="SvgjsG1289"><text id="SvgjsText1290" font-family="&quot;Microsoft YaHei&quot;, 微软雅黑, Arial" text-anchor="middle" font-size="30px" width="223px" fill="#323232" font-weight="400" align="middle" lineHeight="125%" anchor="middle" family="&quot;Microsoft YaHei&quot;, 微软雅黑, Arial" size="30px" weight="400" font-style="" opacity="1" y="-5.2485" transform="rotate(0)"><tspan id="SvgjsTspan1291" dy="37.5" x="121.5"><tspan id="SvgjsTspan1292" style="">原来的爷爷节点</tspan></tspan></text></g></g><g id="SvgjsG1293" transform="translate(688.1026314773057,725.5532661694117)"><path id="SvgjsPath1294" d="M 0 30L 30 0L 30 19.8L 777.731 19.8L 777.731 40.2L 30 40.2L 30 60L 0 30Z" stroke="rgba(33,41,48,1)" stroke-width="1.5" fill-opacity="1" fill="#ffffff"></path><g id="SvgjsG1295"><text id="SvgjsText1296" font-family="&quot;Microsoft YaHei&quot;, 微软雅黑, Arial" text-anchor="middle" font-size="30px" width="778px" fill="#323232" font-weight="400" align="middle" lineHeight="125%" anchor="middle" family="&quot;Microsoft YaHei&quot;, 微软雅黑, Arial" size="30px" weight="400" font-style="" opacity="1" y="4.25" transform="rotate(0)"></text></g></g><g id="SvgjsG1297" transform="translate(922.0630526167627,707.7171267990128)"><path id="SvgjsPath1298" d="M 0 0L 100 0L 100 40L 0 40Z" stroke="none" fill="none"></path><g id="SvgjsG1299"><text id="SvgjsText1300" font-family="&quot;Microsoft YaHei&quot;, 微软雅黑, Arial" text-anchor="middle" font-size="30px" width="100px" fill="#323232" font-weight="400" align="middle" lineHeight="125%" anchor="middle" family="&quot;Microsoft YaHei&quot;, 微软雅黑, Arial" size="30px" weight="400" font-style="" opacity="1" y="-5.75" transform="rotate(0)"><tspan id="SvgjsTspan1301" dy="37.5" x="50"><tspan id="SvgjsTspan1302" style="">变色</tspan></tspan></text></g></g><g id="SvgjsG1303" transform="translate(1823.5258313359375,25)"><path id="SvgjsPath1304" d="M 0 0L 246.308 0L 262.308 16L 262.308 41.003L 0 41.003L 0 0Z" stroke="none" fill-opacity="1" fill="#fff7bc"></path><path id="SvgjsPath1305" d="M 246.308 0L 246.308 16L 262.308 16Z" stroke="none" fill-opacity="1" fill="#e4d089"></path><path id="SvgjsPath1306" d="M 0 0L 246.308 0L 262.308 16L 262.308 41.003L 0 41.003L 0 0Z" stroke="none" fill="none"></path><g id="SvgjsG1307"><text id="SvgjsText1308" font-family="&quot;Microsoft YaHei&quot;, 微软雅黑, Arial" text-anchor="middle" font-size="30px" width="243px" fill="#323232" font-weight="400" align="middle" lineHeight="125%" anchor="middle" family="&quot;Microsoft YaHei&quot;, 微软雅黑, Arial" size="30px" weight="400" font-style="" opacity="1" y="-5.2485" transform="rotate(0)"><tspan id="SvgjsTspan1309" dy="37.5" x="131.5"><tspan id="SvgjsTspan1310" style="">原来的爷爷节点</tspan></tspan></text></g></g><g id="SvgjsG1311" transform="matrix(0.5000000000000009,-0.8660254037844382,0.8660254037844382,0.5000000000000009,886.5145775450959,419.98928191251724)"><path id="SvgjsPath1312" d="M 74.617 0L 165.472 0C 264.961 0 264.961 223.85 165.472 223.85L 74.617 223.85C -24.872 223.85 -24.872 0 74.617 0Z" stroke-dasharray="3,4.5" stroke="rgba(70,105,234,1)" stroke-width="3" fill="none"></path><g id="SvgjsG1313"><text id="SvgjsText1314" font-family="&quot;Microsoft YaHei&quot;, 微软雅黑, Arial" text-anchor="middle" font-size="30px" width="221px" fill="#323232" font-weight="400" align="middle" lineHeight="125%" anchor="middle" family="&quot;Microsoft YaHei&quot;, 微软雅黑, Arial" size="30px" weight="400" font-style="" opacity="1" y="86.175" transform="rotate(0)"></text></g></g><g id="SvgjsG1315" transform="matrix(0.5000000000000009,-0.8660254037844382,0.8660254037844382,0.5000000000000009,1499.8399559630645,295.3508389193532)"><path id="SvgjsPath1316" d="M 74.617 0L 165.472 0C 264.961 0 264.961 223.85 165.472 223.85L 74.617 223.85C -24.872 223.85 -24.872 0 74.617 0Z" stroke-dasharray="3,4.5" stroke="rgba(70,105,234,1)" stroke-width="3" fill="none"></path><g id="SvgjsG1317"><text id="SvgjsText1318" font-family="&quot;Microsoft YaHei&quot;, 微软雅黑, Arial" text-anchor="middle" font-size="30px" width="221px" fill="#323232" font-weight="400" align="middle" lineHeight="125%" anchor="middle" family="&quot;Microsoft YaHei&quot;, 微软雅黑, Arial" size="30px" weight="400" font-style="" opacity="1" y="86.175" transform="rotate(0)"></text></g></g><g id="SvgjsG1319" transform="translate(935.1040107099393,375.0273345939719)"><path id="SvgjsPath1320" d="M 0 35C 0 -11.667 70 -11.667 70 35C 70 81.667 0 81.667 0 35Z" stroke="rgba(255,255,255,1)" stroke-width="1.5" fill-opacity="1" fill="#e60c0c"></path><g id="SvgjsG1321"><text id="SvgjsText1322" font-family="&quot;Microsoft YaHei&quot;, 微软雅黑, Arial" text-anchor="middle" font-size="30px" width="50px" fill="#ffffff" font-weight="400" align="middle" lineHeight="125%" anchor="middle" family="&quot;Microsoft YaHei&quot;, 微软雅黑, Arial" size="30px" weight="400" font-style="" opacity="1" y="9.25" transform="rotate(0)"><tspan id="SvgjsTspan1323" dy="37.5" x="35"><tspan id="SvgjsTspan1324" style="">3</tspan></tspan></text></g></g><g id="SvgjsG1325" transform="translate(1041.9679824053196,273.0273345939719)"><path id="SvgjsPath1326" d="M 0 35C 0 -11.667 70 -11.667 70 35C 70 81.667 0 81.667 0 35Z" stroke="rgba(255,255,255,1)" stroke-width="1.5" fill-opacity="1" fill="#e60c0c"></path><g id="SvgjsG1327"><text id="SvgjsText1328" font-family="&quot;Microsoft YaHei&quot;, 微软雅黑, Arial" text-anchor="middle" font-size="30px" width="50px" fill="#ffffff" font-weight="400" align="middle" lineHeight="125%" anchor="middle" family="&quot;Microsoft YaHei&quot;, 微软雅黑, Arial" size="30px" weight="400" font-style="" opacity="1" y="9.25" transform="rotate(0)"><tspan id="SvgjsTspan1329" dy="37.5" x="35"><tspan id="SvgjsTspan1330" style="">5</tspan></tspan></text></g></g><g id="SvgjsG1331" transform="translate(1158.739480874392,273.0273345939719)"><path id="SvgjsPath1332" d="M 0 35C 0 -11.667 133 -11.667 133 35C 133 81.667 0 81.667 0 35Z" stroke="rgba(255,255,255,1)" stroke-width="1.5" fill-opacity="1" fill="#7bd144"></path><g id="SvgjsG1333"><text id="SvgjsText1334" font-family="&quot;Microsoft YaHei&quot;, 微软雅黑, Arial" text-anchor="middle" font-size="30px" width="113px" fill="#323232" font-weight="400" align="middle" lineHeight="125%" anchor="middle" family="&quot;Microsoft YaHei&quot;, 微软雅黑, Arial" size="30px" weight="400" font-style="" opacity="1" y="-9.25" transform="rotate(0)"><tspan id="SvgjsTspan1335" dy="37.5" x="66.5"><tspan id="SvgjsTspan1336" style="">cur_no</tspan></tspan><tspan id="SvgjsTspan1337" dy="37.5" x="66.5"><tspan id="SvgjsTspan1338" style="">de</tspan></tspan></text></g></g><g id="SvgjsG1339"><path id="SvgjsPath1340" d="M998.9191797179842 388.67954916489714L1054.0339367320116 334.9865127551557" stroke="#323232" stroke-width="1.5" fill="none"></path></g><g id="SvgjsG1341"><path id="SvgjsPath1342" d="M1157.989480874392 308.0273345939719L1114.6679824053197 308.0273345939719" stroke-dasharray="1.5,2.25" stroke="#323232" stroke-width="1.5" fill="none" marker-end="url(#SvgjsMarker1343)"></path></g><g id="SvgjsG1345"><path id="SvgjsPath1346" d="M298.6499938964844 313.0273345939719L670.4242562196434 313.0273345939719L670.4242562196434 313.0273345939719L1042.1985185428025 313.0273345939719" stroke-dasharray="1.5,2.25" stroke="#323232" stroke-width="1.5" fill="none"></path></g><g id="SvgjsG1347" transform="translate(1309.7054753991536,121.02733459397234)"><path id="SvgjsPath1348" d="M 0 0L 139.128 0L 139.128 40L 0 40Z" stroke="none" fill="none"></path><g id="SvgjsG1349"><text id="SvgjsText1350" font-family="&quot;Microsoft YaHei&quot;, 微软雅黑, Arial" text-anchor="middle" font-size="30px" width="140px" fill="#323232" font-weight="400" align="middle" lineHeight="125%" anchor="middle" family="&quot;Microsoft YaHei&quot;, 微软雅黑, Arial" size="30px" weight="400" font-style="" opacity="1" y="-5.75" transform="rotate(0)"><tspan id="SvgjsTspan1351" dy="37.5" x="70"><tspan id="SvgjsTspan1352" style="">旋转完成</tspan></tspan></text></g></g><g id="SvgjsG1353"><path id="SvgjsPath1354" d="M1686.9897989623078 217.75L1686.9897989623078 394.68033396365274L1686.9897989623078 394.68033396365274L1686.9897989623078 571.6106679273056" stroke-dasharray="1.5,2.25" stroke="#323232" stroke-width="1.5" fill="none"></path></g><g id="SvgjsG1355" transform="translate(757.5,434.5273345939719)"><path id="SvgjsPath1356" d="M 0 0L 145 0L 145 75L 0 75Z" stroke="none" fill="none"></path><g id="SvgjsG1357"><text id="SvgjsText1358" font-family="&quot;Microsoft YaHei&quot;, 微软雅黑, Arial" text-anchor="middle" font-size="30px" width="145px" fill="#323232" font-weight="400" align="middle" lineHeight="125%" anchor="middle" family="&quot;Microsoft YaHei&quot;, 微软雅黑, Arial" size="30px" weight="400" font-style="" opacity="1" y="11.75" transform="rotate(0)"><tspan id="SvgjsTspan1359" dy="37.5" x="72.5"><tspan id="SvgjsTspan1360" style="">被旋转点</tspan></tspan></text></g></g><g id="SvgjsG1361"><path id="SvgjsPath1362" d="M903.40658945381 471.6053427486389C 930.5200460092999 472.0273345939719 907.0839545281135 410.0273345939719 932.6561917188324 411.16671257637097" stroke-dasharray="1.5,2.25" stroke="#323232" stroke-width="1.5" fill="none" marker-end="url(#SvgjsMarker1363)"></path></g><g id="SvgjsG1365"></g></svg>