<svg id="SvgjsSvg1006" width="1858.2698545910064" height="777.1250048577785" xmlns="http://www.w3.org/2000/svg" version="1.1" xmlns:xlink="http://www.w3.org/1999/xlink" xmlns:svgjs="http://svgjs.com/svgjs"><defs id="SvgjsDefs1007"><pattern patternUnits="userSpaceOnUse" id="pattern_mark_0" width="300" height="300"><text x="150" y="100" fill="rgba(229,229,229,0.8)" font-size="18" transform="rotate(-45, 150, 150)" style="dominant-baseline: middle; text-anchor: middle;"></text></pattern><pattern patternUnits="userSpaceOnUse" id="pattern_mark_1" width="300" height="300"><text x="150" y="200" fill="rgba(229,229,229,0.8)" font-size="18" transform="rotate(-45, 150, 150)" style="dominant-baseline: middle; text-anchor: middle;"></text></pattern><marker id="SvgjsMarker1099" markerWidth="16" markerHeight="12" refX="11" refY="6" viewBox="0 0 16 12" orient="auto" markerUnits="userSpaceOnUse" stroke-dasharray="0,0"><path id="SvgjsPath1100" d="M0,0 L16,6 L0,12 L0,0" fill="#5b79e8" stroke="#5b79e8" stroke-width="1"></path></marker><marker id="SvgjsMarker1103" markerWidth="16" markerHeight="12" refX="11" refY="6" viewBox="0 0 16 12" orient="auto" markerUnits="userSpaceOnUse" stroke-dasharray="0,0"><path id="SvgjsPath1104" d="M0,0 L16,6 L0,12 L0,0" fill="#5b79e8" stroke="#5b79e8" stroke-width="1"></path></marker><marker id="SvgjsMarker1115" markerWidth="16" markerHeight="12" refX="11" refY="6" viewBox="0 0 16 12" orient="auto" markerUnits="userSpaceOnUse" stroke-dasharray="0,0"><path id="SvgjsPath1116" d="M0,0 L16,6 L0,12 L0,0" fill="#95da69" stroke="#95da69" stroke-width="1"></path></marker><marker id="SvgjsMarker1119" markerWidth="16" markerHeight="12" refX="11" refY="6" viewBox="0 0 16 12" orient="auto" markerUnits="userSpaceOnUse" stroke-dasharray="0,0"><path id="SvgjsPath1120" d="M0,0 L16,6 L0,12 L0,0" fill="#95da69" stroke="#95da69" stroke-width="1"></path></marker><marker id="SvgjsMarker1123" markerWidth="16" markerHeight="12" refX="11" refY="6" viewBox="0 0 16 12" orient="auto" markerUnits="userSpaceOnUse" stroke-dasharray="0,0"><path id="SvgjsPath1124" d="M0,0 L16,6 L0,12 L0,0" fill="#e0c431" stroke="#e0c431" stroke-width="1"></path></marker><marker id="SvgjsMarker1127" markerWidth="16" markerHeight="12" refX="11" refY="6" viewBox="0 0 16 12" orient="auto" markerUnits="userSpaceOnUse" stroke-dasharray="0,0"><path id="SvgjsPath1128" d="M0,0 L16,6 L0,12 L0,0" fill="#e0c431" stroke="#e0c431" stroke-width="1"></path></marker></defs><rect id="svgbackgroundid" width="1858.2698545910064" height="777.1250048577785" fill="transparent"></rect><rect id="SvgjsRect1009" width="1858.2698545910064" height="777.1250048577785" fill="url(#pattern_mark_0)"></rect><rect id="SvgjsRect1010" width="1858.2698545910064" height="777.1250048577785" fill="url(#pattern_mark_1)"></rect><g id="SvgjsG1011" transform="translate(25,25)"><path id="SvgjsPath1012" d="M 0 0L 564 0L 580 16L 580 54L 0 54L 0 0Z" stroke="none" fill-opacity="1" fill="#95da69"></path><path id="SvgjsPath1013" d="M 564 0L 564 16L 580 16Z" stroke="none" fill-opacity="1" fill="#e4d089"></path><path id="SvgjsPath1014" d="M 0 0L 564 0L 580 16L 580 54L 0 54L 0 0Z" stroke="none" fill="none"></path><g id="SvgjsG1015"><text id="SvgjsText1016" font-family="&quot;Microsoft YaHei&quot;, 微软雅黑, Arial" text-anchor="start" font-size="24px" width="560px" fill="#323232" font-weight="400" align="middle" lineHeight="125%" anchor="start" family="&quot;Microsoft YaHei&quot;, 微软雅黑, Arial" size="24px" weight="400" font-style="" opacity="1" y="6" transform="rotate(0)"><tspan id="SvgjsTspan1017" dy="30" x="10"><tspan id="SvgjsTspan1018" style="">int global_init_var = 99;</tspan></tspan></text></g></g><g id="SvgjsG1019" transform="translate(25,166.8333350121975)"><path id="SvgjsPath1020" d="M 0 0L 564 0L 580 16L 580 234L 0 234L 0 0Z" stroke="none" fill-opacity="1" fill="#5b79e8"></path><path id="SvgjsPath1021" d="M 564 0L 564 16L 580 16Z" stroke="none" fill-opacity="1" fill="#e4d089"></path><path id="SvgjsPath1022" d="M 0 0L 564 0L 580 16L 580 234L 0 234L 0 0Z" stroke="none" fill="none"></path><g id="SvgjsG1023"><text id="SvgjsText1024" font-family="&quot;Microsoft YaHei&quot;, 微软雅黑, Arial" text-anchor="start" font-size="24px" width="560px" fill="#ffffff" font-weight="400" align="middle" lineHeight="125%" anchor="start" family="&quot;Microsoft YaHei&quot;, 微软雅黑, Arial" size="24px" weight="400" font-style="" opacity="1" y="6" transform="rotate(0)"><tspan id="SvgjsTspan1025" dy="30" x="10"><tspan id="SvgjsTspan1026" style="">void func(int i)</tspan></tspan><tspan id="SvgjsTspan1027" dy="30" x="10"><tspan id="SvgjsTspan1028" style="">{</tspan></tspan><tspan id="SvgjsTspan1029" dy="30" x="10"><tspan id="SvgjsTspan1030" style="">            printf("%d\n", i);</tspan></tspan><tspan id="SvgjsTspan1031" dy="30" x="10"><tspan id="SvgjsTspan1032" style="">}</tspan></tspan><tspan id="SvgjsTspan1033" dy="30" x="10"><tspan id="SvgjsTspan1034" style=""> </tspan></tspan><tspan id="SvgjsTspan1035" dy="30" x="10"><tspan id="SvgjsTspan1036" style="">int main()</tspan></tspan><tspan id="SvgjsTspan1037" dy="30" x="10"><tspan id="SvgjsTspan1038" style="">{</tspan></tspan></text></g></g><g id="SvgjsG1039" transform="translate(25,548.1250048577785)"><path id="SvgjsPath1040" d="M 0 0L 564 0L 580 16L 580 204L 0 204L 0 0Z" stroke="none" fill-opacity="1" fill="#5b79e8"></path><path id="SvgjsPath1041" d="M 564 0L 564 16L 580 16Z" stroke="none" fill-opacity="1" fill="#e4d089"></path><path id="SvgjsPath1042" d="M 0 0L 564 0L 580 16L 580 204L 0 204L 0 0Z" stroke="none" fill="none"></path><g id="SvgjsG1043"><text id="SvgjsText1044" font-family="&quot;Microsoft YaHei&quot;, 微软雅黑, Arial" text-anchor="start" font-size="24px" width="560px" fill="#ffffff" font-weight="400" align="middle" lineHeight="125%" anchor="start" family="&quot;Microsoft YaHei&quot;, 微软雅黑, Arial" size="24px" weight="400" font-style="" opacity="1" y="6" transform="rotate(0)"><tspan id="SvgjsTspan1045" dy="30" x="10"><tspan id="SvgjsTspan1046" style="">            int a = 1;</tspan></tspan><tspan id="SvgjsTspan1047" dy="30" x="10"><tspan id="SvgjsTspan1048" style="">            int b;</tspan></tspan><tspan id="SvgjsTspan1049" dy="30" x="10"><tspan id="SvgjsTspan1050" style=""> </tspan></tspan><tspan id="SvgjsTspan1051" dy="30" x="10"><tspan id="SvgjsTspan1052" style="">            func(static_var + static_var2 + a + b);</tspan></tspan><tspan id="SvgjsTspan1053" dy="30" x="10"><tspan id="SvgjsTspan1054" style="">            return 0;</tspan></tspan><tspan id="SvgjsTspan1055" dy="30" x="10"><tspan id="SvgjsTspan1056" style="">}</tspan></tspan></text></g></g><g id="SvgjsG1057" transform="translate(25,417.75000251829624)"><path id="SvgjsPath1058" d="M 0 0L 564 0L 580 16L 580 54L 0 54L 0 0Z" stroke="none" fill-opacity="1" fill="#95da69"></path><path id="SvgjsPath1059" d="M 564 0L 564 16L 580 16Z" stroke="none" fill-opacity="1" fill="#e4d089"></path><path id="SvgjsPath1060" d="M 0 0L 564 0L 580 16L 580 54L 0 54L 0 0Z" stroke="none" fill="none"></path><g id="SvgjsG1061"><text id="SvgjsText1062" font-family="&quot;Microsoft YaHei&quot;, 微软雅黑, Arial" text-anchor="start" font-size="24px" width="560px" fill="#323232" font-weight="400" align="middle" lineHeight="125%" anchor="start" family="&quot;Microsoft YaHei&quot;, 微软雅黑, Arial" size="24px" weight="400" font-style="" opacity="1" y="6" transform="rotate(0)"><tspan id="SvgjsTspan1063" dy="30" x="10"><tspan id="SvgjsTspan1064" style="">            static int static_var = 100;</tspan></tspan></text></g></g><g id="SvgjsG1065" transform="translate(25,477.6666670739651)"><path id="SvgjsPath1066" d="M 0 0L 564 0L 580 16L 580 54L 0 54L 0 0Z" stroke="none" fill-opacity="1" fill="#e9d66f"></path><path id="SvgjsPath1067" d="M 564 0L 564 16L 580 16Z" stroke="none" fill-opacity="1" fill="#e4d089"></path><path id="SvgjsPath1068" d="M 0 0L 564 0L 580 16L 580 54L 0 54L 0 0Z" stroke="none" fill="none"></path><g id="SvgjsG1069"><text id="SvgjsText1070" font-family="&quot;Microsoft YaHei&quot;, 微软雅黑, Arial" text-anchor="start" font-size="24px" width="560px" fill="#323232" font-weight="400" align="middle" lineHeight="125%" anchor="start" family="&quot;Microsoft YaHei&quot;, 微软雅黑, Arial" size="24px" weight="400" font-style="" opacity="1" y="6" transform="rotate(0)"><tspan id="SvgjsTspan1071" dy="30" x="10"><tspan id="SvgjsTspan1072" style="">            static int static_var2;</tspan></tspan></text></g></g><g id="SvgjsG1073" transform="translate(1519.5555688767206,282.607143696575)"><path id="SvgjsPath1074" d="M 0 0L 313.714 0L 313.714 83.5L 0 83.5Z" stroke="none" fill-opacity="1" fill="#5b79e8"></path><g id="SvgjsG1075"><text id="SvgjsText1076" font-family="&quot;Microsoft YaHei&quot;, 微软雅黑, Arial" text-anchor="middle" font-size="24px" width="294px" fill="#ffffff" font-weight="400" align="middle" lineHeight="125%" anchor="middle" family="&quot;Microsoft YaHei&quot;, 微软雅黑, Arial" size="24px" weight="400" font-style="" opacity="1" y="20.75" transform="rotate(0)"><tspan id="SvgjsTspan1077" dy="30" x="157"><tspan id="SvgjsTspan1078" style="">.text section</tspan></tspan></text></g></g><g id="SvgjsG1079" transform="translate(1519.5555688767206,195.46428655371784)"><path id="SvgjsPath1080" d="M 0 4Q 0 0 4 0L 309.714 0Q 313.714 0 313.714 4L 313.714 79.5Q 313.714 83.5 309.714 83.5L 4 83.5Q 0 83.5 0 79.5Z" stroke="rgba(255,255,255,1)" stroke-width="1.5" fill-opacity="1" fill="#beb3af"></path><g id="SvgjsG1081"><text id="SvgjsText1082" font-family="&quot;Microsoft YaHei&quot;, 微软雅黑, Arial" text-anchor="middle" font-size="24px" width="294px" fill="#323232" font-weight="400" align="middle" lineHeight="125%" anchor="middle" family="&quot;Microsoft YaHei&quot;, 微软雅黑, Arial" size="24px" weight="400" font-style="" opacity="1" y="20.75" transform="rotate(0)"><tspan id="SvgjsTspan1083" dy="30" x="157"><tspan id="SvgjsTspan1084" style="">File Header</tspan></tspan></text></g></g><g id="SvgjsG1085" transform="translate(1519.5555688767206,369.75000083943223)"><path id="SvgjsPath1086" d="M 0 4Q 0 0 4 0L 309.714 0Q 313.714 0 313.714 4L 313.714 79.5Q 313.714 83.5 309.714 83.5L 4 83.5Q 0 83.5 0 79.5Z" stroke="rgba(255,255,255,1)" stroke-width="1.5" fill-opacity="1" fill="#7bd144"></path><g id="SvgjsG1087"><text id="SvgjsText1088" font-family="&quot;Microsoft YaHei&quot;, 微软雅黑, Arial" text-anchor="middle" font-size="24px" width="294px" fill="#323232" font-weight="400" align="middle" lineHeight="125%" anchor="middle" family="&quot;Microsoft YaHei&quot;, 微软雅黑, Arial" size="24px" weight="400" font-style="" opacity="1" y="20.75" transform="rotate(0)"><tspan id="SvgjsTspan1089" dy="30" x="157"><tspan id="SvgjsTspan1090" style="">.data section</tspan></tspan></text></g></g><g id="SvgjsG1091" transform="translate(1519.5555688767206,456.89285798228946)"><path id="SvgjsPath1092" d="M 0 4Q 0 0 4 0L 309.714 0Q 313.714 0 313.714 4L 313.714 79.5Q 313.714 83.5 309.714 83.5L 4 83.5Q 0 83.5 0 79.5Z" stroke="rgba(255,255,255,1)" stroke-width="1.5" fill-opacity="1" fill="#e9d66f"></path><g id="SvgjsG1093"><text id="SvgjsText1094" font-family="&quot;Microsoft YaHei&quot;, 微软雅黑, Arial" text-anchor="middle" font-size="24px" width="294px" fill="#323232" font-weight="400" align="middle" lineHeight="125%" anchor="middle" family="&quot;Microsoft YaHei&quot;, 微软雅黑, Arial" size="24px" weight="400" font-style="" opacity="1" y="20.75" transform="rotate(0)"><tspan id="SvgjsTspan1095" dy="30" x="157"><tspan id="SvgjsTspan1096" style="">.bass section</tspan></tspan></text></g></g><g id="SvgjsG1097"><path id="SvgjsPath1098" d="M605 283.8333350121975C 947.6349291120257 218.81746314678873 1264.7777862548828 164.53174886107445 1516.232606978461 322.3155942304305" stroke="#5b79e8" stroke-width="3" fill="none" marker-end="url(#SvgjsMarker1099)"></path></g><g id="SvgjsG1101"><path id="SvgjsPath1102" d="M605 650.1250048577785C 1064.7777862548828 663.1031774325031 1367.6349291120257 363.10317743250306 1515.793016039117 325.3833971468691" stroke="#5b79e8" stroke-width="3" fill="none" marker-end="url(#SvgjsMarker1103)"></path></g><g id="SvgjsG1105" transform="translate(25,95.91666750609873)"><path id="SvgjsPath1106" d="M 0 0L 564 0L 580 16L 580 54L 0 54L 0 0Z" stroke="none" fill-opacity="1" fill="#e9d66f"></path><path id="SvgjsPath1107" d="M 564 0L 564 16L 580 16Z" stroke="none" fill-opacity="1" fill="#e4d089"></path><path id="SvgjsPath1108" d="M 0 0L 564 0L 580 16L 580 54L 0 54L 0 0Z" stroke="none" fill="none"></path><g id="SvgjsG1109"><text id="SvgjsText1110" font-family="&quot;Microsoft YaHei&quot;, 微软雅黑, Arial" text-anchor="start" font-size="24px" width="560px" fill="#323232" font-weight="400" align="middle" lineHeight="125%" anchor="start" family="&quot;Microsoft YaHei&quot;, 微软雅黑, Arial" size="24px" weight="400" font-style="" opacity="1" y="6" transform="rotate(0)"><tspan id="SvgjsTspan1111" dy="30" x="10"><tspan id="SvgjsTspan1112" style="">int global_unint_var;</tspan></tspan></text></g></g><g id="SvgjsG1113"><path id="SvgjsPath1114" d="M605 444.75000251829624C 914.7777862548828 321.6746060039316 1303.3492148263115 525.9603202896459 1515.4048132413031 413.5961228909958" stroke="#95da69" stroke-width="3" fill="none" marker-end="url(#SvgjsMarker1115)"></path></g><g id="SvgjsG1117"><path id="SvgjsPath1118" d="M605 51.999999999999986C 1150.4920719691686 45.96032028964588 1191.9206433977402 258.8174631467888 1515.3524104055 409.5110415975657" stroke="#95da69" stroke-width="3" fill="none" marker-end="url(#SvgjsMarker1119)"></path></g><g id="SvgjsG1121"><path id="SvgjsPath1122" d="M605 504.6666670739651C 1151.92064339774 643.1031774325031 1383.3492148263115 663.1031774325031 1516.554259947955 501.551710518514" stroke="#e0c431" stroke-width="3" fill="none" marker-end="url(#SvgjsMarker1123)"></path></g><g id="SvgjsG1125"><path id="SvgjsPath1126" d="M605 122.91666750609873C 1000.490997879481 122.91666750609885 1260.4920719691686 381.6746060039316 1515.3279464896614 496.70644145880203" stroke="#e0c431" stroke-width="3" fill="none" marker-end="url(#SvgjsMarker1127)"></path></g><g id="SvgjsG1129"></g></svg>