<svg id="SvgjsSvg1006" width="954" height="294" xmlns="http://www.w3.org/2000/svg" version="1.1" xmlns:xlink="http://www.w3.org/1999/xlink" xmlns:svgjs="http://svgjs.com/svgjs"><defs id="SvgjsDefs1007"><pattern patternUnits="userSpaceOnUse" id="pattern_mark_0" width="300" height="300"><text x="150" y="100" fill="rgba(229,229,229,0.8)" font-size="18" transform="rotate(-45, 150, 150)" style="dominant-baseline: middle; text-anchor: middle;"></text></pattern><pattern patternUnits="userSpaceOnUse" id="pattern_mark_1" width="300" height="300"><text x="150" y="200" fill="rgba(229,229,229,0.8)" font-size="18" transform="rotate(-45, 150, 150)" style="dominant-baseline: middle; text-anchor: middle;"></text></pattern></defs><rect id="svgbackgroundid" width="954" height="294" fill="transparent"></rect><rect id="SvgjsRect1009" width="954" height="294" fill="url(#pattern_mark_0)"></rect><rect id="SvgjsRect1010" width="954" height="294" fill="url(#pattern_mark_1)"></rect><g id="SvgjsG1011" transform="translate(59.00000000000006,25)"><path id="SvgjsPath1012" d="M 0 4Q 0 0 4 0L 151 0Q 155 0 155 4L 155 78Q 155 82 151 82L 4 82Q 0 82 0 78Z" stroke="rgba(255,255,255,1)" stroke-width="1.5" fill-opacity="1" fill="#5b79e8"></path><g id="SvgjsG1013"><text id="SvgjsText1014" font-family="&quot;Microsoft YaHei&quot;, 微软雅黑, Arial" text-anchor="middle" font-size="24px" width="135px" fill="#323232" font-weight="400" align="middle" lineHeight="125%" anchor="middle" family="&quot;Microsoft YaHei&quot;, 微软雅黑, Arial" size="24px" weight="400" font-style="" opacity="1" y="20" transform="rotate(0)"></text></g></g><g id="SvgjsG1015" transform="translate(216.50000000000006,25)"><path id="SvgjsPath1016" d="M 0 4Q 0 0 4 0L 151 0Q 155 0 155 4L 155 78Q 155 82 151 82L 4 82Q 0 82 0 78Z" stroke="rgba(255,255,255,1)" stroke-width="1.5" fill-opacity="1" fill="#f1ac6a"></path><g id="SvgjsG1017"><text id="SvgjsText1018" font-family="&quot;Microsoft YaHei&quot;, 微软雅黑, Arial" text-anchor="middle" font-size="24px" width="135px" fill="#323232" font-weight="400" align="middle" lineHeight="125%" anchor="middle" family="&quot;Microsoft YaHei&quot;, 微软雅黑, Arial" size="24px" weight="400" font-style="" opacity="1" y="20" transform="rotate(0)"></text></g></g><g id="SvgjsG1019" transform="translate(377.00000000000006,25)"><path id="SvgjsPath1020" d="M 0 4Q 0 0 4 0L 516 0Q 520 0 520 4L 520 78Q 520 82 516 82L 4 82Q 0 82 0 78Z" stroke="rgba(255,255,255,1)" stroke-width="1.5" fill-opacity="1" fill="#7bd144"></path><g id="SvgjsG1021"><text id="SvgjsText1022" font-family="&quot;Microsoft YaHei&quot;, 微软雅黑, Arial" text-anchor="middle" font-size="24px" width="500px" fill="#323232" font-weight="400" align="middle" lineHeight="125%" anchor="middle" family="&quot;Microsoft YaHei&quot;, 微软雅黑, Arial" size="24px" weight="400" font-style="" opacity="1" y="20" transform="rotate(0)"></text></g></g><g id="SvgjsG1023" transform="matrix(-1.8369701987210297e-16,-1,1,-1.8369701987210297e-16,66,156)"><path id="SvgjsPath1024" d="M 31 0Q 27.9 0 27.9 9L 27.9 61Q 27.9 70 9 70Q 27.9 70 27.9 79L 27.9 131Q 27.9 140 31 140" stroke="rgba(33,41,48,1)" stroke-width="1.5" fill="none"></path><path id="SvgjsPath1025" d="M 0 0L 31 0L 31 140L 0 140Z" stroke="none" fill="none"></path><g id="SvgjsG1026"><text id="SvgjsText1027" font-family="&quot;Microsoft YaHei&quot;, 微软雅黑, Arial" text-anchor="end" font-size="24px" width="4px" fill="#323232" font-weight="400" align="middle" lineHeight="125%" anchor="end" family="&quot;Microsoft YaHei&quot;, 微软雅黑, Arial" size="24px" weight="400" font-style="" opacity="1" y="49" transform="rotate(0)"></text></g></g><g id="SvgjsG1028" transform="matrix(-1.8369701987210297e-16,-1,1,-1.8369701987210297e-16,224,157)"><path id="SvgjsPath1029" d="M 31 0Q 27.9 0 27.9 9L 27.9 61Q 27.9 70 9 70Q 27.9 70 27.9 79L 27.9 131Q 27.9 140 31 140" stroke="rgba(33,41,48,1)" stroke-width="1.5" fill="none"></path><path id="SvgjsPath1030" d="M 0 0L 31 0L 31 140L 0 140Z" stroke="none" fill="none"></path><g id="SvgjsG1031"><text id="SvgjsText1032" font-family="&quot;Microsoft YaHei&quot;, 微软雅黑, Arial" text-anchor="end" font-size="24px" width="4px" fill="#323232" font-weight="400" align="middle" lineHeight="125%" anchor="end" family="&quot;Microsoft YaHei&quot;, 微软雅黑, Arial" size="24px" weight="400" font-style="" opacity="1" y="49" transform="rotate(0)"></text></g></g><g id="SvgjsG1033" transform="matrix(-1.8369701987210297e-16,-1,1,-1.8369701987210297e-16,381,158.00000000000006)"><path id="SvgjsPath1034" d="M 31 0Q 27.9 0 27.9 9L 27.9 245Q 27.9 254 9 254Q 27.9 254 27.9 263L 27.9 499Q 27.9 508 31 508" stroke="rgba(33,41,48,1)" stroke-width="1.5" fill="none"></path><path id="SvgjsPath1035" d="M 0 0L 31 0L 31 508L 0 508Z" stroke="none" fill="none"></path><g id="SvgjsG1036"><text id="SvgjsText1037" font-family="&quot;Microsoft YaHei&quot;, 微软雅黑, Arial" text-anchor="end" font-size="24px" width="4px" fill="#323232" font-weight="400" align="middle" lineHeight="125%" anchor="end" family="&quot;Microsoft YaHei&quot;, 微软雅黑, Arial" size="24px" weight="400" font-style="" opacity="1" y="233" transform="rotate(0)"></text></g></g><g id="SvgjsG1038" transform="matrix(-1.8369701987210297e-16,-1,1,-1.8369701987210297e-16,25,242.00000000000009)"><path id="SvgjsPath1039" d="M 31 0Q 27.9 0 27.9 9L 27.9 443Q 27.9 452 9 452Q 27.9 452 27.9 461L 27.9 895Q 27.9 904 31 904" stroke="rgba(33,41,48,1)" stroke-width="1.5" fill="none"></path><path id="SvgjsPath1040" d="M 0 0L 31 0L 31 904L 0 904Z" stroke="none" fill="none"></path><g id="SvgjsG1041"><text id="SvgjsText1042" font-family="&quot;Microsoft YaHei&quot;, 微软雅黑, Arial" text-anchor="end" font-size="24px" width="4px" fill="#323232" font-weight="400" align="middle" lineHeight="125%" anchor="end" family="&quot;Microsoft YaHei&quot;, 微软雅黑, Arial" size="24px" weight="400" font-style="" opacity="1" y="431" transform="rotate(0)"></text></g></g><g id="SvgjsG1043" transform="translate(86.50000000000006,148)"><path id="SvgjsPath1044" d="M 0 0L 100 0L 100 40L 0 40Z" stroke="none" fill="none"></path><g id="SvgjsG1045"><text id="SvgjsText1046" font-family="&quot;Microsoft YaHei&quot;, 微软雅黑, Arial" text-anchor="middle" font-size="24px" width="100px" fill="#323232" font-weight="400" align="middle" lineHeight="125%" anchor="middle" family="&quot;Microsoft YaHei&quot;, 微软雅黑, Arial" size="24px" weight="400" font-style="" opacity="1" y="-1" transform="rotate(0)"><tspan id="SvgjsTspan1047" dy="30" x="50"><tspan id="SvgjsTspan1048" style="">报文头部</tspan></tspan></text></g></g><g id="SvgjsG1049" transform="translate(207.50000000000006,138)"><path id="SvgjsPath1050" d="M 0 0L 209.5 0L 209.5 60L 0 60Z" stroke="none" fill="none"></path><g id="SvgjsG1051"><text id="SvgjsText1052" font-family="&quot;Microsoft YaHei&quot;, 微软雅黑, Arial" text-anchor="middle" font-size="24px" width="210px" fill="#323232" font-weight="400" align="middle" lineHeight="125%" anchor="middle" family="&quot;Microsoft YaHei&quot;, 微软雅黑, Arial" size="24px" weight="400" font-style="" opacity="1" y="9" transform="rotate(0)"><tspan id="SvgjsTspan1053" dy="30" x="105"><tspan id="SvgjsTspan1054" style="">类型头部（可选）</tspan></tspan></text></g></g><g id="SvgjsG1055" transform="translate(559,148)"><path id="SvgjsPath1056" d="M 0 0L 183 0L 183 40L 0 40Z" stroke="none" fill="none"></path><g id="SvgjsG1057"><text id="SvgjsText1058" font-family="&quot;Microsoft YaHei&quot;, 微软雅黑, Arial" text-anchor="middle" font-size="24px" width="183px" fill="#323232" font-weight="400" align="middle" lineHeight="125%" anchor="middle" family="&quot;Microsoft YaHei&quot;, 微软雅黑, Arial" size="24px" weight="400" font-style="" opacity="1" y="-1" transform="rotate(0)"><tspan id="SvgjsTspan1059" dy="30" x="91.5"><tspan id="SvgjsTspan1060" style="">数据（可选）</tspan></tspan></text></g></g><g id="SvgjsG1061" transform="translate(389.00000000000006,229)"><path id="SvgjsPath1062" d="M 0 0L 175 0L 175 40L 0 40Z" stroke="none" fill="none"></path><g id="SvgjsG1063"><text id="SvgjsText1064" font-family="&quot;Microsoft YaHei&quot;, 微软雅黑, Arial" text-anchor="middle" font-size="24px" width="175px" fill="#323232" font-weight="400" align="middle" lineHeight="125%" anchor="middle" family="&quot;Microsoft YaHei&quot;, 微软雅黑, Arial" size="24px" weight="400" font-style="" opacity="1" y="-1" transform="rotate(0)"><tspan id="SvgjsTspan1065" dy="30" x="87.5"><tspan id="SvgjsTspan1066" style="">报文整体结构</tspan></tspan></text></g></g><g id="SvgjsG1067"></g></svg>