<svg id="SvgjsSvg1006" width="1884.9455261230469" height="1000.3825757575759" xmlns="http://www.w3.org/2000/svg" version="1.1" xmlns:xlink="http://www.w3.org/1999/xlink" xmlns:svgjs="http://svgjs.com/svgjs"><defs id="SvgjsDefs1007"><pattern patternUnits="userSpaceOnUse" id="pattern_mark_0" width="300" height="300"><text x="150" y="100" fill="rgba(229,229,229,0.8)" font-size="18" transform="rotate(-45, 150, 150)" style="dominant-baseline: middle; text-anchor: middle;"></text></pattern><pattern patternUnits="userSpaceOnUse" id="pattern_mark_1" width="300" height="300"><text x="150" y="200" fill="rgba(229,229,229,0.8)" font-size="18" transform="rotate(-45, 150, 150)" style="dominant-baseline: middle; text-anchor: middle;"></text></pattern><marker id="SvgjsMarker1059" markerWidth="16" markerHeight="16" refX="11" refY="8" viewBox="0 0 16 16" orient="auto" markerUnits="userSpaceOnUse" stroke-dasharray="0,0"><path id="SvgjsPath1060" d="M0,0 L10,8 L0,16" fill="none" stroke="#323232" stroke-width="1.5"></path></marker><marker id="SvgjsMarker1109" markerWidth="16" markerHeight="16" refX="11" refY="8" viewBox="0 0 16 16" orient="auto" markerUnits="userSpaceOnUse" stroke-dasharray="0,0"><path id="SvgjsPath1110" d="M0,0 L10,8 L0,16" fill="none" stroke="#323232" stroke-width="1.5"></path></marker><marker id="SvgjsMarker1137" markerWidth="13" markerHeight="9" refX="9.5" refY="4.5" viewBox="0 0 13 9" orient="auto" markerUnits="userSpaceOnUse" stroke-dasharray="0,0"><path id="SvgjsPath1138" d="M0,0 L13,4.5 L0,9 L0,0" fill="#323232" stroke="#323232" stroke-width="1"></path></marker><marker id="SvgjsMarker1149" markerWidth="13" markerHeight="9" refX="9.5" refY="4.5" viewBox="0 0 13 9" orient="auto" markerUnits="userSpaceOnUse" stroke-dasharray="0,0"><path id="SvgjsPath1150" d="M0,0 L13,4.5 L0,9 L0,0" fill="#323232" stroke="#323232" stroke-width="1"></path></marker><marker id="SvgjsMarker1197" markerWidth="16" markerHeight="16" refX="11" refY="8" viewBox="0 0 16 16" orient="auto" markerUnits="userSpaceOnUse" stroke-dasharray="0,0"><path id="SvgjsPath1198" d="M0,0 L10,8 L0,16" fill="none" stroke="#323232" stroke-width="1.5"></path></marker><marker id="SvgjsMarker1219" markerWidth="13" markerHeight="9" refX="9.5" refY="4.5" viewBox="0 0 13 9" orient="auto" markerUnits="userSpaceOnUse" stroke-dasharray="0,0"><path id="SvgjsPath1220" d="M0,0 L13,4.5 L0,9 L0,0" fill="#323232" stroke="#323232" stroke-width="1"></path></marker><marker id="SvgjsMarker1231" markerWidth="13" markerHeight="9" refX="9.5" refY="4.5" viewBox="0 0 13 9" orient="auto" markerUnits="userSpaceOnUse" stroke-dasharray="0,0"><path id="SvgjsPath1232" d="M0,0 L13,4.5 L0,9 L0,0" fill="#323232" stroke="#323232" stroke-width="1"></path></marker><marker id="SvgjsMarker1287" markerWidth="16" markerHeight="16" refX="11" refY="8" viewBox="0 0 16 16" orient="auto" markerUnits="userSpaceOnUse" stroke-dasharray="0,0"><path id="SvgjsPath1288" d="M0,0 L10,8 L0,16" fill="none" stroke="#323232" stroke-width="1.5"></path></marker><marker id="SvgjsMarker1299" markerWidth="13" markerHeight="9" refX="9.5" refY="4.5" viewBox="0 0 13 9" orient="auto" markerUnits="userSpaceOnUse" stroke-dasharray="0,0"><path id="SvgjsPath1300" d="M0,0 L13,4.5 L0,9 L0,0" fill="#323232" stroke="#323232" stroke-width="1"></path></marker><marker id="SvgjsMarker1311" markerWidth="13" markerHeight="9" refX="9.5" refY="4.5" viewBox="0 0 13 9" orient="auto" markerUnits="userSpaceOnUse" stroke-dasharray="0,0"><path id="SvgjsPath1312" d="M0,0 L13,4.5 L0,9 L0,0" fill="#323232" stroke="#323232" stroke-width="1"></path></marker></defs><rect id="svgbackgroundid" width="1884.9455261230469" height="1000.3825757575759" fill="transparent"></rect><rect id="SvgjsRect1009" width="1884.9455261230469" height="1000.3825757575759" fill="url(#pattern_mark_0)"></rect><rect id="SvgjsRect1010" width="1884.9455261230469" height="1000.3825757575759" fill="url(#pattern_mark_1)"></rect><g id="SvgjsG1011" transform="translate(469.26667785644537,75.875)"><path id="SvgjsPath1012" d="M 0 35C 0 -11.667 70 -11.667 70 35C 70 81.667 0 81.667 0 35Z" stroke="rgba(255,255,255,1)" stroke-width="1.5" fill-opacity="1" fill="#000000"></path><g id="SvgjsG1013"><text id="SvgjsText1014" font-family="&quot;Microsoft YaHei&quot;, 微软雅黑, Arial" text-anchor="middle" font-size="40px" width="50px" fill="#ffffff" font-weight="400" align="middle" lineHeight="125%" anchor="middle" family="&quot;Microsoft YaHei&quot;, 微软雅黑, Arial" size="40px" weight="400" font-style="" opacity="1" y="0" transform="rotate(0)"><tspan id="SvgjsTspan1015" dy="50" x="35"><tspan id="SvgjsTspan1016" style="">9</tspan></tspan></text></g></g><g id="SvgjsG1017" transform="translate(346.26667785644537,215.875)"><path id="SvgjsPath1018" d="M 0 35C 0 -11.667 70 -11.667 70 35C 70 81.667 0 81.667 0 35Z" stroke="rgba(255,255,255,1)" stroke-width="1.5" fill-opacity="1" fill="#e60c0c"></path><g id="SvgjsG1019"><text id="SvgjsText1020" font-family="&quot;Microsoft YaHei&quot;, 微软雅黑, Arial" text-anchor="middle" font-size="40px" width="50px" fill="#ffffff" font-weight="400" align="middle" lineHeight="125%" anchor="middle" family="&quot;Microsoft YaHei&quot;, 微软雅黑, Arial" size="40px" weight="400" font-style="" opacity="1" y="0" transform="rotate(0)"><tspan id="SvgjsTspan1021" dy="50" x="35"><tspan id="SvgjsTspan1022" style="">7</tspan></tspan></text></g></g><g id="SvgjsG1023" transform="translate(222.26667785644537,347.875)"><path id="SvgjsPath1024" d="M 0 35C 0 -11.667 70 -11.667 70 35C 70 81.667 0 81.667 0 35Z" stroke="rgba(255,255,255,1)" stroke-width="1.5" fill-opacity="1" fill="#e60c0c"></path><g id="SvgjsG1025"><text id="SvgjsText1026" font-family="&quot;Microsoft YaHei&quot;, 微软雅黑, Arial" text-anchor="middle" font-size="40px" width="50px" fill="#ffffff" font-weight="400" align="middle" lineHeight="125%" anchor="middle" family="&quot;Microsoft YaHei&quot;, 微软雅黑, Arial" size="40px" weight="400" font-style="" opacity="1" y="0" transform="rotate(0)"><tspan id="SvgjsTspan1027" dy="50" x="35"><tspan id="SvgjsTspan1028" style="">2</tspan></tspan></text></g></g><g id="SvgjsG1029"><path id="SvgjsPath1030" d="M482.3418181678851 138.61342721704582L403.19153754500564 223.13657278295418" stroke="#323232" stroke-width="1.5" fill="none"></path></g><g id="SvgjsG1031"><path id="SvgjsPath1032" d="M357.06986844578785 277.91648267442633L282.9471782003377 358.1525252898744" stroke="#323232" stroke-width="1.5" fill="none"></path></g><g id="SvgjsG1033"><path id="SvgjsPath1034" d="M528.7242853026228 137.2340174615485L590.8669969482423 215.875" stroke="#323232" stroke-width="1.5" fill="none"></path></g><g id="SvgjsG1035" transform="translate(211.26667785644537,429.875)"><path id="SvgjsPath1036" d="M 0 0L 98.929 0L 114.929 16L 114.929 40L 0 40L 0 0Z" stroke="none" fill-opacity="1" fill="#fff7bc"></path><path id="SvgjsPath1037" d="M 98.929 0L 98.929 16L 114.929 16Z" stroke="none" fill-opacity="1" fill="#e4d089"></path><path id="SvgjsPath1038" d="M 0 0L 98.929 0L 114.929 16L 114.929 40L 0 40L 0 0Z" stroke="none" fill="none"></path><g id="SvgjsG1039"><text id="SvgjsText1040" font-family="&quot;Microsoft YaHei&quot;, 微软雅黑, Arial" text-anchor="middle" font-size="30px" width="95px" fill="#323232" font-weight="400" align="middle" lineHeight="125%" anchor="middle" family="&quot;Microsoft YaHei&quot;, 微软雅黑, Arial" size="30px" weight="400" font-style="" opacity="1" y="-5.75" transform="rotate(0)"><tspan id="SvgjsTspan1041" dy="37.5" x="57.5"><tspan id="SvgjsTspan1042" style="">新节点</tspan></tspan></text></g></g><g id="SvgjsG1043" transform="translate(630.6000111897788,227.125)"><path id="SvgjsPath1044" d="M 0 0L 103.346 0L 119.346 16L 119.346 31.5L 0 31.5L 0 0Z" stroke="none" fill-opacity="1" fill="#fff7bc"></path><path id="SvgjsPath1045" d="M 103.346 0L 103.346 16L 119.346 16Z" stroke="none" fill-opacity="1" fill="#e4d089"></path><path id="SvgjsPath1046" d="M 0 0L 103.346 0L 119.346 16L 119.346 31.5L 0 31.5L 0 0Z" stroke="none" fill="none"></path><g id="SvgjsG1047"><text id="SvgjsText1048" font-family="&quot;Microsoft YaHei&quot;, 微软雅黑, Arial" text-anchor="middle" font-size="30px" width="100px" fill="#323232" font-weight="400" align="middle" lineHeight="125%" anchor="middle" family="&quot;Microsoft YaHei&quot;, 微软雅黑, Arial" size="30px" weight="400" font-style="" opacity="1" y="-10" transform="rotate(0)"><tspan id="SvgjsTspan1049" dy="37.5" x="60"><tspan id="SvgjsTspan1050" style="">它叔叔</tspan></tspan></text></g></g><g id="SvgjsG1051" transform="translate(25,345.875)"><path id="SvgjsPath1052" d="M 0 37C 0 -12.333 161.6 -12.333 161.6 37C 161.6 86.333 0 86.333 0 37Z" stroke="rgba(33,41,48,1)" stroke-width="1.5" fill-opacity="1" fill="#569230"></path><g id="SvgjsG1053"><text id="SvgjsText1054" font-family="&quot;Microsoft YaHei&quot;, 微软雅黑, Arial" text-anchor="middle" font-size="30px" width="142px" fill="#ffffff" font-weight="400" align="middle" lineHeight="125%" anchor="middle" family="&quot;Microsoft YaHei&quot;, 微软雅黑, Arial" size="30px" weight="400" font-style="" opacity="1" y="11.25" transform="rotate(0)"><tspan id="SvgjsTspan1055" dy="37.5" x="81"><tspan id="SvgjsTspan1056" style="">cur_node</tspan></tspan></text></g></g><g id="SvgjsG1057"><path id="SvgjsPath1058" d="M187.35 382.875L220.76667785644537 382.875" stroke-dasharray="7.5,3" stroke="#323232" stroke-width="1.5" fill="none" marker-end="url(#SvgjsMarker1059)"></path></g><g id="SvgjsG1061" transform="translate(1510.2666778564453,75.875)"><path id="SvgjsPath1062" d="M 0 35C 0 -11.667 70 -11.667 70 35C 70 81.667 0 81.667 0 35Z" stroke="rgba(255,255,255,1)" stroke-width="1.5" fill-opacity="1" fill="#000000"></path><g id="SvgjsG1063"><text id="SvgjsText1064" font-family="&quot;Microsoft YaHei&quot;, 微软雅黑, Arial" text-anchor="middle" font-size="40px" width="50px" fill="#ffffff" font-weight="400" align="middle" lineHeight="125%" anchor="middle" family="&quot;Microsoft YaHei&quot;, 微软雅黑, Arial" size="40px" weight="400" font-style="" opacity="1" y="0" transform="rotate(0)"><tspan id="SvgjsTspan1065" dy="50" x="35"><tspan id="SvgjsTspan1066" style="">9</tspan></tspan></text></g></g><g id="SvgjsG1067" transform="translate(1387.2666778564453,215.875)"><path id="SvgjsPath1068" d="M 0 35C 0 -11.667 70 -11.667 70 35C 70 81.667 0 81.667 0 35Z" stroke="rgba(255,255,255,1)" stroke-width="1.5" fill-opacity="1" fill="#e60c0c"></path><g id="SvgjsG1069"><text id="SvgjsText1070" font-family="&quot;Microsoft YaHei&quot;, 微软雅黑, Arial" text-anchor="middle" font-size="40px" width="50px" fill="#ffffff" font-weight="400" align="middle" lineHeight="125%" anchor="middle" family="&quot;Microsoft YaHei&quot;, 微软雅黑, Arial" size="40px" weight="400" font-style="" opacity="1" y="0" transform="rotate(0)"><tspan id="SvgjsTspan1071" dy="50" x="35"><tspan id="SvgjsTspan1072" style="">7</tspan></tspan></text></g></g><g id="SvgjsG1073" transform="translate(1263.2666778564453,347.875)"><path id="SvgjsPath1074" d="M 0 35C 0 -11.667 70 -11.667 70 35C 70 81.667 0 81.667 0 35Z" stroke="rgba(255,255,255,1)" stroke-width="1.5" fill-opacity="1" fill="#e60c0c"></path><g id="SvgjsG1075"><text id="SvgjsText1076" font-family="&quot;Microsoft YaHei&quot;, 微软雅黑, Arial" text-anchor="middle" font-size="40px" width="50px" fill="#ffffff" font-weight="400" align="middle" lineHeight="125%" anchor="middle" family="&quot;Microsoft YaHei&quot;, 微软雅黑, Arial" size="40px" weight="400" font-style="" opacity="1" y="0" transform="rotate(0)"><tspan id="SvgjsTspan1077" dy="50" x="35"><tspan id="SvgjsTspan1078" style="">2</tspan></tspan></text></g></g><g id="SvgjsG1079"><path id="SvgjsPath1080" d="M1523.3418181678849 138.61342721704582L1444.1915375450058 223.13657278295418" stroke="#323232" stroke-width="1.5" fill="none"></path></g><g id="SvgjsG1081"><path id="SvgjsPath1082" d="M1398.0698684457877 277.91648267442633L1323.9471782003377 358.1525252898744" stroke="#323232" stroke-width="1.5" fill="none"></path></g><g id="SvgjsG1083"><path id="SvgjsPath1084" d="M1569.8359068251668 137.1251575033581L1663.9414286354197 215.39540802020971" stroke="#323232" stroke-width="1.5" fill="none"></path></g><g id="SvgjsG1085" transform="translate(1252.2666778564453,429.875)"><path id="SvgjsPath1086" d="M 0 0L 84 0L 100 16L 100 40L 0 40L 0 0Z" stroke="none" fill-opacity="1" fill="#fff7bc"></path><path id="SvgjsPath1087" d="M 84 0L 84 16L 100 16Z" stroke="none" fill-opacity="1" fill="#e4d089"></path><path id="SvgjsPath1088" d="M 0 0L 84 0L 100 16L 100 40L 0 40L 0 0Z" stroke="none" fill="none"></path><g id="SvgjsG1089"><text id="SvgjsText1090" font-family="&quot;Microsoft YaHei&quot;, 微软雅黑, Arial" text-anchor="middle" font-size="20px" width="80px" fill="#323232" font-weight="400" align="middle" lineHeight="125%" anchor="middle" family="&quot;Microsoft YaHei&quot;, 微软雅黑, Arial" size="20px" weight="400" font-style="" opacity="1" y="2" transform="rotate(0)"><tspan id="SvgjsTspan1091" dy="25" x="50"><tspan id="SvgjsTspan1092" style="">新节点</tspan></tspan></text></g></g><g id="SvgjsG1093" transform="translate(1708.2666778564453,227.125)"><path id="SvgjsPath1094" d="M 0 0L 84 0L 100 16L 100 31.5L 0 31.5L 0 0Z" stroke="none" fill-opacity="1" fill="#fff7bc"></path><path id="SvgjsPath1095" d="M 84 0L 84 16L 100 16Z" stroke="none" fill-opacity="1" fill="#e4d089"></path><path id="SvgjsPath1096" d="M 0 0L 84 0L 100 16L 100 31.5L 0 31.5L 0 0Z" stroke="none" fill="none"></path><g id="SvgjsG1097"><text id="SvgjsText1098" font-family="&quot;Microsoft YaHei&quot;, 微软雅黑, Arial" text-anchor="middle" font-size="20px" width="80px" fill="#323232" font-weight="400" align="middle" lineHeight="125%" anchor="middle" family="&quot;Microsoft YaHei&quot;, 微软雅黑, Arial" size="20px" weight="400" font-style="" opacity="1" y="-2.25" transform="rotate(0)"><tspan id="SvgjsTspan1099" dy="25" x="50"><tspan id="SvgjsTspan1100" style="">它叔叔</tspan></tspan></text></g></g><g id="SvgjsG1101" transform="translate(1066,345.875)"><path id="SvgjsPath1102" d="M 0 37C 0 -12.333 161.6 -12.333 161.6 37C 161.6 86.333 0 86.333 0 37Z" stroke="rgba(33,41,48,1)" stroke-width="1.5" fill-opacity="1" fill="#569230"></path><g id="SvgjsG1103"><text id="SvgjsText1104" font-family="&quot;Microsoft YaHei&quot;, 微软雅黑, Arial" text-anchor="middle" font-size="30px" width="142px" fill="#ffffff" font-weight="400" align="middle" lineHeight="125%" anchor="middle" family="&quot;Microsoft YaHei&quot;, 微软雅黑, Arial" size="30px" weight="400" font-style="" opacity="1" y="11.25" transform="rotate(0)"><tspan id="SvgjsTspan1105" dy="37.5" x="81"><tspan id="SvgjsTspan1106" style="">cur_node</tspan></tspan></text></g></g><g id="SvgjsG1107"><path id="SvgjsPath1108" d="M1228.35 382.875L1261.7666778564453 382.875" stroke-dasharray="7.5,3" stroke="#323232" stroke-width="1.5" fill="none" marker-end="url(#SvgjsMarker1109)"></path></g><g id="SvgjsG1111" transform="translate(792.0666847229004,230.5)"><path id="SvgjsPath1112" d="M 0 19.8L 213 19.8L 213 0L 243 30L 213 60L 213 40.2L 0 40.2L 0 19.8Z" stroke="rgba(33,41,48,1)" stroke-width="1.5" fill-opacity="1" fill="#ffffff"></path><g id="SvgjsG1113"><text id="SvgjsText1114" font-family="&quot;Microsoft YaHei&quot;, 微软雅黑, Arial" text-anchor="middle" font-size="13px" width="243px" fill="#323232" font-weight="400" align="middle" lineHeight="125%" anchor="middle" family="&quot;Microsoft YaHei&quot;, 微软雅黑, Arial" size="13px" weight="400" font-style="" opacity="1" y="19.375" transform="rotate(0)"></text></g></g><g id="SvgjsG1115" transform="translate(772.4000180562339,160.875)"><path id="SvgjsPath1116" d="M 0 0L 240.087 0L 240.087 75L 0 75Z" stroke="none" fill="none"></path><g id="SvgjsG1117"><text id="SvgjsText1118" font-family="&quot;Microsoft YaHei&quot;, 微软雅黑, Arial" text-anchor="middle" font-size="30px" width="241px" fill="#323232" font-weight="400" align="middle" lineHeight="125%" anchor="middle" family="&quot;Microsoft YaHei&quot;, 微软雅黑, Arial" size="30px" weight="400" font-style="" opacity="1" y="-6.75" transform="rotate(0)"><tspan id="SvgjsTspan1119" dy="37.5" x="120.5"><tspan id="SvgjsTspan1120" style="">右旋</tspan></tspan><tspan id="SvgjsTspan1121" dy="37.5" x="120.5"><tspan id="SvgjsTspan1122" style="">（顺时针）</tspan></tspan></text></g></g><g id="SvgjsG1123" transform="translate(1305.0666847229004,160.875)"><path id="SvgjsPath1124" d="M 0 0L 51.2 0L 51.2 65.25L 0 65.25Z" stroke="none" fill="none"></path><g id="SvgjsG1125"><text id="SvgjsText1126" font-family="&quot;Microsoft YaHei&quot;, 微软雅黑, Arial" text-anchor="middle" font-size="30px" width="52px" fill="#323232" font-weight="400" align="middle" lineHeight="125%" anchor="middle" family="&quot;Microsoft YaHei&quot;, 微软雅黑, Arial" size="30px" weight="400" font-style="" opacity="1" y="-49.125" transform="rotate(0)"><tspan id="SvgjsTspan1127" dy="37.5" x="26"><tspan id="SvgjsTspan1128" style="">旋</tspan></tspan><tspan id="SvgjsTspan1129" dy="37.5" x="26"><tspan id="SvgjsTspan1130" style="">转</tspan></tspan><tspan id="SvgjsTspan1131" dy="37.5" x="26"><tspan id="SvgjsTspan1132" style="">中</tspan></tspan><tspan id="SvgjsTspan1133" dy="37.5" x="26"><tspan id="SvgjsTspan1134" style="">心</tspan></tspan></text></g></g><g id="SvgjsG1135"><path id="SvgjsPath1136" d="M1357.2618962598924 193.59767461000695C 1378.2578304763638 193.5 1392.2855180372146 202.5964049715626 1402.038261507231 219.25242352527908" stroke-dasharray="1.5,2.25" stroke="#323232" stroke-width="1.5" fill="none" marker-end="url(#SvgjsMarker1137)"></path></g><g id="SvgjsG1139" transform="translate(1352.2666778564453,42.5)"><path id="SvgjsPath1140" d="M 0 0L 102.2 0L 102.2 40L 0 40Z" stroke="none" fill="none"></path><g id="SvgjsG1141"><text id="SvgjsText1142" font-family="&quot;Microsoft YaHei&quot;, 微软雅黑, Arial" text-anchor="middle" font-size="30px" width="103px" fill="#323232" font-weight="400" align="middle" lineHeight="125%" anchor="middle" family="&quot;Microsoft YaHei&quot;, 微软雅黑, Arial" size="30px" weight="400" font-style="" opacity="1" y="-24.25" transform="rotate(0)"><tspan id="SvgjsTspan1143" dy="37.5" x="51.5"><tspan id="SvgjsTspan1144" style="">被旋转</tspan></tspan><tspan id="SvgjsTspan1145" dy="37.5" x="51.5"><tspan id="SvgjsTspan1146" style="">点</tspan></tspan></text></g></g><g id="SvgjsG1147"><path id="SvgjsPath1148" d="M1455.4665775397107 62.51367083854004C 1482.970679299864 62.50000000000001 1503.3345497957587 63.62688059445699 1520.086167566708 83.27028130263083" stroke-dasharray="1.5,2.25" stroke="#323232" stroke-width="1.5" fill="none" marker-end="url(#SvgjsMarker1149)"></path></g><g id="SvgjsG1151" transform="translate(1522.2021001180015,799.3825757575759)"><path id="SvgjsPath1152" d="M 0 35C 0 -11.667 70 -11.667 70 35C 70 81.667 0 81.667 0 35Z" stroke="rgba(255,255,255,1)" stroke-width="1.5" fill-opacity="1" fill="#000000"></path><g id="SvgjsG1153"><text id="SvgjsText1154" font-family="&quot;Microsoft YaHei&quot;, 微软雅黑, Arial" text-anchor="middle" font-size="40px" width="50px" fill="#ffffff" font-weight="400" align="middle" lineHeight="125%" anchor="middle" family="&quot;Microsoft YaHei&quot;, 微软雅黑, Arial" size="40px" weight="400" font-style="" opacity="1" y="0" transform="rotate(0)"><tspan id="SvgjsTspan1155" dy="50" x="35"><tspan id="SvgjsTspan1156" style="">9</tspan></tspan></text></g></g><g id="SvgjsG1157" transform="translate(1396.7021001180015,667.3825757575759)"><path id="SvgjsPath1158" d="M 0 35C 0 -11.667 70 -11.667 70 35C 70 81.667 0 81.667 0 35Z" stroke="rgba(255,255,255,1)" stroke-width="1.5" fill-opacity="1" fill="#e60c0c"></path><g id="SvgjsG1159"><text id="SvgjsText1160" font-family="&quot;Microsoft YaHei&quot;, 微软雅黑, Arial" text-anchor="middle" font-size="40px" width="50px" fill="#ffffff" font-weight="400" align="middle" lineHeight="125%" anchor="middle" family="&quot;Microsoft YaHei&quot;, 微软雅黑, Arial" size="40px" weight="400" font-style="" opacity="1" y="0" transform="rotate(0)"><tspan id="SvgjsTspan1161" dy="50" x="35"><tspan id="SvgjsTspan1162" style="">7</tspan></tspan></text></g></g><g id="SvgjsG1163" transform="translate(1272.7021001180015,799.3825757575759)"><path id="SvgjsPath1164" d="M 0 35C 0 -11.667 70 -11.667 70 35C 70 81.667 0 81.667 0 35Z" stroke="rgba(255,255,255,1)" stroke-width="1.5" fill-opacity="1" fill="#e60c0c"></path><g id="SvgjsG1165"><text id="SvgjsText1166" font-family="&quot;Microsoft YaHei&quot;, 微软雅黑, Arial" text-anchor="middle" font-size="40px" width="50px" fill="#ffffff" font-weight="400" align="middle" lineHeight="125%" anchor="middle" family="&quot;Microsoft YaHei&quot;, 微软雅黑, Arial" size="40px" weight="400" font-style="" opacity="1" y="0" transform="rotate(0)"><tspan id="SvgjsTspan1167" dy="50" x="35"><tspan id="SvgjsTspan1168" style="">2</tspan></tspan></text></g></g><g id="SvgjsG1169"><path id="SvgjsPath1170" d="M1407.5052907073439 729.4240584320022L1333.3826004618943 809.6601010474502" stroke="#323232" stroke-width="1.5" fill="none"></path></g><g id="SvgjsG1171"><path id="SvgjsPath1172" d="M1581.6807389087614 860.7243454883252L1632.8080477643905 920.8113715503943" stroke="#323232" stroke-width="1.5" fill="none"></path></g><g id="SvgjsG1173" transform="translate(1261.7021001180015,881.3825757575759)"><path id="SvgjsPath1174" d="M 0 0L 105.993 0L 121.993 16L 121.993 40L 0 40L 0 0Z" stroke="none" fill-opacity="1" fill="#fff7bc"></path><path id="SvgjsPath1175" d="M 105.993 0L 105.993 16L 121.993 16Z" stroke="none" fill-opacity="1" fill="#e4d089"></path><path id="SvgjsPath1176" d="M 0 0L 105.993 0L 121.993 16L 121.993 40L 0 40L 0 0Z" stroke="none" fill="none"></path><g id="SvgjsG1177"><text id="SvgjsText1178" font-family="&quot;Microsoft YaHei&quot;, 微软雅黑, Arial" text-anchor="middle" font-size="30px" width="102px" fill="#323232" font-weight="400" align="middle" lineHeight="125%" anchor="middle" family="&quot;Microsoft YaHei&quot;, 微软雅黑, Arial" size="30px" weight="400" font-style="" opacity="1" y="-5.75" transform="rotate(0)"><tspan id="SvgjsTspan1179" dy="37.5" x="61"><tspan id="SvgjsTspan1180" style="">新节点</tspan></tspan></text></g></g><g id="SvgjsG1181" transform="translate(1673.5521367390952,922.2159141771723)"><path id="SvgjsPath1182" d="M 0 0L 170.393 0L 186.393 16L 186.393 49L 0 49L 0 0Z" stroke="none" fill-opacity="1" fill="#fff7bc"></path><path id="SvgjsPath1183" d="M 170.393 0L 170.393 16L 186.393 16Z" stroke="none" fill-opacity="1" fill="#e4d089"></path><path id="SvgjsPath1184" d="M 0 0L 170.393 0L 186.393 16L 186.393 49L 0 49L 0 0Z" stroke="none" fill="none"></path><g id="SvgjsG1185"><text id="SvgjsText1186" font-family="&quot;Microsoft YaHei&quot;, 微软雅黑, Arial" text-anchor="middle" font-size="30px" width="167px" fill="#323232" font-weight="400" align="middle" lineHeight="125%" anchor="middle" family="&quot;Microsoft YaHei&quot;, 微软雅黑, Arial" size="30px" weight="400" font-style="" opacity="1" y="-1.25" transform="rotate(0)"><tspan id="SvgjsTspan1187" dy="37.5" x="93.5"><tspan id="SvgjsTspan1188" style="">原来的叔叔</tspan></tspan></text></g></g><g id="SvgjsG1189" transform="translate(1075.4354222615561,797.3825757575759)"><path id="SvgjsPath1190" d="M 0 37C 0 -12.333 161.6 -12.333 161.6 37C 161.6 86.333 0 86.333 0 37Z" stroke="rgba(33,41,48,1)" stroke-width="1.5" fill-opacity="1" fill="#569230"></path><g id="SvgjsG1191"><text id="SvgjsText1192" font-family="&quot;Microsoft YaHei&quot;, 微软雅黑, Arial" text-anchor="middle" font-size="30px" width="142px" fill="#ffffff" font-weight="400" align="middle" lineHeight="125%" anchor="middle" family="&quot;Microsoft YaHei&quot;, 微软雅黑, Arial" size="30px" weight="400" font-style="" opacity="1" y="11.25" transform="rotate(0)"><tspan id="SvgjsTspan1193" dy="37.5" x="81"><tspan id="SvgjsTspan1194" style="">cur_node</tspan></tspan></text></g></g><g id="SvgjsG1195"><path id="SvgjsPath1196" d="M1237.785422261556 834.3825757575759L1271.2021001180015 834.3825757575759" stroke-dasharray="7.5,3" stroke="#323232" stroke-width="1.5" fill="none" marker-end="url(#SvgjsMarker1197)"></path></g><g id="SvgjsG1199" transform="matrix(6.123233995736766e-17,1,-1,6.123233995736766e-17,1489.0311798383684,466.8984466264752)"><path id="SvgjsPath1200" d="M 0 19.8L 135.818 19.8L 135.818 0L 165.818 30L 135.818 60L 135.818 40.2L 0 40.2L 0 19.8Z" stroke="rgba(33,41,48,1)" stroke-width="1.5" fill-opacity="1" fill="#ffffff"></path><g id="SvgjsG1201"><text id="SvgjsText1202" font-family="&quot;Microsoft YaHei&quot;, 微软雅黑, Arial" text-anchor="middle" font-size="30px" width="166px" fill="#323232" font-weight="400" align="middle" lineHeight="125%" anchor="middle" family="&quot;Microsoft YaHei&quot;, 微软雅黑, Arial" size="30px" weight="400" font-style="" opacity="1" y="4.25" transform="rotate(0)"></text></g></g><g id="SvgjsG1203" transform="translate(1474.2615836261148,517.5260416666667)"><path id="SvgjsPath1204" d="M 0 0L 135.986 0L 135.986 40L 0 40Z" stroke="none" fill="none"></path><g id="SvgjsG1205"><text id="SvgjsText1206" font-family="&quot;Microsoft YaHei&quot;, 微软雅黑, Arial" text-anchor="middle" font-size="30px" width="136px" fill="#323232" font-weight="400" align="middle" lineHeight="125%" anchor="middle" family="&quot;Microsoft YaHei&quot;, 微软雅黑, Arial" size="30px" weight="400" font-style="" opacity="1" y="-5.75" transform="rotate(0)"><tspan id="SvgjsTspan1207" dy="37.5" x="68"><tspan id="SvgjsTspan1208" style="">旋转完成</tspan></tspan></text></g></g><g id="SvgjsG1209" transform="translate(1295.6312624613442,612.3825757575759)"><path id="SvgjsPath1210" d="M 0 0L 70.071 0L 70.071 65.25L 0 65.25Z" stroke="none" fill="none"></path><g id="SvgjsG1211"><text id="SvgjsText1212" font-family="&quot;Microsoft YaHei&quot;, 微软雅黑, Arial" text-anchor="middle" font-size="30px" width="71px" fill="#323232" font-weight="400" align="middle" lineHeight="125%" anchor="middle" family="&quot;Microsoft YaHei&quot;, 微软雅黑, Arial" size="30px" weight="400" font-style="" opacity="1" y="-11.625" transform="rotate(0)"><tspan id="SvgjsTspan1213" dy="37.5" x="35.5"><tspan id="SvgjsTspan1214" style="">旋转</tspan></tspan><tspan id="SvgjsTspan1215" dy="37.5" x="35.5"><tspan id="SvgjsTspan1216" style="">中心</tspan></tspan></text></g></g><g id="SvgjsG1217"><path id="SvgjsPath1218" d="M1366.6973185214486 645.1052503675828C 1387.69325273792 645.0075757575759 1401.7209402987708 654.1039807291385 1411.4736837687872 670.7599992828549" stroke-dasharray="1.5,2.25" stroke="#323232" stroke-width="1.5" fill="none" marker-end="url(#SvgjsMarker1219)"></path></g><g id="SvgjsG1221" transform="translate(1658.2021001180015,697.3825757575759)"><path id="SvgjsPath1222" d="M 0 0L 138.045 0L 138.045 40L 0 40Z" stroke="none" fill="none"></path><g id="SvgjsG1223"><text id="SvgjsText1224" font-family="&quot;Microsoft YaHei&quot;, 微软雅黑, Arial" text-anchor="middle" font-size="30px" width="139px" fill="#323232" font-weight="400" align="middle" lineHeight="125%" anchor="middle" family="&quot;Microsoft YaHei&quot;, 微软雅黑, Arial" size="30px" weight="400" font-style="" opacity="1" y="-5.75" transform="rotate(0)"><tspan id="SvgjsTspan1225" dy="37.5" x="69.5"><tspan id="SvgjsTspan1226" style="">被旋转点</tspan></tspan></text></g></g><g id="SvgjsG1227"><path id="SvgjsPath1228" d="M1455.835106116122 728.9889090524782L1529.8552211628548 811.3957545041048" stroke="#323232" stroke-width="1.5" fill="none"></path></g><g id="SvgjsG1229"><path id="SvgjsPath1230" d="M1657.2116701469445 717.5205919610889C 1610.196409060078 717.3825757575759 1619.7777515879236 779.8565677250868 1585.3896246693541 809.3772563980555" stroke-dasharray="1.5,2.25" stroke="#323232" stroke-width="1.5" fill="none" marker-end="url(#SvgjsMarker1231)"></path></g><g id="SvgjsG1233" transform="translate(1602.627078374227,805.6325795722731)"><path id="SvgjsPath1234" d="M 0 0L 218.818 0L 234.818 16L 234.818 49L 0 49L 0 0Z" stroke="none" fill-opacity="1" fill="#fff7bc"></path><path id="SvgjsPath1235" d="M 218.818 0L 218.818 16L 234.818 16Z" stroke="none" fill-opacity="1" fill="#e4d089"></path><path id="SvgjsPath1236" d="M 0 0L 218.818 0L 234.818 16L 234.818 49L 0 49L 0 0Z" stroke="none" fill="none"></path><g id="SvgjsG1237"><text id="SvgjsText1238" font-family="&quot;Microsoft YaHei&quot;, 微软雅黑, Arial" text-anchor="middle" font-size="30px" width="215px" fill="#323232" font-weight="400" align="middle" lineHeight="125%" anchor="middle" family="&quot;Microsoft YaHei&quot;, 微软雅黑, Arial" size="30px" weight="400" font-style="" opacity="1" y="-1.25" transform="rotate(0)"><tspan id="SvgjsTspan1239" dy="37.5" x="117.5"><tspan id="SvgjsTspan1240" style="">原来的爷爷节点</tspan></tspan></text></g></g><g id="SvgjsG1241" transform="translate(471.7666778564467,802.6325757575758)"><path id="SvgjsPath1242" d="M 0 35C 0 -11.667 70 -11.667 70 35C 70 81.667 0 81.667 0 35Z" stroke="rgba(255,255,255,1)" stroke-width="1.5" fill-opacity="1" fill="#e60c0c"></path><g id="SvgjsG1243"><text id="SvgjsText1244" font-family="&quot;Microsoft YaHei&quot;, 微软雅黑, Arial" text-anchor="middle" font-size="40px" width="50px" fill="#ffffff" font-weight="400" align="middle" lineHeight="125%" anchor="middle" family="&quot;Microsoft YaHei&quot;, 微软雅黑, Arial" size="40px" weight="400" font-style="" opacity="1" y="0" transform="rotate(0)"><tspan id="SvgjsTspan1245" dy="50" x="35"><tspan id="SvgjsTspan1246" style="">9</tspan></tspan></text></g></g><g id="SvgjsG1247" transform="translate(346.2666778564476,670.6325757575758)"><path id="SvgjsPath1248" d="M 0 35C 0 -11.667 70 -11.667 70 35C 70 81.667 0 81.667 0 35Z" stroke="rgba(255,255,255,1)" stroke-width="1.5" fill-opacity="1" fill="#000000"></path><g id="SvgjsG1249"><text id="SvgjsText1250" font-family="&quot;Microsoft YaHei&quot;, 微软雅黑, Arial" text-anchor="middle" font-size="40px" width="50px" fill="#ffffff" font-weight="400" align="middle" lineHeight="125%" anchor="middle" family="&quot;Microsoft YaHei&quot;, 微软雅黑, Arial" size="40px" weight="400" font-style="" opacity="1" y="0" transform="rotate(0)"><tspan id="SvgjsTspan1251" dy="50" x="35"><tspan id="SvgjsTspan1252" style="">7</tspan></tspan></text></g></g><g id="SvgjsG1253" transform="translate(222.26667785644577,802.6325757575758)"><path id="SvgjsPath1254" d="M 0 35C 0 -11.667 70 -11.667 70 35C 70 81.667 0 81.667 0 35Z" stroke="rgba(255,255,255,1)" stroke-width="1.5" fill-opacity="1" fill="#e60c0c"></path><g id="SvgjsG1255"><text id="SvgjsText1256" font-family="&quot;Microsoft YaHei&quot;, 微软雅黑, Arial" text-anchor="middle" font-size="40px" width="50px" fill="#ffffff" font-weight="400" align="middle" lineHeight="125%" anchor="middle" family="&quot;Microsoft YaHei&quot;, 微软雅黑, Arial" size="40px" weight="400" font-style="" opacity="1" y="0" transform="rotate(0)"><tspan id="SvgjsTspan1257" dy="50" x="35"><tspan id="SvgjsTspan1258" style="">2</tspan></tspan></text></g></g><g id="SvgjsG1259"><path id="SvgjsPath1260" d="M357.06986844579006 732.6740584320021L282.94717820033856 812.9101010474501" stroke="#323232" stroke-width="1.5" fill="none"></path></g><g id="SvgjsG1261"><path id="SvgjsPath1262" d="M531.2864783526442 863.9365906814771L587.5314594740731 920.8491263572422" stroke="#323232" stroke-width="1.5" fill="none"></path></g><g id="SvgjsG1263" transform="translate(211.26667785644577,884.6325757575758)"><path id="SvgjsPath1264" d="M 0 0L 98.929 0L 114.929 16L 114.929 40L 0 40L 0 0Z" stroke="none" fill-opacity="1" fill="#fff7bc"></path><path id="SvgjsPath1265" d="M 98.929 0L 98.929 16L 114.929 16Z" stroke="none" fill-opacity="1" fill="#e4d089"></path><path id="SvgjsPath1266" d="M 0 0L 98.929 0L 114.929 16L 114.929 40L 0 40L 0 0Z" stroke="none" fill="none"></path><g id="SvgjsG1267"><text id="SvgjsText1268" font-family="&quot;Microsoft YaHei&quot;, 微软雅黑, Arial" text-anchor="middle" font-size="30px" width="95px" fill="#323232" font-weight="400" align="middle" lineHeight="125%" anchor="middle" family="&quot;Microsoft YaHei&quot;, 微软雅黑, Arial" size="30px" weight="400" font-style="" opacity="1" y="-5.75" transform="rotate(0)"><tspan id="SvgjsTspan1269" dy="37.5" x="57.5"><tspan id="SvgjsTspan1270" style="">新节点</tspan></tspan></text></g></g><g id="SvgjsG1271" transform="translate(632.2666778564467,932.6325757575759)"><path id="SvgjsPath1272" d="M 0 0L 108.5 0L 124.5 16L 124.5 31.5L 0 31.5L 0 0Z" stroke="none" fill-opacity="1" fill="#fff7bc"></path><path id="SvgjsPath1273" d="M 108.5 0L 108.5 16L 124.5 16Z" stroke="none" fill-opacity="1" fill="#e4d089"></path><path id="SvgjsPath1274" d="M 0 0L 108.5 0L 124.5 16L 124.5 31.5L 0 31.5L 0 0Z" stroke="none" fill="none"></path><g id="SvgjsG1275"><text id="SvgjsText1276" font-family="&quot;Microsoft YaHei&quot;, 微软雅黑, Arial" text-anchor="middle" font-size="30px" width="105px" fill="#323232" font-weight="400" align="middle" lineHeight="125%" anchor="middle" family="&quot;Microsoft YaHei&quot;, 微软雅黑, Arial" size="30px" weight="400" font-style="" opacity="1" y="-10" transform="rotate(0)"><tspan id="SvgjsTspan1277" dy="37.5" x="62.5"><tspan id="SvgjsTspan1278" style="">它叔叔</tspan></tspan></text></g></g><g id="SvgjsG1279" transform="translate(25,800.6325757575758)"><path id="SvgjsPath1280" d="M 0 37C 0 -12.333 161.6 -12.333 161.6 37C 161.6 86.333 0 86.333 0 37Z" stroke="rgba(33,41,48,1)" stroke-width="1.5" fill-opacity="1" fill="#569230"></path><g id="SvgjsG1281"><text id="SvgjsText1282" font-family="&quot;Microsoft YaHei&quot;, 微软雅黑, Arial" text-anchor="middle" font-size="30px" width="142px" fill="#ffffff" font-weight="400" align="middle" lineHeight="125%" anchor="middle" family="&quot;Microsoft YaHei&quot;, 微软雅黑, Arial" size="30px" weight="400" font-style="" opacity="1" y="11.25" transform="rotate(0)"><tspan id="SvgjsTspan1283" dy="37.5" x="81"><tspan id="SvgjsTspan1284" style="">cur_node</tspan></tspan></text></g></g><g id="SvgjsG1285"><path id="SvgjsPath1286" d="M187.3499999999999 837.6325757575758L220.76667785644577 837.6325757575758" stroke-dasharray="7.5,3" stroke="#323232" stroke-width="1.5" fill="none" marker-end="url(#SvgjsMarker1287)"></path></g><g id="SvgjsG1289" transform="translate(230.2474212646485,583.32958984375)"><path id="SvgjsPath1290" d="M 0 0L 81.019 0L 81.019 94.303L 0 94.303Z" stroke="none" fill="none"></path><g id="SvgjsG1291"><text id="SvgjsText1292" font-family="&quot;Microsoft YaHei&quot;, 微软雅黑, Arial" text-anchor="middle" font-size="30px" width="82px" fill="#323232" font-weight="400" align="middle" lineHeight="125%" anchor="middle" family="&quot;Microsoft YaHei&quot;, 微软雅黑, Arial" size="30px" weight="400" font-style="" opacity="1" y="2.9014999999999986" transform="rotate(0)"><tspan id="SvgjsTspan1293" dy="37.5" x="41"><tspan id="SvgjsTspan1294" style="">旋转</tspan></tspan><tspan id="SvgjsTspan1295" dy="37.5" x="41"><tspan id="SvgjsTspan1296" style="">中心</tspan></tspan></text></g></g><g id="SvgjsG1297"><path id="SvgjsPath1298" d="M312.2558312025059 630.6279693486425C 338.76769956472816 630.481082800663 348.44772566893846 652.6311011154431 361.2419937314305 673.8773560025716" stroke-dasharray="1.5,2.25" stroke="#323232" stroke-width="1.5" fill="none" marker-end="url(#SvgjsMarker1299)"></path></g><g id="SvgjsG1301" transform="translate(607.7666778564467,700.6325757575758)"><path id="SvgjsPath1302" d="M 0 0L 149 0L 149 40L 0 40Z" stroke="none" fill="none"></path><g id="SvgjsG1303"><text id="SvgjsText1304" font-family="&quot;Microsoft YaHei&quot;, 微软雅黑, Arial" text-anchor="middle" font-size="30px" width="149px" fill="#323232" font-weight="400" align="middle" lineHeight="125%" anchor="middle" family="&quot;Microsoft YaHei&quot;, 微软雅黑, Arial" size="30px" weight="400" font-style="" opacity="1" y="-5.75" transform="rotate(0)"><tspan id="SvgjsTspan1305" dy="37.5" x="74.5"><tspan id="SvgjsTspan1306" style="">被旋转点</tspan></tspan></text></g></g><g id="SvgjsG1307"><path id="SvgjsPath1308" d="M405.3996838545683 732.2389090524783L479.41979890129994 814.6457545041047" stroke="#323232" stroke-width="1.5" fill="none"></path></g><g id="SvgjsG1309"><path id="SvgjsPath1310" d="M606.7762478853897 720.7705919610888C 559.7609867985233 720.6325757575758 569.342329326369 783.1065677250867 534.9542024077996 812.6272563980554" stroke-dasharray="1.5,2.25" stroke="#323232" stroke-width="1.5" fill="none" marker-end="url(#SvgjsMarker1311)"></path></g><g id="SvgjsG1313" transform="translate(552.1916561126725,810.6325757575758)"><path id="SvgjsPath1314" d="M 0 0L 218.004 0L 234.004 16L 234.004 45.5L 0 45.5L 0 0Z" stroke="none" fill-opacity="1" fill="#fff7bc"></path><path id="SvgjsPath1315" d="M 218.004 0L 218.004 16L 234.004 16Z" stroke="none" fill-opacity="1" fill="#e4d089"></path><path id="SvgjsPath1316" d="M 0 0L 218.004 0L 234.004 16L 234.004 45.5L 0 45.5L 0 0Z" stroke="none" fill="none"></path><g id="SvgjsG1317"><text id="SvgjsText1318" font-family="&quot;Microsoft YaHei&quot;, 微软雅黑, Arial" text-anchor="middle" font-size="30px" width="215px" fill="#323232" font-weight="400" align="middle" lineHeight="125%" anchor="middle" family="&quot;Microsoft YaHei&quot;, 微软雅黑, Arial" size="30px" weight="400" font-style="" opacity="1" y="-3" transform="rotate(0)"><tspan id="SvgjsTspan1319" dy="37.5" x="117.5"><tspan id="SvgjsTspan1320" style="">原来的祖父节点</tspan></tspan></text></g></g><g id="SvgjsG1321" transform="matrix(-1,1.2246467991473532e-16,-1.2246467991473532e-16,-1,1025.1434834798179,787.5037841796875)"><path id="SvgjsPath1322" d="M 0 19.8L 186.933 19.8L 186.933 0L 216.933 30L 186.933 60L 186.933 40.2L 0 40.2L 0 19.8Z" stroke="rgba(33,41,48,1)" stroke-width="1.5" fill-opacity="1" fill="#ffffff"></path><g id="SvgjsG1323"><text id="SvgjsText1324" font-family="&quot;Microsoft YaHei&quot;, 微软雅黑, Arial" text-anchor="middle" font-size="13px" width="217px" fill="#323232" font-weight="400" align="middle" lineHeight="125%" anchor="middle" family="&quot;Microsoft YaHei&quot;, 微软雅黑, Arial" size="13px" weight="400" font-style="" opacity="1" y="19.375" transform="rotate(0)"></text></g></g><g id="SvgjsG1325" transform="translate(866.8768304189048,691.5871313846474)"><path id="SvgjsPath1326" d="M 0 0L 100 0L 100 40L 0 40Z" stroke="none" fill="none"></path><g id="SvgjsG1327"><text id="SvgjsText1328" font-family="&quot;Microsoft YaHei&quot;, 微软雅黑, Arial" text-anchor="middle" font-size="30px" width="100px" fill="#323232" font-weight="400" align="middle" lineHeight="125%" anchor="middle" family="&quot;Microsoft YaHei&quot;, 微软雅黑, Arial" size="30px" weight="400" font-style="" opacity="1" y="-5.75" transform="rotate(0)"><tspan id="SvgjsTspan1329" dy="37.5" x="50"><tspan id="SvgjsTspan1330" style="">变色</tspan></tspan></text></g></g><g id="SvgjsG1331" transform="translate(768.5666847229004,787.844696969697)"><path id="SvgjsPath1332" d="M 0 0L 290 0L 290 75L 0 75Z" stroke="none" fill="none"></path><g id="SvgjsG1333"><text id="SvgjsText1334" font-family="&quot;Microsoft YaHei&quot;, 微软雅黑, Arial" text-anchor="middle" font-size="30px" width="290px" fill="#323232" font-weight="400" align="middle" lineHeight="125%" anchor="middle" family="&quot;Microsoft YaHei&quot;, 微软雅黑, Arial" size="30px" weight="400" font-style="" opacity="1" y="-6.75" transform="rotate(0)"><tspan id="SvgjsTspan1335" dy="37.5" x="145"><tspan id="SvgjsTspan1336" style="">旋转中心和</tspan></tspan><tspan id="SvgjsTspan1337" dy="37.5" x="145"><tspan id="SvgjsTspan1338" style="">被旋转点变色</tspan></tspan></text></g></g><g id="SvgjsG1339" transform="translate(560.1999969482422,215.875)"><path id="SvgjsPath1340" d="M 0 4Q 0 0 4 0L 57.333 0Q 61.333 0 61.333 4L 61.333 50Q 61.333 54 57.333 54L 4 54Q 0 54 0 50Z" stroke="rgba(33,41,48,1)" stroke-width="1.5" fill-opacity="1" fill="#000000"></path><g id="SvgjsG1341"><text id="SvgjsText1342" font-family="&quot;Microsoft YaHei&quot;, 微软雅黑, Arial" text-anchor="middle" font-size="13px" width="42px" fill="#323232" font-weight="400" align="middle" lineHeight="125%" anchor="middle" family="&quot;Microsoft YaHei&quot;, 微软雅黑, Arial" size="13px" weight="400" font-style="" opacity="1" y="16.375" transform="rotate(0)"></text></g></g><g id="SvgjsG1343" transform="translate(1633.8510494232178,215.875)"><path id="SvgjsPath1344" d="M 0 4Q 0 0 4 0L 57.333 0Q 61.333 0 61.333 4L 61.333 50Q 61.333 54 57.333 54L 4 54Q 0 54 0 50Z" stroke="rgba(33,41,48,1)" stroke-width="1.5" fill-opacity="1" fill="#000000"></path><g id="SvgjsG1345"><text id="SvgjsText1346" font-family="&quot;Microsoft YaHei&quot;, 微软雅黑, Arial" text-anchor="middle" font-size="13px" width="42px" fill="#323232" font-weight="400" align="middle" lineHeight="125%" anchor="middle" family="&quot;Microsoft YaHei&quot;, 微软雅黑, Arial" size="13px" weight="400" font-style="" opacity="1" y="16.375" transform="rotate(0)"></text></g></g><g id="SvgjsG1347" transform="translate(1602.627078374227,921.3825757575759)"><path id="SvgjsPath1348" d="M 0 4Q 0 0 4 0L 57.333 0Q 61.333 0 61.333 4L 61.333 50Q 61.333 54 57.333 54L 4 54Q 0 54 0 50Z" stroke="rgba(33,41,48,1)" stroke-width="1.5" fill-opacity="1" fill="#000000"></path><g id="SvgjsG1349"><text id="SvgjsText1350" font-family="&quot;Microsoft YaHei&quot;, 微软雅黑, Arial" text-anchor="middle" font-size="13px" width="42px" fill="#323232" font-weight="400" align="middle" lineHeight="125%" anchor="middle" family="&quot;Microsoft YaHei&quot;, 微软雅黑, Arial" size="13px" weight="400" font-style="" opacity="1" y="16.375" transform="rotate(0)"></text></g></g><g id="SvgjsG1351" transform="translate(557.3916517893474,921.3825757575759)"><path id="SvgjsPath1352" d="M 0 4Q 0 0 4 0L 57.333 0Q 61.333 0 61.333 4L 61.333 50Q 61.333 54 57.333 54L 4 54Q 0 54 0 50Z" stroke="rgba(33,41,48,1)" stroke-width="1.5" fill-opacity="1" fill="#000000"></path><g id="SvgjsG1353"><text id="SvgjsText1354" font-family="&quot;Microsoft YaHei&quot;, 微软雅黑, Arial" text-anchor="middle" font-size="13px" width="42px" fill="#323232" font-weight="400" align="middle" lineHeight="125%" anchor="middle" family="&quot;Microsoft YaHei&quot;, 微软雅黑, Arial" size="13px" weight="400" font-style="" opacity="1" y="16.375" transform="rotate(0)"></text></g></g><g id="SvgjsG1355"></g></svg>