<svg id="SvgjsSvg1006" width="1636.8416722615561" height="998.5535975864951" xmlns="http://www.w3.org/2000/svg" version="1.1" xmlns:xlink="http://www.w3.org/1999/xlink" xmlns:svgjs="http://svgjs.com/svgjs"><defs id="SvgjsDefs1007"><pattern patternUnits="userSpaceOnUse" id="pattern_mark_0" width="300" height="300"><text x="150" y="100" fill="rgba(229,229,229,0.8)" font-size="18" transform="rotate(-45, 150, 150)" style="dominant-baseline: middle; text-anchor: middle;"></text></pattern><pattern patternUnits="userSpaceOnUse" id="pattern_mark_1" width="300" height="300"><text x="150" y="200" fill="rgba(229,229,229,0.8)" font-size="18" transform="rotate(-45, 150, 150)" style="dominant-baseline: middle; text-anchor: middle;"></text></pattern><marker id="SvgjsMarker1199" markerWidth="16" markerHeight="16" refX="11" refY="8" viewBox="0 0 16 16" orient="auto" markerUnits="userSpaceOnUse" stroke-dasharray="0,0"><path id="SvgjsPath1200" d="M0,0 L10,8 L0,16" fill="none" stroke="#323232" stroke-width="1.5"></path></marker><marker id="SvgjsMarker1209" markerWidth="16" markerHeight="16" refX="11" refY="8" viewBox="0 0 16 16" orient="auto" markerUnits="userSpaceOnUse" stroke-dasharray="0,0"><path id="SvgjsPath1210" d="M0,0 L10,8 L0,16" fill="none" stroke="#323232" stroke-width="1.5"></path></marker><marker id="SvgjsMarker1295" markerWidth="16" markerHeight="16" refX="11" refY="8" viewBox="0 0 16 16" orient="auto" markerUnits="userSpaceOnUse" stroke-dasharray="0,0"><path id="SvgjsPath1296" d="M0,0 L10,8 L0,16" fill="none" stroke="#323232" stroke-width="1.5"></path></marker></defs><rect id="svgbackgroundid" width="1636.8416722615561" height="998.5535975864951" fill="transparent"></rect><rect id="SvgjsRect1009" width="1636.8416722615561" height="998.5535975864951" fill="url(#pattern_mark_0)"></rect><rect id="SvgjsRect1010" width="1636.8416722615561" height="998.5535975864951" fill="url(#pattern_mark_1)"></rect><g id="SvgjsG1011" transform="translate(381,37.714311872209805)"><path id="SvgjsPath1012" d="M 0 35C 0 -11.667 70 -11.667 70 35C 70 81.667 0 81.667 0 35Z" stroke="rgba(255,255,255,1)" stroke-width="1.5" fill-opacity="1" fill="#000000"></path><g id="SvgjsG1013"><text id="SvgjsText1014" font-family="&quot;Microsoft YaHei&quot;, 微软雅黑, Arial" text-anchor="middle" font-size="40px" width="50px" fill="#ffffff" font-weight="400" align="middle" lineHeight="125%" anchor="middle" family="&quot;Microsoft YaHei&quot;, 微软雅黑, Arial" size="40px" weight="400" font-style="" opacity="1" y="0" transform="rotate(0)"><tspan id="SvgjsTspan1015" dy="50" x="35"><tspan id="SvgjsTspan1016" style="">9</tspan></tspan></text></g></g><g id="SvgjsG1017" transform="translate(258,177.7143118722098)"><path id="SvgjsPath1018" d="M 0 35C 0 -11.667 70 -11.667 70 35C 70 81.667 0 81.667 0 35Z" stroke="rgba(255,255,255,1)" stroke-width="1.5" fill-opacity="1" fill="#e60c0c"></path><g id="SvgjsG1019"><text id="SvgjsText1020" font-family="&quot;Microsoft YaHei&quot;, 微软雅黑, Arial" text-anchor="middle" font-size="40px" width="50px" fill="#ffffff" font-weight="400" align="middle" lineHeight="125%" anchor="middle" family="&quot;Microsoft YaHei&quot;, 微软雅黑, Arial" size="40px" weight="400" font-style="" opacity="1" y="0" transform="rotate(0)"><tspan id="SvgjsTspan1021" dy="50" x="35"><tspan id="SvgjsTspan1022" style="">7</tspan></tspan></text></g></g><g id="SvgjsG1023" transform="translate(487,177.7143118722098)"><path id="SvgjsPath1024" d="M 0 35C 0 -11.667 70 -11.667 70 35C 70 81.667 0 81.667 0 35Z" stroke="rgba(255,255,255,1)" stroke-width="1.5" fill-opacity="1" fill="#e60c0c"></path><g id="SvgjsG1025"><text id="SvgjsText1026" font-family="&quot;Microsoft YaHei&quot;, 微软雅黑, Arial" text-anchor="middle" font-size="40px" width="50px" fill="#ffffff" font-weight="400" align="middle" lineHeight="125%" anchor="middle" family="&quot;Microsoft YaHei&quot;, 微软雅黑, Arial" size="40px" weight="400" font-style="" opacity="1" y="0" transform="rotate(0)"><tspan id="SvgjsTspan1027" dy="50" x="35"><tspan id="SvgjsTspan1028" style="">10</tspan></tspan></text></g></g><g id="SvgjsG1029" transform="translate(134,309.7143118722098)"><path id="SvgjsPath1030" d="M 0 35C 0 -11.667 70 -11.667 70 35C 70 81.667 0 81.667 0 35Z" stroke="rgba(255,255,255,1)" stroke-width="1.5" fill-opacity="1" fill="#e60c0c"></path><g id="SvgjsG1031"><text id="SvgjsText1032" font-family="&quot;Microsoft YaHei&quot;, 微软雅黑, Arial" text-anchor="middle" font-size="40px" width="50px" fill="#ffffff" font-weight="400" align="middle" lineHeight="125%" anchor="middle" family="&quot;Microsoft YaHei&quot;, 微软雅黑, Arial" size="40px" weight="400" font-style="" opacity="1" y="0" transform="rotate(0)"><tspan id="SvgjsTspan1033" dy="50" x="35"><tspan id="SvgjsTspan1034" style="">2</tspan></tspan></text></g></g><g id="SvgjsG1035"><path id="SvgjsPath1036" d="M394.0751403114397 100.45273908925563L314.9248596885603 184.975884655164" stroke="#323232" stroke-width="1.5" fill="none"></path></g><g id="SvgjsG1037"><path id="SvgjsPath1038" d="M268.8031905893425 239.75579454663608L194.68050034389236 319.9918371620842" stroke="#323232" stroke-width="1.5" fill="none"></path></g><g id="SvgjsG1039"><path id="SvgjsPath1040" d="M440.531995300441 99.00599305980867L521.4606128804824 177.1931962081788" stroke="#323232" stroke-width="1.5" fill="none"></path></g><g id="SvgjsG1041" transform="translate(25,330.7143118722098)"><path id="SvgjsPath1042" d="M 0 0L 84 0L 100 16L 100 40L 0 40L 0 0Z" stroke="none" fill-opacity="1" fill="#fff7bc"></path><path id="SvgjsPath1043" d="M 84 0L 84 16L 100 16Z" stroke="none" fill-opacity="1" fill="#e4d089"></path><path id="SvgjsPath1044" d="M 0 0L 84 0L 100 16L 100 40L 0 40L 0 0Z" stroke="none" fill="none"></path><g id="SvgjsG1045"><text id="SvgjsText1046" font-family="&quot;Microsoft YaHei&quot;, 微软雅黑, Arial" text-anchor="middle" font-size="20px" width="80px" fill="#323232" font-weight="400" align="middle" lineHeight="125%" anchor="middle" family="&quot;Microsoft YaHei&quot;, 微软雅黑, Arial" size="20px" weight="400" font-style="" opacity="1" y="2" transform="rotate(0)"><tspan id="SvgjsTspan1047" dy="25" x="50"><tspan id="SvgjsTspan1048" style="">新节点</tspan></tspan></text></g></g><g id="SvgjsG1049" transform="translate(569,196.9643118722098)"><path id="SvgjsPath1050" d="M 0 0L 84 0L 100 16L 100 31.5L 0 31.5L 0 0Z" stroke="none" fill-opacity="1" fill="#fff7bc"></path><path id="SvgjsPath1051" d="M 84 0L 84 16L 100 16Z" stroke="none" fill-opacity="1" fill="#e4d089"></path><path id="SvgjsPath1052" d="M 0 0L 84 0L 100 16L 100 31.5L 0 31.5L 0 0Z" stroke="none" fill="none"></path><g id="SvgjsG1053"><text id="SvgjsText1054" font-family="&quot;Microsoft YaHei&quot;, 微软雅黑, Arial" text-anchor="middle" font-size="20px" width="80px" fill="#323232" font-weight="400" align="middle" lineHeight="125%" anchor="middle" family="&quot;Microsoft YaHei&quot;, 微软雅黑, Arial" size="20px" weight="400" font-style="" opacity="1" y="-2.25" transform="rotate(0)"><tspan id="SvgjsTspan1055" dy="25" x="50"><tspan id="SvgjsTspan1056" style="">它叔叔</tspan></tspan></text></g></g><g id="SvgjsG1057" transform="translate(1203.5,37.714311872209805)"><path id="SvgjsPath1058" d="M 0 35C 0 -11.667 70 -11.667 70 35C 70 81.667 0 81.667 0 35Z" stroke="rgba(255,255,255,1)" stroke-width="1.5" fill-opacity="1" fill="#e60c0c"></path><g id="SvgjsG1059"><text id="SvgjsText1060" font-family="&quot;Microsoft YaHei&quot;, 微软雅黑, Arial" text-anchor="middle" font-size="40px" width="50px" fill="#ffffff" font-weight="400" align="middle" lineHeight="125%" anchor="middle" family="&quot;Microsoft YaHei&quot;, 微软雅黑, Arial" size="40px" weight="400" font-style="" opacity="1" y="0" transform="rotate(0)"><tspan id="SvgjsTspan1061" dy="50" x="35"><tspan id="SvgjsTspan1062" style="">9</tspan></tspan></text></g></g><g id="SvgjsG1063" transform="translate(1080.5,177.7143118722098)"><path id="SvgjsPath1064" d="M 0 35C 0 -11.667 70 -11.667 70 35C 70 81.667 0 81.667 0 35Z" stroke="rgba(255,255,255,1)" stroke-width="1.5" fill-opacity="1" fill="#000000"></path><g id="SvgjsG1065"><text id="SvgjsText1066" font-family="&quot;Microsoft YaHei&quot;, 微软雅黑, Arial" text-anchor="middle" font-size="40px" width="50px" fill="#ffffff" font-weight="400" align="middle" lineHeight="125%" anchor="middle" family="&quot;Microsoft YaHei&quot;, 微软雅黑, Arial" size="40px" weight="400" font-style="" opacity="1" y="0" transform="rotate(0)"><tspan id="SvgjsTspan1067" dy="50" x="35"><tspan id="SvgjsTspan1068" style="">7</tspan></tspan></text></g></g><g id="SvgjsG1069" transform="translate(1309.5,177.7143118722098)"><path id="SvgjsPath1070" d="M 0 35C 0 -11.667 70 -11.667 70 35C 70 81.667 0 81.667 0 35Z" stroke="rgba(255,255,255,1)" stroke-width="1.5" fill-opacity="1" fill="#000000"></path><g id="SvgjsG1071"><text id="SvgjsText1072" font-family="&quot;Microsoft YaHei&quot;, 微软雅黑, Arial" text-anchor="middle" font-size="40px" width="50px" fill="#ffffff" font-weight="400" align="middle" lineHeight="125%" anchor="middle" family="&quot;Microsoft YaHei&quot;, 微软雅黑, Arial" size="40px" weight="400" font-style="" opacity="1" y="0" transform="rotate(0)"><tspan id="SvgjsTspan1073" dy="50" x="35"><tspan id="SvgjsTspan1074" style="">10</tspan></tspan></text></g></g><g id="SvgjsG1075" transform="translate(956.5,309.7143118722098)"><path id="SvgjsPath1076" d="M 0 35C 0 -11.667 70 -11.667 70 35C 70 81.667 0 81.667 0 35Z" stroke="rgba(255,255,255,1)" stroke-width="1.5" fill-opacity="1" fill="#e60c0c"></path><g id="SvgjsG1077"><text id="SvgjsText1078" font-family="&quot;Microsoft YaHei&quot;, 微软雅黑, Arial" text-anchor="middle" font-size="40px" width="50px" fill="#ffffff" font-weight="400" align="middle" lineHeight="125%" anchor="middle" family="&quot;Microsoft YaHei&quot;, 微软雅黑, Arial" size="40px" weight="400" font-style="" opacity="1" y="0" transform="rotate(0)"><tspan id="SvgjsTspan1079" dy="50" x="35"><tspan id="SvgjsTspan1080" style="">2</tspan></tspan></text></g></g><g id="SvgjsG1081"><path id="SvgjsPath1082" d="M1216.5751403114396 100.45273908925563L1137.4248596885604 184.975884655164" stroke="#323232" stroke-width="1.5" fill="none"></path></g><g id="SvgjsG1083"><path id="SvgjsPath1084" d="M1091.3031905893424 239.75579454663608L1017.1805003438924 319.9918371620842" stroke="#323232" stroke-width="1.5" fill="none"></path></g><g id="SvgjsG1085"><path id="SvgjsPath1086" d="M1263.0319953004412 99.00599305980867L1343.9606128804824 177.1931962081788" stroke="#323232" stroke-width="1.5" fill="none"></path></g><g id="SvgjsG1087" transform="translate(847.5,330.7143118722098)"><path id="SvgjsPath1088" d="M 0 0L 84 0L 100 16L 100 40L 0 40L 0 0Z" stroke="none" fill-opacity="1" fill="#fff7bc"></path><path id="SvgjsPath1089" d="M 84 0L 84 16L 100 16Z" stroke="none" fill-opacity="1" fill="#e4d089"></path><path id="SvgjsPath1090" d="M 0 0L 84 0L 100 16L 100 40L 0 40L 0 0Z" stroke="none" fill="none"></path><g id="SvgjsG1091"><text id="SvgjsText1092" font-family="&quot;Microsoft YaHei&quot;, 微软雅黑, Arial" text-anchor="middle" font-size="20px" width="80px" fill="#323232" font-weight="400" align="middle" lineHeight="125%" anchor="middle" family="&quot;Microsoft YaHei&quot;, 微软雅黑, Arial" size="20px" weight="400" font-style="" opacity="1" y="2" transform="rotate(0)"><tspan id="SvgjsTspan1093" dy="25" x="50"><tspan id="SvgjsTspan1094" style="">新节点</tspan></tspan></text></g></g><g id="SvgjsG1095" transform="translate(1391.5,196.9643118722098)"><path id="SvgjsPath1096" d="M 0 0L 84 0L 100 16L 100 31.5L 0 31.5L 0 0Z" stroke="none" fill-opacity="1" fill="#fff7bc"></path><path id="SvgjsPath1097" d="M 84 0L 84 16L 100 16Z" stroke="none" fill-opacity="1" fill="#e4d089"></path><path id="SvgjsPath1098" d="M 0 0L 84 0L 100 16L 100 31.5L 0 31.5L 0 0Z" stroke="none" fill="none"></path><g id="SvgjsG1099"><text id="SvgjsText1100" font-family="&quot;Microsoft YaHei&quot;, 微软雅黑, Arial" text-anchor="middle" font-size="20px" width="80px" fill="#323232" font-weight="400" align="middle" lineHeight="125%" anchor="middle" family="&quot;Microsoft YaHei&quot;, 微软雅黑, Arial" size="20px" weight="400" font-style="" opacity="1" y="-2.25" transform="rotate(0)"><tspan id="SvgjsTspan1101" dy="25" x="50"><tspan id="SvgjsTspan1102" style="">它叔叔</tspan></tspan></text></g></g><g id="SvgjsG1103" transform="translate(1301.9916610717773,608.4285975864956)"><path id="SvgjsPath1104" d="M 0 35C 0 -11.667 70 -11.667 70 35C 70 81.667 0 81.667 0 35Z" stroke="rgba(255,255,255,1)" stroke-width="1.5" fill-opacity="1" fill="#e60c0c"></path><g id="SvgjsG1105"><text id="SvgjsText1106" font-family="&quot;Microsoft YaHei&quot;, 微软雅黑, Arial" text-anchor="middle" font-size="40px" width="50px" fill="#ffffff" font-weight="400" align="middle" lineHeight="125%" anchor="middle" family="&quot;Microsoft YaHei&quot;, 微软雅黑, Arial" size="40px" weight="400" font-style="" opacity="1" y="0" transform="rotate(0)"><tspan id="SvgjsTspan1107" dy="50" x="35"><tspan id="SvgjsTspan1108" style="">9</tspan></tspan></text></g></g><g id="SvgjsG1109" transform="translate(1178.9916610717773,748.4285975864956)"><path id="SvgjsPath1110" d="M 0 35C 0 -11.667 70 -11.667 70 35C 70 81.667 0 81.667 0 35Z" stroke="rgba(255,255,255,1)" stroke-width="1.5" fill-opacity="1" fill="#000000"></path><g id="SvgjsG1111"><text id="SvgjsText1112" font-family="&quot;Microsoft YaHei&quot;, 微软雅黑, Arial" text-anchor="middle" font-size="40px" width="50px" fill="#ffffff" font-weight="400" align="middle" lineHeight="125%" anchor="middle" family="&quot;Microsoft YaHei&quot;, 微软雅黑, Arial" size="40px" weight="400" font-style="" opacity="1" y="0" transform="rotate(0)"><tspan id="SvgjsTspan1113" dy="50" x="35"><tspan id="SvgjsTspan1114" style="">7</tspan></tspan></text></g></g><g id="SvgjsG1115" transform="translate(1407.9916610717773,748.4285975864956)"><path id="SvgjsPath1116" d="M 0 35C 0 -11.667 70 -11.667 70 35C 70 81.667 0 81.667 0 35Z" stroke="rgba(255,255,255,1)" stroke-width="1.5" fill-opacity="1" fill="#000000"></path><g id="SvgjsG1117"><text id="SvgjsText1118" font-family="&quot;Microsoft YaHei&quot;, 微软雅黑, Arial" text-anchor="middle" font-size="40px" width="50px" fill="#ffffff" font-weight="400" align="middle" lineHeight="125%" anchor="middle" family="&quot;Microsoft YaHei&quot;, 微软雅黑, Arial" size="40px" weight="400" font-style="" opacity="1" y="0" transform="rotate(0)"><tspan id="SvgjsTspan1119" dy="50" x="35"><tspan id="SvgjsTspan1120" style="">10</tspan></tspan></text></g></g><g id="SvgjsG1121" transform="translate(1054.9916610717773,880.428597586496)"><path id="SvgjsPath1122" d="M 0 35C 0 -11.667 70 -11.667 70 35C 70 81.667 0 81.667 0 35Z" stroke="rgba(255,255,255,1)" stroke-width="1.5" fill-opacity="1" fill="#e60c0c"></path><g id="SvgjsG1123"><text id="SvgjsText1124" font-family="&quot;Microsoft YaHei&quot;, 微软雅黑, Arial" text-anchor="middle" font-size="40px" width="50px" fill="#ffffff" font-weight="400" align="middle" lineHeight="125%" anchor="middle" family="&quot;Microsoft YaHei&quot;, 微软雅黑, Arial" size="40px" weight="400" font-style="" opacity="1" y="0" transform="rotate(0)"><tspan id="SvgjsTspan1125" dy="50" x="35"><tspan id="SvgjsTspan1126" style="">2</tspan></tspan></text></g></g><g id="SvgjsG1127"><path id="SvgjsPath1128" d="M1315.0668013832171 671.1670248035415L1235.9165207603376 755.6901703694497" stroke="#323232" stroke-width="1.5" fill="none"></path></g><g id="SvgjsG1129"><path id="SvgjsPath1130" d="M1189.7948516611198 810.4700802609218L1115.6721614156697 890.7061228763708" stroke="#323232" stroke-width="1.5" fill="none"></path></g><g id="SvgjsG1131"><path id="SvgjsPath1132" d="M1361.5236563722185 669.7202787740944L1442.4522739522597 747.9074819224645" stroke="#323232" stroke-width="1.5" fill="none"></path></g><g id="SvgjsG1133" transform="translate(945.9916610717773,901.4285975864965)"><path id="SvgjsPath1134" d="M 0 0L 84 0L 100 16L 100 40L 0 40L 0 0Z" stroke="none" fill-opacity="1" fill="#fff7bc"></path><path id="SvgjsPath1135" d="M 84 0L 84 16L 100 16Z" stroke="none" fill-opacity="1" fill="#e4d089"></path><path id="SvgjsPath1136" d="M 0 0L 84 0L 100 16L 100 40L 0 40L 0 0Z" stroke="none" fill="none"></path><g id="SvgjsG1137"><text id="SvgjsText1138" font-family="&quot;Microsoft YaHei&quot;, 微软雅黑, Arial" text-anchor="middle" font-size="20px" width="80px" fill="#323232" font-weight="400" align="middle" lineHeight="125%" anchor="middle" family="&quot;Microsoft YaHei&quot;, 微软雅黑, Arial" size="20px" weight="400" font-style="" opacity="1" y="2" transform="rotate(0)"><tspan id="SvgjsTspan1139" dy="25" x="50"><tspan id="SvgjsTspan1140" style="">新节点</tspan></tspan></text></g></g><g id="SvgjsG1141" transform="translate(1489.9916610717773,767.6785975864957)"><path id="SvgjsPath1142" d="M 0 0L 84 0L 100 16L 100 31.5L 0 31.5L 0 0Z" stroke="none" fill-opacity="1" fill="#fff7bc"></path><path id="SvgjsPath1143" d="M 84 0L 84 16L 100 16Z" stroke="none" fill-opacity="1" fill="#e4d089"></path><path id="SvgjsPath1144" d="M 0 0L 84 0L 100 16L 100 31.5L 0 31.5L 0 0Z" stroke="none" fill="none"></path><g id="SvgjsG1145"><text id="SvgjsText1146" font-family="&quot;Microsoft YaHei&quot;, 微软雅黑, Arial" text-anchor="middle" font-size="20px" width="80px" fill="#323232" font-weight="400" align="middle" lineHeight="125%" anchor="middle" family="&quot;Microsoft YaHei&quot;, 微软雅黑, Arial" size="20px" weight="400" font-style="" opacity="1" y="-2.25" transform="rotate(0)"><tspan id="SvgjsTspan1147" dy="25" x="50"><tspan id="SvgjsTspan1148" style="">它叔叔</tspan></tspan></text></g></g><g id="SvgjsG1149" transform="translate(1054.9916610717773,764.6785975864957)"><path id="SvgjsPath1150" d="M 0 0L 84 0L 100 16L 100 35L 0 35L 0 0Z" stroke="none" fill-opacity="1" fill="#fff7bc"></path><path id="SvgjsPath1151" d="M 84 0L 84 16L 100 16Z" stroke="none" fill-opacity="1" fill="#e4d089"></path><path id="SvgjsPath1152" d="M 0 0L 84 0L 100 16L 100 35L 0 35L 0 0Z" stroke="none" fill="none"></path><g id="SvgjsG1153"><text id="SvgjsText1154" font-family="&quot;Microsoft YaHei&quot;, 微软雅黑, Arial" text-anchor="middle" font-size="20px" width="80px" fill="#323232" font-weight="400" align="middle" lineHeight="125%" anchor="middle" family="&quot;Microsoft YaHei&quot;, 微软雅黑, Arial" size="20px" weight="400" font-style="" opacity="1" y="-0.5" transform="rotate(0)"><tspan id="SvgjsTspan1155" dy="25" x="50"><tspan id="SvgjsTspan1156" style="">它爹</tspan></tspan></text></g></g><g id="SvgjsG1157" transform="translate(1190.9916610717773,629.5535975864956)"><path id="SvgjsPath1158" d="M 0 0L 84 0L 100 16L 100 27.75L 0 27.75L 0 0Z" stroke="none" fill-opacity="1" fill="#fff7bc"></path><path id="SvgjsPath1159" d="M 84 0L 84 16L 100 16Z" stroke="none" fill-opacity="1" fill="#e4d089"></path><path id="SvgjsPath1160" d="M 0 0L 84 0L 100 16L 100 27.75L 0 27.75L 0 0Z" stroke="none" fill="none"></path><g id="SvgjsG1161"><text id="SvgjsText1162" font-family="&quot;Microsoft YaHei&quot;, 微软雅黑, Arial" text-anchor="middle" font-size="20px" width="80px" fill="#323232" font-weight="400" align="middle" lineHeight="125%" anchor="middle" family="&quot;Microsoft YaHei&quot;, 微软雅黑, Arial" size="20px" weight="400" font-style="" opacity="1" y="-4.125" transform="rotate(0)"><tspan id="SvgjsTspan1163" dy="25" x="50"><tspan id="SvgjsTspan1164" style="">它爷</tspan></tspan></text></g></g><g id="SvgjsG1165" transform="translate(705.8499908447266,182.7143118722098)"><path id="SvgjsPath1166" d="M 0 19.8L 176.25 19.8L 176.25 0L 206.25 30L 176.25 60L 176.25 40.2L 0 40.2L 0 19.8Z" stroke="rgba(33,41,48,1)" stroke-width="1.5" fill-opacity="1" fill="#ffffff"></path><g id="SvgjsG1167"><text id="SvgjsText1168" font-family="&quot;Microsoft YaHei&quot;, 微软雅黑, Arial" text-anchor="middle" font-size="13px" width="207px" fill="#323232" font-weight="400" align="middle" lineHeight="125%" anchor="middle" family="&quot;Microsoft YaHei&quot;, 微软雅黑, Arial" size="13px" weight="400" font-style="" opacity="1" y="19.375" transform="rotate(0)"></text></g></g><g id="SvgjsG1169" transform="translate(739.5,156.9643118722098)"><path id="SvgjsPath1170" d="M 0 0L 100 0L 100 40L 0 40Z" stroke="none" fill="none"></path><g id="SvgjsG1171"><text id="SvgjsText1172" font-family="&quot;Microsoft YaHei&quot;, 微软雅黑, Arial" text-anchor="middle" font-size="30px" width="100px" fill="#323232" font-weight="400" align="middle" lineHeight="125%" anchor="middle" family="&quot;Microsoft YaHei&quot;, 微软雅黑, Arial" size="30px" weight="400" font-style="" opacity="1" y="-5.75" transform="rotate(0)"><tspan id="SvgjsTspan1173" dy="37.5" x="50"><tspan id="SvgjsTspan1174" style="">变色</tspan></tspan></text></g></g><g id="SvgjsG1175" transform="matrix(6.123233995736766e-17,1,-1,6.123233995736766e-17,1202.5416259765625,370.3642883300781)"><path id="SvgjsPath1176" d="M 0 19.8L 176.25 19.8L 176.25 0L 206.25 30L 176.25 60L 176.25 40.2L 0 40.2L 0 19.8Z" stroke="rgba(33,41,48,1)" stroke-width="1.5" fill-opacity="1" fill="#ffffff"></path><g id="SvgjsG1177"><text id="SvgjsText1178" font-family="&quot;Microsoft YaHei&quot;, 微软雅黑, Arial" text-anchor="middle" font-size="13px" width="207px" fill="#323232" font-weight="400" align="middle" lineHeight="125%" anchor="middle" family="&quot;Microsoft YaHei&quot;, 微软雅黑, Arial" size="13px" weight="400" font-style="" opacity="1" y="19.375" transform="rotate(0)"></text></g></g><g id="SvgjsG1179" transform="translate(1197.9833323160806,406.7143118722098)"><path id="SvgjsPath1180" d="M 0 0L 161.867 0L 161.867 113L 0 113Z" stroke="none" fill="none"></path><g id="SvgjsG1181"><text id="SvgjsText1182" font-family="&quot;Microsoft YaHei&quot;, 微软雅黑, Arial" text-anchor="middle" font-size="30px" width="162px" fill="#323232" font-weight="400" align="middle" lineHeight="125%" anchor="middle" family="&quot;Microsoft YaHei&quot;, 微软雅黑, Arial" size="30px" weight="400" font-style="" opacity="1" y="12.25" transform="rotate(0)"><tspan id="SvgjsTspan1183" dy="37.5" x="81"><tspan id="SvgjsTspan1184" style="">更新</tspan></tspan><tspan id="SvgjsTspan1185" dy="37.5" x="81"><tspan id="SvgjsTspan1186" style="">cur_node</tspan></tspan></text></g></g><g id="SvgjsG1187" transform="translate(947.5,25)"><path id="SvgjsPath1188" d="M 0 4Q 0 0 4 0L 550.767 0Q 554.767 0 554.767 4L 554.767 278.714Q 554.767 282.714 550.767 282.714L 4 282.714Q 0 282.714 0 278.714Z" stroke-dasharray="10,4,2,4" stroke="rgba(49,74,164,1)" stroke-width="2" fill="none"></path><g id="SvgjsG1189"><text id="SvgjsText1190" font-family="&quot;Microsoft YaHei&quot;, 微软雅黑, Arial" text-anchor="middle" font-size="13px" width="535px" fill="#323232" font-weight="400" align="middle" lineHeight="125%" anchor="middle" family="&quot;Microsoft YaHei&quot;, 微软雅黑, Arial" size="13px" weight="400" font-style="" opacity="1" y="130.732" transform="rotate(0)"></text></g></g><g id="SvgjsG1191" transform="translate(282.73332214355463,307.7143118722098)"><path id="SvgjsPath1192" d="M 0 37C 0 -12.333 161.6 -12.333 161.6 37C 161.6 86.333 0 86.333 0 37Z" stroke="rgba(33,41,48,1)" stroke-width="1.5" fill-opacity="1" fill="#569230"></path><g id="SvgjsG1193"><text id="SvgjsText1194" font-family="&quot;Microsoft YaHei&quot;, 微软雅黑, Arial" text-anchor="middle" font-size="30px" width="142px" fill="#ffffff" font-weight="400" align="middle" lineHeight="125%" anchor="middle" family="&quot;Microsoft YaHei&quot;, 微软雅黑, Arial" size="30px" weight="400" font-style="" opacity="1" y="11.25" transform="rotate(0)"><tspan id="SvgjsTspan1195" dy="37.5" x="81"><tspan id="SvgjsTspan1196" style="">cur_node</tspan></tspan></text></g></g><g id="SvgjsG1197"><path id="SvgjsPath1198" d="M281.98332214355463 344.7143118722098L204 344.7143118722098" stroke-dasharray="7.5,3" stroke="#323232" stroke-width="1.5" fill="none" marker-end="url(#SvgjsMarker1199)"></path></g><g id="SvgjsG1201" transform="translate(1450.2416610717773,606.4285975864956)"><path id="SvgjsPath1202" d="M 0 37C 0 -12.333 161.6 -12.333 161.6 37C 161.6 86.333 0 86.333 0 37Z" stroke="rgba(33,41,48,1)" stroke-width="1.5" fill-opacity="1" fill="#569230"></path><g id="SvgjsG1203"><text id="SvgjsText1204" font-family="&quot;Microsoft YaHei&quot;, 微软雅黑, Arial" text-anchor="middle" font-size="30px" width="142px" fill="#ffffff" font-weight="400" align="middle" lineHeight="125%" anchor="middle" family="&quot;Microsoft YaHei&quot;, 微软雅黑, Arial" size="30px" weight="400" font-style="" opacity="1" y="11.25" transform="rotate(0)"><tspan id="SvgjsTspan1205" dy="37.5" x="81"><tspan id="SvgjsTspan1206" style="">cur_node</tspan></tspan></text></g></g><g id="SvgjsG1207"><path id="SvgjsPath1208" d="M1449.4916610717773 643.4285975864956L1371.5083389282227 643.4285975864956" stroke-dasharray="7.5,3" stroke="#323232" stroke-width="1.5" fill="none" marker-end="url(#SvgjsMarker1209)"></path></g><g id="SvgjsG1211" transform="translate(348.4166666666667,631.5535975864956)"><path id="SvgjsPath1212" d="M 0 35C 0 -11.667 70 -11.667 70 35C 70 81.667 0 81.667 0 35Z" stroke="rgba(255,255,255,1)" stroke-width="1.5" fill-opacity="1" fill="#000000"></path><g id="SvgjsG1213"><text id="SvgjsText1214" font-family="&quot;Microsoft YaHei&quot;, 微软雅黑, Arial" text-anchor="middle" font-size="40px" width="50px" fill="#ffffff" font-weight="400" align="middle" lineHeight="125%" anchor="middle" family="&quot;Microsoft YaHei&quot;, 微软雅黑, Arial" size="40px" weight="400" font-style="" opacity="1" y="0" transform="rotate(0)"><tspan id="SvgjsTspan1215" dy="50" x="35"><tspan id="SvgjsTspan1216" style="">9</tspan></tspan></text></g></g><g id="SvgjsG1217" transform="translate(225.41666666666669,771.5535975864956)"><path id="SvgjsPath1218" d="M 0 35C 0 -11.667 70 -11.667 70 35C 70 81.667 0 81.667 0 35Z" stroke="rgba(255,255,255,1)" stroke-width="1.5" fill-opacity="1" fill="#000000"></path><g id="SvgjsG1219"><text id="SvgjsText1220" font-family="&quot;Microsoft YaHei&quot;, 微软雅黑, Arial" text-anchor="middle" font-size="40px" width="50px" fill="#ffffff" font-weight="400" align="middle" lineHeight="125%" anchor="middle" family="&quot;Microsoft YaHei&quot;, 微软雅黑, Arial" size="40px" weight="400" font-style="" opacity="1" y="0" transform="rotate(0)"><tspan id="SvgjsTspan1221" dy="50" x="35"><tspan id="SvgjsTspan1222" style="">7</tspan></tspan></text></g></g><g id="SvgjsG1223" transform="translate(454.4166666666668,771.5535975864956)"><path id="SvgjsPath1224" d="M 0 35C 0 -11.667 70 -11.667 70 35C 70 81.667 0 81.667 0 35Z" stroke="rgba(255,255,255,1)" stroke-width="1.5" fill-opacity="1" fill="#000000"></path><g id="SvgjsG1225"><text id="SvgjsText1226" font-family="&quot;Microsoft YaHei&quot;, 微软雅黑, Arial" text-anchor="middle" font-size="40px" width="50px" fill="#ffffff" font-weight="400" align="middle" lineHeight="125%" anchor="middle" family="&quot;Microsoft YaHei&quot;, 微软雅黑, Arial" size="40px" weight="400" font-style="" opacity="1" y="0" transform="rotate(0)"><tspan id="SvgjsTspan1227" dy="50" x="35"><tspan id="SvgjsTspan1228" style="">10</tspan></tspan></text></g></g><g id="SvgjsG1229" transform="translate(101.41666666666669,903.5535975864951)"><path id="SvgjsPath1230" d="M 0 35C 0 -11.667 70 -11.667 70 35C 70 81.667 0 81.667 0 35Z" stroke="rgba(255,255,255,1)" stroke-width="1.5" fill-opacity="1" fill="#e60c0c"></path><g id="SvgjsG1231"><text id="SvgjsText1232" font-family="&quot;Microsoft YaHei&quot;, 微软雅黑, Arial" text-anchor="middle" font-size="40px" width="50px" fill="#ffffff" font-weight="400" align="middle" lineHeight="125%" anchor="middle" family="&quot;Microsoft YaHei&quot;, 微软雅黑, Arial" size="40px" weight="400" font-style="" opacity="1" y="0" transform="rotate(0)"><tspan id="SvgjsTspan1233" dy="50" x="35"><tspan id="SvgjsTspan1234" style="">2</tspan></tspan></text></g></g><g id="SvgjsG1235"><path id="SvgjsPath1236" d="M361.4918069781066 694.2920248035413L282.34152635522724 778.8151703694497" stroke="#323232" stroke-width="1.5" fill="none"></path></g><g id="SvgjsG1237"><path id="SvgjsPath1238" d="M236.21985725600916 833.595080260922L162.0971670105589 913.8311228763699" stroke="#323232" stroke-width="1.5" fill="none"></path></g><g id="SvgjsG1239"><path id="SvgjsPath1240" d="M407.9486619671078 692.8452787740946L488.8772795471494 771.0324819224645" stroke="#323232" stroke-width="1.5" fill="none"></path></g><g id="SvgjsG1241" transform="translate(178.13095238095258,918.5535975864956)"><path id="SvgjsPath1242" d="M 0 0L 84 0L 100 16L 100 40L 0 40L 0 0Z" stroke="none" fill-opacity="1" fill="#fff7bc"></path><path id="SvgjsPath1243" d="M 84 0L 84 16L 100 16Z" stroke="none" fill-opacity="1" fill="#e4d089"></path><path id="SvgjsPath1244" d="M 0 0L 84 0L 100 16L 100 40L 0 40L 0 0Z" stroke="none" fill="none"></path><g id="SvgjsG1245"><text id="SvgjsText1246" font-family="&quot;Microsoft YaHei&quot;, 微软雅黑, Arial" text-anchor="middle" font-size="20px" width="80px" fill="#323232" font-weight="400" align="middle" lineHeight="125%" anchor="middle" family="&quot;Microsoft YaHei&quot;, 微软雅黑, Arial" size="20px" weight="400" font-style="" opacity="1" y="2" transform="rotate(0)"><tspan id="SvgjsTspan1247" dy="25" x="50"><tspan id="SvgjsTspan1248" style="">新节点</tspan></tspan></text></g></g><g id="SvgjsG1249" transform="translate(536.416666666667,790.8035975864955)"><path id="SvgjsPath1250" d="M 0 0L 84 0L 100 16L 100 31.5L 0 31.5L 0 0Z" stroke="none" fill-opacity="1" fill="#fff7bc"></path><path id="SvgjsPath1251" d="M 84 0L 84 16L 100 16Z" stroke="none" fill-opacity="1" fill="#e4d089"></path><path id="SvgjsPath1252" d="M 0 0L 84 0L 100 16L 100 31.5L 0 31.5L 0 0Z" stroke="none" fill="none"></path><g id="SvgjsG1253"><text id="SvgjsText1254" font-family="&quot;Microsoft YaHei&quot;, 微软雅黑, Arial" text-anchor="middle" font-size="20px" width="80px" fill="#323232" font-weight="400" align="middle" lineHeight="125%" anchor="middle" family="&quot;Microsoft YaHei&quot;, 微软雅黑, Arial" size="20px" weight="400" font-style="" opacity="1" y="-2.25" transform="rotate(0)"><tspan id="SvgjsTspan1255" dy="25" x="50"><tspan id="SvgjsTspan1256" style="">它叔叔</tspan></tspan></text></g></g><g id="SvgjsG1257" transform="translate(101.41666666666669,787.8035975864955)"><path id="SvgjsPath1258" d="M 0 0L 84 0L 100 16L 100 35L 0 35L 0 0Z" stroke="none" fill-opacity="1" fill="#fff7bc"></path><path id="SvgjsPath1259" d="M 84 0L 84 16L 100 16Z" stroke="none" fill-opacity="1" fill="#e4d089"></path><path id="SvgjsPath1260" d="M 0 0L 84 0L 100 16L 100 35L 0 35L 0 0Z" stroke="none" fill="none"></path><g id="SvgjsG1261"><text id="SvgjsText1262" font-family="&quot;Microsoft YaHei&quot;, 微软雅黑, Arial" text-anchor="middle" font-size="20px" width="80px" fill="#323232" font-weight="400" align="middle" lineHeight="125%" anchor="middle" family="&quot;Microsoft YaHei&quot;, 微软雅黑, Arial" size="20px" weight="400" font-style="" opacity="1" y="-0.5" transform="rotate(0)"><tspan id="SvgjsTspan1263" dy="25" x="50"><tspan id="SvgjsTspan1264" style="">它爹</tspan></tspan></text></g></g><g id="SvgjsG1265" transform="translate(237.41666666666669,652.6785975864956)"><path id="SvgjsPath1266" d="M 0 0L 84 0L 100 16L 100 27.75L 0 27.75L 0 0Z" stroke="none" fill-opacity="1" fill="#fff7bc"></path><path id="SvgjsPath1267" d="M 84 0L 84 16L 100 16Z" stroke="none" fill-opacity="1" fill="#e4d089"></path><path id="SvgjsPath1268" d="M 0 0L 84 0L 100 16L 100 27.75L 0 27.75L 0 0Z" stroke="none" fill="none"></path><g id="SvgjsG1269"><text id="SvgjsText1270" font-family="&quot;Microsoft YaHei&quot;, 微软雅黑, Arial" text-anchor="middle" font-size="20px" width="80px" fill="#323232" font-weight="400" align="middle" lineHeight="125%" anchor="middle" family="&quot;Microsoft YaHei&quot;, 微软雅黑, Arial" size="20px" weight="400" font-style="" opacity="1" y="-4.125" transform="rotate(0)"><tspan id="SvgjsTspan1271" dy="25" x="50"><tspan id="SvgjsTspan1272" style="">它爷</tspan></tspan></text></g></g><g id="SvgjsG1273" transform="matrix(-1,1.2246467991473532e-16,-1.2246467991473532e-16,-1,933.1666870117188,799.3392944335938)"><path id="SvgjsPath1274" d="M 0 19.8L 176.25 19.8L 176.25 0L 206.25 30L 176.25 60L 176.25 40.2L 0 40.2L 0 19.8Z" stroke="rgba(33,41,48,1)" stroke-width="1.5" fill-opacity="1" fill="#ffffff"></path><g id="SvgjsG1275"><text id="SvgjsText1276" font-family="&quot;Microsoft YaHei&quot;, 微软雅黑, Arial" text-anchor="middle" font-size="13px" width="207px" fill="#323232" font-weight="400" align="middle" lineHeight="125%" anchor="middle" family="&quot;Microsoft YaHei&quot;, 微软雅黑, Arial" size="13px" weight="400" font-style="" opacity="1" y="19.375" transform="rotate(0)"></text></g></g><g id="SvgjsG1277" transform="translate(759.2833379109702,645.3035975864956)"><path id="SvgjsPath1278" d="M 0 0L 161.867 0L 161.867 113L 0 113Z" stroke="none" fill="none"></path><g id="SvgjsG1279"><text id="SvgjsText1280" font-family="&quot;Microsoft YaHei&quot;, 微软雅黑, Arial" text-anchor="middle" font-size="30px" width="162px" fill="#323232" font-weight="400" align="middle" lineHeight="125%" anchor="middle" family="&quot;Microsoft YaHei&quot;, 微软雅黑, Arial" size="30px" weight="400" font-style="" opacity="1" y="-6.75" transform="rotate(0)"><tspan id="SvgjsTspan1281" dy="37.5" x="81"><tspan id="SvgjsTspan1282" style="">继续判断</tspan></tspan><tspan id="SvgjsTspan1283" dy="37.5" x="81"><tspan id="SvgjsTspan1284" style="">是否违反</tspan></tspan><tspan id="SvgjsTspan1285" dy="37.5" x="81"><tspan id="SvgjsTspan1286" style="">平衡规定</tspan></tspan></text></g></g><g id="SvgjsG1287" transform="translate(496.66666666666686,629.5535975864956)"><path id="SvgjsPath1288" d="M 0 37C 0 -12.333 161.6 -12.333 161.6 37C 161.6 86.333 0 86.333 0 37Z" stroke="rgba(33,41,48,1)" stroke-width="1.5" fill-opacity="1" fill="#569230"></path><g id="SvgjsG1289"><text id="SvgjsText1290" font-family="&quot;Microsoft YaHei&quot;, 微软雅黑, Arial" text-anchor="middle" font-size="30px" width="142px" fill="#ffffff" font-weight="400" align="middle" lineHeight="125%" anchor="middle" family="&quot;Microsoft YaHei&quot;, 微软雅黑, Arial" size="30px" weight="400" font-style="" opacity="1" y="11.25" transform="rotate(0)"><tspan id="SvgjsTspan1291" dy="37.5" x="81"><tspan id="SvgjsTspan1292" style="">cur_node</tspan></tspan></text></g></g><g id="SvgjsG1293"><path id="SvgjsPath1294" d="M495.91666666666686 666.5535975864956L417.93334452311194 666.5535975864956" stroke-dasharray="7.5,3" stroke="#323232" stroke-width="1.5" fill="none" marker-end="url(#SvgjsMarker1295)"></path></g><g id="SvgjsG1297" transform="translate(759.2833379109702,792.9643118722098)"><path id="SvgjsPath1298" d="M 0 0L 161.867 0L 161.867 113L 0 113Z" stroke="none" fill="none"></path><g id="SvgjsG1299"><text id="SvgjsText1300" font-family="&quot;Microsoft YaHei&quot;, 微软雅黑, Arial" text-anchor="middle" font-size="30px" width="162px" fill="#323232" font-weight="400" align="middle" lineHeight="125%" anchor="middle" family="&quot;Microsoft YaHei&quot;, 微软雅黑, Arial" size="30px" weight="400" font-style="" opacity="1" y="-6.75" transform="rotate(0)"><tspan id="SvgjsTspan1301" dy="37.5" x="81"><tspan id="SvgjsTspan1302" style="">例如当前的</tspan></tspan><tspan id="SvgjsTspan1303" dy="37.5" x="81"><tspan id="SvgjsTspan1304" style="">cur_node</tspan></tspan><tspan id="SvgjsTspan1305" dy="37.5" x="81"><tspan id="SvgjsTspan1306" style="">是根节点</tspan></tspan></text></g></g><g id="SvgjsG1307"></g></svg>