<svg id="SvgjsSvg1006" width="1585.643063863119" height="972.1666717529297" xmlns="http://www.w3.org/2000/svg" version="1.1" xmlns:xlink="http://www.w3.org/1999/xlink" xmlns:svgjs="http://svgjs.com/svgjs"><defs id="SvgjsDefs1007"><pattern patternUnits="userSpaceOnUse" id="pattern_mark_0" width="300" height="300"><text x="150" y="100" fill="rgba(229,229,229,0.8)" font-size="18" transform="rotate(-45, 150, 150)" style="dominant-baseline: middle; text-anchor: middle;"></text></pattern><pattern patternUnits="userSpaceOnUse" id="pattern_mark_1" width="300" height="300"><text x="150" y="200" fill="rgba(229,229,229,0.8)" font-size="18" transform="rotate(-45, 150, 150)" style="dominant-baseline: middle; text-anchor: middle;"></text></pattern><marker id="SvgjsMarker1069" markerWidth="16" markerHeight="16" refX="11" refY="8" viewBox="0 0 16 16" orient="auto" markerUnits="userSpaceOnUse" stroke-dasharray="0,0"><path id="SvgjsPath1070" d="M0,0 L10,8 L0,16" fill="none" stroke="#323232" stroke-width="1.5"></path></marker><marker id="SvgjsMarker1103" markerWidth="13" markerHeight="9" refX="9.5" refY="4.5" viewBox="0 0 13 9" orient="auto" markerUnits="userSpaceOnUse" stroke-dasharray="0,0"><path id="SvgjsPath1104" d="M0,0 L13,4.5 L0,9 L0,0" fill="#323232" stroke="#323232" stroke-width="1"></path></marker><marker id="SvgjsMarker1153" markerWidth="16" markerHeight="16" refX="11" refY="8" viewBox="0 0 16 16" orient="auto" markerUnits="userSpaceOnUse" stroke-dasharray="0,0"><path id="SvgjsPath1154" d="M0,0 L10,8 L0,16" fill="none" stroke="#323232" stroke-width="1.5"></path></marker><marker id="SvgjsMarker1163" markerWidth="13" markerHeight="9" refX="9.5" refY="4.5" viewBox="0 0 13 9" orient="auto" markerUnits="userSpaceOnUse" stroke-dasharray="0,0"><path id="SvgjsPath1164" d="M0,0 L13,4.5 L0,9 L0,0" fill="#323232" stroke="#323232" stroke-width="1"></path></marker><marker id="SvgjsMarker1225" markerWidth="16" markerHeight="16" refX="11" refY="8" viewBox="0 0 16 16" orient="auto" markerUnits="userSpaceOnUse" stroke-dasharray="0,0"><path id="SvgjsPath1226" d="M0,0 L10,8 L0,16" fill="none" stroke="#323232" stroke-width="1.5"></path></marker><marker id="SvgjsMarker1235" markerWidth="13" markerHeight="9" refX="9.5" refY="4.5" viewBox="0 0 13 9" orient="auto" markerUnits="userSpaceOnUse" stroke-dasharray="0,0"><path id="SvgjsPath1236" d="M0,0 L13,4.5 L0,9 L0,0" fill="#323232" stroke="#323232" stroke-width="1"></path></marker><marker id="SvgjsMarker1285" markerWidth="16" markerHeight="16" refX="11" refY="8" viewBox="0 0 16 16" orient="auto" markerUnits="userSpaceOnUse" stroke-dasharray="0,0"><path id="SvgjsPath1286" d="M0,0 L10,8 L0,16" fill="none" stroke="#323232" stroke-width="1.5"></path></marker><marker id="SvgjsMarker1295" markerWidth="13" markerHeight="9" refX="9.5" refY="4.5" viewBox="0 0 13 9" orient="auto" markerUnits="userSpaceOnUse" stroke-dasharray="0,0"><path id="SvgjsPath1296" d="M0,0 L13,4.5 L0,9 L0,0" fill="#323232" stroke="#323232" stroke-width="1"></path></marker><marker id="SvgjsMarker1305" markerWidth="13" markerHeight="9" refX="9.5" refY="4.5" viewBox="0 0 13 9" orient="auto" markerUnits="userSpaceOnUse" stroke-dasharray="0,0"><path id="SvgjsPath1306" d="M0,0 L13,4.5 L0,9 L0,0" fill="#323232" stroke="#323232" stroke-width="1"></path></marker></defs><rect id="svgbackgroundid" width="1585.643063863119" height="972.1666717529297" fill="transparent"></rect><rect id="SvgjsRect1009" width="1585.643063863119" height="972.1666717529297" fill="url(#pattern_mark_0)"></rect><rect id="SvgjsRect1010" width="1585.643063863119" height="972.1666717529297" fill="url(#pattern_mark_1)"></rect><g id="SvgjsG1011" transform="translate(448.4763971964522,31.5)"><path id="SvgjsPath1012" d="M 0 35C 0 -11.667 70 -11.667 70 35C 70 81.667 0 81.667 0 35Z" stroke="rgba(255,255,255,1)" stroke-width="1.5" fill-opacity="1" fill="#000000"></path><g id="SvgjsG1013"><text id="SvgjsText1014" font-family="&quot;Microsoft YaHei&quot;, 微软雅黑, Arial" text-anchor="middle" font-size="40px" width="50px" fill="#ffffff" font-weight="400" align="middle" lineHeight="125%" anchor="middle" family="&quot;Microsoft YaHei&quot;, 微软雅黑, Arial" size="40px" weight="400" font-style="" opacity="1" y="0" transform="rotate(0)"><tspan id="SvgjsTspan1015" dy="50" x="35"><tspan id="SvgjsTspan1016" style="">8</tspan></tspan></text></g></g><g id="SvgjsG1017" transform="translate(325.4763971964522,171.5)"><path id="SvgjsPath1018" d="M 0 35C 0 -11.667 70 -11.667 70 35C 70 81.667 0 81.667 0 35Z" stroke="rgba(255,255,255,1)" stroke-width="1.5" fill-opacity="1" fill="#e60c0c"></path><g id="SvgjsG1019"><text id="SvgjsText1020" font-family="&quot;Microsoft YaHei&quot;, 微软雅黑, Arial" text-anchor="middle" font-size="40px" width="50px" fill="#ffffff" font-weight="400" align="middle" lineHeight="125%" anchor="middle" family="&quot;Microsoft YaHei&quot;, 微软雅黑, Arial" size="40px" weight="400" font-style="" opacity="1" y="0" transform="rotate(0)"><tspan id="SvgjsTspan1021" dy="50" x="35"><tspan id="SvgjsTspan1022" style="">7</tspan></tspan></text></g></g><g id="SvgjsG1023" transform="translate(554.4763971964521,171.5)"><path id="SvgjsPath1024" d="M 0 35C 0 -11.667 70 -11.667 70 35C 70 81.667 0 81.667 0 35Z" stroke="rgba(255,255,255,1)" stroke-width="1.5" fill-opacity="1" fill="#e60c0c"></path><g id="SvgjsG1025"><text id="SvgjsText1026" font-family="&quot;Microsoft YaHei&quot;, 微软雅黑, Arial" text-anchor="middle" font-size="40px" width="50px" fill="#ffffff" font-weight="400" align="middle" lineHeight="125%" anchor="middle" family="&quot;Microsoft YaHei&quot;, 微软雅黑, Arial" size="40px" weight="400" font-style="" opacity="1" y="0" transform="rotate(0)"><tspan id="SvgjsTspan1027" dy="50" x="35"><tspan id="SvgjsTspan1028" style="">10</tspan></tspan></text></g></g><g id="SvgjsG1029"><path id="SvgjsPath1030" d="M461.5515375078919 94.2384272170458L382.40125688501246 178.7615727829542" stroke="#323232" stroke-width="1.5" fill="none"></path></g><g id="SvgjsG1031"><path id="SvgjsPath1032" d="M336.3299015047304 233.58402285743284L282.29862721761106 303.5" stroke="#323232" stroke-width="1.5" fill="none"></path></g><g id="SvgjsG1033"><path id="SvgjsPath1034" d="M508.0083924968932 92.79168118759884L588.9370100769345 170.97888433596898" stroke="#323232" stroke-width="1.5" fill="none"></path></g><g id="SvgjsG1035" transform="translate(364.3930638631186,301.5)"><path id="SvgjsPath1036" d="M 0 0L 84 0L 100 16L 100 40L 0 40L 0 0Z" stroke="none" fill-opacity="1" fill="#fff7bc"></path><path id="SvgjsPath1037" d="M 84 0L 84 16L 100 16Z" stroke="none" fill-opacity="1" fill="#e4d089"></path><path id="SvgjsPath1038" d="M 0 0L 84 0L 100 16L 100 40L 0 40L 0 0Z" stroke="none" fill="none"></path><g id="SvgjsG1039"><text id="SvgjsText1040" font-family="&quot;Microsoft YaHei&quot;, 微软雅黑, Arial" text-anchor="middle" font-size="20px" width="80px" fill="#323232" font-weight="400" align="middle" lineHeight="125%" anchor="middle" family="&quot;Microsoft YaHei&quot;, 微软雅黑, Arial" size="20px" weight="400" font-style="" opacity="1" y="2" transform="rotate(0)"><tspan id="SvgjsTspan1041" dy="25" x="50"><tspan id="SvgjsTspan1042" style="">新节点</tspan></tspan></text></g></g><g id="SvgjsG1043" transform="translate(217.72639719645218,187.88888835906982)"><path id="SvgjsPath1044" d="M 0 0L 84 0L 100 16L 100 37.222L 0 37.222L 0 0Z" stroke="none" fill-opacity="1" fill="#fff7bc"></path><path id="SvgjsPath1045" d="M 84 0L 84 16L 100 16Z" stroke="none" fill-opacity="1" fill="#e4d089"></path><path id="SvgjsPath1046" d="M 0 0L 84 0L 100 16L 100 37.222L 0 37.222L 0 0Z" stroke="none" fill="none"></path><g id="SvgjsG1047"><text id="SvgjsText1048" font-family="&quot;Microsoft YaHei&quot;, 微软雅黑, Arial" text-anchor="middle" font-size="20px" width="80px" fill="#323232" font-weight="400" align="middle" lineHeight="125%" anchor="middle" family="&quot;Microsoft YaHei&quot;, 微软雅黑, Arial" size="20px" weight="400" font-style="" opacity="1" y="0.6110000000000007" transform="rotate(0)"><tspan id="SvgjsTspan1049" dy="25" x="50"><tspan id="SvgjsTspan1050" style="">它叔叔</tspan></tspan></text></g></g><g id="SvgjsG1051" transform="translate(773.3263880411787,176.5)"><path id="SvgjsPath1052" d="M 0 19.8L 176.25 19.8L 176.25 0L 206.25 30L 176.25 60L 176.25 40.2L 0 40.2L 0 19.8Z" stroke="rgba(33,41,48,1)" stroke-width="1.5" fill-opacity="1" fill="#ffffff"></path><g id="SvgjsG1053"><text id="SvgjsText1054" font-family="&quot;Microsoft YaHei&quot;, 微软雅黑, Arial" text-anchor="middle" font-size="13px" width="207px" fill="#323232" font-weight="400" align="middle" lineHeight="125%" anchor="middle" family="&quot;Microsoft YaHei&quot;, 微软雅黑, Arial" size="13px" weight="400" font-style="" opacity="1" y="19.375" transform="rotate(0)"></text></g></g><g id="SvgjsG1055" transform="translate(806.9763971964521,150.75)"><path id="SvgjsPath1056" d="M 0 0L 100 0L 100 40L 0 40Z" stroke="none" fill="none"></path><g id="SvgjsG1057"><text id="SvgjsText1058" font-family="&quot;Microsoft YaHei&quot;, 微软雅黑, Arial" text-anchor="middle" font-size="30px" width="100px" fill="#323232" font-weight="400" align="middle" lineHeight="125%" anchor="middle" family="&quot;Microsoft YaHei&quot;, 微软雅黑, Arial" size="30px" weight="400" font-style="" opacity="1" y="-5.75" transform="rotate(0)"><tspan id="SvgjsTspan1059" dy="37.5" x="50"><tspan id="SvgjsTspan1060" style="">变色</tspan></tspan></text></g></g><g id="SvgjsG1061" transform="translate(603.8319422403974,274)"><path id="SvgjsPath1062" d="M 0 37C 0 -12.333 161.6 -12.333 161.6 37C 161.6 86.333 0 86.333 0 37Z" stroke="rgba(33,41,48,1)" stroke-width="1.5" fill-opacity="1" fill="#569230"></path><g id="SvgjsG1063"><text id="SvgjsText1064" font-family="&quot;Microsoft YaHei&quot;, 微软雅黑, Arial" text-anchor="middle" font-size="30px" width="142px" fill="#ffffff" font-weight="400" align="middle" lineHeight="125%" anchor="middle" family="&quot;Microsoft YaHei&quot;, 微软雅黑, Arial" size="30px" weight="400" font-style="" opacity="1" y="11.25" transform="rotate(0)"><tspan id="SvgjsTspan1065" dy="37.5" x="81"><tspan id="SvgjsTspan1066" style="">cur_node</tspan></tspan></text></g></g><g id="SvgjsG1067"><path id="SvgjsPath1068" d="M603.0819422403974 311L554.4763971964521 311" stroke-dasharray="7.5,3" stroke="#323232" stroke-width="1.5" fill="none" marker-end="url(#SvgjsMarker1069)"></path></g><g id="SvgjsG1071" transform="matrix(-1,1.2246467991473532e-16,-1.2246467991473532e-16,-1,960.1014175415039,827.625)"><path id="SvgjsPath1072" d="M 0 19.8L 248.469 19.8L 248.469 0L 278.469 30L 248.469 60L 248.469 40.2L 0 40.2L 0 19.8Z" stroke="rgba(33,41,48,1)" stroke-width="1.5" fill-opacity="1" fill="#ffffff"></path><g id="SvgjsG1073"><text id="SvgjsText1074" font-family="&quot;Microsoft YaHei&quot;, 微软雅黑, Arial" text-anchor="middle" font-size="13px" width="279px" fill="#323232" font-weight="400" align="middle" lineHeight="125%" anchor="middle" family="&quot;Microsoft YaHei&quot;, 微软雅黑, Arial" size="13px" weight="400" font-style="" opacity="1" y="19.375" transform="rotate(0)"></text></g></g><g id="SvgjsG1075" transform="translate(762.2180684407558,665.5892857142858)"><path id="SvgjsPath1076" d="M 0 0L 161.867 0L 161.867 113L 0 113Z" stroke="none" fill="none"></path><g id="SvgjsG1077"><text id="SvgjsText1078" font-family="&quot;Microsoft YaHei&quot;, 微软雅黑, Arial" text-anchor="middle" font-size="30px" width="162px" fill="#323232" font-weight="400" align="middle" lineHeight="125%" anchor="middle" family="&quot;Microsoft YaHei&quot;, 微软雅黑, Arial" size="30px" weight="400" font-style="" opacity="1" y="-6.75" transform="rotate(0)"><tspan id="SvgjsTspan1079" dy="37.5" x="81"><tspan id="SvgjsTspan1080" style="">继续判断</tspan></tspan><tspan id="SvgjsTspan1081" dy="37.5" x="81"><tspan id="SvgjsTspan1082" style="">是否违反</tspan></tspan><tspan id="SvgjsTspan1083" dy="37.5" x="81"><tspan id="SvgjsTspan1084" style="">平衡规定</tspan></tspan></text></g></g><g id="SvgjsG1085" transform="translate(762.2180684407558,813.25)"><path id="SvgjsPath1086" d="M 0 0L 161.867 0L 161.867 113L 0 113Z" stroke="none" fill="none"></path><g id="SvgjsG1087"><text id="SvgjsText1088" font-family="&quot;Microsoft YaHei&quot;, 微软雅黑, Arial" text-anchor="middle" font-size="30px" width="162px" fill="#323232" font-weight="400" align="middle" lineHeight="125%" anchor="middle" family="&quot;Microsoft YaHei&quot;, 微软雅黑, Arial" size="30px" weight="400" font-style="" opacity="1" y="-6.75" transform="rotate(0)"><tspan id="SvgjsTspan1089" dy="37.5" x="81"><tspan id="SvgjsTspan1090" style="">例如当前的</tspan></tspan><tspan id="SvgjsTspan1091" dy="37.5" x="81"><tspan id="SvgjsTspan1092" style="">cur_node</tspan></tspan><tspan id="SvgjsTspan1093" dy="37.5" x="81"><tspan id="SvgjsTspan1094" style="">是根节点</tspan></tspan></text></g></g><g id="SvgjsG1095" transform="translate(471.3930638631186,276)"><path id="SvgjsPath1096" d="M 0 35C 0 -11.667 70 -11.667 70 35C 70 81.667 0 81.667 0 35Z" stroke="rgba(255,255,255,1)" stroke-width="1.5" fill-opacity="1" fill="#e60c0c"></path><g id="SvgjsG1097"><text id="SvgjsText1098" font-family="&quot;Microsoft YaHei&quot;, 微软雅黑, Arial" text-anchor="middle" font-size="40px" width="50px" fill="#ffffff" font-weight="400" align="middle" lineHeight="125%" anchor="middle" family="&quot;Microsoft YaHei&quot;, 微软雅黑, Arial" size="40px" weight="400" font-style="" opacity="1" y="0" transform="rotate(0)"><tspan id="SvgjsTspan1099" dy="50" x="35"><tspan id="SvgjsTspan1100" style="">9</tspan></tspan></text></g></g><g id="SvgjsG1101"><path id="SvgjsPath1102" d="M568.1422700072213 235.1074132176235L532.2352392830679 283.34308128697563" stroke="#323232" stroke-width="1.5" fill="none" marker-end="url(#SvgjsMarker1103)"></path></g><g id="SvgjsG1105" transform="translate(1243.6875076293952,25)"><path id="SvgjsPath1106" d="M 0 35C 0 -11.667 70 -11.667 70 35C 70 81.667 0 81.667 0 35Z" stroke="rgba(255,255,255,1)" stroke-width="1.5" fill-opacity="1" fill="#e60c0c"></path><g id="SvgjsG1107"><text id="SvgjsText1108" font-family="&quot;Microsoft YaHei&quot;, 微软雅黑, Arial" text-anchor="middle" font-size="40px" width="50px" fill="#ffffff" font-weight="400" align="middle" lineHeight="125%" anchor="middle" family="&quot;Microsoft YaHei&quot;, 微软雅黑, Arial" size="40px" weight="400" font-style="" opacity="1" y="0" transform="rotate(0)"><tspan id="SvgjsTspan1109" dy="50" x="35"><tspan id="SvgjsTspan1110" style="">8</tspan></tspan></text></g></g><g id="SvgjsG1111" transform="translate(1120.6875076293952,165)"><path id="SvgjsPath1112" d="M 0 35C 0 -11.667 70 -11.667 70 35C 70 81.667 0 81.667 0 35Z" stroke="rgba(255,255,255,1)" stroke-width="1.5" fill-opacity="1" fill="#000000"></path><g id="SvgjsG1113"><text id="SvgjsText1114" font-family="&quot;Microsoft YaHei&quot;, 微软雅黑, Arial" text-anchor="middle" font-size="40px" width="50px" fill="#ffffff" font-weight="400" align="middle" lineHeight="125%" anchor="middle" family="&quot;Microsoft YaHei&quot;, 微软雅黑, Arial" size="40px" weight="400" font-style="" opacity="1" y="0" transform="rotate(0)"><tspan id="SvgjsTspan1115" dy="50" x="35"><tspan id="SvgjsTspan1116" style="">7</tspan></tspan></text></g></g><g id="SvgjsG1117" transform="translate(1349.6875076293952,165)"><path id="SvgjsPath1118" d="M 0 35C 0 -11.667 70 -11.667 70 35C 70 81.667 0 81.667 0 35Z" stroke="rgba(255,255,255,1)" stroke-width="1.5" fill-opacity="1" fill="#000000"></path><g id="SvgjsG1119"><text id="SvgjsText1120" font-family="&quot;Microsoft YaHei&quot;, 微软雅黑, Arial" text-anchor="middle" font-size="40px" width="50px" fill="#ffffff" font-weight="400" align="middle" lineHeight="125%" anchor="middle" family="&quot;Microsoft YaHei&quot;, 微软雅黑, Arial" size="40px" weight="400" font-style="" opacity="1" y="0" transform="rotate(0)"><tspan id="SvgjsTspan1121" dy="50" x="35"><tspan id="SvgjsTspan1122" style="">10</tspan></tspan></text></g></g><g id="SvgjsG1123"><path id="SvgjsPath1124" d="M1256.762647940835 87.7384272170458L1177.6123673179557 172.2615727829542" stroke="#323232" stroke-width="1.5" fill="none"></path></g><g id="SvgjsG1125"><path id="SvgjsPath1126" d="M1131.5410119376734 227.08402285743284L1077.509737650554 297" stroke="#323232" stroke-width="1.5" fill="none"></path></g><g id="SvgjsG1127"><path id="SvgjsPath1128" d="M1303.2195029298364 86.29168118759884L1384.1481205098778 164.47888433596898" stroke="#323232" stroke-width="1.5" fill="none"></path></g><g id="SvgjsG1129" transform="translate(1159.6041742960615,295)"><path id="SvgjsPath1130" d="M 0 0L 84 0L 100 16L 100 40L 0 40L 0 0Z" stroke="none" fill-opacity="1" fill="#fff7bc"></path><path id="SvgjsPath1131" d="M 84 0L 84 16L 100 16Z" stroke="none" fill-opacity="1" fill="#e4d089"></path><path id="SvgjsPath1132" d="M 0 0L 84 0L 100 16L 100 40L 0 40L 0 0Z" stroke="none" fill="none"></path><g id="SvgjsG1133"><text id="SvgjsText1134" font-family="&quot;Microsoft YaHei&quot;, 微软雅黑, Arial" text-anchor="middle" font-size="20px" width="80px" fill="#323232" font-weight="400" align="middle" lineHeight="125%" anchor="middle" family="&quot;Microsoft YaHei&quot;, 微软雅黑, Arial" size="20px" weight="400" font-style="" opacity="1" y="2" transform="rotate(0)"><tspan id="SvgjsTspan1135" dy="25" x="50"><tspan id="SvgjsTspan1136" style="">新节点</tspan></tspan></text></g></g><g id="SvgjsG1137" transform="translate(1012.9375076293952,181.38888835906982)"><path id="SvgjsPath1138" d="M 0 0L 84 0L 100 16L 100 37.222L 0 37.222L 0 0Z" stroke="none" fill-opacity="1" fill="#fff7bc"></path><path id="SvgjsPath1139" d="M 84 0L 84 16L 100 16Z" stroke="none" fill-opacity="1" fill="#e4d089"></path><path id="SvgjsPath1140" d="M 0 0L 84 0L 100 16L 100 37.222L 0 37.222L 0 0Z" stroke="none" fill="none"></path><g id="SvgjsG1141"><text id="SvgjsText1142" font-family="&quot;Microsoft YaHei&quot;, 微软雅黑, Arial" text-anchor="middle" font-size="20px" width="80px" fill="#323232" font-weight="400" align="middle" lineHeight="125%" anchor="middle" family="&quot;Microsoft YaHei&quot;, 微软雅黑, Arial" size="20px" weight="400" font-style="" opacity="1" y="0.6110000000000007" transform="rotate(0)"><tspan id="SvgjsTspan1143" dy="25" x="50"><tspan id="SvgjsTspan1144" style="">它叔叔</tspan></tspan></text></g></g><g id="SvgjsG1145" transform="translate(1399.0430526733403,267.5)"><path id="SvgjsPath1146" d="M 0 37C 0 -12.333 161.6 -12.333 161.6 37C 161.6 86.333 0 86.333 0 37Z" stroke="rgba(33,41,48,1)" stroke-width="1.5" fill-opacity="1" fill="#569230"></path><g id="SvgjsG1147"><text id="SvgjsText1148" font-family="&quot;Microsoft YaHei&quot;, 微软雅黑, Arial" text-anchor="middle" font-size="30px" width="142px" fill="#ffffff" font-weight="400" align="middle" lineHeight="125%" anchor="middle" family="&quot;Microsoft YaHei&quot;, 微软雅黑, Arial" size="30px" weight="400" font-style="" opacity="1" y="11.25" transform="rotate(0)"><tspan id="SvgjsTspan1149" dy="37.5" x="81"><tspan id="SvgjsTspan1150" style="">cur_node</tspan></tspan></text></g></g><g id="SvgjsG1151"><path id="SvgjsPath1152" d="M1398.2930526733403 304.5L1349.6875076293952 304.5" stroke-dasharray="7.5,3" stroke="#323232" stroke-width="1.5" fill="none" marker-end="url(#SvgjsMarker1153)"></path></g><g id="SvgjsG1155" transform="translate(1266.6041742960617,269.5)"><path id="SvgjsPath1156" d="M 0 35C 0 -11.667 70 -11.667 70 35C 70 81.667 0 81.667 0 35Z" stroke="rgba(255,255,255,1)" stroke-width="1.5" fill-opacity="1" fill="#e60c0c"></path><g id="SvgjsG1157"><text id="SvgjsText1158" font-family="&quot;Microsoft YaHei&quot;, 微软雅黑, Arial" text-anchor="middle" font-size="40px" width="50px" fill="#ffffff" font-weight="400" align="middle" lineHeight="125%" anchor="middle" family="&quot;Microsoft YaHei&quot;, 微软雅黑, Arial" size="40px" weight="400" font-style="" opacity="1" y="0" transform="rotate(0)"><tspan id="SvgjsTspan1159" dy="50" x="35"><tspan id="SvgjsTspan1160" style="">9</tspan></tspan></text></g></g><g id="SvgjsG1161"><path id="SvgjsPath1162" d="M1363.3533804401645 228.6074132176235L1327.4463497160111 276.84308128697563" stroke="#323232" stroke-width="1.5" fill="none" marker-end="url(#SvgjsMarker1163)"></path></g><g id="SvgjsG1165" transform="matrix(6.123233995736766e-17,1,-1,6.123233995736766e-17,1269.25,399.5625)"><path id="SvgjsPath1166" d="M 0 19.8L 176.25 19.8L 176.25 0L 206.25 30L 176.25 60L 176.25 40.2L 0 40.2L 0 19.8Z" stroke="rgba(33,41,48,1)" stroke-width="1.5" fill-opacity="1" fill="#ffffff"></path><g id="SvgjsG1167"><text id="SvgjsText1168" font-family="&quot;Microsoft YaHei&quot;, 微软雅黑, Arial" text-anchor="middle" font-size="13px" width="207px" fill="#323232" font-weight="400" align="middle" lineHeight="125%" anchor="middle" family="&quot;Microsoft YaHei&quot;, 微软雅黑, Arial" size="13px" weight="400" font-style="" opacity="1" y="19.375" transform="rotate(0)"></text></g></g><g id="SvgjsG1169" transform="translate(1249.5805621676982,439.24585469563806)"><path id="SvgjsPath1170" d="M 0 0L 161.867 0L 161.867 113L 0 113Z" stroke="none" fill="none"></path><g id="SvgjsG1171"><text id="SvgjsText1172" font-family="&quot;Microsoft YaHei&quot;, 微软雅黑, Arial" text-anchor="middle" font-size="30px" width="162px" fill="#323232" font-weight="400" align="middle" lineHeight="125%" anchor="middle" family="&quot;Microsoft YaHei&quot;, 微软雅黑, Arial" size="30px" weight="400" font-style="" opacity="1" y="12.25" transform="rotate(0)"><tspan id="SvgjsTspan1173" dy="37.5" x="81"><tspan id="SvgjsTspan1174" style="">更新</tspan></tspan><tspan id="SvgjsTspan1175" dy="37.5" x="81"><tspan id="SvgjsTspan1176" style="">cur_node</tspan></tspan></text></g></g><g id="SvgjsG1177" transform="translate(1225.6875076293954,630.6666717529297)"><path id="SvgjsPath1178" d="M 0 35C 0 -11.667 70 -11.667 70 35C 70 81.667 0 81.667 0 35Z" stroke="rgba(255,255,255,1)" stroke-width="1.5" fill-opacity="1" fill="#e60c0c"></path><g id="SvgjsG1179"><text id="SvgjsText1180" font-family="&quot;Microsoft YaHei&quot;, 微软雅黑, Arial" text-anchor="middle" font-size="40px" width="50px" fill="#ffffff" font-weight="400" align="middle" lineHeight="125%" anchor="middle" family="&quot;Microsoft YaHei&quot;, 微软雅黑, Arial" size="40px" weight="400" font-style="" opacity="1" y="0" transform="rotate(0)"><tspan id="SvgjsTspan1181" dy="50" x="35"><tspan id="SvgjsTspan1182" style="">8</tspan></tspan></text></g></g><g id="SvgjsG1183" transform="translate(1102.6875076293954,770.6666717529297)"><path id="SvgjsPath1184" d="M 0 35C 0 -11.667 70 -11.667 70 35C 70 81.667 0 81.667 0 35Z" stroke="rgba(255,255,255,1)" stroke-width="1.5" fill-opacity="1" fill="#000000"></path><g id="SvgjsG1185"><text id="SvgjsText1186" font-family="&quot;Microsoft YaHei&quot;, 微软雅黑, Arial" text-anchor="middle" font-size="40px" width="50px" fill="#ffffff" font-weight="400" align="middle" lineHeight="125%" anchor="middle" family="&quot;Microsoft YaHei&quot;, 微软雅黑, Arial" size="40px" weight="400" font-style="" opacity="1" y="0" transform="rotate(0)"><tspan id="SvgjsTspan1187" dy="50" x="35"><tspan id="SvgjsTspan1188" style="">7</tspan></tspan></text></g></g><g id="SvgjsG1189" transform="translate(1331.6875076293954,770.6666717529297)"><path id="SvgjsPath1190" d="M 0 35C 0 -11.667 70 -11.667 70 35C 70 81.667 0 81.667 0 35Z" stroke="rgba(255,255,255,1)" stroke-width="1.5" fill-opacity="1" fill="#000000"></path><g id="SvgjsG1191"><text id="SvgjsText1192" font-family="&quot;Microsoft YaHei&quot;, 微软雅黑, Arial" text-anchor="middle" font-size="40px" width="50px" fill="#ffffff" font-weight="400" align="middle" lineHeight="125%" anchor="middle" family="&quot;Microsoft YaHei&quot;, 微软雅黑, Arial" size="40px" weight="400" font-style="" opacity="1" y="0" transform="rotate(0)"><tspan id="SvgjsTspan1193" dy="50" x="35"><tspan id="SvgjsTspan1194" style="">10</tspan></tspan></text></g></g><g id="SvgjsG1195"><path id="SvgjsPath1196" d="M1238.7626479408352 693.4050989699756L1159.6123673179557 777.9282445358838" stroke="#323232" stroke-width="1.5" fill="none"></path></g><g id="SvgjsG1197"><path id="SvgjsPath1198" d="M1113.5410119376736 832.7506946103625L1059.5097376505541 902.6666717529297" stroke="#323232" stroke-width="1.5" fill="none"></path></g><g id="SvgjsG1199"><path id="SvgjsPath1200" d="M1285.2195029298366 691.9583529405285L1366.1481205098778 770.1455560888986" stroke="#323232" stroke-width="1.5" fill="none"></path></g><g id="SvgjsG1201" transform="translate(1141.6041742960615,900.6666717529297)"><path id="SvgjsPath1202" d="M 0 0L 84 0L 100 16L 100 40L 0 40L 0 0Z" stroke="none" fill-opacity="1" fill="#fff7bc"></path><path id="SvgjsPath1203" d="M 84 0L 84 16L 100 16Z" stroke="none" fill-opacity="1" fill="#e4d089"></path><path id="SvgjsPath1204" d="M 0 0L 84 0L 100 16L 100 40L 0 40L 0 0Z" stroke="none" fill="none"></path><g id="SvgjsG1205"><text id="SvgjsText1206" font-family="&quot;Microsoft YaHei&quot;, 微软雅黑, Arial" text-anchor="middle" font-size="20px" width="80px" fill="#323232" font-weight="400" align="middle" lineHeight="125%" anchor="middle" family="&quot;Microsoft YaHei&quot;, 微软雅黑, Arial" size="20px" weight="400" font-style="" opacity="1" y="2" transform="rotate(0)"><tspan id="SvgjsTspan1207" dy="25" x="50"><tspan id="SvgjsTspan1208" style="">新节点</tspan></tspan></text></g></g><g id="SvgjsG1209" transform="translate(994.9375076293954,787.0555601119995)"><path id="SvgjsPath1210" d="M 0 0L 84 0L 100 16L 100 37.222L 0 37.222L 0 0Z" stroke="none" fill-opacity="1" fill="#fff7bc"></path><path id="SvgjsPath1211" d="M 84 0L 84 16L 100 16Z" stroke="none" fill-opacity="1" fill="#e4d089"></path><path id="SvgjsPath1212" d="M 0 0L 84 0L 100 16L 100 37.222L 0 37.222L 0 0Z" stroke="none" fill="none"></path><g id="SvgjsG1213"><text id="SvgjsText1214" font-family="&quot;Microsoft YaHei&quot;, 微软雅黑, Arial" text-anchor="middle" font-size="20px" width="80px" fill="#323232" font-weight="400" align="middle" lineHeight="125%" anchor="middle" family="&quot;Microsoft YaHei&quot;, 微软雅黑, Arial" size="20px" weight="400" font-style="" opacity="1" y="0.6110000000000007" transform="rotate(0)"><tspan id="SvgjsTspan1215" dy="25" x="50"><tspan id="SvgjsTspan1216" style="">它叔叔</tspan></tspan></text></g></g><g id="SvgjsG1217" transform="translate(1358.5430526733403,628.6666717529297)"><path id="SvgjsPath1218" d="M 0 37C 0 -12.333 161.6 -12.333 161.6 37C 161.6 86.333 0 86.333 0 37Z" stroke="rgba(33,41,48,1)" stroke-width="1.5" fill-opacity="1" fill="#569230"></path><g id="SvgjsG1219"><text id="SvgjsText1220" font-family="&quot;Microsoft YaHei&quot;, 微软雅黑, Arial" text-anchor="middle" font-size="30px" width="142px" fill="#ffffff" font-weight="400" align="middle" lineHeight="125%" anchor="middle" family="&quot;Microsoft YaHei&quot;, 微软雅黑, Arial" size="30px" weight="400" font-style="" opacity="1" y="11.25" transform="rotate(0)"><tspan id="SvgjsTspan1221" dy="37.5" x="81"><tspan id="SvgjsTspan1222" style="">cur_node</tspan></tspan></text></g></g><g id="SvgjsG1223"><path id="SvgjsPath1224" d="M1357.7930526733403 665.6666717529297L1309.1875076293954 665.6666717529297" stroke-dasharray="7.5,3" stroke="#323232" stroke-width="1.5" fill="none" marker-end="url(#SvgjsMarker1225)"></path></g><g id="SvgjsG1227" transform="translate(1248.604174296062,875.1666717529297)"><path id="SvgjsPath1228" d="M 0 35C 0 -11.667 70 -11.667 70 35C 70 81.667 0 81.667 0 35Z" stroke="rgba(255,255,255,1)" stroke-width="1.5" fill-opacity="1" fill="#e60c0c"></path><g id="SvgjsG1229"><text id="SvgjsText1230" font-family="&quot;Microsoft YaHei&quot;, 微软雅黑, Arial" text-anchor="middle" font-size="40px" width="50px" fill="#ffffff" font-weight="400" align="middle" lineHeight="125%" anchor="middle" family="&quot;Microsoft YaHei&quot;, 微软雅黑, Arial" size="40px" weight="400" font-style="" opacity="1" y="0" transform="rotate(0)"><tspan id="SvgjsTspan1231" dy="50" x="35"><tspan id="SvgjsTspan1232" style="">9</tspan></tspan></text></g></g><g id="SvgjsG1233"><path id="SvgjsPath1234" d="M1345.3533804401645 834.2740849705533L1309.4463497160114 882.5097530399055" stroke="#323232" stroke-width="1.5" fill="none" marker-end="url(#SvgjsMarker1235)"></path></g><g id="SvgjsG1237" transform="translate(382.54028574625676,632.6666717529297)"><path id="SvgjsPath1238" d="M 0 35C 0 -11.667 70 -11.667 70 35C 70 81.667 0 81.667 0 35Z" stroke="rgba(255,255,255,1)" stroke-width="1.5" fill-opacity="1" fill="#000000"></path><g id="SvgjsG1239"><text id="SvgjsText1240" font-family="&quot;Microsoft YaHei&quot;, 微软雅黑, Arial" text-anchor="middle" font-size="40px" width="50px" fill="#ffffff" font-weight="400" align="middle" lineHeight="125%" anchor="middle" family="&quot;Microsoft YaHei&quot;, 微软雅黑, Arial" size="40px" weight="400" font-style="" opacity="1" y="0" transform="rotate(0)"><tspan id="SvgjsTspan1241" dy="50" x="35"><tspan id="SvgjsTspan1242" style="">8</tspan></tspan></text></g></g><g id="SvgjsG1243" transform="translate(259.54028574625676,772.6666717529299)"><path id="SvgjsPath1244" d="M 0 35C 0 -11.667 70 -11.667 70 35C 70 81.667 0 81.667 0 35Z" stroke="rgba(255,255,255,1)" stroke-width="1.5" fill-opacity="1" fill="#000000"></path><g id="SvgjsG1245"><text id="SvgjsText1246" font-family="&quot;Microsoft YaHei&quot;, 微软雅黑, Arial" text-anchor="middle" font-size="40px" width="50px" fill="#ffffff" font-weight="400" align="middle" lineHeight="125%" anchor="middle" family="&quot;Microsoft YaHei&quot;, 微软雅黑, Arial" size="40px" weight="400" font-style="" opacity="1" y="0" transform="rotate(0)"><tspan id="SvgjsTspan1247" dy="50" x="35"><tspan id="SvgjsTspan1248" style="">7</tspan></tspan></text></g></g><g id="SvgjsG1249" transform="translate(488.54028574625676,772.6666717529299)"><path id="SvgjsPath1250" d="M 0 35C 0 -11.667 70 -11.667 70 35C 70 81.667 0 81.667 0 35Z" stroke="rgba(255,255,255,1)" stroke-width="1.5" fill-opacity="1" fill="#000000"></path><g id="SvgjsG1251"><text id="SvgjsText1252" font-family="&quot;Microsoft YaHei&quot;, 微软雅黑, Arial" text-anchor="middle" font-size="40px" width="50px" fill="#ffffff" font-weight="400" align="middle" lineHeight="125%" anchor="middle" family="&quot;Microsoft YaHei&quot;, 微软雅黑, Arial" size="40px" weight="400" font-style="" opacity="1" y="0" transform="rotate(0)"><tspan id="SvgjsTspan1253" dy="50" x="35"><tspan id="SvgjsTspan1254" style="">10</tspan></tspan></text></g></g><g id="SvgjsG1255"><path id="SvgjsPath1256" d="M395.61542605769665 695.4050989699756L316.46514543481686 779.928244535884" stroke="#323232" stroke-width="1.5" fill="none"></path></g><g id="SvgjsG1257"><path id="SvgjsPath1258" d="M270.393790054535 834.7506946103624L216.36251576741546 904.6666717529297" stroke="#323232" stroke-width="1.5" fill="none"></path></g><g id="SvgjsG1259"><path id="SvgjsPath1260" d="M442.07228104669787 693.9583529405285L523.0008986267393 772.1455560888988" stroke="#323232" stroke-width="1.5" fill="none"></path></g><g id="SvgjsG1261" transform="translate(298.4569524129228,902.6666717529297)"><path id="SvgjsPath1262" d="M 0 0L 84 0L 100 16L 100 40L 0 40L 0 0Z" stroke="none" fill-opacity="1" fill="#fff7bc"></path><path id="SvgjsPath1263" d="M 84 0L 84 16L 100 16Z" stroke="none" fill-opacity="1" fill="#e4d089"></path><path id="SvgjsPath1264" d="M 0 0L 84 0L 100 16L 100 40L 0 40L 0 0Z" stroke="none" fill="none"></path><g id="SvgjsG1265"><text id="SvgjsText1266" font-family="&quot;Microsoft YaHei&quot;, 微软雅黑, Arial" text-anchor="middle" font-size="20px" width="80px" fill="#323232" font-weight="400" align="middle" lineHeight="125%" anchor="middle" family="&quot;Microsoft YaHei&quot;, 微软雅黑, Arial" size="20px" weight="400" font-style="" opacity="1" y="2" transform="rotate(0)"><tspan id="SvgjsTspan1267" dy="25" x="50"><tspan id="SvgjsTspan1268" style="">新节点</tspan></tspan></text></g></g><g id="SvgjsG1269" transform="translate(151.79028574625676,789.0555601119997)"><path id="SvgjsPath1270" d="M 0 0L 84 0L 100 16L 100 37.222L 0 37.222L 0 0Z" stroke="none" fill-opacity="1" fill="#fff7bc"></path><path id="SvgjsPath1271" d="M 84 0L 84 16L 100 16Z" stroke="none" fill-opacity="1" fill="#e4d089"></path><path id="SvgjsPath1272" d="M 0 0L 84 0L 100 16L 100 37.222L 0 37.222L 0 0Z" stroke="none" fill="none"></path><g id="SvgjsG1273"><text id="SvgjsText1274" font-family="&quot;Microsoft YaHei&quot;, 微软雅黑, Arial" text-anchor="middle" font-size="20px" width="80px" fill="#323232" font-weight="400" align="middle" lineHeight="125%" anchor="middle" family="&quot;Microsoft YaHei&quot;, 微软雅黑, Arial" size="20px" weight="400" font-style="" opacity="1" y="0.6110000000000007" transform="rotate(0)"><tspan id="SvgjsTspan1275" dy="25" x="50"><tspan id="SvgjsTspan1276" style="">它叔叔</tspan></tspan></text></g></g><g id="SvgjsG1277" transform="translate(515.3958307902017,630.6666717529297)"><path id="SvgjsPath1278" d="M 0 37C 0 -12.333 161.6 -12.333 161.6 37C 161.6 86.333 0 86.333 0 37Z" stroke="rgba(33,41,48,1)" stroke-width="1.5" fill-opacity="1" fill="#569230"></path><g id="SvgjsG1279"><text id="SvgjsText1280" font-family="&quot;Microsoft YaHei&quot;, 微软雅黑, Arial" text-anchor="middle" font-size="30px" width="142px" fill="#ffffff" font-weight="400" align="middle" lineHeight="125%" anchor="middle" family="&quot;Microsoft YaHei&quot;, 微软雅黑, Arial" size="30px" weight="400" font-style="" opacity="1" y="11.25" transform="rotate(0)"><tspan id="SvgjsTspan1281" dy="37.5" x="81"><tspan id="SvgjsTspan1282" style="">cur_node</tspan></tspan></text></g></g><g id="SvgjsG1283"><path id="SvgjsPath1284" d="M514.6458307902017 667.6666717529297L466.04028574625676 667.6666717529297" stroke-dasharray="7.5,3" stroke="#323232" stroke-width="1.5" fill="none" marker-end="url(#SvgjsMarker1285)"></path></g><g id="SvgjsG1287" transform="translate(405.4569524129233,877.1666717529297)"><path id="SvgjsPath1288" d="M 0 35C 0 -11.667 70 -11.667 70 35C 70 81.667 0 81.667 0 35Z" stroke="rgba(255,255,255,1)" stroke-width="1.5" fill-opacity="1" fill="#e60c0c"></path><g id="SvgjsG1289"><text id="SvgjsText1290" font-family="&quot;Microsoft YaHei&quot;, 微软雅黑, Arial" text-anchor="middle" font-size="40px" width="50px" fill="#ffffff" font-weight="400" align="middle" lineHeight="125%" anchor="middle" family="&quot;Microsoft YaHei&quot;, 微软雅黑, Arial" size="40px" weight="400" font-style="" opacity="1" y="0" transform="rotate(0)"><tspan id="SvgjsTspan1291" dy="50" x="35"><tspan id="SvgjsTspan1292" style="">9</tspan></tspan></text></g></g><g id="SvgjsG1293"><path id="SvgjsPath1294" d="M502.20615855702584 836.2740849705534L466.2991278328726 884.5097530399055" stroke="#323232" stroke-width="1.5" fill="none" marker-end="url(#SvgjsMarker1295)"></path></g><g id="SvgjsG1297" transform="translate(25,510.16667175292946)"><path id="SvgjsPath1298" d="M 0 0L 558.953 0L 558.953 82.5L 0 82.5Z" stroke="none" fill="none"></path><g id="SvgjsG1299"><text id="SvgjsText1300" font-family="&quot;Microsoft YaHei&quot;, 微软雅黑, Arial" text-anchor="middle" font-size="30px" width="559px" fill="#323232" font-weight="400" align="middle" lineHeight="125%" anchor="middle" family="&quot;Microsoft YaHei&quot;, 微软雅黑, Arial" size="30px" weight="400" font-style="" opacity="1" y="15.5" transform="rotate(0)"><tspan id="SvgjsTspan1301" dy="37.5" x="279.5"><tspan id="SvgjsTspan1302" style="">当前节点是根节点，所以置为黑色</tspan></tspan></text></g></g><g id="SvgjsG1303"><path id="SvgjsPath1304" d="M304.6600474893876 593.64958910533C 304.476 632.9207029801213 361.21089592212115 616.910448708355 388.89394801966597 642.3256841221421" stroke-dasharray="1.5,2.25" stroke="#323232" stroke-width="1.5" fill="none" marker-end="url(#SvgjsMarker1305)"></path></g><g id="SvgjsG1307"></g></svg>