<svg id="SvgjsSvg1006" width="2416.571428571429" height="1079.825744913737" xmlns="http://www.w3.org/2000/svg" version="1.1" xmlns:xlink="http://www.w3.org/1999/xlink" xmlns:svgjs="http://svgjs.com/svgjs"><defs id="SvgjsDefs1007"><pattern patternUnits="userSpaceOnUse" id="pattern_mark_0" width="300" height="300"><text x="150" y="100" fill="rgba(229,229,229,0.8)" font-size="18" transform="rotate(-45, 150, 150)" style="dominant-baseline: middle; text-anchor: middle;"></text></pattern><pattern patternUnits="userSpaceOnUse" id="pattern_mark_1" width="300" height="300"><text x="150" y="200" fill="rgba(229,229,229,0.8)" font-size="18" transform="rotate(-45, 150, 150)" style="dominant-baseline: middle; text-anchor: middle;"></text></pattern><marker id="SvgjsMarker1045" markerWidth="13" markerHeight="9" refX="9.5" refY="4.5" viewBox="0 0 13 9" orient="auto" markerUnits="userSpaceOnUse" stroke-dasharray="0,0"><path id="SvgjsPath1046" d="M0,0 L13,4.5 L0,9 L0,0" fill="#323232" stroke="#323232" stroke-width="1"></path></marker><marker id="SvgjsMarker1105" markerWidth="13" markerHeight="9" refX="9.5" refY="4.5" viewBox="0 0 13 9" orient="auto" markerUnits="userSpaceOnUse" stroke-dasharray="0,0"><path id="SvgjsPath1106" d="M0,0 L13,4.5 L0,9 L0,0" fill="#323232" stroke="#323232" stroke-width="1"></path></marker><marker id="SvgjsMarker1197" markerWidth="13" markerHeight="9" refX="9.5" refY="4.5" viewBox="0 0 13 9" orient="auto" markerUnits="userSpaceOnUse" stroke-dasharray="0,0"><path id="SvgjsPath1198" d="M0,0 L13,4.5 L0,9 L0,0" fill="#323232" stroke="#323232" stroke-width="1"></path></marker><marker id="SvgjsMarker1275" markerWidth="13" markerHeight="9" refX="9.5" refY="4.5" viewBox="0 0 13 9" orient="auto" markerUnits="userSpaceOnUse" stroke-dasharray="0,0"><path id="SvgjsPath1276" d="M0,0 L13,4.5 L0,9 L0,0" fill="#323232" stroke="#323232" stroke-width="1"></path></marker><marker id="SvgjsMarker1339" markerWidth="13" markerHeight="9" refX="9.5" refY="4.5" viewBox="0 0 13 9" orient="auto" markerUnits="userSpaceOnUse" stroke-dasharray="0,0"><path id="SvgjsPath1340" d="M0,0 L13,4.5 L0,9 L0,0" fill="#323232" stroke="#323232" stroke-width="1"></path></marker><marker id="SvgjsMarker1381" markerWidth="13" markerHeight="9" refX="9.5" refY="4.5" viewBox="0 0 13 9" orient="auto" markerUnits="userSpaceOnUse" stroke-dasharray="0,0"><path id="SvgjsPath1382" d="M0,0 L13,4.5 L0,9 L0,0" fill="#323232" stroke="#323232" stroke-width="1"></path></marker><marker id="SvgjsMarker1393" markerWidth="13" markerHeight="9" refX="9.5" refY="4.5" viewBox="0 0 13 9" orient="auto" markerUnits="userSpaceOnUse" stroke-dasharray="0,0"><path id="SvgjsPath1394" d="M0,0 L13,4.5 L0,9 L0,0" fill="#323232" stroke="#323232" stroke-width="1"></path></marker></defs><rect id="svgbackgroundid" width="2416.571428571429" height="1079.825744913737" fill="transparent"></rect><rect id="SvgjsRect1009" width="2416.571428571429" height="1079.825744913737" fill="url(#pattern_mark_0)"></rect><rect id="SvgjsRect1010" width="2416.571428571429" height="1079.825744913737" fill="url(#pattern_mark_1)"></rect><g id="SvgjsG1011" transform="matrix(0.7071067811865474,-0.7071067811865477,0.7071067811865477,0.7071067811865474,210.24362055972566,309.1963997082952)"><path id="SvgjsPath1012" d="M 0 64.64C 0 -21.547 266.826 -21.547 266.826 64.64C 266.826 150.828 0 150.828 0 64.64Z" stroke-dasharray="2,3" stroke="rgba(70,105,234,1)" stroke-width="2" fill="none"></path><g id="SvgjsG1013"><text id="SvgjsText1014" font-family="&quot;Microsoft YaHei&quot;, 微软雅黑, Arial" text-anchor="middle" font-size="30px" width="247px" fill="#323232" font-weight="400" align="middle" lineHeight="125%" anchor="middle" family="&quot;Microsoft YaHei&quot;, 微软雅黑, Arial" size="30px" weight="400" font-style="" opacity="1" y="38.8905" transform="rotate(0)"></text></g></g><g id="SvgjsG1015" transform="translate(258.39999389648443,33.9375)"><path id="SvgjsPath1016" d="M 0 35C 0 -11.667 70 -11.667 70 35C 70 81.667 0 81.667 0 35Z" stroke="rgba(255,255,255,1)" stroke-width="1.5" fill-opacity="1" fill="#000000"></path><g id="SvgjsG1017"><text id="SvgjsText1018" font-family="&quot;Microsoft YaHei&quot;, 微软雅黑, Arial" text-anchor="middle" font-size="30px" width="50px" fill="#ffffff" font-weight="400" align="middle" lineHeight="125%" anchor="middle" family="&quot;Microsoft YaHei&quot;, 微软雅黑, Arial" size="30px" weight="400" font-style="" opacity="1" y="9.25" transform="rotate(0)"><tspan id="SvgjsTspan1019" dy="37.5" x="35"><tspan id="SvgjsTspan1020" style="">7</tspan></tspan></text></g></g><g id="SvgjsG1021" transform="translate(365.39999389648443,164.9375)"><path id="SvgjsPath1022" d="M 0 35C 0 -11.667 70 -11.667 70 35C 70 81.667 0 81.667 0 35Z" stroke="rgba(255,255,255,1)" stroke-width="1.5" fill-opacity="1" fill="#e60c0c"></path><g id="SvgjsG1023"><text id="SvgjsText1024" font-family="&quot;Microsoft YaHei&quot;, 微软雅黑, Arial" text-anchor="middle" font-size="30px" width="50px" fill="#ffffff" font-weight="400" align="middle" lineHeight="125%" anchor="middle" family="&quot;Microsoft YaHei&quot;, 微软雅黑, Arial" size="30px" weight="400" font-style="" opacity="1" y="9.25" transform="rotate(0)"><tspan id="SvgjsTspan1025" dy="37.5" x="35"><tspan id="SvgjsTspan1026" style="">12</tspan></tspan></text></g></g><g id="SvgjsG1027" transform="translate(258.39999389648443,288.9375000000001)"><path id="SvgjsPath1028" d="M 0 35C 0 -11.667 70 -11.667 70 35C 70 81.667 0 81.667 0 35Z" stroke="rgba(255,255,255,1)" stroke-width="1.5" fill-opacity="1" fill="#e60c0c"></path><g id="SvgjsG1029"><text id="SvgjsText1030" font-family="&quot;Microsoft YaHei&quot;, 微软雅黑, Arial" text-anchor="middle" font-size="30px" width="50px" fill="#ffffff" font-weight="400" align="middle" lineHeight="125%" anchor="middle" family="&quot;Microsoft YaHei&quot;, 微软雅黑, Arial" size="30px" weight="400" font-style="" opacity="1" y="9.25" transform="rotate(0)"><tspan id="SvgjsTspan1031" dy="37.5" x="35"><tspan id="SvgjsTspan1032" style="">8</tspan></tspan></text></g></g><g id="SvgjsG1033" transform="translate(25,288.9375000000001)"><path id="SvgjsPath1034" d="M 0 35C 0 -11.667 202.4 -11.667 202.4 35C 202.4 81.667 0 81.667 0 35Z" stroke="rgba(255,255,255,1)" stroke-width="1.5" fill-opacity="1" fill="#7bd144"></path><g id="SvgjsG1035"><text id="SvgjsText1036" font-family="&quot;Microsoft YaHei&quot;, 微软雅黑, Arial" text-anchor="middle" font-size="30px" width="183px" fill="#323232" font-weight="400" align="middle" lineHeight="125%" anchor="middle" family="&quot;Microsoft YaHei&quot;, 微软雅黑, Arial" size="30px" weight="400" font-style="" opacity="1" y="9.25" transform="rotate(0)"><tspan id="SvgjsTspan1037" dy="37.5" x="101.5"><tspan id="SvgjsTspan1038" style="">cur_node</tspan></tspan></text></g></g><g id="SvgjsG1039" transform="translate(170.39999389648443,172.9375)"><path id="SvgjsPath1040" d="M 0 4Q 0 0 4 0L 53 0Q 57 0 57 4L 57 50Q 57 54 53 54L 4 54Q 0 54 0 50Z" stroke="rgba(33,41,48,1)" stroke-width="1.5" fill-opacity="1" fill="#000000"></path><g id="SvgjsG1041"><text id="SvgjsText1042" font-family="&quot;Microsoft YaHei&quot;, 微软雅黑, Arial" text-anchor="middle" font-size="30px" width="37px" fill="#323232" font-weight="400" align="middle" lineHeight="125%" anchor="middle" family="&quot;Microsoft YaHei&quot;, 微软雅黑, Arial" size="30px" weight="400" font-style="" opacity="1" y="1.25" transform="rotate(0)"></text></g></g><g id="SvgjsG1043"><path id="SvgjsPath1044" d="M228.14999389648443 323.9375000000001L255.69999389648444 323.9375000000001" stroke-dasharray="1.5,2.25" stroke="#323232" stroke-width="1.5" fill="none" marker-end="url(#SvgjsMarker1045)"></path></g><g id="SvgjsG1047" transform="translate(63.176945976526156,154.5625)"><path id="SvgjsPath1048" d="M 0 0L 84 0L 100 16L 100 80.375L 0 80.375L 0 0Z" stroke="none" fill-opacity="1" fill="#fff7bc"></path><path id="SvgjsPath1049" d="M 84 0L 84 16L 100 16Z" stroke="none" fill-opacity="1" fill="#e4d089"></path><path id="SvgjsPath1050" d="M 0 0L 84 0L 100 16L 100 80.375L 0 80.375L 0 0Z" stroke="none" fill="none"></path><g id="SvgjsG1051"><text id="SvgjsText1052" font-family="&quot;Microsoft YaHei&quot;, 微软雅黑, Arial" text-anchor="middle" font-size="30px" width="80px" fill="#323232" font-weight="400" align="middle" lineHeight="125%" anchor="middle" family="&quot;Microsoft YaHei&quot;, 微软雅黑, Arial" size="30px" weight="400" font-style="" opacity="1" y="-4.0625" transform="rotate(0)"><tspan id="SvgjsTspan1053" dy="37.5" x="50"><tspan id="SvgjsTspan1054" style="">叔叔</tspan></tspan><tspan id="SvgjsTspan1055" dy="37.5" x="50"><tspan id="SvgjsTspan1056" style="">节点</tspan></tspan></text></g></g><g id="SvgjsG1057"><path id="SvgjsPath1058" d="M378.65674947458217 228.06349174475463L316.2772736842143 296.1616032335777" stroke="#323232" stroke-width="1.5" fill="none"></path></g><g id="SvgjsG1059"><path id="SvgjsPath1060" d="M318.7643538325276 94.38768177017653L382.3837851796675 169.24894547912277" stroke="#323232" stroke-width="1.5" fill="none"></path></g><g id="SvgjsG1061"><path id="SvgjsPath1062" d="M199.3813495677788 172.36235069963294L266.1827669658584 92.54447221339552" stroke="#323232" stroke-width="1.5" fill="none"></path></g><g id="SvgjsG1063" transform="translate(1118.3999938964844,25.96875)"><path id="SvgjsPath1064" d="M 0 35C 0 -11.667 70 -11.667 70 35C 70 81.667 0 81.667 0 35Z" stroke="rgba(255,255,255,1)" stroke-width="1.5" fill-opacity="1" fill="#000000"></path><g id="SvgjsG1065"><text id="SvgjsText1066" font-family="&quot;Microsoft YaHei&quot;, 微软雅黑, Arial" text-anchor="middle" font-size="30px" width="50px" fill="#ffffff" font-weight="400" align="middle" lineHeight="125%" anchor="middle" family="&quot;Microsoft YaHei&quot;, 微软雅黑, Arial" size="30px" weight="400" font-style="" opacity="1" y="9.25" transform="rotate(0)"><tspan id="SvgjsTspan1067" dy="37.5" x="35"><tspan id="SvgjsTspan1068" style="">7</tspan></tspan></text></g></g><g id="SvgjsG1069" transform="translate(1118.3999938964844,288.9375000000001)"><path id="SvgjsPath1070" d="M 0 35C 0 -11.667 70 -11.667 70 35C 70 81.667 0 81.667 0 35Z" stroke="rgba(255,255,255,1)" stroke-width="1.5" fill-opacity="1" fill="#e60c0c"></path><g id="SvgjsG1071"><text id="SvgjsText1072" font-family="&quot;Microsoft YaHei&quot;, 微软雅黑, Arial" text-anchor="middle" font-size="30px" width="50px" fill="#ffffff" font-weight="400" align="middle" lineHeight="125%" anchor="middle" family="&quot;Microsoft YaHei&quot;, 微软雅黑, Arial" size="30px" weight="400" font-style="" opacity="1" y="9.25" transform="rotate(0)"><tspan id="SvgjsTspan1073" dy="37.5" x="35"><tspan id="SvgjsTspan1074" style="">8</tspan></tspan></text></g></g><g id="SvgjsG1075" transform="translate(1220.7142857142867,402.30208841959643)"><path id="SvgjsPath1076" d="M 0 35C 0 -11.667 70 -11.667 70 35C 70 81.667 0 81.667 0 35Z" stroke="rgba(255,255,255,1)" stroke-width="1.5" fill-opacity="1" fill="#e60c0c"></path><g id="SvgjsG1077"><text id="SvgjsText1078" font-family="&quot;Microsoft YaHei&quot;, 微软雅黑, Arial" text-anchor="middle" font-size="30px" width="50px" fill="#ffffff" font-weight="400" align="middle" lineHeight="125%" anchor="middle" family="&quot;Microsoft YaHei&quot;, 微软雅黑, Arial" size="30px" weight="400" font-style="" opacity="1" y="9.25" transform="rotate(0)"><tspan id="SvgjsTspan1079" dy="37.5" x="35"><tspan id="SvgjsTspan1080" style="">12</tspan></tspan></text></g></g><g id="SvgjsG1081" transform="translate(1269.0190313430064,288.9375000000001)"><path id="SvgjsPath1082" d="M 0 35C 0 -11.667 168.981 -11.667 168.981 35C 168.981 81.667 0 81.667 0 35Z" stroke="rgba(255,255,255,1)" stroke-width="1.5" fill-opacity="1" fill="#7bd144"></path><g id="SvgjsG1083"><text id="SvgjsText1084" font-family="&quot;Microsoft YaHei&quot;, 微软雅黑, Arial" text-anchor="middle" font-size="30px" width="149px" fill="#323232" font-weight="400" align="middle" lineHeight="125%" anchor="middle" family="&quot;Microsoft YaHei&quot;, 微软雅黑, Arial" size="30px" weight="400" font-style="" opacity="1" y="9.25" transform="rotate(0)"><tspan id="SvgjsTspan1085" dy="37.5" x="84.5"><tspan id="SvgjsTspan1086" style="">cur_node</tspan></tspan></text></g></g><g id="SvgjsG1087" transform="translate(1030.3999938964844,164.96875)"><path id="SvgjsPath1088" d="M 0 4Q 0 0 4 0L 53 0Q 57 0 57 4L 57 50Q 57 54 53 54L 4 54Q 0 54 0 50Z" stroke="rgba(33,41,48,1)" stroke-width="1.5" fill-opacity="1" fill="#000000"></path><g id="SvgjsG1089"><text id="SvgjsText1090" font-family="&quot;Microsoft YaHei&quot;, 微软雅黑, Arial" text-anchor="middle" font-size="30px" width="37px" fill="#323232" font-weight="400" align="middle" lineHeight="125%" anchor="middle" family="&quot;Microsoft YaHei&quot;, 微软雅黑, Arial" size="30px" weight="400" font-style="" opacity="1" y="1.25" transform="rotate(0)"></text></g></g><g id="SvgjsG1091" transform="translate(863,171.96875)"><path id="SvgjsPath1092" d="M 0 0L 146.4 0L 162.4 16L 162.4 40L 0 40L 0 0Z" stroke="none" fill-opacity="1" fill="#fff7bc"></path><path id="SvgjsPath1093" d="M 146.4 0L 146.4 16L 162.4 16Z" stroke="none" fill-opacity="1" fill="#e4d089"></path><path id="SvgjsPath1094" d="M 0 0L 146.4 0L 162.4 16L 162.4 40L 0 40L 0 0Z" stroke="none" fill="none"></path><g id="SvgjsG1095"><text id="SvgjsText1096" font-family="&quot;Microsoft YaHei&quot;, 微软雅黑, Arial" text-anchor="middle" font-size="30px" width="143px" fill="#323232" font-weight="400" align="middle" lineHeight="125%" anchor="middle" family="&quot;Microsoft YaHei&quot;, 微软雅黑, Arial" size="30px" weight="400" font-style="" opacity="1" y="-5.75" transform="rotate(0)"><tspan id="SvgjsTspan1097" dy="37.5" x="81.5"><tspan id="SvgjsTspan1098" style="">叔叔节点</tspan></tspan></text></g></g><g id="SvgjsG1099"><path id="SvgjsPath1100" d="M1178.7659091333971 86.41760637389007L1219.3999938964844 133.96875" stroke="#323232" stroke-width="1.5" fill="none"></path></g><g id="SvgjsG1101"><path id="SvgjsPath1102" d="M1059.3813495677787 164.39360069963294L1126.1827669658583 84.57572221339552" stroke="#323232" stroke-width="1.5" fill="none"></path></g><g id="SvgjsG1103"><path id="SvgjsPath1104" d="M1268.2690313430064 323.9375000000001L1191.0999938964844 323.9375000000001" stroke-dasharray="1.5,2.25" stroke="#323232" stroke-width="1.5" fill="none" marker-end="url(#SvgjsMarker1105)"></path></g><g id="SvgjsG1107" transform="translate(437.39999389648443,182.1875)"><path id="SvgjsPath1108" d="M 0 0L 109.6 0L 125.6 16L 125.6 35.5L 0 35.5L 0 0Z" stroke="none" fill-opacity="1" fill="#fff7bc"></path><path id="SvgjsPath1109" d="M 109.6 0L 109.6 16L 125.6 16Z" stroke="none" fill-opacity="1" fill="#e4d089"></path><path id="SvgjsPath1110" d="M 0 0L 109.6 0L 125.6 16L 125.6 35.5L 0 35.5L 0 0Z" stroke="none" fill="none"></path><g id="SvgjsG1111"><text id="SvgjsText1112" font-family="&quot;Microsoft YaHei&quot;, 微软雅黑, Arial" text-anchor="middle" font-size="30px" width="106px" fill="#323232" font-weight="400" align="middle" lineHeight="125%" anchor="middle" family="&quot;Microsoft YaHei&quot;, 微软雅黑, Arial" size="30px" weight="400" font-style="" opacity="1" y="-8" transform="rotate(0)"><tspan id="SvgjsTspan1113" dy="37.5" x="63"><tspan id="SvgjsTspan1114" style="">父节点</tspan></tspan></text></g></g><g id="SvgjsG1115" transform="translate(1298.114279610771,412.80208841959643)"><path id="SvgjsPath1116" d="M 0 0L 147.314 0L 163.314 16L 163.314 49L 0 49L 0 0Z" stroke="none" fill-opacity="1" fill="#fff7bc"></path><path id="SvgjsPath1117" d="M 147.314 0L 147.314 16L 163.314 16Z" stroke="none" fill-opacity="1" fill="#e4d089"></path><path id="SvgjsPath1118" d="M 0 0L 147.314 0L 163.314 16L 163.314 49L 0 49L 0 0Z" stroke="none" fill="none"></path><g id="SvgjsG1119"><text id="SvgjsText1120" font-family="&quot;Microsoft YaHei&quot;, 微软雅黑, Arial" text-anchor="middle" font-size="30px" width="144px" fill="#323232" font-weight="400" align="middle" lineHeight="125%" anchor="middle" family="&quot;Microsoft YaHei&quot;, 微软雅黑, Arial" size="30px" weight="400" font-style="" opacity="1" y="-1.25" transform="rotate(0)"><tspan id="SvgjsTspan1121" dy="37.5" x="82"><tspan id="SvgjsTspan1122" style="">原父节点</tspan></tspan></text></g></g><g id="SvgjsG1123" transform="translate(335.39999389648443,25)"><path id="SvgjsPath1124" d="M 0 0L 84 0L 100 16L 100 77.875L 0 77.875L 0 0Z" stroke="none" fill-opacity="1" fill="#fff7bc"></path><path id="SvgjsPath1125" d="M 84 0L 84 16L 100 16Z" stroke="none" fill-opacity="1" fill="#e4d089"></path><path id="SvgjsPath1126" d="M 0 0L 84 0L 100 16L 100 77.875L 0 77.875L 0 0Z" stroke="none" fill="none"></path><g id="SvgjsG1127"><text id="SvgjsText1128" font-family="&quot;Microsoft YaHei&quot;, 微软雅黑, Arial" text-anchor="middle" font-size="30px" width="80px" fill="#323232" font-weight="400" align="middle" lineHeight="125%" anchor="middle" family="&quot;Microsoft YaHei&quot;, 微软雅黑, Arial" size="30px" weight="400" font-style="" opacity="1" y="-5.3125" transform="rotate(0)"><tspan id="SvgjsTspan1129" dy="37.5" x="50"><tspan id="SvgjsTspan1130" style="">爷爷</tspan></tspan><tspan id="SvgjsTspan1131" dy="37.5" x="50"><tspan id="SvgjsTspan1132" style="">节点</tspan></tspan></text></g></g><g id="SvgjsG1133" transform="translate(1188.3999938964844,36.46875)"><path id="SvgjsPath1134" d="M 0 0L 168.6 0L 184.6 16L 184.6 39L 0 39L 0 0Z" stroke="none" fill-opacity="1" fill="#fff7bc"></path><path id="SvgjsPath1135" d="M 168.6 0L 168.6 16L 184.6 16Z" stroke="none" fill-opacity="1" fill="#e4d089"></path><path id="SvgjsPath1136" d="M 0 0L 168.6 0L 184.6 16L 184.6 39L 0 39L 0 0Z" stroke="none" fill="none"></path><g id="SvgjsG1137"><text id="SvgjsText1138" font-family="&quot;Microsoft YaHei&quot;, 微软雅黑, Arial" text-anchor="middle" font-size="30px" width="165px" fill="#323232" font-weight="400" align="middle" lineHeight="125%" anchor="middle" family="&quot;Microsoft YaHei&quot;, 微软雅黑, Arial" size="30px" weight="400" font-style="" opacity="1" y="-6.25" transform="rotate(0)"><tspan id="SvgjsTspan1139" dy="37.5" x="92.5"><tspan id="SvgjsTspan1140" style="">原爷爷节点</tspan></tspan></text></g></g><g id="SvgjsG1141" transform="translate(630.1777716742621,166.96875)"><path id="SvgjsPath1142" d="M 0 19.8L 177.6 19.8L 177.6 0L 207.6 30L 177.6 60L 177.6 40.2L 0 40.2L 0 19.8Z" stroke="rgba(33,41,48,1)" stroke-width="1.5" fill-opacity="1" fill="#ffffff"></path><g id="SvgjsG1143"><text id="SvgjsText1144" font-family="&quot;Microsoft YaHei&quot;, 微软雅黑, Arial" text-anchor="middle" font-size="30px" width="208px" fill="#323232" font-weight="400" align="middle" lineHeight="125%" anchor="middle" family="&quot;Microsoft YaHei&quot;, 微软雅黑, Arial" size="30px" weight="400" font-style="" opacity="1" y="4.25" transform="rotate(0)"></text></g></g><g id="SvgjsG1145" transform="translate(674.1777716742621,143.21875)"><path id="SvgjsPath1146" d="M 0 0L 100 0L 100 40L 0 40Z" stroke="none" fill="none"></path><g id="SvgjsG1147"><text id="SvgjsText1148" font-family="&quot;Microsoft YaHei&quot;, 微软雅黑, Arial" text-anchor="middle" font-size="30px" width="100px" fill="#323232" font-weight="400" align="middle" lineHeight="125%" anchor="middle" family="&quot;Microsoft YaHei&quot;, 微软雅黑, Arial" size="30px" weight="400" font-style="" opacity="1" y="-5.75" transform="rotate(0)"><tspan id="SvgjsTspan1149" dy="37.5" x="50"><tspan id="SvgjsTspan1150" style="">右旋</tspan></tspan></text></g></g><g id="SvgjsG1151"><path id="SvgjsPath1152" d="M1173.2023955779212 353.84807751118785L1236.3539949185986 406.82892300144636" stroke="#323232" stroke-width="1.5" fill="none"></path></g><g id="SvgjsG1153" transform="translate(1950.3999938964844,28.0401785714285)"><path id="SvgjsPath1154" d="M 0 35C 0 -11.667 70 -11.667 70 35C 70 81.667 0 81.667 0 35Z" stroke="rgba(255,255,255,1)" stroke-width="1.5" fill-opacity="1" fill="#000000"></path><g id="SvgjsG1155"><text id="SvgjsText1156" font-family="&quot;Microsoft YaHei&quot;, 微软雅黑, Arial" text-anchor="middle" font-size="30px" width="50px" fill="#ffffff" font-weight="400" align="middle" lineHeight="125%" anchor="middle" family="&quot;Microsoft YaHei&quot;, 微软雅黑, Arial" size="30px" weight="400" font-style="" opacity="1" y="9.25" transform="rotate(0)"><tspan id="SvgjsTspan1157" dy="37.5" x="35"><tspan id="SvgjsTspan1158" style="">7</tspan></tspan></text></g></g><g id="SvgjsG1159" transform="translate(2057.3999938964844,159.0401785714285)"><path id="SvgjsPath1160" d="M 0 35C 0 -11.667 70 -11.667 70 35C 70 81.667 0 81.667 0 35Z" stroke="rgba(255,255,255,1)" stroke-width="1.5" fill-opacity="1" fill="#e60c0c"></path><g id="SvgjsG1161"><text id="SvgjsText1162" font-family="&quot;Microsoft YaHei&quot;, 微软雅黑, Arial" text-anchor="middle" font-size="30px" width="50px" fill="#ffffff" font-weight="400" align="middle" lineHeight="125%" anchor="middle" family="&quot;Microsoft YaHei&quot;, 微软雅黑, Arial" size="30px" weight="400" font-style="" opacity="1" y="9.25" transform="rotate(0)"><tspan id="SvgjsTspan1163" dy="37.5" x="35"><tspan id="SvgjsTspan1164" style="">8</tspan></tspan></text></g></g><g id="SvgjsG1165" transform="translate(2145.0000000000014,295.89732142857156)"><path id="SvgjsPath1166" d="M 0 35C 0 -11.667 70 -11.667 70 35C 70 81.667 0 81.667 0 35Z" stroke="rgba(255,255,255,1)" stroke-width="1.5" fill-opacity="1" fill="#e60c0c"></path><g id="SvgjsG1167"><text id="SvgjsText1168" font-family="&quot;Microsoft YaHei&quot;, 微软雅黑, Arial" text-anchor="middle" font-size="30px" width="50px" fill="#ffffff" font-weight="400" align="middle" lineHeight="125%" anchor="middle" family="&quot;Microsoft YaHei&quot;, 微软雅黑, Arial" size="30px" weight="400" font-style="" opacity="1" y="9.25" transform="rotate(0)"><tspan id="SvgjsTspan1169" dy="37.5" x="35"><tspan id="SvgjsTspan1170" style="">12</tspan></tspan></text></g></g><g id="SvgjsG1171" transform="translate(2159.3999938964857,159.0401785714285)"><path id="SvgjsPath1172" d="M 0 35C 0 -11.667 160.267 -11.667 160.267 35C 160.267 81.667 0 81.667 0 35Z" stroke="rgba(255,255,255,1)" stroke-width="1.5" fill-opacity="1" fill="#7bd144"></path><g id="SvgjsG1173"><text id="SvgjsText1174" font-family="&quot;Microsoft YaHei&quot;, 微软雅黑, Arial" text-anchor="middle" font-size="30px" width="141px" fill="#323232" font-weight="400" align="middle" lineHeight="125%" anchor="middle" family="&quot;Microsoft YaHei&quot;, 微软雅黑, Arial" size="30px" weight="400" font-style="" opacity="1" y="9.25" transform="rotate(0)"><tspan id="SvgjsTspan1175" dy="37.5" x="80.5"><tspan id="SvgjsTspan1176" style="">cur_node</tspan></tspan></text></g></g><g id="SvgjsG1177" transform="translate(1862.3999938964844,167.0401785714285)"><path id="SvgjsPath1178" d="M 0 4Q 0 0 4 0L 53 0Q 57 0 57 4L 57 50Q 57 54 53 54L 4 54Q 0 54 0 50Z" stroke="rgba(33,41,48,1)" stroke-width="1.5" fill-opacity="1" fill="#000000"></path><g id="SvgjsG1179"><text id="SvgjsText1180" font-family="&quot;Microsoft YaHei&quot;, 微软雅黑, Arial" text-anchor="middle" font-size="30px" width="37px" fill="#323232" font-weight="400" align="middle" lineHeight="125%" anchor="middle" family="&quot;Microsoft YaHei&quot;, 微软雅黑, Arial" size="30px" weight="400" font-style="" opacity="1" y="1.25" transform="rotate(0)"></text></g></g><g id="SvgjsG1181" transform="translate(1753.8999938964844,152.63541666666669)"><path id="SvgjsPath1182" d="M 0 0L 84 0L 100 16L 100 76.405L 0 76.405L 0 0Z" stroke="none" fill-opacity="1" fill="#fff7bc"></path><path id="SvgjsPath1183" d="M 84 0L 84 16L 100 16Z" stroke="none" fill-opacity="1" fill="#e4d089"></path><path id="SvgjsPath1184" d="M 0 0L 84 0L 100 16L 100 76.405L 0 76.405L 0 0Z" stroke="none" fill="none"></path><g id="SvgjsG1185"><text id="SvgjsText1186" font-family="&quot;Microsoft YaHei&quot;, 微软雅黑, Arial" text-anchor="middle" font-size="30px" width="80px" fill="#323232" font-weight="400" align="middle" lineHeight="125%" anchor="middle" family="&quot;Microsoft YaHei&quot;, 微软雅黑, Arial" size="30px" weight="400" font-style="" opacity="1" y="-6.047499999999999" transform="rotate(0)"><tspan id="SvgjsTspan1187" dy="37.5" x="50"><tspan id="SvgjsTspan1188" style="">叔叔</tspan></tspan><tspan id="SvgjsTspan1189" dy="37.5" x="50"><tspan id="SvgjsTspan1190" style="">节点</tspan></tspan></text></g></g><g id="SvgjsG1191"><path id="SvgjsPath1192" d="M2010.7344801112308 88.51445908532736L2070.10546140213 166.09431554119647" stroke="#323232" stroke-width="1.5" fill="none"></path></g><g id="SvgjsG1193"><path id="SvgjsPath1194" d="M1891.3813495677787 166.46502927106144L1958.1827669658583 86.64715078482402" stroke="#323232" stroke-width="1.5" fill="none"></path></g><g id="SvgjsG1195"><path id="SvgjsPath1196" d="M2158.6499938964857 194.0401785714285L2130.0999938964837 194.0401785714285" stroke-dasharray="1.5,2.25" stroke="#323232" stroke-width="1.5" fill="none" marker-end="url(#SvgjsMarker1197)"></path></g><g id="SvgjsG1199" transform="translate(2221.6857081821995,304.04017857142867)"><path id="SvgjsPath1200" d="M 0 0L 150.314 0L 166.314 16L 166.314 49L 0 49L 0 0Z" stroke="none" fill-opacity="1" fill="#fff7bc"></path><path id="SvgjsPath1201" d="M 150.314 0L 150.314 16L 166.314 16Z" stroke="none" fill-opacity="1" fill="#e4d089"></path><path id="SvgjsPath1202" d="M 0 0L 150.314 0L 166.314 16L 166.314 49L 0 49L 0 0Z" stroke="none" fill="none"></path><g id="SvgjsG1203"><text id="SvgjsText1204" font-family="&quot;Microsoft YaHei&quot;, 微软雅黑, Arial" text-anchor="middle" font-size="30px" width="147px" fill="#323232" font-weight="400" align="middle" lineHeight="125%" anchor="middle" family="&quot;Microsoft YaHei&quot;, 微软雅黑, Arial" size="30px" weight="400" font-style="" opacity="1" y="-1.25" transform="rotate(0)"><tspan id="SvgjsTspan1205" dy="37.5" x="83.5"><tspan id="SvgjsTspan1206" style="">原父节点</tspan></tspan></text></g></g><g id="SvgjsG1207" transform="translate(2020.3999938964844,38.5401785714285)"><path id="SvgjsPath1208" d="M 0 0L 173.267 0L 189.267 16L 189.267 39L 0 39L 0 0Z" stroke="none" fill-opacity="1" fill="#fff7bc"></path><path id="SvgjsPath1209" d="M 173.267 0L 173.267 16L 189.267 16Z" stroke="none" fill-opacity="1" fill="#e4d089"></path><path id="SvgjsPath1210" d="M 0 0L 173.267 0L 189.267 16L 189.267 39L 0 39L 0 0Z" stroke="none" fill="none"></path><g id="SvgjsG1211"><text id="SvgjsText1212" font-family="&quot;Microsoft YaHei&quot;, 微软雅黑, Arial" text-anchor="middle" font-size="30px" width="170px" fill="#323232" font-weight="400" align="middle" lineHeight="125%" anchor="middle" family="&quot;Microsoft YaHei&quot;, 微软雅黑, Arial" size="30px" weight="400" font-style="" opacity="1" y="-6.25" transform="rotate(0)"><tspan id="SvgjsTspan1213" dy="37.5" x="95"><tspan id="SvgjsTspan1214" style="">原爷爷节点</tspan></tspan></text></g></g><g id="SvgjsG1215"><path id="SvgjsPath1216" d="M2112.0322625514864 224.10032230625325L2160.8098422307476 300.2745897867849" stroke="#323232" stroke-width="1.5" fill="none"></path></g><g id="SvgjsG1217" transform="matrix(-0.7071067811865477,-0.7071067811865475,0.7071067811865475,-0.7071067811865477,1276.2329248313292,547.7358468594958)"><path id="SvgjsPath1218" d="M 0 64.64C 0 -21.547 313.312 -21.547 313.312 64.64C 313.312 150.828 0 150.828 0 64.64Z" stroke-dasharray="2,3" stroke="rgba(70,105,234,1)" stroke-width="2" fill="none"></path><g id="SvgjsG1219"><text id="SvgjsText1220" font-family="&quot;Microsoft YaHei&quot;, 微软雅黑, Arial" text-anchor="middle" font-size="30px" width="294px" fill="#323232" font-weight="400" align="middle" lineHeight="125%" anchor="middle" family="&quot;Microsoft YaHei&quot;, 微软雅黑, Arial" size="30px" weight="400" font-style="" opacity="1" y="38.8905" transform="rotate(0)"></text></g></g><g id="SvgjsG1221" transform="translate(2007.4166564941406,376.05208841959643)"><path id="SvgjsPath1222" d="M 19.8 0L 40.2 0L 40.2 171.667L 60 171.667L 30 201.667L 0 171.667L 19.8 171.667L 19.8 0Z" stroke="rgba(33,41,48,1)" stroke-width="1.5" fill-opacity="1" fill="#ffffff"></path><g id="SvgjsG1223"><text id="SvgjsText1224" font-family="&quot;Microsoft YaHei&quot;, 微软雅黑, Arial" text-anchor="middle" font-size="30px" width="84px" fill="#323232" font-weight="400" align="middle" lineHeight="125%" anchor="middle" family="&quot;Microsoft YaHei&quot;, 微软雅黑, Arial" size="30px" weight="400" font-style="" opacity="1" y="65" transform="rotate(0)"></text></g></g><g id="SvgjsG1225" transform="translate(1926.999989827474,433.1116020565944)"><path id="SvgjsPath1226" d="M 0 0L 100 0L 100 75L 0 75Z" stroke="none" fill="none"></path><g id="SvgjsG1227"><text id="SvgjsText1228" font-family="&quot;Microsoft YaHei&quot;, 微软雅黑, Arial" text-anchor="middle" font-size="30px" width="100px" fill="#323232" font-weight="400" align="middle" lineHeight="125%" anchor="middle" family="&quot;Microsoft YaHei&quot;, 微软雅黑, Arial" size="30px" weight="400" font-style="" opacity="1" y="-6.75" transform="rotate(0)"><tspan id="SvgjsTspan1229" dy="37.5" x="50"><tspan id="SvgjsTspan1230" style="">左旋</tspan></tspan><tspan id="SvgjsTspan1231" dy="37.5" x="50"><tspan id="SvgjsTspan1232" style="">爷爷</tspan></tspan></text></g></g><g id="SvgjsG1233" transform="translate(1987.3999938964846,843.1830255417603)"><path id="SvgjsPath1234" d="M 0 35C 0 -11.667 70 -11.667 70 35C 70 81.667 0 81.667 0 35Z" stroke="rgba(255,255,255,1)" stroke-width="1.5" fill-opacity="1" fill="#000000"></path><g id="SvgjsG1235"><text id="SvgjsText1236" font-family="&quot;Microsoft YaHei&quot;, 微软雅黑, Arial" text-anchor="middle" font-size="30px" width="50px" fill="#ffffff" font-weight="400" align="middle" lineHeight="125%" anchor="middle" family="&quot;Microsoft YaHei&quot;, 微软雅黑, Arial" size="30px" weight="400" font-style="" opacity="1" y="9.25" transform="rotate(0)"><tspan id="SvgjsTspan1237" dy="37.5" x="35"><tspan id="SvgjsTspan1238" style="">7</tspan></tspan></text></g></g><g id="SvgjsG1239" transform="translate(2057.3999938964844,706.325882684617)"><path id="SvgjsPath1240" d="M 0 35C 0 -11.667 70 -11.667 70 35C 70 81.667 0 81.667 0 35Z" stroke="rgba(255,255,255,1)" stroke-width="1.5" fill-opacity="1" fill="#e60c0c"></path><g id="SvgjsG1241"><text id="SvgjsText1242" font-family="&quot;Microsoft YaHei&quot;, 微软雅黑, Arial" text-anchor="middle" font-size="30px" width="50px" fill="#ffffff" font-weight="400" align="middle" lineHeight="125%" anchor="middle" family="&quot;Microsoft YaHei&quot;, 微软雅黑, Arial" size="30px" weight="400" font-style="" opacity="1" y="9.25" transform="rotate(0)"><tspan id="SvgjsTspan1243" dy="37.5" x="35"><tspan id="SvgjsTspan1244" style="">8</tspan></tspan></text></g></g><g id="SvgjsG1245" transform="translate(2157.666666666668,843.1830255417603)"><path id="SvgjsPath1246" d="M 0 35C 0 -11.667 70 -11.667 70 35C 70 81.667 0 81.667 0 35Z" stroke="rgba(255,255,255,1)" stroke-width="1.5" fill-opacity="1" fill="#e60c0c"></path><g id="SvgjsG1247"><text id="SvgjsText1248" font-family="&quot;Microsoft YaHei&quot;, 微软雅黑, Arial" text-anchor="middle" font-size="30px" width="50px" fill="#ffffff" font-weight="400" align="middle" lineHeight="125%" anchor="middle" family="&quot;Microsoft YaHei&quot;, 微软雅黑, Arial" size="30px" weight="400" font-style="" opacity="1" y="9.25" transform="rotate(0)"><tspan id="SvgjsTspan1249" dy="37.5" x="35"><tspan id="SvgjsTspan1250" style="">12</tspan></tspan></text></g></g><g id="SvgjsG1251" transform="translate(2172.0666605631523,706.325882684617)"><path id="SvgjsPath1252" d="M 0 35C 0 -11.667 190.933 -11.667 190.933 35C 190.933 81.667 0 81.667 0 35Z" stroke="rgba(255,255,255,1)" stroke-width="1.5" fill-opacity="1" fill="#7bd144"></path><g id="SvgjsG1253"><text id="SvgjsText1254" font-family="&quot;Microsoft YaHei&quot;, 微软雅黑, Arial" text-anchor="middle" font-size="30px" width="171px" fill="#323232" font-weight="400" align="middle" lineHeight="125%" anchor="middle" family="&quot;Microsoft YaHei&quot;, 微软雅黑, Arial" size="30px" weight="400" font-style="" opacity="1" y="9.25" transform="rotate(0)"><tspan id="SvgjsTspan1255" dy="37.5" x="95.5"><tspan id="SvgjsTspan1256" style="">cur_node</tspan></tspan></text></g></g><g id="SvgjsG1257" transform="translate(1903.3999938964846,990.3258826846168)"><path id="SvgjsPath1258" d="M 0 4Q 0 0 4 0L 53 0Q 57 0 57 4L 57 50Q 57 54 53 54L 4 54Q 0 54 0 50Z" stroke="rgba(33,41,48,1)" stroke-width="1.5" fill-opacity="1" fill="#000000"></path><g id="SvgjsG1259"><text id="SvgjsText1260" font-family="&quot;Microsoft YaHei&quot;, 微软雅黑, Arial" text-anchor="middle" font-size="30px" width="37px" fill="#323232" font-weight="400" align="middle" lineHeight="125%" anchor="middle" family="&quot;Microsoft YaHei&quot;, 微软雅黑, Arial" size="30px" weight="400" font-style="" opacity="1" y="1.25" transform="rotate(0)"></text></g></g><g id="SvgjsG1261" transform="translate(1798.3999938964846,980.218744913737)"><path id="SvgjsPath1262" d="M 0 0L 84 0L 100 16L 100 74.214L 0 74.214L 0 0Z" stroke="none" fill-opacity="1" fill="#fff7bc"></path><path id="SvgjsPath1263" d="M 84 0L 84 16L 100 16Z" stroke="none" fill-opacity="1" fill="#e4d089"></path><path id="SvgjsPath1264" d="M 0 0L 84 0L 100 16L 100 74.214L 0 74.214L 0 0Z" stroke="none" fill="none"></path><g id="SvgjsG1265"><text id="SvgjsText1266" font-family="&quot;Microsoft YaHei&quot;, 微软雅黑, Arial" text-anchor="middle" font-size="30px" width="80px" fill="#323232" font-weight="400" align="middle" lineHeight="125%" anchor="middle" family="&quot;Microsoft YaHei&quot;, 微软雅黑, Arial" size="30px" weight="400" font-style="" opacity="1" y="-7.143000000000001" transform="rotate(0)"><tspan id="SvgjsTspan1267" dy="37.5" x="50"><tspan id="SvgjsTspan1268" style="">叔叔</tspan></tspan><tspan id="SvgjsTspan1269" dy="37.5" x="50"><tspan id="SvgjsTspan1270" style="">节点</tspan></tspan></text></g></g><g id="SvgjsG1271"><path id="SvgjsPath1272" d="M1932.3364363002686 989.7159498783346L1995.2276802333688 901.8247812610714" stroke="#323232" stroke-width="1.5" fill="none"></path></g><g id="SvgjsG1273"><path id="SvgjsPath1274" d="M2171.3166605631523 741.3258826846171L2130.0999938964833 741.3258826846171" stroke-dasharray="1.5,2.25" stroke="#323232" stroke-width="1.5" fill="none" marker-end="url(#SvgjsMarker1275)"></path></g><g id="SvgjsG1277" transform="translate(2234.352374848866,851.3258826846168)"><path id="SvgjsPath1278" d="M 0 0L 141.219 0L 157.219 16L 157.219 49L 0 49L 0 0Z" stroke="none" fill-opacity="1" fill="#fff7bc"></path><path id="SvgjsPath1279" d="M 141.219 0L 141.219 16L 157.219 16Z" stroke="none" fill-opacity="1" fill="#e4d089"></path><path id="SvgjsPath1280" d="M 0 0L 141.219 0L 157.219 16L 157.219 49L 0 49L 0 0Z" stroke="none" fill="none"></path><g id="SvgjsG1281"><text id="SvgjsText1282" font-family="&quot;Microsoft YaHei&quot;, 微软雅黑, Arial" text-anchor="middle" font-size="30px" width="138px" fill="#323232" font-weight="400" align="middle" lineHeight="125%" anchor="middle" family="&quot;Microsoft YaHei&quot;, 微软雅黑, Arial" size="30px" weight="400" font-style="" opacity="1" y="-1.25" transform="rotate(0)"><tspan id="SvgjsTspan1283" dy="37.5" x="79"><tspan id="SvgjsTspan1284" style="">原父节点</tspan></tspan></text></g></g><g id="SvgjsG1285" transform="translate(1798.3999938964846,861.8258725120904)"><path id="SvgjsPath1286" d="M 0 0L 165.667 0L 181.667 16L 181.667 39L 0 39L 0 0Z" stroke="none" fill-opacity="1" fill="#fff7bc"></path><path id="SvgjsPath1287" d="M 165.667 0L 165.667 16L 181.667 16Z" stroke="none" fill-opacity="1" fill="#e4d089"></path><path id="SvgjsPath1288" d="M 0 0L 165.667 0L 181.667 16L 181.667 39L 0 39L 0 0Z" stroke="none" fill="none"></path><g id="SvgjsG1289"><text id="SvgjsText1290" font-family="&quot;Microsoft YaHei&quot;, 微软雅黑, Arial" text-anchor="middle" font-size="30px" width="162px" fill="#323232" font-weight="400" align="middle" lineHeight="125%" anchor="middle" family="&quot;Microsoft YaHei&quot;, 微软雅黑, Arial" size="30px" weight="400" font-style="" opacity="1" y="-6.25" transform="rotate(0)"><tspan id="SvgjsTspan1291" dy="37.5" x="91"><tspan id="SvgjsTspan1292" style="">原爷爷节点</tspan></tspan></text></g></g><g id="SvgjsG1293"><path id="SvgjsPath1294" d="M2112.0977343409113 771.3389546415957L2173.4110371079887 847.6073656778192" stroke="#323232" stroke-width="1.5" fill="none"></path></g><g id="SvgjsG1295"><path id="SvgjsPath1296" d="M2075.0358338324486 772.9949168735502L2039.572632734562 846.4361581379851" stroke="#323232" stroke-width="1.5" fill="none"></path></g><g id="SvgjsG1297" transform="translate(242.44761294410273,842.2425544375471)"><path id="SvgjsPath1298" d="M 0 35C 0 -11.667 70 -11.667 70 35C 70 81.667 0 81.667 0 35Z" stroke="rgba(255,255,255,1)" stroke-width="1.5" fill-opacity="1" fill="#e60c0c"></path><g id="SvgjsG1299"><text id="SvgjsText1300" font-family="&quot;Microsoft YaHei&quot;, 微软雅黑, Arial" text-anchor="middle" font-size="30px" width="50px" fill="#ffffff" font-weight="400" align="middle" lineHeight="125%" anchor="middle" family="&quot;Microsoft YaHei&quot;, 微软雅黑, Arial" size="30px" weight="400" font-style="" opacity="1" y="9.25" transform="rotate(0)"><tspan id="SvgjsTspan1301" dy="37.5" x="35"><tspan id="SvgjsTspan1302" style="">7</tspan></tspan></text></g></g><g id="SvgjsG1303" transform="translate(321.11427961077015,697.2425544375469)"><path id="SvgjsPath1304" d="M 0 35C 0 -11.667 70 -11.667 70 35C 70 81.667 0 81.667 0 35Z" stroke="rgba(255,255,255,1)" stroke-width="1.5" fill-opacity="1" fill="#000000"></path><g id="SvgjsG1305"><text id="SvgjsText1306" font-family="&quot;Microsoft YaHei&quot;, 微软雅黑, Arial" text-anchor="middle" font-size="30px" width="50px" fill="#ffffff" font-weight="400" align="middle" lineHeight="125%" anchor="middle" family="&quot;Microsoft YaHei&quot;, 微软雅黑, Arial" size="30px" weight="400" font-style="" opacity="1" y="9.25" transform="rotate(0)"><tspan id="SvgjsTspan1307" dy="37.5" x="35"><tspan id="SvgjsTspan1308" style="">8</tspan></tspan></text></g></g><g id="SvgjsG1309" transform="translate(408.7142857142867,834.0996972946903)"><path id="SvgjsPath1310" d="M 0 35C 0 -11.667 70 -11.667 70 35C 70 81.667 0 81.667 0 35Z" stroke="rgba(255,255,255,1)" stroke-width="1.5" fill-opacity="1" fill="#e60c0c"></path><g id="SvgjsG1311"><text id="SvgjsText1312" font-family="&quot;Microsoft YaHei&quot;, 微软雅黑, Arial" text-anchor="middle" font-size="30px" width="50px" fill="#ffffff" font-weight="400" align="middle" lineHeight="125%" anchor="middle" family="&quot;Microsoft YaHei&quot;, 微软雅黑, Arial" size="30px" weight="400" font-style="" opacity="1" y="9.25" transform="rotate(0)"><tspan id="SvgjsTspan1313" dy="37.5" x="35"><tspan id="SvgjsTspan1314" style="">12</tspan></tspan></text></g></g><g id="SvgjsG1315" transform="translate(423.11427961077106,697.2425544375469)"><path id="SvgjsPath1316" d="M 0 35C 0 -11.667 167.052 -11.667 167.052 35C 167.052 81.667 0 81.667 0 35Z" stroke="rgba(255,255,255,1)" stroke-width="1.5" fill-opacity="1" fill="#7bd144"></path><g id="SvgjsG1317"><text id="SvgjsText1318" font-family="&quot;Microsoft YaHei&quot;, 微软雅黑, Arial" text-anchor="middle" font-size="30px" width="148px" fill="#323232" font-weight="400" align="middle" lineHeight="125%" anchor="middle" family="&quot;Microsoft YaHei&quot;, 微软雅黑, Arial" size="30px" weight="400" font-style="" opacity="1" y="9.25" transform="rotate(0)"><tspan id="SvgjsTspan1319" dy="37.5" x="84"><tspan id="SvgjsTspan1320" style="">cur_node</tspan></tspan></text></g></g><g id="SvgjsG1321" transform="translate(154.44761294410284,981.2425544375467)"><path id="SvgjsPath1322" d="M 0 4Q 0 0 4 0L 53 0Q 57 0 57 4L 57 50Q 57 54 53 54L 4 54Q 0 54 0 50Z" stroke="rgba(33,41,48,1)" stroke-width="1.5" fill-opacity="1" fill="#000000"></path><g id="SvgjsG1323"><text id="SvgjsText1324" font-family="&quot;Microsoft YaHei&quot;, 微软雅黑, Arial" text-anchor="middle" font-size="30px" width="37px" fill="#323232" font-weight="400" align="middle" lineHeight="125%" anchor="middle" family="&quot;Microsoft YaHei&quot;, 微软雅黑, Arial" size="30px" weight="400" font-style="" opacity="1" y="1.25" transform="rotate(0)"></text></g></g><g id="SvgjsG1325" transform="translate(49.44761294410279,972.1592261904768)"><path id="SvgjsPath1326" d="M 0 0L 84 0L 100 16L 100 72.167L 0 72.167L 0 0Z" stroke="none" fill-opacity="1" fill="#fff7bc"></path><path id="SvgjsPath1327" d="M 84 0L 84 16L 100 16Z" stroke="none" fill-opacity="1" fill="#e4d089"></path><path id="SvgjsPath1328" d="M 0 0L 84 0L 100 16L 100 72.167L 0 72.167L 0 0Z" stroke="none" fill="none"></path><g id="SvgjsG1329"><text id="SvgjsText1330" font-family="&quot;Microsoft YaHei&quot;, 微软雅黑, Arial" text-anchor="middle" font-size="30px" width="80px" fill="#323232" font-weight="400" align="middle" lineHeight="125%" anchor="middle" family="&quot;Microsoft YaHei&quot;, 微软雅黑, Arial" size="30px" weight="400" font-style="" opacity="1" y="-8.1665" transform="rotate(0)"><tspan id="SvgjsTspan1331" dy="37.5" x="50"><tspan id="SvgjsTspan1332" style="">叔叔</tspan></tspan><tspan id="SvgjsTspan1333" dy="37.5" x="50"><tspan id="SvgjsTspan1334" style="">节点</tspan></tspan></text></g></g><g id="SvgjsG1335"><path id="SvgjsPath1336" d="M183.4289686153971 980.6674051371797L250.23038601347656 900.8495266509426" stroke="#323232" stroke-width="1.5" fill="none"></path></g><g id="SvgjsG1337"><path id="SvgjsPath1338" d="M422.36427961077106 732.242554437547L393.8142796107688 732.242554437547" stroke-dasharray="1.5,2.25" stroke="#323232" stroke-width="1.5" fill="none" marker-end="url(#SvgjsMarker1339)"></path></g><g id="SvgjsG1341" transform="translate(478.71428571428675,842.2425544375471)"><path id="SvgjsPath1342" d="M 0 0L 149.143 0L 165.143 16L 165.143 54L 0 54L 0 0Z" stroke="none" fill-opacity="1" fill="#fff7bc"></path><path id="SvgjsPath1343" d="M 149.143 0L 149.143 16L 165.143 16Z" stroke="none" fill-opacity="1" fill="#e4d089"></path><path id="SvgjsPath1344" d="M 0 0L 149.143 0L 165.143 16L 165.143 54L 0 54L 0 0Z" stroke="none" fill="none"></path><g id="SvgjsG1345"><text id="SvgjsText1346" font-family="&quot;Microsoft YaHei&quot;, 微软雅黑, Arial" text-anchor="middle" font-size="30px" width="146px" fill="#323232" font-weight="400" align="middle" lineHeight="125%" anchor="middle" family="&quot;Microsoft YaHei&quot;, 微软雅黑, Arial" size="30px" weight="400" font-style="" opacity="1" y="1.25" transform="rotate(0)"><tspan id="SvgjsTspan1347" dy="37.5" x="83"><tspan id="SvgjsTspan1348" style="">原父节点</tspan></tspan></text></g></g><g id="SvgjsG1349" transform="translate(36.99999999999983,852.7425442650208)"><path id="SvgjsPath1350" d="M 0 0L 178.114 0L 194.114 16L 194.114 39L 0 39L 0 0Z" stroke="none" fill-opacity="1" fill="#fff7bc"></path><path id="SvgjsPath1351" d="M 178.114 0L 178.114 16L 194.114 16Z" stroke="none" fill-opacity="1" fill="#e4d089"></path><path id="SvgjsPath1352" d="M 0 0L 178.114 0L 194.114 16L 194.114 39L 0 39L 0 0Z" stroke="none" fill="none"></path><g id="SvgjsG1353"><text id="SvgjsText1354" font-family="&quot;Microsoft YaHei&quot;, 微软雅黑, Arial" text-anchor="middle" font-size="30px" width="175px" fill="#323232" font-weight="400" align="middle" lineHeight="125%" anchor="middle" family="&quot;Microsoft YaHei&quot;, 微软雅黑, Arial" size="30px" weight="400" font-style="" opacity="1" y="-6.25" transform="rotate(0)"><tspan id="SvgjsTspan1355" dy="37.5" x="97.5"><tspan id="SvgjsTspan1356" style="">原爷爷节点</tspan></tspan></text></g></g><g id="SvgjsG1357"><path id="SvgjsPath1358" d="M375.74654826577176 762.3026981723717L424.52412794503283 838.4769656529033" stroke="#323232" stroke-width="1.5" fill="none"></path></g><g id="SvgjsG1359"><path id="SvgjsPath1360" d="M338.71990200744716 763.8961446582439L294.65046932146794 845.5111310020077" stroke="#323232" stroke-width="1.5" fill="none"></path></g><g id="SvgjsG1361" transform="translate(810.1238156273268,831.7425442650208)"><path id="SvgjsPath1362" d="M 0 30L 30 0L 30 19.8L 864.876 19.8L 864.876 40.2L 30 40.2L 30 60L 0 30Z" stroke="rgba(33,41,48,1)" stroke-width="1.5" fill-opacity="1" fill="#ffffff"></path><g id="SvgjsG1363"><text id="SvgjsText1364" font-family="&quot;Microsoft YaHei&quot;, 微软雅黑, Arial" text-anchor="middle" font-size="30px" width="865px" fill="#323232" font-weight="400" align="middle" lineHeight="125%" anchor="middle" family="&quot;Microsoft YaHei&quot;, 微软雅黑, Arial" size="30px" weight="400" font-style="" opacity="1" y="4.25" transform="rotate(0)"></text></g></g><g id="SvgjsG1365" transform="translate(1142.123815627327,802.2425544375471)"><path id="SvgjsPath1366" d="M 0 0L 100 0L 100 40L 0 40Z" stroke="none" fill="none"></path><g id="SvgjsG1367"><text id="SvgjsText1368" font-family="&quot;Microsoft YaHei&quot;, 微软雅黑, Arial" text-anchor="middle" font-size="30px" width="100px" fill="#323232" font-weight="400" align="middle" lineHeight="125%" anchor="middle" family="&quot;Microsoft YaHei&quot;, 微软雅黑, Arial" size="30px" weight="400" font-style="" opacity="1" y="-5.75" transform="rotate(0)"><tspan id="SvgjsTspan1369" dy="37.5" x="50"><tspan id="SvgjsTspan1370" style="">变色</tspan></tspan></text></g></g><g id="SvgjsG1371" transform="translate(1814.999989827474,753.9925391787576)"><path id="SvgjsPath1372" d="M 0 0L 100 0L 100 40L 0 40Z" stroke="none" fill="none"></path><g id="SvgjsG1373"><text id="SvgjsText1374" font-family="&quot;Microsoft YaHei&quot;, 微软雅黑, Arial" text-anchor="middle" font-size="30px" width="100px" fill="#323232" font-weight="400" align="middle" lineHeight="125%" anchor="middle" family="&quot;Microsoft YaHei&quot;, 微软雅黑, Arial" size="30px" weight="400" font-style="" opacity="1" y="-24.25" transform="rotate(0)"><tspan id="SvgjsTspan1375" dy="37.5" x="50"><tspan id="SvgjsTspan1376" style="">被旋转</tspan></tspan><tspan id="SvgjsTspan1377" dy="37.5" x="50"><tspan id="SvgjsTspan1378" style="">点</tspan></tspan></text></g></g><g id="SvgjsG1379"><path id="SvgjsPath1380" d="M1915.9994157193742 774.0264196539574C 1966.1031549383317 773.9925391787576 2022.3999938964844 792.0798604309027 2022.1146077598469 840.4981503578804" stroke-dasharray="1.5,2.25" stroke="#323232" stroke-width="1.5" fill="none" marker-end="url(#SvgjsMarker1381)"></path></g><g id="SvgjsG1383" transform="translate(2221.899993896486,615.3258826846171)"><path id="SvgjsPath1384" d="M 0 0L 100 0L 100 40L 0 40Z" stroke="none" fill="none"></path><g id="SvgjsG1385"><text id="SvgjsText1386" font-family="&quot;Microsoft YaHei&quot;, 微软雅黑, Arial" text-anchor="middle" font-size="30px" width="100px" fill="#323232" font-weight="400" align="middle" lineHeight="125%" anchor="middle" family="&quot;Microsoft YaHei&quot;, 微软雅黑, Arial" size="30px" weight="400" font-style="" opacity="1" y="-24.25" transform="rotate(0)"><tspan id="SvgjsTspan1387" dy="37.5" x="50"><tspan id="SvgjsTspan1388" style="">旋转中</tspan></tspan><tspan id="SvgjsTspan1389" dy="37.5" x="50"><tspan id="SvgjsTspan1390" style="">心</tspan></tspan></text></g></g><g id="SvgjsG1391"><path id="SvgjsPath1392" d="M2220.901615660194 635.3828115639126C 2168.3981286223366 635.3258826846171 2142.788555360539 668.4493473666778 2114.3953096483115 710.5760545015496" stroke-dasharray="1.5,2.25" stroke="#323232" stroke-width="1.5" fill="none" marker-end="url(#SvgjsMarker1393)"></path></g><g id="SvgjsG1395"><path id="SvgjsPath1396" d="M329.14999389648443 323.9375000000001L723.3999938964844 323.9375000000001L723.3999938964844 323.9375000000001L1117.6499938964844 323.9375000000001" stroke-dasharray="1.5,2.25" stroke="#323232" stroke-width="1.5" fill="none"></path></g><g id="SvgjsG1397" transform="translate(1492.2999877929688,237.7901785714285)"><path id="SvgjsPath1398" d="M 0 19.8L 177.6 19.8L 177.6 0L 207.6 30L 177.6 60L 177.6 40.2L 0 40.2L 0 19.8Z" stroke="rgba(33,41,48,1)" stroke-width="1.5" fill-opacity="1" fill="#ffffff"></path><g id="SvgjsG1399"><text id="SvgjsText1400" font-family="&quot;Microsoft YaHei&quot;, 微软雅黑, Arial" text-anchor="middle" font-size="30px" width="208px" fill="#323232" font-weight="400" align="middle" lineHeight="125%" anchor="middle" family="&quot;Microsoft YaHei&quot;, 微软雅黑, Arial" size="30px" weight="400" font-style="" opacity="1" y="4.25" transform="rotate(0)"></text></g></g><g id="SvgjsG1401" transform="translate(1508,195.2901785714285)"><path id="SvgjsPath1402" d="M 0 0L 147.05 0L 147.05 75L 0 75Z" stroke="none" fill="none"></path><g id="SvgjsG1403"><text id="SvgjsText1404" font-family="&quot;Microsoft YaHei&quot;, 微软雅黑, Arial" text-anchor="middle" font-size="30px" width="148px" fill="#323232" font-weight="400" align="middle" lineHeight="125%" anchor="middle" family="&quot;Microsoft YaHei&quot;, 微软雅黑, Arial" size="30px" weight="400" font-style="" opacity="1" y="11.75" transform="rotate(0)"><tspan id="SvgjsTspan1405" dy="37.5" x="74"><tspan id="SvgjsTspan1406" style="">旋转结果</tspan></tspan></text></g></g><g id="SvgjsG1407"><path id="SvgjsPath1408" d="M2092.3999938964844 229.7901785714285L2092.3999938964844 467.6830306280227L2092.3999938964844 467.6830306280227L2092.3999938964844 705.575882684617" stroke-dasharray="1.5,2.25" stroke="#323232" stroke-width="1.5" fill="none"></path></g><g id="SvgjsG1409"></g></svg>