<svg id="SvgjsSvg1006" width="1564.6748352050781" height="914.8446935017903" xmlns="http://www.w3.org/2000/svg" version="1.1" xmlns:xlink="http://www.w3.org/1999/xlink" xmlns:svgjs="http://svgjs.com/svgjs"><defs id="SvgjsDefs1007"><pattern patternUnits="userSpaceOnUse" id="pattern_mark_0" width="300" height="300"><text x="150" y="100" fill="rgba(229,229,229,0.8)" font-size="18" transform="rotate(-45, 150, 150)" style="dominant-baseline: middle; text-anchor: middle;"></text></pattern><pattern patternUnits="userSpaceOnUse" id="pattern_mark_1" width="300" height="300"><text x="150" y="200" fill="rgba(229,229,229,0.8)" font-size="18" transform="rotate(-45, 150, 150)" style="dominant-baseline: middle; text-anchor: middle;"></text></pattern><marker id="SvgjsMarker1031" markerWidth="13" markerHeight="9" refX="9.5" refY="4.5" viewBox="0 0 13 9" orient="auto" markerUnits="userSpaceOnUse" stroke-dasharray="0,0"><path id="SvgjsPath1032" d="M0,0 L13,4.5 L0,9 L0,0" fill="#323232" stroke="#323232" stroke-width="1"></path></marker><marker id="SvgjsMarker1035" markerWidth="13" markerHeight="9" refX="9.5" refY="4.5" viewBox="0 0 13 9" orient="auto" markerUnits="userSpaceOnUse" stroke-dasharray="0,0"><path id="SvgjsPath1036" d="M0,0 L13,4.5 L0,9 L0,0" fill="#323232" stroke="#323232" stroke-width="1"></path></marker><marker id="SvgjsMarker1045" markerWidth="13" markerHeight="9" refX="9.5" refY="4.5" viewBox="0 0 13 9" orient="auto" markerUnits="userSpaceOnUse" stroke-dasharray="0,0"><path id="SvgjsPath1046" d="M0,0 L13,4.5 L0,9 L0,0" fill="#323232" stroke="#323232" stroke-width="1"></path></marker><marker id="SvgjsMarker1053" markerWidth="13" markerHeight="9" refX="9.5" refY="4.5" viewBox="0 0 13 9" orient="auto" markerUnits="userSpaceOnUse" stroke-dasharray="0,0"><path id="SvgjsPath1054" d="M0,0 L13,4.5 L0,9 L0,0" fill="#323232" stroke="#323232" stroke-width="1"></path></marker><marker id="SvgjsMarker1085" markerWidth="13" markerHeight="9" refX="9.5" refY="4.5" viewBox="0 0 13 9" orient="auto" markerUnits="userSpaceOnUse" stroke-dasharray="0,0"><path id="SvgjsPath1086" d="M0,0 L13,4.5 L0,9 L0,0" fill="#323232" stroke="#323232" stroke-width="1"></path></marker><marker id="SvgjsMarker1089" markerWidth="13" markerHeight="9" refX="9.5" refY="4.5" viewBox="0 0 13 9" orient="auto" markerUnits="userSpaceOnUse" stroke-dasharray="0,0"><path id="SvgjsPath1090" d="M0,0 L13,4.5 L0,9 L0,0" fill="#323232" stroke="#323232" stroke-width="1"></path></marker><marker id="SvgjsMarker1099" markerWidth="13" markerHeight="9" refX="9.5" refY="4.5" viewBox="0 0 13 9" orient="auto" markerUnits="userSpaceOnUse" stroke-dasharray="0,0"><path id="SvgjsPath1100" d="M0,0 L13,4.5 L0,9 L0,0" fill="#323232" stroke="#323232" stroke-width="1"></path></marker><marker id="SvgjsMarker1107" markerWidth="13" markerHeight="9" refX="9.5" refY="4.5" viewBox="0 0 13 9" orient="auto" markerUnits="userSpaceOnUse" stroke-dasharray="0,0"><path id="SvgjsPath1108" d="M0,0 L13,4.5 L0,9 L0,0" fill="#323232" stroke="#323232" stroke-width="1"></path></marker><marker id="SvgjsMarker1129" markerWidth="13" markerHeight="9" refX="9.5" refY="4.5" viewBox="0 0 13 9" orient="auto" markerUnits="userSpaceOnUse" stroke-dasharray="0,0"><path id="SvgjsPath1130" d="M0,0 L13,4.5 L0,9 L0,0" fill="#323232" stroke="#323232" stroke-width="1"></path></marker><marker id="SvgjsMarker1141" markerWidth="13" markerHeight="9" refX="9.5" refY="4.5" viewBox="0 0 13 9" orient="auto" markerUnits="userSpaceOnUse" stroke-dasharray="0,0"><path id="SvgjsPath1142" d="M0,0 L13,4.5 L0,9 L0,0" fill="#323232" stroke="#323232" stroke-width="1"></path></marker><marker id="SvgjsMarker1163" markerWidth="13" markerHeight="9" refX="9.5" refY="4.5" viewBox="0 0 13 9" orient="auto" markerUnits="userSpaceOnUse" stroke-dasharray="0,0"><path id="SvgjsPath1164" d="M0,0 L13,4.5 L0,9 L0,0" fill="#323232" stroke="#323232" stroke-width="1"></path></marker><marker id="SvgjsMarker1173" markerWidth="13" markerHeight="9" refX="9.5" refY="4.5" viewBox="0 0 13 9" orient="auto" markerUnits="userSpaceOnUse" stroke-dasharray="0,0"><path id="SvgjsPath1174" d="M0,0 L13,4.5 L0,9 L0,0" fill="#323232" stroke="#323232" stroke-width="1"></path></marker><marker id="SvgjsMarker1181" markerWidth="13" markerHeight="9" refX="9.5" refY="4.5" viewBox="0 0 13 9" orient="auto" markerUnits="userSpaceOnUse" stroke-dasharray="0,0"><path id="SvgjsPath1182" d="M0,0 L13,4.5 L0,9 L0,0" fill="#323232" stroke="#323232" stroke-width="1"></path></marker><marker id="SvgjsMarker1199" markerWidth="13" markerHeight="9" refX="9.5" refY="4.5" viewBox="0 0 13 9" orient="auto" markerUnits="userSpaceOnUse" stroke-dasharray="0,0"><path id="SvgjsPath1200" d="M0,0 L13,4.5 L0,9 L0,0" fill="#323232" stroke="#323232" stroke-width="1"></path></marker><marker id="SvgjsMarker1211" markerWidth="13" markerHeight="9" refX="9.5" refY="4.5" viewBox="0 0 13 9" orient="auto" markerUnits="userSpaceOnUse" stroke-dasharray="0,0"><path id="SvgjsPath1212" d="M0,0 L13,4.5 L0,9 L0,0" fill="#323232" stroke="#323232" stroke-width="1"></path></marker><marker id="SvgjsMarker1215" markerWidth="13" markerHeight="9" refX="9.5" refY="4.5" viewBox="0 0 13 9" orient="auto" markerUnits="userSpaceOnUse" stroke-dasharray="0,0"><path id="SvgjsPath1216" d="M0,0 L13,4.5 L0,9 L0,0" fill="#323232" stroke="#323232" stroke-width="1"></path></marker><marker id="SvgjsMarker1245" markerWidth="13" markerHeight="9" refX="9.5" refY="4.5" viewBox="0 0 13 9" orient="auto" markerUnits="userSpaceOnUse" stroke-dasharray="0,0"><path id="SvgjsPath1246" d="M0,0 L13,4.5 L0,9 L0,0" fill="#323232" stroke="#323232" stroke-width="1"></path></marker><marker id="SvgjsMarker1255" markerWidth="13" markerHeight="9" refX="9.5" refY="4.5" viewBox="0 0 13 9" orient="auto" markerUnits="userSpaceOnUse" stroke-dasharray="0,0"><path id="SvgjsPath1256" d="M0,0 L13,4.5 L0,9 L0,0" fill="#323232" stroke="#323232" stroke-width="1"></path></marker><marker id="SvgjsMarker1263" markerWidth="13" markerHeight="9" refX="9.5" refY="4.5" viewBox="0 0 13 9" orient="auto" markerUnits="userSpaceOnUse" stroke-dasharray="0,0"><path id="SvgjsPath1264" d="M0,0 L13,4.5 L0,9 L0,0" fill="#323232" stroke="#323232" stroke-width="1"></path></marker><marker id="SvgjsMarker1281" markerWidth="13" markerHeight="9" refX="9.5" refY="4.5" viewBox="0 0 13 9" orient="auto" markerUnits="userSpaceOnUse" stroke-dasharray="0,0"><path id="SvgjsPath1282" d="M0,0 L13,4.5 L0,9 L0,0" fill="#323232" stroke="#323232" stroke-width="1"></path></marker><marker id="SvgjsMarker1293" markerWidth="13" markerHeight="9" refX="9.5" refY="4.5" viewBox="0 0 13 9" orient="auto" markerUnits="userSpaceOnUse" stroke-dasharray="0,0"><path id="SvgjsPath1294" d="M0,0 L13,4.5 L0,9 L0,0" fill="#323232" stroke="#323232" stroke-width="1"></path></marker><marker id="SvgjsMarker1297" markerWidth="13" markerHeight="9" refX="9.5" refY="4.5" viewBox="0 0 13 9" orient="auto" markerUnits="userSpaceOnUse" stroke-dasharray="0,0"><path id="SvgjsPath1298" d="M0,0 L13,4.5 L0,9 L0,0" fill="#323232" stroke="#323232" stroke-width="1"></path></marker></defs><rect id="svgbackgroundid" width="1564.6748352050781" height="914.8446935017903" fill="transparent"></rect><rect id="SvgjsRect1009" width="1564.6748352050781" height="914.8446935017903" fill="url(#pattern_mark_0)"></rect><rect id="SvgjsRect1010" width="1564.6748352050781" height="914.8446935017903" fill="url(#pattern_mark_1)"></rect><g id="SvgjsG1011" transform="translate(199,42.5)"><path id="SvgjsPath1012" d="M 0 35C 0 -11.667 70 -11.667 70 35C 70 81.667 0 81.667 0 35Z" stroke="rgba(255,255,255,1)" stroke-width="1.5" fill-opacity="1" fill="#000000"></path><g id="SvgjsG1013"><text id="SvgjsText1014" font-family="&quot;Microsoft YaHei&quot;, 微软雅黑, Arial" text-anchor="middle" font-size="30px" width="50px" fill="#ffffff" font-weight="400" align="middle" lineHeight="125%" anchor="middle" family="&quot;Microsoft YaHei&quot;, 微软雅黑, Arial" size="30px" weight="400" font-style="" opacity="1" y="9.25" transform="rotate(0)"><tspan id="SvgjsTspan1015" dy="37.5" x="35"><tspan id="SvgjsTspan1016" style="">7</tspan></tspan></text></g></g><g id="SvgjsG1017" transform="translate(279,159.5)"><path id="SvgjsPath1018" d="M 0 35C 0 -11.667 70 -11.667 70 35C 70 81.667 0 81.667 0 35Z" stroke="rgba(255,255,255,1)" stroke-width="1.5" fill-opacity="1" fill="#e60c0c"></path><g id="SvgjsG1019"><text id="SvgjsText1020" font-family="&quot;Microsoft YaHei&quot;, 微软雅黑, Arial" text-anchor="middle" font-size="30px" width="50px" fill="#ffffff" font-weight="400" align="middle" lineHeight="125%" anchor="middle" family="&quot;Microsoft YaHei&quot;, 微软雅黑, Arial" size="30px" weight="400" font-style="" opacity="1" y="9.25" transform="rotate(0)"><tspan id="SvgjsTspan1021" dy="37.5" x="35"><tspan id="SvgjsTspan1022" style="">9</tspan></tspan></text></g></g><g id="SvgjsG1023" transform="translate(353,274.5)"><path id="SvgjsPath1024" d="M 0 35C 0 -11.667 70 -11.667 70 35C 70 81.667 0 81.667 0 35Z" stroke="rgba(255,255,255,1)" stroke-width="1.5" fill-opacity="1" fill="#e60c0c"></path><g id="SvgjsG1025"><text id="SvgjsText1026" font-family="&quot;Microsoft YaHei&quot;, 微软雅黑, Arial" text-anchor="middle" font-size="30px" width="50px" fill="#ffffff" font-weight="400" align="middle" lineHeight="125%" anchor="middle" family="&quot;Microsoft YaHei&quot;, 微软雅黑, Arial" size="30px" weight="400" font-style="" opacity="1" y="9.25" transform="rotate(0)"><tspan id="SvgjsTspan1027" dy="37.5" x="35"><tspan id="SvgjsTspan1028" style="">12</tspan></tspan></text></g></g><g id="SvgjsG1029"><path id="SvgjsPath1030" d="M253.77815373956548 106.87581948833144L293.10969610253255 163.5224245919734" stroke="#323232" stroke-width="1.5" fill="none" marker-end="url(#SvgjsMarker1031)"></path></g><g id="SvgjsG1033"><path id="SvgjsPath1034" d="M332.9221898965483 224.25385820726893L368.949587935212 277.15136659306694" stroke="#323232" stroke-width="1.5" fill="none" marker-end="url(#SvgjsMarker1035)"></path></g><g id="SvgjsG1037" transform="translate(460,274.5)"><path id="SvgjsPath1038" d="M 0 35C 0 -11.667 168.008 -11.667 168.008 35C 168.008 81.667 0 81.667 0 35Z" stroke="rgba(255,255,255,1)" stroke-width="1.5" fill-opacity="1" fill="#7bd144"></path><g id="SvgjsG1039"><text id="SvgjsText1040" font-family="&quot;Microsoft YaHei&quot;, 微软雅黑, Arial" text-anchor="middle" font-size="30px" width="149px" fill="#323232" font-weight="400" align="middle" lineHeight="125%" anchor="middle" family="&quot;Microsoft YaHei&quot;, 微软雅黑, Arial" size="30px" weight="400" font-style="" opacity="1" y="9.25" transform="rotate(0)"><tspan id="SvgjsTspan1041" dy="37.5" x="84.5"><tspan id="SvgjsTspan1042" style="">cur_node</tspan></tspan></text></g></g><g id="SvgjsG1043"><path id="SvgjsPath1044" d="M459.25 309.5L425.70000000000005 309.5" stroke-dasharray="1.5,2.25" stroke="#323232" stroke-width="1.5" fill="none" marker-end="url(#SvgjsMarker1045)"></path></g><g id="SvgjsG1047" transform="translate(138,167.5)"><path id="SvgjsPath1048" d="M 0 4Q 0 0 4 0L 53 0Q 57 0 57 4L 57 50Q 57 54 53 54L 4 54Q 0 54 0 50Z" stroke="rgba(33,41,48,1)" stroke-width="1.5" fill-opacity="1" fill="#000000"></path><g id="SvgjsG1049"><text id="SvgjsText1050" font-family="&quot;Microsoft YaHei&quot;, 微软雅黑, Arial" text-anchor="middle" font-size="30px" width="37px" fill="#323232" font-weight="400" align="middle" lineHeight="125%" anchor="middle" family="&quot;Microsoft YaHei&quot;, 微软雅黑, Arial" size="30px" weight="400" font-style="" opacity="1" y="1.25" transform="rotate(0)"></text></g></g><g id="SvgjsG1051"><path id="SvgjsPath1052" d="M213.71835182300993 106.73752713929548L168.1567355413806 165.36804612012213" stroke="#323232" stroke-width="1.5" fill="none" marker-end="url(#SvgjsMarker1053)"></path></g><g id="SvgjsG1055" transform="translate(25,149.0757344563802)"><path id="SvgjsPath1056" d="M 0 0L 84 0L 100 16L 100 80.424L 0 80.424L 0 0Z" stroke="none" fill-opacity="1" fill="#fff7bc"></path><path id="SvgjsPath1057" d="M 84 0L 84 16L 100 16Z" stroke="none" fill-opacity="1" fill="#e4d089"></path><path id="SvgjsPath1058" d="M 0 0L 84 0L 100 16L 100 80.424L 0 80.424L 0 0Z" stroke="none" fill="none"></path><g id="SvgjsG1059"><text id="SvgjsText1060" font-family="&quot;Microsoft YaHei&quot;, 微软雅黑, Arial" text-anchor="middle" font-size="30px" width="80px" fill="#323232" font-weight="400" align="middle" lineHeight="125%" anchor="middle" family="&quot;Microsoft YaHei&quot;, 微软雅黑, Arial" size="30px" weight="400" font-style="" opacity="1" y="-4.038" transform="rotate(0)"><tspan id="SvgjsTspan1061" dy="37.5" x="50"><tspan id="SvgjsTspan1062" style="">叔叔</tspan></tspan><tspan id="SvgjsTspan1063" dy="37.5" x="50"><tspan id="SvgjsTspan1064" style="">节点</tspan></tspan></text></g></g><g id="SvgjsG1065" transform="translate(1122,55.5)"><path id="SvgjsPath1066" d="M 0 35C 0 -11.667 70 -11.667 70 35C 70 81.667 0 81.667 0 35Z" stroke="rgba(255,255,255,1)" stroke-width="1.5" fill-opacity="1" fill="#000000"></path><g id="SvgjsG1067"><text id="SvgjsText1068" font-family="&quot;Microsoft YaHei&quot;, 微软雅黑, Arial" text-anchor="middle" font-size="30px" width="50px" fill="#ffffff" font-weight="400" align="middle" lineHeight="125%" anchor="middle" family="&quot;Microsoft YaHei&quot;, 微软雅黑, Arial" size="30px" weight="400" font-style="" opacity="1" y="9.25" transform="rotate(0)"><tspan id="SvgjsTspan1069" dy="37.5" x="35"><tspan id="SvgjsTspan1070" style="">7</tspan></tspan></text></g></g><g id="SvgjsG1071" transform="translate(1202,172.5)"><path id="SvgjsPath1072" d="M 0 35C 0 -11.667 70 -11.667 70 35C 70 81.667 0 81.667 0 35Z" stroke="rgba(255,255,255,1)" stroke-width="1.5" fill-opacity="1" fill="#e60c0c"></path><g id="SvgjsG1073"><text id="SvgjsText1074" font-family="&quot;Microsoft YaHei&quot;, 微软雅黑, Arial" text-anchor="middle" font-size="30px" width="50px" fill="#ffffff" font-weight="400" align="middle" lineHeight="125%" anchor="middle" family="&quot;Microsoft YaHei&quot;, 微软雅黑, Arial" size="30px" weight="400" font-style="" opacity="1" y="9.25" transform="rotate(0)"><tspan id="SvgjsTspan1075" dy="37.5" x="35"><tspan id="SvgjsTspan1076" style="">9</tspan></tspan></text></g></g><g id="SvgjsG1077" transform="translate(1276,287.5)"><path id="SvgjsPath1078" d="M 0 35C 0 -11.667 70 -11.667 70 35C 70 81.667 0 81.667 0 35Z" stroke="rgba(255,255,255,1)" stroke-width="1.5" fill-opacity="1" fill="#e60c0c"></path><g id="SvgjsG1079"><text id="SvgjsText1080" font-family="&quot;Microsoft YaHei&quot;, 微软雅黑, Arial" text-anchor="middle" font-size="30px" width="50px" fill="#ffffff" font-weight="400" align="middle" lineHeight="125%" anchor="middle" family="&quot;Microsoft YaHei&quot;, 微软雅黑, Arial" size="30px" weight="400" font-style="" opacity="1" y="9.25" transform="rotate(0)"><tspan id="SvgjsTspan1081" dy="37.5" x="35"><tspan id="SvgjsTspan1082" style="">12</tspan></tspan></text></g></g><g id="SvgjsG1083"><path id="SvgjsPath1084" d="M1176.7781537395656 119.87581948833144L1216.1096961025326 176.5224245919734" stroke="#323232" stroke-width="1.5" fill="none" marker-end="url(#SvgjsMarker1085)"></path></g><g id="SvgjsG1087"><path id="SvgjsPath1088" d="M1255.9221898965484 237.25385820726893L1291.949587935212 290.15136659306694" stroke="#323232" stroke-width="1.5" fill="none" marker-end="url(#SvgjsMarker1089)"></path></g><g id="SvgjsG1091" transform="translate(1383,287.5)"><path id="SvgjsPath1092" d="M 0 35C 0 -11.667 156.675 -11.667 156.675 35C 156.675 81.667 0 81.667 0 35Z" stroke="rgba(255,255,255,1)" stroke-width="1.5" fill-opacity="1" fill="#7bd144"></path><g id="SvgjsG1093"><text id="SvgjsText1094" font-family="&quot;Microsoft YaHei&quot;, 微软雅黑, Arial" text-anchor="middle" font-size="30px" width="137px" fill="#323232" font-weight="400" align="middle" lineHeight="125%" anchor="middle" family="&quot;Microsoft YaHei&quot;, 微软雅黑, Arial" size="30px" weight="400" font-style="" opacity="1" y="9.25" transform="rotate(0)"><tspan id="SvgjsTspan1095" dy="37.5" x="78.5"><tspan id="SvgjsTspan1096" style="">cur_node</tspan></tspan></text></g></g><g id="SvgjsG1097"><path id="SvgjsPath1098" d="M1382.25 322.5L1348.7 322.5" stroke-dasharray="1.5,2.25" stroke="#323232" stroke-width="1.5" fill="none" marker-end="url(#SvgjsMarker1099)"></path></g><g id="SvgjsG1101" transform="translate(1061,180.5)"><path id="SvgjsPath1102" d="M 0 4Q 0 0 4 0L 53 0Q 57 0 57 4L 57 50Q 57 54 53 54L 4 54Q 0 54 0 50Z" stroke="rgba(33,41,48,1)" stroke-width="1.5" fill-opacity="1" fill="#000000"></path><g id="SvgjsG1103"><text id="SvgjsText1104" font-family="&quot;Microsoft YaHei&quot;, 微软雅黑, Arial" text-anchor="middle" font-size="30px" width="37px" fill="#323232" font-weight="400" align="middle" lineHeight="125%" anchor="middle" family="&quot;Microsoft YaHei&quot;, 微软雅黑, Arial" size="30px" weight="400" font-style="" opacity="1" y="1.25" transform="rotate(0)"></text></g></g><g id="SvgjsG1105"><path id="SvgjsPath1106" d="M1136.71835182301 119.73752713929548L1091.1567355413806 178.36804612012213" stroke="#323232" stroke-width="1.5" fill="none" marker-end="url(#SvgjsMarker1107)"></path></g><g id="SvgjsG1109" transform="translate(954.6666666666667,173.63636016845703)"><path id="SvgjsPath1110" d="M 0 0L 84 0L 100 16L 100 67.727L 0 67.727L 0 0Z" stroke="none" fill-opacity="1" fill="#fff7bc"></path><path id="SvgjsPath1111" d="M 84 0L 84 16L 100 16Z" stroke="none" fill-opacity="1" fill="#e4d089"></path><path id="SvgjsPath1112" d="M 0 0L 84 0L 100 16L 100 67.727L 0 67.727L 0 0Z" stroke="none" fill="none"></path><g id="SvgjsG1113"><text id="SvgjsText1114" font-family="&quot;Microsoft YaHei&quot;, 微软雅黑, Arial" text-anchor="middle" font-size="30px" width="80px" fill="#323232" font-weight="400" align="middle" lineHeight="125%" anchor="middle" family="&quot;Microsoft YaHei&quot;, 微软雅黑, Arial" size="30px" weight="400" font-style="" opacity="1" y="-10.386500000000002" transform="rotate(0)"><tspan id="SvgjsTspan1115" dy="37.5" x="50"><tspan id="SvgjsTspan1116" style="">叔叔</tspan></tspan><tspan id="SvgjsTspan1117" dy="37.5" x="50"><tspan id="SvgjsTspan1118" style="">节点</tspan></tspan></text></g></g><g id="SvgjsG1119" transform="translate(914.2000122070312,42.5)"><path id="SvgjsPath1120" d="M 0 0L 100 0L 100 40L 0 40Z" stroke="none" fill="none"></path><g id="SvgjsG1121"><text id="SvgjsText1122" font-family="&quot;Microsoft YaHei&quot;, 微软雅黑, Arial" text-anchor="middle" font-size="30px" width="100px" fill="#323232" font-weight="400" align="middle" lineHeight="125%" anchor="middle" family="&quot;Microsoft YaHei&quot;, 微软雅黑, Arial" size="30px" weight="400" font-style="" opacity="1" y="-24.25" transform="rotate(0)"><tspan id="SvgjsTspan1123" dy="37.5" x="50"><tspan id="SvgjsTspan1124" style="">被旋转</tspan></tspan><tspan id="SvgjsTspan1125" dy="37.5" x="50"><tspan id="SvgjsTspan1126" style="">节点</tspan></tspan></text></g></g><g id="SvgjsG1127"><path id="SvgjsPath1128" d="M1015.1998851551407 62.51594012669693C 1058.6515177093977 62.5 1080.9609202967008 68.77156092781564 1121.2895090573245 79.57864925258997" stroke-dasharray="1.5,2.25" stroke="#323232" stroke-width="1.5" fill="none" marker-end="url(#SvgjsMarker1129)"></path></g><g id="SvgjsG1131" transform="translate(1320.2000122070312,140.5)"><path id="SvgjsPath1132" d="M 0 0L 86 0L 86 40L 0 40Z" stroke="none" fill="none"></path><g id="SvgjsG1133"><text id="SvgjsText1134" font-family="&quot;Microsoft YaHei&quot;, 微软雅黑, Arial" text-anchor="middle" font-size="30px" width="86px" fill="#323232" font-weight="400" align="middle" lineHeight="125%" anchor="middle" family="&quot;Microsoft YaHei&quot;, 微软雅黑, Arial" size="30px" weight="400" font-style="" opacity="1" y="-24.25" transform="rotate(0)"><tspan id="SvgjsTspan1135" dy="37.5" x="43"><tspan id="SvgjsTspan1136" style="">旋转</tspan></tspan><tspan id="SvgjsTspan1137" dy="37.5" x="43"><tspan id="SvgjsTspan1138" style="">中心</tspan></tspan></text></g></g><g id="SvgjsG1139"><path id="SvgjsPath1140" d="M1319.2041237418941 160.59058788554046C 1295.6433327661532 160.5 1284.0132129073177 171.32323641690255 1266.551222390961 184.4683636182766" stroke-dasharray="1.5,2.25" stroke="#323232" stroke-width="1.5" fill="none" marker-end="url(#SvgjsMarker1141)"></path></g><g id="SvgjsG1143" transform="translate(1122,709.25)"><path id="SvgjsPath1144" d="M 0 35C 0 -11.667 70 -11.667 70 35C 70 81.667 0 81.667 0 35Z" stroke="rgba(255,255,255,1)" stroke-width="1.5" fill-opacity="1" fill="#000000"></path><g id="SvgjsG1145"><text id="SvgjsText1146" font-family="&quot;Microsoft YaHei&quot;, 微软雅黑, Arial" text-anchor="middle" font-size="30px" width="50px" fill="#ffffff" font-weight="400" align="middle" lineHeight="125%" anchor="middle" family="&quot;Microsoft YaHei&quot;, 微软雅黑, Arial" size="30px" weight="400" font-style="" opacity="1" y="9.25" transform="rotate(0)"><tspan id="SvgjsTspan1147" dy="37.5" x="35"><tspan id="SvgjsTspan1148" style="">7</tspan></tspan></text></g></g><g id="SvgjsG1149" transform="translate(1193.25,591.25)"><path id="SvgjsPath1150" d="M 0 35C 0 -11.667 70 -11.667 70 35C 70 81.667 0 81.667 0 35Z" stroke="rgba(255,255,255,1)" stroke-width="1.5" fill-opacity="1" fill="#e60c0c"></path><g id="SvgjsG1151"><text id="SvgjsText1152" font-family="&quot;Microsoft YaHei&quot;, 微软雅黑, Arial" text-anchor="middle" font-size="30px" width="50px" fill="#ffffff" font-weight="400" align="middle" lineHeight="125%" anchor="middle" family="&quot;Microsoft YaHei&quot;, 微软雅黑, Arial" size="30px" weight="400" font-style="" opacity="1" y="9.25" transform="rotate(0)"><tspan id="SvgjsTspan1153" dy="37.5" x="35"><tspan id="SvgjsTspan1154" style="">9</tspan></tspan></text></g></g><g id="SvgjsG1155" transform="translate(1267.25,706.25)"><path id="SvgjsPath1156" d="M 0 35C 0 -11.667 70 -11.667 70 35C 70 81.667 0 81.667 0 35Z" stroke="rgba(255,255,255,1)" stroke-width="1.5" fill-opacity="1" fill="#e60c0c"></path><g id="SvgjsG1157"><text id="SvgjsText1158" font-family="&quot;Microsoft YaHei&quot;, 微软雅黑, Arial" text-anchor="middle" font-size="30px" width="50px" fill="#ffffff" font-weight="400" align="middle" lineHeight="125%" anchor="middle" family="&quot;Microsoft YaHei&quot;, 微软雅黑, Arial" size="30px" weight="400" font-style="" opacity="1" y="9.25" transform="rotate(0)"><tspan id="SvgjsTspan1159" dy="37.5" x="35"><tspan id="SvgjsTspan1160" style="">12</tspan></tspan></text></g></g><g id="SvgjsG1161"><path id="SvgjsPath1162" d="M1247.1721898965484 656.0038582072689L1283.199587935212 708.9013665930669" stroke="#323232" stroke-width="1.5" fill="none" marker-end="url(#SvgjsMarker1163)"></path></g><g id="SvgjsG1165" transform="translate(1374.25,706.25)"><path id="SvgjsPath1166" d="M 0 35C 0 -11.667 157.092 -11.667 157.092 35C 157.092 81.667 0 81.667 0 35Z" stroke="rgba(255,255,255,1)" stroke-width="1.5" fill-opacity="1" fill="#7bd144"></path><g id="SvgjsG1167"><text id="SvgjsText1168" font-family="&quot;Microsoft YaHei&quot;, 微软雅黑, Arial" text-anchor="middle" font-size="30px" width="138px" fill="#323232" font-weight="400" align="middle" lineHeight="125%" anchor="middle" family="&quot;Microsoft YaHei&quot;, 微软雅黑, Arial" size="30px" weight="400" font-style="" opacity="1" y="9.25" transform="rotate(0)"><tspan id="SvgjsTspan1169" dy="37.5" x="79"><tspan id="SvgjsTspan1170" style="">cur_node</tspan></tspan></text></g></g><g id="SvgjsG1171"><path id="SvgjsPath1172" d="M1373.5 741.25L1339.95 741.25" stroke-dasharray="1.5,2.25" stroke="#323232" stroke-width="1.5" fill="none" marker-end="url(#SvgjsMarker1173)"></path></g><g id="SvgjsG1175" transform="translate(1061,834.25)"><path id="SvgjsPath1176" d="M 0 4Q 0 0 4 0L 53 0Q 57 0 57 4L 57 50Q 57 54 53 54L 4 54Q 0 54 0 50Z" stroke="rgba(33,41,48,1)" stroke-width="1.5" fill-opacity="1" fill="#000000"></path><g id="SvgjsG1177"><text id="SvgjsText1178" font-family="&quot;Microsoft YaHei&quot;, 微软雅黑, Arial" text-anchor="middle" font-size="30px" width="37px" fill="#323232" font-weight="400" align="middle" lineHeight="125%" anchor="middle" family="&quot;Microsoft YaHei&quot;, 微软雅黑, Arial" size="30px" weight="400" font-style="" opacity="1" y="1.25" transform="rotate(0)"></text></g></g><g id="SvgjsG1179"><path id="SvgjsPath1180" d="M1136.71835182301 773.4875271392955L1091.1567355413806 832.1180461201221" stroke="#323232" stroke-width="1.5" fill="none" marker-end="url(#SvgjsMarker1181)"></path></g><g id="SvgjsG1183" transform="translate(839.3415018717449,832.6553064982097)"><path id="SvgjsPath1184" d="M 0 0L 205.658 0L 221.658 16L 221.658 57.189L 0 57.189L 0 0Z" stroke="none" fill-opacity="1" fill="#fff7bc"></path><path id="SvgjsPath1185" d="M 205.658 0L 205.658 16L 221.658 16Z" stroke="none" fill-opacity="1" fill="#e4d089"></path><path id="SvgjsPath1186" d="M 0 0L 205.658 0L 221.658 16L 221.658 57.189L 0 57.189L 0 0Z" stroke="none" fill="none"></path><g id="SvgjsG1187"><text id="SvgjsText1188" font-family="&quot;Microsoft YaHei&quot;, 微软雅黑, Arial" text-anchor="middle" font-size="30px" width="202px" fill="#323232" font-weight="400" align="middle" lineHeight="125%" anchor="middle" family="&quot;Microsoft YaHei&quot;, 微软雅黑, Arial" size="30px" weight="400" font-style="" opacity="1" y="2.8445" transform="rotate(0)"><tspan id="SvgjsTspan1189" dy="37.5" x="111"><tspan id="SvgjsTspan1190" style="">原来叔叔节点</tspan></tspan></text></g></g><g id="SvgjsG1191" transform="translate(894.6748352050781,765.5)"><path id="SvgjsPath1192" d="M 0 0L 170.825 0L 170.825 40L 0 40Z" stroke="none" fill="none"></path><g id="SvgjsG1193"><text id="SvgjsText1194" font-family="&quot;Microsoft YaHei&quot;, 微软雅黑, Arial" text-anchor="middle" font-size="30px" width="171px" fill="#323232" font-weight="400" align="middle" lineHeight="125%" anchor="middle" family="&quot;Microsoft YaHei&quot;, 微软雅黑, Arial" size="30px" weight="400" font-style="" opacity="1" y="-5.75" transform="rotate(0)"><tspan id="SvgjsTspan1195" dy="37.5" x="85.5"><tspan id="SvgjsTspan1196" style="">被旋转节点</tspan></tspan></text></g></g><g id="SvgjsG1197"><path id="SvgjsPath1198" d="M1066.4960626505786 785.4113478927363C 1091.8298257610065 785.5 1103.1719726180927 773.0455102326525 1124.268469194082 762.3972518692848" stroke-dasharray="1.5,2.25" stroke="#323232" stroke-width="1.5" fill="none" marker-end="url(#SvgjsMarker1199)"></path></g><g id="SvgjsG1201" transform="translate(1311.4500122070312,559.25)"><path id="SvgjsPath1202" d="M 0 0L 86 0L 86 40L 0 40Z" stroke="none" fill="none"></path><g id="SvgjsG1203"><text id="SvgjsText1204" font-family="&quot;Microsoft YaHei&quot;, 微软雅黑, Arial" text-anchor="middle" font-size="30px" width="86px" fill="#323232" font-weight="400" align="middle" lineHeight="125%" anchor="middle" family="&quot;Microsoft YaHei&quot;, 微软雅黑, Arial" size="30px" weight="400" font-style="" opacity="1" y="-24.25" transform="rotate(0)"><tspan id="SvgjsTspan1205" dy="37.5" x="43"><tspan id="SvgjsTspan1206" style="">旋转</tspan></tspan><tspan id="SvgjsTspan1207" dy="37.5" x="43"><tspan id="SvgjsTspan1208" style="">中心</tspan></tspan></text></g></g><g id="SvgjsG1209"><path id="SvgjsPath1210" d="M1310.4541237418941 579.3405878855405C 1286.8933327661532 579.25 1275.2632129073177 590.0732364169025 1257.801222390961 603.2183636182767" stroke-dasharray="1.5,2.25" stroke="#323232" stroke-width="1.5" fill="none" marker-end="url(#SvgjsMarker1211)"></path></g><g id="SvgjsG1213"><path id="SvgjsPath1214" d="M1206.7475495671524 654.3612174118258L1165.6147163791004 708.5238135569399" stroke="#323232" stroke-width="1.5" fill="none" marker-end="url(#SvgjsMarker1215)"></path></g><g id="SvgjsG1217" transform="translate(908.0081685384116,695.5000004768372)"><path id="SvgjsPath1218" d="M 0 0L 192.092 0L 208.092 16L 208.092 41.25L 0 41.25L 0 0Z" stroke="none" fill-opacity="1" fill="#fff7bc"></path><path id="SvgjsPath1219" d="M 192.092 0L 192.092 16L 208.092 16Z" stroke="none" fill-opacity="1" fill="#e4d089"></path><path id="SvgjsPath1220" d="M 0 0L 192.092 0L 208.092 16L 208.092 41.25L 0 41.25L 0 0Z" stroke="none" fill="none"></path><g id="SvgjsG1221"><text id="SvgjsText1222" font-family="&quot;Microsoft YaHei&quot;, 微软雅黑, Arial" text-anchor="middle" font-size="30px" width="189px" fill="#323232" font-weight="400" align="middle" lineHeight="125%" anchor="middle" family="&quot;Microsoft YaHei&quot;, 微软雅黑, Arial" size="30px" weight="400" font-style="" opacity="1" y="-5.125" transform="rotate(0)"><tspan id="SvgjsTspan1223" dy="37.5" x="104.5"><tspan id="SvgjsTspan1224" style="">原来爷爷节点</tspan></tspan></text></g></g><g id="SvgjsG1225" transform="translate(252.49655151367142,702.8446935017903)"><path id="SvgjsPath1226" d="M 0 35C 0 -11.667 70 -11.667 70 35C 70 81.667 0 81.667 0 35Z" stroke="rgba(255,255,255,1)" stroke-width="1.5" fill-opacity="1" fill="#e60c0c"></path><g id="SvgjsG1227"><text id="SvgjsText1228" font-family="&quot;Microsoft YaHei&quot;, 微软雅黑, Arial" text-anchor="middle" font-size="30px" width="50px" fill="#ffffff" font-weight="400" align="middle" lineHeight="125%" anchor="middle" family="&quot;Microsoft YaHei&quot;, 微软雅黑, Arial" size="30px" weight="400" font-style="" opacity="1" y="9.25" transform="rotate(0)"><tspan id="SvgjsTspan1229" dy="37.5" x="35"><tspan id="SvgjsTspan1230" style="">7</tspan></tspan></text></g></g><g id="SvgjsG1231" transform="translate(323.7465515136714,584.8446935017903)"><path id="SvgjsPath1232" d="M 0 35C 0 -11.667 70 -11.667 70 35C 70 81.667 0 81.667 0 35Z" stroke="rgba(255,255,255,1)" stroke-width="1.5" fill-opacity="1" fill="#000000"></path><g id="SvgjsG1233"><text id="SvgjsText1234" font-family="&quot;Microsoft YaHei&quot;, 微软雅黑, Arial" text-anchor="middle" font-size="30px" width="50px" fill="#ffffff" font-weight="400" align="middle" lineHeight="125%" anchor="middle" family="&quot;Microsoft YaHei&quot;, 微软雅黑, Arial" size="30px" weight="400" font-style="" opacity="1" y="9.25" transform="rotate(0)"><tspan id="SvgjsTspan1235" dy="37.5" x="35"><tspan id="SvgjsTspan1236" style="">9</tspan></tspan></text></g></g><g id="SvgjsG1237" transform="translate(397.7465515136714,699.8446935017903)"><path id="SvgjsPath1238" d="M 0 35C 0 -11.667 70 -11.667 70 35C 70 81.667 0 81.667 0 35Z" stroke="rgba(255,255,255,1)" stroke-width="1.5" fill-opacity="1" fill="#e60c0c"></path><g id="SvgjsG1239"><text id="SvgjsText1240" font-family="&quot;Microsoft YaHei&quot;, 微软雅黑, Arial" text-anchor="middle" font-size="30px" width="50px" fill="#ffffff" font-weight="400" align="middle" lineHeight="125%" anchor="middle" family="&quot;Microsoft YaHei&quot;, 微软雅黑, Arial" size="30px" weight="400" font-style="" opacity="1" y="9.25" transform="rotate(0)"><tspan id="SvgjsTspan1241" dy="37.5" x="35"><tspan id="SvgjsTspan1242" style="">12</tspan></tspan></text></g></g><g id="SvgjsG1243"><path id="SvgjsPath1244" d="M377.6687414102197 649.598551709059L413.6961394488832 702.4960600948572" stroke="#323232" stroke-width="1.5" fill="none" marker-end="url(#SvgjsMarker1245)"></path></g><g id="SvgjsG1247" transform="translate(349.4931030273433,819.8446935017903)"><path id="SvgjsPath1248" d="M 0 35C 0 -11.667 182.253 -11.667 182.253 35C 182.253 81.667 0 81.667 0 35Z" stroke="rgba(255,255,255,1)" stroke-width="1.5" fill-opacity="1" fill="#7bd144"></path><g id="SvgjsG1249"><text id="SvgjsText1250" font-family="&quot;Microsoft YaHei&quot;, 微软雅黑, Arial" text-anchor="middle" font-size="30px" width="163px" fill="#323232" font-weight="400" align="middle" lineHeight="125%" anchor="middle" family="&quot;Microsoft YaHei&quot;, 微软雅黑, Arial" size="30px" weight="400" font-style="" opacity="1" y="9.25" transform="rotate(0)"><tspan id="SvgjsTspan1251" dy="37.5" x="91.5"><tspan id="SvgjsTspan1252" style="">cur_node</tspan></tspan></text></g></g><g id="SvgjsG1253"><path id="SvgjsPath1254" d="M440.5034373832509 819.103822981734L433.1665478324044 772.5118273739929" stroke-dasharray="1.5,2.25" stroke="#323232" stroke-width="1.5" fill="none" marker-end="url(#SvgjsMarker1255)"></path></g><g id="SvgjsG1257" transform="translate(191.49655151367142,827.8446935017903)"><path id="SvgjsPath1258" d="M 0 4Q 0 0 4 0L 53 0Q 57 0 57 4L 57 50Q 57 54 53 54L 4 54Q 0 54 0 50Z" stroke="rgba(33,41,48,1)" stroke-width="1.5" fill-opacity="1" fill="#000000"></path><g id="SvgjsG1259"><text id="SvgjsText1260" font-family="&quot;Microsoft YaHei&quot;, 微软雅黑, Arial" text-anchor="middle" font-size="30px" width="37px" fill="#323232" font-weight="400" align="middle" lineHeight="125%" anchor="middle" family="&quot;Microsoft YaHei&quot;, 微软雅黑, Arial" size="30px" weight="400" font-style="" opacity="1" y="1.25" transform="rotate(0)"></text></g></g><g id="SvgjsG1261"><path id="SvgjsPath1262" d="M267.21490333668146 767.0822206410858L221.65328705505203 825.7127396219124" stroke="#323232" stroke-width="1.5" fill="none" marker-end="url(#SvgjsMarker1263)"></path></g><g id="SvgjsG1265" transform="translate(25,834.8446935017903)"><path id="SvgjsPath1266" d="M 0 0L 142.497 0L 158.497 16L 158.497 40L 0 40L 0 0Z" stroke="none" fill-opacity="1" fill="#fff7bc"></path><path id="SvgjsPath1267" d="M 142.497 0L 142.497 16L 158.497 16Z" stroke="none" fill-opacity="1" fill="#e4d089"></path><path id="SvgjsPath1268" d="M 0 0L 142.497 0L 158.497 16L 158.497 40L 0 40L 0 0Z" stroke="none" fill="none"></path><g id="SvgjsG1269"><text id="SvgjsText1270" font-family="&quot;Microsoft YaHei&quot;, 微软雅黑, Arial" text-anchor="middle" font-size="30px" width="139px" fill="#323232" font-weight="400" align="middle" lineHeight="125%" anchor="middle" family="&quot;Microsoft YaHei&quot;, 微软雅黑, Arial" size="30px" weight="400" font-style="" opacity="1" y="-5.75" transform="rotate(0)"><tspan id="SvgjsTspan1271" dy="37.5" x="79.5"><tspan id="SvgjsTspan1272" style="">叔叔节点</tspan></tspan></text></g></g><g id="SvgjsG1273" transform="translate(35,759.0946935017903)"><path id="SvgjsPath1274" d="M 0 0L 160.997 0L 160.997 40L 0 40Z" stroke="none" fill="none"></path><g id="SvgjsG1275"><text id="SvgjsText1276" font-family="&quot;Microsoft YaHei&quot;, 微软雅黑, Arial" text-anchor="middle" font-size="30px" width="161px" fill="#323232" font-weight="400" align="middle" lineHeight="125%" anchor="middle" family="&quot;Microsoft YaHei&quot;, 微软雅黑, Arial" size="30px" weight="400" font-style="" opacity="1" y="-5.75" transform="rotate(0)"><tspan id="SvgjsTspan1277" dy="37.5" x="80.5"><tspan id="SvgjsTspan1278" style="">被旋转节点</tspan></tspan></text></g></g><g id="SvgjsG1279"><path id="SvgjsPath1280" d="M196.99261416425003 779.0060413945266C 222.32637727467795 779.0946935017903 233.66852413176417 766.6402037344428 254.7650207077537 755.9919453710751" stroke-dasharray="1.5,2.25" stroke="#323232" stroke-width="1.5" fill="none" marker-end="url(#SvgjsMarker1281)"></path></g><g id="SvgjsG1283" transform="translate(441.94656372070267,552.8446935017903)"><path id="SvgjsPath1284" d="M 0 0L 86 0L 86 40L 0 40Z" stroke="none" fill="none"></path><g id="SvgjsG1285"><text id="SvgjsText1286" font-family="&quot;Microsoft YaHei&quot;, 微软雅黑, Arial" text-anchor="middle" font-size="30px" width="86px" fill="#323232" font-weight="400" align="middle" lineHeight="125%" anchor="middle" family="&quot;Microsoft YaHei&quot;, 微软雅黑, Arial" size="30px" weight="400" font-style="" opacity="1" y="-24.25" transform="rotate(0)"><tspan id="SvgjsTspan1287" dy="37.5" x="43"><tspan id="SvgjsTspan1288" style="">旋转</tspan></tspan><tspan id="SvgjsTspan1289" dy="37.5" x="43"><tspan id="SvgjsTspan1290" style="">中心</tspan></tspan></text></g></g><g id="SvgjsG1291"><path id="SvgjsPath1292" d="M440.95067525556544 572.9352813873307C 417.38988427982486 572.8446935017903 405.75976442098954 583.6679299186928 388.297773904632 596.813057120067" stroke-dasharray="1.5,2.25" stroke="#323232" stroke-width="1.5" fill="none" marker-end="url(#SvgjsMarker1293)"></path></g><g id="SvgjsG1295"><path id="SvgjsPath1296" d="M337.2441010808235 647.9559109136162L296.11126789277216 702.1185070587302" stroke="#323232" stroke-width="1.5" fill="none" marker-end="url(#SvgjsMarker1297)"></path></g><g id="SvgjsG1299" transform="translate(39,689.0946939786274)"><path id="SvgjsPath1300" d="M 0 0L 191.597 0L 207.597 16L 207.597 41.25L 0 41.25L 0 0Z" stroke="none" fill-opacity="1" fill="#fff7bc"></path><path id="SvgjsPath1301" d="M 191.597 0L 191.597 16L 207.597 16Z" stroke="none" fill-opacity="1" fill="#e4d089"></path><path id="SvgjsPath1302" d="M 0 0L 191.597 0L 207.597 16L 207.597 41.25L 0 41.25L 0 0Z" stroke="none" fill="none"></path><g id="SvgjsG1303"><text id="SvgjsText1304" font-family="&quot;Microsoft YaHei&quot;, 微软雅黑, Arial" text-anchor="middle" font-size="30px" width="188px" fill="#323232" font-weight="400" align="middle" lineHeight="125%" anchor="middle" family="&quot;Microsoft YaHei&quot;, 微软雅黑, Arial" size="30px" weight="400" font-style="" opacity="1" y="-5.125" transform="rotate(0)"><tspan id="SvgjsTspan1305" dy="37.5" x="104"><tspan id="SvgjsTspan1306" style="">原来爷爷节点</tspan></tspan></text></g></g><g id="SvgjsG1307" transform="translate(602.6666666666666,187.5)"><path id="SvgjsPath1308" d="M 0 19.8L 218.6 19.8L 218.6 0L 248.6 30L 218.6 60L 218.6 40.2L 0 40.2L 0 19.8Z" stroke="rgba(33,41,48,1)" stroke-width="1.5" fill-opacity="1" fill="#ffffff"></path><g id="SvgjsG1309"><text id="SvgjsText1310" font-family="&quot;Microsoft YaHei&quot;, 微软雅黑, Arial" text-anchor="middle" font-size="30px" width="249px" fill="#323232" font-weight="400" align="middle" lineHeight="125%" anchor="middle" family="&quot;Microsoft YaHei&quot;, 微软雅黑, Arial" size="30px" weight="400" font-style="" opacity="1" y="4.25" transform="rotate(0)"></text></g></g><g id="SvgjsG1311" transform="translate(669.6000067392986,159.5)"><path id="SvgjsPath1312" d="M 0 0L 100 0L 100 40L 0 40Z" stroke="none" fill="none"></path><g id="SvgjsG1313"><text id="SvgjsText1314" font-family="&quot;Microsoft YaHei&quot;, 微软雅黑, Arial" text-anchor="middle" font-size="30px" width="100px" fill="#323232" font-weight="400" align="middle" lineHeight="125%" anchor="middle" family="&quot;Microsoft YaHei&quot;, 微软雅黑, Arial" size="30px" weight="400" font-style="" opacity="1" y="-5.75" transform="rotate(0)"><tspan id="SvgjsTspan1315" dy="37.5" x="50"><tspan id="SvgjsTspan1316" style="">左旋</tspan></tspan></text></g></g><g id="SvgjsG1317" transform="matrix(6.123233995736766e-17,1,-1,6.123233995736766e-17,1201.2999930381775,342.5666756629944)"><path id="SvgjsPath1318" d="M 0 19.8L 131.717 19.8L 131.717 0L 161.717 30L 131.717 60L 131.717 40.2L 0 40.2L 0 19.8Z" stroke="rgba(33,41,48,1)" stroke-width="1.5" fill-opacity="1" fill="#ffffff"></path><g id="SvgjsG1319"><text id="SvgjsText1320" font-family="&quot;Microsoft YaHei&quot;, 微软雅黑, Arial" text-anchor="middle" font-size="30px" width="162px" fill="#323232" font-weight="400" align="middle" lineHeight="125%" anchor="middle" family="&quot;Microsoft YaHei&quot;, 微软雅黑, Arial" size="30px" weight="400" font-style="" opacity="1" y="4.25" transform="rotate(0)"></text></g></g><g id="SvgjsG1321" transform="translate(1070.2534484863281,379.375)"><path id="SvgjsPath1322" d="M 0 0L 87.747 0L 87.747 75L 0 75Z" stroke="none" fill="none"></path><g id="SvgjsG1323"><text id="SvgjsText1324" font-family="&quot;Microsoft YaHei&quot;, 微软雅黑, Arial" text-anchor="middle" font-size="30px" width="88px" fill="#323232" font-weight="400" align="middle" lineHeight="125%" anchor="middle" family="&quot;Microsoft YaHei&quot;, 微软雅黑, Arial" size="30px" weight="400" font-style="" opacity="1" y="-6.75" transform="rotate(0)"><tspan id="SvgjsTspan1325" dy="37.5" x="44"><tspan id="SvgjsTspan1326" style="">旋转</tspan></tspan><tspan id="SvgjsTspan1327" dy="37.5" x="44"><tspan id="SvgjsTspan1328" style="">结果</tspan></tspan></text></g></g><g id="SvgjsG1329" transform="matrix(-1,1.2246467991473532e-16,-1.2246467991473532e-16,-1,816.2000325520833,755.5)"><path id="SvgjsPath1330" d="M 0 19.8L 183.533 19.8L 183.533 0L 213.533 30L 183.533 60L 183.533 40.2L 0 40.2L 0 19.8Z" stroke="rgba(33,41,48,1)" stroke-width="1.5" fill-opacity="1" fill="#ffffff"></path><g id="SvgjsG1331"><text id="SvgjsText1332" font-family="&quot;Microsoft YaHei&quot;, 微软雅黑, Arial" text-anchor="middle" font-size="30px" width="214px" fill="#323232" font-weight="400" align="middle" lineHeight="125%" anchor="middle" family="&quot;Microsoft YaHei&quot;, 微软雅黑, Arial" size="30px" weight="400" font-style="" opacity="1" y="4.25" transform="rotate(0)"></text></g></g><g id="SvgjsG1333" transform="translate(676.6528346251215,669.25)"><path id="SvgjsPath1334" d="M 0 0L 85.894 0L 85.894 40L 0 40Z" stroke="none" fill="none"></path><g id="SvgjsG1335"><text id="SvgjsText1336" font-family="&quot;Microsoft YaHei&quot;, 微软雅黑, Arial" text-anchor="middle" font-size="30px" width="86px" fill="#323232" font-weight="400" align="middle" lineHeight="125%" anchor="middle" family="&quot;Microsoft YaHei&quot;, 微软雅黑, Arial" size="30px" weight="400" font-style="" opacity="1" y="-5.75" transform="rotate(0)"><tspan id="SvgjsTspan1337" dy="37.5" x="43"><tspan id="SvgjsTspan1338" style="">变色</tspan></tspan></text></g></g><g id="SvgjsG1339"></g></svg>