<svg id="SvgjsSvg1114" width="1210" height="478.2469465467665" xmlns="http://www.w3.org/2000/svg" version="1.1" xmlns:xlink="http://www.w3.org/1999/xlink" xmlns:svgjs="http://svgjs.com/svgjs"><defs id="SvgjsDefs1115"><pattern patternUnits="userSpaceOnUse" id="pattern_mark_0" width="300" height="300"><text x="150" y="100" fill="rgba(229,229,229,0.8)" font-size="18" transform="rotate(-45, 150, 150)" style="dominant-baseline: middle; text-anchor: middle;"></text></pattern><pattern patternUnits="userSpaceOnUse" id="pattern_mark_1" width="300" height="300"><text x="150" y="200" fill="rgba(229,229,229,0.8)" font-size="18" transform="rotate(-45, 150, 150)" style="dominant-baseline: middle; text-anchor: middle;"></text></pattern><marker id="SvgjsMarker1203" markerWidth="13" markerHeight="9" refX="9.5" refY="4.5" viewBox="0 0 13 9" orient="auto" markerUnits="userSpaceOnUse" stroke-dasharray="0,0"><path id="SvgjsPath1204" d="M0,0 L13,4.5 L0,9 L0,0" fill="#323232" stroke="#323232" stroke-width="1"></path></marker><marker id="SvgjsMarker1207" markerWidth="13" markerHeight="9" refX="9.5" refY="4.5" viewBox="0 0 13 9" orient="auto" markerUnits="userSpaceOnUse" stroke-dasharray="0,0"><path id="SvgjsPath1208" d="M0,0 L13,4.5 L0,9 L0,0" fill="#323232" stroke="#323232" stroke-width="1"></path></marker><marker id="SvgjsMarker1219" markerWidth="13" markerHeight="9" refX="9.5" refY="4.5" viewBox="0 0 13 9" orient="auto" markerUnits="userSpaceOnUse" stroke-dasharray="0,0"><path id="SvgjsPath1220" d="M0,0 L13,4.5 L0,9 L0,0" fill="#323232" stroke="#323232" stroke-width="1"></path></marker><marker id="SvgjsMarker1231" markerWidth="13" markerHeight="9" refX="9.5" refY="4.5" viewBox="0 0 13 9" orient="auto" markerUnits="userSpaceOnUse" stroke-dasharray="0,0"><path id="SvgjsPath1232" d="M0,0 L13,4.5 L0,9 L0,0" fill="#323232" stroke="#323232" stroke-width="1"></path></marker></defs><rect id="svgbackgroundid" width="1210" height="478.2469465467665" fill="transparent"></rect><rect id="SvgjsRect1117" width="1210" height="478.2469465467665" fill="url(#pattern_mark_0)"></rect><rect id="SvgjsRect1118" width="1210" height="478.2469465467665" fill="url(#pattern_mark_1)"></rect><g id="SvgjsG1119" transform="translate(248.22222900390614,241.4691450330946)"><path id="SvgjsPath1120" d="M 0 4Q 0 0 4 0L 92 0Q 96 0 96 4L 96 50Q 96 54 92 54L 4 54Q 0 54 0 50Z" stroke="rgba(255,255,255,1)" stroke-width="1.5" fill-opacity="1" fill="#4669ea"></path><g id="SvgjsG1121"><text id="SvgjsText1122" font-family="&quot;Microsoft YaHei&quot;, 微软雅黑, Arial" text-anchor="middle" font-size="20px" width="76px" fill="#ffffff" font-weight="400" align="middle" lineHeight="125%" anchor="middle" family="&quot;Microsoft YaHei&quot;, 微软雅黑, Arial" size="20px" weight="400" font-style="" opacity="1" y="9" transform="rotate(0)"><tspan id="SvgjsTspan1123" dy="25" x="48"><tspan id="SvgjsTspan1124" style="">Type</tspan></tspan></text></g></g><g id="SvgjsG1125" transform="translate(347.05556233723945,241.4691450330946)"><path id="SvgjsPath1126" d="M 0 4Q 0 0 4 0L 92 0Q 96 0 96 4L 96 50Q 96 54 92 54L 4 54Q 0 54 0 50Z" stroke="rgba(255,255,255,1)" stroke-width="1.5" fill-opacity="1" fill="#4669ea"></path><g id="SvgjsG1127"><text id="SvgjsText1128" font-family="&quot;Microsoft YaHei&quot;, 微软雅黑, Arial" text-anchor="middle" font-size="20px" width="76px" fill="#ffffff" font-weight="400" align="middle" lineHeight="125%" anchor="middle" family="&quot;Microsoft YaHei&quot;, 微软雅黑, Arial" size="20px" weight="400" font-style="" opacity="1" y="9" transform="rotate(0)"><tspan id="SvgjsTspan1129" dy="25" x="48"><tspan id="SvgjsTspan1130" style="">Length</tspan></tspan></text></g></g><g id="SvgjsG1131" transform="translate(445.88889567057277,241.4691450330946)"><path id="SvgjsPath1132" d="M 0 4Q 0 0 4 0L 92 0Q 96 0 96 4L 96 50Q 96 54 92 54L 4 54Q 0 54 0 50Z" stroke="rgba(255,255,255,1)" stroke-width="1.5" fill-opacity="1" fill="#4669ea"></path><g id="SvgjsG1133"><text id="SvgjsText1134" font-family="&quot;Microsoft YaHei&quot;, 微软雅黑, Arial" text-anchor="middle" font-size="20px" width="76px" fill="#ffffff" font-weight="400" align="middle" lineHeight="125%" anchor="middle" family="&quot;Microsoft YaHei&quot;, 微软雅黑, Arial" size="20px" weight="400" font-style="" opacity="1" y="9" transform="rotate(0)"><tspan id="SvgjsTspan1135" dy="25" x="48"><tspan id="SvgjsTspan1136" style="">ID</tspan></tspan></text></g></g><g id="SvgjsG1137" transform="translate(549.3675196721002,241.4691450330946)"><path id="SvgjsPath1138" d="M 0 4Q 0 0 4 0L 163.906 0Q 167.906 0 167.906 4L 167.906 50Q 167.906 54 163.906 54L 4 54Q 0 54 0 50Z" stroke="rgba(255,255,255,1)" stroke-width="1.5" fill-opacity="1" fill="#569230"></path><g id="SvgjsG1139"><text id="SvgjsText1140" font-family="&quot;Microsoft YaHei&quot;, 微软雅黑, Arial" text-anchor="middle" font-size="20px" width="148px" fill="#ffffff" font-weight="400" align="middle" lineHeight="125%" anchor="middle" family="&quot;Microsoft YaHei&quot;, 微软雅黑, Arial" size="20px" weight="400" font-style="" opacity="1" y="9" transform="rotate(0)"><tspan id="SvgjsTspan1141" dy="25" x="84"><tspan id="SvgjsTspan1142" style="">Data_Type</tspan></tspan></text></g></g><g id="SvgjsG1143" transform="matrix(6.123233995736766e-17,1,-1,6.123233995736766e-17,537.6666564941406,175.65432739257815)"><path id="SvgjsPath1144" d="M 55 0Q 49.5 0 49.5 9L 49.5 131.5Q 49.5 140.5 33 140.5Q 49.5 140.5 49.5 149.5L 49.5 272Q 49.5 281 55 281" stroke="rgba(33,41,48,1)" stroke-width="1.5" fill="none"></path><path id="SvgjsPath1145" d="M 0 0L 55 0L 55 281L 0 281Z" stroke="none" fill="none"></path><g id="SvgjsG1146"><text id="SvgjsText1147" font-family="&quot;Microsoft YaHei&quot;, 微软雅黑, Arial" text-anchor="end" font-size="13px" width="28px" fill="#323232" font-weight="400" align="middle" lineHeight="125%" anchor="end" family="&quot;Microsoft YaHei&quot;, 微软雅黑, Arial" size="13px" weight="400" font-style="" opacity="1" y="129.875" transform="rotate(0)"></text></g></g><g id="SvgjsG1148" transform="translate(347.05556233723945,165.65432569715716)"><path id="SvgjsPath1149" d="M 0 0L 100 0L 100 40L 0 40Z" stroke="none" fill="none"></path><g id="SvgjsG1150"><text id="SvgjsText1151" font-family="&quot;Microsoft YaHei&quot;, 微软雅黑, Arial" text-anchor="middle" font-size="20px" width="100px" fill="#323232" font-weight="400" align="middle" lineHeight="125%" anchor="middle" family="&quot;Microsoft YaHei&quot;, 微软雅黑, Arial" size="20px" weight="400" font-style="" opacity="1" y="2" transform="rotate(0)"><tspan id="SvgjsTspan1152" dy="25" x="50"><tspan id="SvgjsTspan1153" style="">报文头部</tspan></tspan></text></g></g><g id="SvgjsG1154" transform="matrix(6.123233995736766e-17,1,-1,6.123233995736766e-17,712.8204956054688,175.65432739257815)"><path id="SvgjsPath1155" d="M 55 0Q 49.5 0 49.5 9L 49.5 70.5Q 49.5 79.5 33 79.5Q 49.5 79.5 49.5 88.5L 49.5 150Q 49.5 159 55 159" stroke="rgba(33,41,48,1)" stroke-width="1.5" fill="none"></path><path id="SvgjsPath1156" d="M 0 0L 55 0L 55 159L 0 159Z" stroke="none" fill="none"></path><g id="SvgjsG1157"><text id="SvgjsText1158" font-family="&quot;Microsoft YaHei&quot;, 微软雅黑, Arial" text-anchor="end" font-size="13px" width="28px" fill="#323232" font-weight="400" align="middle" lineHeight="125%" anchor="end" family="&quot;Microsoft YaHei&quot;, 微软雅黑, Arial" size="13px" weight="400" font-style="" opacity="1" y="68.875" transform="rotate(0)"></text></g></g><g id="SvgjsG1159" transform="translate(587.7606905423677,165.65432569715716)"><path id="SvgjsPath1160" d="M 0 0L 100 0L 100 40L 0 40Z" stroke="none" fill="none"></path><g id="SvgjsG1161"><text id="SvgjsText1162" font-family="&quot;Microsoft YaHei&quot;, 微软雅黑, Arial" text-anchor="middle" font-size="20px" width="100px" fill="#323232" font-weight="400" align="middle" lineHeight="125%" anchor="middle" family="&quot;Microsoft YaHei&quot;, 微软雅黑, Arial" size="20px" weight="400" font-style="" opacity="1" y="2" transform="rotate(0)"><tspan id="SvgjsTspan1163" dy="25" x="50"><tspan id="SvgjsTspan1164" style="">类型头部</tspan></tspan></text></g></g><g id="SvgjsG1165" transform="translate(721.6666564941405,241.4691450330946)"><path id="SvgjsPath1166" d="M 0 4Q 0 0 4 0L 324 0Q 328 0 328 4L 328 50Q 328 54 324 54L 4 54Q 0 54 0 50Z" stroke="rgba(255,255,255,1)" stroke-width="1.5" fill-opacity="1" fill="#7bd144"></path><g id="SvgjsG1167"><text id="SvgjsText1168" font-family="&quot;Microsoft YaHei&quot;, 微软雅黑, Arial" text-anchor="middle" font-size="20px" width="308px" fill="#323232" font-weight="400" align="middle" lineHeight="125%" anchor="middle" family="&quot;Microsoft YaHei&quot;, 微软雅黑, Arial" size="20px" weight="400" font-style="" opacity="1" y="9" transform="rotate(0)"><tspan id="SvgjsTspan1169" dy="25" x="164"><tspan id="SvgjsTspan1170" style="">Data</tspan></tspan></text></g></g><g id="SvgjsG1171" transform="matrix(-1.8369701987210297e-16,-1,1,-1.8369701987210297e-16,553.6666259765625,367.3209915161133)"><path id="SvgjsPath1172" d="M 55 0Q 49.5 0 49.5 9L 49.5 237Q 49.5 246 33 246Q 49.5 246 49.5 255L 49.5 483Q 49.5 492 55 492" stroke="rgba(33,41,48,1)" stroke-width="1.5" fill="none"></path><path id="SvgjsPath1173" d="M 0 0L 55 0L 55 492L 0 492Z" stroke="none" fill="none"></path><g id="SvgjsG1174"><text id="SvgjsText1175" font-family="&quot;Microsoft YaHei&quot;, 微软雅黑, Arial" text-anchor="end" font-size="13px" width="28px" fill="#323232" font-weight="400" align="middle" lineHeight="125%" anchor="end" family="&quot;Microsoft YaHei&quot;, 微软雅黑, Arial" size="13px" weight="400" font-style="" opacity="1" y="235.375" transform="rotate(0)"></text></g></g><g id="SvgjsG1176" transform="translate(727.8888931274413,335.2839643690321)"><path id="SvgjsPath1177" d="M 0 0L 139.167 0L 139.167 39.741L 0 39.741Z" stroke="none" fill="none"></path><g id="SvgjsG1178"><text id="SvgjsText1179" font-family="&quot;Microsoft YaHei&quot;, 微软雅黑, Arial" text-anchor="middle" font-size="20px" width="140px" fill="#323232" font-weight="400" align="middle" lineHeight="125%" anchor="middle" family="&quot;Microsoft YaHei&quot;, 微软雅黑, Arial" size="20px" weight="400" font-style="" opacity="1" y="1.8704999999999998" transform="rotate(0)"><tspan id="SvgjsTspan1180" dy="25" x="70"><tspan id="SvgjsTspan1181" style="">报文数据部分</tspan></tspan></text></g></g><g id="SvgjsG1182" transform="matrix(6.123233995736766e-17,1,-1,6.123233995736766e-17,1045.6666259765625,174.82099151611325)"><path id="SvgjsPath1183" d="M 55 0Q 49.5 0 49.5 9L 49.5 152.5Q 49.5 161.5 33 161.5Q 49.5 161.5 49.5 170.5L 49.5 314Q 49.5 323 55 323" stroke="rgba(33,41,48,1)" stroke-width="1.5" fill="none"></path><path id="SvgjsPath1184" d="M 0 0L 55 0L 55 323L 0 323Z" stroke="none" fill="none"></path><g id="SvgjsG1185"><text id="SvgjsText1186" font-family="&quot;Microsoft YaHei&quot;, 微软雅黑, Arial" text-anchor="end" font-size="13px" width="28px" fill="#323232" font-weight="400" align="middle" lineHeight="125%" anchor="end" family="&quot;Microsoft YaHei&quot;, 微软雅黑, Arial" size="13px" weight="400" font-style="" opacity="1" y="150.875" transform="rotate(0)"></text></g></g><g id="SvgjsG1187" transform="translate(828.8888931274413,165.65432569715716)"><path id="SvgjsPath1188" d="M 0 0L 100 0L 100 40L 0 40Z" stroke="none" fill="none"></path><g id="SvgjsG1189"><text id="SvgjsText1190" font-family="&quot;Microsoft YaHei&quot;, 微软雅黑, Arial" text-anchor="middle" font-size="20px" width="100px" fill="#323232" font-weight="400" align="middle" lineHeight="125%" anchor="middle" family="&quot;Microsoft YaHei&quot;, 微软雅黑, Arial" size="20px" weight="400" font-style="" opacity="1" y="2" transform="rotate(0)"><tspan id="SvgjsTspan1191" dy="25" x="50"><tspan id="SvgjsTspan1192" style="">数据</tspan></tspan></text></g></g><g id="SvgjsG1193" transform="translate(25,25)"><path id="SvgjsPath1194" d="M 0 0L 811.427 0L 827.427 16L 827.427 42.988L 0 42.988L 0 0Z" stroke="none" fill-opacity="1" fill="#fff7bc"></path><path id="SvgjsPath1195" d="M 811.427 0L 811.427 16L 827.427 16Z" stroke="none" fill-opacity="1" fill="#e4d089"></path><path id="SvgjsPath1196" d="M 0 0L 811.427 0L 827.427 16L 827.427 42.988L 0 42.988L 0 0Z" stroke="none" fill="none"></path><g id="SvgjsG1197"><text id="SvgjsText1198" font-family="&quot;Microsoft YaHei&quot;, 微软雅黑, Arial" text-anchor="middle" font-size="20px" width="808px" fill="#323232" font-weight="400" align="middle" lineHeight="125%" anchor="middle" family="&quot;Microsoft YaHei&quot;, 微软雅黑, Arial" size="20px" weight="400" font-style="" opacity="1" y="3.4939999999999998" transform="rotate(0)"><tspan id="SvgjsTspan1199" dy="25" x="414"><tspan id="SvgjsTspan1200" style="">类型头部中包含状态码，涵盖成功、取消、无效、IO错误、暂停、超时、错误数据等状态</tspan></tspan></text></g></g><g id="SvgjsG1201"><path id="SvgjsPath1202" d="M395.4893128138531 296.08099511607037C 488.88888549804676 428.3580152723524 537.8888854980468 484.3580152723524 794.7446277486096 376.14947473066786" stroke-dasharray="7.5,3" stroke="#323232" stroke-width="1.5" fill="none" marker-end="url(#SvgjsMarker1203)"></path></g><g id="SvgjsG1205"><path id="SvgjsPath1206" d="M636.9722764892375 165.03918077047166C 534.9999999999999 78.55555555555556 484.9999999999999 166.33333333333334 439.6200911918822 69.71412554460689" stroke-dasharray="7.5,3" stroke="#323232" stroke-width="1.5" fill="none" marker-end="url(#SvgjsMarker1207)"></path></g><g id="SvgjsG1209" transform="translate(938.8717982626366,25.000000000000014)"><path id="SvgjsPath1210" d="M 0 0L 230.128 0L 246.128 16L 246.128 42.988L 0 42.988L 0 0Z" stroke="none" fill-opacity="1" fill="#fff7bc"></path><path id="SvgjsPath1211" d="M 230.128 0L 230.128 16L 246.128 16Z" stroke="none" fill-opacity="1" fill="#e4d089"></path><path id="SvgjsPath1212" d="M 0 0L 230.128 0L 246.128 16L 246.128 42.988L 0 42.988L 0 0Z" stroke="none" fill="none"></path><g id="SvgjsG1213"><text id="SvgjsText1214" font-family="&quot;Microsoft YaHei&quot;, 微软雅黑, Arial" text-anchor="middle" font-size="20px" width="227px" fill="#323232" font-weight="400" align="middle" lineHeight="125%" anchor="middle" family="&quot;Microsoft YaHei&quot;, 微软雅黑, Arial" size="20px" weight="400" font-style="" opacity="1" y="3.4939999999999998" transform="rotate(0)"><tspan id="SvgjsTspan1215" dy="25" x="123.5"><tspan id="SvgjsTspan1216" style="">有的报文没有数据部分</tspan></tspan></text></g></g><g id="SvgjsG1217"><path id="SvgjsPath1218" d="M879.4197802756643 164.80688317057985C 924.9999999999999 76.70368109809027 1048.333333333333 141.14812554253473 1061.373822445129 69.85476515209669" stroke-dasharray="7.5,3" stroke="#323232" stroke-width="1.5" fill="none" marker-end="url(#SvgjsMarker1219)"></path></g><g id="SvgjsG1221" transform="translate(25,401.59878879123266)"><path id="SvgjsPath1222" d="M 0 0L 272.556 0L 288.556 16L 288.556 51.648L 0 51.648L 0 0Z" stroke="none" fill-opacity="1" fill="#fff7bc"></path><path id="SvgjsPath1223" d="M 272.556 0L 272.556 16L 288.556 16Z" stroke="none" fill-opacity="1" fill="#e4d089"></path><path id="SvgjsPath1224" d="M 0 0L 272.556 0L 288.556 16L 288.556 51.648L 0 51.648L 0 0Z" stroke="none" fill="none"></path><g id="SvgjsG1225"><text id="SvgjsText1226" font-family="&quot;Microsoft YaHei&quot;, 微软雅黑, Arial" text-anchor="middle" font-size="20px" width="269px" fill="#323232" font-weight="400" align="middle" lineHeight="125%" anchor="middle" family="&quot;Microsoft YaHei&quot;, 微软雅黑, Arial" size="20px" weight="400" font-style="" opacity="1" y="7.824" transform="rotate(0)"><tspan id="SvgjsTspan1227" dy="25" x="144.5"><tspan id="SvgjsTspan1228" style="">标识响应与请求的对应关系</tspan></tspan></text></g></g><g id="SvgjsG1229"><path id="SvgjsPath1230" d="M493.2307452311749 295.8287809588868C 346.1111068725585 379.4969465467665 334.8611068725585 293.2469465467665 170.92445892242475 400.5543121584194" stroke-dasharray="7.5,3" stroke="#323232" stroke-width="1.5" fill="none" marker-end="url(#SvgjsMarker1231)"></path></g><g id="SvgjsG1233"></g></svg>