<svg id="SvgjsSvg1006" width="1172.5555521647134" height="489" xmlns="http://www.w3.org/2000/svg" version="1.1" xmlns:xlink="http://www.w3.org/1999/xlink" xmlns:svgjs="http://svgjs.com/svgjs"><defs id="SvgjsDefs1007"><pattern patternUnits="userSpaceOnUse" id="pattern_mark_0" width="300" height="300"><text x="150" y="100" fill="rgba(229,229,229,0.8)" font-size="18" transform="rotate(-45, 150, 150)" style="dominant-baseline: middle; text-anchor: middle;"></text></pattern><pattern patternUnits="userSpaceOnUse" id="pattern_mark_1" width="300" height="300"><text x="150" y="200" fill="rgba(229,229,229,0.8)" font-size="18" transform="rotate(-45, 150, 150)" style="dominant-baseline: middle; text-anchor: middle;"></text></pattern><marker id="SvgjsMarker1071" markerWidth="13" markerHeight="9" refX="9.5" refY="4.5" viewBox="0 0 13 9" orient="auto" markerUnits="userSpaceOnUse" stroke-dasharray="0,0"><path id="SvgjsPath1072" d="M0,0 L13,4.5 L0,9 L0,0" fill="#323232" stroke="#323232" stroke-width="1"></path></marker><marker id="SvgjsMarker1075" markerWidth="13" markerHeight="9" refX="9.5" refY="4.5" viewBox="0 0 13 9" orient="auto" markerUnits="userSpaceOnUse" stroke-dasharray="0,0"><path id="SvgjsPath1076" d="M0,0 L13,4.5 L0,9 L0,0" fill="#323232" stroke="#323232" stroke-width="1"></path></marker><marker id="SvgjsMarker1079" markerWidth="13" markerHeight="9" refX="9.5" refY="4.5" viewBox="0 0 13 9" orient="auto" markerUnits="userSpaceOnUse" stroke-dasharray="0,0"><path id="SvgjsPath1080" d="M0,0 L13,4.5 L0,9 L0,0" fill="#323232" stroke="#323232" stroke-width="1"></path></marker><marker id="SvgjsMarker1083" markerWidth="13" markerHeight="9" refX="9.5" refY="4.5" viewBox="0 0 13 9" orient="auto" markerUnits="userSpaceOnUse" stroke-dasharray="0,0"><path id="SvgjsPath1084" d="M0,0 L13,4.5 L0,9 L0,0" fill="#323232" stroke="#323232" stroke-width="1"></path></marker><marker id="SvgjsMarker1087" markerWidth="13" markerHeight="9" refX="9.5" refY="4.5" viewBox="0 0 13 9" orient="auto" markerUnits="userSpaceOnUse" stroke-dasharray="0,0"><path id="SvgjsPath1088" d="M0,0 L13,4.5 L0,9 L0,0" fill="#323232" stroke="#323232" stroke-width="1"></path></marker><marker id="SvgjsMarker1091" markerWidth="13" markerHeight="9" refX="9.5" refY="4.5" viewBox="0 0 13 9" orient="auto" markerUnits="userSpaceOnUse" stroke-dasharray="0,0"><path id="SvgjsPath1092" d="M0,0 L13,4.5 L0,9 L0,0" fill="#323232" stroke="#323232" stroke-width="1"></path></marker><marker id="SvgjsMarker1095" markerWidth="13" markerHeight="9" refX="9.5" refY="4.5" viewBox="0 0 13 9" orient="auto" markerUnits="userSpaceOnUse" stroke-dasharray="0,0"><path id="SvgjsPath1096" d="M0,0 L13,4.5 L0,9 L0,0" fill="#323232" stroke="#323232" stroke-width="1"></path></marker><marker id="SvgjsMarker1099" markerWidth="13" markerHeight="9" refX="9.5" refY="4.5" viewBox="0 0 13 9" orient="auto" markerUnits="userSpaceOnUse" stroke-dasharray="0,0"><path id="SvgjsPath1100" d="M0,0 L13,4.5 L0,9 L0,0" fill="#323232" stroke="#323232" stroke-width="1"></path></marker></defs><rect id="svgbackgroundid" width="1172.5555521647134" height="489" fill="transparent"></rect><rect id="SvgjsRect1009" width="1172.5555521647134" height="489" fill="url(#pattern_mark_0)"></rect><rect id="SvgjsRect1010" width="1172.5555521647134" height="489" fill="url(#pattern_mark_1)"></rect><g id="SvgjsG1011" transform="translate(25,150.66666412353516)"><path id="SvgjsPath1012" d="M 0 4Q 0 0 4 0L 1028 0Q 1032 0 1032 4L 1032 197Q 1032 201 1028 201L 4 201Q 0 201 0 197Z" stroke="rgba(33,41,48,1)" stroke-width="1.5" fill-opacity="1" fill="#ffffff"></path><g id="SvgjsG1013"><text id="SvgjsText1014" font-family="&quot;Microsoft YaHei&quot;, 微软雅黑, Arial" text-anchor="middle" font-size="13px" width="1012px" fill="#323232" font-weight="400" align="middle" lineHeight="125%" anchor="middle" family="&quot;Microsoft YaHei&quot;, 微软雅黑, Arial" size="13px" weight="400" font-style="" opacity="1" y="89.875" transform="rotate(0)"></text></g></g><g id="SvgjsG1015" transform="translate(148.11111450195312,410)"><path id="SvgjsPath1016" d="M 0 4Q 0 0 3.9999999999999996 0L 147.889 0Q 151.889 0 151.889 4L 151.889 50Q 151.889 54 147.889 54L 3.9999999999999996 54Q 0 54 0 50Z" stroke="rgba(33,41,48,1)" stroke-width="1.5" fill-opacity="1" fill="#ffffff"></path><g id="SvgjsG1017"><text id="SvgjsText1018" font-family="&quot;Microsoft YaHei&quot;, 微软雅黑, Arial" text-anchor="middle" font-size="20px" width="132px" fill="#323232" font-weight="400" align="middle" lineHeight="125%" anchor="middle" family="&quot;Microsoft YaHei&quot;, 微软雅黑, Arial" size="20px" weight="400" font-style="" opacity="1" y="9" transform="rotate(0)"><tspan id="SvgjsTspan1019" dy="25" x="76"><tspan id="SvgjsTspan1020" style="">Linux</tspan></tspan></text></g></g><g id="SvgjsG1021" transform="translate(465.05555725097656,410)"><path id="SvgjsPath1022" d="M 0 4Q 0 0 3.9999999999999996 0L 147.889 0Q 151.889 0 151.889 4L 151.889 50Q 151.889 54 147.889 54L 3.9999999999999996 54Q 0 54 0 50Z" stroke="rgba(33,41,48,1)" stroke-width="1.5" fill-opacity="1" fill="#ffffff"></path><g id="SvgjsG1023"><text id="SvgjsText1024" font-family="&quot;Microsoft YaHei&quot;, 微软雅黑, Arial" text-anchor="middle" font-size="20px" width="132px" fill="#323232" font-weight="400" align="middle" lineHeight="125%" anchor="middle" family="&quot;Microsoft YaHei&quot;, 微软雅黑, Arial" size="20px" weight="400" font-style="" opacity="1" y="9" transform="rotate(0)"><tspan id="SvgjsTspan1025" dy="25" x="76"><tspan id="SvgjsTspan1026" style="">Windows</tspan></tspan></text></g></g><g id="SvgjsG1027" transform="translate(771.2222290039062,410)"><path id="SvgjsPath1028" d="M 0 4Q 0 0 3.9999999999999996 0L 147.889 0Q 151.889 0 151.889 4L 151.889 50Q 151.889 54 147.889 54L 3.9999999999999996 54Q 0 54 0 50Z" stroke="rgba(33,41,48,1)" stroke-width="1.5" fill-opacity="1" fill="#ffffff"></path><g id="SvgjsG1029"><text id="SvgjsText1030" font-family="&quot;Microsoft YaHei&quot;, 微软雅黑, Arial" text-anchor="middle" font-size="20px" width="132px" fill="#323232" font-weight="400" align="middle" lineHeight="125%" anchor="middle" family="&quot;Microsoft YaHei&quot;, 微软雅黑, Arial" size="20px" weight="400" font-style="" opacity="1" y="9" transform="rotate(0)"><tspan id="SvgjsTspan1031" dy="25" x="76"><tspan id="SvgjsTspan1032" style="">Mac</tspan></tspan></text></g></g><g id="SvgjsG1033" transform="translate(148.11111450195312,269)"><path id="SvgjsPath1034" d="M 0 4Q 0 0 4 0L 771 0Q 775 0 775 4L 775 50Q 775 54 771 54L 4 54Q 0 54 0 50Z" stroke="rgba(255,255,255,1)" stroke-width="1.5" fill-opacity="1" fill="#e855a4"></path><g id="SvgjsG1035"><text id="SvgjsText1036" font-family="&quot;Microsoft YaHei&quot;, 微软雅黑, Arial" text-anchor="middle" font-size="20px" width="755px" fill="#ffffff" font-weight="400" align="middle" lineHeight="125%" anchor="middle" family="&quot;Microsoft YaHei&quot;, 微软雅黑, Arial" size="20px" weight="400" font-style="" opacity="1" y="9" transform="rotate(0)"><tspan id="SvgjsTspan1037" dy="25" x="387.5"><tspan id="SvgjsTspan1038" style="">各个平台的实现</tspan></tspan></text></g></g><g id="SvgjsG1039" transform="translate(148.11111450195312,186)"><path id="SvgjsPath1040" d="M 0 4Q 0 0 4 0L 771 0Q 775 0 775 4L 775 50Q 775 54 771 54L 4 54Q 0 54 0 50Z" stroke="rgba(255,255,255,1)" stroke-width="1.5" fill-opacity="1" fill="#4669ea"></path><g id="SvgjsG1041"><text id="SvgjsText1042" font-family="&quot;Microsoft YaHei&quot;, 微软雅黑, Arial" text-anchor="middle" font-size="20px" width="755px" fill="#ffffff" font-weight="400" align="middle" lineHeight="125%" anchor="middle" family="&quot;Microsoft YaHei&quot;, 微软雅黑, Arial" size="20px" weight="400" font-style="" opacity="1" y="9" transform="rotate(0)"><tspan id="SvgjsTspan1043" dy="25" x="387.5"><tspan id="SvgjsTspan1044" style="">ARCH层（适配器）</tspan></tspan></text></g></g><g id="SvgjsG1045" transform="translate(148.11111450195312,25)"><path id="SvgjsPath1046" d="M 0 4Q 0 0 4 0L 158 0Q 162 0 162 4L 162 50Q 162 54 158 54L 4 54Q 0 54 0 50Z" stroke="rgba(255,255,255,1)" stroke-width="1.5" fill-opacity="1" fill="#7bd144"></path><g id="SvgjsG1047"><text id="SvgjsText1048" font-family="思源黑体" text-anchor="middle" font-size="20px" width="142px" fill="#ffffff" font-weight="400" align="middle" lineHeight="125%" anchor="middle" family="思源黑体" size="20px" weight="400" font-style="" opacity="1" y="9" transform="rotate(0)"><tspan id="SvgjsTspan1049" dy="25" x="81"><tspan id="SvgjsTspan1050" style="">多线程</tspan></tspan></text></g></g><g id="SvgjsG1051" transform="translate(352.1111145019531,25)"><path id="SvgjsPath1052" d="M 0 4Q 0 0 4 0L 158 0Q 162 0 162 4L 162 50Q 162 54 158 54L 4 54Q 0 54 0 50Z" stroke="rgba(255,255,255,1)" stroke-width="1.5" fill-opacity="1" fill="#ed9745"></path><g id="SvgjsG1053"><text id="SvgjsText1054" font-family="思源黑体" text-anchor="middle" font-size="20px" width="142px" fill="#ffffff" font-weight="400" align="middle" lineHeight="125%" anchor="middle" family="思源黑体" size="20px" weight="400" font-style="" opacity="1" y="9" transform="rotate(0)"><tspan id="SvgjsTspan1055" dy="25" x="81"><tspan id="SvgjsTspan1056" style="">事件框架</tspan></tspan></text></g></g><g id="SvgjsG1057" transform="translate(549.1111145019531,25)"><path id="SvgjsPath1058" d="M 0 4Q 0 0 4 0L 158 0Q 162 0 162 4L 162 50Q 162 54 158 54L 4 54Q 0 54 0 50Z" stroke="rgba(255,255,255,1)" stroke-width="1.5" fill-opacity="1" fill="#358e90"></path><g id="SvgjsG1059"><text id="SvgjsText1060" font-family="思源黑体" text-anchor="middle" font-size="20px" width="142px" fill="#ffffff" font-weight="400" align="middle" lineHeight="125%" anchor="middle" family="思源黑体" size="20px" weight="400" font-style="" opacity="1" y="9" transform="rotate(0)"><tspan id="SvgjsTspan1061" dy="25" x="81"><tspan id="SvgjsTspan1062" style="">异步网络</tspan></tspan></text></g></g><g id="SvgjsG1063" transform="translate(761.1111145019531,25)"><path id="SvgjsPath1064" d="M 0 4Q 0 0 4 0L 158 0Q 162 0 162 4L 162 50Q 162 54 158 54L 4 54Q 0 54 0 50Z" stroke="rgba(255,255,255,1)" stroke-width="1.5" fill-opacity="1" fill="#9d8c88"></path><g id="SvgjsG1065"><text id="SvgjsText1066" font-family="思源黑体" text-anchor="middle" font-size="20px" width="142px" fill="#ffffff" font-weight="400" align="middle" lineHeight="125%" anchor="middle" family="思源黑体" size="20px" weight="400" font-style="" opacity="1" y="9" transform="rotate(0)"><tspan id="SvgjsTspan1067" dy="25" x="81"><tspan id="SvgjsTspan1068" style="">多路复用</tspan></tspan></text></g></g><g id="SvgjsG1069"><path id="SvgjsPath1070" d="M229.73904909564547 79.41011967283274C 338.5359443215763 156.4509787279017 426.1830031451057 68.21568461025464 513.2756125525567 148.91857770674892" stroke="#323232" stroke-width="1.5" fill="none" marker-end="url(#SvgjsMarker1071)"></path></g><g id="SvgjsG1073"><path id="SvgjsPath1074" d="M433.4475908876718 79.67028623874705C 447.94770902745864 122.9215669631958 507.359473733341 99.39215519848992 530.416359078917 148.86836170809065" stroke="#323232" stroke-width="1.5" fill="none" marker-end="url(#SvgjsMarker1075)"></path></g><g id="SvgjsG1077"><path id="SvgjsPath1078" d="M624.8376930680271 79.39889117837097C 625 119.44318413046895 552.8333282470703 109.89014507027568 553.4176332021727 148.0306476798005" stroke="#323232" stroke-width="1.5" fill="none" marker-end="url(#SvgjsMarker1079)"></path></g><g id="SvgjsG1081"><path id="SvgjsPath1082" d="M836.530012608508 79.58447570679931C 786.7712384392233 153.50980225731348 642.6535913803998 59.98039049260757 572.6430353547352 148.66292852155465" stroke="#323232" stroke-width="1.5" fill="none" marker-end="url(#SvgjsMarker1083)"></path></g><g id="SvgjsG1085"><path id="SvgjsPath1086" d="M535.6111145019531 240.75L535.6111145019531 254.5L535.6111145019531 254.5L535.6111145019531 266.3" stroke="#323232" stroke-width="1.5" fill="none" marker-end="url(#SvgjsMarker1087)"></path></g><g id="SvgjsG1089"><path id="SvgjsPath1090" d="M540.3065233894715 351.95230409036407C 396 415.9999985694885 326 321.9999985694885 226.15595229882837 408.3039809696762" stroke="#323232" stroke-width="1.5" fill="none" marker-end="url(#SvgjsMarker1091)"></path></g><g id="SvgjsG1093"><path id="SvgjsPath1094" d="M540.9999972279035 352.41666412353004C 541 374.9999984747932 540.9995572509765 386.66666564874197 540.999567230524 407.3000000000185" stroke="#323232" stroke-width="1.5" fill="none" marker-end="url(#SvgjsMarker1095)"></path></g><g id="SvgjsG1097"><path id="SvgjsPath1098" d="M541.6970865378163 351.9433776194028C 666 404.9999985694885 728 333.9999985694885 844.8532643765686 408.60709130497196" stroke="#323232" stroke-width="1.5" fill="none" marker-end="url(#SvgjsMarker1099)"></path></g><g id="SvgjsG1101" transform="translate(983.111107720269,225.31481594509552)"><path id="SvgjsPath1102" d="M 0 0L 148.444 0L 164.444 16L 164.444 57L 0 57L 0 0Z" stroke="none" fill-opacity="1" fill="#fff7bc"></path><path id="SvgjsPath1103" d="M 148.444 0L 148.444 16L 164.444 16Z" stroke="none" fill-opacity="1" fill="#e4d089"></path><path id="SvgjsPath1104" d="M 0 0L 148.444 0L 164.444 16L 164.444 57L 0 57L 0 0Z" stroke="none" fill="none"></path><g id="SvgjsG1105"><text id="SvgjsText1106" font-family="&quot;Microsoft YaHei&quot;, 微软雅黑, Arial" text-anchor="middle" font-size="20px" width="145px" fill="#323232" font-weight="400" align="middle" lineHeight="125%" anchor="middle" family="&quot;Microsoft YaHei&quot;, 微软雅黑, Arial" size="20px" weight="400" font-style="" opacity="1" y="10.5" transform="rotate(0)"><tspan id="SvgjsTspan1107" dy="25" x="82.5"><tspan id="SvgjsTspan1108" style="">跨平台系统接口</tspan></tspan></text></g></g><g id="SvgjsG1109"></g></svg>