<svg id="SvgjsSvg1282" width="2702.875" height="899.0242716471353" xmlns="http://www.w3.org/2000/svg" version="1.1" xmlns:xlink="http://www.w3.org/1999/xlink" xmlns:svgjs="http://svgjs.com/svgjs"><defs id="SvgjsDefs1283"><pattern patternUnits="userSpaceOnUse" id="pattern_mark_0" width="300" height="300"><text x="150" y="100" fill="rgba(229,229,229,0.8)" font-size="18" transform="rotate(-45, 150, 150)" style="dominant-baseline: middle; text-anchor: middle;"></text></pattern><pattern patternUnits="userSpaceOnUse" id="pattern_mark_1" width="300" height="300"><text x="150" y="200" fill="rgba(229,229,229,0.8)" font-size="18" transform="rotate(-45, 150, 150)" style="dominant-baseline: middle; text-anchor: middle;"></text></pattern><marker id="SvgjsMarker1343" markerWidth="13" markerHeight="9" refX="9.5" refY="4.5" viewBox="0 0 13 9" orient="auto" markerUnits="userSpaceOnUse" stroke-dasharray="0,0"><path id="SvgjsPath1344" d="M0,0 L13,4.5 L0,9 L0,0" fill="#323232" stroke="#323232" stroke-width="1"></path></marker><marker id="SvgjsMarker1347" markerWidth="13" markerHeight="9" refX="9.5" refY="4.5" viewBox="0 0 13 9" orient="auto" markerUnits="userSpaceOnUse" stroke-dasharray="0,0"><path id="SvgjsPath1348" d="M0,0 L13,4.5 L0,9 L0,0" fill="#323232" stroke="#323232" stroke-width="1"></path></marker><marker id="SvgjsMarker1351" markerWidth="13" markerHeight="9" refX="9.5" refY="4.5" viewBox="0 0 13 9" orient="auto" markerUnits="userSpaceOnUse" stroke-dasharray="0,0"><path id="SvgjsPath1352" d="M0,0 L13,4.5 L0,9 L0,0" fill="#323232" stroke="#323232" stroke-width="1"></path></marker><marker id="SvgjsMarker1355" markerWidth="13" markerHeight="9" refX="9.5" refY="4.5" viewBox="0 0 13 9" orient="auto" markerUnits="userSpaceOnUse" stroke-dasharray="0,0"><path id="SvgjsPath1356" d="M0,0 L13,4.5 L0,9 L0,0" fill="#323232" stroke="#323232" stroke-width="1"></path></marker><marker id="SvgjsMarker1359" markerWidth="13" markerHeight="9" refX="9.5" refY="4.5" viewBox="0 0 13 9" orient="auto" markerUnits="userSpaceOnUse" stroke-dasharray="0,0"><path id="SvgjsPath1360" d="M0,0 L13,4.5 L0,9 L0,0" fill="#323232" stroke="#323232" stroke-width="1"></path></marker><marker id="SvgjsMarker1363" markerWidth="13" markerHeight="9" refX="9.5" refY="4.5" viewBox="0 0 13 9" orient="auto" markerUnits="userSpaceOnUse" stroke-dasharray="0,0"><path id="SvgjsPath1364" d="M0,0 L13,4.5 L0,9 L0,0" fill="#323232" stroke="#323232" stroke-width="1"></path></marker><marker id="SvgjsMarker1373" markerWidth="13" markerHeight="9" refX="9.5" refY="4.5" viewBox="0 0 13 9" orient="auto" markerUnits="userSpaceOnUse" stroke-dasharray="0,0"><path id="SvgjsPath1374" d="M0,0 L13,4.5 L0,9 L0,0" fill="#323232" stroke="#323232" stroke-width="1"></path></marker><marker id="SvgjsMarker1458" markerWidth="13" markerHeight="9" refX="9.5" refY="4.5" viewBox="0 0 13 9" orient="auto" markerUnits="userSpaceOnUse" stroke-dasharray="0,0"><path id="SvgjsPath1459" d="M0,0 L13,4.5 L0,9 L0,0" fill="#323232" stroke="#323232" stroke-width="1"></path></marker><marker id="SvgjsMarker1487" markerWidth="13" markerHeight="9" refX="9.5" refY="4.5" viewBox="0 0 13 9" orient="auto" markerUnits="userSpaceOnUse" stroke-dasharray="0,0"><path id="SvgjsPath1488" d="M0,0 L13,4.5 L0,9 L0,0" fill="#323232" stroke="#323232" stroke-width="1"></path></marker><marker id="SvgjsMarker1491" markerWidth="14" markerHeight="10" refX="10" refY="5" viewBox="0 0 14 10" orient="auto" markerUnits="userSpaceOnUse" stroke-dasharray="0,0"><path id="SvgjsPath1492" d="M0,0 L14,5 L0,10 L0,0" fill="#e62727" stroke="#e62727" stroke-width="1"></path></marker><marker id="SvgjsMarker1495" markerWidth="14" markerHeight="10" refX="10" refY="5" viewBox="0 0 14 10" orient="auto" markerUnits="userSpaceOnUse" stroke-dasharray="0,0"><path id="SvgjsPath1496" d="M0,0 L14,5 L0,10 L0,0" fill="#e62727" stroke="#e62727" stroke-width="1"></path></marker><marker id="SvgjsMarker1499" markerWidth="14" markerHeight="10" refX="10" refY="5" viewBox="0 0 14 10" orient="auto" markerUnits="userSpaceOnUse" stroke-dasharray="0,0"><path id="SvgjsPath1500" d="M0,0 L14,5 L0,10 L0,0" fill="#e62727" stroke="#e62727" stroke-width="1"></path></marker><marker id="SvgjsMarker1503" markerWidth="13" markerHeight="9" refX="9.5" refY="4.5" viewBox="0 0 13 9" orient="auto" markerUnits="userSpaceOnUse" stroke-dasharray="0,0"><path id="SvgjsPath1504" d="M0,0 L13,4.5 L0,9 L0,0" fill="#323232" stroke="#323232" stroke-width="1"></path></marker><marker id="SvgjsMarker1507" markerWidth="13" markerHeight="9" refX="9.5" refY="4.5" viewBox="0 0 13 9" orient="auto" markerUnits="userSpaceOnUse" stroke-dasharray="0,0"><path id="SvgjsPath1508" d="M0,0 L13,4.5 L0,9 L0,0" fill="#323232" stroke="#323232" stroke-width="1"></path></marker><marker id="SvgjsMarker1511" markerWidth="14" markerHeight="10" refX="10" refY="5" viewBox="0 0 14 10" orient="auto" markerUnits="userSpaceOnUse" stroke-dasharray="0,0"><path id="SvgjsPath1512" d="M0,0 L14,5 L0,10 L0,0" fill="#db1f1f" stroke="#db1f1f" stroke-width="1"></path></marker><marker id="SvgjsMarker1527" markerWidth="14" markerHeight="10" refX="10" refY="5" viewBox="0 0 14 10" orient="auto" markerUnits="userSpaceOnUse" stroke-dasharray="0,0"><path id="SvgjsPath1528" d="M0,0 L14,5 L0,10 L0,0" fill="#db1f1f" stroke="#db1f1f" stroke-width="1"></path></marker><marker id="SvgjsMarker1531" markerWidth="14" markerHeight="10" refX="10" refY="5" viewBox="0 0 14 10" orient="auto" markerUnits="userSpaceOnUse" stroke-dasharray="0,0"><path id="SvgjsPath1532" d="M0,0 L14,5 L0,10 L0,0" fill="#db1f1f" stroke="#db1f1f" stroke-width="1"></path></marker><marker id="SvgjsMarker1535" markerWidth="13" markerHeight="9" refX="9.5" refY="4.5" viewBox="0 0 13 9" orient="auto" markerUnits="userSpaceOnUse" stroke-dasharray="0,0"><path id="SvgjsPath1536" d="M0,0 L13,4.5 L0,9 L0,0" fill="#323232" stroke="#323232" stroke-width="1"></path></marker><marker id="SvgjsMarker1539" markerWidth="13" markerHeight="9" refX="9.5" refY="4.5" viewBox="0 0 13 9" orient="auto" markerUnits="userSpaceOnUse" stroke-dasharray="0,0"><path id="SvgjsPath1540" d="M0,0 L13,4.5 L0,9 L0,0" fill="#323232" stroke="#323232" stroke-width="1"></path></marker><marker id="SvgjsMarker1543" markerWidth="13" markerHeight="9" refX="9.5" refY="4.5" viewBox="0 0 13 9" orient="auto" markerUnits="userSpaceOnUse" stroke-dasharray="0,0"><path id="SvgjsPath1544" d="M0,0 L13,4.5 L0,9 L0,0" fill="#323232" stroke="#323232" stroke-width="1"></path></marker><marker id="SvgjsMarker1547" markerWidth="13" markerHeight="9" refX="9.5" refY="4.5" viewBox="0 0 13 9" orient="auto" markerUnits="userSpaceOnUse" stroke-dasharray="0,0"><path id="SvgjsPath1548" d="M0,0 L13,4.5 L0,9 L0,0" fill="#323232" stroke="#323232" stroke-width="1"></path></marker></defs><rect id="svgbackgroundid" width="2702.875" height="899.0242716471353" fill="transparent"></rect><rect id="SvgjsRect1285" width="2702.875" height="899.0242716471353" fill="url(#pattern_mark_0)"></rect><rect id="SvgjsRect1286" width="2702.875" height="899.0242716471353" fill="url(#pattern_mark_1)"></rect><g id="SvgjsG1287" transform="translate(2003.2499796549484,246.80552164713538)"><path id="SvgjsPath1288" d="M 0 0L 197.167 0L 197.167 54L 0 54Z" stroke="rgba(33,41,48,1)" stroke-width="1.5" fill-opacity="1" fill="#b0e38f"></path><g id="SvgjsG1289"><text id="SvgjsText1290" font-family="&quot;Microsoft YaHei&quot;, 微软雅黑, Arial" text-anchor="middle" font-size="20px" width="178px" fill="#323232" font-weight="700" align="middle" lineHeight="125%" anchor="middle" family="&quot;Microsoft YaHei&quot;, 微软雅黑, Arial" size="20px" weight="700" font-style="" opacity="1" y="9" transform="rotate(0)"><tspan id="SvgjsTspan1291" dy="25" x="99"><tspan id="SvgjsTspan1292" style="">src/</tspan></tspan></text></g></g><g id="SvgjsG1293" transform="translate(369.02085876464844,250.63885498046892)"><path id="SvgjsPath1294" d="M 0 0L 169 0L 169 54L 0 54Z" stroke="rgba(33,41,48,1)" stroke-width="1.5" fill-opacity="1" fill="#b0e38f"></path><g id="SvgjsG1295"><text id="SvgjsText1296" font-family="&quot;Microsoft YaHei&quot;, 微软雅黑, Arial" text-anchor="middle" font-size="20px" width="149px" fill="#323232" font-weight="700" align="middle" lineHeight="125%" anchor="middle" family="&quot;Microsoft YaHei&quot;, 微软雅黑, Arial" size="20px" weight="700" font-style="" opacity="1" y="9" transform="rotate(0)"><tspan id="SvgjsTspan1297" dy="25" x="84.5"><tspan id="SvgjsTspan1298" style="">cmake/</tspan></tspan></text></g></g><g id="SvgjsG1299" transform="translate(977.0972222222224,246.80552164713538)"><path id="SvgjsPath1300" d="M 0 0L 257 0L 257 54L 0 54Z" stroke="rgba(33,41,48,1)" stroke-width="1.5" fill-opacity="1" fill="#b0e38f"></path><g id="SvgjsG1301"><text id="SvgjsText1302" font-family="&quot;Microsoft YaHei&quot;, 微软雅黑, Arial" text-anchor="middle" font-size="20px" width="237px" fill="#323232" font-weight="700" align="middle" lineHeight="125%" anchor="middle" family="&quot;Microsoft YaHei&quot;, 微软雅黑, Arial" size="20px" weight="700" font-style="" opacity="1" y="9" transform="rotate(0)"><tspan id="SvgjsTspan1303" dy="25" x="128.5"><tspan id="SvgjsTspan1304" style="">deploy/</tspan></tspan></text></g></g><g id="SvgjsG1305" transform="translate(2508.875,246.80552164713538)"><path id="SvgjsPath1306" d="M 0 0L 169 0L 169 54L 0 54Z" stroke="rgba(33,41,48,1)" stroke-width="1.5" fill-opacity="1" fill="#b0e38f"></path><g id="SvgjsG1307"><text id="SvgjsText1308" font-family="&quot;Microsoft YaHei&quot;, 微软雅黑, Arial" text-anchor="middle" font-size="20px" width="149px" fill="#323232" font-weight="700" align="middle" lineHeight="125%" anchor="middle" family="&quot;Microsoft YaHei&quot;, 微软雅黑, Arial" size="20px" weight="700" font-style="" opacity="1" y="9" transform="rotate(0)"><tspan id="SvgjsTspan1309" dy="25" x="84.5"><tspan id="SvgjsTspan1310" style="">doc/</tspan></tspan></text></g></g><g id="SvgjsG1311" transform="translate(882.5000000000002,370.1388549804689)"><path id="SvgjsPath1312" d="M 0 0L 169 0L 169 54L 0 54Z" stroke="rgba(33,41,48,1)" stroke-width="1.5" fill-opacity="1" fill="#f1e4a2"></path><g id="SvgjsG1313"><text id="SvgjsText1314" font-family="&quot;Microsoft YaHei&quot;, 微软雅黑, Arial" text-anchor="middle" font-size="20px" width="149px" fill="#323232" font-weight="700" align="middle" lineHeight="125%" anchor="middle" family="&quot;Microsoft YaHei&quot;, 微软雅黑, Arial" size="20px" weight="700" font-style="" opacity="1" y="9" transform="rotate(0)"><tspan id="SvgjsTspan1315" dy="25" x="84.5"><tspan id="SvgjsTspan1316" style="">Mac/</tspan></tspan></text></g></g><g id="SvgjsG1317" transform="translate(1088.5,370.1388549804689)"><path id="SvgjsPath1318" d="M 0 0L 169 0L 169 54L 0 54Z" stroke="rgba(33,41,48,1)" stroke-width="1.5" fill-opacity="1" fill="#f1e4a2"></path><g id="SvgjsG1319"><text id="SvgjsText1320" font-family="&quot;Microsoft YaHei&quot;, 微软雅黑, Arial" text-anchor="middle" font-size="20px" width="149px" fill="#323232" font-weight="700" align="middle" lineHeight="125%" anchor="middle" family="&quot;Microsoft YaHei&quot;, 微软雅黑, Arial" size="20px" weight="700" font-style="" opacity="1" y="9" transform="rotate(0)"><tspan id="SvgjsTspan1321" dy="25" x="84.5"><tspan id="SvgjsTspan1322" style="">Linux/</tspan></tspan></text></g></g><g id="SvgjsG1323" transform="translate(1769.916666666667,371.80552164713544)"><path id="SvgjsPath1324" d="M 0 0L 169 0L 169 54L 0 54Z" stroke="rgba(33,41,48,1)" stroke-width="1.5" fill-opacity="1" fill="#f1e4a2"></path><g id="SvgjsG1325"><text id="SvgjsText1326" font-family="&quot;Microsoft YaHei&quot;, 微软雅黑, Arial" text-anchor="middle" font-size="20px" width="149px" fill="#323232" font-weight="700" align="middle" lineHeight="125%" anchor="middle" family="&quot;Microsoft YaHei&quot;, 微软雅黑, Arial" size="20px" weight="700" font-style="" opacity="1" y="9" transform="rotate(0)"><tspan id="SvgjsTspan1327" dy="25" x="84.5"><tspan id="SvgjsTspan1328" style="">test/</tspan></tspan></text></g></g><g id="SvgjsG1329" transform="translate(2017.3333231608078,371.80552164713544)"><path id="SvgjsPath1330" d="M 0 0L 169 0L 169 54L 0 54Z" stroke="rgba(33,41,48,1)" stroke-width="1.5" fill-opacity="1" fill="#f1e4a2"></path><g id="SvgjsG1331"><text id="SvgjsText1332" font-family="&quot;Microsoft YaHei&quot;, 微软雅黑, Arial" text-anchor="middle" font-size="20px" width="149px" fill="#323232" font-weight="700" align="middle" lineHeight="125%" anchor="middle" family="&quot;Microsoft YaHei&quot;, 微软雅黑, Arial" size="20px" weight="700" font-style="" opacity="1" y="9" transform="rotate(0)"><tspan id="SvgjsTspan1333" dy="25" x="84.5"><tspan id="SvgjsTspan1334" style="">lib/</tspan></tspan></text></g></g><g id="SvgjsG1335" transform="translate(2274.7023809523807,371.80552164713544)"><path id="SvgjsPath1336" d="M 0 0L 174.714 0L 174.714 54L 0 54Z" stroke="rgba(33,41,48,1)" stroke-width="1.5" fill-opacity="1" fill="#f1e4a2"></path><g id="SvgjsG1337"><text id="SvgjsText1338" font-family="&quot;Microsoft YaHei&quot;, 微软雅黑, Arial" text-anchor="middle" font-size="20px" width="155px" fill="#323232" font-weight="700" align="middle" lineHeight="125%" anchor="middle" family="&quot;Microsoft YaHei&quot;, 微软雅黑, Arial" size="20px" weight="700" font-style="" opacity="1" y="9" transform="rotate(0)"><tspan id="SvgjsTspan1339" dy="25" x="87.5"><tspan id="SvgjsTspan1340" style="">apps/</tspan></tspan></text></g></g><g id="SvgjsG1341"><path id="SvgjsPath1342" d="M2102.45859207572 301.2191750031916C 2229.0833740234375 389.13885498046875 2215.0833740234375 287.13885498046875 2359.6909125507273 370.50949668414273" stroke="#323232" stroke-width="1.5" fill="none" marker-end="url(#SvgjsMarker1343)"></path></g><g id="SvgjsG1345"><path id="SvgjsPath1346" d="M2101.83298112568 301.555521647134C 2101.832979654948 329.2055216474677 2101.8333231608076 343.4055216468029 2101.8333178661733 369.1055216471406" stroke="#323232" stroke-width="1.5" fill="none" marker-end="url(#SvgjsMarker1347)"></path></g><g id="SvgjsG1349"><path id="SvgjsPath1350" d="M2101.4634079167763 301.4581446089935C 2068.4880952380954 372.9959905715216 1944.2023809523812 312.9959905715216 1856.7467308964335 370.4414099635984" stroke="#323232" stroke-width="1.5" fill="none" marker-end="url(#SvgjsMarker1351)"></path></g><g id="SvgjsG1353"><path id="SvgjsPath1354" d="M1104.8853522978745 301.0416174133182C 921.4444783528648 364.1666666666667 1016.444478352865 265.83333333333337 761.3433108735809 369.1430206796429" stroke="#323232" stroke-width="1.5" fill="none" marker-end="url(#SvgjsMarker1355)"></path></g><g id="SvgjsG1357"><path id="SvgjsPath1358" d="M1105.0786920710057 301.3473947709193C 1067.6943766276045 350.69437662760413 979.361043294271 312.3610432942708 967.9028821496648 367.5942913982771" stroke="#323232" stroke-width="1.5" fill="none" marker-end="url(#SvgjsMarker1359)"></path></g><g id="SvgjsG1361"><path id="SvgjsPath1362" d="M1106.064067293147 301.3925103009893C 1136.027709960938 347.3610432942708 1172.6943766276045 327.3610432942708 1172.6545368312047 367.46104707118826" stroke="#323232" stroke-width="1.5" fill="none" marker-end="url(#SvgjsMarker1363)"></path></g><g id="SvgjsG1365" transform="translate(962.9444444444446,73.05552164713538)"><path id="SvgjsPath1366" d="M 0 0L 285.306 0L 285.306 54L 0 54Z" stroke="rgba(33,41,48,1)" stroke-width="1.5" fill-opacity="1" fill="#5b79e8"></path><g id="SvgjsG1367"><text id="SvgjsText1368" font-family="&quot;Microsoft YaHei&quot;, 微软雅黑, Arial" text-anchor="middle" font-size="20px" width="266px" fill="#ffffff" font-weight="700" align="middle" lineHeight="125%" anchor="middle" family="&quot;Microsoft YaHei&quot;, 微软雅黑, Arial" size="20px" weight="700" font-style="" opacity="1" y="9" transform="rotate(0)"><tspan id="SvgjsTspan1369" dy="25" x="143"><tspan id="SvgjsTspan1370" style="">DeskFlow-1.21.2/</tspan></tspan></text></g></g><g id="SvgjsG1371"><path id="SvgjsPath1372" d="M1106.2852974239888 127.35393833017116C 1460.2500000000002 283.97222900390625 1470.2500000000002 29.97222900390625 2099.275469647295 245.93999142770173" stroke="#323232" stroke-width="1.5" fill="none" marker-end="url(#SvgjsMarker1373)"></path></g><g id="SvgjsG1375" transform="translate(2017.3333231608078,464.8412359328497)"><path id="SvgjsPath1376" d="M 0 0L 169 0L 169 158.958L 0 158.958Z" stroke="rgba(33,41,48,1)" stroke-width="1.5" fill-opacity="1" fill="#f5b9b7"></path><g id="SvgjsG1377"><text id="SvgjsText1378" font-family="&quot;Microsoft YaHei&quot;, 微软雅黑, Arial" text-anchor="start" font-size="20px" width="149px" fill="#323232" font-weight="700" align="middle" lineHeight="125%" anchor="start" family="&quot;Microsoft YaHei&quot;, 微软雅黑, Arial" size="20px" weight="700" font-style="" opacity="1" y="11.479" transform="rotate(0)"><tspan id="SvgjsTspan1379" dy="25" x="10"><tspan id="SvgjsTspan1380" style="">client/</tspan></tspan><tspan id="SvgjsTspan1381" dy="25" x="10"><tspan id="SvgjsTspan1382" style="">server/</tspan></tspan><tspan id="SvgjsTspan1383" dy="25" x="10"><tspan id="SvgjsTspan1384" style="">core/</tspan></tspan><tspan id="SvgjsTspan1385" dy="25" x="10"><tspan id="SvgjsTspan1386" style="">gui/</tspan></tspan><tspan id="SvgjsTspan1387" dy="25" x="10"><tspan id="SvgjsTspan1388" style="">daemon/</tspan></tspan></text></g></g><g id="SvgjsG1389" transform="translate(2274.7023809523807,460.55552164713527)"><path id="SvgjsPath1390" d="M 0 0L 174.714 0L 174.714 246.458L 0 246.458Z" stroke="rgba(33,41,48,1)" stroke-width="1.5" fill-opacity="1" fill="#f5b9b7"></path><g id="SvgjsG1391"><text id="SvgjsText1392" font-family="&quot;Microsoft YaHei&quot;, 微软雅黑, Arial" text-anchor="start" font-size="20px" width="155px" fill="#323232" font-weight="700" align="middle" lineHeight="125%" anchor="start" family="&quot;Microsoft YaHei&quot;, 微软雅黑, Arial" size="20px" weight="700" font-style="" opacity="1" y="5.228999999999999" transform="rotate(0)"><tspan id="SvgjsTspan1393" dy="25" x="10"><tspan id="SvgjsTspan1394" style="">arch/</tspan></tspan><tspan id="SvgjsTspan1395" dy="25" x="10"><tspan id="SvgjsTspan1396" style="">base/</tspan></tspan><tspan id="SvgjsTspan1397" dy="25" x="10"><tspan id="SvgjsTspan1398" style="">common/</tspan></tspan><tspan id="SvgjsTspan1399" dy="25" x="10"><tspan id="SvgjsTspan1400" style="">deskflow/</tspan></tspan><tspan id="SvgjsTspan1401" dy="25" x="10"><tspan id="SvgjsTspan1402" style="">net/</tspan></tspan><tspan id="SvgjsTspan1403" dy="25" x="10"><tspan id="SvgjsTspan1404" style="">io/</tspan></tspan><tspan id="SvgjsTspan1405" dy="25" x="10"><tspan id="SvgjsTspan1406" style="">gui/</tspan></tspan><tspan id="SvgjsTspan1407" dy="25" x="10"><tspan id="SvgjsTspan1408" style="">mt/</tspan></tspan><tspan id="SvgjsTspan1409" dy="25" x="10"><tspan id="SvgjsTspan1410" style="">platfoem/</tspan></tspan></text></g></g><g id="SvgjsG1411" transform="matrix(-1.8369701987210297e-16,-1,1,-1.8369701987210297e-16,1537.3720368884856,819.0242643810457)"><path id="SvgjsPath1412" d="M 20 0Q 18 0 18 9L 18 461.3Q 18 470.3 -2 470.3Q 18 470.3 18 479.3L 18 931.6Q 18 940.6 20 940.6" stroke="rgba(33,41,48,1)" stroke-width="2" fill="none"></path><path id="SvgjsPath1413" d="M 0 0L 20 0L 20 940.6L 0 940.6Z" stroke="none" fill="none"></path><g id="SvgjsG1414"><text id="SvgjsText1415" font-family="&quot;Microsoft YaHei&quot;, 微软雅黑, Arial" text-anchor="end" font-size="20px" width="0" fill="#323232" font-weight="400" align="middle" lineHeight="125%" anchor="end" family="&quot;Microsoft YaHei&quot;, 微软雅黑, Arial" size="20px" weight="400" font-style="" opacity="1" y="452.3" transform="rotate(0)"><tspan id="SvgjsTspan1416" dy="25" x="0"><tspan id="SvgjsTspan1417" style=""> </tspan></tspan></text></g></g><g id="SvgjsG1418" transform="translate(1720.8095238095239,819.788475325613)"><path id="SvgjsPath1419" d="M 0 0L 608.75 0L 608.75 50L 0 50Z" stroke="none" fill="none"></path><g id="SvgjsG1420"><text id="SvgjsText1421" font-family="&quot;Microsoft YaHei&quot;, 微软雅黑, Arial" text-anchor="middle" font-size="20px" width="609px" fill="#323232" font-weight="700" align="middle" lineHeight="125%" anchor="middle" family="&quot;Microsoft YaHei&quot;, 微软雅黑, Arial" size="20px" weight="700" font-style="" opacity="1" y="-5.5" transform="rotate(0)"><tspan id="SvgjsTspan1422" dy="25" x="304.5"><tspan id="SvgjsTspan1423" style="">源码目录,每个子目录都有子CMake, 描述源码的构建细节,  兼容不同</tspan></tspan><tspan id="SvgjsTspan1424" dy="25" x="304.5"><tspan id="SvgjsTspan1425" style="">平台构建细节.</tspan></tspan></text></g></g><g id="SvgjsG1426" transform="matrix(-1.8369701987210297e-16,-1,1,-1.8369701987210297e-16,642.97216796875,819.0242614746095)"><path id="SvgjsPath1427" d="M 20 0Q 18 0 18 9L 18 418.5Q 18 427.5 -2 427.5Q 18 427.5 18 436.5L 18 846Q 18 855 20 855" stroke="rgba(33,41,48,1)" stroke-width="2" fill="none"></path><path id="SvgjsPath1428" d="M 0 0L 20 0L 20 855L 0 855Z" stroke="none" fill="none"></path><g id="SvgjsG1429"><text id="SvgjsText1430" font-family="&quot;Microsoft YaHei&quot;, 微软雅黑, Arial" text-anchor="end" font-size="20px" width="0" fill="#323232" font-weight="400" align="middle" lineHeight="125%" anchor="end" family="&quot;Microsoft YaHei&quot;, 微软雅黑, Arial" size="20px" weight="400" font-style="" opacity="1" y="409.5" transform="rotate(0)"><tspan id="SvgjsTspan1431" dy="25" x="0"><tspan id="SvgjsTspan1432" style=""> </tspan></tspan></text></g></g><g id="SvgjsG1433" transform="translate(944.652777777778,828.7742716471354)"><path id="SvgjsPath1434" d="M 0 0L 294.444 0L 294.444 40L 0 40Z" stroke="none" fill="none"></path><g id="SvgjsG1435"><text id="SvgjsText1436" font-family="&quot;Microsoft YaHei&quot;, 微软雅黑, Arial" text-anchor="middle" font-size="20px" width="295px" fill="#323232" font-weight="700" align="middle" lineHeight="125%" anchor="middle" family="&quot;Microsoft YaHei&quot;, 微软雅黑, Arial" size="20px" weight="700" font-style="" opacity="1" y="2" transform="rotate(0)"><tspan id="SvgjsTspan1437" dy="25" x="147.5"><tspan id="SvgjsTspan1438" style="">CMake模块, 跨平台部署规则</tspan></tspan></text></g></g><g id="SvgjsG1439" transform="matrix(-1.8369701987210297e-16,-1,1,-1.8369701987210297e-16,352.7708740234375,819.0242919921875)"><path id="SvgjsPath1440" d="M 20 0Q 18 0 18 9L 18 105.5Q 18 114.5 -2 114.5Q 18 114.5 18 123.5L 18 220Q 18 229 20 229" stroke="rgba(33,41,48,1)" stroke-width="2" fill="none"></path><path id="SvgjsPath1441" d="M 0 0L 20 0L 20 229L 0 229Z" stroke="none" fill="none"></path><g id="SvgjsG1442"><text id="SvgjsText1443" font-family="&quot;Microsoft YaHei&quot;, 微软雅黑, Arial" text-anchor="end" font-size="20px" width="0" fill="#323232" font-weight="400" align="middle" lineHeight="125%" anchor="end" family="&quot;Microsoft YaHei&quot;, 微软雅黑, Arial" size="20px" weight="400" font-style="" opacity="1" y="96.5" transform="rotate(0)"><tspan id="SvgjsTspan1444" dy="25" x="0"><tspan id="SvgjsTspan1445" style=""> </tspan></tspan></text></g></g><g id="SvgjsG1446" transform="translate(344.375,834.0242716471353)"><path id="SvgjsPath1447" d="M 0 0L 253.75 0L 253.75 40L 0 40Z" stroke="none" fill="none"></path><g id="SvgjsG1448"><text id="SvgjsText1449" font-family="&quot;Microsoft YaHei&quot;, 微软雅黑, Arial" text-anchor="middle" font-size="20px" width="254px" fill="#323232" font-weight="700" align="middle" lineHeight="125%" anchor="middle" family="&quot;Microsoft YaHei&quot;, 微软雅黑, Arial" size="20px" weight="700" font-style="" opacity="1" y="2" transform="rotate(0)"><tspan id="SvgjsTspan1450" dy="25" x="127"><tspan id="SvgjsTspan1451" style="">CMake模块, 依赖检查安装</tspan></tspan></text></g></g><g id="SvgjsG1452" transform="translate(2477.416666666667,469.30552164713527)"><path id="SvgjsPath1453" d="M 0 0L 100 0L 100 40L 0 40Z" stroke="none" fill="none"></path><g id="SvgjsG1454"><text id="SvgjsText1455" font-family="&quot;Microsoft YaHei&quot;, 微软雅黑, Arial" text-anchor="middle" font-size="13px" width="100px" fill="#323232" font-weight="400" align="middle" lineHeight="125%" anchor="middle" family="&quot;Microsoft YaHei&quot;, 微软雅黑, Arial" size="13px" weight="400" font-style="" opacity="1" y="9.375" transform="rotate(0)"></text></g></g><g id="SvgjsG1456"><path id="SvgjsPath1457" d="M1106.3141870623406 301.0256611893215C 1271.444478352865 354.1666666666667 1169.7778116861982 264.1666666666667 1385.2309759314053 368.97377530844636" stroke="#323232" stroke-width="1.5" fill="none" marker-end="url(#SvgjsMarker1458)"></path></g><g id="SvgjsG1460" transform="translate(58.7054029192243,250.63885498046892)"><path id="SvgjsPath1461" d="M 0 0L 169 0L 169 54L 0 54Z" stroke="rgba(33,41,48,1)" stroke-width="1.5" fill-opacity="1" fill="#b0e38f"></path><g id="SvgjsG1462"><text id="SvgjsText1463" font-family="&quot;Microsoft YaHei&quot;, 微软雅黑, Arial" text-anchor="middle" font-size="20px" width="149px" fill="#323232" font-weight="700" align="middle" lineHeight="125%" anchor="middle" family="&quot;Microsoft YaHei&quot;, 微软雅黑, Arial" size="20px" weight="700" font-style="" opacity="1" y="9" transform="rotate(0)"><tspan id="SvgjsTspan1464" dy="25" x="84.5"><tspan id="SvgjsTspan1465" style="">CMakeLists.txt</tspan></tspan></text></g></g><g id="SvgjsG1466" transform="matrix(-1.8369701987210297e-16,-1,1,-1.8369701987210297e-16,33.39585876464844,814.6388549804688)"><path id="SvgjsPath1467" d="M 20 0Q 18 0 18 9L 18 105.5Q 18 114.5 -2 114.5Q 18 114.5 18 123.5L 18 220Q 18 229 20 229" stroke="rgba(33,41,48,1)" stroke-width="2" fill="none"></path><path id="SvgjsPath1468" d="M 0 0L 20 0L 20 229L 0 229Z" stroke="none" fill="none"></path><g id="SvgjsG1469"><text id="SvgjsText1470" font-family="&quot;Microsoft YaHei&quot;, 微软雅黑, Arial" text-anchor="end" font-size="20px" width="0" fill="#323232" font-weight="400" align="middle" lineHeight="125%" anchor="end" family="&quot;Microsoft YaHei&quot;, 微软雅黑, Arial" size="20px" weight="400" font-style="" opacity="1" y="96.5" transform="rotate(0)"><tspan id="SvgjsTspan1471" dy="25" x="0"><tspan id="SvgjsTspan1472" style=""> </tspan></tspan></text></g></g><g id="SvgjsG1473" transform="translate(25,829.6388549804692)"><path id="SvgjsPath1474" d="M 0 0L 253.75 0L 253.75 40L 0 40Z" stroke="none" fill="none"></path><g id="SvgjsG1475"><text id="SvgjsText1476" font-family="&quot;Microsoft YaHei&quot;, 微软雅黑, Arial" text-anchor="middle" font-size="20px" width="254px" fill="#323232" font-weight="700" align="middle" lineHeight="125%" anchor="middle" family="&quot;Microsoft YaHei&quot;, 微软雅黑, Arial" size="20px" weight="700" font-style="" opacity="1" y="2" transform="rotate(0)"><tspan id="SvgjsTspan1477" dy="25" x="127"><tspan id="SvgjsTspan1478" style="">根CMake</tspan></tspan></text></g></g><g id="SvgjsG1479" transform="translate(1530.229166666667,371.80552164713544)"><path id="SvgjsPath1480" d="M 0 0L 169 0L 169 54L 0 54Z" stroke="rgba(33,41,48,1)" stroke-width="1.5" fill-opacity="1" fill="#f1e4a2"></path><g id="SvgjsG1481"><text id="SvgjsText1482" font-family="&quot;Microsoft YaHei&quot;, 微软雅黑, Arial" text-anchor="middle" font-size="20px" width="149px" fill="#323232" font-weight="700" align="middle" lineHeight="125%" anchor="middle" family="&quot;Microsoft YaHei&quot;, 微软雅黑, Arial" size="20px" weight="700" font-style="" opacity="1" y="9" transform="rotate(0)"><tspan id="SvgjsTspan1483" dy="25" x="84.5"><tspan id="SvgjsTspan1484" style="">CMakeLists.txt</tspan></tspan></text></g></g><g id="SvgjsG1485"><path id="SvgjsPath1486" d="M2101.1321653498007 301.072653280794C 1919.916666666667 374.424562000093 1681.345238095238 290.8531116303943 1616.5560682767257 369.8174495892956" stroke="#323232" stroke-width="1.5" fill="none" marker-end="url(#SvgjsMarker1487)"></path></g><g id="SvgjsG1489"><path id="SvgjsPath1490" d="M1614.9524025859446 426.5215284378463C 1644.2023809523812 549.4245402018228 1804.2023809523812 495.13882591610854 1852.3064881217865 428.40737608363384" stroke="#e62727" stroke-width="2" fill="none" marker-end="url(#SvgjsMarker1491)"></path></g><g id="SvgjsG1493"><path id="SvgjsPath1494" d="M1614.837444229755 426.5476644698668C 1631.345238095238 596.5673973446801 1922.7738095238096 630.8531116303943 2014.7558679884567 546.4601482755687" stroke="#e62727" stroke-width="2" fill="none" marker-end="url(#SvgjsMarker1495)"></path></g><g id="SvgjsG1497"><path id="SvgjsPath1498" d="M1614.755831027616 426.55504750516513C 1614.729166666667 697.2526090923661 2158.25 735.0694147745767 2272.5513893192046 586.3527379530576" stroke="#e62727" stroke-width="2" fill="none" marker-end="url(#SvgjsMarker1499)"></path></g><g id="SvgjsG1501"><path id="SvgjsPath1502" d="M2101.8333231608076 426.55552164713544C 2101.8333231608076 441.41980736142114 2101.8333231608076 449.22695021856407 2101.8333231608076 462.14123593284967" stroke="#323232" stroke-width="1.5" fill="none" marker-end="url(#SvgjsMarker1503)"></path></g><g id="SvgjsG1505"><path id="SvgjsPath1506" d="M2362.0593840356287 426.5555216471291L2362.0595127098322 457.85552164715807" stroke="#323232" stroke-width="1.5" fill="none" marker-end="url(#SvgjsMarker1507)"></path></g><g id="SvgjsG1509"><path id="SvgjsPath1510" d="M143.4933827131059 305.3313632030309C 155.7083435058596 359.0971984863281 425.7083435058596 387.5971984863281 452.0976599876525 307.67151144653246" stroke="#db1f1f" stroke-width="2" fill="none" marker-end="url(#SvgjsMarker1511)"></path></g><g id="SvgjsG1513" transform="translate(664.1666666666666,370.1388549804689)"><path id="SvgjsPath1514" d="M 0 0L 189.333 0L 189.333 54L 0 54Z" stroke="rgba(33,41,48,1)" stroke-width="1.5" fill-opacity="1" fill="#f1e4a2"></path><g id="SvgjsG1515"><text id="SvgjsText1516" font-family="&quot;Microsoft YaHei&quot;, 微软雅黑, Arial" text-anchor="middle" font-size="20px" width="170px" fill="#323232" font-weight="700" align="middle" lineHeight="125%" anchor="middle" family="&quot;Microsoft YaHei&quot;, 微软雅黑, Arial" size="20px" weight="700" font-style="" opacity="1" y="9" transform="rotate(0)"><tspan id="SvgjsTspan1517" dy="25" x="95"><tspan id="SvgjsTspan1518" style="">CMakeLists.txt</tspan></tspan></text></g></g><g id="SvgjsG1519" transform="translate(1303.166666666667,370.1388549804689)"><path id="SvgjsPath1520" d="M 0 0L 169 0L 169 54L 0 54Z" stroke="rgba(33,41,48,1)" stroke-width="1.5" fill-opacity="1" fill="#f1e4a2"></path><g id="SvgjsG1521"><text id="SvgjsText1522" font-family="&quot;Microsoft YaHei&quot;, 微软雅黑, Arial" text-anchor="middle" font-size="20px" width="149px" fill="#323232" font-weight="700" align="middle" lineHeight="125%" anchor="middle" family="&quot;Microsoft YaHei&quot;, 微软雅黑, Arial" size="20px" weight="700" font-style="" opacity="1" y="9" transform="rotate(0)"><tspan id="SvgjsTspan1523" dy="25" x="84.5"><tspan id="SvgjsTspan1524" style="">Windows/</tspan></tspan></text></g></g><g id="SvgjsG1525"><path id="SvgjsPath1526" d="M143.4305714273138 305.35425636638087C 170.16668701171898 409.30552673339844 503.1111450195315 485.83333333333337 755.5686787698999 424.88875766346627" stroke="#db1f1f" stroke-width="2" fill="none" marker-end="url(#SvgjsMarker1527)"></path></g><g id="SvgjsG1529"><path id="SvgjsPath1530" d="M143.324207131139 305.37938557351106C 178.16668701171898 583.3055267333984 1380.166687011719 654.3055267333984 1606.7456518209308 427.62092920488476" stroke="#db1f1f" stroke-width="2" fill="none" marker-end="url(#SvgjsMarker1531)"></path></g><g id="SvgjsG1533"><path id="SvgjsPath1534" d="M1105.5972222222224 127.80552164713538C 1105.5972222222224 174.95552164713538 1105.5972222222224 198.9055216471354 1105.5972222222224 244.1055216471354" stroke="#323232" stroke-width="1.5" fill="none" marker-end="url(#SvgjsMarker1535)"></path></g><g id="SvgjsG1537"><path id="SvgjsPath1538" d="M1104.880679452311 125.63817616733783C 570.2500000000002 293.97222900390625 826.2500000000002 45.97222900390625 455.89286516787274 249.3490543667836" stroke="#323232" stroke-width="1.5" fill="none" marker-end="url(#SvgjsMarker1539)"></path></g><g id="SvgjsG1541"><path id="SvgjsPath1542" d="M1104.8611161987055 127.19921549579297C 732.2500000000002 201.97222900390625 812.2500000000002 21.97222900390625 145.7625149537986 249.77214970032156" stroke="#323232" stroke-width="1.5" fill="none" marker-end="url(#SvgjsMarker1543)"></path></g><g id="SvgjsG1545"><path id="SvgjsPath1546" d="M1106.322528312695 127.24723336822458C 1586.2500000000002 255.97222900390625 1356.2500000000002 -32.02777099609375 2590.740204842942 246.21572975134228" stroke="#323232" stroke-width="1.5" fill="none" marker-end="url(#SvgjsMarker1547)"></path></g><g id="SvgjsG1549"><path id="SvgjsPath1550" d="M291.30552164713566 61.66666666666667L291.30552164713566 447.845469156901L291.30552164713566 447.845469156901L291.30552164713566 834.0242716471353" stroke-dasharray="7.5,3" stroke="#323232" stroke-width="1.5" fill="none"></path></g><g id="SvgjsG1551"><path id="SvgjsPath1552" d="M615.9166666666669 58.33333333333334L615.9166666666669 448.33333333333337L615.9166666666669 448.33333333333337L615.9166666666669 838.3333333333334" stroke-dasharray="7.5,3" stroke="#323232" stroke-width="1.5" fill="none"></path></g><g id="SvgjsG1553"><path id="SvgjsPath1554" d="M1517.5833333333335 50L1517.5833333333335 440.0000000000001L1517.5833333333335 440.0000000000001L1517.5833333333335 830.0000000000001" stroke-dasharray="7.5,3" stroke="#323232" stroke-width="1.5" fill="none"></path></g><g id="SvgjsG1555"><path id="SvgjsPath1556" d="M2497.583333333334 25L2497.583333333334 415.0000000000001L2497.583333333334 415.0000000000001L2497.583333333334 805.0000000000001" stroke-dasharray="7.5,3" stroke="#323232" stroke-width="1.5" fill="none"></path></g><g id="SvgjsG1557"></g></svg>