<svg id="SvgjsSvg1122" width="771.9230769230771" height="277.69230769230757" xmlns="http://www.w3.org/2000/svg" version="1.1" xmlns:xlink="http://www.w3.org/1999/xlink" xmlns:svgjs="http://svgjs.com/svgjs"><defs id="SvgjsDefs1123"><pattern patternUnits="userSpaceOnUse" id="pattern_mark_0" width="300" height="300"><text x="150" y="100" fill="rgba(229,229,229,0.8)" font-size="18" transform="rotate(-45, 150, 150)" style="dominant-baseline: middle; text-anchor: middle;"></text></pattern><pattern patternUnits="userSpaceOnUse" id="pattern_mark_1" width="300" height="300"><text x="150" y="200" fill="rgba(229,229,229,0.8)" font-size="18" transform="rotate(-45, 150, 150)" style="dominant-baseline: middle; text-anchor: middle;"></text></pattern><marker id="SvgjsMarker1165" markerWidth="13" markerHeight="9" refX="9.5" refY="4.5" viewBox="0 0 13 9" orient="auto" markerUnits="userSpaceOnUse" stroke-dasharray="0,0"><path id="SvgjsPath1166" d="M0,0 L13,4.5 L0,9 L0,0" fill="#323232" stroke="#323232" stroke-width="1"></path></marker><marker id="SvgjsMarker1169" markerWidth="13" markerHeight="9" refX="9.5" refY="4.5" viewBox="0 0 13 9" orient="auto" markerUnits="userSpaceOnUse" stroke-dasharray="0,0"><path id="SvgjsPath1170" d="M0,0 L13,4.5 L0,9 L0,0" fill="#323232" stroke="#323232" stroke-width="1"></path></marker><marker id="SvgjsMarker1173" markerWidth="13" markerHeight="9" refX="9.5" refY="4.5" viewBox="0 0 13 9" orient="auto" markerUnits="userSpaceOnUse" stroke-dasharray="0,0"><path id="SvgjsPath1174" d="M0,0 L13,4.5 L0,9 L0,0" fill="#323232" stroke="#323232" stroke-width="1"></path></marker><marker id="SvgjsMarker1177" markerWidth="13" markerHeight="9" refX="9.5" refY="4.5" viewBox="0 0 13 9" orient="auto" markerUnits="userSpaceOnUse" stroke-dasharray="0,0"><path id="SvgjsPath1178" d="M0,0 L13,4.5 L0,9 L0,0" fill="#323232" stroke="#323232" stroke-width="1"></path></marker></defs><rect id="svgbackgroundid" width="771.9230769230771" height="277.69230769230757" fill="transparent"></rect><rect id="SvgjsRect1125" width="771.9230769230771" height="277.69230769230757" fill="url(#pattern_mark_0)"></rect><rect id="SvgjsRect1126" width="771.9230769230771" height="277.69230769230757" fill="url(#pattern_mark_1)"></rect><g id="SvgjsG1127" transform="translate(25,123.5911863587865)"><path id="SvgjsPath1128" d="M 0 4Q 0 0 4 0L 76.378 0Q 80.378 0 80.378 4L 80.378 37.832Q 80.378 41.832 76.378 41.832L 4 41.832Q 0 41.832 0 37.832Z" stroke="rgba(33,41,48,1)" stroke-width="1.5" fill-opacity="1" fill="#ffffff"></path><g id="SvgjsG1129"><text id="SvgjsText1130" font-family="&quot;Microsoft YaHei&quot;, 微软雅黑, Arial" text-anchor="middle" font-size="14px" width="61px" fill="#323232" font-weight="400" align="middle" lineHeight="125%" anchor="middle" family="&quot;Microsoft YaHei&quot;, 微软雅黑, Arial" size="14px" weight="400" font-style="" opacity="1" y="9.166" transform="rotate(0)"><tspan id="SvgjsTspan1131" dy="17.5" x="40.5"><tspan id="SvgjsTspan1132" style="">AI助手</tspan></tspan></text></g></g><g id="SvgjsG1133" transform="translate(373.7566653170188,119.74764962857091)"><path id="SvgjsPath1134" d="M 0 4Q 0 0 4 0L 100.917 0Q 104.917 0 104.917 4L 104.917 45.519Q 104.917 49.519 100.917 49.519L 4 49.519Q 0 49.519 0 45.519Z" stroke="rgba(33,41,48,1)" stroke-width="1.5" fill-opacity="1" fill="#ffffff"></path><g id="SvgjsG1135"><text id="SvgjsText1136" font-family="&quot;Microsoft YaHei&quot;, 微软雅黑, Arial" text-anchor="middle" font-size="14px" width="85px" fill="#323232" font-weight="400" align="middle" lineHeight="125%" anchor="middle" family="&quot;Microsoft YaHei&quot;, 微软雅黑, Arial" size="14px" weight="400" font-style="" opacity="1" y="4.509499999999999" transform="rotate(0)"><tspan id="SvgjsTspan1137" dy="17.5" x="52.5"><tspan id="SvgjsTspan1138" style="">FreeCAD </tspan></tspan><tspan id="SvgjsTspan1139" dy="17.5" x="52.5"><tspan id="SvgjsTspan1140" style="">RPC Server</tspan></tspan></text></g></g><g id="SvgjsG1141" transform="translate(611.4135619042393,25)"><path id="SvgjsPath1142" d="M 0 4Q 0 0 3.9999999999999996 0L 131.51 0Q 135.51 0 135.51 4L 135.51 45.519Q 135.51 49.519 131.51 49.519L 3.9999999999999996 49.519Q 0 49.519 0 45.519Z" stroke="rgba(33,41,48,1)" stroke-width="1.5" fill-opacity="1" fill="#ffffff"></path><g id="SvgjsG1143"><text id="SvgjsText1144" font-family="&quot;Microsoft YaHei&quot;, 微软雅黑, Arial" text-anchor="middle" font-size="14px" width="116px" fill="#323232" font-weight="400" align="middle" lineHeight="125%" anchor="middle" family="&quot;Microsoft YaHei&quot;, 微软雅黑, Arial" size="14px" weight="400" font-style="" opacity="1" y="4.509499999999999" transform="rotate(0)"><tspan id="SvgjsTspan1145" dy="17.5" x="68"><tspan id="SvgjsTspan1146" style="">FreeCAD </tspan></tspan><tspan id="SvgjsTspan1147" dy="17.5" x="68"><tspan id="SvgjsTspan1148" style="">Application</tspan></tspan></text></g></g><g id="SvgjsG1149" transform="translate(611.4135619042393,203.17325307511112)"><path id="SvgjsPath1150" d="M 0 4Q 0 0 3.9999999999999996 0L 131.51 0Q 135.51 0 135.51 4L 135.51 45.519Q 135.51 49.519 131.51 49.519L 3.9999999999999996 49.519Q 0 49.519 0 45.519Z" stroke="rgba(33,41,48,1)" stroke-width="1.5" fill-opacity="1" fill="#ffffff"></path><g id="SvgjsG1151"><text id="SvgjsText1152" font-family="&quot;Microsoft YaHei&quot;, 微软雅黑, Arial" text-anchor="middle" font-size="14px" width="116px" fill="#323232" font-weight="400" align="middle" lineHeight="125%" anchor="middle" family="&quot;Microsoft YaHei&quot;, 微软雅黑, Arial" size="14px" weight="400" font-style="" opacity="1" y="13.0095" transform="rotate(0)"><tspan id="SvgjsTspan1153" dy="17.5" x="68"><tspan id="SvgjsTspan1154" style="">零件库</tspan></tspan></text></g></g><g id="SvgjsG1155" transform="translate(168.23819458265007,99.755299659775)"><path id="SvgjsPath1156" d="M 0 44.752L 72.134 0L 144.269 44.752L 72.134 89.504Z" stroke="rgba(33,41,48,1)" stroke-width="1.5" fill-opacity="1" fill="#ffffff"></path><g id="SvgjsG1157"><text id="SvgjsText1158" font-family="&quot;Microsoft YaHei&quot;, 微软雅黑, Arial" text-anchor="middle" font-size="14px" width="125px" fill="#323232" font-weight="400" align="middle" lineHeight="125%" anchor="middle" family="&quot;Microsoft YaHei&quot;, 微软雅黑, Arial" size="14px" weight="400" font-style="" opacity="1" y="7.449" transform="rotate(0)"><tspan id="SvgjsTspan1159" dy="35" x="72.5"><tspan id="SvgjsTspan1160" style="">FreeCAD MCP </tspan></tspan><tspan id="SvgjsTspan1161" dy="17.5" x="72.5"><tspan id="SvgjsTspan1162" style="">Server</tspan></tspan></text></g></g><g id="SvgjsG1163"><path id="SvgjsPath1164" d="M106.12826746364533 144.5071769371691L136.80823102314775 144.5071769371691L136.80823102314775 144.5071769371691L165.53819458265002 144.5071769371691" stroke="#323232" stroke-width="1.5" fill="none" marker-end="url(#SvgjsMarker1165)"></path></g><g id="SvgjsG1167"><path id="SvgjsPath1168" d="M313.2567734985337 144.5068777602737L343.13171940777625 144.5068777602737L343.13171940777625 144.50681939886869L371.05666531701877 144.50681939886869" stroke="#323232" stroke-width="1.5" fill="none" marker-end="url(#SvgjsMarker1169)"></path></g><g id="SvgjsG1171"><path id="SvgjsPath1172" d="M479.41917603977663 144.42813564243608C 545.7336476880607 144.50753447546958 544.3533048811233 49.75988484689873 608.728734554845 50.045720645819415" stroke="#323232" stroke-width="1.5" fill="none" marker-end="url(#SvgjsMarker1173)"></path></g><g id="SvgjsG1175"><path id="SvgjsPath1176" d="M479.41957490222796 144.5830929563324C 542.8608764789728 144.50753447546958 547.2260760902112 227.9331379220098 608.7272986500202 227.66112739090374" stroke="#323232" stroke-width="1.5" fill="none" marker-end="url(#SvgjsMarker1177)"></path></g><g id="SvgjsG1179"></g></svg>