<svg id="SvgjsSvg1234" width="2382" height="712.5515847584554" xmlns="http://www.w3.org/2000/svg" version="1.1" xmlns:xlink="http://www.w3.org/1999/xlink" xmlns:svgjs="http://svgjs.com/svgjs"><defs id="SvgjsDefs1235"><pattern patternUnits="userSpaceOnUse" id="pattern_mark_0" width="300" height="300"><text x="150" y="100" fill="rgba(229,229,229,0.8)" font-size="18" transform="rotate(-45, 150, 150)" style="dominant-baseline: middle; text-anchor: middle;"></text></pattern><pattern patternUnits="userSpaceOnUse" id="pattern_mark_1" width="300" height="300"><text x="150" y="200" fill="rgba(229,229,229,0.8)" font-size="18" transform="rotate(-45, 150, 150)" style="dominant-baseline: middle; text-anchor: middle;"></text></pattern></defs><rect id="svgbackgroundid" width="2382" height="712.5515847584554" fill="transparent"></rect><rect id="SvgjsRect1237" width="2382" height="712.5515847584554" fill="url(#pattern_mark_0)"></rect><rect id="SvgjsRect1238" width="2382" height="712.5515847584554" fill="url(#pattern_mark_1)"></rect><g id="SvgjsG1239" transform="translate(580.7016117156496,35.5)"><path id="SvgjsPath1240" d="M 0 0L 209.556 0L 225.556 16L 225.556 49L 0 49L 0 0Z" stroke="none" fill-opacity="1" fill="#fff7bc"></path><path id="SvgjsPath1241" d="M 209.556 0L 209.556 16L 225.556 16Z" stroke="none" fill-opacity="1" fill="#e4d089"></path><path id="SvgjsPath1242" d="M 0 0L 209.556 0L 225.556 16L 225.556 49L 0 49L 0 0Z" stroke="none" fill="none"></path><g id="SvgjsG1243"><text id="SvgjsText1244" font-family="&quot;Microsoft YaHei&quot;, 微软雅黑, Arial" text-anchor="middle" font-size="24px" width="206px" fill="#323232" font-weight="400" align="middle" lineHeight="125%" anchor="middle" family="&quot;Microsoft YaHei&quot;, 微软雅黑, Arial" size="24px" weight="400" font-style="" opacity="1" y="3.5" transform="rotate(0)"><tspan id="SvgjsTspan1245" dy="30" x="113"><tspan id="SvgjsTspan1246" style="">1. 根节点： 黑色</tspan></tspan></text></g></g><g id="SvgjsG1247" transform="translate(25,623.9920634920638)"><path id="SvgjsPath1248" d="M 0 0L 310.622 0L 326.622 16L 326.622 49L 0 49L 0 0Z" stroke="none" fill-opacity="1" fill="#fff7bc"></path><path id="SvgjsPath1249" d="M 310.622 0L 310.622 16L 326.622 16Z" stroke="none" fill-opacity="1" fill="#e4d089"></path><path id="SvgjsPath1250" d="M 0 0L 310.622 0L 326.622 16L 326.622 49L 0 49L 0 0Z" stroke="none" fill="none"></path><g id="SvgjsG1251"><text id="SvgjsText1252" font-family="&quot;Microsoft YaHei&quot;, 微软雅黑, Arial" text-anchor="middle" font-size="24px" width="307px" fill="#323232" font-weight="400" align="middle" lineHeight="125%" anchor="middle" family="&quot;Microsoft YaHei&quot;, 微软雅黑, Arial" size="24px" weight="400" font-style="" opacity="1" y="3.5" transform="rotate(0)"><tspan id="SvgjsTspan1253" dy="30" x="163.5"><tspan id="SvgjsTspan1254" style="">3. 叶子节点是黑色空节点</tspan></tspan></text></g></g><g id="SvgjsG1255" transform="translate(1962.0349450489816,418.46428486657464)"><path id="SvgjsPath1256" d="M 0 0L 378.965 0L 394.965 16L 394.965 74L 0 74L 0 0Z" stroke="none" fill-opacity="1" fill="#fff7bc"></path><path id="SvgjsPath1257" d="M 378.965 0L 378.965 16L 394.965 16Z" stroke="none" fill-opacity="1" fill="#e4d089"></path><path id="SvgjsPath1258" d="M 0 0L 378.965 0L 394.965 16L 394.965 74L 0 74L 0 0Z" stroke="none" fill="none"></path><g id="SvgjsG1259"><text id="SvgjsText1260" font-family="&quot;Microsoft YaHei&quot;, 微软雅黑, Arial" text-anchor="middle" font-size="24px" width="375px" fill="#323232" font-weight="400" align="middle" lineHeight="125%" anchor="middle" family="&quot;Microsoft YaHei&quot;, 微软雅黑, Arial" size="24px" weight="400" font-style="" opacity="1" y="1" transform="rotate(0)"><tspan id="SvgjsTspan1261" dy="30" x="197.5"><tspan id="SvgjsTspan1262" style="">4. 红色节点的子节点必须是黑色</tspan></tspan><tspan id="SvgjsTspan1263" dy="30" x="197.5"><tspan id="SvgjsTspan1264" style="">（不允许连续的红节点）</tspan></tspan></text></g></g><g id="SvgjsG1265" transform="translate(1624.3793910193053,32.726186661492875)"><path id="SvgjsPath1266" d="M 0 0L 536.621 0L 552.621 16L 552.621 114L 0 114L 0 0Z" stroke="none" fill-opacity="1" fill="#fff7bc"></path><path id="SvgjsPath1267" d="M 536.621 0L 536.621 16L 552.621 16Z" stroke="none" fill-opacity="1" fill="#e4d089"></path><path id="SvgjsPath1268" d="M 0 0L 536.621 0L 552.621 16L 552.621 114L 0 114L 0 0Z" stroke="none" fill="none"></path><g id="SvgjsG1269"><text id="SvgjsText1270" font-family="&quot;Microsoft YaHei&quot;, 微软雅黑, Arial" text-anchor="middle" font-size="24px" width="533px" fill="#323232" font-weight="400" align="middle" lineHeight="125%" anchor="middle" family="&quot;Microsoft YaHei&quot;, 微软雅黑, Arial" size="24px" weight="400" font-style="" opacity="1" y="21" transform="rotate(0)"><tspan id="SvgjsTspan1271" dy="30" x="276.5"><tspan id="SvgjsTspan1272" style="">2. 从任意节点到其所有可达的叶子节点的路径上，</tspan></tspan><tspan id="SvgjsTspan1273" dy="30" x="276.5"><tspan id="SvgjsTspan1274" style="">包含黑色节点的数量相同(包括叶子节点)</tspan></tspan></text></g></g><g id="SvgjsG1275" transform="translate(527.8063705686542,403.57142857142844)"><path id="SvgjsPath1276" d="M 0 35C 0 -11.667 70 -11.667 70 35C 70 81.667 0 81.667 0 35Z" stroke="rgba(255,255,255,1)" stroke-width="1.5" fill-opacity="1" fill="#000000"></path><g id="SvgjsG1277"><text id="SvgjsText1278" font-family="&quot;Microsoft YaHei&quot;, 微软雅黑, Arial" text-anchor="middle" font-size="30px" width="50px" fill="#ffffff" font-weight="400" align="middle" lineHeight="125%" anchor="middle" family="&quot;Microsoft YaHei&quot;, 微软雅黑, Arial" size="30px" weight="400" font-style="" opacity="1" y="9.25" transform="rotate(0)"><tspan id="SvgjsTspan1279" dy="37.5" x="35"><tspan id="SvgjsTspan1280" style="">8</tspan></tspan></text></g></g><g id="SvgjsG1281" transform="translate(387.8127228267613,628.325398520818)"><path id="SvgjsPath1282" d="M 0 4Q 0 0 4 0L 42.022 0Q 46.022 0 46.022 4L 46.022 36.333Q 46.022 40.333 42.022 40.333L 4 40.333Q 0 40.333 0 36.333Z" stroke="rgba(33,41,48,1)" stroke-width="1.5" fill-opacity="1" fill="#000000"></path><g id="SvgjsG1283"><text id="SvgjsText1284" font-family="&quot;Microsoft YaHei&quot;, 微软雅黑, Arial" text-anchor="middle" font-size="30px" width="27px" fill="#ffffff" font-weight="400" align="middle" lineHeight="125%" anchor="middle" family="&quot;Microsoft YaHei&quot;, 微软雅黑, Arial" size="30px" weight="400" font-style="" opacity="1" y="-5.583500000000001" transform="rotate(0)"></text></g></g><g id="SvgjsG1285" transform="translate(428.590500604539,520.007934812515)"><path id="SvgjsPath1286" d="M 0 35C 0 -11.667 70 -11.667 70 35C 70 81.667 0 81.667 0 35Z" stroke="rgba(255,255,255,1)" stroke-width="1.5" fill-opacity="1" fill="#e60c0c"></path><g id="SvgjsG1287"><text id="SvgjsText1288" font-family="&quot;Microsoft YaHei&quot;, 微软雅黑, Arial" text-anchor="middle" font-size="30px" width="50px" fill="#ffffff" font-weight="400" align="middle" lineHeight="125%" anchor="middle" family="&quot;Microsoft YaHei&quot;, 微软雅黑, Arial" size="30px" weight="400" font-style="" opacity="1" y="9.25" transform="rotate(0)"><tspan id="SvgjsTspan1289" dy="37.5" x="35"><tspan id="SvgjsTspan1290" style="">7</tspan></tspan></text></g></g><g id="SvgjsG1291" transform="translate(493.3460531083367,628.325398520818)"><path id="SvgjsPath1292" d="M 0 4Q 0 0 4 0L 42.022 0Q 46.022 0 46.022 4L 46.022 36.333Q 46.022 40.333 42.022 40.333L 4 40.333Q 0 40.333 0 36.333Z" stroke="rgba(33,41,48,1)" stroke-width="1.5" fill-opacity="1" fill="#000000"></path><g id="SvgjsG1293"><text id="SvgjsText1294" font-family="&quot;Microsoft YaHei&quot;, 微软雅黑, Arial" text-anchor="middle" font-size="30px" width="27px" fill="#ffffff" font-weight="400" align="middle" lineHeight="125%" anchor="middle" family="&quot;Microsoft YaHei&quot;, 微软雅黑, Arial" size="30px" weight="400" font-style="" opacity="1" y="-5.583500000000001" transform="rotate(0)"></text></g></g><g id="SvgjsG1295"><path id="SvgjsPath1296" d="M462.98362934695075 590.4486243593774L411.4305940843494 627.8847089739561" stroke="#323232" stroke-width="1.5" fill="none"></path></g><g id="SvgjsG1297"><path id="SvgjsPath1298" d="M464.19737096760355 590.4486255912184L515.7501827452722 627.8847077421151" stroke="#323232" stroke-width="1.5" fill="none"></path></g><g id="SvgjsG1299" transform="translate(586.7016117156501,628.325398520818)"><path id="SvgjsPath1300" d="M 0 4Q 0 0 4 0L 42.022 0Q 46.022 0 46.022 4L 46.022 36.333Q 46.022 40.333 42.022 40.333L 4 40.333Q 0 40.333 0 36.333Z" stroke="rgba(33,41,48,1)" stroke-width="1.5" fill-opacity="1" fill="#000000"></path><g id="SvgjsG1301"><text id="SvgjsText1302" font-family="&quot;Microsoft YaHei&quot;, 微软雅黑, Arial" text-anchor="middle" font-size="30px" width="27px" fill="#ffffff" font-weight="400" align="middle" lineHeight="125%" anchor="middle" family="&quot;Microsoft YaHei&quot;, 微软雅黑, Arial" size="30px" weight="400" font-style="" opacity="1" y="-5.583500000000001" transform="rotate(0)"></text></g></g><g id="SvgjsG1303" transform="translate(627.4793894934276,520.007934812515)"><path id="SvgjsPath1304" d="M 0 35C 0 -11.667 70 -11.667 70 35C 70 81.667 0 81.667 0 35Z" stroke="rgba(255,255,255,1)" stroke-width="1.5" fill-opacity="1" fill="#e60c0c"></path><g id="SvgjsG1305"><text id="SvgjsText1306" font-family="&quot;Microsoft YaHei&quot;, 微软雅黑, Arial" text-anchor="middle" font-size="30px" width="50px" fill="#ffffff" font-weight="400" align="middle" lineHeight="125%" anchor="middle" family="&quot;Microsoft YaHei&quot;, 微软雅黑, Arial" size="30px" weight="400" font-style="" opacity="1" y="9.25" transform="rotate(0)"><tspan id="SvgjsTspan1307" dy="37.5" x="35"><tspan id="SvgjsTspan1308" style="">9</tspan></tspan></text></g></g><g id="SvgjsG1309" transform="translate(692.2349419972252,628.325398520818)"><path id="SvgjsPath1310" d="M 0 4Q 0 0 4 0L 42.022 0Q 46.022 0 46.022 4L 46.022 36.333Q 46.022 40.333 42.022 40.333L 4 40.333Q 0 40.333 0 36.333Z" stroke="rgba(33,41,48,1)" stroke-width="1.5" fill-opacity="1" fill="#000000"></path><g id="SvgjsG1311"><text id="SvgjsText1312" font-family="&quot;Microsoft YaHei&quot;, 微软雅黑, Arial" text-anchor="middle" font-size="30px" width="27px" fill="#ffffff" font-weight="400" align="middle" lineHeight="125%" anchor="middle" family="&quot;Microsoft YaHei&quot;, 微软雅黑, Arial" size="30px" weight="400" font-style="" opacity="1" y="-5.583500000000001" transform="rotate(0)"></text></g></g><g id="SvgjsG1313"><path id="SvgjsPath1314" d="M661.8725182358392 590.4486243593774L610.3194829732383 627.8847089739561" stroke="#323232" stroke-width="1.5" fill="none"></path></g><g id="SvgjsG1315"><path id="SvgjsPath1316" d="M663.0862598564919 590.4486255912184L714.6390716341605 627.8847077421151" stroke="#323232" stroke-width="1.5" fill="none"></path></g><g id="SvgjsG1317"><path id="SvgjsPath1318" d="M562.1270898479825 473.8893557683207L464.2697813252106 519.6900076156228" stroke="#323232" stroke-width="1.5" fill="none"></path></g><g id="SvgjsG1319"><path id="SvgjsPath1320" d="M563.4862105331906 473.88815814475424L661.7995495288911 519.6912052391892" stroke="#323232" stroke-width="1.5" fill="none"></path></g><g id="SvgjsG1321" transform="translate(728.2571672712052,250.64285544743575)"><path id="SvgjsPath1322" d="M 0 35C 0 -11.667 70 -11.667 70 35C 70 81.667 0 81.667 0 35Z" stroke="rgba(255,255,255,1)" stroke-width="1.5" fill-opacity="1" fill="#e60c0c"></path><g id="SvgjsG1323"><text id="SvgjsText1324" font-family="&quot;Microsoft YaHei&quot;, 微软雅黑, Arial" text-anchor="middle" font-size="30px" width="50px" fill="#ffffff" font-weight="400" align="middle" lineHeight="125%" anchor="middle" family="&quot;Microsoft YaHei&quot;, 微软雅黑, Arial" size="30px" weight="400" font-style="" opacity="1" y="9.25" transform="rotate(0)"><tspan id="SvgjsTspan1325" dy="37.5" x="35"><tspan id="SvgjsTspan1326" style="">10</tspan></tspan></text></g></g><g id="SvgjsG1327" transform="translate(899.5143040248321,403.57142857142844)"><path id="SvgjsPath1328" d="M 0 35C 0 -11.667 70 -11.667 70 35C 70 81.667 0 81.667 0 35Z" stroke="rgba(255,255,255,1)" stroke-width="1.5" fill-opacity="1" fill="#000000"></path><g id="SvgjsG1329"><text id="SvgjsText1330" font-family="&quot;Microsoft YaHei&quot;, 微软雅黑, Arial" text-anchor="middle" font-size="30px" width="50px" fill="#ffffff" font-weight="400" align="middle" lineHeight="125%" anchor="middle" family="&quot;Microsoft YaHei&quot;, 微软雅黑, Arial" size="30px" weight="400" font-style="" opacity="1" y="9.25" transform="rotate(0)"><tspan id="SvgjsTspan1331" dy="37.5" x="35"><tspan id="SvgjsTspan1332" style="">15</tspan></tspan></text></g></g><g id="SvgjsG1333"><path id="SvgjsPath1334" d="M762.5641343913057 320.92957033609423L563.4994034485535 403.28471368276996" stroke="#323232" stroke-width="1.5" fill="none"></path></g><g id="SvgjsG1335"><path id="SvgjsPath1336" d="M763.9321905315157 320.9697248373145L933.8392807645216 403.2445591815497" stroke="#323232" stroke-width="1.5" fill="none"></path></g><g id="SvgjsG1337" transform="translate(855.5905006045385,530.4603208511594)"><path id="SvgjsPath1338" d="M 0 4Q 0 0 4 0L 42.022 0Q 46.022 0 46.022 4L 46.022 36.333Q 46.022 40.333 42.022 40.333L 4 40.333Q 0 40.333 0 36.333Z" stroke="rgba(33,41,48,1)" stroke-width="1.5" fill-opacity="1" fill="#000000"></path><g id="SvgjsG1339"><text id="SvgjsText1340" font-family="&quot;Microsoft YaHei&quot;, 微软雅黑, Arial" text-anchor="middle" font-size="30px" width="27px" fill="#ffffff" font-weight="400" align="middle" lineHeight="125%" anchor="middle" family="&quot;Microsoft YaHei&quot;, 微软雅黑, Arial" size="30px" weight="400" font-style="" opacity="1" y="-5.583500000000001" transform="rotate(0)"></text></g></g><g id="SvgjsG1341" transform="translate(961.123830886114,530.4603208511594)"><path id="SvgjsPath1342" d="M 0 4Q 0 0 4 0L 42.022 0Q 46.022 0 46.022 4L 46.022 36.333Q 46.022 40.333 42.022 40.333L 4 40.333Q 0 40.333 0 36.333Z" stroke="rgba(33,41,48,1)" stroke-width="1.5" fill-opacity="1" fill="#000000"></path><g id="SvgjsG1343"><text id="SvgjsText1344" font-family="&quot;Microsoft YaHei&quot;, 微软雅黑, Arial" text-anchor="middle" font-size="30px" width="27px" fill="#ffffff" font-weight="400" align="middle" lineHeight="125%" anchor="middle" family="&quot;Microsoft YaHei&quot;, 微软雅黑, Arial" size="30px" weight="400" font-style="" opacity="1" y="-5.583500000000001" transform="rotate(0)"></text></g></g><g id="SvgjsG1345"><path id="SvgjsPath1346" d="M933.4667002360028 473.57142857142844L879.1221418818507 529.9204758175072" stroke="#323232" stroke-width="1.5" fill="none"></path></g><g id="SvgjsG1347"><path id="SvgjsPath1348" d="M933.4667002360028 473.57142857142844L983.6360070450066 529.9002540912611" stroke="#323232" stroke-width="1.5" fill="none"></path></g><g id="SvgjsG1349" transform="translate(1337.806370568654,422.46428486657464)"><path id="SvgjsPath1350" d="M 0 35C 0 -11.667 70 -11.667 70 35C 70 81.667 0 81.667 0 35Z" stroke="rgba(255,255,255,1)" stroke-width="1.5" fill-opacity="1" fill="#000000"></path><g id="SvgjsG1351"><text id="SvgjsText1352" font-family="&quot;Microsoft YaHei&quot;, 微软雅黑, Arial" text-anchor="middle" font-size="30px" width="50px" fill="#ffffff" font-weight="400" align="middle" lineHeight="125%" anchor="middle" family="&quot;Microsoft YaHei&quot;, 微软雅黑, Arial" size="30px" weight="400" font-style="" opacity="1" y="9.25" transform="rotate(0)"><tspan id="SvgjsTspan1353" dy="37.5" x="35"><tspan id="SvgjsTspan1354" style="">21</tspan></tspan></text></g></g><g id="SvgjsG1355" transform="translate(1197.8127228267613,647.2182548159642)"><path id="SvgjsPath1356" d="M 0 4Q 0 0 4 0L 42.022 0Q 46.022 0 46.022 4L 46.022 36.333Q 46.022 40.333 42.022 40.333L 4 40.333Q 0 40.333 0 36.333Z" stroke="rgba(33,41,48,1)" stroke-width="1.5" fill-opacity="1" fill="#000000"></path><g id="SvgjsG1357"><text id="SvgjsText1358" font-family="&quot;Microsoft YaHei&quot;, 微软雅黑, Arial" text-anchor="middle" font-size="30px" width="27px" fill="#ffffff" font-weight="400" align="middle" lineHeight="125%" anchor="middle" family="&quot;Microsoft YaHei&quot;, 微软雅黑, Arial" size="30px" weight="400" font-style="" opacity="1" y="-5.583500000000001" transform="rotate(0)"></text></g></g><g id="SvgjsG1359" transform="translate(1238.590500604539,538.9007911076612)"><path id="SvgjsPath1360" d="M 0 35C 0 -11.667 70 -11.667 70 35C 70 81.667 0 81.667 0 35Z" stroke="rgba(255,255,255,1)" stroke-width="1.5" fill-opacity="1" fill="#e60c0c"></path><g id="SvgjsG1361"><text id="SvgjsText1362" font-family="&quot;Microsoft YaHei&quot;, 微软雅黑, Arial" text-anchor="middle" font-size="30px" width="50px" fill="#ffffff" font-weight="400" align="middle" lineHeight="125%" anchor="middle" family="&quot;Microsoft YaHei&quot;, 微软雅黑, Arial" size="30px" weight="400" font-style="" opacity="1" y="9.25" transform="rotate(0)"><tspan id="SvgjsTspan1363" dy="37.5" x="35"><tspan id="SvgjsTspan1364" style="">20</tspan></tspan></text></g></g><g id="SvgjsG1365" transform="translate(1303.3460531083367,647.2182548159642)"><path id="SvgjsPath1366" d="M 0 4Q 0 0 4 0L 42.022 0Q 46.022 0 46.022 4L 46.022 36.333Q 46.022 40.333 42.022 40.333L 4 40.333Q 0 40.333 0 36.333Z" stroke="rgba(33,41,48,1)" stroke-width="1.5" fill-opacity="1" fill="#000000"></path><g id="SvgjsG1367"><text id="SvgjsText1368" font-family="&quot;Microsoft YaHei&quot;, 微软雅黑, Arial" text-anchor="middle" font-size="30px" width="27px" fill="#ffffff" font-weight="400" align="middle" lineHeight="125%" anchor="middle" family="&quot;Microsoft YaHei&quot;, 微软雅黑, Arial" size="30px" weight="400" font-style="" opacity="1" y="-5.583500000000001" transform="rotate(0)"></text></g></g><g id="SvgjsG1369"><path id="SvgjsPath1370" d="M1272.9836293469507 609.3414806545236L1221.4305940843494 646.7775652691023" stroke="#323232" stroke-width="1.5" fill="none"></path></g><g id="SvgjsG1371"><path id="SvgjsPath1372" d="M1274.1973709676035 609.3414818863646L1325.7501827452725 646.7775640372613" stroke="#323232" stroke-width="1.5" fill="none"></path></g><g id="SvgjsG1373" transform="translate(1396.70161171565,647.2182548159642)"><path id="SvgjsPath1374" d="M 0 4Q 0 0 4 0L 42.022 0Q 46.022 0 46.022 4L 46.022 36.333Q 46.022 40.333 42.022 40.333L 4 40.333Q 0 40.333 0 36.333Z" stroke="rgba(33,41,48,1)" stroke-width="1.5" fill-opacity="1" fill="#000000"></path><g id="SvgjsG1375"><text id="SvgjsText1376" font-family="&quot;Microsoft YaHei&quot;, 微软雅黑, Arial" text-anchor="middle" font-size="30px" width="27px" fill="#ffffff" font-weight="400" align="middle" lineHeight="125%" anchor="middle" family="&quot;Microsoft YaHei&quot;, 微软雅黑, Arial" size="30px" weight="400" font-style="" opacity="1" y="-5.583500000000001" transform="rotate(0)"></text></g></g><g id="SvgjsG1377" transform="translate(1437.4793894934273,538.9007911076612)"><path id="SvgjsPath1378" d="M 0 35C 0 -11.667 70 -11.667 70 35C 70 81.667 0 81.667 0 35Z" stroke="rgba(255,255,255,1)" stroke-width="1.5" fill-opacity="1" fill="#e60c0c"></path><g id="SvgjsG1379"><text id="SvgjsText1380" font-family="&quot;Microsoft YaHei&quot;, 微软雅黑, Arial" text-anchor="middle" font-size="30px" width="50px" fill="#ffffff" font-weight="400" align="middle" lineHeight="125%" anchor="middle" family="&quot;Microsoft YaHei&quot;, 微软雅黑, Arial" size="30px" weight="400" font-style="" opacity="1" y="9.25" transform="rotate(0)"><tspan id="SvgjsTspan1381" dy="37.5" x="35"><tspan id="SvgjsTspan1382" style="">22</tspan></tspan></text></g></g><g id="SvgjsG1383" transform="translate(1502.2349419972252,647.2182548159642)"><path id="SvgjsPath1384" d="M 0 4Q 0 0 4 0L 42.022 0Q 46.022 0 46.022 4L 46.022 36.333Q 46.022 40.333 42.022 40.333L 4 40.333Q 0 40.333 0 36.333Z" stroke="rgba(33,41,48,1)" stroke-width="1.5" fill-opacity="1" fill="#000000"></path><g id="SvgjsG1385"><text id="SvgjsText1386" font-family="&quot;Microsoft YaHei&quot;, 微软雅黑, Arial" text-anchor="middle" font-size="30px" width="27px" fill="#ffffff" font-weight="400" align="middle" lineHeight="125%" anchor="middle" family="&quot;Microsoft YaHei&quot;, 微软雅黑, Arial" size="30px" weight="400" font-style="" opacity="1" y="-5.583500000000001" transform="rotate(0)"></text></g></g><g id="SvgjsG1387"><path id="SvgjsPath1388" d="M1471.8725182358392 609.3414806545236L1420.319482973238 646.7775652691023" stroke="#323232" stroke-width="1.5" fill="none"></path></g><g id="SvgjsG1389"><path id="SvgjsPath1390" d="M1473.086259856492 609.3414818863646L1524.63907163416 646.7775640372613" stroke="#323232" stroke-width="1.5" fill="none"></path></g><g id="SvgjsG1391"><path id="SvgjsPath1392" d="M1372.1270898479827 492.7822120634669L1274.2697813252107 538.582863910769" stroke="#323232" stroke-width="1.5" fill="none"></path></g><g id="SvgjsG1393"><path id="SvgjsPath1394" d="M1373.4862105331908 492.78101443990045L1471.799549528891 538.5840615343354" stroke="#323232" stroke-width="1.5" fill="none"></path></g><g id="SvgjsG1395" transform="translate(1776.3619261242084,422.46428486657464)"><path id="SvgjsPath1396" d="M 0 35C 0 -11.667 70 -11.667 70 35C 70 81.667 0 81.667 0 35Z" stroke="rgba(255,255,255,1)" stroke-width="1.5" fill-opacity="1" fill="#000000"></path><g id="SvgjsG1397"><text id="SvgjsText1398" font-family="&quot;Microsoft YaHei&quot;, 微软雅黑, Arial" text-anchor="middle" font-size="30px" width="50px" fill="#ffffff" font-weight="400" align="middle" lineHeight="125%" anchor="middle" family="&quot;Microsoft YaHei&quot;, 微软雅黑, Arial" size="30px" weight="400" font-style="" opacity="1" y="9.25" transform="rotate(0)"><tspan id="SvgjsTspan1399" dy="37.5" x="35"><tspan id="SvgjsTspan1400" style="">30</tspan></tspan></text></g></g><g id="SvgjsG1401" transform="translate(1636.3682783823156,647.2182548159642)"><path id="SvgjsPath1402" d="M 0 4Q 0 0 4 0L 42.022 0Q 46.022 0 46.022 4L 46.022 36.333Q 46.022 40.333 42.022 40.333L 4 40.333Q 0 40.333 0 36.333Z" stroke="rgba(33,41,48,1)" stroke-width="1.5" fill-opacity="1" fill="#000000"></path><g id="SvgjsG1403"><text id="SvgjsText1404" font-family="&quot;Microsoft YaHei&quot;, 微软雅黑, Arial" text-anchor="middle" font-size="30px" width="27px" fill="#ffffff" font-weight="400" align="middle" lineHeight="125%" anchor="middle" family="&quot;Microsoft YaHei&quot;, 微软雅黑, Arial" size="30px" weight="400" font-style="" opacity="1" y="-5.583500000000001" transform="rotate(0)"></text></g></g><g id="SvgjsG1405" transform="translate(1677.1460561600932,538.9007911076612)"><path id="SvgjsPath1406" d="M 0 35C 0 -11.667 70 -11.667 70 35C 70 81.667 0 81.667 0 35Z" stroke="rgba(255,255,255,1)" stroke-width="1.5" fill-opacity="1" fill="#e60c0c"></path><g id="SvgjsG1407"><text id="SvgjsText1408" font-family="&quot;Microsoft YaHei&quot;, 微软雅黑, Arial" text-anchor="middle" font-size="30px" width="50px" fill="#ffffff" font-weight="400" align="middle" lineHeight="125%" anchor="middle" family="&quot;Microsoft YaHei&quot;, 微软雅黑, Arial" size="30px" weight="400" font-style="" opacity="1" y="9.25" transform="rotate(0)"><tspan id="SvgjsTspan1409" dy="37.5" x="35"><tspan id="SvgjsTspan1410" style="">27</tspan></tspan></text></g></g><g id="SvgjsG1411" transform="translate(1741.901608663891,647.2182548159642)"><path id="SvgjsPath1412" d="M 0 4Q 0 0 4 0L 42.022 0Q 46.022 0 46.022 4L 46.022 36.333Q 46.022 40.333 42.022 40.333L 4 40.333Q 0 40.333 0 36.333Z" stroke="rgba(33,41,48,1)" stroke-width="1.5" fill-opacity="1" fill="#000000"></path><g id="SvgjsG1413"><text id="SvgjsText1414" font-family="&quot;Microsoft YaHei&quot;, 微软雅黑, Arial" text-anchor="middle" font-size="30px" width="27px" fill="#ffffff" font-weight="400" align="middle" lineHeight="125%" anchor="middle" family="&quot;Microsoft YaHei&quot;, 微软雅黑, Arial" size="30px" weight="400" font-style="" opacity="1" y="-5.583500000000001" transform="rotate(0)"></text></g></g><g id="SvgjsG1415"><path id="SvgjsPath1416" d="M1711.5391849025052 609.3414806545236L1659.9861496399037 646.7775652691023" stroke="#323232" stroke-width="1.5" fill="none"></path></g><g id="SvgjsG1417"><path id="SvgjsPath1418" d="M1712.752926523158 609.3414818863646L1764.3057383008265 646.7775640372613" stroke="#323232" stroke-width="1.5" fill="none"></path></g><g id="SvgjsG1419" transform="translate(1835.2571672712043,647.2182548159642)"><path id="SvgjsPath1420" d="M 0 4Q 0 0 4 0L 42.022 0Q 46.022 0 46.022 4L 46.022 36.333Q 46.022 40.333 42.022 40.333L 4 40.333Q 0 40.333 0 36.333Z" stroke="rgba(33,41,48,1)" stroke-width="1.5" fill-opacity="1" fill="#000000"></path><g id="SvgjsG1421"><text id="SvgjsText1422" font-family="&quot;Microsoft YaHei&quot;, 微软雅黑, Arial" text-anchor="middle" font-size="30px" width="27px" fill="#ffffff" font-weight="400" align="middle" lineHeight="125%" anchor="middle" family="&quot;Microsoft YaHei&quot;, 微软雅黑, Arial" size="30px" weight="400" font-style="" opacity="1" y="-5.583500000000001" transform="rotate(0)"></text></g></g><g id="SvgjsG1423" transform="translate(1876.0349450489816,538.9007911076612)"><path id="SvgjsPath1424" d="M 0 35C 0 -11.667 70 -11.667 70 35C 70 81.667 0 81.667 0 35Z" stroke="rgba(255,255,255,1)" stroke-width="1.5" fill-opacity="1" fill="#e60c0c"></path><g id="SvgjsG1425"><text id="SvgjsText1426" font-family="&quot;Microsoft YaHei&quot;, 微软雅黑, Arial" text-anchor="middle" font-size="30px" width="50px" fill="#ffffff" font-weight="400" align="middle" lineHeight="125%" anchor="middle" family="&quot;Microsoft YaHei&quot;, 微软雅黑, Arial" size="30px" weight="400" font-style="" opacity="1" y="9.25" transform="rotate(0)"><tspan id="SvgjsTspan1427" dy="37.5" x="35"><tspan id="SvgjsTspan1428" style="">33</tspan></tspan></text></g></g><g id="SvgjsG1429" transform="translate(1940.7904975527795,647.2182548159642)"><path id="SvgjsPath1430" d="M 0 4Q 0 0 4 0L 42.022 0Q 46.022 0 46.022 4L 46.022 36.333Q 46.022 40.333 42.022 40.333L 4 40.333Q 0 40.333 0 36.333Z" stroke="rgba(33,41,48,1)" stroke-width="1.5" fill-opacity="1" fill="#000000"></path><g id="SvgjsG1431"><text id="SvgjsText1432" font-family="&quot;Microsoft YaHei&quot;, 微软雅黑, Arial" text-anchor="middle" font-size="30px" width="27px" fill="#ffffff" font-weight="400" align="middle" lineHeight="125%" anchor="middle" family="&quot;Microsoft YaHei&quot;, 微软雅黑, Arial" size="30px" weight="400" font-style="" opacity="1" y="-5.583500000000001" transform="rotate(0)"></text></g></g><g id="SvgjsG1433"><path id="SvgjsPath1434" d="M1910.4280737913934 609.3414806545236L1858.8750385287924 646.7775652691023" stroke="#323232" stroke-width="1.5" fill="none"></path></g><g id="SvgjsG1435"><path id="SvgjsPath1436" d="M1911.6418154120463 609.3414818863646L1963.1946271897143 646.7775640372613" stroke="#323232" stroke-width="1.5" fill="none"></path></g><g id="SvgjsG1437"><path id="SvgjsPath1438" d="M1810.682645403537 492.7822120634669L1712.825336880765 538.582863910769" stroke="#323232" stroke-width="1.5" fill="none"></path></g><g id="SvgjsG1439"><path id="SvgjsPath1440" d="M1812.041766088745 492.78101443990045L1910.3551050844453 538.5840615343354" stroke="#323232" stroke-width="1.5" fill="none"></path></g><g id="SvgjsG1441" transform="translate(1556.8285958426338,254.92856973314997)"><path id="SvgjsPath1442" d="M 0 35C 0 -11.667 70 -11.667 70 35C 70 81.667 0 81.667 0 35Z" stroke="rgba(255,255,255,1)" stroke-width="1.5" fill-opacity="1" fill="#e60c0c"></path><g id="SvgjsG1443"><text id="SvgjsText1444" font-family="&quot;Microsoft YaHei&quot;, 微软雅黑, Arial" text-anchor="middle" font-size="30px" width="50px" fill="#ffffff" font-weight="400" align="middle" lineHeight="125%" anchor="middle" family="&quot;Microsoft YaHei&quot;, 微软雅黑, Arial" size="30px" weight="400" font-style="" opacity="1" y="9.25" transform="rotate(0)"><tspan id="SvgjsTspan1445" dy="37.5" x="35"><tspan id="SvgjsTspan1446" style="">23</tspan></tspan></text></g></g><g id="SvgjsG1447"><path id="SvgjsPath1448" d="M1591.143460855726 325.2336763533908L1373.491505555562 422.1591782463338" stroke="#323232" stroke-width="1.5" fill="none"></path></g><g id="SvgjsG1449"><path id="SvgjsPath1450" d="M1592.5139946518398 325.2330832342286L1810.6765273150024 422.159771365496" stroke="#323232" stroke-width="1.5" fill="none"></path></g><g id="SvgjsG1451" transform="translate(1156.0968452332509,25)"><path id="SvgjsPath1452" d="M 0 35C 0 -11.667 70 -11.667 70 35C 70 81.667 0 81.667 0 35Z" stroke="rgba(255,255,255,1)" stroke-width="1.5" fill-opacity="1" fill="#000000"></path><g id="SvgjsG1453"><text id="SvgjsText1454" font-family="&quot;Microsoft YaHei&quot;, 微软雅黑, Arial" text-anchor="middle" font-size="30px" width="50px" fill="#ffffff" font-weight="400" align="middle" lineHeight="125%" anchor="middle" family="&quot;Microsoft YaHei&quot;, 微软雅黑, Arial" size="30px" weight="400" font-style="" opacity="1" y="9.25" transform="rotate(0)"><tspan id="SvgjsTspan1455" dy="37.5" x="35"><tspan id="SvgjsTspan1456" style="">20</tspan></tspan></text></g></g><g id="SvgjsG1457"><path id="SvgjsPath1458" d="M1190.3920344515973 95.25640156408383L763.9619780528587 250.38645388335158" stroke="#323232" stroke-width="1.5" fill="none"></path></g><g id="SvgjsG1459"><path id="SvgjsPath1460" d="M1191.793420797336 95.27799727250385L1591.132020278549 254.6505724606459" stroke="#323232" stroke-width="1.5" fill="none"></path></g><g id="SvgjsG1461"></g></svg>