<svg id="SvgjsSvg1006" width="1665.5714285714278" height="424.2000122070309" xmlns="http://www.w3.org/2000/svg" version="1.1" xmlns:xlink="http://www.w3.org/1999/xlink" xmlns:svgjs="http://svgjs.com/svgjs"><defs id="SvgjsDefs1007"><pattern patternUnits="userSpaceOnUse" id="pattern_mark_0" width="300" height="300"><text x="150" y="100" fill="rgba(229,229,229,0.8)" font-size="18" transform="rotate(-45, 150, 150)" style="dominant-baseline: middle; text-anchor: middle;"></text></pattern><pattern patternUnits="userSpaceOnUse" id="pattern_mark_1" width="300" height="300"><text x="150" y="200" fill="rgba(229,229,229,0.8)" font-size="18" transform="rotate(-45, 150, 150)" style="dominant-baseline: middle; text-anchor: middle;"></text></pattern><marker id="SvgjsMarker1031" markerWidth="13" markerHeight="9" refX="9.5" refY="4.5" viewBox="0 0 13 9" orient="auto" markerUnits="userSpaceOnUse" stroke-dasharray="0,0"><path id="SvgjsPath1032" d="M0,0 L13,4.5 L0,9 L0,0" fill="#9d8c88" stroke="#9d8c88" stroke-width="1"></path></marker><marker id="SvgjsMarker1035" markerWidth="13" markerHeight="9" refX="9.5" refY="4.5" viewBox="0 0 13 9" orient="auto" markerUnits="userSpaceOnUse" stroke-dasharray="0,0"><path id="SvgjsPath1036" d="M0,0 L13,4.5 L0,9 L0,0" fill="#9d8c88" stroke="#9d8c88" stroke-width="1"></path></marker><marker id="SvgjsMarker1045" markerWidth="13" markerHeight="9" refX="9.5" refY="4.5" viewBox="0 0 13 9" orient="auto" markerUnits="userSpaceOnUse" stroke-dasharray="0,0"><path id="SvgjsPath1046" d="M0,0 L13,4.5 L0,9 L0,0" fill="#9d8c88" stroke="#9d8c88" stroke-width="1"></path></marker><marker id="SvgjsMarker1075" markerWidth="13" markerHeight="9" refX="9.5" refY="4.5" viewBox="0 0 13 9" orient="auto" markerUnits="userSpaceOnUse" stroke-dasharray="0,0"><path id="SvgjsPath1076" d="M0,0 L13,4.5 L0,9 L0,0" fill="#9d8c88" stroke="#9d8c88" stroke-width="1"></path></marker><marker id="SvgjsMarker1079" markerWidth="13" markerHeight="9" refX="9.5" refY="4.5" viewBox="0 0 13 9" orient="auto" markerUnits="userSpaceOnUse" stroke-dasharray="0,0"><path id="SvgjsPath1080" d="M0,0 L13,4.5 L0,9 L0,0" fill="#9d8c88" stroke="#9d8c88" stroke-width="1"></path></marker><marker id="SvgjsMarker1089" markerWidth="13" markerHeight="9" refX="9.5" refY="4.5" viewBox="0 0 13 9" orient="auto" markerUnits="userSpaceOnUse" stroke-dasharray="0,0"><path id="SvgjsPath1090" d="M0,0 L13,4.5 L0,9 L0,0" fill="#9d8c88" stroke="#9d8c88" stroke-width="1"></path></marker><marker id="SvgjsMarker1105" markerWidth="13" markerHeight="9" refX="3.5" refY="4.5" viewBox="0 0 13 9" orient="auto" markerUnits="userSpaceOnUse" stroke-dasharray="0,0"><path id="SvgjsPath1106" d="M13,0 L0,4.5 L13,9 L13,0" fill="#323232" stroke="#323232" stroke-width="1"></path></marker><marker id="SvgjsMarker1109" markerWidth="13" markerHeight="9" refX="3.5" refY="4.5" viewBox="0 0 13 9" orient="auto" markerUnits="userSpaceOnUse" stroke-dasharray="0,0"><path id="SvgjsPath1110" d="M13,0 L0,4.5 L13,9 L13,0" fill="#323232" stroke="#323232" stroke-width="1"></path></marker><marker id="SvgjsMarker1135" markerWidth="13" markerHeight="9" refX="9.5" refY="4.5" viewBox="0 0 13 9" orient="auto" markerUnits="userSpaceOnUse" stroke-dasharray="0,0"><path id="SvgjsPath1136" d="M0,0 L13,4.5 L0,9 L0,0" fill="#9d8c88" stroke="#9d8c88" stroke-width="1"></path></marker><marker id="SvgjsMarker1139" markerWidth="13" markerHeight="9" refX="9.5" refY="4.5" viewBox="0 0 13 9" orient="auto" markerUnits="userSpaceOnUse" stroke-dasharray="0,0"><path id="SvgjsPath1140" d="M0,0 L13,4.5 L0,9 L0,0" fill="#9d8c88" stroke="#9d8c88" stroke-width="1"></path></marker><marker id="SvgjsMarker1149" markerWidth="13" markerHeight="9" refX="9.5" refY="4.5" viewBox="0 0 13 9" orient="auto" markerUnits="userSpaceOnUse" stroke-dasharray="0,0"><path id="SvgjsPath1150" d="M0,0 L13,4.5 L0,9 L0,0" fill="#9d8c88" stroke="#9d8c88" stroke-width="1"></path></marker><marker id="SvgjsMarker1161" markerWidth="13" markerHeight="9" refX="3.5" refY="4.5" viewBox="0 0 13 9" orient="auto" markerUnits="userSpaceOnUse" stroke-dasharray="0,0"><path id="SvgjsPath1162" d="M13,0 L0,4.5 L13,9 L13,0" fill="#323232" stroke="#323232" stroke-width="1"></path></marker></defs><rect id="svgbackgroundid" width="1665.5714285714278" height="424.2000122070309" fill="transparent"></rect><rect id="SvgjsRect1009" width="1665.5714285714278" height="424.2000122070309" fill="url(#pattern_mark_0)"></rect><rect id="SvgjsRect1010" width="1665.5714285714278" height="424.2000122070309" fill="url(#pattern_mark_1)"></rect><g id="SvgjsG1011" transform="translate(327.9999999999998,213.20001220703136)"><path id="SvgjsPath1012" d="M 0 27C 0 -9 58 -9 58 27C 58 63 0 63 0 27Z" stroke="rgba(255,255,255,1)" stroke-width="1.5" fill-opacity="1" fill="#e60c0c"></path><g id="SvgjsG1013"><text id="SvgjsText1014" font-family="&quot;Microsoft YaHei&quot;, 微软雅黑, Arial" text-anchor="middle" font-size="40px" width="38px" fill="#ffffff" font-weight="400" align="middle" lineHeight="125%" anchor="middle" family="&quot;Microsoft YaHei&quot;, 微软雅黑, Arial" size="40px" weight="400" font-style="" opacity="1" y="-8" transform="rotate(0)"><tspan id="SvgjsTspan1015" dy="50" x="29"><tspan id="SvgjsTspan1016" style="">U</tspan></tspan></text></g></g><g id="SvgjsG1017" transform="translate(147,213.20001220703136)"><path id="SvgjsPath1018" d="M 0 27C 0 -9 58 -9 58 27C 58 63 0 63 0 27Z" stroke="rgba(255,255,255,1)" stroke-width="1.5" fill-opacity="1" fill="#e60c0c"></path><g id="SvgjsG1019"><text id="SvgjsText1020" font-family="&quot;Microsoft YaHei&quot;, 微软雅黑, Arial" text-anchor="middle" font-size="40px" width="38px" fill="#ffffff" font-weight="400" align="middle" lineHeight="125%" anchor="middle" family="&quot;Microsoft YaHei&quot;, 微软雅黑, Arial" size="40px" weight="400" font-style="" opacity="1" y="-8" transform="rotate(0)"><tspan id="SvgjsTspan1021" dy="50" x="29"><tspan id="SvgjsTspan1022" style="">P</tspan></tspan></text></g></g><g id="SvgjsG1023" transform="translate(237,119.20001220703125)"><path id="SvgjsPath1024" d="M 0 27C 0 -9 58 -9 58 27C 58 63 0 63 0 27Z" stroke="rgba(33,41,48,1)" stroke-width="1.5" fill-opacity="1" fill="#000000"></path><g id="SvgjsG1025"><text id="SvgjsText1026" font-family="&quot;Microsoft YaHei&quot;, 微软雅黑, Arial" text-anchor="middle" font-size="40px" width="38px" fill="#ffffff" font-weight="400" align="middle" lineHeight="125%" anchor="middle" family="&quot;Microsoft YaHei&quot;, 微软雅黑, Arial" size="40px" weight="400" font-style="" opacity="1" y="-8" transform="rotate(0)"><tspan id="SvgjsTspan1027" dy="50" x="29"><tspan id="SvgjsTspan1028" style="">G</tspan></tspan></text></g></g><g id="SvgjsG1029"><path id="SvgjsPath1030" d="M265.3146413385348 173.50461605657148L178.4672911812747 212.10343834868706" stroke="#9d8c88" stroke-width="1.5" fill="none" marker-end="url(#SvgjsMarker1031)"></path></g><g id="SvgjsG1033"><path id="SvgjsPath1034" d="M266.69130176791873 173.49087620561562L363.2524945903899 214.11882763841703" stroke="#9d8c88" stroke-width="1.5" fill="none" marker-end="url(#SvgjsMarker1035)"></path></g><g id="SvgjsG1037" transform="translate(48,299.20001220703114)"><path id="SvgjsPath1038" d="M 0 27C 0 -9 58 -9 58 27C 58 63 0 63 0 27Z" stroke="rgba(255,255,255,1)" stroke-width="1.5" fill-opacity="1" fill="#e60c0c"></path><g id="SvgjsG1039"><text id="SvgjsText1040" font-family="&quot;Microsoft YaHei&quot;, 微软雅黑, Arial" text-anchor="middle" font-size="40px" width="38px" fill="#ffffff" font-weight="400" align="middle" lineHeight="125%" anchor="middle" family="&quot;Microsoft YaHei&quot;, 微软雅黑, Arial" size="40px" weight="400" font-style="" opacity="1" y="-8" transform="rotate(0)"><tspan id="SvgjsTspan1041" dy="50" x="29"><tspan id="SvgjsTspan1042" style="">N</tspan></tspan></text></g></g><g id="SvgjsG1043"><path id="SvgjsPath1044" d="M175.28635454297165 267.4306854860706L79.56912364530201 298.36958840248906" stroke="#9d8c88" stroke-width="1.5" fill="none" marker-end="url(#SvgjsMarker1045)"></path></g><g id="SvgjsG1047" transform="translate(25,359.2000122070309)"><path id="SvgjsPath1048" d="M 0 0L 84 0L 100 16L 100 40L 0 40L 0 0Z" stroke="none" fill-opacity="1" fill="#fff7bc"></path><path id="SvgjsPath1049" d="M 84 0L 84 16L 100 16Z" stroke="none" fill-opacity="1" fill="#e4d089"></path><path id="SvgjsPath1050" d="M 0 0L 84 0L 100 16L 100 40L 0 40L 0 0Z" stroke="none" fill="none"></path><g id="SvgjsG1051"><text id="SvgjsText1052" font-family="&quot;Microsoft YaHei&quot;, 微软雅黑, Arial" text-anchor="middle" font-size="20px" width="80px" fill="#323232" font-weight="400" align="middle" lineHeight="125%" anchor="middle" family="&quot;Microsoft YaHei&quot;, 微软雅黑, Arial" size="20px" weight="400" font-style="" opacity="1" y="2" transform="rotate(0)"><tspan id="SvgjsTspan1053" dy="25" x="50"><tspan id="SvgjsTspan1054" style="">新节点</tspan></tspan></text></g></g><g id="SvgjsG1055" transform="translate(875.9999999999995,213.20001220703136)"><path id="SvgjsPath1056" d="M 0 27C 0 -9 58 -9 58 27C 58 63 0 63 0 27Z" stroke="rgba(255,255,255,1)" stroke-width="1.5" fill-opacity="1" fill="#000000"></path><g id="SvgjsG1057"><text id="SvgjsText1058" font-family="&quot;Microsoft YaHei&quot;, 微软雅黑, Arial" text-anchor="middle" font-size="40px" width="38px" fill="#ffffff" font-weight="400" align="middle" lineHeight="125%" anchor="middle" family="&quot;Microsoft YaHei&quot;, 微软雅黑, Arial" size="40px" weight="400" font-style="" opacity="1" y="-8" transform="rotate(0)"><tspan id="SvgjsTspan1059" dy="50" x="29"><tspan id="SvgjsTspan1060" style="">U</tspan></tspan></text></g></g><g id="SvgjsG1061" transform="translate(695.4999999999995,213.20001220703136)"><path id="SvgjsPath1062" d="M 0 27C 0 -9 58 -9 58 27C 58 63 0 63 0 27Z" stroke="rgba(255,255,255,1)" stroke-width="1.5" fill-opacity="1" fill="#000000"></path><g id="SvgjsG1063"><text id="SvgjsText1064" font-family="&quot;Microsoft YaHei&quot;, 微软雅黑, Arial" text-anchor="middle" font-size="40px" width="38px" fill="#ffffff" font-weight="400" align="middle" lineHeight="125%" anchor="middle" family="&quot;Microsoft YaHei&quot;, 微软雅黑, Arial" size="40px" weight="400" font-style="" opacity="1" y="-8" transform="rotate(0)"><tspan id="SvgjsTspan1065" dy="50" x="29"><tspan id="SvgjsTspan1066" style="">P</tspan></tspan></text></g></g><g id="SvgjsG1067" transform="translate(784.9999999999995,119.20001220703125)"><path id="SvgjsPath1068" d="M 0 27C 0 -9 58 -9 58 27C 58 63 0 63 0 27Z" stroke="rgba(33,41,48,1)" stroke-width="1.5" fill-opacity="1" fill="#e60c0c"></path><g id="SvgjsG1069"><text id="SvgjsText1070" font-family="&quot;Microsoft YaHei&quot;, 微软雅黑, Arial" text-anchor="middle" font-size="40px" width="38px" fill="#ffffff" font-weight="400" align="middle" lineHeight="125%" anchor="middle" family="&quot;Microsoft YaHei&quot;, 微软雅黑, Arial" size="40px" weight="400" font-style="" opacity="1" y="-8" transform="rotate(0)"><tspan id="SvgjsTspan1071" dy="50" x="29"><tspan id="SvgjsTspan1072" style="">G</tspan></tspan></text></g></g><g id="SvgjsG1073"><path id="SvgjsPath1074" d="M813.3152737839869 173.50603509686948L726.9650143776455 212.0983298036142" stroke="#9d8c88" stroke-width="1.5" fill="none" marker-end="url(#SvgjsMarker1075)"></path></g><g id="SvgjsG1077"><path id="SvgjsPath1078" d="M814.6913017679183 173.49087620561562L911.2524945903901 214.11882763841703" stroke="#9d8c88" stroke-width="1.5" fill="none" marker-end="url(#SvgjsMarker1079)"></path></g><g id="SvgjsG1081" transform="translate(595.9999999999998,299.20001220703114)"><path id="SvgjsPath1082" d="M 0 27C 0 -9 58 -9 58 27C 58 63 0 63 0 27Z" stroke="rgba(255,255,255,1)" stroke-width="1.5" fill-opacity="1" fill="#e60c0c"></path><g id="SvgjsG1083"><text id="SvgjsText1084" font-family="&quot;Microsoft YaHei&quot;, 微软雅黑, Arial" text-anchor="middle" font-size="40px" width="38px" fill="#ffffff" font-weight="400" align="middle" lineHeight="125%" anchor="middle" family="&quot;Microsoft YaHei&quot;, 微软雅黑, Arial" size="40px" weight="400" font-style="" opacity="1" y="-8" transform="rotate(0)"><tspan id="SvgjsTspan1085" dy="50" x="29"><tspan id="SvgjsTspan1086" style="">N</tspan></tspan></text></g></g><g id="SvgjsG1087"><path id="SvgjsPath1088" d="M723.7860159188131 267.42963522811624L627.5703426922707 298.37336933112476" stroke="#9d8c88" stroke-width="1.5" fill="none" marker-end="url(#SvgjsMarker1089)"></path></g><g id="SvgjsG1091" transform="translate(572.9999999999998,359.2000122070309)"><path id="SvgjsPath1092" d="M 0 0L 84 0L 100 16L 100 40L 0 40L 0 0Z" stroke="none" fill-opacity="1" fill="#fff7bc"></path><path id="SvgjsPath1093" d="M 84 0L 84 16L 100 16Z" stroke="none" fill-opacity="1" fill="#e4d089"></path><path id="SvgjsPath1094" d="M 0 0L 84 0L 100 16L 100 40L 0 40L 0 0Z" stroke="none" fill="none"></path><g id="SvgjsG1095"><text id="SvgjsText1096" font-family="&quot;Microsoft YaHei&quot;, 微软雅黑, Arial" text-anchor="middle" font-size="20px" width="80px" fill="#323232" font-weight="400" align="middle" lineHeight="125%" anchor="middle" family="&quot;Microsoft YaHei&quot;, 微软雅黑, Arial" size="20px" weight="400" font-style="" opacity="1" y="2" transform="rotate(0)"><tspan id="SvgjsTspan1097" dy="25" x="50"><tspan id="SvgjsTspan1098" style="">新节点</tspan></tspan></text></g></g><g id="SvgjsG1099" transform="translate(439.99999999999966,239.20001220703142)"><path id="SvgjsPath1100" d="M 0 19.8L 103 19.8L 103 0L 133 30L 103 60L 103 40.2L 0 40.2L 0 19.8Z" stroke="rgba(255,255,255,1)" stroke-width="1.5" fill-opacity="1" fill="#569230"></path><g id="SvgjsG1101"><text id="SvgjsText1102" font-family="&quot;Microsoft YaHei&quot;, 微软雅黑, Arial" text-anchor="middle" font-size="13px" width="133px" fill="#323232" font-weight="400" align="middle" lineHeight="125%" anchor="middle" family="&quot;Microsoft YaHei&quot;, 微软雅黑, Arial" size="13px" weight="400" font-style="" opacity="1" y="19.375" transform="rotate(0)"></text></g></g><g id="SvgjsG1103"><path id="SvgjsPath1104" d="M267.51796903730434 116.96712842103045L327.9999999999998 28" stroke-dasharray="7.5,3" stroke="#323232" stroke-width="1.5" fill="none" marker-start="url(#SvgjsMarker1105)"></path></g><g id="SvgjsG1107"><path id="SvgjsPath1108" d="M815.450502132448 116.92272356398172L873.9999999999995 25" stroke-dasharray="7.5,3" stroke="#323232" stroke-width="1.5" fill="none" marker-start="url(#SvgjsMarker1109)"></path></g><g id="SvgjsG1111" transform="translate(980.1714259556363,239.20001220703114)"><path id="SvgjsPath1112" d="M 0 19.8L 130 19.8L 130 0L 160 30L 130 60L 130 40.2L 0 40.2L 0 19.8Z" stroke="rgba(255,255,255,1)" stroke-width="1.5" fill-opacity="1" fill="#569230"></path><g id="SvgjsG1113"><text id="SvgjsText1114" font-family="&quot;Microsoft YaHei&quot;, 微软雅黑, Arial" text-anchor="middle" font-size="13px" width="160px" fill="#323232" font-weight="400" align="middle" lineHeight="125%" anchor="middle" family="&quot;Microsoft YaHei&quot;, 微软雅黑, Arial" size="13px" weight="400" font-style="" opacity="1" y="19.375" transform="rotate(0)"></text></g></g><g id="SvgjsG1115" transform="translate(1464.5714285714282,213.20001220703125)"><path id="SvgjsPath1116" d="M 0 27C 0 -9 58 -9 58 27C 58 63 0 63 0 27Z" stroke="rgba(255,255,255,1)" stroke-width="1.5" fill-opacity="1" fill="#000000"></path><g id="SvgjsG1117"><text id="SvgjsText1118" font-family="&quot;Microsoft YaHei&quot;, 微软雅黑, Arial" text-anchor="middle" font-size="40px" width="38px" fill="#ffffff" font-weight="400" align="middle" lineHeight="125%" anchor="middle" family="&quot;Microsoft YaHei&quot;, 微软雅黑, Arial" size="40px" weight="400" font-style="" opacity="1" y="-8" transform="rotate(0)"><tspan id="SvgjsTspan1119" dy="50" x="29"><tspan id="SvgjsTspan1120" style="">U</tspan></tspan></text></g></g><g id="SvgjsG1121" transform="translate(1283.571428571428,213.20001220703125)"><path id="SvgjsPath1122" d="M 0 27C 0 -9 58 -9 58 27C 58 63 0 63 0 27Z" stroke="rgba(255,255,255,1)" stroke-width="1.5" fill-opacity="1" fill="#000000"></path><g id="SvgjsG1123"><text id="SvgjsText1124" font-family="&quot;Microsoft YaHei&quot;, 微软雅黑, Arial" text-anchor="middle" font-size="40px" width="38px" fill="#ffffff" font-weight="400" align="middle" lineHeight="125%" anchor="middle" family="&quot;Microsoft YaHei&quot;, 微软雅黑, Arial" size="40px" weight="400" font-style="" opacity="1" y="-8" transform="rotate(0)"><tspan id="SvgjsTspan1125" dy="50" x="29"><tspan id="SvgjsTspan1126" style="">P</tspan></tspan></text></g></g><g id="SvgjsG1127" transform="translate(1373.5714285714282,119.2000122070313)"><path id="SvgjsPath1128" d="M 0 27C 0 -9 58 -9 58 27C 58 63 0 63 0 27Z" stroke="rgba(33,41,48,1)" stroke-width="1.5" fill-opacity="1" fill="#000000"></path><g id="SvgjsG1129"><text id="SvgjsText1130" font-family="&quot;Microsoft YaHei&quot;, 微软雅黑, Arial" text-anchor="middle" font-size="40px" width="38px" fill="#ffffff" font-weight="400" align="middle" lineHeight="125%" anchor="middle" family="&quot;Microsoft YaHei&quot;, 微软雅黑, Arial" size="40px" weight="400" font-style="" opacity="1" y="-8" transform="rotate(0)"><tspan id="SvgjsTspan1131" dy="50" x="29"><tspan id="SvgjsTspan1132" style="">G</tspan></tspan></text></g></g><g id="SvgjsG1133"><path id="SvgjsPath1134" d="M1401.886069909963 173.5046160565716L1315.0387197527027 212.10343834868695" stroke="#9d8c88" stroke-width="1.5" fill="none" marker-end="url(#SvgjsMarker1135)"></path></g><g id="SvgjsG1137"><path id="SvgjsPath1138" d="M1403.262730339347 173.4908762056158L1499.8239231618188 214.11882763841692" stroke="#9d8c88" stroke-width="1.5" fill="none" marker-end="url(#SvgjsMarker1139)"></path></g><g id="SvgjsG1141" transform="translate(1184.5714285714284,299.200012207031)"><path id="SvgjsPath1142" d="M 0 27C 0 -9 58 -9 58 27C 58 63 0 63 0 27Z" stroke="rgba(255,255,255,1)" stroke-width="1.5" fill-opacity="1" fill="#e60c0c"></path><g id="SvgjsG1143"><text id="SvgjsText1144" font-family="&quot;Microsoft YaHei&quot;, 微软雅黑, Arial" text-anchor="middle" font-size="40px" width="38px" fill="#ffffff" font-weight="400" align="middle" lineHeight="125%" anchor="middle" family="&quot;Microsoft YaHei&quot;, 微软雅黑, Arial" size="40px" weight="400" font-style="" opacity="1" y="-8" transform="rotate(0)"><tspan id="SvgjsTspan1145" dy="50" x="29"><tspan id="SvgjsTspan1146" style="">N</tspan></tspan></text></g></g><g id="SvgjsG1147"><path id="SvgjsPath1148" d="M1311.8577831143996 267.4306854860705L1216.14055221673 298.36958840248894" stroke="#9d8c88" stroke-width="1.5" fill="none" marker-end="url(#SvgjsMarker1149)"></path></g><g id="SvgjsG1151" transform="translate(1161.5714285714284,359.2000122070308)"><path id="SvgjsPath1152" d="M 0 0L 84 0L 100 16L 100 40L 0 40L 0 0Z" stroke="none" fill-opacity="1" fill="#fff7bc"></path><path id="SvgjsPath1153" d="M 84 0L 84 16L 100 16Z" stroke="none" fill-opacity="1" fill="#e4d089"></path><path id="SvgjsPath1154" d="M 0 0L 84 0L 100 16L 100 40L 0 40L 0 0Z" stroke="none" fill="none"></path><g id="SvgjsG1155"><text id="SvgjsText1156" font-family="&quot;Microsoft YaHei&quot;, 微软雅黑, Arial" text-anchor="middle" font-size="20px" width="80px" fill="#323232" font-weight="400" align="middle" lineHeight="125%" anchor="middle" family="&quot;Microsoft YaHei&quot;, 微软雅黑, Arial" size="20px" weight="400" font-style="" opacity="1" y="2" transform="rotate(0)"><tspan id="SvgjsTspan1157" dy="25" x="50"><tspan id="SvgjsTspan1158" style="">新节点</tspan></tspan></text></g></g><g id="SvgjsG1159"><path id="SvgjsPath1160" d="M1404.0219307038767 116.92272356398178L1462.5714285714282 25.000000000000057" stroke-dasharray="7.5,3" stroke="#323232" stroke-width="1.5" fill="none" marker-start="url(#SvgjsMarker1161)"></path></g><g id="SvgjsG1163" transform="translate(971.5999973842077,215.20001220703136)"><path id="SvgjsPath1164" d="M 0 0L 158.571 0L 158.571 50L 0 50Z" stroke="none" fill="none"></path><g id="SvgjsG1165"><text id="SvgjsText1166" font-family="&quot;Microsoft YaHei&quot;, 微软雅黑, Arial" text-anchor="middle" font-size="20px" width="159px" fill="#323232" font-weight="400" align="middle" lineHeight="125%" anchor="middle" family="&quot;Microsoft YaHei&quot;, 微软雅黑, Arial" size="20px" weight="400" font-style="" opacity="1" y="7" transform="rotate(0)"><tspan id="SvgjsTspan1167" dy="25" x="79.5"><tspan id="SvgjsTspan1168" style="">递归向上检查</tspan></tspan></text></g></g><g id="SvgjsG1169" transform="translate(1464.5714285714282,123.55715942382818)"><path id="SvgjsPath1170" d="M 0 0L 160 0L 176 16L 176 45.286L 0 45.286L 0 0Z" stroke="none" fill-opacity="1" fill="#fff7bc"></path><path id="SvgjsPath1171" d="M 160 0L 160 16L 176 16Z" stroke="none" fill-opacity="1" fill="#e4d089"></path><path id="SvgjsPath1172" d="M 0 0L 160 0L 176 16L 176 45.286L 0 45.286L 0 0Z" stroke="none" fill="none"></path><g id="SvgjsG1173"><text id="SvgjsText1174" font-family="&quot;Microsoft YaHei&quot;, 微软雅黑, Arial" text-anchor="middle" font-size="20px" width="156px" fill="#323232" font-weight="400" align="middle" lineHeight="125%" anchor="middle" family="&quot;Microsoft YaHei&quot;, 微软雅黑, Arial" size="20px" weight="400" font-style="" opacity="1" y="4.643000000000001" transform="rotate(0)"><tspan id="SvgjsTspan1175" dy="25" x="88"><tspan id="SvgjsTspan1176" style="">如果G为根节点</tspan></tspan></text></g></g><g id="SvgjsG1177"></g></svg>