<svg id="SvgjsSvg1182" width="2004.3055852254229" height="837.0277777777777" xmlns="http://www.w3.org/2000/svg" version="1.1" xmlns:xlink="http://www.w3.org/1999/xlink" xmlns:svgjs="http://svgjs.com/svgjs"><defs id="SvgjsDefs1183"><pattern patternUnits="userSpaceOnUse" id="pattern_mark_0" width="300" height="300"><text x="150" y="100" fill="rgba(229,229,229,0.8)" font-size="18" transform="rotate(-45, 150, 150)" style="dominant-baseline: middle; text-anchor: middle;"></text></pattern><pattern patternUnits="userSpaceOnUse" id="pattern_mark_1" width="300" height="300"><text x="150" y="200" fill="rgba(229,229,229,0.8)" font-size="18" transform="rotate(-45, 150, 150)" style="dominant-baseline: middle; text-anchor: middle;"></text></pattern><marker id="SvgjsMarker1279" markerWidth="16" markerHeight="14" refX="8" refY="6" viewBox="0 0 16 14" orient="auto" markerUnits="userSpaceOnUse" stroke-dasharray="0,0"><path id="SvgjsPath1280" d="M0,0 L15,6 L0,12L0,0" fill="#e74f4c" stroke="#e74f4c" stroke-width="1"></path><path id="SvgjsPath1281" d="M2,2 L13,6 L2,10L2,2" fill="#ffffff" stroke="none" stroke-width="1"></path></marker><marker id="SvgjsMarker1284" markerWidth="16" markerHeight="14" refX="8" refY="6" viewBox="0 0 16 14" orient="auto" markerUnits="userSpaceOnUse" stroke-dasharray="0,0"><path id="SvgjsPath1285" d="M0,0 L15,6 L0,12L0,0" fill="#e74f4c" stroke="#e74f4c" stroke-width="1"></path><path id="SvgjsPath1286" d="M2,2 L13,6 L2,10L2,2" fill="#ffffff" stroke="none" stroke-width="1"></path></marker><marker id="SvgjsMarker1289" markerWidth="16" markerHeight="14" refX="8" refY="6" viewBox="0 0 16 14" orient="auto" markerUnits="userSpaceOnUse" stroke-dasharray="0,0"><path id="SvgjsPath1290" d="M0,0 L15,6 L0,12L0,0" fill="#e74f4c" stroke="#e74f4c" stroke-width="1"></path><path id="SvgjsPath1291" d="M2,2 L13,6 L2,10L2,2" fill="#ffffff" stroke="none" stroke-width="1"></path></marker><marker id="SvgjsMarker1294" markerWidth="16" markerHeight="14" refX="8" refY="6" viewBox="0 0 16 14" orient="auto" markerUnits="userSpaceOnUse" stroke-dasharray="0,0"><path id="SvgjsPath1295" d="M0,0 L15,6 L0,12L0,0" fill="#e74f4c" stroke="#e74f4c" stroke-width="1"></path><path id="SvgjsPath1296" d="M2,2 L13,6 L2,10L2,2" fill="#ffffff" stroke="none" stroke-width="1"></path></marker><marker id="SvgjsMarker1299" markerWidth="16" markerHeight="14" refX="8" refY="6" viewBox="0 0 16 14" orient="auto" markerUnits="userSpaceOnUse" stroke-dasharray="0,0"><path id="SvgjsPath1300" d="M0,0 L15,6 L0,12L0,0" fill="#e74f4c" stroke="#e74f4c" stroke-width="1"></path><path id="SvgjsPath1301" d="M2,2 L13,6 L2,10L2,2" fill="#ffffff" stroke="none" stroke-width="1"></path></marker><marker id="SvgjsMarker1304" markerWidth="16" markerHeight="14" refX="8" refY="6" viewBox="0 0 16 14" orient="auto" markerUnits="userSpaceOnUse" stroke-dasharray="0,0"><path id="SvgjsPath1305" d="M0,0 L15,6 L0,12L0,0" fill="#e74f4c" stroke="#e74f4c" stroke-width="1"></path><path id="SvgjsPath1306" d="M2,2 L13,6 L2,10L2,2" fill="#ffffff" stroke="none" stroke-width="1"></path></marker><marker id="SvgjsMarker1321" markerWidth="16" markerHeight="14" refX="8" refY="6" viewBox="0 0 16 14" orient="auto" markerUnits="userSpaceOnUse" stroke-dasharray="0,0"><path id="SvgjsPath1322" d="M0,0 L15,6 L0,12L0,0" fill="#e74f4c" stroke="#e74f4c" stroke-width="1"></path><path id="SvgjsPath1323" d="M2,2 L13,6 L2,10L2,2" fill="#ffffff" stroke="none" stroke-width="1"></path></marker><marker id="SvgjsMarker1338" markerWidth="16" markerHeight="14" refX="8" refY="6" viewBox="0 0 16 14" orient="auto" markerUnits="userSpaceOnUse" stroke-dasharray="0,0"><path id="SvgjsPath1339" d="M0,0 L15,6 L0,12L0,0" fill="#e74f4c" stroke="#e74f4c" stroke-width="1"></path><path id="SvgjsPath1340" d="M2,2 L13,6 L2,10L2,2" fill="#ffffff" stroke="none" stroke-width="1"></path></marker><marker id="SvgjsMarker1343" markerWidth="16" markerHeight="20" refX="3" refY="10" viewBox="0 0 16 20" orient="auto" markerUnits="userSpaceOnUse" stroke-dasharray="0,0"><path id="SvgjsPath1344" d="M14,1 L1,10 L14,19 L16,19 L3,10 L16,1Z" fill="#4669ea" stroke="#4669ea" stroke-width="1"></path></marker><marker id="SvgjsMarker1347" markerWidth="16" markerHeight="20" refX="3" refY="10" viewBox="0 0 16 20" orient="auto" markerUnits="userSpaceOnUse" stroke-dasharray="0,0"><path id="SvgjsPath1348" d="M14,1 L1,10 L14,19 L16,19 L3,10 L16,1Z" fill="#4669ea" stroke="#4669ea" stroke-width="1"></path></marker><marker id="SvgjsMarker1351" markerWidth="16" markerHeight="20" refX="3" refY="10" viewBox="0 0 16 20" orient="auto" markerUnits="userSpaceOnUse" stroke-dasharray="0,0"><path id="SvgjsPath1352" d="M14,1 L1,10 L14,19 L16,19 L3,10 L16,1Z" fill="#4669ea" stroke="#4669ea" stroke-width="1"></path></marker><marker id="SvgjsMarker1355" markerWidth="16" markerHeight="16.78" refX="9" refY="8.39" viewBox="0 0 16 16.78" orient="auto" markerUnits="userSpaceOnUse" stroke-dasharray="0,0"><path id="SvgjsPath1356" d="M1.24,0 L11.239999999999998,8 L10,9.559999999999999 L0,1.56 Z" fill="#4669ea" stroke="none" stroke-width="1"></path><path id="SvgjsPath1357" d="M11.239999999999998,8.78 L1.24,16.78 L0,15.22 L10,7.22 Z" fill="#4669ea" stroke="none" stroke-width="1"></path></marker></defs><rect id="svgbackgroundid" width="2004.3055852254229" height="837.0277777777777" fill="transparent"></rect><rect id="SvgjsRect1185" width="2004.3055852254229" height="837.0277777777777" fill="url(#pattern_mark_0)"></rect><rect id="SvgjsRect1186" width="2004.3055852254229" height="837.0277777777777" fill="url(#pattern_mark_1)"></rect><g id="SvgjsG1187" transform="translate(935.2778074476454,26.5)"><path id="SvgjsPath1188" d="M 0 3.9999999999999996Q 0 0 4 0L 226 0Q 230 0 230 3.9999999999999996L 230 103Q 230 107 226 107L 4 107Q 0 107 0 103Z" stroke="rgba(33,41,48,1)" stroke-width="1.5" fill-opacity="1" fill="#95da69"></path><path id="SvgjsPath1189" d="M 0 47L 230 47M 0 77L 230 77" stroke="rgba(33,41,48,1)" stroke-width="1.5" fill="none"></path><path id="SvgjsPath1190" d="M 0 3.9999999999999996Q 0 0 4 0L 226 0Q 230 0 230 3.9999999999999996L 230 103Q 230 107 226 107L 4 107Q 0 107 0 103Z" stroke="none" fill="none"></path><g id="SvgjsG1191"><text id="SvgjsText1192" font-family="&quot;Microsoft YaHei&quot;, 微软雅黑, Arial" text-anchor="middle" font-size="20px" width="210px" fill="#323232" font-weight="700" align="middle" lineHeight="125%" anchor="middle" family="&quot;Microsoft YaHei&quot;, 微软雅黑, Arial" size="20px" weight="700" font-style="" opacity="1" y="-7" transform="rotate(0)"><tspan id="SvgjsTspan1193" dy="25" x="115"><tspan id="SvgjsTspan1194" style="">&lt;interface&gt;</tspan></tspan><tspan id="SvgjsTspan1195" dy="25" x="115"><tspan id="SvgjsTspan1196" style="">IInterface</tspan></tspan></text></g><g id="SvgjsG1197"><text id="SvgjsText1198" font-family="&quot;Microsoft YaHei&quot;, 微软雅黑, Arial" text-anchor="start" font-size="20px" width="210px" fill="#323232" font-weight="400" align="middle" lineHeight="125%" anchor="start" family="&quot;Microsoft YaHei&quot;, 微软雅黑, Arial" size="20px" weight="400" font-style="" opacity="1" y="44" transform="rotate(0)"></text></g><g id="SvgjsG1199"><text id="SvgjsText1200" font-family="&quot;Microsoft YaHei&quot;, 微软雅黑, Arial" text-anchor="start" font-size="20px" width="210px" fill="#323232" font-weight="400" align="middle" lineHeight="125%" anchor="start" family="&quot;Microsoft YaHei&quot;, 微软雅黑, Arial" size="20px" weight="400" font-style="" opacity="1" y="74" transform="rotate(0)"></text></g></g><g id="SvgjsG1201" transform="translate(1411.250029669868,210.94444444444443)"><path id="SvgjsPath1202" d="M 0 3.9999999999999996Q 0 0 4 0L 226 0Q 230 0 230 3.9999999999999996L 230 103Q 230 107 226 107L 4 107Q 0 107 0 103Z" stroke="rgba(33,41,48,1)" stroke-width="1.5" fill-opacity="1" fill="#95da69"></path><path id="SvgjsPath1203" d="M 0 47L 230 47M 0 77L 230 77" stroke="rgba(33,41,48,1)" stroke-width="1.5" fill="none"></path><path id="SvgjsPath1204" d="M 0 3.9999999999999996Q 0 0 4 0L 226 0Q 230 0 230 3.9999999999999996L 230 103Q 230 107 226 107L 4 107Q 0 107 0 103Z" stroke="none" fill="none"></path><g id="SvgjsG1205"><text id="SvgjsText1206" font-family="&quot;Microsoft YaHei&quot;, 微软雅黑, Arial" text-anchor="middle" font-size="20px" width="210px" fill="#323232" font-weight="700" align="middle" lineHeight="125%" anchor="middle" family="&quot;Microsoft YaHei&quot;, 微软雅黑, Arial" size="20px" weight="700" font-style="" opacity="1" y="-7" transform="rotate(0)"><tspan id="SvgjsTspan1207" dy="25" x="115"><tspan id="SvgjsTspan1208" style="">&lt;interface&gt;</tspan></tspan><tspan id="SvgjsTspan1209" dy="25" x="115"><tspan id="SvgjsTspan1210" style="">IEventQueue</tspan></tspan></text></g><g id="SvgjsG1211"><text id="SvgjsText1212" font-family="&quot;Microsoft YaHei&quot;, 微软雅黑, Arial" text-anchor="start" font-size="20px" width="210px" fill="#323232" font-weight="400" align="middle" lineHeight="125%" anchor="start" family="&quot;Microsoft YaHei&quot;, 微软雅黑, Arial" size="20px" weight="400" font-style="" opacity="1" y="44" transform="rotate(0)"></text></g><g id="SvgjsG1213"><text id="SvgjsText1214" font-family="&quot;Microsoft YaHei&quot;, 微软雅黑, Arial" text-anchor="start" font-size="20px" width="210px" fill="#323232" font-weight="400" align="middle" lineHeight="125%" anchor="start" family="&quot;Microsoft YaHei&quot;, 微软雅黑, Arial" size="20px" weight="400" font-style="" opacity="1" y="74" transform="rotate(0)"></text></g></g><g id="SvgjsG1215" transform="translate(498.6111407809788,210.94444444444443)"><path id="SvgjsPath1216" d="M 0 3.9999999999999996Q 0 0 4 0L 226 0Q 230 0 230 3.9999999999999996L 230 103Q 230 107 226 107L 4 107Q 0 107 0 103Z" stroke="rgba(33,41,48,1)" stroke-width="1.5" fill-opacity="1" fill="#95da69"></path><path id="SvgjsPath1217" d="M 0 47L 230 47M 0 77L 230 77" stroke="rgba(33,41,48,1)" stroke-width="1.5" fill="none"></path><path id="SvgjsPath1218" d="M 0 3.9999999999999996Q 0 0 4 0L 226 0Q 230 0 230 3.9999999999999996L 230 103Q 230 107 226 107L 4 107Q 0 107 0 103Z" stroke="none" fill="none"></path><g id="SvgjsG1219"><text id="SvgjsText1220" font-family="&quot;Microsoft YaHei&quot;, 微软雅黑, Arial" text-anchor="middle" font-size="20px" width="210px" fill="#323232" font-weight="700" align="middle" lineHeight="125%" anchor="middle" family="&quot;Microsoft YaHei&quot;, 微软雅黑, Arial" size="20px" weight="700" font-style="" opacity="1" y="-7" transform="rotate(0)"><tspan id="SvgjsTspan1221" dy="25" x="115"><tspan id="SvgjsTspan1222" style="">&lt;interface&gt;</tspan></tspan><tspan id="SvgjsTspan1223" dy="25" x="115"><tspan id="SvgjsTspan1224" style="">IEventQueueBuffer</tspan></tspan></text></g><g id="SvgjsG1225"><text id="SvgjsText1226" font-family="&quot;Microsoft YaHei&quot;, 微软雅黑, Arial" text-anchor="start" font-size="20px" width="210px" fill="#323232" font-weight="400" align="middle" lineHeight="125%" anchor="start" family="&quot;Microsoft YaHei&quot;, 微软雅黑, Arial" size="20px" weight="400" font-style="" opacity="1" y="44" transform="rotate(0)"></text></g><g id="SvgjsG1227"><text id="SvgjsText1228" font-family="&quot;Microsoft YaHei&quot;, 微软雅黑, Arial" text-anchor="start" font-size="20px" width="210px" fill="#323232" font-weight="400" align="middle" lineHeight="125%" anchor="start" family="&quot;Microsoft YaHei&quot;, 微软雅黑, Arial" size="20px" weight="400" font-style="" opacity="1" y="74" transform="rotate(0)"></text></g></g><g id="SvgjsG1229" transform="translate(1411.250029669868,525.7777777777777)"><path id="SvgjsPath1230" d="M 0 4Q 0 0 4 0L 226 0Q 230 0 230 4L 230 86Q 230 90 226 90L 4 90Q 0 90 0 86Z" stroke="rgba(33,41,48,1)" stroke-width="1.5" fill-opacity="1" fill="#95da69"></path><path id="SvgjsPath1231" d="M 0 30L 230 30M 0 60L 230 60" stroke="rgba(33,41,48,1)" stroke-width="1.5" fill="none"></path><path id="SvgjsPath1232" d="M 0 4Q 0 0 4 0L 226 0Q 230 0 230 4L 230 86Q 230 90 226 90L 4 90Q 0 90 0 86Z" stroke="none" fill="none"></path><g id="SvgjsG1233"><text id="SvgjsText1234" font-family="&quot;Microsoft YaHei&quot;, 微软雅黑, Arial" text-anchor="middle" font-size="20px" width="210px" fill="#323232" font-weight="700" align="middle" lineHeight="125%" anchor="middle" family="&quot;Microsoft YaHei&quot;, 微软雅黑, Arial" size="20px" weight="700" font-style="" opacity="1" y="-3" transform="rotate(0)"><tspan id="SvgjsTspan1235" dy="25" x="115"><tspan id="SvgjsTspan1236" style="">EventQueue</tspan></tspan></text></g><g id="SvgjsG1237"><text id="SvgjsText1238" font-family="&quot;Microsoft YaHei&quot;, 微软雅黑, Arial" text-anchor="start" font-size="20px" width="210px" fill="#323232" font-weight="400" align="middle" lineHeight="125%" anchor="start" family="&quot;Microsoft YaHei&quot;, 微软雅黑, Arial" size="20px" weight="400" font-style="" opacity="1" y="27" transform="rotate(0)"></text></g><g id="SvgjsG1239"><text id="SvgjsText1240" font-family="&quot;Microsoft YaHei&quot;, 微软雅黑, Arial" text-anchor="start" font-size="20px" width="210px" fill="#323232" font-weight="400" align="middle" lineHeight="125%" anchor="start" family="&quot;Microsoft YaHei&quot;, 微软雅黑, Arial" size="20px" weight="400" font-style="" opacity="1" y="57" transform="rotate(0)"></text></g></g><g id="SvgjsG1241" transform="translate(25,525.7777777777777)"><path id="SvgjsPath1242" d="M 0 4Q 0 0 4 0L 263.5 0Q 267.5 0 267.5 4L 267.5 86Q 267.5 90 263.5 90L 4 90Q 0 90 0 86Z" stroke="rgba(33,41,48,1)" stroke-width="1.5" fill-opacity="1" fill="#95da69"></path><path id="SvgjsPath1243" d="M 0 30L 267.5 30M 0 60L 267.5 60" stroke="rgba(33,41,48,1)" stroke-width="1.5" fill="none"></path><path id="SvgjsPath1244" d="M 0 4Q 0 0 4 0L 263.5 0Q 267.5 0 267.5 4L 267.5 86Q 267.5 90 263.5 90L 4 90Q 0 90 0 86Z" stroke="none" fill="none"></path><g id="SvgjsG1245"><text id="SvgjsText1246" font-family="&quot;Microsoft YaHei&quot;, 微软雅黑, Arial" text-anchor="middle" font-size="20px" width="248px" fill="#323232" font-weight="700" align="middle" lineHeight="125%" anchor="middle" family="&quot;Microsoft YaHei&quot;, 微软雅黑, Arial" size="20px" weight="700" font-style="" opacity="1" y="-3" transform="rotate(0)"><tspan id="SvgjsTspan1247" dy="25" x="134"><tspan id="SvgjsTspan1248" style="">EiEventQueueBuffer</tspan></tspan></text></g><g id="SvgjsG1249"><text id="SvgjsText1250" font-family="&quot;Microsoft YaHei&quot;, 微软雅黑, Arial" text-anchor="start" font-size="20px" width="248px" fill="#323232" font-weight="400" align="middle" lineHeight="125%" anchor="start" family="&quot;Microsoft YaHei&quot;, 微软雅黑, Arial" size="20px" weight="400" font-style="" opacity="1" y="27" transform="rotate(0)"></text></g><g id="SvgjsG1251"><text id="SvgjsText1252" font-family="&quot;Microsoft YaHei&quot;, 微软雅黑, Arial" text-anchor="start" font-size="20px" width="248px" fill="#323232" font-weight="400" align="middle" lineHeight="125%" anchor="start" family="&quot;Microsoft YaHei&quot;, 微软雅黑, Arial" size="20px" weight="400" font-style="" opacity="1" y="57" transform="rotate(0)"></text></g></g><g id="SvgjsG1253" transform="translate(704.8611111111109,525.7777777777777)"><path id="SvgjsPath1254" d="M 0 4Q 0 0 4 0L 322.528 0Q 326.528 0 326.528 4L 326.528 86Q 326.528 90 322.528 90L 4 90Q 0 90 0 86Z" stroke="rgba(33,41,48,1)" stroke-width="1.5" fill-opacity="1" fill="#95da69"></path><path id="SvgjsPath1255" d="M 0 30L 326.528 30M 0 60L 326.528 60" stroke="rgba(33,41,48,1)" stroke-width="1.5" fill="none"></path><path id="SvgjsPath1256" d="M 0 4Q 0 0 4 0L 322.528 0Q 326.528 0 326.528 4L 326.528 86Q 326.528 90 322.528 90L 4 90Q 0 90 0 86Z" stroke="none" fill="none"></path><g id="SvgjsG1257"><text id="SvgjsText1258" font-family="&quot;Microsoft YaHei&quot;, 微软雅黑, Arial" text-anchor="middle" font-size="20px" width="307px" fill="#323232" font-weight="700" align="middle" lineHeight="125%" anchor="middle" family="&quot;Microsoft YaHei&quot;, 微软雅黑, Arial" size="20px" weight="700" font-style="" opacity="1" y="-3" transform="rotate(0)"><tspan id="SvgjsTspan1259" dy="25" x="163.5"><tspan id="SvgjsTspan1260" style="">MSWindowsEventQueueBuffer</tspan></tspan></text></g><g id="SvgjsG1261"><text id="SvgjsText1262" font-family="&quot;Microsoft YaHei&quot;, 微软雅黑, Arial" text-anchor="start" font-size="20px" width="307px" fill="#323232" font-weight="400" align="middle" lineHeight="125%" anchor="start" family="&quot;Microsoft YaHei&quot;, 微软雅黑, Arial" size="20px" weight="400" font-style="" opacity="1" y="27" transform="rotate(0)"></text></g><g id="SvgjsG1263"><text id="SvgjsText1264" font-family="&quot;Microsoft YaHei&quot;, 微软雅黑, Arial" text-anchor="start" font-size="20px" width="307px" fill="#323232" font-weight="400" align="middle" lineHeight="125%" anchor="start" family="&quot;Microsoft YaHei&quot;, 微软雅黑, Arial" size="20px" weight="400" font-style="" opacity="1" y="57" transform="rotate(0)"></text></g></g><g id="SvgjsG1265" transform="translate(356.25,525.7777777777777)"><path id="SvgjsPath1266" d="M 0 4Q 0 0 4 0L 280.861 0Q 284.861 0 284.861 4L 284.861 86Q 284.861 90 280.861 90L 4 90Q 0 90 0 86Z" stroke="rgba(33,41,48,1)" stroke-width="1.5" fill-opacity="1" fill="#95da69"></path><path id="SvgjsPath1267" d="M 0 30L 284.861 30M 0 60L 284.861 60" stroke="rgba(33,41,48,1)" stroke-width="1.5" fill="none"></path><path id="SvgjsPath1268" d="M 0 4Q 0 0 4 0L 280.861 0Q 284.861 0 284.861 4L 284.861 86Q 284.861 90 280.861 90L 4 90Q 0 90 0 86Z" stroke="none" fill="none"></path><g id="SvgjsG1269"><text id="SvgjsText1270" font-family="&quot;Microsoft YaHei&quot;, 微软雅黑, Arial" text-anchor="middle" font-size="20px" width="265px" fill="#323232" font-weight="700" align="middle" lineHeight="125%" anchor="middle" family="&quot;Microsoft YaHei&quot;, 微软雅黑, Arial" size="20px" weight="700" font-style="" opacity="1" y="-3" transform="rotate(0)"><tspan id="SvgjsTspan1271" dy="25" x="142.5"><tspan id="SvgjsTspan1272" style="">OSXEventQueueBuffer</tspan></tspan></text></g><g id="SvgjsG1273"><text id="SvgjsText1274" font-family="&quot;Microsoft YaHei&quot;, 微软雅黑, Arial" text-anchor="start" font-size="20px" width="265px" fill="#323232" font-weight="400" align="middle" lineHeight="125%" anchor="start" family="&quot;Microsoft YaHei&quot;, 微软雅黑, Arial" size="20px" weight="400" font-style="" opacity="1" y="27" transform="rotate(0)"></text></g><g id="SvgjsG1275"><text id="SvgjsText1276" font-family="&quot;Microsoft YaHei&quot;, 微软雅黑, Arial" text-anchor="start" font-size="20px" width="265px" fill="#323232" font-weight="400" align="middle" lineHeight="125%" anchor="start" family="&quot;Microsoft YaHei&quot;, 微软雅黑, Arial" size="20px" weight="400" font-style="" opacity="1" y="57" transform="rotate(0)"></text></g></g><g id="SvgjsG1277"><path id="SvgjsPath1278" d="M159.34456592462433 525.3206027546761L495.9554792470286 266.4864928809653" stroke="#e74f4c" stroke-width="2" fill="none" marker-end="url(#SvgjsMarker1279)"></path></g><g id="SvgjsG1282"><path id="SvgjsPath1283" d="M499.04351713994174 525.1214473297091L611.9899786334252 320.8760537791511" stroke="#e74f4c" stroke-width="2" fill="none" marker-end="url(#SvgjsMarker1284)"></path></g><g id="SvgjsG1287"><path id="SvgjsPath1288" d="M867.7717758223158 525.1161561637158L730.1888091785964 267.39968765392126" stroke="#e74f4c" stroke-width="2" fill="none" marker-end="url(#SvgjsMarker1289)"></path></g><g id="SvgjsG1292"><path id="SvgjsPath1293" d="M1526.250029669868 525.0277777777777L1526.250029669868 321.2944444444445" stroke="#e74f4c" stroke-width="2" fill="none" marker-end="url(#SvgjsMarker1294)"></path></g><g id="SvgjsG1297"><path id="SvgjsPath1298" d="M1525.5449852207287 210.68868611175935L1168.4270059871342 81.14238721932671" stroke="#e74f4c" stroke-width="2" fill="none" marker-end="url(#SvgjsMarker1299)"></path></g><g id="SvgjsG1302"><path id="SvgjsPath1303" d="M614.305789206335 210.66166614762844L932.1750444810543 81.26307639244476" stroke="#e74f4c" stroke-width="2" fill="none" marker-end="url(#SvgjsMarker1304)"></path></g><g id="SvgjsG1307" transform="translate(1411.250029669868,722.0277777777777)"><path id="SvgjsPath1308" d="M 0 4Q 0 0 4 0L 226 0Q 230 0 230 4L 230 86Q 230 90 226 90L 4 90Q 0 90 0 86Z" stroke="rgba(33,41,48,1)" stroke-width="1.5" fill-opacity="1" fill="#95da69"></path><path id="SvgjsPath1309" d="M 0 30L 230 30M 0 60L 230 60" stroke="rgba(33,41,48,1)" stroke-width="1.5" fill="none"></path><path id="SvgjsPath1310" d="M 0 4Q 0 0 4 0L 226 0Q 230 0 230 4L 230 86Q 230 90 226 90L 4 90Q 0 90 0 86Z" stroke="none" fill="none"></path><g id="SvgjsG1311"><text id="SvgjsText1312" font-family="&quot;Microsoft YaHei&quot;, 微软雅黑, Arial" text-anchor="middle" font-size="20px" width="210px" fill="#323232" font-weight="700" align="middle" lineHeight="125%" anchor="middle" family="&quot;Microsoft YaHei&quot;, 微软雅黑, Arial" size="20px" weight="700" font-style="" opacity="1" y="-3" transform="rotate(0)"><tspan id="SvgjsTspan1313" dy="25" x="115"><tspan id="SvgjsTspan1314" style="">EventQueueTimer</tspan></tspan></text></g><g id="SvgjsG1315"><text id="SvgjsText1316" font-family="&quot;Microsoft YaHei&quot;, 微软雅黑, Arial" text-anchor="start" font-size="20px" width="210px" fill="#323232" font-weight="400" align="middle" lineHeight="125%" anchor="start" family="&quot;Microsoft YaHei&quot;, 微软雅黑, Arial" size="20px" weight="400" font-style="" opacity="1" y="27" transform="rotate(0)"></text></g><g id="SvgjsG1317"><text id="SvgjsText1318" font-family="&quot;Microsoft YaHei&quot;, 微软雅黑, Arial" text-anchor="start" font-size="20px" width="210px" fill="#323232" font-weight="400" align="middle" lineHeight="125%" anchor="start" family="&quot;Microsoft YaHei&quot;, 微软雅黑, Arial" size="20px" weight="400" font-style="" opacity="1" y="57" transform="rotate(0)"></text></g></g><g id="SvgjsG1319"><path id="SvgjsPath1320" d="M1526.250029669868 721.2777777777777L1526.250029669868 619.1277777777777" stroke="#e74f4c" stroke-width="2" fill="none" marker-end="url(#SvgjsMarker1321)"></path></g><g id="SvgjsG1324" transform="translate(1749.3055852254229,525.7777777777777)"><path id="SvgjsPath1325" d="M 0 4Q 0 0 4 0L 226 0Q 230 0 230 4L 230 86Q 230 90 226 90L 4 90Q 0 90 0 86Z" stroke="rgba(33,41,48,1)" stroke-width="1.5" fill-opacity="1" fill="#95da69"></path><path id="SvgjsPath1326" d="M 0 30L 230 30M 0 60L 230 60" stroke="rgba(33,41,48,1)" stroke-width="1.5" fill="none"></path><path id="SvgjsPath1327" d="M 0 4Q 0 0 4 0L 226 0Q 230 0 230 4L 230 86Q 230 90 226 90L 4 90Q 0 90 0 86Z" stroke="none" fill="none"></path><g id="SvgjsG1328"><text id="SvgjsText1329" font-family="&quot;Microsoft YaHei&quot;, 微软雅黑, Arial" text-anchor="middle" font-size="20px" width="210px" fill="#323232" font-weight="700" align="middle" lineHeight="125%" anchor="middle" family="&quot;Microsoft YaHei&quot;, 微软雅黑, Arial" size="20px" weight="700" font-style="" opacity="1" y="-3" transform="rotate(0)"><tspan id="SvgjsTspan1330" dy="25" x="115"><tspan id="SvgjsTspan1331" style="">Event</tspan></tspan></text></g><g id="SvgjsG1332"><text id="SvgjsText1333" font-family="&quot;Microsoft YaHei&quot;, 微软雅黑, Arial" text-anchor="start" font-size="20px" width="210px" fill="#323232" font-weight="400" align="middle" lineHeight="125%" anchor="start" family="&quot;Microsoft YaHei&quot;, 微软雅黑, Arial" size="20px" weight="400" font-style="" opacity="1" y="27" transform="rotate(0)"></text></g><g id="SvgjsG1334"><text id="SvgjsText1335" font-family="&quot;Microsoft YaHei&quot;, 微软雅黑, Arial" text-anchor="start" font-size="20px" width="210px" fill="#323232" font-weight="400" align="middle" lineHeight="125%" anchor="start" family="&quot;Microsoft YaHei&quot;, 微软雅黑, Arial" size="20px" weight="400" font-style="" opacity="1" y="57" transform="rotate(0)"></text></g></g><g id="SvgjsG1336"><path id="SvgjsPath1337" d="M1748.5555852254229 570.7777777777777L1644.6000296698678 570.7777777777777" stroke="#e74f4c" stroke-width="2" fill="none" marker-end="url(#SvgjsMarker1338)"></path></g><g id="SvgjsG1341"><path id="SvgjsPath1342" d="M1410.1795671397117 213.23248261275683C 1144.0278244018555 227.6110899183485 1242.7778244018555 175.1110899183485 1031.740197773714 570.1151608296198" stroke="#4669ea" stroke-width="2" fill="none" marker-start="url(#SvgjsMarker1343)"></path></g><g id="SvgjsG1345"><path id="SvgjsPath1346" d="M1409.500053860665 264.45364592286495C 1079.7192199686983 264.44444444444446 747.7778244018555 385.1110899183485 641.4945078975143 570.1332456276532" stroke="#4669ea" stroke-width="2" fill="none" marker-start="url(#SvgjsMarker1347)"></path></g><g id="SvgjsG1349"><path id="SvgjsPath1350" d="M1411.7590609286299 318.05291702217653C 909.0278244018555 870.1110899183485 914.0278244018555 722.1944439146254 159.49247735956396 615.8837370649352" stroke="#4669ea" stroke-width="2" fill="none" marker-start="url(#SvgjsMarker1351)"></path></g><g id="SvgjsG1353"><path id="SvgjsPath1354" d="M1410.5001405733815 570.7648803760693C 1108.1845840628378 570.7777777777777 1031.676586388009 242.05555555555551 730.3608820061138 242.08564949287512" stroke="#4669ea" stroke-width="2" fill="none" marker-end="url(#SvgjsMarker1355)"></path></g><g id="SvgjsG1358"></g></svg>