<svg id="SvgjsSvg1107" width="775" height="479.5" xmlns="http://www.w3.org/2000/svg" version="1.1" xmlns:xlink="http://www.w3.org/1999/xlink" xmlns:svgjs="http://svgjs.com/svgjs"><defs id="SvgjsDefs1108"><pattern patternUnits="userSpaceOnUse" id="pattern_mark_0" width="300" height="300"><text x="150" y="100" fill="rgba(229,229,229,0.8)" font-size="18" transform="rotate(-45, 150, 150)" style="dominant-baseline: middle; text-anchor: middle;"></text></pattern><pattern patternUnits="userSpaceOnUse" id="pattern_mark_1" width="300" height="300"><text x="150" y="200" fill="rgba(229,229,229,0.8)" font-size="18" transform="rotate(-45, 150, 150)" style="dominant-baseline: middle; text-anchor: middle;"></text></pattern></defs><rect id="svgbackgroundid" width="775" height="479.5" fill="transparent"></rect><rect id="SvgjsRect1110" width="775" height="479.5" fill="url(#pattern_mark_0)"></rect><rect id="SvgjsRect1111" width="775" height="479.5" fill="url(#pattern_mark_1)"></rect><g id="SvgjsG1112" transform="translate(207,105.5)"><path id="SvgjsPath1113" d="M 0 4Q 0 0 4 0L 81 0Q 85 0 85 4L 85 179Q 85 183 81 183L 4 183Q 0 183 0 179Z" stroke="rgba(255,255,255,1)" stroke-width="1.5" fill-opacity="1" fill="#7bd144"></path><g id="SvgjsG1114"><text id="SvgjsText1115" font-family="&quot;Microsoft YaHei&quot;, 微软雅黑, Arial" text-anchor="middle" font-size="13px" width="65px" fill="#323232" font-weight="400" align="middle" lineHeight="125%" anchor="middle" family="&quot;Microsoft YaHei&quot;, 微软雅黑, Arial" size="13px" weight="400" font-style="" opacity="1" y="80.875" transform="rotate(0)"></text></g></g><g id="SvgjsG1116" transform="translate(140,42.5)"><path id="SvgjsPath1117" d="M 0 0L 84 0L 100 16L 100 40L 0 40L 0 0Z" stroke="none" fill-opacity="1" fill="#fff7bc"></path><path id="SvgjsPath1118" d="M 84 0L 84 16L 100 16Z" stroke="none" fill-opacity="1" fill="#e4d089"></path><path id="SvgjsPath1119" d="M 0 0L 84 0L 100 16L 100 40L 0 40L 0 0Z" stroke="none" fill="none"></path><g id="SvgjsG1120"><text id="SvgjsText1121" font-family="&quot;Microsoft YaHei&quot;, 微软雅黑, Arial" text-anchor="middle" font-size="20px" width="80px" fill="#323232" font-weight="400" align="middle" lineHeight="125%" anchor="middle" family="&quot;Microsoft YaHei&quot;, 微软雅黑, Arial" size="20px" weight="400" font-style="" opacity="1" y="2" transform="rotate(0)"><tspan id="SvgjsTspan1122" dy="25" x="50"><tspan id="SvgjsTspan1123" style="">虚拟地址</tspan></tspan></text></g></g><g id="SvgjsG1124" transform="translate(25,105.5)"><path id="SvgjsPath1125" d="M 120 0Q 111 0 111 9L 111 82.5Q 111 91.5 98 91.5Q 111 91.5 111 100.5L 111 174Q 111 183 120 183" stroke="rgba(33,41,48,1)" stroke-width="1.5" fill="none"></path><path id="SvgjsPath1126" d="M 0 0L 120 0L 120 183L 0 183Z" stroke="none" fill="none"></path><g id="SvgjsG1127"><text id="SvgjsText1128" font-family="&quot;Microsoft YaHei&quot;, 微软雅黑, Arial" text-anchor="end" font-size="13px" width="93px" fill="#323232" font-weight="400" align="middle" lineHeight="125%" anchor="end" family="&quot;Microsoft YaHei&quot;, 微软雅黑, Arial" size="13px" weight="400" font-style="" opacity="1" y="80.875" transform="rotate(0)"></text></g></g><g id="SvgjsG1129" transform="translate(159,267.5)"><path id="SvgjsPath1130" d="M 0 0L 34 0L 34 40L 0 40Z" stroke="none" fill="none"></path><g id="SvgjsG1131"><text id="SvgjsText1132" font-family="&quot;Microsoft YaHei&quot;, 微软雅黑, Arial" text-anchor="middle" font-size="24px" width="34px" fill="#323232" font-weight="400" align="middle" lineHeight="125%" anchor="middle" family="&quot;Microsoft YaHei&quot;, 微软雅黑, Arial" size="24px" weight="400" font-style="" opacity="1" y="-1" transform="rotate(0)"><tspan id="SvgjsTspan1133" dy="30" x="17"><tspan id="SvgjsTspan1134" style="">0</tspan></tspan></text></g></g><g id="SvgjsG1135" transform="translate(153.5,74.5)"><path id="SvgjsPath1136" d="M 0 0L 53 0L 53 60L 0 60Z" stroke="none" fill="none"></path><g id="SvgjsG1137"><text id="SvgjsText1138" font-family="&quot;Microsoft YaHei&quot;, 微软雅黑, Arial" text-anchor="middle" font-size="24px" width="53px" fill="#323232" font-weight="400" align="middle" lineHeight="125%" anchor="middle" family="&quot;Microsoft YaHei&quot;, 微软雅黑, Arial" size="24px" weight="400" font-style="" opacity="1" y="9" transform="rotate(0)"><tspan id="SvgjsTspan1139" dy="30" x="26.5"><tspan id="SvgjsTspan1140" style="">200</tspan></tspan></text></g></g><g id="SvgjsG1141" transform="translate(71,90.5)"><path id="SvgjsPath1142" d="M 0 0L 28 0L 44 16L 44 213L 0 213L 0 0Z" stroke="none" fill-opacity="1" fill="#fff7bc"></path><path id="SvgjsPath1143" d="M 28 0L 28 16L 44 16Z" stroke="none" fill-opacity="1" fill="#e4d089"></path><path id="SvgjsPath1144" d="M 0 0L 28 0L 44 16L 44 213L 0 213L 0 0Z" stroke="none" fill="none"></path><g id="SvgjsG1145"><text id="SvgjsText1146" font-family="&quot;Microsoft YaHei&quot;, 微软雅黑, Arial" text-anchor="middle" font-size="20px" width="24px" fill="#323232" font-weight="400" align="middle" lineHeight="125%" anchor="middle" family="&quot;Microsoft YaHei&quot;, 微软雅黑, Arial" size="20px" weight="400" font-style="" opacity="1" y="26" transform="rotate(0)"><tspan id="SvgjsTspan1147" dy="25" x="22"><tspan id="SvgjsTspan1148" style="">虚</tspan></tspan><tspan id="SvgjsTspan1149" dy="25" x="22"><tspan id="SvgjsTspan1150" style="">拟</tspan></tspan><tspan id="SvgjsTspan1151" dy="25" x="22"><tspan id="SvgjsTspan1152" style="">地</tspan></tspan><tspan id="SvgjsTspan1153" dy="25" x="22"><tspan id="SvgjsTspan1154" style="">址</tspan></tspan><tspan id="SvgjsTspan1155" dy="25" x="22"><tspan id="SvgjsTspan1156" style="">空</tspan></tspan><tspan id="SvgjsTspan1157" dy="25" x="22"><tspan id="SvgjsTspan1158" style="">间</tspan></tspan></text></g></g><g id="SvgjsG1159" transform="translate(570,82.5)"><path id="SvgjsPath1160" d="M 0 4Q 0 0 4 0L 121 0Q 125 0 125 4L 125 84Q 125 88 121 88L 4 88Q 0 88 0 84Z" stroke="rgba(255,255,255,1)" stroke-width="1.5" fill-opacity="1" fill="#f1ac6a"></path><g id="SvgjsG1161"><text id="SvgjsText1162" font-family="&quot;Microsoft YaHei&quot;, 微软雅黑, Arial" text-anchor="middle" font-size="13px" width="105px" fill="#323232" font-weight="400" align="middle" lineHeight="125%" anchor="middle" family="&quot;Microsoft YaHei&quot;, 微软雅黑, Arial" size="13px" weight="400" font-style="" opacity="1" y="33.375" transform="rotate(0)"></text></g></g><g id="SvgjsG1163" transform="translate(570,171.5)"><path id="SvgjsPath1164" d="M 0 4Q 0 0 4 0L 121 0Q 125 0 125 4L 125 179Q 125 183 121 183L 4 183Q 0 183 0 179Z" stroke="rgba(255,255,255,1)" stroke-width="1.5" fill-opacity="1" fill="#f1ac6a"></path><g id="SvgjsG1165"><text id="SvgjsText1166" font-family="&quot;Microsoft YaHei&quot;, 微软雅黑, Arial" text-anchor="middle" font-size="13px" width="105px" fill="#323232" font-weight="400" align="middle" lineHeight="125%" anchor="middle" family="&quot;Microsoft YaHei&quot;, 微软雅黑, Arial" size="13px" weight="400" font-style="" opacity="1" y="80.875" transform="rotate(0)"></text></g></g><g id="SvgjsG1167" transform="translate(570,353.5)"><path id="SvgjsPath1168" d="M 0 4Q 0 0 4 0L 121 0Q 125 0 125 4L 125 84Q 125 88 121 88L 4 88Q 0 88 0 84Z" stroke="rgba(255,255,255,1)" stroke-width="1.5" fill-opacity="1" fill="#f1ac6a"></path><g id="SvgjsG1169"><text id="SvgjsText1170" font-family="&quot;Microsoft YaHei&quot;, 微软雅黑, Arial" text-anchor="middle" font-size="13px" width="105px" fill="#323232" font-weight="400" align="middle" lineHeight="125%" anchor="middle" family="&quot;Microsoft YaHei&quot;, 微软雅黑, Arial" size="13px" weight="400" font-style="" opacity="1" y="33.375" transform="rotate(0)"></text></g></g><g id="SvgjsG1171"><path id="SvgjsPath1172" d="M292.07186216576713 107.79069808795816L569.8377899773357 173.36137093436236" stroke-dasharray="7.5,3,1.5,3" stroke="#eb1717" stroke-width="1.5" fill="none"></path></g><g id="SvgjsG1173"><path id="SvgjsPath1174" d="M291.0885068400893 287.90041404337825L570.034600735942 351.394598387931" stroke-dasharray="7.5,3,1.5,3" stroke="#eb1717" stroke-width="1.5" fill="none"></path></g><g id="SvgjsG1175" transform="translate(701,414.5)"><path id="SvgjsPath1176" d="M 0 0L 34 0L 34 40L 0 40Z" stroke="none" fill="none"></path><g id="SvgjsG1177"><text id="SvgjsText1178" font-family="&quot;Microsoft YaHei&quot;, 微软雅黑, Arial" text-anchor="middle" font-size="24px" width="34px" fill="#323232" font-weight="400" align="middle" lineHeight="125%" anchor="middle" family="&quot;Microsoft YaHei&quot;, 微软雅黑, Arial" size="24px" weight="400" font-style="" opacity="1" y="-1" transform="rotate(0)"><tspan id="SvgjsTspan1179" dy="30" x="17"><tspan id="SvgjsTspan1180" style="">0</tspan></tspan></text></g></g><g id="SvgjsG1181" transform="translate(701,316.5)"><path id="SvgjsPath1182" d="M 0 0L 49 0L 49 60L 0 60Z" stroke="none" fill="none"></path><g id="SvgjsG1183"><text id="SvgjsText1184" font-family="&quot;Microsoft YaHei&quot;, 微软雅黑, Arial" text-anchor="middle" font-size="24px" width="49px" fill="#323232" font-weight="400" align="middle" lineHeight="125%" anchor="middle" family="&quot;Microsoft YaHei&quot;, 微软雅黑, Arial" size="24px" weight="400" font-style="" opacity="1" y="9" transform="rotate(0)"><tspan id="SvgjsTspan1185" dy="30" x="24.5"><tspan id="SvgjsTspan1186" style="">100</tspan></tspan></text></g></g><g id="SvgjsG1187" transform="translate(701,152.5)"><path id="SvgjsPath1188" d="M 0 0L 49 0L 49 60L 0 60Z" stroke="none" fill="none"></path><g id="SvgjsG1189"><text id="SvgjsText1190" font-family="&quot;Microsoft YaHei&quot;, 微软雅黑, Arial" text-anchor="middle" font-size="24px" width="49px" fill="#323232" font-weight="400" align="middle" lineHeight="125%" anchor="middle" family="&quot;Microsoft YaHei&quot;, 微软雅黑, Arial" size="24px" weight="400" font-style="" opacity="1" y="9" transform="rotate(0)"><tspan id="SvgjsTspan1191" dy="30" x="24.5"><tspan id="SvgjsTspan1192" style="">300</tspan></tspan></text></g></g><g id="SvgjsG1193" transform="translate(701,65.5)"><path id="SvgjsPath1194" d="M 0 0L 49 0L 49 40L 0 40Z" stroke="none" fill="none"></path><g id="SvgjsG1195"><text id="SvgjsText1196" font-family="&quot;Microsoft YaHei&quot;, 微软雅黑, Arial" text-anchor="middle" font-size="24px" width="49px" fill="#323232" font-weight="400" align="middle" lineHeight="125%" anchor="middle" family="&quot;Microsoft YaHei&quot;, 微软雅黑, Arial" size="24px" weight="400" font-style="" opacity="1" y="-1" transform="rotate(0)"><tspan id="SvgjsTspan1197" dy="30" x="24.5"><tspan id="SvgjsTspan1198" style="">400</tspan></tspan></text></g></g><g id="SvgjsG1199" transform="translate(582.5,25)"><path id="SvgjsPath1200" d="M 0 0L 84 0L 100 16L 100 49L 0 49L 0 0Z" stroke="none" fill-opacity="1" fill="#fff7bc"></path><path id="SvgjsPath1201" d="M 84 0L 84 16L 100 16Z" stroke="none" fill-opacity="1" fill="#e4d089"></path><path id="SvgjsPath1202" d="M 0 0L 84 0L 100 16L 100 49L 0 49L 0 0Z" stroke="none" fill="none"></path><g id="SvgjsG1203"><text id="SvgjsText1204" font-family="&quot;Microsoft YaHei&quot;, 微软雅黑, Arial" text-anchor="middle" font-size="20px" width="80px" fill="#323232" font-weight="400" align="middle" lineHeight="125%" anchor="middle" family="&quot;Microsoft YaHei&quot;, 微软雅黑, Arial" size="20px" weight="400" font-style="" opacity="1" y="6.5" transform="rotate(0)"><tspan id="SvgjsTspan1205" dy="25" x="50"><tspan id="SvgjsTspan1206" style="">物理地址</tspan></tspan></text></g></g><g id="SvgjsG1207"></g></svg>