<svg id="SvgjsSvg1006" width="3115" height="637.5" xmlns="http://www.w3.org/2000/svg" version="1.1" xmlns:xlink="http://www.w3.org/1999/xlink" xmlns:svgjs="http://svgjs.com/svgjs"><defs id="SvgjsDefs1007"><pattern patternUnits="userSpaceOnUse" id="pattern_mark_0" width="300" height="300"><text x="150" y="100" fill="rgba(229,229,229,0.8)" font-size="18" transform="rotate(-45, 150, 150)" style="dominant-baseline: middle; text-anchor: middle;"></text></pattern><pattern patternUnits="userSpaceOnUse" id="pattern_mark_1" width="300" height="300"><text x="150" y="200" fill="rgba(229,229,229,0.8)" font-size="18" transform="rotate(-45, 150, 150)" style="dominant-baseline: middle; text-anchor: middle;"></text></pattern></defs><rect id="svgbackgroundid" width="3115" height="637.5" fill="transparent"></rect><rect id="SvgjsRect1009" width="3115" height="637.5" fill="url(#pattern_mark_0)"></rect><rect id="SvgjsRect1010" width="3115" height="637.5" fill="url(#pattern_mark_1)"></rect><g id="SvgjsG1011" transform="translate(25,25)"><path id="SvgjsPath1012" d="M 0 4Q 0 0 4 0L 3061 0Q 3065 0 3065 4L 3065 583.5Q 3065 587.5 3061 587.5L 4 587.5Q 0 587.5 0 583.5Z" stroke="rgba(33,41,48,1)" stroke-width="1.5" fill-opacity="1" fill="#ffffff"></path><g id="SvgjsG1013"><text id="SvgjsText1014" font-family="&quot;Microsoft YaHei&quot;, 微软雅黑, Arial" text-anchor="middle" font-size="13px" width="3045px" fill="#323232" font-weight="400" align="middle" lineHeight="125%" anchor="middle" family="&quot;Microsoft YaHei&quot;, 微软雅黑, Arial" size="13px" weight="400" font-style="" opacity="1" y="283.125" transform="rotate(0)"></text></g></g><g id="SvgjsG1015" transform="translate(365.63333638509107,84.6364094127299)"><path id="SvgjsPath1016" d="M 0 35C 0 -11.667 70 -11.667 70 35C 70 81.667 0 81.667 0 35Z" stroke="rgba(0,0,0,1)" stroke-width="1.5" fill-opacity="1" fill="#000000"></path><g id="SvgjsG1017"><text id="SvgjsText1018" font-family="&quot;Microsoft YaHei&quot;, 微软雅黑, Arial" text-anchor="middle" font-size="30px" width="50px" fill="#ffffff" font-weight="400" align="middle" lineHeight="125%" anchor="middle" family="&quot;Microsoft YaHei&quot;, 微软雅黑, Arial" size="30px" weight="400" font-style="" opacity="1" y="9.25" transform="rotate(0)"><tspan id="SvgjsTspan1019" dy="37.5" x="35"><tspan id="SvgjsTspan1020" style="">18</tspan></tspan></text></g></g><g id="SvgjsG1021" transform="translate(187.63333638509107,202.6364094127299)"><path id="SvgjsPath1022" d="M 0 35C 0 -11.667 70 -11.667 70 35C 70 81.667 0 81.667 0 35Z" stroke="rgba(255,255,255,1)" stroke-width="1.5" fill-opacity="1" fill="#e60c0c"></path><g id="SvgjsG1023"><text id="SvgjsText1024" font-family="&quot;Microsoft YaHei&quot;, 微软雅黑, Arial" text-anchor="middle" font-size="30px" width="50px" fill="#ffffff" font-weight="400" align="middle" lineHeight="125%" anchor="middle" family="&quot;Microsoft YaHei&quot;, 微软雅黑, Arial" size="30px" weight="400" font-style="" opacity="1" y="9.25" transform="rotate(0)"><tspan id="SvgjsTspan1025" dy="37.5" x="35"><tspan id="SvgjsTspan1026" style="">16</tspan></tspan></text></g></g><g id="SvgjsG1027" transform="translate(55.63333638509107,362.6364094127299)"><path id="SvgjsPath1028" d="M 0 35C 0 -11.667 70 -11.667 70 35C 70 81.667 0 81.667 0 35Z" stroke="rgba(0,0,0,1)" stroke-width="1.5" fill-opacity="1" fill="#000000"></path><g id="SvgjsG1029"><text id="SvgjsText1030" font-family="&quot;Microsoft YaHei&quot;, 微软雅黑, Arial" text-anchor="middle" font-size="30px" width="50px" fill="#ffffff" font-weight="400" align="middle" lineHeight="125%" anchor="middle" family="&quot;Microsoft YaHei&quot;, 微软雅黑, Arial" size="30px" weight="400" font-style="" opacity="1" y="9.25" transform="rotate(0)"><tspan id="SvgjsTspan1031" dy="37.5" x="35"><tspan id="SvgjsTspan1032" style="">9</tspan></tspan></text></g></g><g id="SvgjsG1033" transform="translate(295.63333638509107,373.6364094127299)"><path id="SvgjsPath1034" d="M 0 35C 0 -11.667 70 -11.667 70 35C 70 81.667 0 81.667 0 35Z" stroke="rgba(0,0,0,1)" stroke-width="1.5" fill-opacity="1" fill="#000000"></path><g id="SvgjsG1035"><text id="SvgjsText1036" font-family="&quot;Microsoft YaHei&quot;, 微软雅黑, Arial" text-anchor="middle" font-size="30px" width="50px" fill="#ffffff" font-weight="400" align="middle" lineHeight="125%" anchor="middle" family="&quot;Microsoft YaHei&quot;, 微软雅黑, Arial" size="30px" weight="400" font-style="" opacity="1" y="9.25" transform="rotate(0)"><tspan id="SvgjsTspan1037" dy="37.5" x="35"><tspan id="SvgjsTspan1038" style="">17</tspan></tspan></text></g></g><g id="SvgjsG1039" transform="translate(527.6333363850911,202.6364094127299)"><path id="SvgjsPath1040" d="M 0 35C 0 -11.667 70 -11.667 70 35C 70 81.667 0 81.667 0 35Z" stroke="rgba(0,0,0,1)" stroke-width="1.5" fill-opacity="1" fill="#000000"></path><g id="SvgjsG1041"><text id="SvgjsText1042" font-family="&quot;Microsoft YaHei&quot;, 微软雅黑, Arial" text-anchor="middle" font-size="30px" width="50px" fill="#ffffff" font-weight="400" align="middle" lineHeight="125%" anchor="middle" family="&quot;Microsoft YaHei&quot;, 微软雅黑, Arial" size="30px" weight="400" font-style="" opacity="1" y="9.25" transform="rotate(0)"><tspan id="SvgjsTspan1043" dy="37.5" x="35"><tspan id="SvgjsTspan1044" style="">20</tspan></tspan></text></g></g><g id="SvgjsG1045"><path id="SvgjsPath1046" d="M364.9846811443561 120.01290161539426L223.28199162582604 202.25991721006554" stroke="#323232" stroke-width="1.5" fill="none"></path></g><g id="SvgjsG1047"><path id="SvgjsPath1048" d="M187.17353754251627 238.22893369439848L91.09313522766588 362.0438851310613" stroke="#323232" stroke-width="1.5" fill="none"></path></g><g id="SvgjsG1049"><path id="SvgjsPath1050" d="M257.98804167783555 238.29723023208948L330.2786310923466 372.97558859337033" stroke="#323232" stroke-width="1.5" fill="none"></path></g><g id="SvgjsG1051"><path id="SvgjsPath1052" d="M436.26115066758854 120.04671323514953L562.0055221025937 202.22610559031028" stroke="#323232" stroke-width="1.5" fill="none"></path></g><g id="SvgjsG1053" transform="translate(1326.000015258789,194.8750457763672)"><path id="SvgjsPath1054" d="M 0 4Q 0 0 4 0L 119 0Q 123 0 123 4L 123 119.25Q 123 123.25 119 123.25L 4 123.25Q 0 123.25 0 119.25Z" stroke-dasharray="3,4.5" stroke="rgba(70,105,234,1)" stroke-width="3" fill-opacity="1" fill="#ffffff"></path><g id="SvgjsG1055"><text id="SvgjsText1056" font-family="&quot;Microsoft YaHei&quot;, 微软雅黑, Arial" text-anchor="middle" font-size="13px" width="103px" fill="#323232" font-weight="400" align="middle" lineHeight="125%" anchor="middle" family="&quot;Microsoft YaHei&quot;, 微软雅黑, Arial" size="13px" weight="400" font-style="" opacity="1" y="51" transform="rotate(0)"></text></g></g><g id="SvgjsG1057" transform="translate(1192.1500091552734,103.50004577636719)"><path id="SvgjsPath1058" d="M 0 35C 0 -11.667 70 -11.667 70 35C 70 81.667 0 81.667 0 35Z" stroke="rgba(0,0,0,1)" stroke-width="1.5" fill-opacity="1" fill="#000000"></path><g id="SvgjsG1059"><text id="SvgjsText1060" font-family="&quot;Microsoft YaHei&quot;, 微软雅黑, Arial" text-anchor="middle" font-size="30px" width="50px" fill="#ffffff" font-weight="400" align="middle" lineHeight="125%" anchor="middle" family="&quot;Microsoft YaHei&quot;, 微软雅黑, Arial" size="30px" weight="400" font-style="" opacity="1" y="9.25" transform="rotate(0)"><tspan id="SvgjsTspan1061" dy="37.5" x="35"><tspan id="SvgjsTspan1062" style="">18</tspan></tspan></text></g></g><g id="SvgjsG1063" transform="translate(1014.1500091552734,221.5000457763672)"><path id="SvgjsPath1064" d="M 0 35C 0 -11.667 70 -11.667 70 35C 70 81.667 0 81.667 0 35Z" stroke="rgba(255,255,255,1)" stroke-width="1.5" fill-opacity="1" fill="#e60c0c"></path><g id="SvgjsG1065"><text id="SvgjsText1066" font-family="&quot;Microsoft YaHei&quot;, 微软雅黑, Arial" text-anchor="middle" font-size="30px" width="50px" fill="#ffffff" font-weight="400" align="middle" lineHeight="125%" anchor="middle" family="&quot;Microsoft YaHei&quot;, 微软雅黑, Arial" size="30px" weight="400" font-style="" opacity="1" y="9.25" transform="rotate(0)"><tspan id="SvgjsTspan1067" dy="37.5" x="35"><tspan id="SvgjsTspan1068" style="">16</tspan></tspan></text></g></g><g id="SvgjsG1069" transform="translate(882.1500091552734,381.5000457763672)"><path id="SvgjsPath1070" d="M 0 35C 0 -11.667 70 -11.667 70 35C 70 81.667 0 81.667 0 35Z" stroke="rgba(0,0,0,1)" stroke-width="1.5" fill-opacity="1" fill="#000000"></path><g id="SvgjsG1071"><text id="SvgjsText1072" font-family="&quot;Microsoft YaHei&quot;, 微软雅黑, Arial" text-anchor="middle" font-size="30px" width="50px" fill="#ffffff" font-weight="400" align="middle" lineHeight="125%" anchor="middle" family="&quot;Microsoft YaHei&quot;, 微软雅黑, Arial" size="30px" weight="400" font-style="" opacity="1" y="9.25" transform="rotate(0)"><tspan id="SvgjsTspan1073" dy="37.5" x="35"><tspan id="SvgjsTspan1074" style="">9</tspan></tspan></text></g></g><g id="SvgjsG1075" transform="translate(1122.1500091552734,392.5000457763672)"><path id="SvgjsPath1076" d="M 0 35C 0 -11.667 70 -11.667 70 35C 70 81.667 0 81.667 0 35Z" stroke="rgba(0,0,0,1)" stroke-width="1.5" fill-opacity="1" fill="#000000"></path><g id="SvgjsG1077"><text id="SvgjsText1078" font-family="&quot;Microsoft YaHei&quot;, 微软雅黑, Arial" text-anchor="middle" font-size="30px" width="50px" fill="#ffffff" font-weight="400" align="middle" lineHeight="125%" anchor="middle" family="&quot;Microsoft YaHei&quot;, 微软雅黑, Arial" size="30px" weight="400" font-style="" opacity="1" y="9.25" transform="rotate(0)"><tspan id="SvgjsTspan1079" dy="37.5" x="35"><tspan id="SvgjsTspan1080" style="">17</tspan></tspan></text></g></g><g id="SvgjsG1081" transform="translate(1354.1500091552734,221.5000457763672)"><path id="SvgjsPath1082" d="M 0 35C 0 -11.667 70 -11.667 70 35C 70 81.667 0 81.667 0 35Z" stroke="rgba(0,0,0,1)" stroke-width="1.5" fill="none"></path><g id="SvgjsG1083"><text id="SvgjsText1084" font-family="&quot;Microsoft YaHei&quot;, 微软雅黑, Arial" text-anchor="middle" font-size="30px" width="50px" fill="#000000" font-weight="400" align="middle" lineHeight="125%" anchor="middle" family="&quot;Microsoft YaHei&quot;, 微软雅黑, Arial" size="30px" weight="400" font-style="" opacity="1" y="9.25" transform="rotate(0)"><tspan id="SvgjsTspan1085" dy="37.5" x="35"><tspan id="SvgjsTspan1086" style="">20</tspan></tspan></text></g></g><g id="SvgjsG1087"><path id="SvgjsPath1088" d="M1191.5013539145384 138.87653797903153L1049.7986643960085 221.12355357370282" stroke="#323232" stroke-width="1.5" fill="none"></path></g><g id="SvgjsG1089"><path id="SvgjsPath1090" d="M1013.6902103126986 257.0925700580358L917.6098079978483 380.9075214946986" stroke="#323232" stroke-width="1.5" fill="none"></path></g><g id="SvgjsG1091"><path id="SvgjsPath1092" d="M1084.504714448018 257.16086659572676L1156.795303862529 391.8392249570076" stroke="#323232" stroke-width="1.5" fill="none"></path></g><g id="SvgjsG1093"><path id="SvgjsPath1094" d="M1262.7778234377708 138.9103495987868L1388.522194872776 221.08974195394757" stroke="#323232" stroke-width="1.5" fill="none"></path></g><g id="SvgjsG1095" transform="translate(2000.8500213623047,103.50004577636719)"><path id="SvgjsPath1096" d="M 0 35C 0 -11.667 70 -11.667 70 35C 70 81.667 0 81.667 0 35Z" stroke="rgba(255,255,255,1)" stroke-width="1.5" fill-opacity="1" fill="#e60c0c"></path><g id="SvgjsG1097"><text id="SvgjsText1098" font-family="&quot;Microsoft YaHei&quot;, 微软雅黑, Arial" text-anchor="middle" font-size="30px" width="50px" fill="#ffffff" font-weight="400" align="middle" lineHeight="125%" anchor="middle" family="&quot;Microsoft YaHei&quot;, 微软雅黑, Arial" size="30px" weight="400" font-style="" opacity="1" y="9.25" transform="rotate(0)"><tspan id="SvgjsTspan1099" dy="37.5" x="35"><tspan id="SvgjsTspan1100" style="">18</tspan></tspan></text></g></g><g id="SvgjsG1101" transform="translate(1822.8500213623047,221.5000457763672)"><path id="SvgjsPath1102" d="M 0 35C 0 -11.667 70 -11.667 70 35C 70 81.667 0 81.667 0 35Z" stroke="rgba(0,0,0,1)" stroke-width="1.5" fill-opacity="1" fill="#000000"></path><g id="SvgjsG1103"><text id="SvgjsText1104" font-family="&quot;Microsoft YaHei&quot;, 微软雅黑, Arial" text-anchor="middle" font-size="30px" width="50px" fill="#ffffff" font-weight="400" align="middle" lineHeight="125%" anchor="middle" family="&quot;Microsoft YaHei&quot;, 微软雅黑, Arial" size="30px" weight="400" font-style="" opacity="1" y="9.25" transform="rotate(0)"><tspan id="SvgjsTspan1105" dy="37.5" x="35"><tspan id="SvgjsTspan1106" style="">16</tspan></tspan></text></g></g><g id="SvgjsG1107" transform="translate(1690.8500213623047,381.50004577636685)"><path id="SvgjsPath1108" d="M 0 35C 0 -11.667 70 -11.667 70 35C 70 81.667 0 81.667 0 35Z" stroke="rgba(0,0,0,1)" stroke-width="1.5" fill-opacity="1" fill="#000000"></path><g id="SvgjsG1109"><text id="SvgjsText1110" font-family="&quot;Microsoft YaHei&quot;, 微软雅黑, Arial" text-anchor="middle" font-size="30px" width="50px" fill="#ffffff" font-weight="400" align="middle" lineHeight="125%" anchor="middle" family="&quot;Microsoft YaHei&quot;, 微软雅黑, Arial" size="30px" weight="400" font-style="" opacity="1" y="9.25" transform="rotate(0)"><tspan id="SvgjsTspan1111" dy="37.5" x="35"><tspan id="SvgjsTspan1112" style="">9</tspan></tspan></text></g></g><g id="SvgjsG1113" transform="translate(1930.8500213623047,392.50004577636685)"><path id="SvgjsPath1114" d="M 0 35C 0 -11.667 70 -11.667 70 35C 70 81.667 0 81.667 0 35Z" stroke="rgba(0,0,0,1)" stroke-width="1.5" fill-opacity="1" fill="#000000"></path><g id="SvgjsG1115"><text id="SvgjsText1116" font-family="&quot;Microsoft YaHei&quot;, 微软雅黑, Arial" text-anchor="middle" font-size="30px" width="50px" fill="#ffffff" font-weight="400" align="middle" lineHeight="125%" anchor="middle" family="&quot;Microsoft YaHei&quot;, 微软雅黑, Arial" size="30px" weight="400" font-style="" opacity="1" y="9.25" transform="rotate(0)"><tspan id="SvgjsTspan1117" dy="37.5" x="35"><tspan id="SvgjsTspan1118" style="">17</tspan></tspan></text></g></g><g id="SvgjsG1119"><path id="SvgjsPath1120" d="M2000.2013661215697 138.87653797903153L1858.4986766030397 221.12355357370282" stroke="#323232" stroke-width="1.5" fill="none"></path></g><g id="SvgjsG1121"><path id="SvgjsPath1122" d="M1822.3902225197298 257.0925700580358L1726.3098202048795 380.90752149469824" stroke="#323232" stroke-width="1.5" fill="none"></path></g><g id="SvgjsG1123"><path id="SvgjsPath1124" d="M1893.2047266550492 257.16086659572676L1965.4953160695602 391.8392249570073" stroke="#323232" stroke-width="1.5" fill="none"></path></g><g id="SvgjsG1125" transform="translate(1555.6786128452845,173.5000457763672)"><path id="SvgjsPath1126" d="M 0 0L 144.286 0L 144.286 40L 0 40Z" stroke="none" fill="none"></path><g id="SvgjsG1127"><text id="SvgjsText1128" font-family="&quot;Microsoft YaHei&quot;, 微软雅黑, Arial" text-anchor="middle" font-size="30px" width="145px" fill="#323232" font-weight="400" align="middle" lineHeight="125%" anchor="middle" family="&quot;Microsoft YaHei&quot;, 微软雅黑, Arial" size="30px" weight="400" font-style="" opacity="1" y="-5.75" transform="rotate(0)"><tspan id="SvgjsTspan1129" dy="37.5" x="72.5"><tspan id="SvgjsTspan1130" style="">兄父变色</tspan></tspan></text></g></g><g id="SvgjsG1131"><path id="SvgjsPath1132" d="M1227.1500091552734 102.75004577636719L1227.1500091552734 45.71434020996094" stroke="#323232" stroke-width="1.5" fill="none"></path></g><g id="SvgjsG1133"><path id="SvgjsPath1134" d="M2035.8500213623047 102.75004577636719L2035.8500213623047 70.00003051757812L2035.8500213623047 70.00003051757812L2035.8500213623047 36.50001525878906" stroke="#323232" stroke-width="1.5" fill="none"></path></g><g id="SvgjsG1135" transform="translate(2495.300033569336,383.63640941273)"><path id="SvgjsPath1136" d="M 0 35C 0 -11.667 70 -11.667 70 35C 70 81.667 0 81.667 0 35Z" stroke="rgba(255,255,255,1)" stroke-width="1.5" fill-opacity="1" fill="#e60c0c"></path><g id="SvgjsG1137"><text id="SvgjsText1138" font-family="&quot;Microsoft YaHei&quot;, 微软雅黑, Arial" text-anchor="middle" font-size="30px" width="50px" fill="#ffffff" font-weight="400" align="middle" lineHeight="125%" anchor="middle" family="&quot;Microsoft YaHei&quot;, 微软雅黑, Arial" size="30px" weight="400" font-style="" opacity="1" y="9.25" transform="rotate(0)"><tspan id="SvgjsTspan1139" dy="37.5" x="35"><tspan id="SvgjsTspan1140" style="">18</tspan></tspan></text></g></g><g id="SvgjsG1141" transform="translate(2396.050033569336,221.5000457763672)"><path id="SvgjsPath1142" d="M 0 35C 0 -11.667 70 -11.667 70 35C 70 81.667 0 81.667 0 35Z" stroke="rgba(0,0,0,1)" stroke-width="1.5" fill-opacity="1" fill="#000000"></path><g id="SvgjsG1143"><text id="SvgjsText1144" font-family="&quot;Microsoft YaHei&quot;, 微软雅黑, Arial" text-anchor="middle" font-size="30px" width="50px" fill="#ffffff" font-weight="400" align="middle" lineHeight="125%" anchor="middle" family="&quot;Microsoft YaHei&quot;, 微软雅黑, Arial" size="30px" weight="400" font-style="" opacity="1" y="9.25" transform="rotate(0)"><tspan id="SvgjsTspan1145" dy="37.5" x="35"><tspan id="SvgjsTspan1146" style="">16</tspan></tspan></text></g></g><g id="SvgjsG1147" transform="translate(2291.550033569336,373.6364094127299)"><path id="SvgjsPath1148" d="M 0 35C 0 -11.667 70 -11.667 70 35C 70 81.667 0 81.667 0 35Z" stroke="rgba(0,0,0,1)" stroke-width="1.5" fill-opacity="1" fill="#000000"></path><g id="SvgjsG1149"><text id="SvgjsText1150" font-family="&quot;Microsoft YaHei&quot;, 微软雅黑, Arial" text-anchor="middle" font-size="30px" width="50px" fill="#ffffff" font-weight="400" align="middle" lineHeight="125%" anchor="middle" family="&quot;Microsoft YaHei&quot;, 微软雅黑, Arial" size="30px" weight="400" font-style="" opacity="1" y="9.25" transform="rotate(0)"><tspan id="SvgjsTspan1151" dy="37.5" x="35"><tspan id="SvgjsTspan1152" style="">9</tspan></tspan></text></g></g><g id="SvgjsG1153" transform="translate(2419.050033569336,517.6364094127294)"><path id="SvgjsPath1154" d="M 0 35C 0 -11.667 70 -11.667 70 35C 70 81.667 0 81.667 0 35Z" stroke="rgba(0,0,0,1)" stroke-width="1.5" fill-opacity="1" fill="#000000"></path><g id="SvgjsG1155"><text id="SvgjsText1156" font-family="&quot;Microsoft YaHei&quot;, 微软雅黑, Arial" text-anchor="middle" font-size="30px" width="50px" fill="#ffffff" font-weight="400" align="middle" lineHeight="125%" anchor="middle" family="&quot;Microsoft YaHei&quot;, 微软雅黑, Arial" size="30px" weight="400" font-style="" opacity="1" y="9.25" transform="rotate(0)"><tspan id="SvgjsTspan1157" dy="37.5" x="35"><tspan id="SvgjsTspan1158" style="">17</tspan></tspan></text></g></g><g id="SvgjsG1159"><path id="SvgjsPath1160" d="M2395.66733192751 257.1450569804124L2326.932735211162 372.9913982086847" stroke="#323232" stroke-width="1.5" fill="none"></path></g><g id="SvgjsG1161"><path id="SvgjsPath1162" d="M2495.0115720308745 419.3287171050376L2454.3384951077974 516.9441017204217" stroke="#323232" stroke-width="1.5" fill="none"></path></g><g id="SvgjsG1163"><path id="SvgjsPath1164" d="M2466.3883125335196 257.1694241016743L2529.9617546051522 382.967031087423" stroke="#323232" stroke-width="1.5" fill="none"></path></g><g id="SvgjsG1165"><path id="SvgjsPath1166" d="M2431.050033569336 220.7500457763672L2431.050033569336 139.13640941273016" stroke="#323232" stroke-width="1.5" fill="none"></path></g><g id="SvgjsG1167" transform="translate(2061.535733904157,268.535760062081)"><path id="SvgjsPath1168" d="M 0 0L 230.014 0L 230.014 40L 0 40Z" stroke="none" fill="none"></path><g id="SvgjsG1169"><text id="SvgjsText1170" font-family="&quot;Microsoft YaHei&quot;, 微软雅黑, Arial" text-anchor="middle" font-size="30px" width="231px" fill="#323232" font-weight="400" align="middle" lineHeight="125%" anchor="middle" family="&quot;Microsoft YaHei&quot;, 微软雅黑, Arial" size="30px" weight="400" font-style="" opacity="1" y="-5.75" transform="rotate(0)"><tspan id="SvgjsTspan1171" dy="37.5" x="115.5"><tspan id="SvgjsTspan1172" style="">“节点18”右旋</tspan></tspan></text></g></g><g id="SvgjsG1173"><path id="SvgjsPath1174" d="M1893.6000213623047 256.5000457763672L2144.4500274658203 256.5000457763672L2144.4500274658203 256.5000457763672L2395.300033569336 256.5000457763672" stroke-dasharray="1.5,2.25" stroke="#323232" stroke-width="1.5" fill="none"></path></g><g id="SvgjsG1175" transform="translate(2993.871462140765,383.6364094127298)"><path id="SvgjsPath1176" d="M 0 35C 0 -11.667 70 -11.667 70 35C 70 81.667 0 81.667 0 35Z" stroke="rgba(255,255,255,1)" stroke-width="1.5" fill-opacity="1" fill="#000000"></path><g id="SvgjsG1177"><text id="SvgjsText1178" font-family="&quot;Microsoft YaHei&quot;, 微软雅黑, Arial" text-anchor="middle" font-size="30px" width="50px" fill="#ffffff" font-weight="400" align="middle" lineHeight="125%" anchor="middle" family="&quot;Microsoft YaHei&quot;, 微软雅黑, Arial" size="30px" weight="400" font-style="" opacity="1" y="9.25" transform="rotate(0)"><tspan id="SvgjsTspan1179" dy="37.5" x="35"><tspan id="SvgjsTspan1180" style="">18</tspan></tspan></text></g></g><g id="SvgjsG1181" transform="translate(2894.621462140765,221.5000457763672)"><path id="SvgjsPath1182" d="M 0 35C 0 -11.667 70 -11.667 70 35C 70 81.667 0 81.667 0 35Z" stroke="rgba(0,0,0,1)" stroke-width="1.5" fill-opacity="1" fill="#000000"></path><g id="SvgjsG1183"><text id="SvgjsText1184" font-family="&quot;Microsoft YaHei&quot;, 微软雅黑, Arial" text-anchor="middle" font-size="30px" width="50px" fill="#ffffff" font-weight="400" align="middle" lineHeight="125%" anchor="middle" family="&quot;Microsoft YaHei&quot;, 微软雅黑, Arial" size="30px" weight="400" font-style="" opacity="1" y="9.25" transform="rotate(0)"><tspan id="SvgjsTspan1185" dy="37.5" x="35"><tspan id="SvgjsTspan1186" style="">16</tspan></tspan></text></g></g><g id="SvgjsG1187" transform="translate(2790.121462140765,373.6364094127297)"><path id="SvgjsPath1188" d="M 0 35C 0 -11.667 70 -11.667 70 35C 70 81.667 0 81.667 0 35Z" stroke="rgba(0,0,0,1)" stroke-width="1.5" fill-opacity="1" fill="#000000"></path><g id="SvgjsG1189"><text id="SvgjsText1190" font-family="&quot;Microsoft YaHei&quot;, 微软雅黑, Arial" text-anchor="middle" font-size="30px" width="50px" fill="#ffffff" font-weight="400" align="middle" lineHeight="125%" anchor="middle" family="&quot;Microsoft YaHei&quot;, 微软雅黑, Arial" size="30px" weight="400" font-style="" opacity="1" y="9.25" transform="rotate(0)"><tspan id="SvgjsTspan1191" dy="37.5" x="35"><tspan id="SvgjsTspan1192" style="">9</tspan></tspan></text></g></g><g id="SvgjsG1193" transform="translate(2917.621462140765,517.6364094127292)"><path id="SvgjsPath1194" d="M 0 35C 0 -11.667 70 -11.667 70 35C 70 81.667 0 81.667 0 35Z" stroke="rgba(255,255,255,1)" stroke-width="1.5" fill-opacity="1" fill="#e60c0c"></path><g id="SvgjsG1195"><text id="SvgjsText1196" font-family="&quot;Microsoft YaHei&quot;, 微软雅黑, Arial" text-anchor="middle" font-size="30px" width="50px" fill="#ffffff" font-weight="400" align="middle" lineHeight="125%" anchor="middle" family="&quot;Microsoft YaHei&quot;, 微软雅黑, Arial" size="30px" weight="400" font-style="" opacity="1" y="9.25" transform="rotate(0)"><tspan id="SvgjsTspan1197" dy="37.5" x="35"><tspan id="SvgjsTspan1198" style="">17</tspan></tspan></text></g></g><g id="SvgjsG1199"><path id="SvgjsPath1200" d="M2894.238760498939 257.1450569804124L2825.5041637825907 372.9913982086845" stroke="#323232" stroke-width="1.5" fill="none"></path></g><g id="SvgjsG1201"><path id="SvgjsPath1202" d="M2993.5830006023034 419.32871710503736L2952.9099236792263 516.9441017204215" stroke="#323232" stroke-width="1.5" fill="none"></path></g><g id="SvgjsG1203"><path id="SvgjsPath1204" d="M2964.9597411049485 257.1694241016743L3028.533183176581 382.96703108742275" stroke="#323232" stroke-width="1.5" fill="none"></path></g><g id="SvgjsG1205"><path id="SvgjsPath1206" d="M2929.621462140765 220.7500457763672L2929.621462140765 139.13640941273016" stroke="#323232" stroke-width="1.5" fill="none"></path></g><g id="SvgjsG1207" transform="translate(2589.4285692487447,272.7143140520366)"><path id="SvgjsPath1208" d="M 0 0L 167.143 0L 167.143 40L 0 40Z" stroke="none" fill="none"></path><g id="SvgjsG1209"><text id="SvgjsText1210" font-family="&quot;Microsoft YaHei&quot;, 微软雅黑, Arial" text-anchor="middle" font-size="30px" width="168px" fill="#323232" font-weight="400" align="middle" lineHeight="125%" anchor="middle" family="&quot;Microsoft YaHei&quot;, 微软雅黑, Arial" size="30px" weight="400" font-style="" opacity="1" y="-5.75" transform="rotate(0)"><tspan id="SvgjsTspan1211" dy="37.5" x="84"><tspan id="SvgjsTspan1212" style="">兄父变色</tspan></tspan></text></g></g><g id="SvgjsG1213" transform="translate(1500.6666819254558,200.00002543131512)"><path id="SvgjsPath1214" d="M 0 19.8L 238.833 19.8L 238.833 0L 268.833 30L 238.833 60L 238.833 40.2L 0 40.2L 0 19.8Z" stroke="rgba(33,41,48,1)" stroke-width="1.5" fill-opacity="1" fill="#ffffff"></path><g id="SvgjsG1215"><text id="SvgjsText1216" font-family="&quot;Microsoft YaHei&quot;, 微软雅黑, Arial" text-anchor="middle" font-size="13px" width="269px" fill="#323232" font-weight="400" align="middle" lineHeight="125%" anchor="middle" family="&quot;Microsoft YaHei&quot;, 微软雅黑, Arial" size="13px" weight="400" font-style="" opacity="1" y="19.375" transform="rotate(0)"></text></g></g><g id="SvgjsG1217" transform="translate(2070.8500213623047,200.00002543131512)"><path id="SvgjsPath1218" d="M 0 19.8L 181.386 19.8L 181.386 0L 211.386 30L 181.386 60L 181.386 40.2L 0 40.2L 0 19.8Z" stroke="rgba(33,41,48,1)" stroke-width="1.5" fill-opacity="1" fill="#ffffff"></path><g id="SvgjsG1219"><text id="SvgjsText1220" font-family="&quot;Microsoft YaHei&quot;, 微软雅黑, Arial" text-anchor="middle" font-size="13px" width="212px" fill="#323232" font-weight="400" align="middle" lineHeight="125%" anchor="middle" family="&quot;Microsoft YaHei&quot;, 微软雅黑, Arial" size="13px" weight="400" font-style="" opacity="1" y="19.375" transform="rotate(0)"></text></g></g><g id="SvgjsG1221" transform="translate(656.9999694824219,248.50005594889322)"><path id="SvgjsPath1222" d="M 0 19.8L 170 19.8L 170 0L 200 30L 170 60L 170 40.2L 0 40.2L 0 19.8Z" stroke="rgba(33,41,48,1)" stroke-width="1.5" fill-opacity="1" fill="#ffffff"></path><g id="SvgjsG1223"><text id="SvgjsText1224" font-family="&quot;Microsoft YaHei&quot;, 微软雅黑, Arial" text-anchor="middle" font-size="13px" width="200px" fill="#323232" font-weight="400" align="middle" lineHeight="125%" anchor="middle" family="&quot;Microsoft YaHei&quot;, 微软雅黑, Arial" size="13px" weight="400" font-style="" opacity="1" y="19.375" transform="rotate(0)"></text></g></g><g id="SvgjsG1225" transform="translate(626.6500091552734,204.50003560384116)"><path id="SvgjsPath1226" d="M 0 0L 222.5 0L 222.5 40L 0 40Z" stroke="none" fill="none"></path><g id="SvgjsG1227"><text id="SvgjsText1228" font-family="&quot;Microsoft YaHei&quot;, 微软雅黑, Arial" text-anchor="middle" font-size="30px" width="223px" fill="#323232" font-weight="400" align="middle" lineHeight="125%" anchor="middle" family="&quot;Microsoft YaHei&quot;, 微软雅黑, Arial" size="30px" weight="400" font-style="" opacity="1" y="-5.75" transform="rotate(0)"><tspan id="SvgjsTspan1229" dy="37.5" x="111.5"><tspan id="SvgjsTspan1230" style="">删除”节点20“</tspan></tspan></text></g></g><g id="SvgjsG1231" transform="translate(2595,313.6364094127297)"><path id="SvgjsPath1232" d="M 0 19.8L 145 19.8L 145 0L 175 30L 145 60L 145 40.2L 0 40.2L 0 19.8Z" stroke="rgba(33,41,48,1)" stroke-width="1.5" fill-opacity="1" fill="#ffffff"></path><g id="SvgjsG1233"><text id="SvgjsText1234" font-family="&quot;Microsoft YaHei&quot;, 微软雅黑, Arial" text-anchor="middle" font-size="13px" width="175px" fill="#323232" font-weight="400" align="middle" lineHeight="125%" anchor="middle" family="&quot;Microsoft YaHei&quot;, 微软雅黑, Arial" size="13px" weight="400" font-style="" opacity="1" y="19.375" transform="rotate(0)"></text></g></g><g id="SvgjsG1235"></g></svg>