<svg id="SvgjsSvg1184" width="2206.5166865757533" height="578.0000076293944" xmlns="http://www.w3.org/2000/svg" version="1.1" xmlns:xlink="http://www.w3.org/1999/xlink" xmlns:svgjs="http://svgjs.com/svgjs"><defs id="SvgjsDefs1185"><pattern patternUnits="userSpaceOnUse" id="pattern_mark_0" width="300" height="300"><text x="150" y="100" fill="rgba(229,229,229,0.8)" font-size="18" transform="rotate(-45, 150, 150)" style="dominant-baseline: middle; text-anchor: middle;"></text></pattern><pattern patternUnits="userSpaceOnUse" id="pattern_mark_1" width="300" height="300"><text x="150" y="200" fill="rgba(229,229,229,0.8)" font-size="18" transform="rotate(-45, 150, 150)" style="dominant-baseline: middle; text-anchor: middle;"></text></pattern></defs><rect id="svgbackgroundid" width="2206.5166865757533" height="578.0000076293944" fill="transparent"></rect><rect id="SvgjsRect1187" width="2206.5166865757533" height="578.0000076293944" fill="url(#pattern_mark_0)"></rect><rect id="SvgjsRect1188" width="2206.5166865757533" height="578.0000076293944" fill="url(#pattern_mark_1)"></rect><g id="SvgjsG1189" transform="translate(25,25)"><path id="SvgjsPath1190" d="M 0 4Q 0 0 4 0L 2152.517 0Q 2156.517 0 2156.517 4L 2156.517 524Q 2156.517 528 2152.517 528L 4 528Q 0 528 0 524Z" stroke="rgba(33,41,48,1)" stroke-width="1.5" fill-opacity="1" fill="#ffffff"></path><g id="SvgjsG1191"><text id="SvgjsText1192" font-family="&quot;Microsoft YaHei&quot;, 微软雅黑, Arial" text-anchor="middle" font-size="13px" width="2137px" fill="#323232" font-weight="400" align="middle" lineHeight="125%" anchor="middle" family="&quot;Microsoft YaHei&quot;, 微软雅黑, Arial" size="13px" weight="400" font-style="" opacity="1" y="253.375" transform="rotate(0)"></text></g></g><g id="SvgjsG1193" transform="translate(345.74286324637285,315.28572191510847)"><path id="SvgjsPath1194" d="M 0 4Q 0 0 4 0L 92 0Q 96 0 96 4L 96 98.5Q 96 102.5 92 102.5L 4 102.5Q 0 102.5 0 98.5Z" stroke-dasharray="2,3" stroke="rgba(70,105,234,1)" stroke-width="2" fill-opacity="1" fill="#ffffff"></path><g id="SvgjsG1195"><text id="SvgjsText1196" font-family="&quot;Microsoft YaHei&quot;, 微软雅黑, Arial" text-anchor="middle" font-size="13px" width="76px" fill="#323232" font-weight="400" align="middle" lineHeight="125%" anchor="middle" family="&quot;Microsoft YaHei&quot;, 微软雅黑, Arial" size="13px" weight="400" font-style="" opacity="1" y="40.625" transform="rotate(0)"></text></g></g><g id="SvgjsG1197" transform="translate(162.74286324637285,66.28572191510867)"><path id="SvgjsPath1198" d="M 0 35C 0 -11.667 70 -11.667 70 35C 70 81.667 0 81.667 0 35Z" stroke="rgba(255,255,255,1)" stroke-width="1.5" fill-opacity="1" fill="#000000"></path><g id="SvgjsG1199"><text id="SvgjsText1200" font-family="&quot;Microsoft YaHei&quot;, 微软雅黑, Arial" text-anchor="middle" font-size="30px" width="50px" fill="#ffffff" font-weight="400" align="middle" lineHeight="125%" anchor="middle" family="&quot;Microsoft YaHei&quot;, 微软雅黑, Arial" size="30px" weight="400" font-style="" opacity="1" y="9.25" transform="rotate(0)"><tspan id="SvgjsTspan1201" dy="37.5" x="35"><tspan id="SvgjsTspan1202" style="">10</tspan></tspan></text></g></g><g id="SvgjsG1203" transform="translate(47.74286324637285,177.2857219151087)"><path id="SvgjsPath1204" d="M 0 35C 0 -11.667 70 -11.667 70 35C 70 81.667 0 81.667 0 35Z" stroke="rgba(255,255,255,1)" stroke-width="1.5" fill-opacity="1" fill="#000000"></path><g id="SvgjsG1205"><text id="SvgjsText1206" font-family="&quot;Microsoft YaHei&quot;, 微软雅黑, Arial" text-anchor="middle" font-size="30px" width="50px" fill="#ffffff" font-weight="400" align="middle" lineHeight="125%" anchor="middle" family="&quot;Microsoft YaHei&quot;, 微软雅黑, Arial" size="30px" weight="400" font-style="" opacity="1" y="9.25" transform="rotate(0)"><tspan id="SvgjsTspan1207" dy="37.5" x="35"><tspan id="SvgjsTspan1208" style="">4</tspan></tspan></text></g></g><g id="SvgjsG1209" transform="translate(275.74286324637285,187.28572191510875)"><path id="SvgjsPath1210" d="M 0 35C 0 -11.667 70 -11.667 70 35C 70 81.667 0 81.667 0 35Z" stroke="rgba(255,255,255,1)" stroke-width="1.5" fill-opacity="1" fill="#e60c0c"></path><g id="SvgjsG1211"><text id="SvgjsText1212" font-family="&quot;Microsoft YaHei&quot;, 微软雅黑, Arial" text-anchor="middle" font-size="30px" width="50px" fill="#ffffff" font-weight="400" align="middle" lineHeight="125%" anchor="middle" family="&quot;Microsoft YaHei&quot;, 微软雅黑, Arial" size="30px" weight="400" font-style="" opacity="1" y="9.25" transform="rotate(0)"><tspan id="SvgjsTspan1213" dy="37.5" x="35"><tspan id="SvgjsTspan1214" style="">25</tspan></tspan></text></g></g><g id="SvgjsG1215" transform="translate(184.74286324637285,335.28572191510847)"><path id="SvgjsPath1216" d="M 0 35C 0 -11.667 70 -11.667 70 35C 70 81.667 0 81.667 0 35Z" stroke="rgba(255,255,255,1)" stroke-width="1.5" fill-opacity="1" fill="#000000"></path><g id="SvgjsG1217"><text id="SvgjsText1218" font-family="&quot;Microsoft YaHei&quot;, 微软雅黑, Arial" text-anchor="middle" font-size="30px" width="50px" fill="#ffffff" font-weight="400" align="middle" lineHeight="125%" anchor="middle" family="&quot;Microsoft YaHei&quot;, 微软雅黑, Arial" size="30px" weight="400" font-style="" opacity="1" y="9.25" transform="rotate(0)"><tspan id="SvgjsTspan1219" dy="37.5" x="35"><tspan id="SvgjsTspan1220" style="">17</tspan></tspan></text></g></g><g id="SvgjsG1221" transform="translate(361.74286324637274,335.28572191510847)"><path id="SvgjsPath1222" d="M 0 35C 0 -11.667 70 -11.667 70 35C 70 81.667 0 81.667 0 35Z" stroke="rgba(0,0,0,1)" stroke-width="1.5" fill-opacity="1" fill="#ffffff"></path><g id="SvgjsG1223"><text id="SvgjsText1224" font-family="&quot;Microsoft YaHei&quot;, 微软雅黑, Arial" text-anchor="middle" font-size="30px" width="50px" fill="#000000" font-weight="400" align="middle" lineHeight="125%" anchor="middle" family="&quot;Microsoft YaHei&quot;, 微软雅黑, Arial" size="30px" weight="400" font-style="" opacity="1" y="9.25" transform="rotate(0)"><tspan id="SvgjsTspan1225" dy="37.5" x="35"><tspan id="SvgjsTspan1226" style="">28</tspan></tspan></text></g></g><g id="SvgjsG1227"><path id="SvgjsPath1228" d="M275.4098339393539 222.95772748105787L220.07589255339178 334.61371634915946" stroke="#323232" stroke-width="1.5" fill="none"></path></g><g id="SvgjsG1229"><path id="SvgjsPath1230" d="M346.0513911908412 222.9693230469702L396.4343353019044 334.60212078324713" stroke="#323232" stroke-width="1.5" fill="none"></path></g><g id="SvgjsG1231"><path id="SvgjsPath1232" d="M162.1991136711771 101.80228401154469L83.28661282156861 176.76915981867268" stroke="#323232" stroke-width="1.5" fill="none"></path></g><g id="SvgjsG1233"><path id="SvgjsPath1234" d="M233.24672445023725 101.84126119116425L310.23900204250833 186.73018263905317" stroke="#323232" stroke-width="1.5" fill="none"></path></g><g id="SvgjsG1235" transform="translate(1036.742863246373,79)"><path id="SvgjsPath1236" d="M 0 35C 0 -11.667 70 -11.667 70 35C 70 81.667 0 81.667 0 35Z" stroke="rgba(255,255,255,1)" stroke-width="1.5" fill-opacity="1" fill="#000000"></path><g id="SvgjsG1237"><text id="SvgjsText1238" font-family="&quot;Microsoft YaHei&quot;, 微软雅黑, Arial" text-anchor="middle" font-size="30px" width="50px" fill="#ffffff" font-weight="400" align="middle" lineHeight="125%" anchor="middle" family="&quot;Microsoft YaHei&quot;, 微软雅黑, Arial" size="30px" weight="400" font-style="" opacity="1" y="9.25" transform="rotate(0)"><tspan id="SvgjsTspan1239" dy="37.5" x="35"><tspan id="SvgjsTspan1240" style="">10</tspan></tspan></text></g></g><g id="SvgjsG1241" transform="translate(921.742863246373,190.00000000000006)"><path id="SvgjsPath1242" d="M 0 35C 0 -11.667 70 -11.667 70 35C 70 81.667 0 81.667 0 35Z" stroke="rgba(255,255,255,1)" stroke-width="1.5" fill-opacity="1" fill="#000000"></path><g id="SvgjsG1243"><text id="SvgjsText1244" font-family="&quot;Microsoft YaHei&quot;, 微软雅黑, Arial" text-anchor="middle" font-size="30px" width="50px" fill="#ffffff" font-weight="400" align="middle" lineHeight="125%" anchor="middle" family="&quot;Microsoft YaHei&quot;, 微软雅黑, Arial" size="30px" weight="400" font-style="" opacity="1" y="9.25" transform="rotate(0)"><tspan id="SvgjsTspan1245" dy="37.5" x="35"><tspan id="SvgjsTspan1246" style="">4</tspan></tspan></text></g></g><g id="SvgjsG1247" transform="translate(1149.742863246373,199.99999999999994)"><path id="SvgjsPath1248" d="M 0 35C 0 -11.667 70 -11.667 70 35C 70 81.667 0 81.667 0 35Z" stroke="rgba(255,255,255,1)" stroke-width="1.5" fill-opacity="1" fill="#e60c0c"></path><g id="SvgjsG1249"><text id="SvgjsText1250" font-family="&quot;Microsoft YaHei&quot;, 微软雅黑, Arial" text-anchor="middle" font-size="30px" width="50px" fill="#ffffff" font-weight="400" align="middle" lineHeight="125%" anchor="middle" family="&quot;Microsoft YaHei&quot;, 微软雅黑, Arial" size="30px" weight="400" font-style="" opacity="1" y="9.25" transform="rotate(0)"><tspan id="SvgjsTspan1251" dy="37.5" x="35"><tspan id="SvgjsTspan1252" style="">25</tspan></tspan></text></g></g><g id="SvgjsG1253" transform="translate(1058.742863246373,347.99999999999994)"><path id="SvgjsPath1254" d="M 0 35C 0 -11.667 70 -11.667 70 35C 70 81.667 0 81.667 0 35Z" stroke="rgba(255,255,255,1)" stroke-width="1.5" fill-opacity="1" fill="#000000"></path><g id="SvgjsG1255"><text id="SvgjsText1256" font-family="&quot;Microsoft YaHei&quot;, 微软雅黑, Arial" text-anchor="middle" font-size="30px" width="50px" fill="#ffffff" font-weight="400" align="middle" lineHeight="125%" anchor="middle" family="&quot;Microsoft YaHei&quot;, 微软雅黑, Arial" size="30px" weight="400" font-style="" opacity="1" y="9.25" transform="rotate(0)"><tspan id="SvgjsTspan1257" dy="37.5" x="35"><tspan id="SvgjsTspan1258" style="">17</tspan></tspan></text></g></g><g id="SvgjsG1259"><path id="SvgjsPath1260" d="M1149.409833939354 235.67200556594912L1094.075892553392 347.32799443405094" stroke="#323232" stroke-width="1.5" fill="none"></path></g><g id="SvgjsG1261"><path id="SvgjsPath1262" d="M1036.1991136711772 114.51656209643603L957.2866128215687 189.48343790356404" stroke="#323232" stroke-width="1.5" fill="none"></path></g><g id="SvgjsG1263"><path id="SvgjsPath1264" d="M1107.2467244502373 114.55553927605558L1184.2390020425087 199.44446072394436" stroke="#323232" stroke-width="1.5" fill="none"></path></g><g id="SvgjsG1265" transform="translate(453.2000045776367,191.9999999999999)"><path id="SvgjsPath1266" d="M 0 0L 424.667 0L 424.667 113L 0 113Z" stroke="none" fill="none"></path><g id="SvgjsG1267"><text id="SvgjsText1268" font-family="&quot;Microsoft YaHei&quot;, 微软雅黑, Arial" text-anchor="middle" font-size="30px" width="425px" fill="#323232" font-weight="400" align="middle" lineHeight="125%" anchor="middle" family="&quot;Microsoft YaHei&quot;, 微软雅黑, Arial" size="30px" weight="400" font-style="" opacity="1" y="-6.75" transform="rotate(0)"><tspan id="SvgjsTspan1269" dy="37.5" x="212.5"><tspan id="SvgjsTspan1270" style="">删除“节点28”后，           </tspan></tspan><tspan id="SvgjsTspan1271" dy="37.5" x="212.5"><tspan id="SvgjsTspan1272" style="">经过“节点25”的右子树的 </tspan></tspan><tspan id="SvgjsTspan1273" dy="37.5" x="212.5"><tspan id="SvgjsTspan1274" style="">路径少一个黑节点                </tspan></tspan></text></g></g><g id="SvgjsG1275" transform="translate(1518.4095299130404,87.33333333333334)"><path id="SvgjsPath1276" d="M 0 35C 0 -11.667 70 -11.667 70 35C 70 81.667 0 81.667 0 35Z" stroke="rgba(255,255,255,1)" stroke-width="1.5" fill-opacity="1" fill="#000000"></path><g id="SvgjsG1277"><text id="SvgjsText1278" font-family="&quot;Microsoft YaHei&quot;, 微软雅黑, Arial" text-anchor="middle" font-size="30px" width="50px" fill="#ffffff" font-weight="400" align="middle" lineHeight="125%" anchor="middle" family="&quot;Microsoft YaHei&quot;, 微软雅黑, Arial" size="30px" weight="400" font-style="" opacity="1" y="9.25" transform="rotate(0)"><tspan id="SvgjsTspan1279" dy="37.5" x="35"><tspan id="SvgjsTspan1280" style="">10</tspan></tspan></text></g></g><g id="SvgjsG1281" transform="translate(1403.40952991304,198.3333333333334)"><path id="SvgjsPath1282" d="M 0 35C 0 -11.667 70 -11.667 70 35C 70 81.667 0 81.667 0 35Z" stroke="rgba(255,255,255,1)" stroke-width="1.5" fill-opacity="1" fill="#000000"></path><g id="SvgjsG1283"><text id="SvgjsText1284" font-family="&quot;Microsoft YaHei&quot;, 微软雅黑, Arial" text-anchor="middle" font-size="30px" width="50px" fill="#ffffff" font-weight="400" align="middle" lineHeight="125%" anchor="middle" family="&quot;Microsoft YaHei&quot;, 微软雅黑, Arial" size="30px" weight="400" font-style="" opacity="1" y="9.25" transform="rotate(0)"><tspan id="SvgjsTspan1285" dy="37.5" x="35"><tspan id="SvgjsTspan1286" style="">4</tspan></tspan></text></g></g><g id="SvgjsG1287" transform="translate(1631.4095299130395,208.3333333333333)"><path id="SvgjsPath1288" d="M 0 35C 0 -11.667 70 -11.667 70 35C 70 81.667 0 81.667 0 35Z" stroke="rgba(255,255,255,1)" stroke-width="1.5" fill-opacity="1" fill="#e60c0c"></path><g id="SvgjsG1289"><text id="SvgjsText1290" font-family="&quot;Microsoft YaHei&quot;, 微软雅黑, Arial" text-anchor="middle" font-size="30px" width="50px" fill="#ffffff" font-weight="400" align="middle" lineHeight="125%" anchor="middle" family="&quot;Microsoft YaHei&quot;, 微软雅黑, Arial" size="30px" weight="400" font-style="" opacity="1" y="9.25" transform="rotate(0)"><tspan id="SvgjsTspan1291" dy="37.5" x="35"><tspan id="SvgjsTspan1292" style="">25</tspan></tspan></text></g></g><g id="SvgjsG1293" transform="translate(1540.4095299130404,356.33333333333286)"><path id="SvgjsPath1294" d="M 0 35C 0 -11.667 70 -11.667 70 35C 70 81.667 0 81.667 0 35Z" stroke="rgba(255,255,255,1)" stroke-width="1.5" fill-opacity="1" fill="#e60c0c"></path><g id="SvgjsG1295"><text id="SvgjsText1296" font-family="&quot;Microsoft YaHei&quot;, 微软雅黑, Arial" text-anchor="middle" font-size="30px" width="50px" fill="#ffffff" font-weight="400" align="middle" lineHeight="125%" anchor="middle" family="&quot;Microsoft YaHei&quot;, 微软雅黑, Arial" size="30px" weight="400" font-style="" opacity="1" y="9.25" transform="rotate(0)"><tspan id="SvgjsTspan1297" dy="37.5" x="35"><tspan id="SvgjsTspan1298" style="">17</tspan></tspan></text></g></g><g id="SvgjsG1299"><path id="SvgjsPath1300" d="M1631.0765006060205 244.00533889928246L1575.7425592200593 355.66132776738385" stroke="#323232" stroke-width="1.5" fill="none"></path></g><g id="SvgjsG1301"><path id="SvgjsPath1302" d="M1517.8657803378446 122.84989542976939L1438.9532794882357 197.81677123689738" stroke="#323232" stroke-width="1.5" fill="none"></path></g><g id="SvgjsG1303"><path id="SvgjsPath1304" d="M1588.9133911169047 122.88887260938895L1665.9056687091752 207.7777940572777" stroke="#323232" stroke-width="1.5" fill="none"></path></g><g id="SvgjsG1305" transform="translate(1244.2000020345054,205.00000000000006)"><path id="SvgjsPath1306" d="M 0 0L 100 0L 100 40L 0 40Z" stroke="none" fill="none"></path><g id="SvgjsG1307"><text id="SvgjsText1308" font-family="&quot;Microsoft YaHei&quot;, 微软雅黑, Arial" text-anchor="middle" font-size="30px" width="100px" fill="#323232" font-weight="400" align="middle" lineHeight="125%" anchor="middle" family="&quot;Microsoft YaHei&quot;, 微软雅黑, Arial" size="30px" weight="400" font-style="" opacity="1" y="-5.75" transform="rotate(0)"><tspan id="SvgjsTspan1309" dy="37.5" x="50"><tspan id="SvgjsTspan1310" style="">变色</tspan></tspan></text></g></g><g id="SvgjsG1311" transform="translate(1244.2000020345054,234.6666742960611)"><path id="SvgjsPath1312" d="M 0 19.8L 110 19.8L 110 0L 140 30L 110 60L 110 40.2L 0 40.2L 0 19.8Z" stroke="rgba(33,41,48,1)" stroke-width="1.5" fill-opacity="1" fill="#ffffff"></path><g id="SvgjsG1313"><text id="SvgjsText1314" font-family="&quot;Microsoft YaHei&quot;, 微软雅黑, Arial" text-anchor="middle" font-size="13px" width="140px" fill="#323232" font-weight="400" align="middle" lineHeight="125%" anchor="middle" family="&quot;Microsoft YaHei&quot;, 微软雅黑, Arial" size="13px" weight="400" font-style="" opacity="1" y="19.375" transform="rotate(0)"></text></g></g><g id="SvgjsG1315" transform="translate(1974.4095299130395,87.33333333333329)"><path id="SvgjsPath1316" d="M 0 35C 0 -11.667 70 -11.667 70 35C 70 81.667 0 81.667 0 35Z" stroke="rgba(255,255,255,1)" stroke-width="1.5" fill-opacity="1" fill="#000000"></path><g id="SvgjsG1317"><text id="SvgjsText1318" font-family="&quot;Microsoft YaHei&quot;, 微软雅黑, Arial" text-anchor="middle" font-size="30px" width="50px" fill="#ffffff" font-weight="400" align="middle" lineHeight="125%" anchor="middle" family="&quot;Microsoft YaHei&quot;, 微软雅黑, Arial" size="30px" weight="400" font-style="" opacity="1" y="9.25" transform="rotate(0)"><tspan id="SvgjsTspan1319" dy="37.5" x="35"><tspan id="SvgjsTspan1320" style="">10</tspan></tspan></text></g></g><g id="SvgjsG1321" transform="translate(1859.409529913039,198.33333333333334)"><path id="SvgjsPath1322" d="M 0 35C 0 -11.667 70 -11.667 70 35C 70 81.667 0 81.667 0 35Z" stroke="rgba(255,255,255,1)" stroke-width="1.5" fill-opacity="1" fill="#000000"></path><g id="SvgjsG1323"><text id="SvgjsText1324" font-family="&quot;Microsoft YaHei&quot;, 微软雅黑, Arial" text-anchor="middle" font-size="30px" width="50px" fill="#ffffff" font-weight="400" align="middle" lineHeight="125%" anchor="middle" family="&quot;Microsoft YaHei&quot;, 微软雅黑, Arial" size="30px" weight="400" font-style="" opacity="1" y="9.25" transform="rotate(0)"><tspan id="SvgjsTspan1325" dy="37.5" x="35"><tspan id="SvgjsTspan1326" style="">4</tspan></tspan></text></g></g><g id="SvgjsG1327" transform="translate(2087.4095299130386,208.33333333333323)"><path id="SvgjsPath1328" d="M 0 35C 0 -11.667 70 -11.667 70 35C 70 81.667 0 81.667 0 35Z" stroke="rgba(255,255,255,1)" stroke-width="1.5" fill-opacity="1" fill="#000000"></path><g id="SvgjsG1329"><text id="SvgjsText1330" font-family="&quot;Microsoft YaHei&quot;, 微软雅黑, Arial" text-anchor="middle" font-size="30px" width="50px" fill="#ffffff" font-weight="400" align="middle" lineHeight="125%" anchor="middle" family="&quot;Microsoft YaHei&quot;, 微软雅黑, Arial" size="30px" weight="400" font-style="" opacity="1" y="9.25" transform="rotate(0)"><tspan id="SvgjsTspan1331" dy="37.5" x="35"><tspan id="SvgjsTspan1332" style="">25</tspan></tspan></text></g></g><g id="SvgjsG1333" transform="translate(1996.4095299130395,356.3333333333328)"><path id="SvgjsPath1334" d="M 0 35C 0 -11.667 70 -11.667 70 35C 70 81.667 0 81.667 0 35Z" stroke="rgba(255,255,255,1)" stroke-width="1.5" fill-opacity="1" fill="#e60c0c"></path><g id="SvgjsG1335"><text id="SvgjsText1336" font-family="&quot;Microsoft YaHei&quot;, 微软雅黑, Arial" text-anchor="middle" font-size="30px" width="50px" fill="#ffffff" font-weight="400" align="middle" lineHeight="125%" anchor="middle" family="&quot;Microsoft YaHei&quot;, 微软雅黑, Arial" size="30px" weight="400" font-style="" opacity="1" y="9.25" transform="rotate(0)"><tspan id="SvgjsTspan1337" dy="37.5" x="35"><tspan id="SvgjsTspan1338" style="">17</tspan></tspan></text></g></g><g id="SvgjsG1339"><path id="SvgjsPath1340" d="M2087.0765006060196 244.0053388992824L2031.7425592200584 355.6613277673838" stroke="#323232" stroke-width="1.5" fill="none"></path></g><g id="SvgjsG1341"><path id="SvgjsPath1342" d="M1973.8657803378437 122.84989542976933L1894.9532794882348 197.81677123689732" stroke="#323232" stroke-width="1.5" fill="none"></path></g><g id="SvgjsG1343"><path id="SvgjsPath1344" d="M2044.9133911169038 122.8888726093889L2121.9056687091743 207.77779405727765" stroke="#323232" stroke-width="1.5" fill="none"></path></g><g id="SvgjsG1345" transform="translate(1711.7000020345054,138.33333333333331)"><path id="SvgjsPath1346" d="M 0 19.8L 110 19.8L 110 0L 140 30L 110 60L 110 40.2L 0 40.2L 0 19.8Z" stroke="rgba(33,41,48,1)" stroke-width="1.5" fill-opacity="1" fill="#ffffff"></path><g id="SvgjsG1347"><text id="SvgjsText1348" font-family="&quot;Microsoft YaHei&quot;, 微软雅黑, Arial" text-anchor="middle" font-size="13px" width="140px" fill="#323232" font-weight="400" align="middle" lineHeight="125%" anchor="middle" family="&quot;Microsoft YaHei&quot;, 微软雅黑, Arial" size="13px" weight="400" font-style="" opacity="1" y="19.375" transform="rotate(0)"></text></g></g><g id="SvgjsG1349" transform="translate(1338.48575265067,430.64285605294356)"><path id="SvgjsPath1350" d="M 0 0L 468.571 0L 468.571 113L 0 113Z" stroke="none" fill="none"></path><g id="SvgjsG1351"><text id="SvgjsText1352" font-family="&quot;Microsoft YaHei&quot;, 微软雅黑, Arial" text-anchor="middle" font-size="30px" width="469px" fill="#323232" font-weight="400" align="middle" lineHeight="125%" anchor="middle" family="&quot;Microsoft YaHei&quot;, 微软雅黑, Arial" size="30px" weight="400" font-style="" opacity="1" y="-6.75" transform="rotate(0)"><tspan id="SvgjsTspan1353" dy="37.5" x="234.5"><tspan id="SvgjsTspan1354" style="">兄弟节点变红，                        </tspan></tspan><tspan id="SvgjsTspan1355" dy="37.5" x="234.5"><tspan id="SvgjsTspan1356" style="">这样经过“节点25”的路径中的</tspan></tspan><tspan id="SvgjsTspan1357" dy="37.5" x="234.5"><tspan id="SvgjsTspan1358" style="">黑节点数量就相同了                  </tspan></tspan></text></g></g><g id="SvgjsG1359" transform="translate(1881.3023732503252,444.2857131958007)"><path id="SvgjsPath1360" d="M 0 0L 300.214 0L 300.214 40L 0 40Z" stroke="none" fill="none"></path><g id="SvgjsG1361"><text id="SvgjsText1362" font-family="&quot;Microsoft YaHei&quot;, 微软雅黑, Arial" text-anchor="middle" font-size="30px" width="301px" fill="#323232" font-weight="400" align="middle" lineHeight="125%" anchor="middle" family="&quot;Microsoft YaHei&quot;, 微软雅黑, Arial" size="30px" weight="400" font-style="" opacity="1" y="-5.75" transform="rotate(0)"><tspan id="SvgjsTspan1363" dy="37.5" x="150.5"><tspan id="SvgjsTspan1364" style="">解决连续红色节点</tspan></tspan></text></g></g><g id="SvgjsG1365"></g></svg>