<svg id="kity_svg_6" xmlns="http://www.w3.org/2000/svg" xmlns:xlink="http://www.w3.org/1999/xlink" version="1.1" width="1721" height="493" style="background: rgb(251, 251, 251); visibility: visible;" viewBox="0 0 1721 493"><defs id="kity_defs_7"><linearGradient id="kity_linearGradient_17" x1="0" y1="0" x2="0" y2="1"><stop id="kity_stop_18" offset="0" stop-color="rgb(255, 255, 255)"></stop><stop id="kity_stop_19" offset="1" stop-color="rgb(204, 204, 204)"></stop></linearGradient><marker id="kity_marker_2" orient="auto" refX="6" refY="0" viewBox="-7 -7 14 14" markerWidth="7" markerHeight="7" markerUnits="userSpaceOnUse"><path id="kity_path_3" fill="rgb(115, 191, 118)" stroke="none" d="M6,0A6,6,0,1,1,-6,0A6,6,0,1,1,6,0"></path></marker></defs><g id="kity_g_8"><g id="minder1" text-rendering="optimize-speed"><g id="minder_connect_group1"><path id="kity_path_31" fill="none" stroke="rgb(115, 191, 118)" stroke-width="1" d="M119,215.5A216.5,177,0,0,1,335.5,38.5"></path><path id="kity_path_39" fill="none" stroke="rgb(115, 191, 118)" stroke-width="1" d="M119,215.5A216.5,70,0,0,1,335.5,145.5"></path><path id="kity_path_47" fill="none" stroke="rgb(115, 191, 118)" stroke-width="1" d="M119,215.5A216.5,37,0,0,0,335.5,252.5"></path><path id="kity_path_55" fill="none" stroke="rgb(115, 191, 118)" stroke-width="1" d="M646.5,145.5C666.5,145.5,666.5,113.5,686.5,113.5"></path><path id="kity_path_63" fill="none" stroke="rgb(115, 191, 118)" stroke-width="1" d="M646.5,145.5C666.5,145.5,666.5,177.5,686.5,177.5"></path><path id="kity_path_71" fill="none" stroke="rgb(115, 191, 118)" stroke-width="1" d="M119,215.5A216.5,160,0,0,0,335.5,375.5"></path><path id="kity_path_89" fill="none" stroke="rgb(115, 191, 118)" stroke-width="1" d="M670.5,375.5C718,375.5,718,332.5,765.5,332.5"></path><path id="kity_path_97" fill="none" stroke="rgb(115, 191, 118)" stroke-width="1" d="M670.5,375.5C717.5,375.5,717.5,424.5,764.5,424.5"></path><path id="kity_path_105" fill="none" stroke="rgb(115, 191, 118)" stroke-width="1" d="M1000.5,424.5C1020.5,424.5,1020.5,392.5,1040.5,392.5"></path><path id="kity_path_113" fill="none" stroke="rgb(115, 191, 118)" stroke-width="1" d="M1000.5,424.5C1020.5,424.5,1020.5,456.5,1040.5,456.5"></path><path id="kity_path_121" fill="none" stroke="rgb(115, 191, 118)" stroke-width="1" d="M1137.5,332.5C1157.5,332.5,1157.5,332.5,1177.5,332.5"></path><path id="kity_path_129" fill="none" stroke="rgb(115, 191, 118)" stroke-width="1" d="M1300.5,392.5C1320.5,392.5,1320.5,392.5,1340.5,392.5"></path><path id="kity_path_137" fill="none" stroke="rgb(115, 191, 118)" stroke-width="1" d="M1300.5,456.5C1320.5,456.5,1320.5,456.5,1340.5,456.5"></path><path id="kity_path_145" fill="none" stroke="rgb(115, 191, 118)" stroke-width="1" d="M849.5,113.5C869.5,113.5,869.5,113.5,889.5,113.5"></path><path id="kity_path_153" fill="none" stroke="rgb(115, 191, 118)" stroke-width="1" d="M849.5,177.5C869.5,177.5,869.5,177.5,889.5,177.5"></path></g><g id="minder_node1"><path id="node_outline1" fill="rgb(115, 191, 118)" stroke="rgb(115, 191, 118)" d="M25.5,191.5h187a5,5,0,0,1,5,5v38a5,5,0,0,1,-5,5h-187a5,5,0,0,1,-5,-5v-38a5,5,0,0,1,5,-5z" stroke-width="3"></path><g id="node_text1" fill="white"><text id="kity_text_22" text-rendering="inherit" font-size="24" dy=".8em" y="203.5" font-family="楷体,楷体_GB2312,SimKai" x="44.5">删除node节点</text></g></g><g id="kity_g_12" display="none"><path id="kity_path_13" fill="none" stroke="none" d="M44.5,215.5h0v0h0z"></path></g><g id="kity_g_14" display="none"><path id="kity_path_15" fill="none" stroke="none" d="M44.5,215.5h0v0h0z"></path><path id="kity_path_16" fill="none" stroke="none"></path></g><g id="minder_node2"><g id="node_expander1" style="cursor: pointer;" display="none"><path id="kity_path_36" fill="white" stroke="gray" d="M336.5,38.5A6,6,0,1,1,324.5,38.5A6,6,0,1,1,336.5,38.5"></path><path id="kity_path_37" fill="none" stroke="gray"></path></g><path id="node_outline2" fill="rgb(238, 246, 238)" stroke="rgb(115, 191, 118)" d="M340.5,20.5h327a3,3,0,0,1,3,3v30a3,3,0,0,1,-3,3h-327a3,3,0,0,1,-3,-3v-30a3,3,0,0,1,3,-3z" stroke-width="1"></path><g id="node_text2" fill="black"><text id="kity_text_33" text-rendering="inherit" font-size="24" dy=".8em" y="26.5" font-family="楷体,楷体_GB2312,SimKai" x="357.5">Case1&#xa0; —&#xa0; node只有右孩子</text></g></g><g id="minder_node3"><g id="node_expander2" style="cursor: pointer;"><path id="kity_path_44" fill="white" stroke="gray" d="M336.5,145.5A6,6,0,1,1,324.5,145.5A6,6,0,1,1,336.5,145.5"></path><path id="kity_path_45" fill="none" stroke="gray" d="M326,145.5L335,145.5"></path></g><path id="node_outline3" fill="rgb(238, 246, 238)" stroke="rgb(115, 191, 118)" d="M340.5,127.5h303a3,3,0,0,1,3,3v30a3,3,0,0,1,-3,3h-303a3,3,0,0,1,-3,-3v-30a3,3,0,0,1,3,-3z" stroke-width="1"></path><g id="node_text3" fill="black"><text id="kity_text_41" text-rendering="inherit" font-size="24" dy=".8em" y="133.5" font-family="楷体,楷体_GB2312,SimKai" x="357.5">Case2&#xa0; —&#xa0; node没有孩子</text></g></g><g id="minder_node4"><g id="node_expander3" style="cursor: pointer;" display="none"><path id="kity_path_52" fill="white" stroke="gray" d="M336.5,252.5A6,6,0,1,1,324.5,252.5A6,6,0,1,1,336.5,252.5"></path><path id="kity_path_53" fill="none" stroke="gray"></path></g><path id="node_outline4" fill="rgb(238, 246, 238)" stroke="rgb(115, 191, 118)" d="M340.5,234.5h327a3,3,0,0,1,3,3v30a3,3,0,0,1,-3,3h-327a3,3,0,0,1,-3,-3v-30a3,3,0,0,1,3,-3z" stroke-width="1"></path><g id="node_text4" fill="black"><text id="kity_text_49" text-rendering="inherit" font-size="24" dy=".8em" y="240.5" font-family="楷体,楷体_GB2312,SimKai" x="357.5">Case3&#xa0; —&#xa0; node只有左孩子</text></g></g><g id="minder_node5"><g id="node_expander4" style="cursor: pointer;"><path id="kity_path_60" fill="white" stroke="gray" d="M686.5,113.5A6,6,0,1,1,674.5,113.5A6,6,0,1,1,686.5,113.5"></path><path id="kity_path_61" fill="none" stroke="gray" d="M676,113.5L685,113.5"></path></g><path id="node_outline5" fill="none" stroke="none" d="M691.5,96.5h153a5,5,0,0,1,5,5v24a5,5,0,0,1,-5,5h-153a5,5,0,0,1,-5,-5v-24a5,5,0,0,1,5,-5z" stroke-width="3"></path><g id="node_text5" fill="black"><text id="kity_text_57" text-rendering="inherit" font-size="24" dy=".8em" y="101.5" font-family="楷体,楷体_GB2312,SimKai" x="696.5">1. node是红色</text></g></g><g id="minder_node6"><g id="node_expander5" style="cursor: pointer;"><path id="kity_path_68" fill="white" stroke="gray" d="M686.5,177.5A6,6,0,1,1,674.5,177.5A6,6,0,1,1,686.5,177.5"></path><path id="kity_path_69" fill="none" stroke="gray" d="M676,177.5L685,177.5"></path></g><path id="node_outline6" fill="none" stroke="none" d="M691.5,160.5h153a5,5,0,0,1,5,5v24a5,5,0,0,1,-5,5h-153a5,5,0,0,1,-5,-5v-24a5,5,0,0,1,5,-5z" stroke-width="3"></path><g id="node_text6" fill="black"><text id="kity_text_65" text-rendering="inherit" font-size="24" dy=".8em" y="165.5" font-family="楷体,楷体_GB2312,SimKai" x="696.5">2. node是黑色</text></g></g><g id="minder_node7"><g id="node_expander6" style="cursor: pointer;"><path id="kity_path_76" fill="white" stroke="gray" d="M336.5,375.5A6,6,0,1,1,324.5,375.5A6,6,0,1,1,336.5,375.5"></path><path id="kity_path_77" fill="none" stroke="gray" d="M326,375.5L335,375.5"></path></g><path id="node_outline7" fill="rgb(238, 246, 238)" stroke="rgb(115, 191, 118)" d="M340.5,339.5h327a3,3,0,0,1,3,3v66a3,3,0,0,1,-3,3h-327a3,3,0,0,1,-3,-3v-66a3,3,0,0,1,3,-3z" stroke-width="1"></path><g id="node_text7" fill="black"><text id="kity_text_73" text-rendering="inherit" font-size="24" dy=".8em" y="345.5" font-family="楷体,楷体_GB2312,SimKai" x="357.5">Case4&#xa0; —&#xa0; node有左右孩子</text><text id="kity_text_87" text-rendering="inherit" font-size="24" dy=".8em" y="381.5" font-family="楷体,楷体_GB2312,SimKai" x="357.5">（使用后继节点替代node）</text></g></g><g id="minder_node9" opacity="1"><g id="node_expander8" style="cursor: pointer;"><path id="kity_path_94" fill="white" stroke="gray" d="M765.5,332.5A6,6,0,1,1,753.5,332.5A6,6,0,1,1,765.5,332.5"></path><path id="kity_path_95" fill="none" stroke="gray" d="M755,332.5L764,332.5"></path></g><path id="node_outline9" fill="none" stroke="none" d="M770.5,315.5h362a5,5,0,0,1,5,5v24a5,5,0,0,1,-5,5h-362a5,5,0,0,1,-5,-5v-24a5,5,0,0,1,5,-5z" stroke-width="3"></path><g id="node_text9" fill="black"><text id="kity_text_91" text-rendering="inherit" font-size="24" dy=".8em" y="320.5" font-family="楷体,楷体_GB2312,SimKai" x="775.5">1. 后继节点有右孩子(必定是黑色)</text></g></g><g id="minder_node10" opacity="1"><g id="node_expander9" style="cursor: pointer;"><path id="kity_path_102" fill="white" stroke="gray" d="M764.5,424.5A6,6,0,1,1,752.5,424.5A6,6,0,1,1,764.5,424.5"></path><path id="kity_path_103" fill="none" stroke="gray" d="M754,424.5L763,424.5"></path></g><path id="node_outline10" fill="none" stroke="none" d="M769.5,407.5h226a5,5,0,0,1,5,5v24a5,5,0,0,1,-5,5h-226a5,5,0,0,1,-5,-5v-24a5,5,0,0,1,5,-5z" stroke-width="3"></path><g id="node_text10" fill="black"><text id="kity_text_99" text-rendering="inherit" font-size="24" dy=".8em" y="412.5" font-family="楷体,楷体_GB2312,SimKai" x="774.5">2. 后继节点没有孩子</text></g></g><g id="minder_node11"><g id="node_expander10" style="cursor: pointer;"><path id="kity_path_110" fill="white" stroke="gray" d="M1040.5,392.5A6,6,0,1,1,1028.5,392.5A6,6,0,1,1,1040.5,392.5"></path><path id="kity_path_111" fill="none" stroke="gray" d="M1030,392.5L1039,392.5"></path></g><path id="node_outline11" fill="none" stroke="none" d="M1045.5,375.5h250a5,5,0,0,1,5,5v24a5,5,0,0,1,-5,5h-250a5,5,0,0,1,-5,-5v-24a5,5,0,0,1,5,-5z" stroke-width="3"></path><g id="node_text11" fill="black"><text id="kity_text_107" text-rendering="inherit" font-size="24" dy=".8em" y="380.5" font-family="楷体,楷体_GB2312,SimKai" x="1050.5">1. 这个后继节点是红色</text></g></g><g id="minder_node12"><g id="node_expander11" style="cursor: pointer;"><path id="kity_path_118" fill="white" stroke="gray" d="M1040.5,456.5A6,6,0,1,1,1028.5,456.5A6,6,0,1,1,1040.5,456.5"></path><path id="kity_path_119" fill="none" stroke="gray" d="M1030,456.5L1039,456.5"></path></g><path id="node_outline12" fill="none" stroke="none" d="M1045.5,439.5h250a5,5,0,0,1,5,5v24a5,5,0,0,1,-5,5h-250a5,5,0,0,1,-5,-5v-24a5,5,0,0,1,5,-5z" stroke-width="3"></path><g id="node_text12" fill="black"><text id="kity_text_115" text-rendering="inherit" font-size="24" dy=".8em" y="444.5" font-family="楷体,楷体_GB2312,SimKai" x="1050.5">2. 这个后继节点是黑色</text></g></g><g id="minder_node13"><g id="node_expander12" style="cursor: pointer;" display="none"><path id="kity_path_126" fill="white" stroke="gray" d="M1177.5,332.5A6,6,0,1,1,1165.5,332.5A6,6,0,1,1,1177.5,332.5"></path><path id="kity_path_127" fill="none" stroke="gray"></path></g><path id="node_outline13" fill="none" stroke="none" d="M1182.5,315.5h514a5,5,0,0,1,5,5v24a5,5,0,0,1,-5,5h-514a5,5,0,0,1,-5,-5v-24a5,5,0,0,1,5,-5z" stroke-width="3"></path><g id="node_text13" fill="black"><text id="kity_text_123" text-rendering="inherit" font-size="24" dy=".8em" y="320.5" font-family="楷体,楷体_GB2312,SimKai" x="1187.5">后继节点移走后，它的右孩子替补，并置为黑色</text></g></g><g id="minder_node14"><g id="node_expander13" style="cursor: pointer;" display="none"><path id="kity_path_134" fill="white" stroke="gray" d="M1340.5,392.5A6,6,0,1,1,1328.5,392.5A6,6,0,1,1,1340.5,392.5"></path><path id="kity_path_135" fill="none" stroke="gray"></path></g><path id="node_outline14" fill="none" stroke="none" d="M1345.5,375.5h154a5,5,0,0,1,5,5v24a5,5,0,0,1,-5,5h-154a5,5,0,0,1,-5,-5v-24a5,5,0,0,1,5,-5z" stroke-width="3"></path><g id="node_text14" fill="black"><text id="kity_text_131" text-rendering="inherit" font-size="24" dy=".8em" y="380.5" font-family="楷体,楷体_GB2312,SimKai" x="1350.5">不会影响平衡</text></g></g><g id="minder_node15"><g id="node_expander14" style="cursor: pointer;" display="none"><path id="kity_path_142" fill="white" stroke="gray" d="M1340.5,456.5A6,6,0,1,1,1328.5,456.5A6,6,0,1,1,1340.5,456.5"></path><path id="kity_path_143" fill="none" stroke="gray"></path></g><path id="node_outline15" fill="none" stroke="none" d="M1345.5,439.5h103a5,5,0,0,1,5,5v24a5,5,0,0,1,-5,5h-103a5,5,0,0,1,-5,-5v-24a5,5,0,0,1,5,-5z" stroke-width="3"></path><g id="node_text15" fill="black"><text id="kity_text_139" text-rendering="inherit" font-size="24" dy=".8em" y="444.5" font-family="楷体,楷体_GB2312,SimKai" x="1350.5">同Case2</text></g></g><g id="minder_node16"><g id="node_expander15" style="cursor: pointer;" display="none"><path id="kity_path_150" fill="white" stroke="gray" d="M889.5,113.5A6,6,0,1,1,877.5,113.5A6,6,0,1,1,889.5,113.5"></path><path id="kity_path_151" fill="none" stroke="gray"></path></g><path id="node_outline16" fill="none" stroke="none" d="M894.5,96.5h130a5,5,0,0,1,5,5v24a5,5,0,0,1,-5,5h-130a5,5,0,0,1,-5,-5v-24a5,5,0,0,1,5,-5z" stroke-width="3"></path><g id="node_text16" fill="black"><text id="kity_text_147" text-rendering="inherit" font-size="24" dy=".8em" y="101.5" font-family="楷体,楷体_GB2312,SimKai" x="899.5">不影响平衡</text></g></g><g id="minder_node17"><g id="node_expander16" style="cursor: pointer;" display="none"><path id="kity_path_158" fill="white" stroke="gray" d="M889.5,177.5A6,6,0,1,1,877.5,177.5A6,6,0,1,1,889.5,177.5"></path><path id="kity_path_159" fill="none" stroke="gray"></path></g><path id="node_outline17" fill="none" stroke="none" d="M894.5,160.5h322a5,5,0,0,1,5,5v24a5,5,0,0,1,-5,5h-322a5,5,0,0,1,-5,-5v-24a5,5,0,0,1,5,-5z" stroke-width="3"></path><g id="node_text17" fill="black"><text id="kity_text_155" text-rendering="inherit" font-size="24" dy=".8em" y="165.5" font-family="楷体,楷体_GB2312,SimKai" x="899.5">结合兄弟节点的颜色进行修复</text></g></g></g></g></svg>