<svg id="SvgjsSvg1006" width="1392.2222936074613" height="657.4999923706055" xmlns="http://www.w3.org/2000/svg" version="1.1" xmlns:xlink="http://www.w3.org/1999/xlink" xmlns:svgjs="http://svgjs.com/svgjs"><defs id="SvgjsDefs1007"><pattern patternUnits="userSpaceOnUse" id="pattern_mark_0" width="300" height="300"><text style="dominant-baseline: middle; text-anchor: middle;" x="150" y="100" fill="rgba(229,229,229,0.8)" font-size="18" transform="rotate(-45, 150, 150)"></text></pattern><pattern patternUnits="userSpaceOnUse" id="pattern_mark_1" width="300" height="300"><text style="dominant-baseline: middle; text-anchor: middle;" x="150" y="200" fill="rgba(229,229,229,0.8)" font-size="18" transform="rotate(-45, 150, 150)"></text></pattern><marker id="SvgjsMarker1063" markerWidth="13" markerHeight="9" refX="9.5" refY="4.5" viewBox="0 0 13 9" orient="auto" markerUnits="userSpaceOnUse" stroke-dasharray="0,0"><path id="SvgjsPath1064" d="M0,0 L13,4.5 L0,9 L0,0" fill="#323232" stroke="#323232" stroke-width="1"></path></marker><marker id="SvgjsMarker1067" markerWidth="13" markerHeight="9" refX="9.5" refY="4.5" viewBox="0 0 13 9" orient="auto" markerUnits="userSpaceOnUse" stroke-dasharray="0,0"><path id="SvgjsPath1068" d="M0,0 L13,4.5 L0,9 L0,0" fill="#323232" stroke="#323232" stroke-width="1"></path></marker><marker id="SvgjsMarker1071" markerWidth="13" markerHeight="9" refX="9.5" refY="4.5" viewBox="0 0 13 9" orient="auto" markerUnits="userSpaceOnUse" stroke-dasharray="0,0"><path id="SvgjsPath1072" d="M0,0 L13,4.5 L0,9 L0,0" fill="#323232" stroke="#323232" stroke-width="1"></path></marker><marker id="SvgjsMarker1075" markerWidth="13" markerHeight="9" refX="9.5" refY="4.5" viewBox="0 0 13 9" orient="auto" markerUnits="userSpaceOnUse" stroke-dasharray="0,0"><path id="SvgjsPath1076" d="M0,0 L13,4.5 L0,9 L0,0" fill="#323232" stroke="#323232" stroke-width="1"></path></marker><marker id="SvgjsMarker1097" markerWidth="13" markerHeight="9" refX="9.5" refY="4.5" viewBox="0 0 13 9" orient="auto" markerUnits="userSpaceOnUse" stroke-dasharray="0,0"><path id="SvgjsPath1098" d="M0,0 L13,4.5 L0,9 L0,0" fill="#323232" stroke="#323232" stroke-width="1"></path></marker><marker id="SvgjsMarker1101" markerWidth="13" markerHeight="9" refX="9.5" refY="4.5" viewBox="0 0 13 9" orient="auto" markerUnits="userSpaceOnUse" stroke-dasharray="0,0"><path id="SvgjsPath1102" d="M0,0 L13,4.5 L0,9 L0,0" fill="#323232" stroke="#323232" stroke-width="1"></path></marker><marker id="SvgjsMarker1111" markerWidth="13" markerHeight="9" refX="9.5" refY="4.5" viewBox="0 0 13 9" orient="auto" markerUnits="userSpaceOnUse" stroke-dasharray="0,0"><path id="SvgjsPath1112" d="M0,0 L13,4.5 L0,9 L0,0" fill="#323232" stroke="#323232" stroke-width="1"></path></marker><marker id="SvgjsMarker1115" markerWidth="13" markerHeight="9" refX="9.5" refY="4.5" viewBox="0 0 13 9" orient="auto" markerUnits="userSpaceOnUse" stroke-dasharray="0,0"><path id="SvgjsPath1116" d="M0,0 L13,4.5 L0,9 L0,0" fill="#323232" stroke="#323232" stroke-width="1"></path></marker><marker id="SvgjsMarker1131" markerWidth="13" markerHeight="9" refX="9.5" refY="4.5" viewBox="0 0 13 9" orient="auto" markerUnits="userSpaceOnUse" stroke-dasharray="0,0"><path id="SvgjsPath1132" d="M0,0 L13,4.5 L0,9 L0,0" fill="#323232" stroke="#323232" stroke-width="1"></path></marker><marker id="SvgjsMarker1135" markerWidth="13" markerHeight="9" refX="9.5" refY="4.5" viewBox="0 0 13 9" orient="auto" markerUnits="userSpaceOnUse" stroke-dasharray="0,0"><path id="SvgjsPath1136" d="M0,0 L13,4.5 L0,9 L0,0" fill="#323232" stroke="#323232" stroke-width="1"></path></marker><marker id="SvgjsMarker1151" markerWidth="13" markerHeight="9" refX="9.5" refY="4.5" viewBox="0 0 13 9" orient="auto" markerUnits="userSpaceOnUse" stroke-dasharray="0,0"><path id="SvgjsPath1152" d="M0,0 L13,4.5 L0,9 L0,0" fill="#323232" stroke="#323232" stroke-width="1"></path></marker></defs><rect id="svgbackgroundid" width="1392.2222936074613" height="657.4999923706055" fill="transparent"></rect><rect id="SvgjsRect1009" width="1392.2222936074613" height="657.4999923706055" fill="url(#pattern_mark_0)"></rect><rect id="SvgjsRect1010" width="1392.2222936074613" height="657.4999923706055" fill="url(#pattern_mark_1)"></rect><g id="SvgjsG1011" transform="translate(25,320.2777735392252)"><path id="SvgjsPath1012" d="M 0 4Q 0 0 4 0L 1158.829 0Q 1162.829 0 1162.829 4L 1162.829 236Q 1162.829 240 1158.829 240L 4 240Q 0 240 0 236Z" stroke="rgba(33,41,48,1)" stroke-width="1.5" fill-opacity="1" fill="#e5f6da"></path><g id="SvgjsG1013"><text id="SvgjsText1014" font-family="&quot;Microsoft YaHei&quot;, 微软雅黑, Arial" text-anchor="middle" font-size="13px" width="1143px" fill="#323232" font-weight="400" align="middle" lineHeight="125%" anchor="middle" family="&quot;Microsoft YaHei&quot;, 微软雅黑, Arial" size="13px" weight="400" font-style="" opacity="1" y="109.375" transform="rotate(0)"></text></g></g><g id="SvgjsG1015" transform="translate(25,116.49999237060547)"><path id="SvgjsPath1016" d="M 0 4Q 0 0 4 0L 1158.829 0Q 1162.829 0 1162.829 4L 1162.829 175Q 1162.829 179 1158.829 179L 4 179Q 0 179 0 175Z" stroke="rgba(33,41,48,1)" stroke-width="1.5" fill-opacity="1" fill="#e5f6da"></path><g id="SvgjsG1017"><text id="SvgjsText1018" font-family="&quot;Microsoft YaHei&quot;, 微软雅黑, Arial" text-anchor="middle" font-size="13px" width="1143px" fill="#323232" font-weight="400" align="middle" lineHeight="125%" anchor="middle" family="&quot;Microsoft YaHei&quot;, 微软雅黑, Arial" size="13px" weight="400" font-style="" opacity="1" y="78.875" transform="rotate(0)"></text></g></g><g id="SvgjsG1019" transform="translate(94.51111178927954,133.49999237060547)"><path id="SvgjsPath1020" d="M 0 4Q 0 0 4 0L 175 0Q 179 0 179 4L 179 50Q 179 54 175 54L 4 54Q 0 54 0 50Z" stroke="rgba(33,41,48,1)" stroke-width="1.5" fill-opacity="1" fill="#f8d5b5"></path><g id="SvgjsG1021"><text id="SvgjsText1022" font-family="&quot;Microsoft YaHei&quot;, 微软雅黑, Arial" text-anchor="middle" font-size="18px" width="159px" fill="#323232" font-weight="400" align="middle" lineHeight="125%" anchor="middle" family="&quot;Microsoft YaHei&quot;, 微软雅黑, Arial" size="18px" weight="400" font-style="" opacity="1" y="11.25" transform="rotate(0)"><tspan id="SvgjsTspan1023" dy="22.5" x="89.5"><tspan id="SvgjsTspan1024" style="">Windows用户环境</tspan></tspan></text></g></g><g id="SvgjsG1025" transform="translate(94.51111178927954,216.49999237060547)"><path id="SvgjsPath1026" d="M 0 4Q 0 0 4 0L 175 0Q 179 0 179 4L 179 50Q 179 54 175 54L 4 54Q 0 54 0 50Z" stroke="rgba(33,41,48,1)" stroke-width="1.5" fill-opacity="1" fill="#5b79e8"></path><g id="SvgjsG1027"><text id="SvgjsText1028" font-family="&quot;Microsoft YaHei&quot;, 微软雅黑, Arial" text-anchor="middle" font-size="18px" width="159px" fill="#fcf9ea" font-weight="400" align="middle" lineHeight="125%" anchor="middle" family="&quot;Microsoft YaHei&quot;, 微软雅黑, Arial" size="18px" weight="400" font-style="" opacity="1" y="11.25" transform="rotate(0)"><tspan id="SvgjsTspan1029" dy="22.5" x="89.5"><tspan id="SvgjsTspan1030" style="">Windows内核</tspan></tspan></text></g></g><g id="SvgjsG1031" transform="translate(50.51111178927954,345.49999237060547)"><path id="SvgjsPath1032" d="M 0 4Q 0 0 4 0L 263 0Q 267 0 267 4L 267 50Q 267 54 263 54L 4 54Q 0 54 0 50Z" stroke="rgba(33,41,48,1)" stroke-width="1.5" fill-opacity="1" fill="#ec7270"></path><g id="SvgjsG1033"><text id="SvgjsText1034" font-family="&quot;Microsoft YaHei&quot;, 微软雅黑, Arial" text-anchor="middle" font-size="18px" width="247px" fill="#323232" font-weight="400" align="middle" lineHeight="125%" anchor="middle" family="&quot;Microsoft YaHei&quot;, 微软雅黑, Arial" size="18px" weight="400" font-style="" opacity="1" y="11.25" transform="rotate(0)"><tspan id="SvgjsTspan1035" dy="22.5" x="133.5"><tspan id="SvgjsTspan1036" style="">bootmgr / bootmgr.efi</tspan></tspan></text></g></g><g id="SvgjsG1037" transform="translate(516.5111117892795,133.49999237060547)"><path id="SvgjsPath1038" d="M 0 4Q 0 0 4 0L 175 0Q 179 0 179 4L 179 50Q 179 54 175 54L 4 54Q 0 54 0 50Z" stroke="rgba(33,41,48,1)" stroke-width="1.5" fill-opacity="1" fill="#f8d5b5"></path><g id="SvgjsG1039"><text id="SvgjsText1040" font-family="&quot;Microsoft YaHei&quot;, 微软雅黑, Arial" text-anchor="middle" font-size="18px" width="159px" fill="#323232" font-weight="400" align="middle" lineHeight="125%" anchor="middle" family="&quot;Microsoft YaHei&quot;, 微软雅黑, Arial" size="18px" weight="400" font-style="" opacity="1" y="11.25" transform="rotate(0)"><tspan id="SvgjsTspan1041" dy="22.5" x="89.5"><tspan id="SvgjsTspan1042" style="">根文件系统</tspan></tspan></text></g></g><g id="SvgjsG1043" transform="translate(516.5111117892795,216.49999237060547)"><path id="SvgjsPath1044" d="M 0 4Q 0 0 4 0L 175 0Q 179 0 179 4L 179 50Q 179 54 175 54L 4 54Q 0 54 0 50Z" stroke="rgba(33,41,48,1)" stroke-width="1.5" fill-opacity="1" fill="#5b79e8"></path><g id="SvgjsG1045"><text id="SvgjsText1046" font-family="&quot;Microsoft YaHei&quot;, 微软雅黑, Arial" text-anchor="middle" font-size="18px" width="159px" fill="#fcf9ea" font-weight="400" align="middle" lineHeight="125%" anchor="middle" family="&quot;Microsoft YaHei&quot;, 微软雅黑, Arial" size="18px" weight="400" font-style="" opacity="1" y="11.25" transform="rotate(0)"><tspan id="SvgjsTspan1047" dy="22.5" x="89.5"><tspan id="SvgjsTspan1048" style="">Linux 内核</tspan></tspan></text></g></g><g id="SvgjsG1049" transform="translate(472.51111178927954,345.49999237060547)"><path id="SvgjsPath1050" d="M 0 4Q 0 0 4 0L 263 0Q 267 0 267 4L 267 50Q 267 54 263 54L 4 54Q 0 54 0 50Z" stroke="rgba(33,41,48,1)" stroke-width="1.5" fill-opacity="1" fill="#ec7270"></path><g id="SvgjsG1051"><text id="SvgjsText1052" font-family="&quot;Microsoft YaHei&quot;, 微软雅黑, Arial" text-anchor="middle" font-size="18px" width="247px" fill="#323232" font-weight="400" align="middle" lineHeight="125%" anchor="middle" family="&quot;Microsoft YaHei&quot;, 微软雅黑, Arial" size="18px" weight="400" font-style="" opacity="1" y="11.25" transform="rotate(0)"><tspan id="SvgjsTspan1053" dy="22.5" x="133.5"><tspan id="SvgjsTspan1054" style="">grub2</tspan></tspan></text></g></g><g id="SvgjsG1055" transform="translate(1187.8292936074613,185.99999237060547)"><path id="SvgjsPath1056" d="M 0 0L 67.171 0L 67.171 40L 0 40Z" stroke="none" fill="none"></path><g id="SvgjsG1057"><text id="SvgjsText1058" font-family="&quot;Microsoft YaHei&quot;, 微软雅黑, Arial" text-anchor="middle" font-size="28px" width="68px" fill="#323232" font-weight="400" align="middle" lineHeight="125%" anchor="middle" family="&quot;Microsoft YaHei&quot;, 微软雅黑, Arial" size="28px" weight="400" font-style="" opacity="1" y="-4" transform="rotate(0)"><tspan id="SvgjsTspan1059" dy="35" x="34"><tspan id="SvgjsTspan1060" style="">OS</tspan></tspan></text></g></g><g id="SvgjsG1061"><path id="SvgjsPath1062" d="M184.01111178927954 344.74999237060547L184.01111178927954 307.99999237060547L184.01111178927954 307.99999237060547L184.01111178927954 273.19999237060546" stroke="#323232" stroke-width="1.5" fill="none" marker-end="url(#SvgjsMarker1063)"></path></g><g id="SvgjsG1065"><path id="SvgjsPath1066" d="M184.01111178927954 215.74999237060547L184.01111178927954 201.99999237060547L184.01111178927954 201.99999237060547L184.01111178927954 190.19999237060546" stroke="#323232" stroke-width="1.5" fill="none" marker-end="url(#SvgjsMarker1067)"></path></g><g id="SvgjsG1069"><path id="SvgjsPath1070" d="M606.0111117892795 215.74999237060547L606.0111117892795 201.99999237060547L606.0111117892795 201.99999237060547L606.0111117892795 190.19999237060546" stroke="#323232" stroke-width="1.5" fill="none" marker-end="url(#SvgjsMarker1071)"></path></g><g id="SvgjsG1073"><path id="SvgjsPath1074" d="M606.0111117892795 344.74999237060547L606.0111117892795 307.99999237060547L606.0111117892795 307.99999237060547L606.0111117892795 273.19999237060546" stroke="#323232" stroke-width="1.5" fill="none" marker-end="url(#SvgjsMarker1075)"></path></g><g id="SvgjsG1077" transform="translate(938.5111117892795,133.49999237060536)"><path id="SvgjsPath1078" d="M 0 4Q 0 0 4 0L 175 0Q 179 0 179 4L 179 50Q 179 54 175 54L 4 54Q 0 54 0 50Z" stroke="rgba(33,41,48,1)" stroke-width="1.5" fill-opacity="1" fill="#f8d5b5"></path><g id="SvgjsG1079"><text id="SvgjsText1080" font-family="&quot;Microsoft YaHei&quot;, 微软雅黑, Arial" text-anchor="middle" font-size="18px" width="159px" fill="#323232" font-weight="400" align="middle" lineHeight="125%" anchor="middle" family="&quot;Microsoft YaHei&quot;, 微软雅黑, Arial" size="18px" weight="400" font-style="" opacity="1" y="11.25" transform="rotate(0)"><tspan id="SvgjsTspan1081" dy="22.5" x="89.5"><tspan id="SvgjsTspan1082" style="">根文件系统</tspan></tspan></text></g></g><g id="SvgjsG1083" transform="translate(938.5111117892795,216.49999237060536)"><path id="SvgjsPath1084" d="M 0 4Q 0 0 4 0L 175 0Q 179 0 179 4L 179 50Q 179 54 175 54L 4 54Q 0 54 0 50Z" stroke="rgba(33,41,48,1)" stroke-width="1.5" fill-opacity="1" fill="#5b79e8"></path><g id="SvgjsG1085"><text id="SvgjsText1086" font-family="&quot;Microsoft YaHei&quot;, 微软雅黑, Arial" text-anchor="middle" font-size="18px" width="159px" fill="#fcf9ea" font-weight="400" align="middle" lineHeight="125%" anchor="middle" family="&quot;Microsoft YaHei&quot;, 微软雅黑, Arial" size="18px" weight="400" font-style="" opacity="1" y="11.25" transform="rotate(0)"><tspan id="SvgjsTspan1087" dy="22.5" x="89.5"><tspan id="SvgjsTspan1088" style="">Linux 内核</tspan></tspan></text></g></g><g id="SvgjsG1089" transform="translate(894.5111117892795,345.49999237060547)"><path id="SvgjsPath1090" d="M 0 4Q 0 0 4 0L 263 0Q 267 0 267 4L 267 179Q 267 183 263 183L 4 183Q 0 183 0 179Z" stroke="rgba(33,41,48,1)" stroke-width="1.5" fill-opacity="1" fill="#ec7270"></path><g id="SvgjsG1091"><text id="SvgjsText1092" font-family="&quot;Microsoft YaHei&quot;, 微软雅黑, Arial" text-anchor="middle" font-size="18px" width="247px" fill="#323232" font-weight="400" align="middle" lineHeight="125%" anchor="middle" family="&quot;Microsoft YaHei&quot;, 微软雅黑, Arial" size="18px" weight="400" font-style="" opacity="1" y="75.75" transform="rotate(0)"><tspan id="SvgjsTspan1093" dy="22.5" x="133.5"><tspan id="SvgjsTspan1094" style="">U-Boot</tspan></tspan></text></g></g><g id="SvgjsG1095"><path id="SvgjsPath1096" d="M1028.0111117892795 215.74999237060536L1028.0111117892795 201.99999237060536L1028.0111117892795 201.99999237060536L1028.0111117892795 190.19999237060534" stroke="#323232" stroke-width="1.5" fill="none" marker-end="url(#SvgjsMarker1097)"></path></g><g id="SvgjsG1099"><path id="SvgjsPath1100" d="M1028.0111117892795 344.74999237060547L1028.0111117892795 307.99999237060547L1028.0111117892795 307.99999237060547L1028.0111117892795 273.19999237060546" stroke="#323232" stroke-width="1.5" fill="none" marker-end="url(#SvgjsMarker1101)"></path></g><g id="SvgjsG1103" transform="translate(50.51111178927954,474.49999237060547)"><path id="SvgjsPath1104" d="M 0 4Q 0 0 4 0L 685 0Q 689 0 689 4L 689 50Q 689 54 685 54L 4 54Q 0 54 0 50Z" stroke="rgba(33,41,48,1)" stroke-width="1.5" fill-opacity="1" fill="#5c4038"></path><g id="SvgjsG1105"><text id="SvgjsText1106" font-family="&quot;Microsoft YaHei&quot;, 微软雅黑, Arial" text-anchor="middle" font-size="18px" width="669px" fill="#fcf9ea" font-weight="400" align="middle" lineHeight="125%" anchor="middle" family="&quot;Microsoft YaHei&quot;, 微软雅黑, Arial" size="18px" weight="400" font-style="" opacity="1" y="11.25" transform="rotate(0)"><tspan id="SvgjsTspan1107" dy="22.5" x="344.5"><tspan id="SvgjsTspan1108" style="">UEFI / BIOS</tspan></tspan></text></g></g><g id="SvgjsG1109"><path id="SvgjsPath1110" d="M394.31120780371845 474.23048465087237C 258.1110975477431 418.27777014838324 198.1110975477431 460.49999237060547 184.78229423396198 402.0875158269269" stroke="#323232" stroke-width="1.5" fill="none" marker-end="url(#SvgjsMarker1111)"></path></g><g id="SvgjsG1113"><path id="SvgjsPath1114" d="M395.6864825932942 474.1738416737113C 520.3333197699653 410.49999237060547 566.999986436632 453.8333257039388 609.6344895563178 401.50351736444287" stroke="#323232" stroke-width="1.5" fill="none" marker-end="url(#SvgjsMarker1115)"></path></g><g id="SvgjsG1117" transform="translate(25,578.4999923706055)"><path id="SvgjsPath1118" d="M 0 4Q 0 0 4 0L 710.511 0Q 714.511 0 714.511 4L 714.511 50Q 714.511 54 710.511 54L 4 54Q 0 54 0 50Z" stroke="rgba(33,41,48,1)" stroke-width="1.5" fill-opacity="1" fill="#000000"></path><g id="SvgjsG1119"><text id="SvgjsText1120" font-family="&quot;Microsoft YaHei&quot;, 微软雅黑, Arial" text-anchor="middle" font-size="18px" width="695px" fill="#fcf9ea" font-weight="400" align="middle" lineHeight="125%" anchor="middle" family="&quot;Microsoft YaHei&quot;, 微软雅黑, Arial" size="18px" weight="400" font-style="" opacity="1" y="11.25" transform="rotate(0)"><tspan id="SvgjsTspan1121" dy="22.5" x="357.5"><tspan id="SvgjsTspan1122" style="">X86/AMD64 硬件</tspan></tspan></text></g></g><g id="SvgjsG1123" transform="translate(894.5111117892795,578.4999923706055)"><path id="SvgjsPath1124" d="M 0 4Q 0 0 4 0L 289.318 0Q 293.318 0 293.318 4L 293.318 50Q 293.318 54 289.318 54L 4 54Q 0 54 0 50Z" stroke="rgba(33,41,48,1)" stroke-width="1.5" fill-opacity="1" fill="#000000"></path><g id="SvgjsG1125"><text id="SvgjsText1126" font-family="&quot;Microsoft YaHei&quot;, 微软雅黑, Arial" text-anchor="middle" font-size="18px" width="274px" fill="#fcf9ea" font-weight="400" align="middle" lineHeight="125%" anchor="middle" family="&quot;Microsoft YaHei&quot;, 微软雅黑, Arial" size="18px" weight="400" font-style="" opacity="1" y="11.25" transform="rotate(0)"><tspan id="SvgjsTspan1127" dy="22.5" x="147"><tspan id="SvgjsTspan1128" style="">ARM 硬件</tspan></tspan></text></g></g><g id="SvgjsG1129"><path id="SvgjsPath1130" d="M382.3573399647265 577.7569311328352C 382.25555589463977 557.8594334394862 395.01111178927954 549.1405513017247 394.6446891369673 531.1750128265782" stroke="#323232" stroke-width="1.5" fill="none" marker-end="url(#SvgjsMarker1131)"></path></g><g id="SvgjsG1133"><path id="SvgjsPath1134" d="M1041.0655396951372 577.7573311721077C 1041.1702026983705 557.8189414357861 1028.0111117892795 549.1810433054249 1028.3878986009195 531.1735726851975" stroke="#323232" stroke-width="1.5" fill="none" marker-end="url(#SvgjsMarker1135)"></path></g><g id="SvgjsG1137" transform="translate(1187.8292936074613,396.555547926161)"><path id="SvgjsPath1138" d="M 0 0L 179.393 0L 179.393 70L 0 70Z" stroke="none" fill="none"></path><g id="SvgjsG1139"><text id="SvgjsText1140" font-family="&quot;Microsoft YaHei&quot;, 微软雅黑, Arial" text-anchor="middle" font-size="28px" width="180px" fill="#323232" font-weight="400" align="middle" lineHeight="125%" anchor="middle" family="&quot;Microsoft YaHei&quot;, 微软雅黑, Arial" size="28px" weight="400" font-style="" opacity="1" y="11" transform="rotate(0)"><tspan id="SvgjsTspan1141" dy="35" x="90"><tspan id="SvgjsTspan1142" style="">BootLoader</tspan></tspan></text></g></g><g id="SvgjsG1143" transform="translate(25,25)"><path id="SvgjsPath1144" d="M 0 4Q 0 0 4 0L 1158.829 0Q 1162.829 0 1162.829 4L 1162.829 54Q 1162.829 58 1158.829 58L 4 58Q 0 58 0 54Z" stroke="rgba(33,41,48,1)" stroke-width="1.5" fill-opacity="1" fill="#e5f6da"></path><g id="SvgjsG1145"><text id="SvgjsText1146" font-family="&quot;Microsoft YaHei&quot;, 微软雅黑, Arial" text-anchor="middle" font-size="18px" width="1143px" fill="#323232" font-weight="400" align="middle" lineHeight="125%" anchor="middle" family="&quot;Microsoft YaHei&quot;, 微软雅黑, Arial" size="18px" weight="400" font-style="" opacity="1" y="13.25" transform="rotate(0)"><tspan id="SvgjsTspan1147" dy="22.5" x="581.5"><tspan id="SvgjsTspan1148" style="">用户应用程序</tspan></tspan></text></g></g><g id="SvgjsG1149"><path id="SvgjsPath1150" d="M606.415 115.74999237060547C 606.415 103.09999542236328 606.415 96.39999694824219 606.415 85.7" stroke="#323232" stroke-width="1.5" fill="none" marker-end="url(#SvgjsMarker1151)"></path></g><g id="SvgjsG1153"></g></svg>