<svg id="SvgjsSvg1006" width="3220.833307902018" height="530.4999923706064" xmlns="http://www.w3.org/2000/svg" version="1.1" xmlns:xlink="http://www.w3.org/1999/xlink" xmlns:svgjs="http://svgjs.com/svgjs"><defs id="SvgjsDefs1007"><pattern patternUnits="userSpaceOnUse" id="pattern_mark_0" width="300" height="300"><text x="150" y="100" fill="rgba(229,229,229,0.8)" font-size="18" transform="rotate(-45, 150, 150)" style="dominant-baseline: middle; text-anchor: middle;"></text></pattern><pattern patternUnits="userSpaceOnUse" id="pattern_mark_1" width="300" height="300"><text x="150" y="200" fill="rgba(229,229,229,0.8)" font-size="18" transform="rotate(-45, 150, 150)" style="dominant-baseline: middle; text-anchor: middle;"></text></pattern></defs><rect id="svgbackgroundid" width="3220.833307902018" height="530.4999923706064" fill="transparent"></rect><rect id="SvgjsRect1009" width="3220.833307902018" height="530.4999923706064" fill="url(#pattern_mark_0)"></rect><rect id="SvgjsRect1010" width="3220.833307902018" height="530.4999923706064" fill="url(#pattern_mark_1)"></rect><g id="SvgjsG1011" transform="translate(148.33330790201825,25)"><path id="SvgjsPath1012" d="M 0 4Q 0 0 4 0L 3043.5 0Q 3047.5 0 3047.5 4L 3047.5 476.5Q 3047.5 480.5 3043.5 480.5L 4 480.5Q 0 480.5 0 476.5Z" stroke="rgba(33,41,48,1)" stroke-width="1.5" fill-opacity="1" fill="#ffffff"></path><g id="SvgjsG1013"><text id="SvgjsText1014" font-family="&quot;Microsoft YaHei&quot;, 微软雅黑, Arial" text-anchor="middle" font-size="13px" width="3028px" fill="#323232" font-weight="400" align="middle" lineHeight="125%" anchor="middle" family="&quot;Microsoft YaHei&quot;, 微软雅黑, Arial" size="13px" weight="400" font-style="" opacity="1" y="229.625" transform="rotate(0)"></text></g></g><g id="SvgjsG1015" transform="translate(1467.0730196029422,202.07142475673163)"><path id="SvgjsPath1016" d="M 0 4Q 0 0 4 0L 106.857 0Q 110.857 0 110.857 4L 110.857 97.286Q 110.857 101.286 106.857 101.286L 4 101.286Q 0 101.286 0 97.286Z" stroke-dasharray="3,4.5" stroke="rgba(70,105,234,1)" stroke-width="3" fill="none"></path><g id="SvgjsG1017"><text id="SvgjsText1018" font-family="&quot;Microsoft YaHei&quot;, 微软雅黑, Arial" text-anchor="middle" font-size="13px" width="91px" fill="#323232" font-weight="400" align="middle" lineHeight="125%" anchor="middle" family="&quot;Microsoft YaHei&quot;, 微软雅黑, Arial" size="13px" weight="400" font-style="" opacity="1" y="40.018" transform="rotate(0)"></text></g></g><g id="SvgjsG1019" transform="translate(317.0420762319413,82.66665903727221)"><path id="SvgjsPath1020" d="M 0 35C 0 -11.667 70 -11.667 70 35C 70 81.667 0 81.667 0 35Z" stroke="rgba(255,255,255,1)" stroke-width="1.5" fill-opacity="1" fill="#000000"></path><g id="SvgjsG1021"><text id="SvgjsText1022" font-family="&quot;Microsoft YaHei&quot;, 微软雅黑, Arial" text-anchor="middle" font-size="30px" width="50px" fill="#ffffff" font-weight="400" align="middle" lineHeight="125%" anchor="middle" family="&quot;Microsoft YaHei&quot;, 微软雅黑, Arial" size="30px" weight="400" font-style="" opacity="1" y="9.25" transform="rotate(0)"><tspan id="SvgjsTspan1023" dy="37.5" x="35"><tspan id="SvgjsTspan1024" style="">6</tspan></tspan></text></g></g><g id="SvgjsG1025" transform="translate(317.0420762319413,287.1666590372722)"><path id="SvgjsPath1026" d="M 0 35C 0 -11.667 70 -11.667 70 35C 70 81.667 0 81.667 0 35Z" stroke="rgba(255,255,255,1)" stroke-width="1.5" fill-opacity="1" fill="#e60c0c"></path><g id="SvgjsG1027"><text id="SvgjsText1028" font-family="&quot;Microsoft YaHei&quot;, 微软雅黑, Arial" text-anchor="middle" font-size="30px" width="50px" fill="#ffffff" font-weight="400" align="middle" lineHeight="125%" anchor="middle" family="&quot;Microsoft YaHei&quot;, 微软雅黑, Arial" size="30px" weight="400" font-style="" opacity="1" y="9.25" transform="rotate(0)"><tspan id="SvgjsTspan1029" dy="37.5" x="35"><tspan id="SvgjsTspan1030" style="">8</tspan></tspan></text></g></g><g id="SvgjsG1031" transform="translate(204.54207623194128,177.1666590372722)"><path id="SvgjsPath1032" d="M 0 35C 0 -11.667 70 -11.667 70 35C 70 81.667 0 81.667 0 35Z" stroke="rgba(255,255,255,1)" stroke-width="1.5" fill-opacity="1" fill="#000000"></path><g id="SvgjsG1033"><text id="SvgjsText1034" font-family="&quot;Microsoft YaHei&quot;, 微软雅黑, Arial" text-anchor="middle" font-size="30px" width="50px" fill="#ffffff" font-weight="400" align="middle" lineHeight="125%" anchor="middle" family="&quot;Microsoft YaHei&quot;, 微软雅黑, Arial" size="30px" weight="400" font-style="" opacity="1" y="9.25" transform="rotate(0)"><tspan id="SvgjsTspan1035" dy="37.5" x="35"><tspan id="SvgjsTspan1036" style="">5</tspan></tspan></text></g></g><g id="SvgjsG1037" transform="translate(425.75317988320006,181.1666590372722)"><path id="SvgjsPath1038" d="M 0 35C 0 -11.667 70 -11.667 70 35C 70 81.667 0 81.667 0 35Z" stroke="rgba(255,255,255,1)" stroke-width="1.5" fill-opacity="1" fill="#000000"></path><g id="SvgjsG1039"><text id="SvgjsText1040" font-family="&quot;Microsoft YaHei&quot;, 微软雅黑, Arial" text-anchor="middle" font-size="30px" width="50px" fill="#ffffff" font-weight="400" align="middle" lineHeight="125%" anchor="middle" family="&quot;Microsoft YaHei&quot;, 微软雅黑, Arial" size="30px" weight="400" font-style="" opacity="1" y="9.25" transform="rotate(0)"><tspan id="SvgjsTspan1041" dy="37.5" x="35"><tspan id="SvgjsTspan1042" style="">12</tspan></tspan></text></g></g><g id="SvgjsG1043"><path id="SvgjsPath1044" d="M316.44718046665105 118.12338546352726L240.1369719972315 176.70993261101717" stroke="#323232" stroke-width="1.5" fill="none"></path></g><g id="SvgjsG1045"><path id="SvgjsPath1046" d="M387.6103016219335 118.15616890047022L460.18495449320784 180.6771491740742" stroke="#323232" stroke-width="1.5" fill="none"></path></g><g id="SvgjsG1047"><path id="SvgjsPath1048" d="M425.21300906652084 216.68696230346234L352.5822470486205 286.6463557710822" stroke="#323232" stroke-width="1.5" fill="none"></path></g><g id="SvgjsG1049" transform="translate(183.71348474896138,158.73808760870088)"><path id="SvgjsPath1050" d="M 0 4Q 0 0 4 0L 106.857 0Q 110.857 0 110.857 4L 110.857 97.286Q 110.857 101.286 106.857 101.286L 4 101.286Q 0 101.286 0 97.286Z" stroke-dasharray="3,4.5" stroke="rgba(70,105,234,1)" stroke-width="3" fill="none"></path><g id="SvgjsG1051"><text id="SvgjsText1052" font-family="&quot;Microsoft YaHei&quot;, 微软雅黑, Arial" text-anchor="middle" font-size="13px" width="91px" fill="#323232" font-weight="400" align="middle" lineHeight="125%" anchor="middle" family="&quot;Microsoft YaHei&quot;, 微软雅黑, Arial" size="13px" weight="400" font-style="" opacity="1" y="40.018" transform="rotate(0)"></text></g></g><g id="SvgjsG1053"><path id="SvgjsPath1054" d="M352.0420762319413 81.91665903727221L352.0420762319413 30.499992370605355" stroke="#323232" stroke-width="2" fill="none"></path></g><g id="SvgjsG1055" transform="translate(1600.401611085922,125.99999618530285)"><path id="SvgjsPath1056" d="M 0 35C 0 -11.667 70 -11.667 70 35C 70 81.667 0 81.667 0 35Z" stroke="rgba(255,255,255,1)" stroke-width="1.5" fill-opacity="1" fill="#000000"></path><g id="SvgjsG1057"><text id="SvgjsText1058" font-family="&quot;Microsoft YaHei&quot;, 微软雅黑, Arial" text-anchor="middle" font-size="30px" width="50px" fill="#ffffff" font-weight="400" align="middle" lineHeight="125%" anchor="middle" family="&quot;Microsoft YaHei&quot;, 微软雅黑, Arial" size="30px" weight="400" font-style="" opacity="1" y="9.25" transform="rotate(0)"><tspan id="SvgjsTspan1059" dy="37.5" x="35"><tspan id="SvgjsTspan1060" style="">6</tspan></tspan></text></g></g><g id="SvgjsG1061" transform="translate(1600.401611085922,330.4999961853023)"><path id="SvgjsPath1062" d="M 0 35C 0 -11.667 70 -11.667 70 35C 70 81.667 0 81.667 0 35Z" stroke="rgba(255,255,255,1)" stroke-width="1.5" fill-opacity="1" fill="#000000"></path><g id="SvgjsG1063"><text id="SvgjsText1064" font-family="&quot;Microsoft YaHei&quot;, 微软雅黑, Arial" text-anchor="middle" font-size="30px" width="50px" fill="#ffffff" font-weight="400" align="middle" lineHeight="125%" anchor="middle" family="&quot;Microsoft YaHei&quot;, 微软雅黑, Arial" size="30px" weight="400" font-style="" opacity="1" y="9.25" transform="rotate(0)"><tspan id="SvgjsTspan1065" dy="37.5" x="35"><tspan id="SvgjsTspan1066" style="">8</tspan></tspan></text></g></g><g id="SvgjsG1067" transform="translate(1487.901611085922,220.4999961853032)"><path id="SvgjsPath1068" d="M 0 35C 0 -11.667 70 -11.667 70 35C 70 81.667 0 81.667 0 35Z" stroke="rgba(0,0,0,1)" stroke-width="1.5" fill="none"></path><g id="SvgjsG1069"><text id="SvgjsText1070" font-family="&quot;Microsoft YaHei&quot;, 微软雅黑, Arial" text-anchor="middle" font-size="30px" width="50px" fill="#000000" font-weight="400" align="middle" lineHeight="125%" anchor="middle" family="&quot;Microsoft YaHei&quot;, 微软雅黑, Arial" size="30px" weight="400" font-style="" opacity="1" y="9.25" transform="rotate(0)"><tspan id="SvgjsTspan1071" dy="37.5" x="35"><tspan id="SvgjsTspan1072" style="">5</tspan></tspan></text></g></g><g id="SvgjsG1073" transform="translate(1699.930162460085,426.4999961853032)"><path id="SvgjsPath1074" d="M 0 35C 0 -11.667 70 -11.667 70 35C 70 81.667 0 81.667 0 35Z" stroke="rgba(255,255,255,1)" stroke-width="1.5" fill-opacity="1" fill="#000000"></path><g id="SvgjsG1075"><text id="SvgjsText1076" font-family="&quot;Microsoft YaHei&quot;, 微软雅黑, Arial" text-anchor="middle" font-size="30px" width="50px" fill="#ffffff" font-weight="400" align="middle" lineHeight="125%" anchor="middle" family="&quot;Microsoft YaHei&quot;, 微软雅黑, Arial" size="30px" weight="400" font-style="" opacity="1" y="9.25" transform="rotate(0)"><tspan id="SvgjsTspan1077" dy="37.5" x="35"><tspan id="SvgjsTspan1078" style="">12</tspan></tspan></text></g></g><g id="SvgjsG1079"><path id="SvgjsPath1080" d="M1599.8067153206318 161.45672261155823L1523.4965068512122 220.04326975904814" stroke="#323232" stroke-width="1.5" fill="none"></path></g><g id="SvgjsG1081"><path id="SvgjsPath1082" d="M1670.9134115461975 161.5482299756352L1712.566685994467 206.1666590372722" stroke="#323232" stroke-width="1.5" fill="none"></path></g><g id="SvgjsG1083"><path id="SvgjsPath1084" d="M1635.401611085922 125.24999618530285L1635.401611085922 76.86362873424173" stroke="#323232" stroke-width="2" fill="none"></path></g><g id="SvgjsG1085" transform="translate(513.8749821980795,153.6666590372722)"><path id="SvgjsPath1086" d="M 0 19.8L 236.667 19.8L 236.667 0L 266.667 30L 236.667 60L 236.667 40.2L 0 40.2L 0 19.8Z" stroke="rgba(33,41,48,1)" stroke-width="1.5" fill-opacity="1" fill="#ffffff"></path><g id="SvgjsG1087"><text id="SvgjsText1088" font-family="&quot;Microsoft YaHei&quot;, 微软雅黑, Arial" text-anchor="middle" font-size="13px" width="267px" fill="#323232" font-weight="400" align="middle" lineHeight="125%" anchor="middle" family="&quot;Microsoft YaHei&quot;, 微软雅黑, Arial" size="13px" weight="400" font-style="" opacity="1" y="19.375" transform="rotate(0)"></text></g></g><g id="SvgjsG1089" transform="translate(512.6083399454752,91.16665903727221)"><path id="SvgjsPath1090" d="M 0 0L 231.667 0L 231.667 75L 0 75Z" stroke="none" fill="none"></path><g id="SvgjsG1091"><text id="SvgjsText1092" font-family="&quot;Microsoft YaHei&quot;, 微软雅黑, Arial" text-anchor="middle" font-size="30px" width="232px" fill="#323232" font-weight="400" align="middle" lineHeight="125%" anchor="middle" family="&quot;Microsoft YaHei&quot;, 微软雅黑, Arial" size="30px" weight="400" font-style="" opacity="1" y="-6.75" transform="rotate(0)"><tspan id="SvgjsTspan1093" dy="37.5" x="116"><tspan id="SvgjsTspan1094" style="">变色，</tspan></tspan><tspan id="SvgjsTspan1095" dy="37.5" x="116"><tspan id="SvgjsTspan1096" style="">和LR型相同</tspan></tspan></text></g></g><g id="SvgjsG1097" transform="translate(294.5706276061042,51.16665903727221)"><path id="SvgjsPath1098" d="M 0 0L 39.38 0L 39.38 40L 0 40Z" stroke="none" fill="none"></path><g id="SvgjsG1099"><text id="SvgjsText1100" font-family="&quot;Microsoft YaHei&quot;, 微软雅黑, Arial" text-anchor="middle" font-size="30px" width="40px" fill="#323232" font-weight="400" align="middle" lineHeight="125%" anchor="middle" family="&quot;Microsoft YaHei&quot;, 微软雅黑, Arial" size="30px" weight="400" font-style="" opacity="1" y="-5.75" transform="rotate(0)"><tspan id="SvgjsTspan1101" dy="37.5" x="20"><tspan id="SvgjsTspan1102" style="">P</tspan></tspan></text></g></g><g id="SvgjsG1103" transform="translate(393.73333231608075,166.1666590372722)"><path id="SvgjsPath1104" d="M 0 0L 36.167 0L 36.167 40L 0 40Z" stroke="none" fill="none"></path><g id="SvgjsG1105"><text id="SvgjsText1106" font-family="&quot;Microsoft YaHei&quot;, 微软雅黑, Arial" text-anchor="middle" font-size="30px" width="37px" fill="#323232" font-weight="400" align="middle" lineHeight="125%" anchor="middle" family="&quot;Microsoft YaHei&quot;, 微软雅黑, Arial" size="30px" weight="400" font-style="" opacity="1" y="-5.75" transform="rotate(0)"><tspan id="SvgjsTspan1107" dy="37.5" x="18.5"><tspan id="SvgjsTspan1108" style="">S</tspan></tspan></text></g></g><g id="SvgjsG1109" transform="translate(384.3333689371745,317.99999237060547)"><path id="SvgjsPath1110" d="M 0 0L 42.5 0L 42.5 40L 0 40Z" stroke="none" fill="none"></path><g id="SvgjsG1111"><text id="SvgjsText1112" font-family="&quot;Microsoft YaHei&quot;, 微软雅黑, Arial" text-anchor="middle" font-size="30px" width="43px" fill="#323232" font-weight="400" align="middle" lineHeight="125%" anchor="middle" family="&quot;Microsoft YaHei&quot;, 微软雅黑, Arial" size="30px" weight="400" font-style="" opacity="1" y="-5.75" transform="rotate(0)"><tspan id="SvgjsTspan1113" dy="37.5" x="21.5"><tspan id="SvgjsTspan1114" style="">R</tspan></tspan></text></g></g><g id="SvgjsG1115" transform="translate(822.5539621020117,198.07142475673163)"><path id="SvgjsPath1116" d="M 0 4Q 0 0 4 0L 106.857 0Q 110.857 0 110.857 4L 110.857 97.286Q 110.857 101.286 106.857 101.286L 4 101.286Q 0 101.286 0 97.286Z" stroke-dasharray="3,4.5" stroke="rgba(70,105,234,1)" stroke-width="3" fill="none"></path><g id="SvgjsG1117"><text id="SvgjsText1118" font-family="&quot;Microsoft YaHei&quot;, 微软雅黑, Arial" text-anchor="middle" font-size="13px" width="91px" fill="#323232" font-weight="400" align="middle" lineHeight="125%" anchor="middle" family="&quot;Microsoft YaHei&quot;, 微软雅黑, Arial" size="13px" weight="400" font-style="" opacity="1" y="40.018" transform="rotate(0)"></text></g></g><g id="SvgjsG1119" transform="translate(955.8825535849917,121.99999618530285)"><path id="SvgjsPath1120" d="M 0 35C 0 -11.667 70 -11.667 70 35C 70 81.667 0 81.667 0 35Z" stroke="rgba(255,255,255,1)" stroke-width="1.5" fill-opacity="1" fill="#000000"></path><g id="SvgjsG1121"><text id="SvgjsText1122" font-family="&quot;Microsoft YaHei&quot;, 微软雅黑, Arial" text-anchor="middle" font-size="30px" width="50px" fill="#ffffff" font-weight="400" align="middle" lineHeight="125%" anchor="middle" family="&quot;Microsoft YaHei&quot;, 微软雅黑, Arial" size="30px" weight="400" font-style="" opacity="1" y="9.25" transform="rotate(0)"><tspan id="SvgjsTspan1123" dy="37.5" x="35"><tspan id="SvgjsTspan1124" style="">6</tspan></tspan></text></g></g><g id="SvgjsG1125" transform="translate(955.8825535849917,326.4999961853025)"><path id="SvgjsPath1126" d="M 0 35C 0 -11.667 70 -11.667 70 35C 70 81.667 0 81.667 0 35Z" stroke="rgba(255,255,255,1)" stroke-width="1.5" fill-opacity="1" fill="#000000"></path><g id="SvgjsG1127"><text id="SvgjsText1128" font-family="&quot;Microsoft YaHei&quot;, 微软雅黑, Arial" text-anchor="middle" font-size="30px" width="50px" fill="#ffffff" font-weight="400" align="middle" lineHeight="125%" anchor="middle" family="&quot;Microsoft YaHei&quot;, 微软雅黑, Arial" size="30px" weight="400" font-style="" opacity="1" y="9.25" transform="rotate(0)"><tspan id="SvgjsTspan1129" dy="37.5" x="35"><tspan id="SvgjsTspan1130" style="">8</tspan></tspan></text></g></g><g id="SvgjsG1131" transform="translate(843.3825535849916,216.4999961853032)"><path id="SvgjsPath1132" d="M 0 35C 0 -11.667 70 -11.667 70 35C 70 81.667 0 81.667 0 35Z" stroke="rgba(0,0,0,1)" stroke-width="1.5" fill="none"></path><g id="SvgjsG1133"><text id="SvgjsText1134" font-family="&quot;Microsoft YaHei&quot;, 微软雅黑, Arial" text-anchor="middle" font-size="30px" width="50px" fill="#000000" font-weight="400" align="middle" lineHeight="125%" anchor="middle" family="&quot;Microsoft YaHei&quot;, 微软雅黑, Arial" size="30px" weight="400" font-style="" opacity="1" y="9.25" transform="rotate(0)"><tspan id="SvgjsTspan1135" dy="37.5" x="35"><tspan id="SvgjsTspan1136" style="">5</tspan></tspan></text></g></g><g id="SvgjsG1137" transform="translate(1064.5936572362507,220.4999961853032)"><path id="SvgjsPath1138" d="M 0 35C 0 -11.667 70 -11.667 70 35C 70 81.667 0 81.667 0 35Z" stroke="rgba(255,255,255,1)" stroke-width="1.5" fill-opacity="1" fill="#000000"></path><g id="SvgjsG1139"><text id="SvgjsText1140" font-family="&quot;Microsoft YaHei&quot;, 微软雅黑, Arial" text-anchor="middle" font-size="30px" width="50px" fill="#ffffff" font-weight="400" align="middle" lineHeight="125%" anchor="middle" family="&quot;Microsoft YaHei&quot;, 微软雅黑, Arial" size="30px" weight="400" font-style="" opacity="1" y="9.25" transform="rotate(0)"><tspan id="SvgjsTspan1141" dy="37.5" x="35"><tspan id="SvgjsTspan1142" style="">12</tspan></tspan></text></g></g><g id="SvgjsG1143"><path id="SvgjsPath1144" d="M955.2876578197014 157.45672261155823L878.9774493502819 216.04326975904814" stroke="#323232" stroke-width="1.5" fill="none"></path></g><g id="SvgjsG1145"><path id="SvgjsPath1146" d="M1026.4507789749837 157.4895060485012L1099.0254318462587 220.01048632210518" stroke="#323232" stroke-width="1.5" fill="none"></path></g><g id="SvgjsG1147"><path id="SvgjsPath1148" d="M1064.0534864195715 256.0202994514932L991.422724401671 325.9796929191125" stroke="#323232" stroke-width="1.5" fill="none"></path></g><g id="SvgjsG1149"><path id="SvgjsPath1150" d="M990.8825535849917 121.24999618530285L990.8825535849917 67.77271964333272" stroke="#323232" stroke-width="2" fill="none"></path></g><g id="SvgjsG1151" transform="translate(1149.3333384195964,230.4999961853032)"><path id="SvgjsPath1152" d="M 0 19.8L 273 19.8L 273 0L 303 30L 273 60L 273 40.2L 0 40.2L 0 19.8Z" stroke="rgba(33,41,48,1)" stroke-width="1.5" fill-opacity="1" fill="#ffffff"></path><g id="SvgjsG1153"><text id="SvgjsText1154" font-family="&quot;Microsoft YaHei&quot;, 微软雅黑, Arial" text-anchor="middle" font-size="13px" width="303px" fill="#323232" font-weight="400" align="middle" lineHeight="125%" anchor="middle" family="&quot;Microsoft YaHei&quot;, 微软雅黑, Arial" size="13px" weight="400" font-style="" opacity="1" y="19.375" transform="rotate(0)"></text></g></g><g id="SvgjsG1155" transform="translate(1160.3333384195964,209.3285576956614)"><path id="SvgjsPath1156" d="M 0 0L 244 0L 244 40L 0 40Z" stroke="none" fill="none"></path><g id="SvgjsG1157"><text id="SvgjsText1158" font-family="&quot;Microsoft YaHei&quot;, 微软雅黑, Arial" text-anchor="middle" font-size="30px" width="244px" fill="#323232" font-weight="400" align="middle" lineHeight="125%" anchor="middle" family="&quot;Microsoft YaHei&quot;, 微软雅黑, Arial" size="30px" weight="400" font-style="" opacity="1" y="-5.75" transform="rotate(0)"><tspan id="SvgjsTspan1159" dy="37.5" x="122"><tspan id="SvgjsTspan1160" style="">右旋转P的右孩子</tspan></tspan></text></g></g><g id="SvgjsG1161" transform="translate(1868.8896859789645,202.07142475673174)"><path id="SvgjsPath1162" d="M 0 4Q 0 0 4 0L 106.857 0Q 110.857 0 110.857 4L 110.857 97.286Q 110.857 101.286 106.857 101.286L 4 101.286Q 0 101.286 0 97.286Z" stroke-dasharray="3,4.5" stroke="rgba(70,105,234,1)" stroke-width="3" fill="none"></path><g id="SvgjsG1163"><text id="SvgjsText1164" font-family="&quot;Microsoft YaHei&quot;, 微软雅黑, Arial" text-anchor="middle" font-size="13px" width="91px" fill="#323232" font-weight="400" align="middle" lineHeight="125%" anchor="middle" family="&quot;Microsoft YaHei&quot;, 微软雅黑, Arial" size="13px" weight="400" font-style="" opacity="1" y="40.018" transform="rotate(0)"></text></g></g><g id="SvgjsG1165" transform="translate(2002.218277461945,125.99999618530285)"><path id="SvgjsPath1166" d="M 0 35C 0 -11.667 70 -11.667 70 35C 70 81.667 0 81.667 0 35Z" stroke="rgba(255,255,255,1)" stroke-width="1.5" fill-opacity="1" fill="#000000"></path><g id="SvgjsG1167"><text id="SvgjsText1168" font-family="&quot;Microsoft YaHei&quot;, 微软雅黑, Arial" text-anchor="middle" font-size="30px" width="50px" fill="#ffffff" font-weight="400" align="middle" lineHeight="125%" anchor="middle" family="&quot;Microsoft YaHei&quot;, 微软雅黑, Arial" size="30px" weight="400" font-style="" opacity="1" y="9.25" transform="rotate(0)"><tspan id="SvgjsTspan1169" dy="37.5" x="35"><tspan id="SvgjsTspan1170" style="">6</tspan></tspan></text></g></g><g id="SvgjsG1171" transform="translate(1889.7182774619448,220.4999961853032)"><path id="SvgjsPath1172" d="M 0 35C 0 -11.667 70 -11.667 70 35C 70 81.667 0 81.667 0 35Z" stroke="rgba(0,0,0,1)" stroke-width="1.5" fill="none"></path><g id="SvgjsG1173"><text id="SvgjsText1174" font-family="&quot;Microsoft YaHei&quot;, 微软雅黑, Arial" text-anchor="middle" font-size="30px" width="50px" fill="#000000" font-weight="400" align="middle" lineHeight="125%" anchor="middle" family="&quot;Microsoft YaHei&quot;, 微软雅黑, Arial" size="30px" weight="400" font-style="" opacity="1" y="9.25" transform="rotate(0)"><tspan id="SvgjsTspan1175" dy="37.5" x="35"><tspan id="SvgjsTspan1176" style="">5</tspan></tspan></text></g></g><g id="SvgjsG1177"><path id="SvgjsPath1178" d="M2001.6233816966549 161.45672261155823L1925.3131732272352 220.04326975904814" stroke="#323232" stroke-width="1.5" fill="none"></path></g><g id="SvgjsG1179"><path id="SvgjsPath1180" d="M2072.81221592355 161.45796682172647L2148.789413908884 220.0420255488799" stroke="#323232" stroke-width="1.5" fill="none"></path></g><g id="SvgjsG1181"><path id="SvgjsPath1182" d="M2037.2182774619448 125.24999618530285L2037.2182774619448 72.31817418878722" stroke="#323232" stroke-width="2" fill="none"></path></g><g id="SvgjsG1183"><path id="SvgjsPath1184" d="M1670.9466332318034 366.01521542067576L1734.3851403142037 425.9847769499297" stroke="#323232" stroke-width="1.5" fill="none"></path></g><g id="SvgjsG1185" transform="translate(2114.3833523704893,220.4999961853032)"><path id="SvgjsPath1186" d="M 0 35C 0 -11.667 70 -11.667 70 35C 70 81.667 0 81.667 0 35Z" stroke="rgba(255,255,255,1)" stroke-width="1.5" fill-opacity="1" fill="#000000"></path><g id="SvgjsG1187"><text id="SvgjsText1188" font-family="&quot;Microsoft YaHei&quot;, 微软雅黑, Arial" text-anchor="middle" font-size="30px" width="50px" fill="#ffffff" font-weight="400" align="middle" lineHeight="125%" anchor="middle" family="&quot;Microsoft YaHei&quot;, 微软雅黑, Arial" size="30px" weight="400" font-style="" opacity="1" y="9.25" transform="rotate(0)"><tspan id="SvgjsTspan1189" dy="37.5" x="35"><tspan id="SvgjsTspan1190" style="">8</tspan></tspan></text></g></g><g id="SvgjsG1191" transform="translate(2213.911903744652,316.4999961853041)"><path id="SvgjsPath1192" d="M 0 35C 0 -11.667 70 -11.667 70 35C 70 81.667 0 81.667 0 35Z" stroke="rgba(255,255,255,1)" stroke-width="1.5" fill-opacity="1" fill="#000000"></path><g id="SvgjsG1193"><text id="SvgjsText1194" font-family="&quot;Microsoft YaHei&quot;, 微软雅黑, Arial" text-anchor="middle" font-size="30px" width="50px" fill="#ffffff" font-weight="400" align="middle" lineHeight="125%" anchor="middle" family="&quot;Microsoft YaHei&quot;, 微软雅黑, Arial" size="30px" weight="400" font-style="" opacity="1" y="9.25" transform="rotate(0)"><tspan id="SvgjsTspan1195" dy="37.5" x="35"><tspan id="SvgjsTspan1196" style="">12</tspan></tspan></text></g></g><g id="SvgjsG1197"><path id="SvgjsPath1198" d="M2184.9283745163707 256.01521542067667L2248.3668815987708 315.9847769499306" stroke="#323232" stroke-width="1.5" fill="none"></path></g><g id="SvgjsG1199" transform="translate(1748.333330790202,202.07142475673174)"><path id="SvgjsPath1200" d="M 0 19.8L 60 19.8L 60 0L 90 30L 60 60L 60 40.2L 0 40.2L 0 19.8Z" stroke="rgba(33,41,48,1)" stroke-width="1.5" fill-opacity="1" fill="#ffffff"></path><g id="SvgjsG1201"><text id="SvgjsText1202" font-family="&quot;Microsoft YaHei&quot;, 微软雅黑, Arial" text-anchor="middle" font-size="13px" width="90px" fill="#323232" font-weight="400" align="middle" lineHeight="125%" anchor="middle" family="&quot;Microsoft YaHei&quot;, 微软雅黑, Arial" size="13px" weight="400" font-style="" opacity="1" y="19.375" transform="rotate(0)"></text></g></g><g id="SvgjsG1203"><path id="SvgjsPath1204" d="M1026.6325354078085 361.5052178176436L1599.6516292631052 365.4947745529612" stroke-dasharray="1.5,2.25" stroke="#323232" stroke-width="1.5" fill="none"></path></g><g id="SvgjsG1205"><path id="SvgjsPath1206" d="M1671.151611085922 160.99999618530285L1836.3099442739335 160.99999618530285L1836.3099442739335 160.99999618530285L2001.468277461945 160.99999618530285" stroke-dasharray="1.5,2.25" stroke="#323232" stroke-width="1.5" fill="none"></path></g><g id="SvgjsG1207" transform="translate(2397.8868529304623,395.21428189958897)"><path id="SvgjsPath1208" d="M 0 4Q 0 0 4 0L 106.857 0Q 110.857 0 110.857 4L 110.857 97.286Q 110.857 101.286 106.857 101.286L 4 101.286Q 0 101.286 0 97.286Z" stroke-dasharray="3,4.5" stroke="rgba(70,105,234,1)" stroke-width="3" fill="none"></path><g id="SvgjsG1209"><text id="SvgjsText1210" font-family="&quot;Microsoft YaHei&quot;, 微软雅黑, Arial" text-anchor="middle" font-size="13px" width="91px" fill="#323232" font-weight="400" align="middle" lineHeight="125%" anchor="middle" family="&quot;Microsoft YaHei&quot;, 微软雅黑, Arial" size="13px" weight="400" font-style="" opacity="1" y="40.018" transform="rotate(0)"></text></g></g><g id="SvgjsG1211" transform="translate(2501.2154444134426,314.64285332816144)"><path id="SvgjsPath1212" d="M 0 35C 0 -11.667 70 -11.667 70 35C 70 81.667 0 81.667 0 35Z" stroke="rgba(255,255,255,1)" stroke-width="1.5" fill-opacity="1" fill="#000000"></path><g id="SvgjsG1213"><text id="SvgjsText1214" font-family="&quot;Microsoft YaHei&quot;, 微软雅黑, Arial" text-anchor="middle" font-size="30px" width="50px" fill="#ffffff" font-weight="400" align="middle" lineHeight="125%" anchor="middle" family="&quot;Microsoft YaHei&quot;, 微软雅黑, Arial" size="30px" weight="400" font-style="" opacity="1" y="9.25" transform="rotate(0)"><tspan id="SvgjsTspan1215" dy="37.5" x="35"><tspan id="SvgjsTspan1216" style="">6</tspan></tspan></text></g></g><g id="SvgjsG1217" transform="translate(2417.4654444134426,411.1428533281605)"><path id="SvgjsPath1218" d="M 0 35C 0 -11.667 70 -11.667 70 35C 70 81.667 0 81.667 0 35Z" stroke="rgba(0,0,0,1)" stroke-width="1.5" fill="none"></path><g id="SvgjsG1219"><text id="SvgjsText1220" font-family="&quot;Microsoft YaHei&quot;, 微软雅黑, Arial" text-anchor="middle" font-size="30px" width="50px" fill="#000000" font-weight="400" align="middle" lineHeight="125%" anchor="middle" family="&quot;Microsoft YaHei&quot;, 微软雅黑, Arial" size="30px" weight="400" font-style="" opacity="1" y="9.25" transform="rotate(0)"><tspan id="SvgjsTspan1221" dy="37.5" x="35"><tspan id="SvgjsTspan1222" style="">5</tspan></tspan></text></g></g><g id="SvgjsG1223"><path id="SvgjsPath1224" d="M2500.7495501187414 350.23059689993875L2452.931338708144 410.5551097563837" stroke="#323232" stroke-width="1.5" fill="none"></path></g><g id="SvgjsG1225"><path id="SvgjsPath1226" d="M2622.1305193219873 168.64285332816053L2622.1305193219873 217.89285332816053" stroke="#323232" stroke-width="1.5" fill="none"></path></g><g id="SvgjsG1227" transform="translate(2587.1305193219873,220.4999961853032)"><path id="SvgjsPath1228" d="M 0 35C 0 -11.667 70 -11.667 70 35C 70 81.667 0 81.667 0 35Z" stroke="rgba(255,255,255,1)" stroke-width="1.5" fill-opacity="1" fill="#000000"></path><g id="SvgjsG1229"><text id="SvgjsText1230" font-family="&quot;Microsoft YaHei&quot;, 微软雅黑, Arial" text-anchor="middle" font-size="30px" width="50px" fill="#ffffff" font-weight="400" align="middle" lineHeight="125%" anchor="middle" family="&quot;Microsoft YaHei&quot;, 微软雅黑, Arial" size="30px" weight="400" font-style="" opacity="1" y="9.25" transform="rotate(0)"><tspan id="SvgjsTspan1231" dy="37.5" x="35"><tspan id="SvgjsTspan1232" style="">8</tspan></tspan></text></g></g><g id="SvgjsG1233" transform="translate(2686.65907069615,314.64285332816144)"><path id="SvgjsPath1234" d="M 0 35C 0 -11.667 70 -11.667 70 35C 70 81.667 0 81.667 0 35Z" stroke="rgba(255,255,255,1)" stroke-width="1.5" fill-opacity="1" fill="#000000"></path><g id="SvgjsG1235"><text id="SvgjsText1236" font-family="&quot;Microsoft YaHei&quot;, 微软雅黑, Arial" text-anchor="middle" font-size="30px" width="50px" fill="#ffffff" font-weight="400" align="middle" lineHeight="125%" anchor="middle" family="&quot;Microsoft YaHei&quot;, 微软雅黑, Arial" size="30px" weight="400" font-style="" opacity="1" y="9.25" transform="rotate(0)"><tspan id="SvgjsTspan1237" dy="37.5" x="35"><tspan id="SvgjsTspan1238" style="">12</tspan></tspan></text></g></g><g id="SvgjsG1239"><path id="SvgjsPath1240" d="M2657.6753864108987 256.0153793975069L2756.114203607239 349.12747011595775" stroke="#323232" stroke-width="1.5" fill="none"></path></g><g id="SvgjsG1241" transform="translate(913.3825535849916,345.4999961853023)"><path id="SvgjsPath1242" d="M 0 0L 42.5 0L 42.5 40L 0 40Z" stroke="none" fill="none"></path><g id="SvgjsG1243"><text id="SvgjsText1244" font-family="&quot;Microsoft YaHei&quot;, 微软雅黑, Arial" text-anchor="middle" font-size="30px" width="43px" fill="#323232" font-weight="400" align="middle" lineHeight="125%" anchor="middle" family="&quot;Microsoft YaHei&quot;, 微软雅黑, Arial" size="30px" weight="400" font-style="" opacity="1" y="-5.75" transform="rotate(0)"><tspan id="SvgjsTspan1245" dy="37.5" x="21.5"><tspan id="SvgjsTspan1246" style="">R</tspan></tspan></text></g></g><g id="SvgjsG1247" transform="translate(1036.4317629375157,209.3285576956614)"><path id="SvgjsPath1248" d="M 0 0L 36.167 0L 36.167 40L 0 40Z" stroke="none" fill="none"></path><g id="SvgjsG1249"><text id="SvgjsText1250" font-family="&quot;Microsoft YaHei&quot;, 微软雅黑, Arial" text-anchor="middle" font-size="30px" width="37px" fill="#323232" font-weight="400" align="middle" lineHeight="125%" anchor="middle" family="&quot;Microsoft YaHei&quot;, 微软雅黑, Arial" size="30px" weight="400" font-style="" opacity="1" y="-5.75" transform="rotate(0)"><tspan id="SvgjsTspan1251" dy="37.5" x="18.5"><tspan id="SvgjsTspan1252" style="">S</tspan></tspan></text></g></g><g id="SvgjsG1253" transform="translate(947.9039609394376,91.16665903727221)"><path id="SvgjsPath1254" d="M 0 0L 39.38 0L 39.38 40L 0 40Z" stroke="none" fill="none"></path><g id="SvgjsG1255"><text id="SvgjsText1256" font-family="&quot;Microsoft YaHei&quot;, 微软雅黑, Arial" text-anchor="middle" font-size="30px" width="40px" fill="#323232" font-weight="400" align="middle" lineHeight="125%" anchor="middle" family="&quot;Microsoft YaHei&quot;, 微软雅黑, Arial" size="30px" weight="400" font-style="" opacity="1" y="-5.75" transform="rotate(0)"><tspan id="SvgjsTspan1257" dy="37.5" x="20"><tspan id="SvgjsTspan1258" style="">P</tspan></tspan></text></g></g><g id="SvgjsG1259" transform="translate(1585.650844876729,97.66665903727221)"><path id="SvgjsPath1260" d="M 0 0L 39.38 0L 39.38 40L 0 40Z" stroke="none" fill="none"></path><g id="SvgjsG1261"><text id="SvgjsText1262" font-family="&quot;Microsoft YaHei&quot;, 微软雅黑, Arial" text-anchor="middle" font-size="30px" width="40px" fill="#323232" font-weight="400" align="middle" lineHeight="125%" anchor="middle" family="&quot;Microsoft YaHei&quot;, 微软雅黑, Arial" size="30px" weight="400" font-style="" opacity="1" y="-5.75" transform="rotate(0)"><tspan id="SvgjsTspan1263" dy="37.5" x="20"><tspan id="SvgjsTspan1264" style="">P</tspan></tspan></text></g></g><g id="SvgjsG1265" transform="translate(1664.1976273551827,442.33332951863645)"><path id="SvgjsPath1266" d="M 0 0L 36.167 0L 36.167 40L 0 40Z" stroke="none" fill="none"></path><g id="SvgjsG1267"><text id="SvgjsText1268" font-family="&quot;Microsoft YaHei&quot;, 微软雅黑, Arial" text-anchor="middle" font-size="30px" width="37px" fill="#323232" font-weight="400" align="middle" lineHeight="125%" anchor="middle" family="&quot;Microsoft YaHei&quot;, 微软雅黑, Arial" size="30px" weight="400" font-style="" opacity="1" y="-5.75" transform="rotate(0)"><tspan id="SvgjsTspan1269" dy="37.5" x="18.5"><tspan id="SvgjsTspan1270" style="">S</tspan></tspan></text></g></g><g id="SvgjsG1271" transform="translate(1565.2420643397743,386.4999961853032)"><path id="SvgjsPath1272" d="M 0 0L 42.5 0L 42.5 40L 0 40Z" stroke="none" fill="none"></path><g id="SvgjsG1273"><text id="SvgjsText1274" font-family="&quot;Microsoft YaHei&quot;, 微软雅黑, Arial" text-anchor="middle" font-size="30px" width="43px" fill="#323232" font-weight="400" align="middle" lineHeight="125%" anchor="middle" family="&quot;Microsoft YaHei&quot;, 微软雅黑, Arial" size="30px" weight="400" font-style="" opacity="1" y="-5.75" transform="rotate(0)"><tspan id="SvgjsTspan1275" dy="37.5" x="21.5"><tspan id="SvgjsTspan1276" style="">R</tspan></tspan></text></g></g><g id="SvgjsG1277"><path id="SvgjsPath1278" d="M2586.6412014547154 256.0683869177826L2536.7047622807145 314.074462595682" stroke="#323232" stroke-width="1.5" fill="none"></path></g><g id="SvgjsG1279"><path id="SvgjsPath1280" d="M2185.1333523704893 255.4999961853032L2385.7569358462383 255.4999961853032L2385.7569358462383 255.4999961853032L2586.3805193219873 255.4999961853032" stroke-dasharray="1.5,2.25" stroke="#323232" stroke-width="1.5" fill="none"></path></g><g id="SvgjsG1281" transform="translate(2283.911903744652,149.32855769566152)"><path id="SvgjsPath1282" d="M 0 19.8L 232.707 19.8L 232.707 0L 262.707 30L 232.707 60L 232.707 40.2L 0 40.2L 0 19.8Z" stroke="rgba(33,41,48,1)" stroke-width="1.5" fill-opacity="1" fill="#ffffff"></path><g id="SvgjsG1283"><text id="SvgjsText1284" font-family="&quot;Microsoft YaHei&quot;, 微软雅黑, Arial" text-anchor="middle" font-size="13px" width="263px" fill="#323232" font-weight="400" align="middle" lineHeight="125%" anchor="middle" family="&quot;Microsoft YaHei&quot;, 微软雅黑, Arial" size="13px" weight="400" font-style="" opacity="1" y="19.375" transform="rotate(0)"></text></g></g><g id="SvgjsG1285" transform="translate(2307.661903744652,125.99999618530285)"><path id="SvgjsPath1286" d="M 0 0L 171.429 0L 171.429 40L 0 40Z" stroke="none" fill="none"></path><g id="SvgjsG1287"><text id="SvgjsText1288" font-family="&quot;Microsoft YaHei&quot;, 微软雅黑, Arial" text-anchor="middle" font-size="30px" width="172px" fill="#323232" font-weight="400" align="middle" lineHeight="125%" anchor="middle" family="&quot;Microsoft YaHei&quot;, 微软雅黑, Arial" size="30px" weight="400" font-style="" opacity="1" y="-5.75" transform="rotate(0)"><tspan id="SvgjsTspan1289" dy="37.5" x="86"><tspan id="SvgjsTspan1290" style="">左旋P节点</tspan></tspan></text></g></g><g id="SvgjsG1291" transform="translate(2861.2368633936326,314.64285332816144)"><path id="SvgjsPath1292" d="M 0 35C 0 -11.667 70 -11.667 70 35C 70 81.667 0 81.667 0 35Z" stroke="rgba(255,255,255,1)" stroke-width="1.5" fill-opacity="1" fill="#000000"></path><g id="SvgjsG1293"><text id="SvgjsText1294" font-family="&quot;Microsoft YaHei&quot;, 微软雅黑, Arial" text-anchor="middle" font-size="30px" width="50px" fill="#ffffff" font-weight="400" align="middle" lineHeight="125%" anchor="middle" family="&quot;Microsoft YaHei&quot;, 微软雅黑, Arial" size="30px" weight="400" font-style="" opacity="1" y="9.25" transform="rotate(0)"><tspan id="SvgjsTspan1295" dy="37.5" x="35"><tspan id="SvgjsTspan1296" style="">6</tspan></tspan></text></g></g><g id="SvgjsG1297"><path id="SvgjsPath1298" d="M2982.1519383021773 168.64285332816075L2982.1519383021773 219.74999618530342" stroke="#323232" stroke-width="1.5" fill="none"></path></g><g id="SvgjsG1299" transform="translate(2947.1519383021773,220.49999618530342)"><path id="SvgjsPath1300" d="M 0 35C 0 -11.667 70 -11.667 70 35C 70 81.667 0 81.667 0 35Z" stroke="rgba(255,255,255,1)" stroke-width="1.5" fill-opacity="1" fill="#000000"></path><g id="SvgjsG1301"><text id="SvgjsText1302" font-family="&quot;Microsoft YaHei&quot;, 微软雅黑, Arial" text-anchor="middle" font-size="30px" width="50px" fill="#ffffff" font-weight="400" align="middle" lineHeight="125%" anchor="middle" family="&quot;Microsoft YaHei&quot;, 微软雅黑, Arial" size="30px" weight="400" font-style="" opacity="1" y="9.25" transform="rotate(0)"><tspan id="SvgjsTspan1303" dy="37.5" x="35"><tspan id="SvgjsTspan1304" style="">8</tspan></tspan></text></g></g><g id="SvgjsG1305" transform="translate(3046.68048967634,314.64285332816144)"><path id="SvgjsPath1306" d="M 0 35C 0 -11.667 70 -11.667 70 35C 70 81.667 0 81.667 0 35Z" stroke="rgba(255,255,255,1)" stroke-width="1.5" fill-opacity="1" fill="#000000"></path><g id="SvgjsG1307"><text id="SvgjsText1308" font-family="&quot;Microsoft YaHei&quot;, 微软雅黑, Arial" text-anchor="middle" font-size="30px" width="50px" fill="#ffffff" font-weight="400" align="middle" lineHeight="125%" anchor="middle" family="&quot;Microsoft YaHei&quot;, 微软雅黑, Arial" size="30px" weight="400" font-style="" opacity="1" y="9.25" transform="rotate(0)"><tspan id="SvgjsTspan1309" dy="37.5" x="35"><tspan id="SvgjsTspan1310" style="">12</tspan></tspan></text></g></g><g id="SvgjsG1311"><path id="SvgjsPath1312" d="M3017.6968053910887 256.0153793975069L3116.1356225874288 349.12747011595775" stroke="#323232" stroke-width="1.5" fill="none"></path></g><g id="SvgjsG1313"><path id="SvgjsPath1314" d="M2946.6626204349054 256.0683869177826L2896.7261812609045 314.074462595682" stroke="#323232" stroke-width="1.5" fill="none"></path></g><g id="SvgjsG1315" transform="translate(2763.9479670448914,225.4999961853032)"><path id="SvgjsPath1316" d="M 0 19.8L 60 19.8L 60 0L 90 30L 60 60L 60 40.2L 0 40.2L 0 19.8Z" stroke="rgba(33,41,48,1)" stroke-width="1.5" fill-opacity="1" fill="#ffffff"></path><g id="SvgjsG1317"><text id="SvgjsText1318" font-family="&quot;Microsoft YaHei&quot;, 微软雅黑, Arial" text-anchor="middle" font-size="13px" width="90px" fill="#323232" font-weight="400" align="middle" lineHeight="125%" anchor="middle" family="&quot;Microsoft YaHei&quot;, 微软雅黑, Arial" size="13px" weight="400" font-style="" opacity="1" y="19.375" transform="rotate(0)"></text></g></g><g id="SvgjsG1319" transform="translate(25,198.07142475673163)"><path id="SvgjsPath1320" d="M 0 0L 107.333 0L 123.333 16L 123.333 66.583L 0 66.583L 0 0Z" stroke="none" fill-opacity="1" fill="#fff7bc"></path><path id="SvgjsPath1321" d="M 107.333 0L 107.333 16L 123.333 16Z" stroke="none" fill-opacity="1" fill="#e4d089"></path><path id="SvgjsPath1322" d="M 0 0L 107.333 0L 123.333 16L 123.333 66.583L 0 66.583L 0 0Z" stroke="none" fill="none"></path><g id="SvgjsG1323"><text id="SvgjsText1324" font-family="&quot;Microsoft YaHei&quot;, 微软雅黑, Arial" text-anchor="middle" font-size="30px" width="104px" fill="#323232" font-weight="400" align="middle" lineHeight="125%" anchor="middle" family="&quot;Microsoft YaHei&quot;, 微软雅黑, Arial" size="30px" weight="400" font-style="" opacity="1" y="7.541499999999999" transform="rotate(0)"><tspan id="SvgjsTspan1325" dy="37.5" x="62"><tspan id="SvgjsTspan1326" style="">RL</tspan></tspan></text></g></g><g id="SvgjsG1327" transform="translate(1990.650844876729,85.99999618530285)"><path id="SvgjsPath1328" d="M 0 0L 39.38 0L 39.38 40L 0 40Z" stroke="none" fill="none"></path><g id="SvgjsG1329"><text id="SvgjsText1330" font-family="&quot;Microsoft YaHei&quot;, 微软雅黑, Arial" text-anchor="middle" font-size="30px" width="40px" fill="#323232" font-weight="400" align="middle" lineHeight="125%" anchor="middle" family="&quot;Microsoft YaHei&quot;, 微软雅黑, Arial" size="30px" weight="400" font-style="" opacity="1" y="-5.75" transform="rotate(0)"><tspan id="SvgjsTspan1331" dy="37.5" x="20"><tspan id="SvgjsTspan1332" style="">P</tspan></tspan></text></g></g><g id="SvgjsG1333" transform="translate(2465.595429314508,303.3571390424461)"><path id="SvgjsPath1334" d="M 0 0L 39.38 0L 39.38 40L 0 40Z" stroke="none" fill="none"></path><g id="SvgjsG1335"><text id="SvgjsText1336" font-family="&quot;Microsoft YaHei&quot;, 微软雅黑, Arial" text-anchor="middle" font-size="30px" width="40px" fill="#323232" font-weight="400" align="middle" lineHeight="125%" anchor="middle" family="&quot;Microsoft YaHei&quot;, 微软雅黑, Arial" size="30px" weight="400" font-style="" opacity="1" y="-5.75" transform="rotate(0)"><tspan id="SvgjsTspan1337" dy="37.5" x="20"><tspan id="SvgjsTspan1338" style="">P</tspan></tspan></text></g></g><g id="SvgjsG1339" transform="translate(2571.2154444134426,185.4999961853032)"><path id="SvgjsPath1340" d="M 0 0L 42.5 0L 42.5 40L 0 40Z" stroke="none" fill="none"></path><g id="SvgjsG1341"><text id="SvgjsText1342" font-family="&quot;Microsoft YaHei&quot;, 微软雅黑, Arial" text-anchor="middle" font-size="30px" width="43px" fill="#323232" font-weight="400" align="middle" lineHeight="125%" anchor="middle" family="&quot;Microsoft YaHei&quot;, 微软雅黑, Arial" size="30px" weight="400" font-style="" opacity="1" y="-5.75" transform="rotate(0)"><tspan id="SvgjsTspan1343" dy="37.5" x="21.5"><tspan id="SvgjsTspan1344" style="">R</tspan></tspan></text></g></g><g id="SvgjsG1345" transform="translate(2657.1305193219873,360.4999961853023)"><path id="SvgjsPath1346" d="M 0 0L 36.167 0L 36.167 40L 0 40Z" stroke="none" fill="none"></path><g id="SvgjsG1347"><text id="SvgjsText1348" font-family="&quot;Microsoft YaHei&quot;, 微软雅黑, Arial" text-anchor="middle" font-size="30px" width="37px" fill="#323232" font-weight="400" align="middle" lineHeight="125%" anchor="middle" family="&quot;Microsoft YaHei&quot;, 微软雅黑, Arial" size="30px" weight="400" font-style="" opacity="1" y="-5.75" transform="rotate(0)"><tspan id="SvgjsTspan1349" dy="37.5" x="18.5"><tspan id="SvgjsTspan1350" style="">S</tspan></tspan></text></g></g><g id="SvgjsG1351" transform="translate(2171.411903744652,195.99999618530285)"><path id="SvgjsPath1352" d="M 0 0L 42.5 0L 42.5 40L 0 40Z" stroke="none" fill="none"></path><g id="SvgjsG1353"><text id="SvgjsText1354" font-family="&quot;Microsoft YaHei&quot;, 微软雅黑, Arial" text-anchor="middle" font-size="30px" width="43px" fill="#323232" font-weight="400" align="middle" lineHeight="125%" anchor="middle" family="&quot;Microsoft YaHei&quot;, 微软雅黑, Arial" size="30px" weight="400" font-style="" opacity="1" y="-5.75" transform="rotate(0)"><tspan id="SvgjsTspan1355" dy="37.5" x="21.5"><tspan id="SvgjsTspan1356" style="">R</tspan></tspan></text></g></g><g id="SvgjsG1357"></g></svg>