<svg id="SvgjsSvg1006" width="1417.387667887668" height="623.2820512820513" xmlns="http://www.w3.org/2000/svg" version="1.1" xmlns:xlink="http://www.w3.org/1999/xlink" xmlns:svgjs="http://svgjs.com/svgjs"><defs id="SvgjsDefs1007"><pattern patternUnits="userSpaceOnUse" id="pattern_mark_0" width="300" height="300"><text x="150" y="100" fill="rgba(229,229,229,0.8)" font-size="18" transform="rotate(-45, 150, 150)" style="dominant-baseline: middle; text-anchor: middle;"></text></pattern><pattern patternUnits="userSpaceOnUse" id="pattern_mark_1" width="300" height="300"><text x="150" y="200" fill="rgba(229,229,229,0.8)" font-size="18" transform="rotate(-45, 150, 150)" style="dominant-baseline: middle; text-anchor: middle;"></text></pattern></defs><rect id="svgbackgroundid" width="1417.387667887668" height="623.2820512820513" fill="transparent"></rect><rect id="SvgjsRect1009" width="1417.387667887668" height="623.2820512820513" fill="url(#pattern_mark_0)"></rect><rect id="SvgjsRect1010" width="1417.387667887668" height="623.2820512820513" fill="url(#pattern_mark_1)"></rect><g id="SvgjsG1011" transform="translate(413.1538461538463,157.66025641025635)"><path id="SvgjsPath1012" d="M 0 4Q 0 0 4 0L 92 0Q 96 0 96 4L 96 83.019Q 96 87.019 92 87.019L 4 87.019Q 0 87.019 0 83.019Z" stroke-dasharray="4,6" stroke="rgba(70,105,234,1)" stroke-width="4" fill-opacity="1" fill="#ffffff"></path><g id="SvgjsG1013"><text id="SvgjsText1014" font-family="&quot;Microsoft YaHei&quot;, 微软雅黑, Arial" text-anchor="middle" font-size="13px" width="76px" fill="#323232" font-weight="400" align="middle" lineHeight="125%" anchor="middle" family="&quot;Microsoft YaHei&quot;, 微软雅黑, Arial" size="13px" weight="400" font-style="" opacity="1" y="32.8845" transform="rotate(0)"></text></g></g><g id="SvgjsG1015" transform="translate(311.576923076923,115.92948717948724)"><path id="SvgjsPath1016" d="M 0 29.75C 0 -9.917 60.5 -9.917 60.5 29.75C 60.5 69.417 0 69.417 0 29.75Z" stroke="rgba(255,255,255,1)" stroke-width="1.5" fill-opacity="1" fill="#000000"></path><g id="SvgjsG1017"><text id="SvgjsText1018" font-family="&quot;Microsoft YaHei&quot;, 微软雅黑, Arial" text-anchor="middle" font-size="30px" width="41px" fill="#ffffff" font-weight="400" align="middle" lineHeight="125%" anchor="middle" family="&quot;Microsoft YaHei&quot;, 微软雅黑, Arial" size="30px" weight="400" font-style="" opacity="1" y="4" transform="rotate(0)"><tspan id="SvgjsTspan1019" dy="37.5" x="30.5"><tspan id="SvgjsTspan1020" style="">7</tspan></tspan></text></g></g><g id="SvgjsG1021" transform="translate(187.73076923076906,175.42948717948724)"><path id="SvgjsPath1022" d="M 0 29.75C 0 -9.917 60.5 -9.917 60.5 29.75C 60.5 69.417 0 69.417 0 29.75Z" stroke="rgba(255,255,255,1)" stroke-width="1.5" fill-opacity="1" fill="#000000"></path><g id="SvgjsG1023"><text id="SvgjsText1024" font-family="&quot;Microsoft YaHei&quot;, 微软雅黑, Arial" text-anchor="middle" font-size="30px" width="41px" fill="#ffffff" font-weight="400" align="middle" lineHeight="125%" anchor="middle" family="&quot;Microsoft YaHei&quot;, 微软雅黑, Arial" size="30px" weight="400" font-style="" opacity="1" y="4" transform="rotate(0)"><tspan id="SvgjsTspan1025" dy="37.5" x="30.5"><tspan id="SvgjsTspan1026" style="">5</tspan></tspan></text></g></g><g id="SvgjsG1027" transform="translate(430.0384615384613,175.42948717948724)"><path id="SvgjsPath1028" d="M 0 29.75C 0 -9.917 60.5 -9.917 60.5 29.75C 60.5 69.417 0 69.417 0 29.75Z" stroke="rgba(255,255,255,1)" stroke-width="1.5" fill-opacity="1" fill="#000000"></path><g id="SvgjsG1029"><text id="SvgjsText1030" font-family="&quot;Microsoft YaHei&quot;, 微软雅黑, Arial" text-anchor="middle" font-size="30px" width="41px" fill="#ffffff" font-weight="400" align="middle" lineHeight="125%" anchor="middle" family="&quot;Microsoft YaHei&quot;, 微软雅黑, Arial" size="30px" weight="400" font-style="" opacity="1" y="4" transform="rotate(0)"><tspan id="SvgjsTspan1031" dy="37.5" x="30.5"><tspan id="SvgjsTspan1032" style="">12</tspan></tspan></text></g></g><g id="SvgjsG1033" transform="translate(69.03846153846132,234.92948717948713)"><path id="SvgjsPath1034" d="M 0 29.75C 0 -9.917 60.5 -9.917 60.5 29.75C 60.5 69.417 0 69.417 0 29.75Z" stroke="rgba(255,255,255,1)" stroke-width="1.5" fill-opacity="1" fill="#e60c0c"></path><g id="SvgjsG1035"><text id="SvgjsText1036" font-family="&quot;Microsoft YaHei&quot;, 微软雅黑, Arial" text-anchor="middle" font-size="30px" width="41px" fill="#ffffff" font-weight="400" align="middle" lineHeight="125%" anchor="middle" family="&quot;Microsoft YaHei&quot;, 微软雅黑, Arial" size="30px" weight="400" font-style="" opacity="1" y="4" transform="rotate(0)"><tspan id="SvgjsTspan1037" dy="37.5" x="30.5"><tspan id="SvgjsTspan1038" style="">2</tspan></tspan></text></g></g><g id="SvgjsG1039"><path id="SvgjsPath1040" d="M310.8621612679484 145.90667775242412L218.69553103974363 175.20229660655036" stroke="#323232" stroke-width="1.5" fill="none"></path></g><g id="SvgjsG1041"><path id="SvgjsPath1042" d="M187.01990861046806 205.41860467885778L99.99932215876231 234.69036968011648" stroke="#323232" stroke-width="1.5" fill="none"></path></g><g id="SvgjsG1043"><path id="SvgjsPath1044" d="M372.78759449273116 145.9191664208771L459.57779012265314 175.18980793809737" stroke="#323232" stroke-width="1.5" fill="none"></path></g><g id="SvgjsG1045" transform="translate(587.6080586080586,251.45421245421244)"><path id="SvgjsPath1046" d="M 0 0L 205.628 0L 205.628 52.725L 0 52.725Z" stroke="none" fill="none"></path><g id="SvgjsG1047"><text id="SvgjsText1048" font-family="&quot;Microsoft YaHei&quot;, 微软雅黑, Arial" text-anchor="middle" font-size="30px" width="206px" fill="#323232" font-weight="400" align="middle" lineHeight="125%" anchor="middle" family="&quot;Microsoft YaHei&quot;, 微软雅黑, Arial" size="30px" weight="400" font-style="" opacity="1" y="0.6125000000000007" transform="rotate(0)"><tspan id="SvgjsTspan1049" dy="37.5" x="103"><tspan id="SvgjsTspan1050" style="">变色</tspan></tspan></text></g></g><g id="SvgjsG1051" transform="translate(25,244.67948717948718)"><path id="SvgjsPath1052" d="M 0 0L 38.462 0L 38.462 40L 0 40Z" stroke="none" fill="none"></path><g id="SvgjsG1053"><text id="SvgjsText1054" font-family="&quot;Microsoft YaHei&quot;, 微软雅黑, Arial" text-anchor="middle" font-size="30px" width="39px" fill="#323232" font-weight="400" align="middle" lineHeight="125%" anchor="middle" family="&quot;Microsoft YaHei&quot;, 微软雅黑, Arial" size="30px" weight="400" font-style="" opacity="1" y="-5.75" transform="rotate(0)"><tspan id="SvgjsTspan1055" dy="37.5" x="19.5"><tspan id="SvgjsTspan1056" style="">R</tspan></tspan></text></g></g><g id="SvgjsG1057" transform="translate(161.7499999999999,150.50641025641028)"><path id="SvgjsPath1058" d="M 0 0L 39.231 0L 39.231 40L 0 40Z" stroke="none" fill="none"></path><g id="SvgjsG1059"><text id="SvgjsText1060" font-family="&quot;Microsoft YaHei&quot;, 微软雅黑, Arial" text-anchor="middle" font-size="30px" width="40px" fill="#323232" font-weight="400" align="middle" lineHeight="125%" anchor="middle" family="&quot;Microsoft YaHei&quot;, 微软雅黑, Arial" size="30px" weight="400" font-style="" opacity="1" y="-5.75" transform="rotate(0)"><tspan id="SvgjsTspan1061" dy="37.5" x="20"><tspan id="SvgjsTspan1062" style="">S</tspan></tspan></text></g></g><g id="SvgjsG1063" transform="translate(285.7692307692306,86.69871794871801)"><path id="SvgjsPath1064" d="M 0 0L 33.077 0L 33.077 29.231L 0 29.231Z" stroke="none" fill="none"></path><g id="SvgjsG1065"><text id="SvgjsText1066" font-family="&quot;Microsoft YaHei&quot;, 微软雅黑, Arial" text-anchor="middle" font-size="30px" width="34px" fill="#323232" font-weight="400" align="middle" lineHeight="125%" anchor="middle" family="&quot;Microsoft YaHei&quot;, 微软雅黑, Arial" size="30px" weight="400" font-style="" opacity="1" y="-11.1345" transform="rotate(0)"><tspan id="SvgjsTspan1067" dy="37.5" x="17"><tspan id="SvgjsTspan1068" style="">P</tspan></tspan></text></g></g><g id="SvgjsG1069" transform="translate(1260.0744810744811,138.17948717948713)"><path id="SvgjsPath1070" d="M 0 4Q 0 0 4 0L 92 0Q 96 0 96 4L 96 83.019Q 96 87.019 92 87.019L 4 87.019Q 0 87.019 0 83.019Z" stroke-dasharray="4,6" stroke="rgba(70,105,234,1)" stroke-width="4" fill-opacity="1" fill="#ffffff"></path><g id="SvgjsG1071"><text id="SvgjsText1072" font-family="&quot;Microsoft YaHei&quot;, 微软雅黑, Arial" text-anchor="middle" font-size="13px" width="76px" fill="#323232" font-weight="400" align="middle" lineHeight="125%" anchor="middle" family="&quot;Microsoft YaHei&quot;, 微软雅黑, Arial" size="13px" weight="400" font-style="" opacity="1" y="32.8845" transform="rotate(0)"></text></g></g><g id="SvgjsG1073" transform="translate(1158.4975579975578,96.44871794871801)"><path id="SvgjsPath1074" d="M 0 29.75C 0 -9.917 60.5 -9.917 60.5 29.75C 60.5 69.417 0 69.417 0 29.75Z" stroke="rgba(255,255,255,1)" stroke-width="1.5" fill-opacity="1" fill="#000000"></path><g id="SvgjsG1075"><text id="SvgjsText1076" font-family="&quot;Microsoft YaHei&quot;, 微软雅黑, Arial" text-anchor="middle" font-size="30px" width="41px" fill="#ffffff" font-weight="400" align="middle" lineHeight="125%" anchor="middle" family="&quot;Microsoft YaHei&quot;, 微软雅黑, Arial" size="30px" weight="400" font-style="" opacity="1" y="4" transform="rotate(0)"><tspan id="SvgjsTspan1077" dy="37.5" x="30.5"><tspan id="SvgjsTspan1078" style="">7</tspan></tspan></text></g></g><g id="SvgjsG1079" transform="translate(1034.651404151404,155.94871794871796)"><path id="SvgjsPath1080" d="M 0 29.75C 0 -9.917 60.5 -9.917 60.5 29.75C 60.5 69.417 0 69.417 0 29.75Z" stroke="rgba(255,255,255,1)" stroke-width="1.5" fill-opacity="1" fill="#000000"></path><g id="SvgjsG1081"><text id="SvgjsText1082" font-family="&quot;Microsoft YaHei&quot;, 微软雅黑, Arial" text-anchor="middle" font-size="30px" width="41px" fill="#ffffff" font-weight="400" align="middle" lineHeight="125%" anchor="middle" family="&quot;Microsoft YaHei&quot;, 微软雅黑, Arial" size="30px" weight="400" font-style="" opacity="1" y="4" transform="rotate(0)"><tspan id="SvgjsTspan1083" dy="37.5" x="30.5"><tspan id="SvgjsTspan1084" style="">5</tspan></tspan></text></g></g><g id="SvgjsG1085" transform="translate(1276.9590964590964,155.94871794871796)"><path id="SvgjsPath1086" d="M 0 29.75C 0 -9.917 60.5 -9.917 60.5 29.75C 60.5 69.417 0 69.417 0 29.75Z" stroke="rgba(0,0,0,1)" stroke-width="3" fill-opacity="1" fill="#ffffff"></path><g id="SvgjsG1087"><text id="SvgjsText1088" font-family="&quot;Microsoft YaHei&quot;, 微软雅黑, Arial" text-anchor="middle" font-size="30px" width="41px" fill="#ffffff" font-weight="400" align="middle" lineHeight="125%" anchor="middle" family="&quot;Microsoft YaHei&quot;, 微软雅黑, Arial" size="30px" weight="400" font-style="" opacity="1" y="4" transform="rotate(0)"><tspan id="SvgjsTspan1089" dy="37.5" x="30.5"><tspan id="SvgjsTspan1090" style="">12</tspan></tspan></text></g></g><g id="SvgjsG1091" transform="translate(915.9590964590964,215.44871794871796)"><path id="SvgjsPath1092" d="M 0 29.75C 0 -9.917 60.5 -9.917 60.5 29.75C 60.5 69.417 0 69.417 0 29.75Z" stroke="rgba(255,255,255,1)" stroke-width="1.5" fill-opacity="1" fill="#000000"></path><g id="SvgjsG1093"><text id="SvgjsText1094" font-family="&quot;Microsoft YaHei&quot;, 微软雅黑, Arial" text-anchor="middle" font-size="30px" width="41px" fill="#ffffff" font-weight="400" align="middle" lineHeight="125%" anchor="middle" family="&quot;Microsoft YaHei&quot;, 微软雅黑, Arial" size="30px" weight="400" font-style="" opacity="1" y="4" transform="rotate(0)"><tspan id="SvgjsTspan1095" dy="37.5" x="30.5"><tspan id="SvgjsTspan1096" style="">2</tspan></tspan></text></g></g><g id="SvgjsG1097"><path id="SvgjsPath1098" d="M1157.7827961885832 126.42590852165495L1065.6161659603786 155.72152737578108" stroke="#323232" stroke-width="1.5" fill="none"></path></g><g id="SvgjsG1099"><path id="SvgjsPath1100" d="M1033.940543531103 185.9378354480885L946.9199570793974 215.2096004493473" stroke="#323232" stroke-width="1.5" fill="none"></path></g><g id="SvgjsG1101"><path id="SvgjsPath1102" d="M1219.7082294133659 126.43839719010793L1305.78775362748 155.46935946593828" stroke="#323232" stroke-width="1.5" fill="none"></path></g><g id="SvgjsG1103" transform="translate(871.9206349206349,225.1987179487179)"><path id="SvgjsPath1104" d="M 0 0L 38.462 0L 38.462 40L 0 40Z" stroke="none" fill="none"></path><g id="SvgjsG1105"><text id="SvgjsText1106" font-family="&quot;Microsoft YaHei&quot;, 微软雅黑, Arial" text-anchor="middle" font-size="30px" width="39px" fill="#323232" font-weight="400" align="middle" lineHeight="125%" anchor="middle" family="&quot;Microsoft YaHei&quot;, 微软雅黑, Arial" size="30px" weight="400" font-style="" opacity="1" y="-5.75" transform="rotate(0)"><tspan id="SvgjsTspan1107" dy="37.5" x="19.5"><tspan id="SvgjsTspan1108" style="">R</tspan></tspan></text></g></g><g id="SvgjsG1109" transform="translate(1008.6706349206349,131.02564102564105)"><path id="SvgjsPath1110" d="M 0 0L 39.231 0L 39.231 40L 0 40Z" stroke="none" fill="none"></path><g id="SvgjsG1111"><text id="SvgjsText1112" font-family="&quot;Microsoft YaHei&quot;, 微软雅黑, Arial" text-anchor="middle" font-size="30px" width="40px" fill="#323232" font-weight="400" align="middle" lineHeight="125%" anchor="middle" family="&quot;Microsoft YaHei&quot;, 微软雅黑, Arial" size="30px" weight="400" font-style="" opacity="1" y="-5.75" transform="rotate(0)"><tspan id="SvgjsTspan1113" dy="37.5" x="20"><tspan id="SvgjsTspan1114" style="">S</tspan></tspan></text></g></g><g id="SvgjsG1115" transform="translate(1141.6898656898654,67.21794871794879)"><path id="SvgjsPath1116" d="M 0 0L 33.077 0L 33.077 29.231L 0 29.231Z" stroke="none" fill="none"></path><g id="SvgjsG1117"><text id="SvgjsText1118" font-family="&quot;Microsoft YaHei&quot;, 微软雅黑, Arial" text-anchor="middle" font-size="30px" width="34px" fill="#323232" font-weight="400" align="middle" lineHeight="125%" anchor="middle" family="&quot;Microsoft YaHei&quot;, 微软雅黑, Arial" size="30px" weight="400" font-style="" opacity="1" y="-11.1345" transform="rotate(0)"><tspan id="SvgjsTspan1119" dy="37.5" x="17"><tspan id="SvgjsTspan1120" style="">P</tspan></tspan></text></g></g><g id="SvgjsG1121" transform="translate(587.6080586080586,117.29761904761892)"><path id="SvgjsPath1122" d="M 0 0L 251.429 0L 251.429 113L 0 113Z" stroke="none" fill="none"></path><g id="SvgjsG1123"><text id="SvgjsText1124" font-family="&quot;Microsoft YaHei&quot;, 微软雅黑, Arial" text-anchor="middle" font-size="30px" width="252px" fill="#323232" font-weight="400" align="middle" lineHeight="125%" anchor="middle" family="&quot;Microsoft YaHei&quot;, 微软雅黑, Arial" size="30px" weight="400" font-style="" opacity="1" y="-6.75" transform="rotate(0)"><tspan id="SvgjsTspan1125" dy="37.5" x="126"><tspan id="SvgjsTspan1126" style="">R 变成S的颜色,</tspan></tspan><tspan id="SvgjsTspan1127" dy="37.5" x="126"><tspan id="SvgjsTspan1128" style="">S 变成P的颜色,</tspan></tspan><tspan id="SvgjsTspan1129" dy="37.5" x="126"><tspan id="SvgjsTspan1130" style="">P 变成黑色      </tspan></tspan></text></g></g><g id="SvgjsG1131" transform="translate(576.6556776556779,214.16025641025647)"><path id="SvgjsPath1132" d="M 0 19.8L 251.111 19.8L 251.111 0L 281.111 30L 251.111 60L 251.111 40.2L 0 40.2L 0 19.8Z" stroke="rgba(33,41,48,1)" stroke-width="1.5" fill-opacity="1" fill="#ffffff"></path><g id="SvgjsG1133"><text id="SvgjsText1134" font-family="&quot;Microsoft YaHei&quot;, 微软雅黑, Arial" text-anchor="middle" font-size="13px" width="282px" fill="#323232" font-weight="400" align="middle" lineHeight="125%" anchor="middle" family="&quot;Microsoft YaHei&quot;, 微软雅黑, Arial" size="13px" weight="400" font-style="" opacity="1" y="19.375" transform="rotate(0)"></text></g></g><g id="SvgjsG1135" transform="translate(375.97527472527497,254.429487179487)"><path id="SvgjsPath1136" d="M 0 0L 170.357 0L 170.357 40L 0 40Z" stroke="none" fill="none"></path><g id="SvgjsG1137"><text id="SvgjsText1138" font-family="&quot;Microsoft YaHei&quot;, 微软雅黑, Arial" text-anchor="middle" font-size="30px" width="171px" fill="#323232" font-weight="400" align="middle" lineHeight="125%" anchor="middle" family="&quot;Microsoft YaHei&quot;, 微软雅黑, Arial" size="30px" weight="400" font-style="" opacity="1" y="-5.75" transform="rotate(0)"><tspan id="SvgjsTspan1139" dy="37.5" x="85.5"><tspan id="SvgjsTspan1140" style="">被移除节点</tspan></tspan></text></g></g><g id="SvgjsG1141" transform="translate(1222.030525030525,225.1987179487179)"><path id="SvgjsPath1142" d="M 0 0L 170.357 0L 170.357 40L 0 40Z" stroke="none" fill="none"></path><g id="SvgjsG1143"><text id="SvgjsText1144" font-family="&quot;Microsoft YaHei&quot;, 微软雅黑, Arial" text-anchor="middle" font-size="30px" width="171px" fill="#323232" font-weight="400" align="middle" lineHeight="125%" anchor="middle" family="&quot;Microsoft YaHei&quot;, 微软雅黑, Arial" size="30px" weight="400" font-style="" opacity="1" y="-5.75" transform="rotate(0)"><tspan id="SvgjsTspan1145" dy="37.5" x="85.5"><tspan id="SvgjsTspan1146" style="">被移除节点</tspan></tspan></text></g></g><g id="SvgjsG1147"><path id="SvgjsPath1148" d="M341.826923076923 115.17948717948724L341.826923076923 32.583333333333314" stroke="#323232" stroke-width="1.5" fill="none"></path></g><g id="SvgjsG1149"><path id="SvgjsPath1150" d="M1188.7475579975578 95.69871794871801L1188.7475579975578 25" stroke="#323232" stroke-width="1.5" fill="none"></path></g><g id="SvgjsG1151" transform="translate(1260.0744810744811,461.5128205128206)"><path id="SvgjsPath1152" d="M 0 4Q 0 0 4 0L 92 0Q 96 0 96 4L 96 83.019Q 96 87.019 92 87.019L 4 87.019Q 0 87.019 0 83.019Z" stroke-dasharray="4,6" stroke="rgba(70,105,234,1)" stroke-width="4" fill-opacity="1" fill="#ffffff"></path><g id="SvgjsG1153"><text id="SvgjsText1154" font-family="&quot;Microsoft YaHei&quot;, 微软雅黑, Arial" text-anchor="middle" font-size="13px" width="76px" fill="#323232" font-weight="400" align="middle" lineHeight="125%" anchor="middle" family="&quot;Microsoft YaHei&quot;, 微软雅黑, Arial" size="13px" weight="400" font-style="" opacity="1" y="32.8845" transform="rotate(0)"></text></g></g><g id="SvgjsG1155" transform="translate(1153.3437118437116,538.7820512820513)"><path id="SvgjsPath1156" d="M 0 29.75C 0 -9.917 60.5 -9.917 60.5 29.75C 60.5 69.417 0 69.417 0 29.75Z" stroke="rgba(255,255,255,1)" stroke-width="1.5" fill-opacity="1" fill="#000000"></path><g id="SvgjsG1157"><text id="SvgjsText1158" font-family="&quot;Microsoft YaHei&quot;, 微软雅黑, Arial" text-anchor="middle" font-size="30px" width="41px" fill="#ffffff" font-weight="400" align="middle" lineHeight="125%" anchor="middle" family="&quot;Microsoft YaHei&quot;, 微软雅黑, Arial" size="30px" weight="400" font-style="" opacity="1" y="4" transform="rotate(0)"><tspan id="SvgjsTspan1159" dy="37.5" x="30.5"><tspan id="SvgjsTspan1160" style="">7</tspan></tspan></text></g></g><g id="SvgjsG1161" transform="translate(1034.651404151404,479.2820512820513)"><path id="SvgjsPath1162" d="M 0 29.75C 0 -9.917 60.5 -9.917 60.5 29.75C 60.5 69.417 0 69.417 0 29.75Z" stroke="rgba(255,255,255,1)" stroke-width="1.5" fill-opacity="1" fill="#000000"></path><g id="SvgjsG1163"><text id="SvgjsText1164" font-family="&quot;Microsoft YaHei&quot;, 微软雅黑, Arial" text-anchor="middle" font-size="30px" width="41px" fill="#ffffff" font-weight="400" align="middle" lineHeight="125%" anchor="middle" family="&quot;Microsoft YaHei&quot;, 微软雅黑, Arial" size="30px" weight="400" font-style="" opacity="1" y="4" transform="rotate(0)"><tspan id="SvgjsTspan1165" dy="37.5" x="30.5"><tspan id="SvgjsTspan1166" style="">5</tspan></tspan></text></g></g><g id="SvgjsG1167" transform="translate(1276.9590964590964,479.2820512820513)"><path id="SvgjsPath1168" d="M 0 29.75C 0 -9.917 60.5 -9.917 60.5 29.75C 60.5 69.417 0 69.417 0 29.75Z" stroke="rgba(0,0,0,1)" stroke-width="3" fill-opacity="1" fill="#ffffff"></path><g id="SvgjsG1169"><text id="SvgjsText1170" font-family="&quot;Microsoft YaHei&quot;, 微软雅黑, Arial" text-anchor="middle" font-size="30px" width="41px" fill="#ffffff" font-weight="400" align="middle" lineHeight="125%" anchor="middle" family="&quot;Microsoft YaHei&quot;, 微软雅黑, Arial" size="30px" weight="400" font-style="" opacity="1" y="4" transform="rotate(0)"><tspan id="SvgjsTspan1171" dy="37.5" x="30.5"><tspan id="SvgjsTspan1172" style="">12</tspan></tspan></text></g></g><g id="SvgjsG1173" transform="translate(915.9590964590964,538.7820512820513)"><path id="SvgjsPath1174" d="M 0 29.75C 0 -9.917 60.5 -9.917 60.5 29.75C 60.5 69.417 0 69.417 0 29.75Z" stroke="rgba(255,255,255,1)" stroke-width="1.5" fill-opacity="1" fill="#000000"></path><g id="SvgjsG1175"><text id="SvgjsText1176" font-family="&quot;Microsoft YaHei&quot;, 微软雅黑, Arial" text-anchor="middle" font-size="30px" width="41px" fill="#ffffff" font-weight="400" align="middle" lineHeight="125%" anchor="middle" family="&quot;Microsoft YaHei&quot;, 微软雅黑, Arial" size="30px" weight="400" font-style="" opacity="1" y="4" transform="rotate(0)"><tspan id="SvgjsTspan1177" dy="37.5" x="30.5"><tspan id="SvgjsTspan1178" style="">2</tspan></tspan></text></g></g><g id="SvgjsG1179"><path id="SvgjsPath1180" d="M1033.940543531103 509.271168781422L946.9199570793974 538.5429337826806" stroke="#323232" stroke-width="1.5" fill="none"></path></g><g id="SvgjsG1181" transform="translate(871.9206349206349,548.5320512820513)"><path id="SvgjsPath1182" d="M 0 0L 38.462 0L 38.462 40L 0 40Z" stroke="none" fill="none"></path><g id="SvgjsG1183"><text id="SvgjsText1184" font-family="&quot;Microsoft YaHei&quot;, 微软雅黑, Arial" text-anchor="middle" font-size="30px" width="39px" fill="#323232" font-weight="400" align="middle" lineHeight="125%" anchor="middle" family="&quot;Microsoft YaHei&quot;, 微软雅黑, Arial" size="30px" weight="400" font-style="" opacity="1" y="-5.75" transform="rotate(0)"><tspan id="SvgjsTspan1185" dy="37.5" x="19.5"><tspan id="SvgjsTspan1186" style="">R</tspan></tspan></text></g></g><g id="SvgjsG1187" transform="translate(1008.6706349206349,454.3589743589744)"><path id="SvgjsPath1188" d="M 0 0L 39.231 0L 39.231 40L 0 40Z" stroke="none" fill="none"></path><g id="SvgjsG1189"><text id="SvgjsText1190" font-family="&quot;Microsoft YaHei&quot;, 微软雅黑, Arial" text-anchor="middle" font-size="30px" width="40px" fill="#323232" font-weight="400" align="middle" lineHeight="125%" anchor="middle" family="&quot;Microsoft YaHei&quot;, 微软雅黑, Arial" size="30px" weight="400" font-style="" opacity="1" y="-5.75" transform="rotate(0)"><tspan id="SvgjsTspan1191" dy="37.5" x="20"><tspan id="SvgjsTspan1192" style="">S</tspan></tspan></text></g></g><g id="SvgjsG1193" transform="translate(1188.953601953602,500.55128205128204)"><path id="SvgjsPath1194" d="M 0 0L 33.077 0L 33.077 29.231L 0 29.231Z" stroke="none" fill="none"></path><g id="SvgjsG1195"><text id="SvgjsText1196" font-family="&quot;Microsoft YaHei&quot;, 微软雅黑, Arial" text-anchor="middle" font-size="30px" width="34px" fill="#323232" font-weight="400" align="middle" lineHeight="125%" anchor="middle" family="&quot;Microsoft YaHei&quot;, 微软雅黑, Arial" size="30px" weight="400" font-style="" opacity="1" y="-11.1345" transform="rotate(0)"><tspan id="SvgjsTspan1197" dy="37.5" x="17"><tspan id="SvgjsTspan1198" style="">P</tspan></tspan></text></g></g><g id="SvgjsG1199" transform="translate(1222.030525030525,548.5320512820513)"><path id="SvgjsPath1200" d="M 0 0L 170.357 0L 170.357 40L 0 40Z" stroke="none" fill="none"></path><g id="SvgjsG1201"><text id="SvgjsText1202" font-family="&quot;Microsoft YaHei&quot;, 微软雅黑, Arial" text-anchor="middle" font-size="30px" width="171px" fill="#323232" font-weight="400" align="middle" lineHeight="125%" anchor="middle" family="&quot;Microsoft YaHei&quot;, 微软雅黑, Arial" size="30px" weight="400" font-style="" opacity="1" y="-5.75" transform="rotate(0)"><tspan id="SvgjsTspan1203" dy="37.5" x="85.5"><tspan id="SvgjsTspan1204" style="">被移除节点</tspan></tspan></text></g></g><g id="SvgjsG1205"><path id="SvgjsPath1206" d="M1095.862264771705 509.271168781422L1182.8828512234106 538.5429337826806" stroke="#323232" stroke-width="1.5" fill="none"></path></g><g id="SvgjsG1207"><path id="SvgjsPath1208" d="M1064.901404151404 478.5320512820513L1064.901404151404 410.5555555555556" stroke="#323232" stroke-width="1.5" fill="none"></path></g><g id="SvgjsG1209" transform="translate(1034.901404151404,294.4294871794871)"><path id="SvgjsPath1210" d="M 19.8 0L 40.2 0L 40.2 69.709L 60 69.709L 30 99.709L 0 69.709L 19.8 69.709L 19.8 0Z" stroke="rgba(33,41,48,1)" stroke-width="1.5" fill-opacity="1" fill="#ffffff"></path><g id="SvgjsG1211"><text id="SvgjsText1212" font-family="&quot;Microsoft YaHei&quot;, 微软雅黑, Arial" text-anchor="middle" font-size="13px" width="84px" fill="#323232" font-weight="400" align="middle" lineHeight="125%" anchor="middle" family="&quot;Microsoft YaHei&quot;, 微软雅黑, Arial" size="13px" weight="400" font-style="" opacity="1" y="34.244" transform="rotate(0)"></text></g></g><g id="SvgjsG1213"></g></svg>