<svg id="SvgjsSvg1006" width="1421.5705128205138" height="963.5798229548232" xmlns="http://www.w3.org/2000/svg" version="1.1" xmlns:xlink="http://www.w3.org/1999/xlink" xmlns:svgjs="http://svgjs.com/svgjs"><defs id="SvgjsDefs1007"><pattern patternUnits="userSpaceOnUse" id="pattern_mark_0" width="300" height="300"><text x="150" y="100" fill="rgba(229,229,229,0.8)" font-size="18" transform="rotate(-45, 150, 150)" style="dominant-baseline: middle; text-anchor: middle;"></text></pattern><pattern patternUnits="userSpaceOnUse" id="pattern_mark_1" width="300" height="300"><text x="150" y="200" fill="rgba(229,229,229,0.8)" font-size="18" transform="rotate(-45, 150, 150)" style="dominant-baseline: middle; text-anchor: middle;"></text></pattern></defs><rect id="svgbackgroundid" width="1421.5705128205138" height="963.5798229548232" fill="transparent"></rect><rect id="SvgjsRect1009" width="1421.5705128205138" height="963.5798229548232" fill="url(#pattern_mark_0)"></rect><rect id="SvgjsRect1010" width="1421.5705128205138" height="963.5798229548232" fill="url(#pattern_mark_1)"></rect><g id="SvgjsG1011" transform="translate(442.5473137973151,150.0769230769231)"><path id="SvgjsPath1012" d="M 0 4Q 0 0 4 0L 92 0Q 96 0 96 4L 96 83.019Q 96 87.019 92 87.019L 4 87.019Q 0 87.019 0 83.019Z" stroke-dasharray="4,6" stroke="rgba(70,105,234,1)" stroke-width="4" fill-opacity="1" fill="#ffffff"></path><g id="SvgjsG1013"><text id="SvgjsText1014" font-family="&quot;Microsoft YaHei&quot;, 微软雅黑, Arial" text-anchor="middle" font-size="13px" width="76px" fill="#323232" font-weight="400" align="middle" lineHeight="125%" anchor="middle" family="&quot;Microsoft YaHei&quot;, 微软雅黑, Arial" size="13px" weight="400" font-style="" opacity="1" y="32.8845" transform="rotate(0)"></text></g></g><g id="SvgjsG1015" transform="translate(340.9703907203918,108.34615384615404)"><path id="SvgjsPath1016" d="M 0 29.75C 0 -9.917 60.5 -9.917 60.5 29.75C 60.5 69.417 0 69.417 0 29.75Z" stroke="rgba(255,255,255,1)" stroke-width="1.5" fill-opacity="1" fill="#000000"></path><g id="SvgjsG1017"><text id="SvgjsText1018" font-family="&quot;Microsoft YaHei&quot;, 微软雅黑, Arial" text-anchor="middle" font-size="30px" width="41px" fill="#ffffff" font-weight="400" align="middle" lineHeight="125%" anchor="middle" family="&quot;Microsoft YaHei&quot;, 微软雅黑, Arial" size="30px" weight="400" font-style="" opacity="1" y="4" transform="rotate(0)"><tspan id="SvgjsTspan1019" dy="37.5" x="30.5"><tspan id="SvgjsTspan1020" style="">7</tspan></tspan></text></g></g><g id="SvgjsG1021" transform="translate(217.12423687423785,167.84615384615404)"><path id="SvgjsPath1022" d="M 0 29.75C 0 -9.917 60.5 -9.917 60.5 29.75C 60.5 69.417 0 69.417 0 29.75Z" stroke="rgba(255,255,255,1)" stroke-width="1.5" fill-opacity="1" fill="#000000"></path><g id="SvgjsG1023"><text id="SvgjsText1024" font-family="&quot;Microsoft YaHei&quot;, 微软雅黑, Arial" text-anchor="middle" font-size="30px" width="41px" fill="#ffffff" font-weight="400" align="middle" lineHeight="125%" anchor="middle" family="&quot;Microsoft YaHei&quot;, 微软雅黑, Arial" size="30px" weight="400" font-style="" opacity="1" y="4" transform="rotate(0)"><tspan id="SvgjsTspan1025" dy="37.5" x="30.5"><tspan id="SvgjsTspan1026" style="">5</tspan></tspan></text></g></g><g id="SvgjsG1027" transform="translate(459.4319291819301,167.84615384615404)"><path id="SvgjsPath1028" d="M 0 29.75C 0 -9.917 60.5 -9.917 60.5 29.75C 60.5 69.417 0 69.417 0 29.75Z" stroke="rgba(255,255,255,1)" stroke-width="1.5" fill-opacity="1" fill="#000000"></path><g id="SvgjsG1029"><text id="SvgjsText1030" font-family="&quot;Microsoft YaHei&quot;, 微软雅黑, Arial" text-anchor="middle" font-size="30px" width="41px" fill="#ffffff" font-weight="400" align="middle" lineHeight="125%" anchor="middle" family="&quot;Microsoft YaHei&quot;, 微软雅黑, Arial" size="30px" weight="400" font-style="" opacity="1" y="4" transform="rotate(0)"><tspan id="SvgjsTspan1031" dy="37.5" x="30.5"><tspan id="SvgjsTspan1032" style="">12</tspan></tspan></text></g></g><g id="SvgjsG1033" transform="translate(142.00335775335867,261.93696581196605)"><path id="SvgjsPath1034" d="M 0 29.75C 0 -9.917 60.5 -9.917 60.5 29.75C 60.5 69.417 0 69.417 0 29.75Z" stroke="rgba(255,255,255,1)" stroke-width="1.5" fill-opacity="1" fill="#e60c0c"></path><g id="SvgjsG1035"><text id="SvgjsText1036" font-family="&quot;Microsoft YaHei&quot;, 微软雅黑, Arial" text-anchor="middle" font-size="30px" width="41px" fill="#ffffff" font-weight="400" align="middle" lineHeight="125%" anchor="middle" family="&quot;Microsoft YaHei&quot;, 微软雅黑, Arial" size="30px" weight="400" font-style="" opacity="1" y="4" transform="rotate(0)"><tspan id="SvgjsTspan1037" dy="37.5" x="30.5"><tspan id="SvgjsTspan1038" style="">2</tspan></tspan></text></g></g><g id="SvgjsG1039"><path id="SvgjsPath1040" d="M340.2556289114172 138.3233444190909L248.08899868321242 167.6189632732172" stroke="#323232" stroke-width="1.5" fill="none"></path></g><g id="SvgjsG1041"><path id="SvgjsPath1042" d="M216.6952168243663 198.2113300784714L172.68237780323025 261.3217895796487" stroke="#323232" stroke-width="1.5" fill="none"></path></g><g id="SvgjsG1043"><path id="SvgjsPath1044" d="M402.18106213619996 138.33583308754388L488.97125776612194 167.6064746047642" stroke="#323232" stroke-width="1.5" fill="none"></path></g><g id="SvgjsG1045" transform="translate(606.8330280830289,245.953144078145)"><path id="SvgjsPath1046" d="M 0 0L 205.628 0L 205.628 52.725L 0 52.725Z" stroke="none" fill="none"></path><g id="SvgjsG1047"><text id="SvgjsText1048" font-family="&quot;Microsoft YaHei&quot;, 微软雅黑, Arial" text-anchor="middle" font-size="30px" width="206px" fill="#323232" font-weight="400" align="middle" lineHeight="125%" anchor="middle" family="&quot;Microsoft YaHei&quot;, 微软雅黑, Arial" size="30px" weight="400" font-style="" opacity="1" y="0.6125000000000007" transform="rotate(0)"><tspan id="SvgjsTspan1049" dy="37.5" x="103"><tspan id="SvgjsTspan1050" style="">变色</tspan></tspan></text></g></g><g id="SvgjsG1051" transform="translate(92.72680097680211,271.68696581196605)"><path id="SvgjsPath1052" d="M 0 0L 38.462 0L 38.462 40L 0 40Z" stroke="none" fill="none"></path><g id="SvgjsG1053"><text id="SvgjsText1054" font-family="&quot;Microsoft YaHei&quot;, 微软雅黑, Arial" text-anchor="middle" font-size="30px" width="39px" fill="#323232" font-weight="400" align="middle" lineHeight="125%" anchor="middle" family="&quot;Microsoft YaHei&quot;, 微软雅黑, Arial" size="30px" weight="400" font-style="" opacity="1" y="-5.75" transform="rotate(0)"><tspan id="SvgjsTspan1055" dy="37.5" x="19.5"><tspan id="SvgjsTspan1056" style="">R</tspan></tspan></text></g></g><g id="SvgjsG1057" transform="translate(191.14346764346868,142.9230769230769)"><path id="SvgjsPath1058" d="M 0 0L 39.231 0L 39.231 40L 0 40Z" stroke="none" fill="none"></path><g id="SvgjsG1059"><text id="SvgjsText1060" font-family="&quot;Microsoft YaHei&quot;, 微软雅黑, Arial" text-anchor="middle" font-size="30px" width="40px" fill="#323232" font-weight="400" align="middle" lineHeight="125%" anchor="middle" family="&quot;Microsoft YaHei&quot;, 微软雅黑, Arial" size="30px" weight="400" font-style="" opacity="1" y="-5.75" transform="rotate(0)"><tspan id="SvgjsTspan1061" dy="37.5" x="20"><tspan id="SvgjsTspan1062" style="">S</tspan></tspan></text></g></g><g id="SvgjsG1063" transform="translate(315.1626984126994,79.11538461538453)"><path id="SvgjsPath1064" d="M 0 0L 33.077 0L 33.077 29.231L 0 29.231Z" stroke="none" fill="none"></path><g id="SvgjsG1065"><text id="SvgjsText1066" font-family="&quot;Microsoft YaHei&quot;, 微软雅黑, Arial" text-anchor="middle" font-size="30px" width="34px" fill="#323232" font-weight="400" align="middle" lineHeight="125%" anchor="middle" family="&quot;Microsoft YaHei&quot;, 微软雅黑, Arial" size="30px" weight="400" font-style="" opacity="1" y="-11.1345" transform="rotate(0)"><tspan id="SvgjsTspan1067" dy="37.5" x="17"><tspan id="SvgjsTspan1068" style="">P</tspan></tspan></text></g></g><g id="SvgjsG1069" transform="translate(606.8330280830289,111.79655067155113)"><path id="SvgjsPath1070" d="M 0 0L 251.429 0L 251.429 113L 0 113Z" stroke="none" fill="none"></path><g id="SvgjsG1071"><text id="SvgjsText1072" font-family="&quot;Microsoft YaHei&quot;, 微软雅黑, Arial" text-anchor="middle" font-size="30px" width="252px" fill="#323232" font-weight="400" align="middle" lineHeight="125%" anchor="middle" family="&quot;Microsoft YaHei&quot;, 微软雅黑, Arial" size="30px" weight="400" font-style="" opacity="1" y="-6.75" transform="rotate(0)"><tspan id="SvgjsTspan1073" dy="37.5" x="126"><tspan id="SvgjsTspan1074" style="">R 变成S的颜色,</tspan></tspan><tspan id="SvgjsTspan1075" dy="37.5" x="126"><tspan id="SvgjsTspan1076" style="">S 变成P的颜色,</tspan></tspan><tspan id="SvgjsTspan1077" dy="37.5" x="126"><tspan id="SvgjsTspan1078" style="">P 变成黑色      </tspan></tspan></text></g></g><g id="SvgjsG1079" transform="translate(595.8806471306482,208.65918803418867)"><path id="SvgjsPath1080" d="M 0 19.8L 251.111 19.8L 251.111 0L 281.111 30L 251.111 60L 251.111 40.2L 0 40.2L 0 19.8Z" stroke="rgba(33,41,48,1)" stroke-width="1.5" fill-opacity="1" fill="#ffffff"></path><g id="SvgjsG1081"><text id="SvgjsText1082" font-family="&quot;Microsoft YaHei&quot;, 微软雅黑, Arial" text-anchor="middle" font-size="13px" width="282px" fill="#323232" font-weight="400" align="middle" lineHeight="125%" anchor="middle" family="&quot;Microsoft YaHei&quot;, 微软雅黑, Arial" size="13px" weight="400" font-style="" opacity="1" y="19.375" transform="rotate(0)"></text></g></g><g id="SvgjsG1083" transform="translate(405.36874236874365,243.15659340659386)"><path id="SvgjsPath1084" d="M 0 0L 170.357 0L 170.357 40L 0 40Z" stroke="none" fill="none"></path><g id="SvgjsG1085"><text id="SvgjsText1086" font-family="&quot;Microsoft YaHei&quot;, 微软雅黑, Arial" text-anchor="middle" font-size="30px" width="171px" fill="#323232" font-weight="400" align="middle" lineHeight="125%" anchor="middle" family="&quot;Microsoft YaHei&quot;, 微软雅黑, Arial" size="30px" weight="400" font-style="" opacity="1" y="-5.75" transform="rotate(0)"><tspan id="SvgjsTspan1087" dy="37.5" x="85.5"><tspan id="SvgjsTspan1088" style="">被移除节点</tspan></tspan></text></g></g><g id="SvgjsG1089"><path id="SvgjsPath1090" d="M371.2203907203918 107.59615384615404L371.2203907203918 25.000000000000227" stroke="#323232" stroke-width="1.5" fill="none"></path></g><g id="SvgjsG1091" transform="translate(1144.547313797315,360.0405982905984)"><path id="SvgjsPath1092" d="M 19.8 0L 40.2 0L 40.2 69.709L 60 69.709L 30 99.709L 0 69.709L 19.8 69.709L 19.8 0Z" stroke="rgba(33,41,48,1)" stroke-width="1.5" fill-opacity="1" fill="#ffffff"></path><g id="SvgjsG1093"><text id="SvgjsText1094" font-family="&quot;Microsoft YaHei&quot;, 微软雅黑, Arial" text-anchor="middle" font-size="13px" width="84px" fill="#323232" font-weight="400" align="middle" lineHeight="125%" anchor="middle" family="&quot;Microsoft YaHei&quot;, 微软雅黑, Arial" size="13px" weight="400" font-style="" opacity="1" y="34.244" transform="rotate(0)"></text></g></g><g id="SvgjsG1095" transform="translate(277.62423687423785,261.93696581196605)"><path id="SvgjsPath1096" d="M 0 29.75C 0 -9.917 60.5 -9.917 60.5 29.75C 60.5 69.417 0 69.417 0 29.75Z" stroke="rgba(255,255,255,1)" stroke-width="1.5" fill-opacity="1" fill="#e60c0c"></path><g id="SvgjsG1097"><text id="SvgjsText1098" font-family="&quot;Microsoft YaHei&quot;, 微软雅黑, Arial" text-anchor="middle" font-size="30px" width="41px" fill="#ffffff" font-weight="400" align="middle" lineHeight="125%" anchor="middle" family="&quot;Microsoft YaHei&quot;, 微软雅黑, Arial" size="30px" weight="400" font-style="" opacity="1" y="4" transform="rotate(0)"><tspan id="SvgjsTspan1099" dy="37.5" x="30.5"><tspan id="SvgjsTspan1100" style="">6</tspan></tspan></text></g></g><g id="SvgjsG1101"><path id="SvgjsPath1102" d="M277.94334256037627 198.27488174529634L307.55513118809944 261.25823791282374" stroke="#323232" stroke-width="1.5" fill="none"></path></g><g id="SvgjsG1103" transform="translate(1263.3919413919416,150.0769230769231)"><path id="SvgjsPath1104" d="M 0 4Q 0 0 4 0L 92 0Q 96 0 96 4L 96 83.019Q 96 87.019 92 87.019L 4 87.019Q 0 87.019 0 83.019Z" stroke-dasharray="4,6" stroke="rgba(70,105,234,1)" stroke-width="4" fill-opacity="1" fill="#ffffff"></path><g id="SvgjsG1105"><text id="SvgjsText1106" font-family="&quot;Microsoft YaHei&quot;, 微软雅黑, Arial" text-anchor="middle" font-size="13px" width="76px" fill="#323232" font-weight="400" align="middle" lineHeight="125%" anchor="middle" family="&quot;Microsoft YaHei&quot;, 微软雅黑, Arial" size="13px" weight="400" font-style="" opacity="1" y="32.8845" transform="rotate(0)"></text></g></g><g id="SvgjsG1107" transform="translate(1161.8150183150187,108.34615384615404)"><path id="SvgjsPath1108" d="M 0 29.75C 0 -9.917 60.5 -9.917 60.5 29.75C 60.5 69.417 0 69.417 0 29.75Z" stroke="rgba(255,255,255,1)" stroke-width="1.5" fill-opacity="1" fill="#000000"></path><g id="SvgjsG1109"><text id="SvgjsText1110" font-family="&quot;Microsoft YaHei&quot;, 微软雅黑, Arial" text-anchor="middle" font-size="30px" width="41px" fill="#ffffff" font-weight="400" align="middle" lineHeight="125%" anchor="middle" family="&quot;Microsoft YaHei&quot;, 微软雅黑, Arial" size="30px" weight="400" font-style="" opacity="1" y="4" transform="rotate(0)"><tspan id="SvgjsTspan1111" dy="37.5" x="30.5"><tspan id="SvgjsTspan1112" style="">7</tspan></tspan></text></g></g><g id="SvgjsG1113" transform="translate(1037.9688644688647,167.84615384615404)"><path id="SvgjsPath1114" d="M 0 29.75C 0 -9.917 60.5 -9.917 60.5 29.75C 60.5 69.417 0 69.417 0 29.75Z" stroke="rgba(255,255,255,1)" stroke-width="1.5" fill-opacity="1" fill="#000000"></path><g id="SvgjsG1115"><text id="SvgjsText1116" font-family="&quot;Microsoft YaHei&quot;, 微软雅黑, Arial" text-anchor="middle" font-size="30px" width="41px" fill="#ffffff" font-weight="400" align="middle" lineHeight="125%" anchor="middle" family="&quot;Microsoft YaHei&quot;, 微软雅黑, Arial" size="30px" weight="400" font-style="" opacity="1" y="4" transform="rotate(0)"><tspan id="SvgjsTspan1117" dy="37.5" x="30.5"><tspan id="SvgjsTspan1118" style="">5</tspan></tspan></text></g></g><g id="SvgjsG1119" transform="translate(1280.276556776557,167.84615384615404)"><path id="SvgjsPath1120" d="M 0 29.75C 0 -9.917 60.5 -9.917 60.5 29.75C 60.5 69.417 0 69.417 0 29.75Z" stroke="rgba(0,0,0,1)" stroke-width="2" fill="none"></path><g id="SvgjsG1121"><text id="SvgjsText1122" font-family="&quot;Microsoft YaHei&quot;, 微软雅黑, Arial" text-anchor="middle" font-size="30px" width="41px" fill="#ffffff" font-weight="400" align="middle" lineHeight="125%" anchor="middle" family="&quot;Microsoft YaHei&quot;, 微软雅黑, Arial" size="30px" weight="400" font-style="" opacity="1" y="4" transform="rotate(0)"><tspan id="SvgjsTspan1123" dy="37.5" x="30.5"><tspan id="SvgjsTspan1124" style="">12</tspan></tspan></text></g></g><g id="SvgjsG1125" transform="translate(962.8479853479855,261.93696581196605)"><path id="SvgjsPath1126" d="M 0 29.75C 0 -9.917 60.5 -9.917 60.5 29.75C 60.5 69.417 0 69.417 0 29.75Z" stroke="rgba(255,255,255,1)" stroke-width="1.5" fill-opacity="1" fill="#000000"></path><g id="SvgjsG1127"><text id="SvgjsText1128" font-family="&quot;Microsoft YaHei&quot;, 微软雅黑, Arial" text-anchor="middle" font-size="30px" width="41px" fill="#ffffff" font-weight="400" align="middle" lineHeight="125%" anchor="middle" family="&quot;Microsoft YaHei&quot;, 微软雅黑, Arial" size="30px" weight="400" font-style="" opacity="1" y="4" transform="rotate(0)"><tspan id="SvgjsTspan1129" dy="37.5" x="30.5"><tspan id="SvgjsTspan1130" style="">2</tspan></tspan></text></g></g><g id="SvgjsG1131"><path id="SvgjsPath1132" d="M1161.1002565060442 138.3233444190909L1068.9336262778393 167.6189632732172" stroke="#323232" stroke-width="1.5" fill="none"></path></g><g id="SvgjsG1133"><path id="SvgjsPath1134" d="M1037.5398444189932 198.2113300784714L993.527005397857 261.3217895796487" stroke="#323232" stroke-width="1.5" fill="none"></path></g><g id="SvgjsG1135"><path id="SvgjsPath1136" d="M1223.0256897308268 138.33583308754388L1309.5789948888128 167.5265815243009" stroke="#323232" stroke-width="1.5" fill="none"></path></g><g id="SvgjsG1137" transform="translate(913.5714285714289,271.68696581196605)"><path id="SvgjsPath1138" d="M 0 0L 38.462 0L 38.462 40L 0 40Z" stroke="none" fill="none"></path><g id="SvgjsG1139"><text id="SvgjsText1140" font-family="&quot;Microsoft YaHei&quot;, 微软雅黑, Arial" text-anchor="middle" font-size="30px" width="39px" fill="#323232" font-weight="400" align="middle" lineHeight="125%" anchor="middle" family="&quot;Microsoft YaHei&quot;, 微软雅黑, Arial" size="30px" weight="400" font-style="" opacity="1" y="-5.75" transform="rotate(0)"><tspan id="SvgjsTspan1141" dy="37.5" x="19.5"><tspan id="SvgjsTspan1142" style="">R</tspan></tspan></text></g></g><g id="SvgjsG1143" transform="translate(1011.9880952380954,142.9230769230769)"><path id="SvgjsPath1144" d="M 0 0L 39.231 0L 39.231 40L 0 40Z" stroke="none" fill="none"></path><g id="SvgjsG1145"><text id="SvgjsText1146" font-family="&quot;Microsoft YaHei&quot;, 微软雅黑, Arial" text-anchor="middle" font-size="30px" width="40px" fill="#323232" font-weight="400" align="middle" lineHeight="125%" anchor="middle" family="&quot;Microsoft YaHei&quot;, 微软雅黑, Arial" size="30px" weight="400" font-style="" opacity="1" y="-5.75" transform="rotate(0)"><tspan id="SvgjsTspan1147" dy="37.5" x="20"><tspan id="SvgjsTspan1148" style="">S</tspan></tspan></text></g></g><g id="SvgjsG1149" transform="translate(1136.0073260073264,79.11538461538453)"><path id="SvgjsPath1150" d="M 0 0L 33.077 0L 33.077 29.231L 0 29.231Z" stroke="none" fill="none"></path><g id="SvgjsG1151"><text id="SvgjsText1152" font-family="&quot;Microsoft YaHei&quot;, 微软雅黑, Arial" text-anchor="middle" font-size="30px" width="34px" fill="#323232" font-weight="400" align="middle" lineHeight="125%" anchor="middle" family="&quot;Microsoft YaHei&quot;, 微软雅黑, Arial" size="30px" weight="400" font-style="" opacity="1" y="-11.1345" transform="rotate(0)"><tspan id="SvgjsTspan1153" dy="37.5" x="17"><tspan id="SvgjsTspan1154" style="">P</tspan></tspan></text></g></g><g id="SvgjsG1155" transform="translate(1226.213369963371,243.15659340659363)"><path id="SvgjsPath1156" d="M 0 0L 170.357 0L 170.357 40L 0 40Z" stroke="none" fill="none"></path><g id="SvgjsG1157"><text id="SvgjsText1158" font-family="&quot;Microsoft YaHei&quot;, 微软雅黑, Arial" text-anchor="middle" font-size="30px" width="171px" fill="#323232" font-weight="400" align="middle" lineHeight="125%" anchor="middle" family="&quot;Microsoft YaHei&quot;, 微软雅黑, Arial" size="30px" weight="400" font-style="" opacity="1" y="-5.75" transform="rotate(0)"><tspan id="SvgjsTspan1159" dy="37.5" x="85.5"><tspan id="SvgjsTspan1160" style="">被移除节点</tspan></tspan></text></g></g><g id="SvgjsG1161"><path id="SvgjsPath1162" d="M1192.0650183150187 107.59615384615404L1192.0650183150187 25" stroke="#323232" stroke-width="1.5" fill="none"></path></g><g id="SvgjsG1163" transform="translate(1098.4688644688647,261.93696581196605)"><path id="SvgjsPath1164" d="M 0 29.75C 0 -9.917 60.5 -9.917 60.5 29.75C 60.5 69.417 0 69.417 0 29.75Z" stroke="rgba(255,255,255,1)" stroke-width="1.5" fill-opacity="1" fill="#e60c0c"></path><g id="SvgjsG1165"><text id="SvgjsText1166" font-family="&quot;Microsoft YaHei&quot;, 微软雅黑, Arial" text-anchor="middle" font-size="30px" width="41px" fill="#ffffff" font-weight="400" align="middle" lineHeight="125%" anchor="middle" family="&quot;Microsoft YaHei&quot;, 微软雅黑, Arial" size="30px" weight="400" font-style="" opacity="1" y="4" transform="rotate(0)"><tspan id="SvgjsTspan1167" dy="37.5" x="30.5"><tspan id="SvgjsTspan1168" style="">6</tspan></tspan></text></g></g><g id="SvgjsG1169"><path id="SvgjsPath1170" d="M1098.7879701550032 198.27488174529634L1128.3997587827262 261.25823791282374" stroke="#323232" stroke-width="1.5" fill="none"></path></g><g id="SvgjsG1171" transform="translate(1263.3919413919416,610.0769230769231)"><path id="SvgjsPath1172" d="M 0 4Q 0 0 4 0L 92 0Q 96 0 96 4L 96 83.019Q 96 87.019 92 87.019L 4 87.019Q 0 87.019 0 83.019Z" stroke-dasharray="4,6" stroke="rgba(70,105,234,1)" stroke-width="4" fill-opacity="1" fill="#ffffff"></path><g id="SvgjsG1173"><text id="SvgjsText1174" font-family="&quot;Microsoft YaHei&quot;, 微软雅黑, Arial" text-anchor="middle" font-size="13px" width="76px" fill="#323232" font-weight="400" align="middle" lineHeight="125%" anchor="middle" family="&quot;Microsoft YaHei&quot;, 微软雅黑, Arial" size="13px" weight="400" font-style="" opacity="1" y="32.8845" transform="rotate(0)"></text></g></g><g id="SvgjsG1175" transform="translate(1161.8150183150187,568.346153846154)"><path id="SvgjsPath1176" d="M 0 29.75C 0 -9.917 60.5 -9.917 60.5 29.75C 60.5 69.417 0 69.417 0 29.75Z" stroke="rgba(255,255,255,1)" stroke-width="1.5" fill-opacity="1" fill="#000000"></path><g id="SvgjsG1177"><text id="SvgjsText1178" font-family="&quot;Microsoft YaHei&quot;, 微软雅黑, Arial" text-anchor="middle" font-size="30px" width="41px" fill="#ffffff" font-weight="400" align="middle" lineHeight="125%" anchor="middle" family="&quot;Microsoft YaHei&quot;, 微软雅黑, Arial" size="30px" weight="400" font-style="" opacity="1" y="4" transform="rotate(0)"><tspan id="SvgjsTspan1179" dy="37.5" x="30.5"><tspan id="SvgjsTspan1180" style="">7</tspan></tspan></text></g></g><g id="SvgjsG1181" transform="translate(1037.9688644688647,627.846153846154)"><path id="SvgjsPath1182" d="M 0 29.75C 0 -9.917 60.5 -9.917 60.5 29.75C 60.5 69.417 0 69.417 0 29.75Z" stroke="rgba(255,255,255,1)" stroke-width="1.5" fill-opacity="1" fill="#000000"></path><g id="SvgjsG1183"><text id="SvgjsText1184" font-family="&quot;Microsoft YaHei&quot;, 微软雅黑, Arial" text-anchor="middle" font-size="30px" width="41px" fill="#ffffff" font-weight="400" align="middle" lineHeight="125%" anchor="middle" family="&quot;Microsoft YaHei&quot;, 微软雅黑, Arial" size="30px" weight="400" font-style="" opacity="1" y="4" transform="rotate(0)"><tspan id="SvgjsTspan1185" dy="37.5" x="30.5"><tspan id="SvgjsTspan1186" style="">5</tspan></tspan></text></g></g><g id="SvgjsG1187" transform="translate(1280.276556776557,627.846153846154)"><path id="SvgjsPath1188" d="M 0 29.75C 0 -9.917 60.5 -9.917 60.5 29.75C 60.5 69.417 0 69.417 0 29.75Z" stroke="rgba(0,0,0,1)" stroke-width="2" fill="none"></path><g id="SvgjsG1189"><text id="SvgjsText1190" font-family="&quot;Microsoft YaHei&quot;, 微软雅黑, Arial" text-anchor="middle" font-size="30px" width="41px" fill="#ffffff" font-weight="400" align="middle" lineHeight="125%" anchor="middle" family="&quot;Microsoft YaHei&quot;, 微软雅黑, Arial" size="30px" weight="400" font-style="" opacity="1" y="4" transform="rotate(0)"><tspan id="SvgjsTspan1191" dy="37.5" x="30.5"><tspan id="SvgjsTspan1192" style="">12</tspan></tspan></text></g></g><g id="SvgjsG1193" transform="translate(962.8479853479855,721.936965811966)"><path id="SvgjsPath1194" d="M 0 29.75C 0 -9.917 60.5 -9.917 60.5 29.75C 60.5 69.417 0 69.417 0 29.75Z" stroke="rgba(255,255,255,1)" stroke-width="1.5" fill-opacity="1" fill="#000000"></path><g id="SvgjsG1195"><text id="SvgjsText1196" font-family="&quot;Microsoft YaHei&quot;, 微软雅黑, Arial" text-anchor="middle" font-size="30px" width="41px" fill="#ffffff" font-weight="400" align="middle" lineHeight="125%" anchor="middle" family="&quot;Microsoft YaHei&quot;, 微软雅黑, Arial" size="30px" weight="400" font-style="" opacity="1" y="4" transform="rotate(0)"><tspan id="SvgjsTspan1197" dy="37.5" x="30.5"><tspan id="SvgjsTspan1198" style="">2</tspan></tspan></text></g></g><g id="SvgjsG1199"><path id="SvgjsPath1200" d="M1161.1002565060442 598.3233444190909L1068.9336262778393 627.6189632732172" stroke="#323232" stroke-width="1.5" fill="none"></path></g><g id="SvgjsG1201"><path id="SvgjsPath1202" d="M1037.5398444189932 658.2113300784714L993.527005397857 721.3217895796487" stroke="#323232" stroke-width="1.5" fill="none"></path></g><g id="SvgjsG1203"><path id="SvgjsPath1204" d="M1223.0256897308268 598.3358330875438L1309.5789948888128 627.5265815243009" stroke="#323232" stroke-width="1.5" fill="none"></path></g><g id="SvgjsG1205" transform="translate(913.5714285714289,731.686965811966)"><path id="SvgjsPath1206" d="M 0 0L 38.462 0L 38.462 40L 0 40Z" stroke="none" fill="none"></path><g id="SvgjsG1207"><text id="SvgjsText1208" font-family="&quot;Microsoft YaHei&quot;, 微软雅黑, Arial" text-anchor="middle" font-size="30px" width="39px" fill="#323232" font-weight="400" align="middle" lineHeight="125%" anchor="middle" family="&quot;Microsoft YaHei&quot;, 微软雅黑, Arial" size="30px" weight="400" font-style="" opacity="1" y="-5.75" transform="rotate(0)"><tspan id="SvgjsTspan1209" dy="37.5" x="19.5"><tspan id="SvgjsTspan1210" style="">R</tspan></tspan></text></g></g><g id="SvgjsG1211" transform="translate(1011.9880952380954,602.9230769230769)"><path id="SvgjsPath1212" d="M 0 0L 39.231 0L 39.231 40L 0 40Z" stroke="none" fill="none"></path><g id="SvgjsG1213"><text id="SvgjsText1214" font-family="&quot;Microsoft YaHei&quot;, 微软雅黑, Arial" text-anchor="middle" font-size="30px" width="40px" fill="#323232" font-weight="400" align="middle" lineHeight="125%" anchor="middle" family="&quot;Microsoft YaHei&quot;, 微软雅黑, Arial" size="30px" weight="400" font-style="" opacity="1" y="-5.75" transform="rotate(0)"><tspan id="SvgjsTspan1215" dy="37.5" x="20"><tspan id="SvgjsTspan1216" style="">S</tspan></tspan></text></g></g><g id="SvgjsG1217" transform="translate(1136.0073260073264,539.1153846153845)"><path id="SvgjsPath1218" d="M 0 0L 33.077 0L 33.077 29.231L 0 29.231Z" stroke="none" fill="none"></path><g id="SvgjsG1219"><text id="SvgjsText1220" font-family="&quot;Microsoft YaHei&quot;, 微软雅黑, Arial" text-anchor="middle" font-size="30px" width="34px" fill="#323232" font-weight="400" align="middle" lineHeight="125%" anchor="middle" family="&quot;Microsoft YaHei&quot;, 微软雅黑, Arial" size="30px" weight="400" font-style="" opacity="1" y="-11.1345" transform="rotate(0)"><tspan id="SvgjsTspan1221" dy="37.5" x="17"><tspan id="SvgjsTspan1222" style="">P</tspan></tspan></text></g></g><g id="SvgjsG1223" transform="translate(1226.213369963371,703.1565934065936)"><path id="SvgjsPath1224" d="M 0 0L 170.357 0L 170.357 40L 0 40Z" stroke="none" fill="none"></path><g id="SvgjsG1225"><text id="SvgjsText1226" font-family="&quot;Microsoft YaHei&quot;, 微软雅黑, Arial" text-anchor="middle" font-size="30px" width="171px" fill="#323232" font-weight="400" align="middle" lineHeight="125%" anchor="middle" family="&quot;Microsoft YaHei&quot;, 微软雅黑, Arial" size="30px" weight="400" font-style="" opacity="1" y="-5.75" transform="rotate(0)"><tspan id="SvgjsTspan1227" dy="37.5" x="85.5"><tspan id="SvgjsTspan1228" style="">被移除节点</tspan></tspan></text></g></g><g id="SvgjsG1229"><path id="SvgjsPath1230" d="M1192.0650183150187 567.596153846154L1192.0650183150187 485" stroke="#323232" stroke-width="1.5" fill="none"></path></g><g id="SvgjsG1231" transform="translate(1098.4688644688647,721.936965811966)"><path id="SvgjsPath1232" d="M 0 29.75C 0 -9.917 60.5 -9.917 60.5 29.75C 60.5 69.417 0 69.417 0 29.75Z" stroke="rgba(255,255,255,1)" stroke-width="1.5" fill-opacity="1" fill="#e60c0c"></path><g id="SvgjsG1233"><text id="SvgjsText1234" font-family="&quot;Microsoft YaHei&quot;, 微软雅黑, Arial" text-anchor="middle" font-size="30px" width="41px" fill="#ffffff" font-weight="400" align="middle" lineHeight="125%" anchor="middle" family="&quot;Microsoft YaHei&quot;, 微软雅黑, Arial" size="30px" weight="400" font-style="" opacity="1" y="4" transform="rotate(0)"><tspan id="SvgjsTspan1235" dy="37.5" x="30.5"><tspan id="SvgjsTspan1236" style="">6</tspan></tspan></text></g></g><g id="SvgjsG1237"><path id="SvgjsPath1238" d="M1161.6213784056963 598.8207251577015L1128.9125043781871 721.2123945004186" stroke="#323232" stroke-width="2" fill="none"></path></g><g id="SvgjsG1239" transform="translate(374.82051282051265,647.2197802197802)"><path id="SvgjsPath1240" d="M 0 4Q 0 0 4 0L 92 0Q 96 0 96 4L 96 83.019Q 96 87.019 92 87.019L 4 87.019Q 0 87.019 0 83.019Z" stroke-dasharray="4,6" stroke="rgba(70,105,234,1)" stroke-width="4" fill-opacity="1" fill="#ffffff"></path><g id="SvgjsG1241"><text id="SvgjsText1242" font-family="&quot;Microsoft YaHei&quot;, 微软雅黑, Arial" text-anchor="middle" font-size="13px" width="76px" fill="#323232" font-weight="400" align="middle" lineHeight="125%" anchor="middle" family="&quot;Microsoft YaHei&quot;, 微软雅黑, Arial" size="13px" weight="400" font-style="" opacity="1" y="32.8845" transform="rotate(0)"></text></g></g><g id="SvgjsG1243" transform="translate(209.89743589743574,759.0798229548232)"><path id="SvgjsPath1244" d="M 0 29.75C 0 -9.917 60.5 -9.917 60.5 29.75C 60.5 69.417 0 69.417 0 29.75Z" stroke="rgba(255,255,255,1)" stroke-width="1.5" fill-opacity="1" fill="#000000"></path><g id="SvgjsG1245"><text id="SvgjsText1246" font-family="&quot;Microsoft YaHei&quot;, 微软雅黑, Arial" text-anchor="middle" font-size="30px" width="41px" fill="#ffffff" font-weight="400" align="middle" lineHeight="125%" anchor="middle" family="&quot;Microsoft YaHei&quot;, 微软雅黑, Arial" size="30px" weight="400" font-style="" opacity="1" y="4" transform="rotate(0)"><tspan id="SvgjsTspan1247" dy="37.5" x="30.5"><tspan id="SvgjsTspan1248" style="">7</tspan></tspan></text></g></g><g id="SvgjsG1249" transform="translate(149.39743589743568,664.9890109890111)"><path id="SvgjsPath1250" d="M 0 29.75C 0 -9.917 60.5 -9.917 60.5 29.75C 60.5 69.417 0 69.417 0 29.75Z" stroke="rgba(255,255,255,1)" stroke-width="1.5" fill-opacity="1" fill="#000000"></path><g id="SvgjsG1251"><text id="SvgjsText1252" font-family="&quot;Microsoft YaHei&quot;, 微软雅黑, Arial" text-anchor="middle" font-size="30px" width="41px" fill="#ffffff" font-weight="400" align="middle" lineHeight="125%" anchor="middle" family="&quot;Microsoft YaHei&quot;, 微软雅黑, Arial" size="30px" weight="400" font-style="" opacity="1" y="4" transform="rotate(0)"><tspan id="SvgjsTspan1253" dy="37.5" x="30.5"><tspan id="SvgjsTspan1254" style="">5</tspan></tspan></text></g></g><g id="SvgjsG1255" transform="translate(391.70512820512766,664.9890109890111)"><path id="SvgjsPath1256" d="M 0 29.75C 0 -9.917 60.5 -9.917 60.5 29.75C 60.5 69.417 0 69.417 0 29.75Z" stroke="rgba(0,0,0,1)" stroke-width="2" fill="none"></path><g id="SvgjsG1257"><text id="SvgjsText1258" font-family="&quot;Microsoft YaHei&quot;, 微软雅黑, Arial" text-anchor="middle" font-size="30px" width="41px" fill="#ffffff" font-weight="400" align="middle" lineHeight="125%" anchor="middle" family="&quot;Microsoft YaHei&quot;, 微软雅黑, Arial" size="30px" weight="400" font-style="" opacity="1" y="4" transform="rotate(0)"><tspan id="SvgjsTspan1259" dy="37.5" x="30.5"><tspan id="SvgjsTspan1260" style="">12</tspan></tspan></text></g></g><g id="SvgjsG1261" transform="translate(74.2765567765565,759.0798229548232)"><path id="SvgjsPath1262" d="M 0 29.75C 0 -9.917 60.5 -9.917 60.5 29.75C 60.5 69.417 0 69.417 0 29.75Z" stroke="rgba(255,255,255,1)" stroke-width="1.5" fill-opacity="1" fill="#000000"></path><g id="SvgjsG1263"><text id="SvgjsText1264" font-family="&quot;Microsoft YaHei&quot;, 微软雅黑, Arial" text-anchor="middle" font-size="30px" width="41px" fill="#ffffff" font-weight="400" align="middle" lineHeight="125%" anchor="middle" family="&quot;Microsoft YaHei&quot;, 微软雅黑, Arial" size="30px" weight="400" font-style="" opacity="1" y="4" transform="rotate(0)"><tspan id="SvgjsTspan1265" dy="37.5" x="30.5"><tspan id="SvgjsTspan1266" style="">2</tspan></tspan></text></g></g><g id="SvgjsG1267"><path id="SvgjsPath1268" d="M148.9684158475641 695.3541872213285L104.95557682642809 758.4646467225058" stroke="#323232" stroke-width="1.5" fill="none"></path></g><g id="SvgjsG1269" transform="translate(25,768.8298229548232)"><path id="SvgjsPath1270" d="M 0 0L 38.462 0L 38.462 40L 0 40Z" stroke="none" fill="none"></path><g id="SvgjsG1271"><text id="SvgjsText1272" font-family="&quot;Microsoft YaHei&quot;, 微软雅黑, Arial" text-anchor="middle" font-size="30px" width="39px" fill="#323232" font-weight="400" align="middle" lineHeight="125%" anchor="middle" family="&quot;Microsoft YaHei&quot;, 微软雅黑, Arial" size="30px" weight="400" font-style="" opacity="1" y="-5.75" transform="rotate(0)"><tspan id="SvgjsTspan1273" dy="37.5" x="19.5"><tspan id="SvgjsTspan1274" style="">R</tspan></tspan></text></g></g><g id="SvgjsG1275" transform="translate(123.41666666666663,640.065934065934)"><path id="SvgjsPath1276" d="M 0 0L 39.231 0L 39.231 40L 0 40Z" stroke="none" fill="none"></path><g id="SvgjsG1277"><text id="SvgjsText1278" font-family="&quot;Microsoft YaHei&quot;, 微软雅黑, Arial" text-anchor="middle" font-size="30px" width="40px" fill="#323232" font-weight="400" align="middle" lineHeight="125%" anchor="middle" family="&quot;Microsoft YaHei&quot;, 微软雅黑, Arial" size="30px" weight="400" font-style="" opacity="1" y="-5.75" transform="rotate(0)"><tspan id="SvgjsTspan1279" dy="37.5" x="20"><tspan id="SvgjsTspan1280" style="">S</tspan></tspan></text></g></g><g id="SvgjsG1281" transform="translate(277.62423687423785,759.0798229548232)"><path id="SvgjsPath1282" d="M 0 0L 33.077 0L 33.077 29.231L 0 29.231Z" stroke="none" fill="none"></path><g id="SvgjsG1283"><text id="SvgjsText1284" font-family="&quot;Microsoft YaHei&quot;, 微软雅黑, Arial" text-anchor="middle" font-size="30px" width="34px" fill="#323232" font-weight="400" align="middle" lineHeight="125%" anchor="middle" family="&quot;Microsoft YaHei&quot;, 微软雅黑, Arial" size="30px" weight="400" font-style="" opacity="1" y="-11.1345" transform="rotate(0)"><tspan id="SvgjsTspan1285" dy="37.5" x="17"><tspan id="SvgjsTspan1286" style="">P</tspan></tspan></text></g></g><g id="SvgjsG1287" transform="translate(337.641941391942,740.2994505494507)"><path id="SvgjsPath1288" d="M 0 0L 170.357 0L 170.357 40L 0 40Z" stroke="none" fill="none"></path><g id="SvgjsG1289"><text id="SvgjsText1290" font-family="&quot;Microsoft YaHei&quot;, 微软雅黑, Arial" text-anchor="middle" font-size="30px" width="171px" fill="#323232" font-weight="400" align="middle" lineHeight="125%" anchor="middle" family="&quot;Microsoft YaHei&quot;, 微软雅黑, Arial" size="30px" weight="400" font-style="" opacity="1" y="-5.75" transform="rotate(0)"><tspan id="SvgjsTspan1291" dy="37.5" x="85.5"><tspan id="SvgjsTspan1292" style="">被移除节点</tspan></tspan></text></g></g><g id="SvgjsG1293" transform="translate(134.7765567765565,879.0798229548232)"><path id="SvgjsPath1294" d="M 0 29.75C 0 -9.917 60.5 -9.917 60.5 29.75C 60.5 69.417 0 69.417 0 29.75Z" stroke="rgba(255,255,255,1)" stroke-width="1.5" fill-opacity="1" fill="#e60c0c"></path><g id="SvgjsG1295"><text id="SvgjsText1296" font-family="&quot;Microsoft YaHei&quot;, 微软雅黑, Arial" text-anchor="middle" font-size="30px" width="41px" fill="#ffffff" font-weight="400" align="middle" lineHeight="125%" anchor="middle" family="&quot;Microsoft YaHei&quot;, 微软雅黑, Arial" size="30px" weight="400" font-style="" opacity="1" y="4" transform="rotate(0)"><tspan id="SvgjsTspan1297" dy="37.5" x="30.5"><tspan id="SvgjsTspan1298" style="">6</tspan></tspan></text></g></g><g id="SvgjsG1299"><path id="SvgjsPath1300" d="M210.21654158357416 695.4177388881534L239.82833021129733 758.4010950556809" stroke="#323232" stroke-width="1.5" fill="none"></path></g><g id="SvgjsG1301"><path id="SvgjsPath1302" d="M165.36045333359496 878.4082478739887L209.5635393403973 789.5013980356576" stroke="#323232" stroke-width="1.5" fill="none"></path></g><g id="SvgjsG1303"><path id="SvgjsPath1304" d="M179.64743589743574 664.2390109890111L179.64743589743574 570.75" stroke="#323232" stroke-width="1.5" fill="none"></path></g><g id="SvgjsG1305" transform="translate(1177.878205128206,378.5277777777778)"><path id="SvgjsPath1306" d="M 0 0L 100 0L 100 40L 0 40Z" stroke="none" fill="none"></path><g id="SvgjsG1307"><text id="SvgjsText1308" font-family="&quot;Microsoft YaHei&quot;, 微软雅黑, Arial" text-anchor="middle" font-size="30px" width="100px" fill="#323232" font-weight="400" align="middle" lineHeight="125%" anchor="middle" family="&quot;Microsoft YaHei&quot;, 微软雅黑, Arial" size="30px" weight="400" font-style="" opacity="1" y="-5.75" transform="rotate(0)"><tspan id="SvgjsTspan1309" dy="37.5" x="50"><tspan id="SvgjsTspan1310" style=""> 旋转</tspan></tspan></text></g></g><g id="SvgjsG1311" transform="translate(538.5473137973152,711.686965811966)"><path id="SvgjsPath1312" d="M 0 30L 30 0L 30 19.8L 338.444 19.8L 338.444 40.2L 30 40.2L 30 60L 0 30Z" stroke="rgba(33,41,48,1)" stroke-width="1.5" fill-opacity="1" fill="#ffffff"></path><g id="SvgjsG1313"><text id="SvgjsText1314" font-family="&quot;Microsoft YaHei&quot;, 微软雅黑, Arial" text-anchor="middle" font-size="13px" width="339px" fill="#323232" font-weight="400" align="middle" lineHeight="125%" anchor="middle" family="&quot;Microsoft YaHei&quot;, 微软雅黑, Arial" size="13px" weight="400" font-style="" opacity="1" y="19.375" transform="rotate(0)"></text></g></g><g id="SvgjsG1315" transform="translate(739.5230556390234,398.4027777777778)"><path id="SvgjsPath1316" d="M 0 0L 213.326 0L 213.326 40L 0 40Z" stroke="none" fill="none"></path><g id="SvgjsG1317"><text id="SvgjsText1318" font-family="&quot;Microsoft YaHei&quot;, 微软雅黑, Arial" text-anchor="middle" font-size="13px" width="214px" fill="#323232" font-weight="400" align="middle" lineHeight="125%" anchor="middle" family="&quot;Microsoft YaHei&quot;, 微软雅黑, Arial" size="13px" weight="400" font-style="" opacity="1" y="9.375" transform="rotate(0)"><tspan id="SvgjsTspan1319" dy="16.25" x="107"><tspan id="SvgjsTspan1320" style="">/home/zci/下载/未命名文件 (1).png</tspan></tspan></text></g></g><g id="SvgjsG1321" transform="translate(759.5230556390234,418.4027777777778)"><path id="SvgjsPath1322" d="M 0 0L 213.326 0L 213.326 40L 0 40Z" stroke="none" fill="none"></path><g id="SvgjsG1323"><text id="SvgjsText1324" font-family="&quot;Microsoft YaHei&quot;, 微软雅黑, Arial" text-anchor="middle" font-size="13px" width="214px" fill="#323232" font-weight="400" align="middle" lineHeight="125%" anchor="middle" family="&quot;Microsoft YaHei&quot;, 微软雅黑, Arial" size="13px" weight="400" font-style="" opacity="1" y="9.375" transform="rotate(0)"><tspan id="SvgjsTspan1325" dy="16.25" x="107"><tspan id="SvgjsTspan1326" style="">/home/zci/下载/未命名文件 (1).png</tspan></tspan></text></g></g><g id="SvgjsG1327"></g></svg>