<svg id="SvgjsSvg1006" width="652" height="442.3333435058594" xmlns="http://www.w3.org/2000/svg" version="1.1" xmlns:xlink="http://www.w3.org/1999/xlink" xmlns:svgjs="http://svgjs.com/svgjs"><defs id="SvgjsDefs1007"><pattern patternUnits="userSpaceOnUse" id="pattern_mark_0" width="300" height="300"><text x="150" y="100" fill="rgba(229,229,229,0.8)" font-size="18" transform="rotate(-45, 150, 150)" style="dominant-baseline: middle; text-anchor: middle;"></text></pattern><pattern patternUnits="userSpaceOnUse" id="pattern_mark_1" width="300" height="300"><text x="150" y="200" fill="rgba(229,229,229,0.8)" font-size="18" transform="rotate(-45, 150, 150)" style="dominant-baseline: middle; text-anchor: middle;"></text></pattern><marker id="SvgjsMarker1037" markerWidth="13" markerHeight="9" refX="9.5" refY="4.5" viewBox="0 0 13 9" orient="auto" markerUnits="userSpaceOnUse" stroke-dasharray="0,0"><path id="SvgjsPath1038" d="M0,0 L13,4.5 L0,9 L0,0" fill="#323232" stroke="#323232" stroke-width="1"></path></marker><marker id="SvgjsMarker1041" markerWidth="13" markerHeight="9" refX="9.5" refY="4.5" viewBox="0 0 13 9" orient="auto" markerUnits="userSpaceOnUse" stroke-dasharray="0,0"><path id="SvgjsPath1042" d="M0,0 L13,4.5 L0,9 L0,0" fill="#323232" stroke="#323232" stroke-width="1"></path></marker><marker id="SvgjsMarker1045" markerWidth="13" markerHeight="9" refX="9.5" refY="4.5" viewBox="0 0 13 9" orient="auto" markerUnits="userSpaceOnUse" stroke-dasharray="0,0"><path id="SvgjsPath1046" d="M0,0 L13,4.5 L0,9 L0,0" fill="#323232" stroke="#323232" stroke-width="1"></path></marker><marker id="SvgjsMarker1061" markerWidth="13" markerHeight="9" refX="9.5" refY="4.5" viewBox="0 0 13 9" orient="auto" markerUnits="userSpaceOnUse" stroke-dasharray="0,0"><path id="SvgjsPath1062" d="M0,0 L13,4.5 L0,9 L0,0" fill="#323232" stroke="#323232" stroke-width="1"></path></marker><marker id="SvgjsMarker1065" markerWidth="13" markerHeight="9" refX="9.5" refY="4.5" viewBox="0 0 13 9" orient="auto" markerUnits="userSpaceOnUse" stroke-dasharray="0,0"><path id="SvgjsPath1066" d="M0,0 L13,4.5 L0,9 L0,0" fill="#323232" stroke="#323232" stroke-width="1"></path></marker></defs><rect id="svgbackgroundid" width="652" height="442.3333435058594" fill="transparent"></rect><rect id="SvgjsRect1009" width="652" height="442.3333435058594" fill="url(#pattern_mark_0)"></rect><rect id="SvgjsRect1010" width="652" height="442.3333435058594" fill="url(#pattern_mark_1)"></rect><g id="SvgjsG1011" transform="translate(25,363.3333435058594)"><path id="SvgjsPath1012" d="M 0 4Q 0 0 4 0L 153 0Q 157 0 157 4L 157 50Q 157 54 153 54L 4 54Q 0 54 0 50Z" stroke="rgba(255,255,255,1)" stroke-width="1.5" fill-opacity="1" fill="#9d8c88"></path><g id="SvgjsG1013"><text id="SvgjsText1014" font-family="&quot;Microsoft YaHei&quot;, 微软雅黑, Arial" text-anchor="middle" font-size="20px" width="137px" fill="#ffffff" font-weight="400" align="middle" lineHeight="125%" anchor="middle" family="&quot;Microsoft YaHei&quot;, 微软雅黑, Arial" size="20px" weight="400" font-style="" opacity="1" y="9" transform="rotate(0)"><tspan id="SvgjsTspan1015" dy="25" x="78.5"><tspan id="SvgjsTspan1016" style="">Linux</tspan></tspan></text></g></g><g id="SvgjsG1017" transform="translate(258.75,363.3333435058594)"><path id="SvgjsPath1018" d="M 0 4Q 0 0 4 0L 130.5 0Q 134.5 0 134.5 4L 134.5 50Q 134.5 54 130.5 54L 4 54Q 0 54 0 50Z" stroke="rgba(255,255,255,1)" stroke-width="1.5" fill-opacity="1" fill="#9d8c88"></path><g id="SvgjsG1019"><text id="SvgjsText1020" font-family="&quot;Microsoft YaHei&quot;, 微软雅黑, Arial" text-anchor="middle" font-size="20px" width="115px" fill="#ffffff" font-weight="400" align="middle" lineHeight="125%" anchor="middle" family="&quot;Microsoft YaHei&quot;, 微软雅黑, Arial" size="20px" weight="400" font-style="" opacity="1" y="9" transform="rotate(0)"><tspan id="SvgjsTspan1021" dy="25" x="67.5"><tspan id="SvgjsTspan1022" style="">Win</tspan></tspan></text></g></g><g id="SvgjsG1023" transform="translate(478,363.3333435058594)"><path id="SvgjsPath1024" d="M 0 4Q 0 0 4 0L 145 0Q 149 0 149 4L 149 50Q 149 54 145 54L 4 54Q 0 54 0 50Z" stroke="rgba(255,255,255,1)" stroke-width="1.5" fill-opacity="1" fill="#9d8c88"></path><g id="SvgjsG1025"><text id="SvgjsText1026" font-family="&quot;Microsoft YaHei&quot;, 微软雅黑, Arial" text-anchor="middle" font-size="20px" width="129px" fill="#ffffff" font-weight="400" align="middle" lineHeight="125%" anchor="middle" family="&quot;Microsoft YaHei&quot;, 微软雅黑, Arial" size="20px" weight="400" font-style="" opacity="1" y="9" transform="rotate(0)"><tspan id="SvgjsTspan1027" dy="25" x="74.5"><tspan id="SvgjsTspan1028" style="">Mac</tspan></tspan></text></g></g><g id="SvgjsG1029" transform="translate(25,234.33334350585938)"><path id="SvgjsPath1030" d="M 0 4Q 0 0 4 0L 598 0Q 602 0 602 4L 602 50Q 602 54 598 54L 4 54Q 0 54 0 50Z" stroke="rgba(255,255,255,1)" stroke-width="1.5" fill-opacity="1" fill="#4669ea"></path><g id="SvgjsG1031"><text id="SvgjsText1032" font-family="&quot;Microsoft YaHei&quot;, 微软雅黑, Arial" text-anchor="middle" font-size="20px" width="582px" fill="#ffffff" font-weight="400" align="middle" lineHeight="125%" anchor="middle" family="&quot;Microsoft YaHei&quot;, 微软雅黑, Arial" size="20px" weight="400" font-style="" opacity="1" y="9" transform="rotate(0)"><tspan id="SvgjsTspan1033" dy="25" x="301"><tspan id="SvgjsTspan1034" style="">ARCH层LOG模块</tspan></tspan></text></g></g><g id="SvgjsG1035"><path id="SvgjsPath1036" d="M325.39906607888577 288.7820955782271C 221 374.3333435058594 185 254.33334350585938 105.20147803205049 361.23692453379067" stroke="#323232" stroke-width="1.5" fill="none" marker-end="url(#SvgjsMarker1037)"></path></g><g id="SvgjsG1039"><path id="SvgjsPath1040" d="M326 289.0833435058594C 326 318.3333435058594 326 333.3333435058594 326 360.6333435058594" stroke="#323232" stroke-width="1.5" fill="none" marker-end="url(#SvgjsMarker1041)"></path></g><g id="SvgjsG1043"><path id="SvgjsPath1044" d="M326.6355098033255 288.73162392199504C 445 368.3333435058594 438 257.3333435058594 550.4718138435428 361.5510806423189" stroke="#323232" stroke-width="1.5" fill="none" marker-end="url(#SvgjsMarker1045)"></path></g><g id="SvgjsG1047" transform="translate(25,25)"><path id="SvgjsPath1048" d="M 0 4Q 0 0 4 0L 598 0Q 602 0 602 4L 602 50Q 602 54 598 54L 4 54Q 0 54 0 50Z" stroke="rgba(255,255,255,1)" stroke-width="1.5" fill-opacity="1" fill="#7bd144"></path><g id="SvgjsG1049"><text id="SvgjsText1050" font-family="&quot;Microsoft YaHei&quot;, 微软雅黑, Arial" text-anchor="middle" font-size="20px" width="582px" fill="#323232" font-weight="400" align="middle" lineHeight="125%" anchor="middle" family="&quot;Microsoft YaHei&quot;, 微软雅黑, Arial" size="20px" weight="400" font-style="" opacity="1" y="9" transform="rotate(0)"><tspan id="SvgjsTspan1051" dy="25" x="301"><tspan id="SvgjsTspan1052" style="">业务层</tspan></tspan></text></g></g><g id="SvgjsG1053" transform="translate(144.75,129.6666717529297)"><path id="SvgjsPath1054" d="M 0 4Q 0 0 3.9999999999999996 0L 358.5 0Q 362.5 0 362.5 4L 362.5 50Q 362.5 54 358.5 54L 3.9999999999999996 54Q 0 54 0 50Z" stroke="rgba(255,255,255,1)" stroke-width="1.5" fill-opacity="1" fill="#ed9745"></path><g id="SvgjsG1055"><text id="SvgjsText1056" font-family="&quot;Microsoft YaHei&quot;, 微软雅黑, Arial" text-anchor="middle" font-size="20px" width="343px" fill="#000000" font-weight="400" align="middle" lineHeight="125%" anchor="middle" family="&quot;Microsoft YaHei&quot;, 微软雅黑, Arial" size="20px" weight="400" font-style="" opacity="1" y="9" transform="rotate(0)"><tspan id="SvgjsTspan1057" dy="25" x="181.5"><tspan id="SvgjsTspan1058" style="">SystemLogOutputter 类</tspan></tspan></text></g></g><g id="SvgjsG1059"><path id="SvgjsPath1060" d="M326 184.4166717529297C 326 203.93334045410154 326 214.06667480468752 326 231.6333435058594" stroke="#323232" stroke-width="1.5" fill="none" marker-end="url(#SvgjsMarker1061)"></path></g><g id="SvgjsG1063"><path id="SvgjsPath1064" d="M326 79.75C 326 99.26666870117188 326 109.4000030517578 326 126.9666717529297" stroke="#323232" stroke-width="1.5" fill="none" marker-end="url(#SvgjsMarker1065)"></path></g><g id="SvgjsG1067"></g></svg>