<svg id="SvgjsSvg1006" width="947.1527671813965" height="603.3333396911621" xmlns="http://www.w3.org/2000/svg" version="1.1" xmlns:xlink="http://www.w3.org/1999/xlink" xmlns:svgjs="http://svgjs.com/svgjs"><defs id="SvgjsDefs1007"><pattern patternUnits="userSpaceOnUse" id="pattern_mark_0" width="300" height="300"><text x="150" y="100" fill="rgba(229,229,229,0.8)" font-size="18" transform="rotate(-45, 150, 150)" style="dominant-baseline: middle; text-anchor: middle;"></text></pattern><pattern patternUnits="userSpaceOnUse" id="pattern_mark_1" width="300" height="300"><text x="150" y="200" fill="rgba(229,229,229,0.8)" font-size="18" transform="rotate(-45, 150, 150)" style="dominant-baseline: middle; text-anchor: middle;"></text></pattern><marker id="SvgjsMarker1013" markerWidth="16" markerHeight="14" refX="8" refY="6" viewBox="0 0 16 14" orient="auto" markerUnits="userSpaceOnUse" stroke-dasharray="0,0"><path id="SvgjsPath1014" d="M0,0 L15,6 L0,12L0,0" fill="#323232" stroke="#323232" stroke-width="1"></path><path id="SvgjsPath1015" d="M2,2 L13,6 L2,10L2,2" fill="#ffffff" stroke="none" stroke-width="1"></path></marker><marker id="SvgjsMarker1018" markerWidth="16" markerHeight="14" refX="8" refY="6" viewBox="0 0 16 14" orient="auto" markerUnits="userSpaceOnUse" stroke-dasharray="0,0"><path id="SvgjsPath1019" d="M0,0 L15,6 L0,12L0,0" fill="#323232" stroke="#323232" stroke-width="1"></path><path id="SvgjsPath1020" d="M2,2 L13,6 L2,10L2,2" fill="#ffffff" stroke="none" stroke-width="1"></path></marker><marker id="SvgjsMarker1023" markerWidth="16" markerHeight="14" refX="8" refY="6" viewBox="0 0 16 14" orient="auto" markerUnits="userSpaceOnUse" stroke-dasharray="0,0"><path id="SvgjsPath1024" d="M0,0 L15,6 L0,12L0,0" fill="#323232" stroke="#323232" stroke-width="1"></path><path id="SvgjsPath1025" d="M2,2 L13,6 L2,10L2,2" fill="#ffffff" stroke="none" stroke-width="1"></path></marker><marker id="SvgjsMarker1028" markerWidth="16" markerHeight="14" refX="8" refY="6" viewBox="0 0 16 14" orient="auto" markerUnits="userSpaceOnUse" stroke-dasharray="0,0"><path id="SvgjsPath1029" d="M0,0 L15,6 L0,12L0,0" fill="#323232" stroke="#323232" stroke-width="1"></path><path id="SvgjsPath1030" d="M2,2 L13,6 L2,10L2,2" fill="#ffffff" stroke="none" stroke-width="1"></path></marker></defs><rect id="svgbackgroundid" width="947.1527671813965" height="603.3333396911621" fill="transparent"></rect><rect id="SvgjsRect1009" width="947.1527671813965" height="603.3333396911621" fill="url(#pattern_mark_0)"></rect><rect id="SvgjsRect1010" width="947.1527671813965" height="603.3333396911621" fill="url(#pattern_mark_1)"></rect><g id="SvgjsG1011"><path id="SvgjsPath1012" d="M140 487.5833396911621L140 468.2638931274414L140 468.2638931274414L140 451.5444465637207" stroke="#323232" stroke-width="2" fill="none" marker-end="url(#SvgjsMarker1013)"></path></g><g id="SvgjsG1016"><path id="SvgjsPath1017" d="M787.4922556676815 357.7921532299323L601.9240651221816 239.85291022425497" stroke="#323232" stroke-width="2" fill="none" marker-end="url(#SvgjsMarker1018)"></path></g><g id="SvgjsG1021"><path id="SvgjsPath1022" d="M140.63935057568466 357.8023613161384L333.0470012766716 239.80731410586765" stroke="#323232" stroke-width="2" fill="none" marker-end="url(#SvgjsMarker1023)"></path></g><g id="SvgjsG1026"><path id="SvgjsPath1027" d="M467.5 181.75L467.5 118.35" stroke="#323232" stroke-width="2" fill="none" marker-end="url(#SvgjsMarker1028)"></path></g><g id="SvgjsG1031" transform="translate(25,358.1944465637207)"><path id="SvgjsPath1032" d="M 0 4Q 0 0 4 0L 226 0Q 230 0 230 4L 230 86Q 230 90 226 90L 4 90Q 0 90 0 86Z" stroke="rgba(33,41,48,1)" stroke-width="1.5" fill-opacity="1" fill="#7bd144"></path><path id="SvgjsPath1033" d="M 0 30L 230 30M 0 60L 230 60" stroke="rgba(33,41,48,1)" stroke-width="1.5" fill="none"></path><path id="SvgjsPath1034" d="M 0 0L 230 0L 230 90L 0 90Z" stroke="none" fill="none"></path><g id="SvgjsG1035"><text id="SvgjsText1036" font-family="&quot;Microsoft YaHei&quot;, 微软雅黑, Arial" text-anchor="middle" font-size="20px" width="210px" fill="#323232" font-weight="400" align="middle" lineHeight="125%" anchor="middle" family="&quot;Microsoft YaHei&quot;, 微软雅黑, Arial" size="20px" weight="400" font-style="" opacity="1" y="-3" transform="rotate(0)"><tspan id="SvgjsTspan1037" dy="25" x="115"><tspan id="SvgjsTspan1038" style="">ArchDaemonNone</tspan></tspan></text></g><g id="SvgjsG1039"><text id="SvgjsText1040" font-family="&quot;Microsoft YaHei&quot;, 微软雅黑, Arial" text-anchor="start" font-size="20px" width="210px" fill="#323232" font-weight="400" align="middle" lineHeight="125%" anchor="start" family="&quot;Microsoft YaHei&quot;, 微软雅黑, Arial" size="20px" weight="400" font-style="" opacity="1" y="27" transform="rotate(0)"></text></g><g id="SvgjsG1041"><text id="SvgjsText1042" font-family="&quot;Microsoft YaHei&quot;, 微软雅黑, Arial" text-anchor="start" font-size="20px" width="210px" fill="#323232" font-weight="400" align="middle" lineHeight="125%" anchor="start" family="&quot;Microsoft YaHei&quot;, 微软雅黑, Arial" size="20px" weight="400" font-style="" opacity="1" y="57" transform="rotate(0)"></text></g></g><g id="SvgjsG1043" transform="translate(352.5,25)"><path id="SvgjsPath1044" d="M 0 4Q 0 0 4 0L 226 0Q 230 0 230 4L 230 86Q 230 90 226 90L 4 90Q 0 90 0 86Z" stroke="rgba(33,41,48,1)" stroke-width="1.5" fill-opacity="1" fill="#7bd144"></path><path id="SvgjsPath1045" d="M 0 30L 230 30M 0 60L 230 60" stroke="rgba(33,41,48,1)" stroke-width="1.5" fill="none"></path><path id="SvgjsPath1046" d="M 0 0L 230 0L 230 90L 0 90Z" stroke="none" fill="none"></path><g id="SvgjsG1047"><text id="SvgjsText1048" font-family="&quot;Microsoft YaHei&quot;, 微软雅黑, Arial" text-anchor="middle" font-size="20px" width="210px" fill="#323232" font-weight="400" align="middle" lineHeight="125%" anchor="middle" family="&quot;Microsoft YaHei&quot;, 微软雅黑, Arial" size="20px" weight="400" font-style="" opacity="1" y="-3" transform="rotate(0)"><tspan id="SvgjsTspan1049" dy="25" x="115"><tspan id="SvgjsTspan1050" style="">IInterface</tspan></tspan></text></g><g id="SvgjsG1051"><text id="SvgjsText1052" font-family="&quot;Microsoft YaHei&quot;, 微软雅黑, Arial" text-anchor="start" font-size="20px" width="210px" fill="#323232" font-weight="400" align="middle" lineHeight="125%" anchor="start" family="&quot;Microsoft YaHei&quot;, 微软雅黑, Arial" size="20px" weight="400" font-style="" opacity="1" y="27" transform="rotate(0)"></text></g><g id="SvgjsG1053"><text id="SvgjsText1054" font-family="&quot;Microsoft YaHei&quot;, 微软雅黑, Arial" text-anchor="start" font-size="20px" width="210px" fill="#323232" font-weight="400" align="middle" lineHeight="125%" anchor="start" family="&quot;Microsoft YaHei&quot;, 微软雅黑, Arial" size="20px" weight="400" font-style="" opacity="1" y="57" transform="rotate(0)"><tspan id="SvgjsTspan1055" dy="25" x="10"><tspan id="SvgjsTspan1056" style="font-style: italic;">+~IInterface()*</tspan></tspan></text></g></g><g id="SvgjsG1057" transform="translate(335.9027671813965,182.5)"><path id="SvgjsPath1058" d="M 0 4Q 0 0 4 0L 259.194 0Q 263.194 0 263.194 4L 263.194 107.111Q 263.194 111.111 259.194 111.111L 4 111.111Q 0 111.111 0 107.111Z" stroke="rgba(33,41,48,1)" stroke-width="1.5" fill-opacity="1" fill="#7bd144"></path><path id="SvgjsPath1059" d="M 0 64L 263.194 64M 0 87.556L 263.194 87.556" stroke="rgba(33,41,48,1)" stroke-width="1.5" fill="none"></path><path id="SvgjsPath1060" d="M 0 0L 263.194 0L 263.194 111.111L 0 111.111Z" stroke="none" fill="none"></path><g id="SvgjsG1061"><text id="SvgjsText1062" font-family="&quot;Microsoft YaHei&quot;, 微软雅黑, Arial" text-anchor="middle" font-size="20px" width="244px" fill="#323232" font-weight="400" align="middle" lineHeight="125%" anchor="middle" family="&quot;Microsoft YaHei&quot;, 微软雅黑, Arial" size="20px" weight="400" font-style="" opacity="1" y="1.5" transform="rotate(0)"><tspan id="SvgjsTspan1063" dy="25" x="132"><tspan id="SvgjsTspan1064" style="">&lt;&lt;abstract&gt;&gt;</tspan></tspan><tspan id="SvgjsTspan1065" dy="25" x="132"><tspan id="SvgjsTspan1066" style="">IArchDaemon</tspan></tspan></text></g><g id="SvgjsG1067"><text id="SvgjsText1068" font-family="&quot;Microsoft YaHei&quot;, 微软雅黑, Arial" text-anchor="start" font-size="20px" width="244px" fill="#323232" font-weight="400" align="middle" lineHeight="125%" anchor="start" family="&quot;Microsoft YaHei&quot;, 微软雅黑, Arial" size="20px" weight="400" font-style="" opacity="1" y="57.778" transform="rotate(0)"></text></g><g id="SvgjsG1069"><text id="SvgjsText1070" font-family="&quot;Microsoft YaHei&quot;, 微软雅黑, Arial" text-anchor="start" font-size="20px" width="244px" fill="#323232" font-weight="400" align="middle" lineHeight="125%" anchor="start" family="&quot;Microsoft YaHei&quot;, 微软雅黑, Arial" size="20px" weight="400" font-style="" opacity="1" y="81.334" transform="rotate(0)"></text></g></g><g id="SvgjsG1071" transform="translate(25,488.3333396911621)"><path id="SvgjsPath1072" d="M 0 4Q 0 0 4 0L 226 0Q 230 0 230 4L 230 86Q 230 90 226 90L 4 90Q 0 90 0 86Z" stroke="rgba(33,41,48,1)" stroke-width="1.5" fill-opacity="1" fill="#7bd144"></path><path id="SvgjsPath1073" d="M 0 30L 230 30M 0 60L 230 60" stroke="rgba(33,41,48,1)" stroke-width="1.5" fill="none"></path><path id="SvgjsPath1074" d="M 0 0L 230 0L 230 90L 0 90Z" stroke="none" fill="none"></path><g id="SvgjsG1075"><text id="SvgjsText1076" font-family="&quot;Microsoft YaHei&quot;, 微软雅黑, Arial" text-anchor="middle" font-size="20px" width="210px" fill="#323232" font-weight="400" align="middle" lineHeight="125%" anchor="middle" family="&quot;Microsoft YaHei&quot;, 微软雅黑, Arial" size="20px" weight="400" font-style="" opacity="1" y="-3" transform="rotate(0)"><tspan id="SvgjsTspan1077" dy="25" x="115"><tspan id="SvgjsTspan1078" style="">ArchDaemonUnix</tspan></tspan></text></g><g id="SvgjsG1079"><text id="SvgjsText1080" font-family="&quot;Microsoft YaHei&quot;, 微软雅黑, Arial" text-anchor="start" font-size="20px" width="210px" fill="#323232" font-weight="400" align="middle" lineHeight="125%" anchor="start" family="&quot;Microsoft YaHei&quot;, 微软雅黑, Arial" size="20px" weight="400" font-style="" opacity="1" y="27" transform="rotate(0)"></text></g><g id="SvgjsG1081"><text id="SvgjsText1082" font-family="&quot;Microsoft YaHei&quot;, 微软雅黑, Arial" text-anchor="start" font-size="20px" width="210px" fill="#323232" font-weight="400" align="middle" lineHeight="125%" anchor="start" family="&quot;Microsoft YaHei&quot;, 微软雅黑, Arial" size="20px" weight="400" font-style="" opacity="1" y="57" transform="rotate(0)"></text></g></g><g id="SvgjsG1083" transform="translate(654.0972328186035,358.1944465637207)"><path id="SvgjsPath1084" d="M 0 4Q 0 0 4 0L 264.056 0Q 268.056 0 268.056 4L 268.056 90.306Q 268.056 94.306 264.056 94.306L 4 94.306Q 0 94.306 0 90.306Z" stroke="rgba(33,41,48,1)" stroke-width="1.5" fill-opacity="1" fill="#7bd144"></path><path id="SvgjsPath1085" d="M 0 30L 268.056 30M 0 62.153L 268.056 62.153" stroke="rgba(33,41,48,1)" stroke-width="1.5" fill="none"></path><path id="SvgjsPath1086" d="M 0 0L 268.056 0L 268.056 94.306L 0 94.306Z" stroke="none" fill="none"></path><g id="SvgjsG1087"><text id="SvgjsText1088" font-family="&quot;Microsoft YaHei&quot;, 微软雅黑, Arial" text-anchor="middle" font-size="20px" width="249px" fill="#323232" font-weight="400" align="middle" lineHeight="125%" anchor="middle" family="&quot;Microsoft YaHei&quot;, 微软雅黑, Arial" size="20px" weight="400" font-style="" opacity="1" y="-3" transform="rotate(0)"><tspan id="SvgjsTspan1089" dy="25" x="134.5"><tspan id="SvgjsTspan1090" style="">ArchDaemonWindows</tspan></tspan></text></g><g id="SvgjsG1091"><text id="SvgjsText1092" font-family="&quot;Microsoft YaHei&quot;, 微软雅黑, Arial" text-anchor="start" font-size="20px" width="249px" fill="#323232" font-weight="400" align="middle" lineHeight="125%" anchor="start" family="&quot;Microsoft YaHei&quot;, 微软雅黑, Arial" size="20px" weight="400" font-style="" opacity="1" y="28.076499999999996" transform="rotate(0)"></text></g><g id="SvgjsG1093"><text id="SvgjsText1094" font-family="&quot;Microsoft YaHei&quot;, 微软雅黑, Arial" text-anchor="start" font-size="20px" width="249px" fill="#323232" font-weight="400" align="middle" lineHeight="125%" anchor="start" family="&quot;Microsoft YaHei&quot;, 微软雅黑, Arial" size="20px" weight="400" font-style="" opacity="1" y="60.2295" transform="rotate(0)"></text></g></g><g id="SvgjsG1095"></g></svg>