<svg id="SvgjsSvg1183" width="2004.3055852254229" height="837.0277777777777" xmlns="http://www.w3.org/2000/svg" version="1.1" xmlns:xlink="http://www.w3.org/1999/xlink" xmlns:svgjs="http://svgjs.com/svgjs"><defs id="SvgjsDefs1184"><pattern patternUnits="userSpaceOnUse" id="pattern_mark_0" width="300" height="300"><text x="150" y="100" fill="rgba(229,229,229,0.8)" font-size="18" transform="rotate(-45, 150, 150)" style="dominant-baseline: middle; text-anchor: middle;"></text></pattern><pattern patternUnits="userSpaceOnUse" id="pattern_mark_1" width="300" height="300"><text x="150" y="200" fill="rgba(229,229,229,0.8)" font-size="18" transform="rotate(-45, 150, 150)" style="dominant-baseline: middle; text-anchor: middle;"></text></pattern><marker id="SvgjsMarker1280" markerWidth="16" markerHeight="14" refX="8" refY="6" viewBox="0 0 16 14" orient="auto" markerUnits="userSpaceOnUse" stroke-dasharray="0,0"><path id="SvgjsPath1281" d="M0,0 L15,6 L0,12L0,0" fill="#e74f4c" stroke="#e74f4c" stroke-width="1"></path><path id="SvgjsPath1282" d="M2,2 L13,6 L2,10L2,2" fill="#ffffff" stroke="none" stroke-width="1"></path></marker><marker id="SvgjsMarker1285" markerWidth="16" markerHeight="14" refX="8" refY="6" viewBox="0 0 16 14" orient="auto" markerUnits="userSpaceOnUse" stroke-dasharray="0,0"><path id="SvgjsPath1286" d="M0,0 L15,6 L0,12L0,0" fill="#e74f4c" stroke="#e74f4c" stroke-width="1"></path><path id="SvgjsPath1287" d="M2,2 L13,6 L2,10L2,2" fill="#ffffff" stroke="none" stroke-width="1"></path></marker><marker id="SvgjsMarker1290" markerWidth="16" markerHeight="14" refX="8" refY="6" viewBox="0 0 16 14" orient="auto" markerUnits="userSpaceOnUse" stroke-dasharray="0,0"><path id="SvgjsPath1291" d="M0,0 L15,6 L0,12L0,0" fill="#e74f4c" stroke="#e74f4c" stroke-width="1"></path><path id="SvgjsPath1292" d="M2,2 L13,6 L2,10L2,2" fill="#ffffff" stroke="none" stroke-width="1"></path></marker><marker id="SvgjsMarker1295" markerWidth="16" markerHeight="14" refX="8" refY="6" viewBox="0 0 16 14" orient="auto" markerUnits="userSpaceOnUse" stroke-dasharray="0,0"><path id="SvgjsPath1296" d="M0,0 L15,6 L0,12L0,0" fill="#e74f4c" stroke="#e74f4c" stroke-width="1"></path><path id="SvgjsPath1297" d="M2,2 L13,6 L2,10L2,2" fill="#ffffff" stroke="none" stroke-width="1"></path></marker><marker id="SvgjsMarker1300" markerWidth="16" markerHeight="14" refX="8" refY="6" viewBox="0 0 16 14" orient="auto" markerUnits="userSpaceOnUse" stroke-dasharray="0,0"><path id="SvgjsPath1301" d="M0,0 L15,6 L0,12L0,0" fill="#e74f4c" stroke="#e74f4c" stroke-width="1"></path><path id="SvgjsPath1302" d="M2,2 L13,6 L2,10L2,2" fill="#ffffff" stroke="none" stroke-width="1"></path></marker><marker id="SvgjsMarker1305" markerWidth="16" markerHeight="14" refX="8" refY="6" viewBox="0 0 16 14" orient="auto" markerUnits="userSpaceOnUse" stroke-dasharray="0,0"><path id="SvgjsPath1306" d="M0,0 L15,6 L0,12L0,0" fill="#e74f4c" stroke="#e74f4c" stroke-width="1"></path><path id="SvgjsPath1307" d="M2,2 L13,6 L2,10L2,2" fill="#ffffff" stroke="none" stroke-width="1"></path></marker><marker id="SvgjsMarker1322" markerWidth="16" markerHeight="16.78" refX="9" refY="8.39" viewBox="0 0 16 16.78" orient="auto" markerUnits="userSpaceOnUse" stroke-dasharray="0,0"><path id="SvgjsPath1323" d="M1.24,0 L11.239999999999998,8 L10,9.559999999999999 L0,1.56 Z" fill="#4669ea" stroke="none" stroke-width="1"></path><path id="SvgjsPath1324" d="M11.239999999999998,8.78 L1.24,16.78 L0,15.22 L10,7.22 Z" fill="#4669ea" stroke="none" stroke-width="1"></path></marker><marker id="SvgjsMarker1339" markerWidth="16" markerHeight="16.78" refX="9" refY="8.39" viewBox="0 0 16 16.78" orient="auto" markerUnits="userSpaceOnUse" stroke-dasharray="0,0"><path id="SvgjsPath1340" d="M1.24,0 L11.239999999999998,8 L10,9.559999999999999 L0,1.56 Z" fill="#4669ea" stroke="none" stroke-width="1"></path><path id="SvgjsPath1341" d="M11.239999999999998,8.78 L1.24,16.78 L0,15.22 L10,7.22 Z" fill="#4669ea" stroke="none" stroke-width="1"></path></marker><marker id="SvgjsMarker1344" markerWidth="16" markerHeight="20" refX="3" refY="10" viewBox="0 0 16 20" orient="auto" markerUnits="userSpaceOnUse" stroke-dasharray="0,0"><path id="SvgjsPath1345" d="M14,1 L1,10 L14,19 L16,19 L3,10 L16,1Z" fill="#4669ea" stroke="#4669ea" stroke-width="1"></path></marker><marker id="SvgjsMarker1348" markerWidth="16" markerHeight="20" refX="3" refY="10" viewBox="0 0 16 20" orient="auto" markerUnits="userSpaceOnUse" stroke-dasharray="0,0"><path id="SvgjsPath1349" d="M14,1 L1,10 L14,19 L16,19 L3,10 L16,1Z" fill="#4669ea" stroke="#4669ea" stroke-width="1"></path></marker><marker id="SvgjsMarker1352" markerWidth="16" markerHeight="20" refX="3" refY="10" viewBox="0 0 16 20" orient="auto" markerUnits="userSpaceOnUse" stroke-dasharray="0,0"><path id="SvgjsPath1353" d="M14,1 L1,10 L14,19 L16,19 L3,10 L16,1Z" fill="#4669ea" stroke="#4669ea" stroke-width="1"></path></marker><marker id="SvgjsMarker1356" markerWidth="16" markerHeight="16.78" refX="9" refY="8.39" viewBox="0 0 16 16.78" orient="auto" markerUnits="userSpaceOnUse" stroke-dasharray="0,0"><path id="SvgjsPath1357" d="M1.24,0 L11.239999999999998,8 L10,9.559999999999999 L0,1.56 Z" fill="#4669ea" stroke="none" stroke-width="1"></path><path id="SvgjsPath1358" d="M11.239999999999998,8.78 L1.24,16.78 L0,15.22 L10,7.22 Z" fill="#4669ea" stroke="none" stroke-width="1"></path></marker></defs><rect id="svgbackgroundid" width="2004.3055852254229" height="837.0277777777777" fill="transparent"></rect><rect id="SvgjsRect1186" width="2004.3055852254229" height="837.0277777777777" fill="url(#pattern_mark_0)"></rect><rect id="SvgjsRect1187" width="2004.3055852254229" height="837.0277777777777" fill="url(#pattern_mark_1)"></rect><g id="SvgjsG1188" transform="translate(935.2778074476454,26.5)"><path id="SvgjsPath1189" d="M 0 3.9999999999999996Q 0 0 4 0L 226 0Q 230 0 230 3.9999999999999996L 230 103Q 230 107 226 107L 4 107Q 0 107 0 103Z" stroke="rgba(33,41,48,1)" stroke-width="1.5" fill-opacity="1" fill="#95da69"></path><path id="SvgjsPath1190" d="M 0 47L 230 47M 0 77L 230 77" stroke="rgba(33,41,48,1)" stroke-width="1.5" fill="none"></path><path id="SvgjsPath1191" d="M 0 3.9999999999999996Q 0 0 4 0L 226 0Q 230 0 230 3.9999999999999996L 230 103Q 230 107 226 107L 4 107Q 0 107 0 103Z" stroke="none" fill="none"></path><g id="SvgjsG1192"><text id="SvgjsText1193" font-family="&quot;Microsoft YaHei&quot;, 微软雅黑, Arial" text-anchor="middle" font-size="20px" width="210px" fill="#323232" font-weight="700" align="middle" lineHeight="125%" anchor="middle" family="&quot;Microsoft YaHei&quot;, 微软雅黑, Arial" size="20px" weight="700" font-style="" opacity="1" y="-7" transform="rotate(0)"><tspan id="SvgjsTspan1194" dy="25" x="115"><tspan id="SvgjsTspan1195" style="">&lt;interface&gt;</tspan></tspan><tspan id="SvgjsTspan1196" dy="25" x="115"><tspan id="SvgjsTspan1197" style="">IInterface</tspan></tspan></text></g><g id="SvgjsG1198"><text id="SvgjsText1199" font-family="&quot;Microsoft YaHei&quot;, 微软雅黑, Arial" text-anchor="start" font-size="20px" width="210px" fill="#323232" font-weight="400" align="middle" lineHeight="125%" anchor="start" family="&quot;Microsoft YaHei&quot;, 微软雅黑, Arial" size="20px" weight="400" font-style="" opacity="1" y="44" transform="rotate(0)"></text></g><g id="SvgjsG1200"><text id="SvgjsText1201" font-family="&quot;Microsoft YaHei&quot;, 微软雅黑, Arial" text-anchor="start" font-size="20px" width="210px" fill="#323232" font-weight="400" align="middle" lineHeight="125%" anchor="start" family="&quot;Microsoft YaHei&quot;, 微软雅黑, Arial" size="20px" weight="400" font-style="" opacity="1" y="74" transform="rotate(0)"></text></g></g><g id="SvgjsG1202" transform="translate(1411.250029669868,210.94444444444443)"><path id="SvgjsPath1203" d="M 0 4Q 0 0 4 0L 226 0Q 230 0 230 4L 230 120Q 230 124 226 124L 4 124Q 0 124 0 120Z" stroke="rgba(33,41,48,1)" stroke-width="1.5" fill-opacity="1" fill="#95da69"></path><path id="SvgjsPath1204" d="M 0 64L 230 64M 0 94L 230 94" stroke="rgba(33,41,48,1)" stroke-width="1.5" fill="none"></path><path id="SvgjsPath1205" d="M 0 4Q 0 0 4 0L 226 0Q 230 0 230 4L 230 120Q 230 124 226 124L 4 124Q 0 124 0 120Z" stroke="none" fill="none"></path><g id="SvgjsG1206"><text id="SvgjsText1207" font-family="&quot;Microsoft YaHei&quot;, 微软雅黑, Arial" text-anchor="middle" font-size="20px" width="210px" fill="#323232" font-weight="700" align="middle" lineHeight="125%" anchor="middle" family="&quot;Microsoft YaHei&quot;, 微软雅黑, Arial" size="20px" weight="700" font-style="" opacity="1" y="1.5" transform="rotate(0)"><tspan id="SvgjsTspan1208" dy="25" x="115"><tspan id="SvgjsTspan1209" style="">&lt;abstract&gt;</tspan></tspan><tspan id="SvgjsTspan1210" dy="25" x="115"><tspan id="SvgjsTspan1211" style="">IEventQueue</tspan></tspan></text></g><g id="SvgjsG1212"><text id="SvgjsText1213" font-family="&quot;Microsoft YaHei&quot;, 微软雅黑, Arial" text-anchor="start" font-size="20px" width="210px" fill="#323232" font-weight="400" align="middle" lineHeight="125%" anchor="start" family="&quot;Microsoft YaHei&quot;, 微软雅黑, Arial" size="20px" weight="400" font-style="" opacity="1" y="61" transform="rotate(0)"></text></g><g id="SvgjsG1214"><text id="SvgjsText1215" font-family="&quot;Microsoft YaHei&quot;, 微软雅黑, Arial" text-anchor="start" font-size="20px" width="210px" fill="#323232" font-weight="400" align="middle" lineHeight="125%" anchor="start" family="&quot;Microsoft YaHei&quot;, 微软雅黑, Arial" size="20px" weight="400" font-style="" opacity="1" y="91" transform="rotate(0)"></text></g></g><g id="SvgjsG1216" transform="translate(498.6111407809788,210.94444444444443)"><path id="SvgjsPath1217" d="M 0 4Q 0 0 4 0L 226 0Q 230 0 230 4L 230 120Q 230 124 226 124L 4 124Q 0 124 0 120Z" stroke="rgba(33,41,48,1)" stroke-width="1.5" fill-opacity="1" fill="#95da69"></path><path id="SvgjsPath1218" d="M 0 64L 230 64M 0 94L 230 94" stroke="rgba(33,41,48,1)" stroke-width="1.5" fill="none"></path><path id="SvgjsPath1219" d="M 0 4Q 0 0 4 0L 226 0Q 230 0 230 4L 230 120Q 230 124 226 124L 4 124Q 0 124 0 120Z" stroke="none" fill="none"></path><g id="SvgjsG1220"><text id="SvgjsText1221" font-family="&quot;Microsoft YaHei&quot;, 微软雅黑, Arial" text-anchor="middle" font-size="20px" width="210px" fill="#323232" font-weight="700" align="middle" lineHeight="125%" anchor="middle" family="&quot;Microsoft YaHei&quot;, 微软雅黑, Arial" size="20px" weight="700" font-style="" opacity="1" y="1.5" transform="rotate(0)"><tspan id="SvgjsTspan1222" dy="25" x="115"><tspan id="SvgjsTspan1223" style="">&lt;abstract&gt;</tspan></tspan><tspan id="SvgjsTspan1224" dy="25" x="115"><tspan id="SvgjsTspan1225" style="">IEventQueueBuffer</tspan></tspan></text></g><g id="SvgjsG1226"><text id="SvgjsText1227" font-family="&quot;Microsoft YaHei&quot;, 微软雅黑, Arial" text-anchor="start" font-size="20px" width="210px" fill="#323232" font-weight="400" align="middle" lineHeight="125%" anchor="start" family="&quot;Microsoft YaHei&quot;, 微软雅黑, Arial" size="20px" weight="400" font-style="" opacity="1" y="61" transform="rotate(0)"></text></g><g id="SvgjsG1228"><text id="SvgjsText1229" font-family="&quot;Microsoft YaHei&quot;, 微软雅黑, Arial" text-anchor="start" font-size="20px" width="210px" fill="#323232" font-weight="400" align="middle" lineHeight="125%" anchor="start" family="&quot;Microsoft YaHei&quot;, 微软雅黑, Arial" size="20px" weight="400" font-style="" opacity="1" y="91" transform="rotate(0)"></text></g></g><g id="SvgjsG1230" transform="translate(1411.250029669868,525.7777777777777)"><path id="SvgjsPath1231" d="M 0 4Q 0 0 4 0L 226 0Q 230 0 230 4L 230 86Q 230 90 226 90L 4 90Q 0 90 0 86Z" stroke="rgba(33,41,48,1)" stroke-width="1.5" fill-opacity="1" fill="#95da69"></path><path id="SvgjsPath1232" d="M 0 30L 230 30M 0 60L 230 60" stroke="rgba(33,41,48,1)" stroke-width="1.5" fill="none"></path><path id="SvgjsPath1233" d="M 0 4Q 0 0 4 0L 226 0Q 230 0 230 4L 230 86Q 230 90 226 90L 4 90Q 0 90 0 86Z" stroke="none" fill="none"></path><g id="SvgjsG1234"><text id="SvgjsText1235" font-family="&quot;Microsoft YaHei&quot;, 微软雅黑, Arial" text-anchor="middle" font-size="20px" width="210px" fill="#323232" font-weight="700" align="middle" lineHeight="125%" anchor="middle" family="&quot;Microsoft YaHei&quot;, 微软雅黑, Arial" size="20px" weight="700" font-style="" opacity="1" y="-3" transform="rotate(0)"><tspan id="SvgjsTspan1236" dy="25" x="115"><tspan id="SvgjsTspan1237" style="">EventQueue</tspan></tspan></text></g><g id="SvgjsG1238"><text id="SvgjsText1239" font-family="&quot;Microsoft YaHei&quot;, 微软雅黑, Arial" text-anchor="start" font-size="20px" width="210px" fill="#323232" font-weight="400" align="middle" lineHeight="125%" anchor="start" family="&quot;Microsoft YaHei&quot;, 微软雅黑, Arial" size="20px" weight="400" font-style="" opacity="1" y="27" transform="rotate(0)"></text></g><g id="SvgjsG1240"><text id="SvgjsText1241" font-family="&quot;Microsoft YaHei&quot;, 微软雅黑, Arial" text-anchor="start" font-size="20px" width="210px" fill="#323232" font-weight="400" align="middle" lineHeight="125%" anchor="start" family="&quot;Microsoft YaHei&quot;, 微软雅黑, Arial" size="20px" weight="400" font-style="" opacity="1" y="57" transform="rotate(0)"></text></g></g><g id="SvgjsG1242" transform="translate(25,525.7777777777777)"><path id="SvgjsPath1243" d="M 0 4Q 0 0 4 0L 263.5 0Q 267.5 0 267.5 4L 267.5 86Q 267.5 90 263.5 90L 4 90Q 0 90 0 86Z" stroke="rgba(33,41,48,1)" stroke-width="1.5" fill-opacity="1" fill="#95da69"></path><path id="SvgjsPath1244" d="M 0 30L 267.5 30M 0 60L 267.5 60" stroke="rgba(33,41,48,1)" stroke-width="1.5" fill="none"></path><path id="SvgjsPath1245" d="M 0 4Q 0 0 4 0L 263.5 0Q 267.5 0 267.5 4L 267.5 86Q 267.5 90 263.5 90L 4 90Q 0 90 0 86Z" stroke="none" fill="none"></path><g id="SvgjsG1246"><text id="SvgjsText1247" font-family="&quot;Microsoft YaHei&quot;, 微软雅黑, Arial" text-anchor="middle" font-size="20px" width="248px" fill="#323232" font-weight="700" align="middle" lineHeight="125%" anchor="middle" family="&quot;Microsoft YaHei&quot;, 微软雅黑, Arial" size="20px" weight="700" font-style="" opacity="1" y="-3" transform="rotate(0)"><tspan id="SvgjsTspan1248" dy="25" x="134"><tspan id="SvgjsTspan1249" style="">EiEventQueueBuffer</tspan></tspan></text></g><g id="SvgjsG1250"><text id="SvgjsText1251" font-family="&quot;Microsoft YaHei&quot;, 微软雅黑, Arial" text-anchor="start" font-size="20px" width="248px" fill="#323232" font-weight="400" align="middle" lineHeight="125%" anchor="start" family="&quot;Microsoft YaHei&quot;, 微软雅黑, Arial" size="20px" weight="400" font-style="" opacity="1" y="27" transform="rotate(0)"></text></g><g id="SvgjsG1252"><text id="SvgjsText1253" font-family="&quot;Microsoft YaHei&quot;, 微软雅黑, Arial" text-anchor="start" font-size="20px" width="248px" fill="#323232" font-weight="400" align="middle" lineHeight="125%" anchor="start" family="&quot;Microsoft YaHei&quot;, 微软雅黑, Arial" size="20px" weight="400" font-style="" opacity="1" y="57" transform="rotate(0)"></text></g></g><g id="SvgjsG1254" transform="translate(704.8611111111109,525.7777777777777)"><path id="SvgjsPath1255" d="M 0 4Q 0 0 4 0L 322.528 0Q 326.528 0 326.528 4L 326.528 86Q 326.528 90 322.528 90L 4 90Q 0 90 0 86Z" stroke="rgba(33,41,48,1)" stroke-width="1.5" fill-opacity="1" fill="#95da69"></path><path id="SvgjsPath1256" d="M 0 30L 326.528 30M 0 60L 326.528 60" stroke="rgba(33,41,48,1)" stroke-width="1.5" fill="none"></path><path id="SvgjsPath1257" d="M 0 4Q 0 0 4 0L 322.528 0Q 326.528 0 326.528 4L 326.528 86Q 326.528 90 322.528 90L 4 90Q 0 90 0 86Z" stroke="none" fill="none"></path><g id="SvgjsG1258"><text id="SvgjsText1259" font-family="&quot;Microsoft YaHei&quot;, 微软雅黑, Arial" text-anchor="middle" font-size="20px" width="307px" fill="#323232" font-weight="700" align="middle" lineHeight="125%" anchor="middle" family="&quot;Microsoft YaHei&quot;, 微软雅黑, Arial" size="20px" weight="700" font-style="" opacity="1" y="-3" transform="rotate(0)"><tspan id="SvgjsTspan1260" dy="25" x="163.5"><tspan id="SvgjsTspan1261" style="">MSWindowsEventQueueBuffer</tspan></tspan></text></g><g id="SvgjsG1262"><text id="SvgjsText1263" font-family="&quot;Microsoft YaHei&quot;, 微软雅黑, Arial" text-anchor="start" font-size="20px" width="307px" fill="#323232" font-weight="400" align="middle" lineHeight="125%" anchor="start" family="&quot;Microsoft YaHei&quot;, 微软雅黑, Arial" size="20px" weight="400" font-style="" opacity="1" y="27" transform="rotate(0)"></text></g><g id="SvgjsG1264"><text id="SvgjsText1265" font-family="&quot;Microsoft YaHei&quot;, 微软雅黑, Arial" text-anchor="start" font-size="20px" width="307px" fill="#323232" font-weight="400" align="middle" lineHeight="125%" anchor="start" family="&quot;Microsoft YaHei&quot;, 微软雅黑, Arial" size="20px" weight="400" font-style="" opacity="1" y="57" transform="rotate(0)"></text></g></g><g id="SvgjsG1266" transform="translate(356.25,525.7777777777777)"><path id="SvgjsPath1267" d="M 0 4Q 0 0 4 0L 280.861 0Q 284.861 0 284.861 4L 284.861 86Q 284.861 90 280.861 90L 4 90Q 0 90 0 86Z" stroke="rgba(33,41,48,1)" stroke-width="1.5" fill-opacity="1" fill="#95da69"></path><path id="SvgjsPath1268" d="M 0 30L 284.861 30M 0 60L 284.861 60" stroke="rgba(33,41,48,1)" stroke-width="1.5" fill="none"></path><path id="SvgjsPath1269" d="M 0 4Q 0 0 4 0L 280.861 0Q 284.861 0 284.861 4L 284.861 86Q 284.861 90 280.861 90L 4 90Q 0 90 0 86Z" stroke="none" fill="none"></path><g id="SvgjsG1270"><text id="SvgjsText1271" font-family="&quot;Microsoft YaHei&quot;, 微软雅黑, Arial" text-anchor="middle" font-size="20px" width="265px" fill="#323232" font-weight="700" align="middle" lineHeight="125%" anchor="middle" family="&quot;Microsoft YaHei&quot;, 微软雅黑, Arial" size="20px" weight="700" font-style="" opacity="1" y="-3" transform="rotate(0)"><tspan id="SvgjsTspan1272" dy="25" x="142.5"><tspan id="SvgjsTspan1273" style="">OSXEventQueueBuffer</tspan></tspan></text></g><g id="SvgjsG1274"><text id="SvgjsText1275" font-family="&quot;Microsoft YaHei&quot;, 微软雅黑, Arial" text-anchor="start" font-size="20px" width="265px" fill="#323232" font-weight="400" align="middle" lineHeight="125%" anchor="start" family="&quot;Microsoft YaHei&quot;, 微软雅黑, Arial" size="20px" weight="400" font-style="" opacity="1" y="27" transform="rotate(0)"></text></g><g id="SvgjsG1276"><text id="SvgjsText1277" font-family="&quot;Microsoft YaHei&quot;, 微软雅黑, Arial" text-anchor="start" font-size="20px" width="265px" fill="#323232" font-weight="400" align="middle" lineHeight="125%" anchor="start" family="&quot;Microsoft YaHei&quot;, 微软雅黑, Arial" size="20px" weight="400" font-style="" opacity="1" y="57" transform="rotate(0)"></text></g></g><g id="SvgjsG1278"><path id="SvgjsPath1279" d="M159.35206936516596 525.330530259476L495.9219638792759 275.30326113730365" stroke="#e74f4c" stroke-width="2" fill="none" marker-end="url(#SvgjsMarker1280)"></path></g><g id="SvgjsG1283"><path id="SvgjsPath1284" d="M499.06804548022006 525.1356227693583L611.8804187135152 338.1738479264958" stroke="#e74f4c" stroke-width="2" fill="none" marker-end="url(#SvgjsMarker1285)"></path></g><g id="SvgjsG1288"><path id="SvgjsPath1289" d="M867.762241053716 525.1213353129106L730.2313978116758 276.23766523196207" stroke="#e74f4c" stroke-width="2" fill="none" marker-end="url(#SvgjsMarker1290)"></path></g><g id="SvgjsG1293"><path id="SvgjsPath1294" d="M1526.250029669868 525.0277777777777L1526.250029669868 338.65555555555557" stroke="#e74f4c" stroke-width="2" fill="none" marker-end="url(#SvgjsMarker1295)"></path></g><g id="SvgjsG1298"><path id="SvgjsPath1299" d="M1525.5452115270123 211.049174227254L1168.4259951524002 81.1451699330801" stroke="#e74f4c" stroke-width="2" fill="none" marker-end="url(#SvgjsMarker1300)"></path></g><g id="SvgjsG1303"><path id="SvgjsPath1304" d="M614.3055166657222 211.0221086810148L932.1762618291251 81.26606270628196" stroke="#e74f4c" stroke-width="2" fill="none" marker-end="url(#SvgjsMarker1305)"></path></g><g id="SvgjsG1308" transform="translate(1411.250029669868,722.0277777777777)"><path id="SvgjsPath1309" d="M 0 4Q 0 0 4 0L 226 0Q 230 0 230 4L 230 86Q 230 90 226 90L 4 90Q 0 90 0 86Z" stroke="rgba(33,41,48,1)" stroke-width="1.5" fill-opacity="1" fill="#95da69"></path><path id="SvgjsPath1310" d="M 0 30L 230 30M 0 60L 230 60" stroke="rgba(33,41,48,1)" stroke-width="1.5" fill="none"></path><path id="SvgjsPath1311" d="M 0 4Q 0 0 4 0L 226 0Q 230 0 230 4L 230 86Q 230 90 226 90L 4 90Q 0 90 0 86Z" stroke="none" fill="none"></path><g id="SvgjsG1312"><text id="SvgjsText1313" font-family="&quot;Microsoft YaHei&quot;, 微软雅黑, Arial" text-anchor="middle" font-size="20px" width="210px" fill="#323232" font-weight="700" align="middle" lineHeight="125%" anchor="middle" family="&quot;Microsoft YaHei&quot;, 微软雅黑, Arial" size="20px" weight="700" font-style="" opacity="1" y="-3" transform="rotate(0)"><tspan id="SvgjsTspan1314" dy="25" x="115"><tspan id="SvgjsTspan1315" style="">EventQueueTimer</tspan></tspan></text></g><g id="SvgjsG1316"><text id="SvgjsText1317" font-family="&quot;Microsoft YaHei&quot;, 微软雅黑, Arial" text-anchor="start" font-size="20px" width="210px" fill="#323232" font-weight="400" align="middle" lineHeight="125%" anchor="start" family="&quot;Microsoft YaHei&quot;, 微软雅黑, Arial" size="20px" weight="400" font-style="" opacity="1" y="27" transform="rotate(0)"></text></g><g id="SvgjsG1318"><text id="SvgjsText1319" font-family="&quot;Microsoft YaHei&quot;, 微软雅黑, Arial" text-anchor="start" font-size="20px" width="210px" fill="#323232" font-weight="400" align="middle" lineHeight="125%" anchor="start" family="&quot;Microsoft YaHei&quot;, 微软雅黑, Arial" size="20px" weight="400" font-style="" opacity="1" y="57" transform="rotate(0)"></text></g></g><g id="SvgjsG1320"><path id="SvgjsPath1321" d="M1526.250029669868 721.2777777777777L1526.250029669868 617.5277777777777" stroke="#4669ea" stroke-width="2" fill="none" marker-end="url(#SvgjsMarker1322)"></path></g><g id="SvgjsG1325" transform="translate(1749.3055852254229,525.7777777777777)"><path id="SvgjsPath1326" d="M 0 4Q 0 0 4 0L 226 0Q 230 0 230 4L 230 86Q 230 90 226 90L 4 90Q 0 90 0 86Z" stroke="rgba(33,41,48,1)" stroke-width="1.5" fill-opacity="1" fill="#95da69"></path><path id="SvgjsPath1327" d="M 0 30L 230 30M 0 60L 230 60" stroke="rgba(33,41,48,1)" stroke-width="1.5" fill="none"></path><path id="SvgjsPath1328" d="M 0 4Q 0 0 4 0L 226 0Q 230 0 230 4L 230 86Q 230 90 226 90L 4 90Q 0 90 0 86Z" stroke="none" fill="none"></path><g id="SvgjsG1329"><text id="SvgjsText1330" font-family="&quot;Microsoft YaHei&quot;, 微软雅黑, Arial" text-anchor="middle" font-size="20px" width="210px" fill="#323232" font-weight="700" align="middle" lineHeight="125%" anchor="middle" family="&quot;Microsoft YaHei&quot;, 微软雅黑, Arial" size="20px" weight="700" font-style="" opacity="1" y="-3" transform="rotate(0)"><tspan id="SvgjsTspan1331" dy="25" x="115"><tspan id="SvgjsTspan1332" style="">Event</tspan></tspan></text></g><g id="SvgjsG1333"><text id="SvgjsText1334" font-family="&quot;Microsoft YaHei&quot;, 微软雅黑, Arial" text-anchor="start" font-size="20px" width="210px" fill="#323232" font-weight="400" align="middle" lineHeight="125%" anchor="start" family="&quot;Microsoft YaHei&quot;, 微软雅黑, Arial" size="20px" weight="400" font-style="" opacity="1" y="27" transform="rotate(0)"></text></g><g id="SvgjsG1335"><text id="SvgjsText1336" font-family="&quot;Microsoft YaHei&quot;, 微软雅黑, Arial" text-anchor="start" font-size="20px" width="210px" fill="#323232" font-weight="400" align="middle" lineHeight="125%" anchor="start" family="&quot;Microsoft YaHei&quot;, 微软雅黑, Arial" size="20px" weight="400" font-style="" opacity="1" y="57" transform="rotate(0)"></text></g></g><g id="SvgjsG1337"><path id="SvgjsPath1338" d="M1748.5555852254229 570.7777777777777L1643.000029669868 570.7777777777777" stroke="#4669ea" stroke-width="2" fill="none" marker-end="url(#SvgjsMarker1339)"></path></g><g id="SvgjsG1342"><path id="SvgjsPath1343" d="M1410.177388734107 213.29763413540658C 1152.592608133952 209.60184054904514 1045.9259414672852 321.2685072157118 967.8651835157366 525.0790627706075" stroke="#4669ea" stroke-width="2" fill="none" marker-start="url(#SvgjsMarker1344)"></path></g><g id="SvgjsG1346"><path id="SvgjsPath1347" d="M1409.500030976084 273.30769372165037C 1045.9259414672852 272.9351738823785 827.5926081339519 327.9351738823785 641.571749324743 570.1859922932068" stroke="#4669ea" stroke-width="2" fill="none" marker-start="url(#SvgjsMarker1348)"></path></g><g id="SvgjsG1350"><path id="SvgjsPath1351" d="M1411.654900523177 334.49457948442364C 1009.2592748006185 706.2685072157118 1025.9259414672852 784.6018405490452 159.48629254084324 615.9205128270775" stroke="#4669ea" stroke-width="2" fill="none" marker-start="url(#SvgjsMarker1352)"></path></g><g id="SvgjsG1354"><path id="SvgjsPath1355" d="M1410.5001383296856 570.765011497209C 1109.0897725418756 570.7777777777777 1030.771397908971 247.3055555555555 730.3608872414043 247.3353435435492" stroke="#4669ea" stroke-width="2" fill="none" marker-end="url(#SvgjsMarker1356)"></path></g><g id="SvgjsG1359"></g></svg>