<svg id="SvgjsSvg1006" width="2004.3055852254229" height="640.7777777777777" xmlns="http://www.w3.org/2000/svg" version="1.1" xmlns:xlink="http://www.w3.org/1999/xlink" xmlns:svgjs="http://svgjs.com/svgjs"><defs id="SvgjsDefs1007"><pattern patternUnits="userSpaceOnUse" id="pattern_mark_0" width="300" height="300"><text x="150" y="100" fill="rgba(229,229,229,0.8)" font-size="18" transform="rotate(-45, 150, 150)" style="dominant-baseline: middle; text-anchor: middle;"></text></pattern><pattern patternUnits="userSpaceOnUse" id="pattern_mark_1" width="300" height="300"><text x="150" y="200" fill="rgba(229,229,229,0.8)" font-size="18" transform="rotate(-45, 150, 150)" style="dominant-baseline: middle; text-anchor: middle;"></text></pattern><marker id="SvgjsMarker1103" markerWidth="16" markerHeight="14" refX="8" refY="6" viewBox="0 0 16 14" orient="auto" markerUnits="userSpaceOnUse" stroke-dasharray="0,0"><path id="SvgjsPath1104" d="M0,0 L15,6 L0,12L0,0" fill="#e74f4c" stroke="#e74f4c" stroke-width="1"></path><path id="SvgjsPath1105" d="M2,2 L13,6 L2,10L2,2" fill="#ffffff" stroke="none" stroke-width="1"></path></marker><marker id="SvgjsMarker1108" markerWidth="16" markerHeight="14" refX="8" refY="6" viewBox="0 0 16 14" orient="auto" markerUnits="userSpaceOnUse" stroke-dasharray="0,0"><path id="SvgjsPath1109" d="M0,0 L15,6 L0,12L0,0" fill="#e74f4c" stroke="#e74f4c" stroke-width="1"></path><path id="SvgjsPath1110" d="M2,2 L13,6 L2,10L2,2" fill="#ffffff" stroke="none" stroke-width="1"></path></marker><marker id="SvgjsMarker1113" markerWidth="16" markerHeight="14" refX="8" refY="6" viewBox="0 0 16 14" orient="auto" markerUnits="userSpaceOnUse" stroke-dasharray="0,0"><path id="SvgjsPath1114" d="M0,0 L15,6 L0,12L0,0" fill="#e74f4c" stroke="#e74f4c" stroke-width="1"></path><path id="SvgjsPath1115" d="M2,2 L13,6 L2,10L2,2" fill="#ffffff" stroke="none" stroke-width="1"></path></marker><marker id="SvgjsMarker1118" markerWidth="16" markerHeight="14" refX="8" refY="6" viewBox="0 0 16 14" orient="auto" markerUnits="userSpaceOnUse" stroke-dasharray="0,0"><path id="SvgjsPath1119" d="M0,0 L15,6 L0,12L0,0" fill="#e74f4c" stroke="#e74f4c" stroke-width="1"></path><path id="SvgjsPath1120" d="M2,2 L13,6 L2,10L2,2" fill="#ffffff" stroke="none" stroke-width="1"></path></marker><marker id="SvgjsMarker1123" markerWidth="16" markerHeight="14" refX="8" refY="6" viewBox="0 0 16 14" orient="auto" markerUnits="userSpaceOnUse" stroke-dasharray="0,0"><path id="SvgjsPath1124" d="M0,0 L15,6 L0,12L0,0" fill="#e74f4c" stroke="#e74f4c" stroke-width="1"></path><path id="SvgjsPath1125" d="M2,2 L13,6 L2,10L2,2" fill="#ffffff" stroke="none" stroke-width="1"></path></marker><marker id="SvgjsMarker1128" markerWidth="16" markerHeight="14" refX="8" refY="6" viewBox="0 0 16 14" orient="auto" markerUnits="userSpaceOnUse" stroke-dasharray="0,0"><path id="SvgjsPath1129" d="M0,0 L15,6 L0,12L0,0" fill="#e74f4c" stroke="#e74f4c" stroke-width="1"></path><path id="SvgjsPath1130" d="M2,2 L13,6 L2,10L2,2" fill="#ffffff" stroke="none" stroke-width="1"></path></marker><marker id="SvgjsMarker1145" markerWidth="16" markerHeight="16.78" refX="9" refY="8.39" viewBox="0 0 16 16.78" orient="auto" markerUnits="userSpaceOnUse" stroke-dasharray="0,0"><path id="SvgjsPath1146" d="M1.24,0 L11.239999999999998,8 L10,9.559999999999999 L0,1.56 Z" fill="#4669ea" stroke="none" stroke-width="1"></path><path id="SvgjsPath1147" d="M11.239999999999998,8.78 L1.24,16.78 L0,15.22 L10,7.22 Z" fill="#4669ea" stroke="none" stroke-width="1"></path></marker><marker id="SvgjsMarker1150" markerWidth="16" markerHeight="16.78" refX="9" refY="8.39" viewBox="0 0 16 16.78" orient="auto" markerUnits="userSpaceOnUse" stroke-dasharray="0,0"><path id="SvgjsPath1151" d="M1.24,0 L11.239999999999998,8 L10,9.559999999999999 L0,1.56 Z" fill="#4669ea" stroke="none" stroke-width="1"></path><path id="SvgjsPath1152" d="M11.239999999999998,8.78 L1.24,16.78 L0,15.22 L10,7.22 Z" fill="#4669ea" stroke="none" stroke-width="1"></path></marker></defs><rect id="svgbackgroundid" width="2004.3055852254229" height="640.7777777777777" fill="transparent"></rect><rect id="SvgjsRect1009" width="2004.3055852254229" height="640.7777777777777" fill="url(#pattern_mark_0)"></rect><rect id="SvgjsRect1010" width="2004.3055852254229" height="640.7777777777777" fill="url(#pattern_mark_1)"></rect><g id="SvgjsG1011" transform="translate(935.2778074476454,26.5)"><path id="SvgjsPath1012" d="M 0 3.9999999999999996Q 0 0 4 0L 226 0Q 230 0 230 3.9999999999999996L 230 103Q 230 107 226 107L 4 107Q 0 107 0 103Z" stroke="rgba(33,41,48,1)" stroke-width="1.5" fill-opacity="1" fill="#95da69"></path><path id="SvgjsPath1013" d="M 0 47L 230 47M 0 77L 230 77" stroke="rgba(33,41,48,1)" stroke-width="1.5" fill="none"></path><path id="SvgjsPath1014" d="M 0 3.9999999999999996Q 0 0 4 0L 226 0Q 230 0 230 3.9999999999999996L 230 103Q 230 107 226 107L 4 107Q 0 107 0 103Z" stroke="none" fill="none"></path><g id="SvgjsG1015"><text id="SvgjsText1016" font-family="&quot;Microsoft YaHei&quot;, 微软雅黑, Arial" text-anchor="middle" font-size="20px" width="210px" fill="#323232" font-weight="700" align="middle" lineHeight="125%" anchor="middle" family="&quot;Microsoft YaHei&quot;, 微软雅黑, Arial" size="20px" weight="700" font-style="" opacity="1" y="-7" transform="rotate(0)"><tspan id="SvgjsTspan1017" dy="25" x="115"><tspan id="SvgjsTspan1018" style="">&lt;interface&gt;</tspan></tspan><tspan id="SvgjsTspan1019" dy="25" x="115"><tspan id="SvgjsTspan1020" style="">IInterface</tspan></tspan></text></g><g id="SvgjsG1021"><text id="SvgjsText1022" font-family="&quot;Microsoft YaHei&quot;, 微软雅黑, Arial" text-anchor="start" font-size="20px" width="210px" fill="#323232" font-weight="400" align="middle" lineHeight="125%" anchor="start" family="&quot;Microsoft YaHei&quot;, 微软雅黑, Arial" size="20px" weight="400" font-style="" opacity="1" y="44" transform="rotate(0)"></text></g><g id="SvgjsG1023"><text id="SvgjsText1024" font-family="&quot;Microsoft YaHei&quot;, 微软雅黑, Arial" text-anchor="start" font-size="20px" width="210px" fill="#323232" font-weight="400" align="middle" lineHeight="125%" anchor="start" family="&quot;Microsoft YaHei&quot;, 微软雅黑, Arial" size="20px" weight="400" font-style="" opacity="1" y="74" transform="rotate(0)"></text></g></g><g id="SvgjsG1025" transform="translate(1411.250029669868,210.94444444444443)"><path id="SvgjsPath1026" d="M 0 4Q 0 0 4 0L 226 0Q 230 0 230 4L 230 120Q 230 124 226 124L 4 124Q 0 124 0 120Z" stroke="rgba(33,41,48,1)" stroke-width="1.5" fill-opacity="1" fill="#95da69"></path><path id="SvgjsPath1027" d="M 0 64L 230 64M 0 94L 230 94" stroke="rgba(33,41,48,1)" stroke-width="1.5" fill="none"></path><path id="SvgjsPath1028" d="M 0 4Q 0 0 4 0L 226 0Q 230 0 230 4L 230 120Q 230 124 226 124L 4 124Q 0 124 0 120Z" stroke="none" fill="none"></path><g id="SvgjsG1029"><text id="SvgjsText1030" font-family="&quot;Microsoft YaHei&quot;, 微软雅黑, Arial" text-anchor="middle" font-size="20px" width="210px" fill="#323232" font-weight="700" align="middle" lineHeight="125%" anchor="middle" family="&quot;Microsoft YaHei&quot;, 微软雅黑, Arial" size="20px" weight="700" font-style="" opacity="1" y="1.5" transform="rotate(0)"><tspan id="SvgjsTspan1031" dy="25" x="115"><tspan id="SvgjsTspan1032" style="">&lt;abstract&gt;</tspan></tspan><tspan id="SvgjsTspan1033" dy="25" x="115"><tspan id="SvgjsTspan1034" style="">IEventQueue</tspan></tspan></text></g><g id="SvgjsG1035"><text id="SvgjsText1036" font-family="&quot;Microsoft YaHei&quot;, 微软雅黑, Arial" text-anchor="start" font-size="20px" width="210px" fill="#323232" font-weight="400" align="middle" lineHeight="125%" anchor="start" family="&quot;Microsoft YaHei&quot;, 微软雅黑, Arial" size="20px" weight="400" font-style="" opacity="1" y="61" transform="rotate(0)"></text></g><g id="SvgjsG1037"><text id="SvgjsText1038" font-family="&quot;Microsoft YaHei&quot;, 微软雅黑, Arial" text-anchor="start" font-size="20px" width="210px" fill="#323232" font-weight="400" align="middle" lineHeight="125%" anchor="start" family="&quot;Microsoft YaHei&quot;, 微软雅黑, Arial" size="20px" weight="400" font-style="" opacity="1" y="91" transform="rotate(0)"></text></g></g><g id="SvgjsG1039" transform="translate(498.6111407809788,210.94444444444443)"><path id="SvgjsPath1040" d="M 0 4Q 0 0 4 0L 226 0Q 230 0 230 4L 230 120Q 230 124 226 124L 4 124Q 0 124 0 120Z" stroke="rgba(33,41,48,1)" stroke-width="1.5" fill-opacity="1" fill="#95da69"></path><path id="SvgjsPath1041" d="M 0 64L 230 64M 0 94L 230 94" stroke="rgba(33,41,48,1)" stroke-width="1.5" fill="none"></path><path id="SvgjsPath1042" d="M 0 4Q 0 0 4 0L 226 0Q 230 0 230 4L 230 120Q 230 124 226 124L 4 124Q 0 124 0 120Z" stroke="none" fill="none"></path><g id="SvgjsG1043"><text id="SvgjsText1044" font-family="&quot;Microsoft YaHei&quot;, 微软雅黑, Arial" text-anchor="middle" font-size="20px" width="210px" fill="#323232" font-weight="700" align="middle" lineHeight="125%" anchor="middle" family="&quot;Microsoft YaHei&quot;, 微软雅黑, Arial" size="20px" weight="700" font-style="" opacity="1" y="1.5" transform="rotate(0)"><tspan id="SvgjsTspan1045" dy="25" x="115"><tspan id="SvgjsTspan1046" style="">&lt;abstract&gt;</tspan></tspan><tspan id="SvgjsTspan1047" dy="25" x="115"><tspan id="SvgjsTspan1048" style="">IEventQueueBuffer</tspan></tspan></text></g><g id="SvgjsG1049"><text id="SvgjsText1050" font-family="&quot;Microsoft YaHei&quot;, 微软雅黑, Arial" text-anchor="start" font-size="20px" width="210px" fill="#323232" font-weight="400" align="middle" lineHeight="125%" anchor="start" family="&quot;Microsoft YaHei&quot;, 微软雅黑, Arial" size="20px" weight="400" font-style="" opacity="1" y="61" transform="rotate(0)"></text></g><g id="SvgjsG1051"><text id="SvgjsText1052" font-family="&quot;Microsoft YaHei&quot;, 微软雅黑, Arial" text-anchor="start" font-size="20px" width="210px" fill="#323232" font-weight="400" align="middle" lineHeight="125%" anchor="start" family="&quot;Microsoft YaHei&quot;, 微软雅黑, Arial" size="20px" weight="400" font-style="" opacity="1" y="91" transform="rotate(0)"></text></g></g><g id="SvgjsG1053" transform="translate(1411.250029669868,525.7777777777777)"><path id="SvgjsPath1054" d="M 0 4Q 0 0 4 0L 226 0Q 230 0 230 4L 230 86Q 230 90 226 90L 4 90Q 0 90 0 86Z" stroke="rgba(33,41,48,1)" stroke-width="1.5" fill-opacity="1" fill="#95da69"></path><path id="SvgjsPath1055" d="M 0 30L 230 30M 0 60L 230 60" stroke="rgba(33,41,48,1)" stroke-width="1.5" fill="none"></path><path id="SvgjsPath1056" d="M 0 4Q 0 0 4 0L 226 0Q 230 0 230 4L 230 86Q 230 90 226 90L 4 90Q 0 90 0 86Z" stroke="none" fill="none"></path><g id="SvgjsG1057"><text id="SvgjsText1058" font-family="&quot;Microsoft YaHei&quot;, 微软雅黑, Arial" text-anchor="middle" font-size="20px" width="210px" fill="#323232" font-weight="700" align="middle" lineHeight="125%" anchor="middle" family="&quot;Microsoft YaHei&quot;, 微软雅黑, Arial" size="20px" weight="700" font-style="" opacity="1" y="-3" transform="rotate(0)"><tspan id="SvgjsTspan1059" dy="25" x="115"><tspan id="SvgjsTspan1060" style="">EventQueue</tspan></tspan></text></g><g id="SvgjsG1061"><text id="SvgjsText1062" font-family="&quot;Microsoft YaHei&quot;, 微软雅黑, Arial" text-anchor="start" font-size="20px" width="210px" fill="#323232" font-weight="400" align="middle" lineHeight="125%" anchor="start" family="&quot;Microsoft YaHei&quot;, 微软雅黑, Arial" size="20px" weight="400" font-style="" opacity="1" y="27" transform="rotate(0)"></text></g><g id="SvgjsG1063"><text id="SvgjsText1064" font-family="&quot;Microsoft YaHei&quot;, 微软雅黑, Arial" text-anchor="start" font-size="20px" width="210px" fill="#323232" font-weight="400" align="middle" lineHeight="125%" anchor="start" family="&quot;Microsoft YaHei&quot;, 微软雅黑, Arial" size="20px" weight="400" font-style="" opacity="1" y="57" transform="rotate(0)"></text></g></g><g id="SvgjsG1065" transform="translate(25,525.7777777777777)"><path id="SvgjsPath1066" d="M 0 4Q 0 0 4 0L 263.5 0Q 267.5 0 267.5 4L 267.5 86Q 267.5 90 263.5 90L 4 90Q 0 90 0 86Z" stroke="rgba(33,41,48,1)" stroke-width="1.5" fill-opacity="1" fill="#95da69"></path><path id="SvgjsPath1067" d="M 0 30L 267.5 30M 0 60L 267.5 60" stroke="rgba(33,41,48,1)" stroke-width="1.5" fill="none"></path><path id="SvgjsPath1068" d="M 0 4Q 0 0 4 0L 263.5 0Q 267.5 0 267.5 4L 267.5 86Q 267.5 90 263.5 90L 4 90Q 0 90 0 86Z" stroke="none" fill="none"></path><g id="SvgjsG1069"><text id="SvgjsText1070" font-family="&quot;Microsoft YaHei&quot;, 微软雅黑, Arial" text-anchor="middle" font-size="20px" width="248px" fill="#323232" font-weight="700" align="middle" lineHeight="125%" anchor="middle" family="&quot;Microsoft YaHei&quot;, 微软雅黑, Arial" size="20px" weight="700" font-style="" opacity="1" y="-3" transform="rotate(0)"><tspan id="SvgjsTspan1071" dy="25" x="134"><tspan id="SvgjsTspan1072" style="">EiEventQueueBuffer</tspan></tspan></text></g><g id="SvgjsG1073"><text id="SvgjsText1074" font-family="&quot;Microsoft YaHei&quot;, 微软雅黑, Arial" text-anchor="start" font-size="20px" width="248px" fill="#323232" font-weight="400" align="middle" lineHeight="125%" anchor="start" family="&quot;Microsoft YaHei&quot;, 微软雅黑, Arial" size="20px" weight="400" font-style="" opacity="1" y="27" transform="rotate(0)"></text></g><g id="SvgjsG1075"><text id="SvgjsText1076" font-family="&quot;Microsoft YaHei&quot;, 微软雅黑, Arial" text-anchor="start" font-size="20px" width="248px" fill="#323232" font-weight="400" align="middle" lineHeight="125%" anchor="start" family="&quot;Microsoft YaHei&quot;, 微软雅黑, Arial" size="20px" weight="400" font-style="" opacity="1" y="57" transform="rotate(0)"></text></g></g><g id="SvgjsG1077" transform="translate(704.8611111111109,525.7777777777777)"><path id="SvgjsPath1078" d="M 0 4Q 0 0 4 0L 322.528 0Q 326.528 0 326.528 4L 326.528 86Q 326.528 90 322.528 90L 4 90Q 0 90 0 86Z" stroke="rgba(33,41,48,1)" stroke-width="1.5" fill-opacity="1" fill="#95da69"></path><path id="SvgjsPath1079" d="M 0 30L 326.528 30M 0 60L 326.528 60" stroke="rgba(33,41,48,1)" stroke-width="1.5" fill="none"></path><path id="SvgjsPath1080" d="M 0 4Q 0 0 4 0L 322.528 0Q 326.528 0 326.528 4L 326.528 86Q 326.528 90 322.528 90L 4 90Q 0 90 0 86Z" stroke="none" fill="none"></path><g id="SvgjsG1081"><text id="SvgjsText1082" font-family="&quot;Microsoft YaHei&quot;, 微软雅黑, Arial" text-anchor="middle" font-size="20px" width="307px" fill="#323232" font-weight="700" align="middle" lineHeight="125%" anchor="middle" family="&quot;Microsoft YaHei&quot;, 微软雅黑, Arial" size="20px" weight="700" font-style="" opacity="1" y="-3" transform="rotate(0)"><tspan id="SvgjsTspan1083" dy="25" x="163.5"><tspan id="SvgjsTspan1084" style="">MSWindowsEventQueueBuffer</tspan></tspan></text></g><g id="SvgjsG1085"><text id="SvgjsText1086" font-family="&quot;Microsoft YaHei&quot;, 微软雅黑, Arial" text-anchor="start" font-size="20px" width="307px" fill="#323232" font-weight="400" align="middle" lineHeight="125%" anchor="start" family="&quot;Microsoft YaHei&quot;, 微软雅黑, Arial" size="20px" weight="400" font-style="" opacity="1" y="27" transform="rotate(0)"></text></g><g id="SvgjsG1087"><text id="SvgjsText1088" font-family="&quot;Microsoft YaHei&quot;, 微软雅黑, Arial" text-anchor="start" font-size="20px" width="307px" fill="#323232" font-weight="400" align="middle" lineHeight="125%" anchor="start" family="&quot;Microsoft YaHei&quot;, 微软雅黑, Arial" size="20px" weight="400" font-style="" opacity="1" y="57" transform="rotate(0)"></text></g></g><g id="SvgjsG1089" transform="translate(356.25,525.7777777777777)"><path id="SvgjsPath1090" d="M 0 4Q 0 0 4 0L 280.861 0Q 284.861 0 284.861 4L 284.861 86Q 284.861 90 280.861 90L 4 90Q 0 90 0 86Z" stroke="rgba(33,41,48,1)" stroke-width="1.5" fill-opacity="1" fill="#95da69"></path><path id="SvgjsPath1091" d="M 0 30L 284.861 30M 0 60L 284.861 60" stroke="rgba(33,41,48,1)" stroke-width="1.5" fill="none"></path><path id="SvgjsPath1092" d="M 0 4Q 0 0 4 0L 280.861 0Q 284.861 0 284.861 4L 284.861 86Q 284.861 90 280.861 90L 4 90Q 0 90 0 86Z" stroke="none" fill="none"></path><g id="SvgjsG1093"><text id="SvgjsText1094" font-family="&quot;Microsoft YaHei&quot;, 微软雅黑, Arial" text-anchor="middle" font-size="20px" width="265px" fill="#323232" font-weight="700" align="middle" lineHeight="125%" anchor="middle" family="&quot;Microsoft YaHei&quot;, 微软雅黑, Arial" size="20px" weight="700" font-style="" opacity="1" y="-3" transform="rotate(0)"><tspan id="SvgjsTspan1095" dy="25" x="142.5"><tspan id="SvgjsTspan1096" style="">OSXEventQueueBuffer</tspan></tspan></text></g><g id="SvgjsG1097"><text id="SvgjsText1098" font-family="&quot;Microsoft YaHei&quot;, 微软雅黑, Arial" text-anchor="start" font-size="20px" width="265px" fill="#323232" font-weight="400" align="middle" lineHeight="125%" anchor="start" family="&quot;Microsoft YaHei&quot;, 微软雅黑, Arial" size="20px" weight="400" font-style="" opacity="1" y="27" transform="rotate(0)"></text></g><g id="SvgjsG1099"><text id="SvgjsText1100" font-family="&quot;Microsoft YaHei&quot;, 微软雅黑, Arial" text-anchor="start" font-size="20px" width="265px" fill="#323232" font-weight="400" align="middle" lineHeight="125%" anchor="start" family="&quot;Microsoft YaHei&quot;, 微软雅黑, Arial" size="20px" weight="400" font-style="" opacity="1" y="57" transform="rotate(0)"></text></g></g><g id="SvgjsG1101"><path id="SvgjsPath1102" d="M159.35206936516596 525.330530259476L495.9219638792759 275.30326113730365" stroke="#e74f4c" stroke-width="2" fill="none" marker-end="url(#SvgjsMarker1103)"></path></g><g id="SvgjsG1106"><path id="SvgjsPath1107" d="M499.06804548022006 525.1356227693583L611.8804187135152 338.1738479264958" stroke="#e74f4c" stroke-width="2" fill="none" marker-end="url(#SvgjsMarker1108)"></path></g><g id="SvgjsG1111"><path id="SvgjsPath1112" d="M867.762241053716 525.1213353129106L730.2313978116758 276.23766523196207" stroke="#e74f4c" stroke-width="2" fill="none" marker-end="url(#SvgjsMarker1113)"></path></g><g id="SvgjsG1116"><path id="SvgjsPath1117" d="M1526.250029669868 525.0277777777777L1526.250029669868 338.65555555555557" stroke="#e74f4c" stroke-width="2" fill="none" marker-end="url(#SvgjsMarker1118)"></path></g><g id="SvgjsG1121"><path id="SvgjsPath1122" d="M1525.5452115270123 211.049174227254L1168.4259951524002 81.1451699330801" stroke="#e74f4c" stroke-width="2" fill="none" marker-end="url(#SvgjsMarker1123)"></path></g><g id="SvgjsG1126"><path id="SvgjsPath1127" d="M614.3055166657222 211.0221086810148L932.1762618291251 81.26606270628196" stroke="#e74f4c" stroke-width="2" fill="none" marker-end="url(#SvgjsMarker1128)"></path></g><g id="SvgjsG1131" transform="translate(1749.3055852254229,525.7777777777777)"><path id="SvgjsPath1132" d="M 0 4Q 0 0 4 0L 226 0Q 230 0 230 4L 230 86Q 230 90 226 90L 4 90Q 0 90 0 86Z" stroke="rgba(33,41,48,1)" stroke-width="1.5" fill-opacity="1" fill="#95da69"></path><path id="SvgjsPath1133" d="M 0 30L 230 30M 0 60L 230 60" stroke="rgba(33,41,48,1)" stroke-width="1.5" fill="none"></path><path id="SvgjsPath1134" d="M 0 4Q 0 0 4 0L 226 0Q 230 0 230 4L 230 86Q 230 90 226 90L 4 90Q 0 90 0 86Z" stroke="none" fill="none"></path><g id="SvgjsG1135"><text id="SvgjsText1136" font-family="&quot;Microsoft YaHei&quot;, 微软雅黑, Arial" text-anchor="middle" font-size="20px" width="210px" fill="#323232" font-weight="700" align="middle" lineHeight="125%" anchor="middle" family="&quot;Microsoft YaHei&quot;, 微软雅黑, Arial" size="20px" weight="700" font-style="" opacity="1" y="-3" transform="rotate(0)"><tspan id="SvgjsTspan1137" dy="25" x="115"><tspan id="SvgjsTspan1138" style="">Event</tspan></tspan></text></g><g id="SvgjsG1139"><text id="SvgjsText1140" font-family="&quot;Microsoft YaHei&quot;, 微软雅黑, Arial" text-anchor="start" font-size="20px" width="210px" fill="#323232" font-weight="400" align="middle" lineHeight="125%" anchor="start" family="&quot;Microsoft YaHei&quot;, 微软雅黑, Arial" size="20px" weight="400" font-style="" opacity="1" y="27" transform="rotate(0)"></text></g><g id="SvgjsG1141"><text id="SvgjsText1142" font-family="&quot;Microsoft YaHei&quot;, 微软雅黑, Arial" text-anchor="start" font-size="20px" width="210px" fill="#323232" font-weight="400" align="middle" lineHeight="125%" anchor="start" family="&quot;Microsoft YaHei&quot;, 微软雅黑, Arial" size="20px" weight="400" font-style="" opacity="1" y="57" transform="rotate(0)"></text></g></g><g id="SvgjsG1143"><path id="SvgjsPath1144" d="M1748.5555852254229 570.7777777777777L1643.000029669868 570.7777777777777" stroke="#4669ea" stroke-width="2" fill="none" marker-end="url(#SvgjsMarker1145)"></path></g><g id="SvgjsG1148"><path id="SvgjsPath1149" d="M1410.6742441723 570.2971832909279C 1138.6666946411133 343.8611128065321 1096.6666946411133 269.8611128065321 730.3610264959552 266.88111241957" stroke="#4669ea" stroke-width="2" fill="none" marker-end="url(#SvgjsMarker1150)"></path></g><g id="SvgjsG1153"></g></svg>