<svg id="SvgjsSvg1156" width="1087.8787909613716" height="820.1618728264707" xmlns="http://www.w3.org/2000/svg" version="1.1" xmlns:xlink="http://www.w3.org/1999/xlink" xmlns:svgjs="http://svgjs.com/svgjs"><defs id="SvgjsDefs1157"><pattern patternUnits="userSpaceOnUse" id="pattern_mark_0" width="300" height="300"><text x="150" y="100" fill="rgba(229,229,229,0.8)" font-size="18" transform="rotate(-45, 150, 150)" style="dominant-baseline: middle; text-anchor: middle;"></text></pattern><pattern patternUnits="userSpaceOnUse" id="pattern_mark_1" width="300" height="300"><text x="150" y="200" fill="rgba(229,229,229,0.8)" font-size="18" transform="rotate(-45, 150, 150)" style="dominant-baseline: middle; text-anchor: middle;"></text></pattern><marker id="SvgjsMarker1191" markerWidth="13" markerHeight="9" refX="9.5" refY="4.5" viewBox="0 0 13 9" orient="auto" markerUnits="userSpaceOnUse" stroke-dasharray="0,0"><path id="SvgjsPath1192" d="M0,0 L13,4.5 L0,9 L0,0" fill="#323232" stroke="#323232" stroke-width="1"></path></marker><marker id="SvgjsMarker1207" markerWidth="13" markerHeight="9" refX="9.5" refY="4.5" viewBox="0 0 13 9" orient="auto" markerUnits="userSpaceOnUse" stroke-dasharray="0,0"><path id="SvgjsPath1208" d="M0,0 L13,4.5 L0,9 L0,0" fill="#323232" stroke="#323232" stroke-width="1"></path></marker><marker id="SvgjsMarker1211" markerWidth="13" markerHeight="9" refX="9.5" refY="4.5" viewBox="0 0 13 9" orient="auto" markerUnits="userSpaceOnUse" stroke-dasharray="0,0"><path id="SvgjsPath1212" d="M0,0 L13,4.5 L0,9 L0,0" fill="#323232" stroke="#323232" stroke-width="1"></path></marker><marker id="SvgjsMarker1237" markerWidth="13" markerHeight="9" refX="9.5" refY="4.5" viewBox="0 0 13 9" orient="auto" markerUnits="userSpaceOnUse" stroke-dasharray="0,0"><path id="SvgjsPath1238" d="M0,0 L13,4.5 L0,9 L0,0" fill="#323232" stroke="#323232" stroke-width="1"></path></marker><marker id="SvgjsMarker1259" markerWidth="13" markerHeight="9" refX="9.5" refY="4.5" viewBox="0 0 13 9" orient="auto" markerUnits="userSpaceOnUse" stroke-dasharray="0,0"><path id="SvgjsPath1260" d="M0,0 L13,4.5 L0,9 L0,0" fill="#323232" stroke="#323232" stroke-width="1"></path></marker><marker id="SvgjsMarker1263" markerWidth="13" markerHeight="9" refX="9.5" refY="4.5" viewBox="0 0 13 9" orient="auto" markerUnits="userSpaceOnUse" stroke-dasharray="0,0"><path id="SvgjsPath1264" d="M0,0 L13,4.5 L0,9 L0,0" fill="#323232" stroke="#323232" stroke-width="1"></path></marker><marker id="SvgjsMarker1283" markerWidth="13" markerHeight="9" refX="9.5" refY="4.5" viewBox="0 0 13 9" orient="auto" markerUnits="userSpaceOnUse" stroke-dasharray="0,0"><path id="SvgjsPath1284" d="M0,0 L13,4.5 L0,9 L0,0" fill="#323232" stroke="#323232" stroke-width="1"></path></marker><marker id="SvgjsMarker1287" markerWidth="13" markerHeight="9" refX="9.5" refY="4.5" viewBox="0 0 13 9" orient="auto" markerUnits="userSpaceOnUse" stroke-dasharray="0,0"><path id="SvgjsPath1288" d="M0,0 L13,4.5 L0,9 L0,0" fill="#323232" stroke="#323232" stroke-width="1"></path></marker><marker id="SvgjsMarker1315" markerWidth="13" markerHeight="9" refX="9.5" refY="4.5" viewBox="0 0 13 9" orient="auto" markerUnits="userSpaceOnUse" stroke-dasharray="0,0"><path id="SvgjsPath1316" d="M0,0 L13,4.5 L0,9 L0,0" fill="#323232" stroke="#323232" stroke-width="1"></path></marker><marker id="SvgjsMarker1319" markerWidth="13" markerHeight="9" refX="9.5" refY="4.5" viewBox="0 0 13 9" orient="auto" markerUnits="userSpaceOnUse" stroke-dasharray="0,0"><path id="SvgjsPath1320" d="M0,0 L13,4.5 L0,9 L0,0" fill="#323232" stroke="#323232" stroke-width="1"></path></marker><marker id="SvgjsMarker1323" markerWidth="13" markerHeight="9" refX="9.5" refY="4.5" viewBox="0 0 13 9" orient="auto" markerUnits="userSpaceOnUse" stroke-dasharray="0,0"><path id="SvgjsPath1324" d="M0,0 L13,4.5 L0,9 L0,0" fill="#323232" stroke="#323232" stroke-width="1"></path></marker></defs><rect id="svgbackgroundid" width="1087.8787909613716" height="820.1618728264707" fill="transparent"></rect><rect id="SvgjsRect1159" width="1087.8787909613716" height="820.1618728264707" fill="url(#pattern_mark_0)"></rect><rect id="SvgjsRect1160" width="1087.8787909613716" height="820.1618728264707" fill="url(#pattern_mark_1)"></rect><g id="SvgjsG1161" transform="translate(25,300.22221035427526)"><path id="SvgjsPath1162" d="M 0 0L 1037.879 0L 1037.879 201L 0 201Z" stroke="rgba(33,41,48,1)" stroke-width="1.5" fill-opacity="1" fill="#ffffff"></path><g id="SvgjsG1163"><text id="SvgjsText1164" font-family="&quot;Microsoft YaHei&quot;, 微软雅黑, Arial" text-anchor="middle" font-size="18px" width="1018px" fill="#323232" font-weight="400" align="middle" lineHeight="125%" anchor="middle" family="&quot;Microsoft YaHei&quot;, 微软雅黑, Arial" size="18px" weight="400" font-style="" opacity="1" y="84.75" transform="rotate(0)"></text></g></g><g id="SvgjsG1165" transform="translate(25,27)"><path id="SvgjsPath1166" d="M 0 0L 1037.879 0L 1037.879 200L 0 200Z" stroke="rgba(33,41,48,1)" stroke-width="1.5" fill-opacity="1" fill="#ffffff"></path><g id="SvgjsG1167"><text id="SvgjsText1168" font-family="&quot;Microsoft YaHei&quot;, 微软雅黑, Arial" text-anchor="middle" font-size="18px" width="1018px" fill="#323232" font-weight="400" align="middle" lineHeight="125%" anchor="middle" family="&quot;Microsoft YaHei&quot;, 微软雅黑, Arial" size="18px" weight="400" font-style="" opacity="1" y="84.25" transform="rotate(0)"></text></g></g><g id="SvgjsG1169" transform="translate(650.8071407741979,156.45454788208008)"><path id="SvgjsPath1170" d="M 0 4Q 0 0 4 0L 64 0Q 68 0 68 4L 68 34.545Q 68 38.545 64 38.545L 4 38.545Q 0 38.545 0 34.545Z" stroke="rgba(255,255,255,1)" stroke-width="1.5" fill-opacity="1" fill="#7bd144"></path><g id="SvgjsG1171"><text id="SvgjsText1172" font-family="&quot;Microsoft YaHei&quot;, 微软雅黑, Arial" text-anchor="middle" font-size="18px" width="48px" fill="#323232" font-weight="400" align="middle" lineHeight="125%" anchor="middle" family="&quot;Microsoft YaHei&quot;, 微软雅黑, Arial" size="18px" weight="400" font-style="" opacity="1" y="3.522500000000001" transform="rotate(0)"></text></g></g><g id="SvgjsG1173" transform="translate(540.0716501871746,62)"><path id="SvgjsPath1174" d="M 0 24.227C 0 -8.076 51.735 -8.076 51.735 24.227C 51.735 56.53 0 56.53 0 24.227Z" stroke="rgba(255,255,255,1)" stroke-width="1.5" fill-opacity="1" fill="#ec7270"></path><g id="SvgjsG1175"><text id="SvgjsText1176" font-family="&quot;Microsoft YaHei&quot;, 微软雅黑, Arial" text-anchor="middle" font-size="18px" width="32px" fill="#323232" font-weight="400" align="middle" lineHeight="125%" anchor="middle" family="&quot;Microsoft YaHei&quot;, 微软雅黑, Arial" size="18px" weight="400" font-style="" opacity="1" y="8.4775" transform="rotate(0)"></text></g></g><g id="SvgjsG1177" transform="translate(507.807140774197,25)"><path id="SvgjsPath1178" d="M 0 0L 100 0L 100 40L 0 40Z" stroke="none" fill="none"></path><g id="SvgjsG1179"><text id="SvgjsText1180" font-family="&quot;Microsoft YaHei&quot;, 微软雅黑, Arial" text-anchor="middle" font-size="18px" width="100px" fill="#323232" font-weight="400" align="middle" lineHeight="125%" anchor="middle" family="&quot;Microsoft YaHei&quot;, 微软雅黑, Arial" size="18px" weight="400" font-style="" opacity="1" y="4.25" transform="rotate(0)"><tspan id="SvgjsTspan1181" dy="22.5" x="50"><tspan id="SvgjsTspan1182" style="">链表头</tspan></tspan></text></g></g><g id="SvgjsG1183" transform="translate(636.8071407741975,187)"><path id="SvgjsPath1184" d="M 0 0L 100 0L 100 40L 0 40Z" stroke="none" fill="none"></path><g id="SvgjsG1185"><text id="SvgjsText1186" font-family="&quot;Microsoft YaHei&quot;, 微软雅黑, Arial" text-anchor="middle" font-size="18px" width="100px" fill="#323232" font-weight="400" align="middle" lineHeight="125%" anchor="middle" family="&quot;Microsoft YaHei&quot;, 微软雅黑, Arial" size="18px" weight="400" font-style="" opacity="1" y="4.25" transform="rotate(0)"><tspan id="SvgjsTspan1187" dy="22.5" x="50"><tspan id="SvgjsTspan1188" style="">首元节点</tspan></tspan></text></g></g><g id="SvgjsG1189"><path id="SvgjsPath1190" d="M592.2761364987152 86.8125456816731L649.6400046139574 158.39838151364575" stroke="#323232" stroke-width="1.5" fill="none" marker-end="url(#SvgjsMarker1191)"></path></g><g id="SvgjsG1193" transform="translate(493.9393954806858,295.7222110960221)"><path id="SvgjsPath1194" d="M 0 0L 100 0L 100 40L 0 40Z" stroke="none" fill="none"></path><g id="SvgjsG1195"><text id="SvgjsText1196" font-family="&quot;Microsoft YaHei&quot;, 微软雅黑, Arial" text-anchor="middle" font-size="18px" width="100px" fill="#323232" font-weight="400" align="middle" lineHeight="125%" anchor="middle" family="&quot;Microsoft YaHei&quot;, 微软雅黑, Arial" size="18px" weight="400" font-style="" opacity="1" y="4.25" transform="rotate(0)"><tspan id="SvgjsTspan1197" dy="22.5" x="50"><tspan id="SvgjsTspan1198" style="">链表头</tspan></tspan></text></g></g><g id="SvgjsG1199" transform="translate(625.8071407741975,463.78786934746654)"><path id="SvgjsPath1200" d="M 0 0L 100 0L 100 40L 0 40Z" stroke="none" fill="none"></path><g id="SvgjsG1201"><text id="SvgjsText1202" font-family="&quot;Microsoft YaHei&quot;, 微软雅黑, Arial" text-anchor="middle" font-size="18px" width="100px" fill="#323232" font-weight="400" align="middle" lineHeight="125%" anchor="middle" family="&quot;Microsoft YaHei&quot;, 微软雅黑, Arial" size="18px" weight="400" font-style="" opacity="1" y="4.25" transform="rotate(0)"><tspan id="SvgjsTspan1203" dy="22.5" x="50"><tspan id="SvgjsTspan1204" style="">首元节点</tspan></tspan></text></g></g><g id="SvgjsG1205"><path id="SvgjsPath1206" d="M586.4093054755028 353.5232802976566L637.5430209361145 428.462827882508" stroke="#323232" stroke-width="1.5" fill="none" marker-end="url(#SvgjsMarker1207)"></path></g><g id="SvgjsG1209"><path id="SvgjsPath1210" d="M535.0015852186423 449.7881432885066L585.5293629964199 449.7881432885066L585.5293629964199 449.7881432885066L634.1071407741974 449.7881432885066" stroke="#323232" stroke-width="1.5" fill="none" marker-end="url(#SvgjsMarker1211)"></path></g><g id="SvgjsG1213" transform="translate(25,574.4444207085506)"><path id="SvgjsPath1214" d="M 0 0L 1037.879 0L 1037.879 217.172L 0 217.172Z" stroke="rgba(33,41,48,1)" stroke-width="1.5" fill-opacity="1" fill="#ffffff"></path><g id="SvgjsG1215"><text id="SvgjsText1216" font-family="&quot;Microsoft YaHei&quot;, 微软雅黑, Arial" text-anchor="middle" font-size="18px" width="1018px" fill="#323232" font-weight="400" align="middle" lineHeight="125%" anchor="middle" family="&quot;Microsoft YaHei&quot;, 微软雅黑, Arial" size="18px" weight="400" font-style="" opacity="1" y="92.836" transform="rotate(0)"></text></g></g><g id="SvgjsG1217" transform="translate(499.8071407741975,574.4444207085506)"><path id="SvgjsPath1218" d="M 0 0L 100 0L 100 40L 0 40Z" stroke="none" fill="none"></path><g id="SvgjsG1219"><text id="SvgjsText1220" font-family="&quot;Microsoft YaHei&quot;, 微软雅黑, Arial" text-anchor="middle" font-size="18px" width="100px" fill="#323232" font-weight="400" align="middle" lineHeight="125%" anchor="middle" family="&quot;Microsoft YaHei&quot;, 微软雅黑, Arial" size="18px" weight="400" font-style="" opacity="1" y="4.25" transform="rotate(0)"><tspan id="SvgjsTspan1221" dy="22.5" x="50"><tspan id="SvgjsTspan1222" style="">链表头</tspan></tspan></text></g></g><g id="SvgjsG1223" transform="translate(569.8071407741979,755.9898728264707)"><path id="SvgjsPath1224" d="M 0 0L 182 0L 182 39.172L 0 39.172Z" stroke="none" fill="none"></path><g id="SvgjsG1225"><text id="SvgjsText1226" font-family="&quot;Microsoft YaHei&quot;, 微软雅黑, Arial" text-anchor="middle" font-size="18px" width="182px" fill="#323232" font-weight="400" align="middle" lineHeight="125%" anchor="middle" family="&quot;Microsoft YaHei&quot;, 微软雅黑, Arial" size="18px" weight="400" font-style="" opacity="1" y="3.8359999999999985" transform="rotate(0)"><tspan id="SvgjsTspan1227" dy="22.5" x="91"><tspan id="SvgjsTspan1228" style="">原首元节点</tspan></tspan></text></g></g><g id="SvgjsG1229" transform="translate(385.1111111111111,401.78786934746654)"><path id="SvgjsPath1230" d="M 0 0L 100 0L 100 40L 0 40Z" stroke="none" fill="none"></path><g id="SvgjsG1231"><text id="SvgjsText1232" font-family="&quot;Microsoft YaHei&quot;, 微软雅黑, Arial" text-anchor="middle" font-size="18px" width="100px" fill="#323232" font-weight="400" align="middle" lineHeight="125%" anchor="middle" family="&quot;Microsoft YaHei&quot;, 微软雅黑, Arial" size="18px" weight="400" font-style="" opacity="1" y="4.25" transform="rotate(0)"><tspan id="SvgjsTspan1233" dy="22.5" x="50"><tspan id="SvgjsTspan1234" style="">新节点</tspan></tspan></text></g></g><g id="SvgjsG1235"><path id="SvgjsPath1236" d="M531.5868961589115 634.1818960192144L488.5205827770301 715.0612200882072" stroke="#323232" stroke-width="1.5" fill="none" marker-end="url(#SvgjsMarker1237)"></path></g><g id="SvgjsG1239" transform="translate(294.0293629964199,683.4444207085506)"><path id="SvgjsPath1240" d="M 0 0L 172.222 0L 172.222 40L 0 40Z" stroke="none" fill="none"></path><g id="SvgjsG1241"><text id="SvgjsText1242" font-family="&quot;Microsoft YaHei&quot;, 微软雅黑, Arial" text-anchor="middle" font-size="18px" width="173px" fill="#323232" font-weight="400" align="middle" lineHeight="125%" anchor="middle" family="&quot;Microsoft YaHei&quot;, 微软雅黑, Arial" size="18px" weight="400" font-style="" opacity="1" y="4.25" transform="rotate(0)"><tspan id="SvgjsTspan1243" dy="22.5" x="86.5"><tspan id="SvgjsTspan1244" style="">新的首元节点</tspan></tspan></text></g></g><g id="SvgjsG1245" transform="translate(560.9804831610788,237.42928526136615)"><path id="SvgjsPath1246" d="M 10.173 0L 20.654 0L 20.654 36.95L 30.827 36.95L 15.413 52.364L 0 36.95L 10.173 36.95L 10.173 0Z" stroke="rgba(33,41,48,1)" stroke-width="1.5" fill-opacity="1" fill="#000000"></path><g id="SvgjsG1247"><text id="SvgjsText1248" font-family="&quot;Microsoft YaHei&quot;, 微软雅黑, Arial" text-anchor="middle" font-size="18px" width="44px" fill="#323232" font-weight="400" align="middle" lineHeight="125%" anchor="middle" family="&quot;Microsoft YaHei&quot;, 微软雅黑, Arial" size="18px" weight="400" font-style="" opacity="1" y="7.813500000000001" transform="rotate(0)"></text></g></g><g id="SvgjsG1249" transform="translate(743.8071407741979,157)"><path id="SvgjsPath1250" d="M 0 4Q 0 0 4 0L 64 0Q 68 0 68 4L 68 34.545Q 68 38.545 64 38.545L 4 38.545Q 0 38.545 0 34.545Z" stroke="rgba(255,255,255,1)" stroke-width="1.5" fill-opacity="1" fill="#7bd144"></path><g id="SvgjsG1251"><text id="SvgjsText1252" font-family="&quot;Microsoft YaHei&quot;, 微软雅黑, Arial" text-anchor="middle" font-size="18px" width="48px" fill="#323232" font-weight="400" align="middle" lineHeight="125%" anchor="middle" family="&quot;Microsoft YaHei&quot;, 微软雅黑, Arial" size="18px" weight="400" font-style="" opacity="1" y="3.522500000000001" transform="rotate(0)"></text></g></g><g id="SvgjsG1253" transform="translate(836.8071407741979,157)"><path id="SvgjsPath1254" d="M 0 4Q 0 0 4 0L 64 0Q 68 0 68 4L 68 34.545Q 68 38.545 64 38.545L 4 38.545Q 0 38.545 0 34.545Z" stroke="rgba(255,255,255,1)" stroke-width="1.5" fill-opacity="1" fill="#7bd144"></path><g id="SvgjsG1255"><text id="SvgjsText1256" font-family="&quot;Microsoft YaHei&quot;, 微软雅黑, Arial" text-anchor="middle" font-size="18px" width="48px" fill="#323232" font-weight="400" align="middle" lineHeight="125%" anchor="middle" family="&quot;Microsoft YaHei&quot;, 微软雅黑, Arial" size="18px" weight="400" font-style="" opacity="1" y="3.522500000000001" transform="rotate(0)"></text></g></g><g id="SvgjsG1257"><path id="SvgjsPath1258" d="M719.5571407741979 175.7275478820801L741.1071407741979 175.7275478820801" stroke="#323232" stroke-width="1.5" fill="none" marker-end="url(#SvgjsMarker1259)"></path></g><g id="SvgjsG1261"><path id="SvgjsPath1262" d="M812.5571407741979 176.27300000000002L834.1071407741979 176.27300000000002" stroke="#323232" stroke-width="1.5" fill="none" marker-end="url(#SvgjsMarker1263)"></path></g><g id="SvgjsG1265" transform="translate(534.2515852186414,328.67675823635534)"><path id="SvgjsPath1266" d="M 0 24.227C 0 -8.076 51.735 -8.076 51.735 24.227C 51.735 56.53 0 56.53 0 24.227Z" stroke="rgba(255,255,255,1)" stroke-width="1.5" fill-opacity="1" fill="#ec7270"></path><g id="SvgjsG1267"><text id="SvgjsText1268" font-family="&quot;Microsoft YaHei&quot;, 微软雅黑, Arial" text-anchor="middle" font-size="18px" width="32px" fill="#323232" font-weight="400" align="middle" lineHeight="125%" anchor="middle" family="&quot;Microsoft YaHei&quot;, 微软雅黑, Arial" size="18px" weight="400" font-style="" opacity="1" y="8.4775" transform="rotate(0)"></text></g></g><g id="SvgjsG1269" transform="translate(636.8071407741975,430.5151432885066)"><path id="SvgjsPath1270" d="M 0 4Q 0 0 4 0L 64 0Q 68 0 68 4L 68 34.545Q 68 38.545 64 38.545L 4 38.545Q 0 38.545 0 34.545Z" stroke="rgba(255,255,255,1)" stroke-width="1.5" fill-opacity="1" fill="#7bd144"></path><g id="SvgjsG1271"><text id="SvgjsText1272" font-family="&quot;Microsoft YaHei&quot;, 微软雅黑, Arial" text-anchor="middle" font-size="18px" width="48px" fill="#323232" font-weight="400" align="middle" lineHeight="125%" anchor="middle" family="&quot;Microsoft YaHei&quot;, 微软雅黑, Arial" size="18px" weight="400" font-style="" opacity="1" y="3.522500000000001" transform="rotate(0)"></text></g></g><g id="SvgjsG1273" transform="translate(743.8071407741979,430.5151432885066)"><path id="SvgjsPath1274" d="M 0 4Q 0 0 4 0L 64 0Q 68 0 68 4L 68 34.545Q 68 38.545 64 38.545L 4 38.545Q 0 38.545 0 34.545Z" stroke="rgba(255,255,255,1)" stroke-width="1.5" fill-opacity="1" fill="#7bd144"></path><g id="SvgjsG1275"><text id="SvgjsText1276" font-family="&quot;Microsoft YaHei&quot;, 微软雅黑, Arial" text-anchor="middle" font-size="18px" width="48px" fill="#323232" font-weight="400" align="middle" lineHeight="125%" anchor="middle" family="&quot;Microsoft YaHei&quot;, 微软雅黑, Arial" size="18px" weight="400" font-style="" opacity="1" y="3.522500000000001" transform="rotate(0)"></text></g></g><g id="SvgjsG1277" transform="translate(850.8071407741984,430.5151432885066)"><path id="SvgjsPath1278" d="M 0 4Q 0 0 4 0L 64 0Q 68 0 68 4L 68 34.545Q 68 38.545 64 38.545L 4 38.545Q 0 38.545 0 34.545Z" stroke="rgba(255,255,255,1)" stroke-width="1.5" fill-opacity="1" fill="#7bd144"></path><g id="SvgjsG1279"><text id="SvgjsText1280" font-family="&quot;Microsoft YaHei&quot;, 微软雅黑, Arial" text-anchor="middle" font-size="18px" width="48px" fill="#323232" font-weight="400" align="middle" lineHeight="125%" anchor="middle" family="&quot;Microsoft YaHei&quot;, 微软雅黑, Arial" size="18px" weight="400" font-style="" opacity="1" y="3.522500000000001" transform="rotate(0)"></text></g></g><g id="SvgjsG1281"><path id="SvgjsPath1282" d="M705.5571407741975 449.7881432885066L741.1071407741979 449.7881432885066" stroke="#323232" stroke-width="1.5" fill="none" marker-end="url(#SvgjsMarker1283)"></path></g><g id="SvgjsG1285"><path id="SvgjsPath1286" d="M812.5571407741979 449.7881432885066L848.1071407741983 449.7881432885066" stroke="#323232" stroke-width="1.5" fill="none" marker-end="url(#SvgjsMarker1287)"></path></g><g id="SvgjsG1289" transform="translate(466.25158521864216,430.5151432885066)"><path id="SvgjsPath1290" d="M 0 4Q 0 0 4 0L 64 0Q 68 0 68 4L 68 34.545Q 68 38.545 64 38.545L 4 38.545Q 0 38.545 0 34.545Z" stroke="rgba(255,255,255,1)" stroke-width="1.5" fill-opacity="1" fill="#f1ac6a"></path><g id="SvgjsG1291"><text id="SvgjsText1292" font-family="&quot;Microsoft YaHei&quot;, 微软雅黑, Arial" text-anchor="middle" font-size="18px" width="48px" fill="#323232" font-weight="400" align="middle" lineHeight="125%" anchor="middle" family="&quot;Microsoft YaHei&quot;, 微软雅黑, Arial" size="18px" weight="400" font-style="" opacity="1" y="3.522500000000001" transform="rotate(0)"></text></g></g><g id="SvgjsG1293" transform="translate(531.9393954806858,609.2928958468967)"><path id="SvgjsPath1294" d="M 0 24.227C 0 -8.076 51.735 -8.076 51.735 24.227C 51.735 56.53 0 56.53 0 24.227Z" stroke="rgba(255,255,255,1)" stroke-width="1.5" fill-opacity="1" fill="#ec7270"></path><g id="SvgjsG1295"><text id="SvgjsText1296" font-family="&quot;Microsoft YaHei&quot;, 微软雅黑, Arial" text-anchor="middle" font-size="18px" width="32px" fill="#323232" font-weight="400" align="middle" lineHeight="125%" anchor="middle" family="&quot;Microsoft YaHei&quot;, 微软雅黑, Arial" size="18px" weight="400" font-style="" opacity="1" y="8.4775" transform="rotate(0)"></text></g></g><g id="SvgjsG1297" transform="translate(453.2515852186423,717.4444207085506)"><path id="SvgjsPath1298" d="M 0 4Q 0 0 4 0L 64 0Q 68 0 68 4L 68 34.545Q 68 38.545 64 38.545L 4 38.545Q 0 38.545 0 34.545Z" stroke="rgba(255,255,255,1)" stroke-width="1.5" fill-opacity="1" fill="#f1ac6a"></path><g id="SvgjsG1299"><text id="SvgjsText1300" font-family="&quot;Microsoft YaHei&quot;, 微软雅黑, Arial" text-anchor="middle" font-size="18px" width="48px" fill="#323232" font-weight="400" align="middle" lineHeight="125%" anchor="middle" family="&quot;Microsoft YaHei&quot;, 微软雅黑, Arial" size="18px" weight="400" font-style="" opacity="1" y="3.522500000000001" transform="rotate(0)"></text></g></g><g id="SvgjsG1301" transform="translate(625.8071407741975,717.4444207085506)"><path id="SvgjsPath1302" d="M 0 4Q 0 0 4 0L 64 0Q 68 0 68 4L 68 34.545Q 68 38.545 64 38.545L 4 38.545Q 0 38.545 0 34.545Z" stroke="rgba(255,255,255,1)" stroke-width="1.5" fill-opacity="1" fill="#7bd144"></path><g id="SvgjsG1303"><text id="SvgjsText1304" font-family="&quot;Microsoft YaHei&quot;, 微软雅黑, Arial" text-anchor="middle" font-size="18px" width="48px" fill="#323232" font-weight="400" align="middle" lineHeight="125%" anchor="middle" family="&quot;Microsoft YaHei&quot;, 微软雅黑, Arial" size="18px" weight="400" font-style="" opacity="1" y="3.522500000000001" transform="rotate(0)"></text></g></g><g id="SvgjsG1305" transform="translate(743.8071407741979,717.4444207085506)"><path id="SvgjsPath1306" d="M 0 4Q 0 0 4 0L 64 0Q 68 0 68 4L 68 34.545Q 68 38.545 64 38.545L 4 38.545Q 0 38.545 0 34.545Z" stroke="rgba(255,255,255,1)" stroke-width="1.5" fill-opacity="1" fill="#7bd144"></path><g id="SvgjsG1307"><text id="SvgjsText1308" font-family="&quot;Microsoft YaHei&quot;, 微软雅黑, Arial" text-anchor="middle" font-size="18px" width="48px" fill="#323232" font-weight="400" align="middle" lineHeight="125%" anchor="middle" family="&quot;Microsoft YaHei&quot;, 微软雅黑, Arial" size="18px" weight="400" font-style="" opacity="1" y="3.522500000000001" transform="rotate(0)"></text></g></g><g id="SvgjsG1309" transform="translate(861.8071407741984,717.4444207085506)"><path id="SvgjsPath1310" d="M 0 4Q 0 0 4 0L 64 0Q 68 0 68 4L 68 34.545Q 68 38.545 64 38.545L 4 38.545Q 0 38.545 0 34.545Z" stroke="rgba(255,255,255,1)" stroke-width="1.5" fill-opacity="1" fill="#7bd144"></path><g id="SvgjsG1311"><text id="SvgjsText1312" font-family="&quot;Microsoft YaHei&quot;, 微软雅黑, Arial" text-anchor="middle" font-size="18px" width="48px" fill="#323232" font-weight="400" align="middle" lineHeight="125%" anchor="middle" family="&quot;Microsoft YaHei&quot;, 微软雅黑, Arial" size="18px" weight="400" font-style="" opacity="1" y="3.522500000000001" transform="rotate(0)"></text></g></g><g id="SvgjsG1313"><path id="SvgjsPath1314" d="M694.5571407741975 736.7174207085507L741.1071407741979 736.7174207085507" stroke="#323232" stroke-width="1.5" fill="none" marker-end="url(#SvgjsMarker1315)"></path></g><g id="SvgjsG1317"><path id="SvgjsPath1318" d="M812.5571407741979 736.7174207085507L859.1071407741983 736.7174207085507" stroke="#323232" stroke-width="1.5" fill="none" marker-end="url(#SvgjsMarker1319)"></path></g><g id="SvgjsG1321"><path id="SvgjsPath1322" d="M522.0015852186423 736.7174207085507L623.1071407741974 736.7174207085507" stroke="#323232" stroke-width="1.5" fill="none" marker-end="url(#SvgjsMarker1323)"></path></g><g id="SvgjsG1325" transform="translate(542.3938119676379,511.65149561564147)"><path id="SvgjsPath1326" d="M 10.173 0L 20.654 0L 20.654 36.95L 30.827 36.95L 15.413 52.364L 0 36.95L 10.173 36.95L 10.173 0Z" stroke="rgba(33,41,48,1)" stroke-width="1.5" fill-opacity="1" fill="#000000"></path><g id="SvgjsG1327"><text id="SvgjsText1328" font-family="&quot;Microsoft YaHei&quot;, 微软雅黑, Arial" text-anchor="middle" font-size="18px" width="44px" fill="#323232" font-weight="400" align="middle" lineHeight="125%" anchor="middle" family="&quot;Microsoft YaHei&quot;, 微软雅黑, Arial" size="18px" weight="400" font-style="" opacity="1" y="7.813500000000001" transform="rotate(0)"></text></g></g><g id="SvgjsG1329"></g></svg>