<svg id="SvgjsSvg1204" width="1857.7777777777778" height="711.111111111111" xmlns="http://www.w3.org/2000/svg" version="1.1" xmlns:xlink="http://www.w3.org/1999/xlink" xmlns:svgjs="http://svgjs.com/svgjs"><defs id="SvgjsDefs1205"><pattern patternUnits="userSpaceOnUse" id="pattern_mark_0" width="300" height="300"><text x="150" y="100" fill="rgba(229,229,229,0.8)" font-size="18" transform="rotate(-45, 150, 150)" style="dominant-baseline: middle; text-anchor: middle;"></text></pattern><pattern patternUnits="userSpaceOnUse" id="pattern_mark_1" width="300" height="300"><text x="150" y="200" fill="rgba(229,229,229,0.8)" font-size="18" transform="rotate(-45, 150, 150)" style="dominant-baseline: middle; text-anchor: middle;"></text></pattern><marker id="SvgjsMarker1223" markerWidth="13" markerHeight="9" refX="9.5" refY="4.5" viewBox="0 0 13 9" orient="auto" markerUnits="userSpaceOnUse" stroke-dasharray="0,0"><path id="SvgjsPath1224" d="M0,0 L13,4.5 L0,9 L0,0" fill="#323232" stroke="#323232" stroke-width="1"></path></marker><marker id="SvgjsMarker1227" markerWidth="13" markerHeight="9" refX="9.5" refY="4.5" viewBox="0 0 13 9" orient="auto" markerUnits="userSpaceOnUse" stroke-dasharray="0,0"><path id="SvgjsPath1228" d="M0,0 L13,4.5 L0,9 L0,0" fill="#323232" stroke="#323232" stroke-width="1"></path></marker><marker id="SvgjsMarker1251" markerWidth="13" markerHeight="9" refX="9.5" refY="4.5" viewBox="0 0 13 9" orient="auto" markerUnits="userSpaceOnUse" stroke-dasharray="0,0"><path id="SvgjsPath1252" d="M0,0 L13,4.5 L0,9 L0,0" fill="#323232" stroke="#323232" stroke-width="1"></path></marker><marker id="SvgjsMarker1255" markerWidth="13" markerHeight="9" refX="9.5" refY="4.5" viewBox="0 0 13 9" orient="auto" markerUnits="userSpaceOnUse" stroke-dasharray="0,0"><path id="SvgjsPath1256" d="M0,0 L13,4.5 L0,9 L0,0" fill="#323232" stroke="#323232" stroke-width="1"></path></marker><marker id="SvgjsMarker1271" markerWidth="13" markerHeight="9" refX="9.5" refY="4.5" viewBox="0 0 13 9" orient="auto" markerUnits="userSpaceOnUse" stroke-dasharray="0,0"><path id="SvgjsPath1272" d="M0,0 L13,4.5 L0,9 L0,0" fill="#323232" stroke="#323232" stroke-width="1"></path></marker><marker id="SvgjsMarker1275" markerWidth="13" markerHeight="9" refX="9.5" refY="4.5" viewBox="0 0 13 9" orient="auto" markerUnits="userSpaceOnUse" stroke-dasharray="0,0"><path id="SvgjsPath1276" d="M0,0 L13,4.5 L0,9 L0,0" fill="#323232" stroke="#323232" stroke-width="1"></path></marker><marker id="SvgjsMarker1279" markerWidth="13" markerHeight="9" refX="9.5" refY="4.5" viewBox="0 0 13 9" orient="auto" markerUnits="userSpaceOnUse" stroke-dasharray="0,0"><path id="SvgjsPath1280" d="M0,0 L13,4.5 L0,9 L0,0" fill="#323232" stroke="#323232" stroke-width="1"></path></marker><marker id="SvgjsMarker1283" markerWidth="13" markerHeight="9" refX="9.5" refY="4.5" viewBox="0 0 13 9" orient="auto" markerUnits="userSpaceOnUse" stroke-dasharray="0,0"><path id="SvgjsPath1284" d="M0,0 L13,4.5 L0,9 L0,0" fill="#323232" stroke="#323232" stroke-width="1"></path></marker><marker id="SvgjsMarker1295" markerWidth="13" markerHeight="9" refX="9.5" refY="4.5" viewBox="0 0 13 9" orient="auto" markerUnits="userSpaceOnUse" stroke-dasharray="0,0"><path id="SvgjsPath1296" d="M0,0 L13,4.5 L0,9 L0,0" fill="#323232" stroke="#323232" stroke-width="1"></path></marker><marker id="SvgjsMarker1299" markerWidth="13" markerHeight="9" refX="9.5" refY="4.5" viewBox="0 0 13 9" orient="auto" markerUnits="userSpaceOnUse" stroke-dasharray="0,0"><path id="SvgjsPath1300" d="M0,0 L13,4.5 L0,9 L0,0" fill="#323232" stroke="#323232" stroke-width="1"></path></marker><marker id="SvgjsMarker1315" markerWidth="13" markerHeight="9" refX="9.5" refY="4.5" viewBox="0 0 13 9" orient="auto" markerUnits="userSpaceOnUse" stroke-dasharray="0,0"><path id="SvgjsPath1316" d="M0,0 L13,4.5 L0,9 L0,0" fill="#323232" stroke="#323232" stroke-width="1"></path></marker><marker id="SvgjsMarker1319" markerWidth="13" markerHeight="9" refX="9.5" refY="4.5" viewBox="0 0 13 9" orient="auto" markerUnits="userSpaceOnUse" stroke-dasharray="0,0"><path id="SvgjsPath1320" d="M0,0 L13,4.5 L0,9 L0,0" fill="#323232" stroke="#323232" stroke-width="1"></path></marker><marker id="SvgjsMarker1335" markerWidth="13" markerHeight="9" refX="9.5" refY="4.5" viewBox="0 0 13 9" orient="auto" markerUnits="userSpaceOnUse" stroke-dasharray="0,0"><path id="SvgjsPath1336" d="M0,0 L13,4.5 L0,9 L0,0" fill="#323232" stroke="#323232" stroke-width="1"></path></marker><marker id="SvgjsMarker1339" markerWidth="13" markerHeight="9" refX="9.5" refY="4.5" viewBox="0 0 13 9" orient="auto" markerUnits="userSpaceOnUse" stroke-dasharray="0,0"><path id="SvgjsPath1340" d="M0,0 L13,4.5 L0,9 L0,0" fill="#323232" stroke="#323232" stroke-width="1"></path></marker><marker id="SvgjsMarker1343" markerWidth="13" markerHeight="9" refX="9.5" refY="4.5" viewBox="0 0 13 9" orient="auto" markerUnits="userSpaceOnUse" stroke-dasharray="0,0"><path id="SvgjsPath1344" d="M0,0 L13,4.5 L0,9 L0,0" fill="#323232" stroke="#323232" stroke-width="1"></path></marker><marker id="SvgjsMarker1347" markerWidth="13" markerHeight="9" refX="9.5" refY="4.5" viewBox="0 0 13 9" orient="auto" markerUnits="userSpaceOnUse" stroke-dasharray="0,0"><path id="SvgjsPath1348" d="M0,0 L13,4.5 L0,9 L0,0" fill="#323232" stroke="#323232" stroke-width="1"></path></marker><marker id="SvgjsMarker1351" markerWidth="13" markerHeight="9" refX="9.5" refY="4.5" viewBox="0 0 13 9" orient="auto" markerUnits="userSpaceOnUse" stroke-dasharray="0,0"><path id="SvgjsPath1352" d="M0,0 L13,4.5 L0,9 L0,0" fill="#323232" stroke="#323232" stroke-width="1"></path></marker><marker id="SvgjsMarker1355" markerWidth="13" markerHeight="9" refX="9.5" refY="4.5" viewBox="0 0 13 9" orient="auto" markerUnits="userSpaceOnUse" stroke-dasharray="0,0"><path id="SvgjsPath1356" d="M0,0 L13,4.5 L0,9 L0,0" fill="#323232" stroke="#323232" stroke-width="1"></path></marker></defs><rect id="svgbackgroundid" width="1857.7777777777778" height="711.111111111111" fill="transparent"></rect><rect id="SvgjsRect1207" width="1857.7777777777778" height="711.111111111111" fill="url(#pattern_mark_0)"></rect><rect id="SvgjsRect1208" width="1857.7777777777778" height="711.111111111111" fill="url(#pattern_mark_1)"></rect><g id="SvgjsG1209" transform="translate(822.3111148410371,25)"><path id="SvgjsPath1210" d="M 0 35C 0 -11.667 70 -11.667 70 35C 70 81.667 0 81.667 0 35Z" stroke="rgba(255,255,255,1)" stroke-width="1.5" fill-opacity="1" fill="#000000"></path><g id="SvgjsG1211"><text id="SvgjsText1212" font-family="&quot;Microsoft YaHei&quot;, 微软雅黑, Arial" text-anchor="middle" font-size="20px" width="50px" fill="#323232" font-weight="400" align="middle" lineHeight="125%" anchor="middle" family="&quot;Microsoft YaHei&quot;, 微软雅黑, Arial" size="20px" weight="400" font-style="" opacity="1" y="17" transform="rotate(0)"></text></g></g><g id="SvgjsG1213" transform="translate(488.8444451226129,226.66666666666666)"><path id="SvgjsPath1214" d="M 0 35C 0 -11.667 70 -11.667 70 35C 70 81.667 0 81.667 0 35Z" stroke="rgba(255,255,255,1)" stroke-width="1.5" fill-opacity="1" fill="#e60c0c"></path><g id="SvgjsG1215"><text id="SvgjsText1216" font-family="&quot;Microsoft YaHei&quot;, 微软雅黑, Arial" text-anchor="middle" font-size="20px" width="50px" fill="#323232" font-weight="400" align="middle" lineHeight="125%" anchor="middle" family="&quot;Microsoft YaHei&quot;, 微软雅黑, Arial" size="20px" weight="400" font-style="" opacity="1" y="17" transform="rotate(0)"></text></g></g><g id="SvgjsG1217" transform="translate(1125.9777815077039,226.66666666666666)"><path id="SvgjsPath1218" d="M 0 35C 0 -11.667 70 -11.667 70 35C 70 81.667 0 81.667 0 35Z" stroke="rgba(255,255,255,1)" stroke-width="1.5" fill-opacity="1" fill="#000000"></path><g id="SvgjsG1219"><text id="SvgjsText1220" font-family="&quot;Microsoft YaHei&quot;, 微软雅黑, Arial" text-anchor="middle" font-size="20px" width="50px" fill="#323232" font-weight="400" align="middle" lineHeight="125%" anchor="middle" family="&quot;Microsoft YaHei&quot;, 微软雅黑, Arial" size="20px" weight="400" font-style="" opacity="1" y="17" transform="rotate(0)"></text></g></g><g id="SvgjsG1221"><path id="SvgjsPath1222" d="M856.6135234952199 95.27543840371459L526.355773967555 225.67508841329405" stroke="#323232" stroke-width="1.5" fill="none" marker-end="url(#SvgjsMarker1223)"></path></g><g id="SvgjsG1225"><path id="SvgjsPath1226" d="M857.9992172458865 95.29835395160865L1158.5006128502462 225.59259244087545" stroke="#323232" stroke-width="1.5" fill="none" marker-end="url(#SvgjsMarker1227)"></path></g><g id="SvgjsG1229" transform="translate(625.2000037299263,378.1666683620879)"><path id="SvgjsPath1230" d="M 0 35C 0 -11.667 70 -11.667 70 35C 70 81.667 0 81.667 0 35Z" stroke="rgba(255,255,255,1)" stroke-width="1.5" fill-opacity="1" fill="#000000"></path><g id="SvgjsG1231"><text id="SvgjsText1232" font-family="&quot;Microsoft YaHei&quot;, 微软雅黑, Arial" text-anchor="middle" font-size="20px" width="50px" fill="#323232" font-weight="400" align="middle" lineHeight="125%" anchor="middle" family="&quot;Microsoft YaHei&quot;, 微软雅黑, Arial" size="20px" weight="400" font-style="" opacity="1" y="17" transform="rotate(0)"></text></g></g><g id="SvgjsG1233" transform="translate(478.53333706325964,645.7777811686196)"><path id="SvgjsPath1234" d="M 0 4Q 0 0 4 0L 42.022 0Q 46.022 0 46.022 4L 46.022 36.333Q 46.022 40.333 42.022 40.333L 4 40.333Q 0 40.333 0 36.333Z" stroke="rgba(33,41,48,1)" stroke-width="1.5" fill-opacity="1" fill="#000000"></path><g id="SvgjsG1235"><text id="SvgjsText1236" font-family="&quot;Microsoft YaHei&quot;, 微软雅黑, Arial" text-anchor="middle" font-size="20px" width="27px" fill="#323232" font-weight="400" align="middle" lineHeight="125%" anchor="middle" family="&quot;Microsoft YaHei&quot;, 微软雅黑, Arial" size="20px" weight="400" font-style="" opacity="1" y="2.166499999999999" transform="rotate(0)"></text></g></g><g id="SvgjsG1237" transform="translate(349.00000678168396,378.1666683620879)"><path id="SvgjsPath1238" d="M 0 35C 0 -11.667 70 -11.667 70 35C 70 81.667 0 81.667 0 35Z" stroke="rgba(255,255,255,1)" stroke-width="1.5" fill-opacity="1" fill="#000000"></path><g id="SvgjsG1239"><text id="SvgjsText1240" font-family="&quot;Microsoft YaHei&quot;, 微软雅黑, Arial" text-anchor="middle" font-size="20px" width="50px" fill="#323232" font-weight="400" align="middle" lineHeight="125%" anchor="middle" family="&quot;Microsoft YaHei&quot;, 微软雅黑, Arial" size="20px" weight="400" font-style="" opacity="1" y="17" transform="rotate(0)"></text></g></g><g id="SvgjsG1241" transform="translate(524.5555623372396,518.8888888888888)"><path id="SvgjsPath1242" d="M 0 35C 0 -11.667 70 -11.667 70 35C 70 81.667 0 81.667 0 35Z" stroke="rgba(255,255,255,1)" stroke-width="1.5" fill-opacity="1" fill="#e60c0c"></path><g id="SvgjsG1243"><text id="SvgjsText1244" font-family="&quot;Microsoft YaHei&quot;, 微软雅黑, Arial" text-anchor="middle" font-size="20px" width="50px" fill="#323232" font-weight="400" align="middle" lineHeight="125%" anchor="middle" family="&quot;Microsoft YaHei&quot;, 微软雅黑, Arial" size="20px" weight="400" font-style="" opacity="1" y="17" transform="rotate(0)"></text></g></g><g id="SvgjsG1245" transform="translate(584.0666673448351,645.7777811686195)"><path id="SvgjsPath1246" d="M 0 4Q 0 0 4 0L 42.022 0Q 46.022 0 46.022 4L 46.022 36.333Q 46.022 40.333 42.022 40.333L 4 40.333Q 0 40.333 0 36.333Z" stroke="rgba(33,41,48,1)" stroke-width="1.5" fill-opacity="1" fill="#000000"></path><g id="SvgjsG1247"><text id="SvgjsText1248" font-family="&quot;Microsoft YaHei&quot;, 微软雅黑, Arial" text-anchor="middle" font-size="20px" width="27px" fill="#323232" font-weight="400" align="middle" lineHeight="125%" anchor="middle" family="&quot;Microsoft YaHei&quot;, 微软雅黑, Arial" size="20px" weight="400" font-style="" opacity="1" y="2.166499999999999" transform="rotate(0)"></text></g></g><g id="SvgjsG1249"><path id="SvgjsPath1250" d="M559.0200775846738 589.4140137119257L503.47208217249647 643.8873318056867" stroke="#323232" stroke-width="1.5" fill="none" marker-end="url(#SvgjsMarker1251)"></path></g><g id="SvgjsG1253"><path id="SvgjsPath1254" d="M560.0363851639464 589.464483719753L605.3467051686907 643.7056397775082" stroke="#323232" stroke-width="1.5" fill="none" marker-end="url(#SvgjsMarker1255)"></path></g><g id="SvgjsG1257" transform="translate(677.4222259521484,645.7777811686195)"><path id="SvgjsPath1258" d="M 0 4Q 0 0 4 0L 42.022 0Q 46.022 0 46.022 4L 46.022 36.333Q 46.022 40.333 42.022 40.333L 4 40.333Q 0 40.333 0 36.333Z" stroke="rgba(33,41,48,1)" stroke-width="1.5" fill-opacity="1" fill="#000000"></path><g id="SvgjsG1259"><text id="SvgjsText1260" font-family="&quot;Microsoft YaHei&quot;, 微软雅黑, Arial" text-anchor="middle" font-size="20px" width="27px" fill="#323232" font-weight="400" align="middle" lineHeight="125%" anchor="middle" family="&quot;Microsoft YaHei&quot;, 微软雅黑, Arial" size="20px" weight="400" font-style="" opacity="1" y="2.166499999999999" transform="rotate(0)"></text></g></g><g id="SvgjsG1261" transform="translate(723.4444512261285,518.8888888888887)"><path id="SvgjsPath1262" d="M 0 35C 0 -11.667 70 -11.667 70 35C 70 81.667 0 81.667 0 35Z" stroke="rgba(255,255,255,1)" stroke-width="1.5" fill-opacity="1" fill="#e60c0c"></path><g id="SvgjsG1263"><text id="SvgjsText1264" font-family="&quot;Microsoft YaHei&quot;, 微软雅黑, Arial" text-anchor="middle" font-size="20px" width="50px" fill="#323232" font-weight="400" align="middle" lineHeight="125%" anchor="middle" family="&quot;Microsoft YaHei&quot;, 微软雅黑, Arial" size="20px" weight="400" font-style="" opacity="1" y="17" transform="rotate(0)"></text></g></g><g id="SvgjsG1265" transform="translate(782.9555562337238,645.7777811686194)"><path id="SvgjsPath1266" d="M 0 4Q 0 0 4 0L 42.022 0Q 46.022 0 46.022 4L 46.022 36.333Q 46.022 40.333 42.022 40.333L 4 40.333Q 0 40.333 0 36.333Z" stroke="rgba(33,41,48,1)" stroke-width="1.5" fill-opacity="1" fill="#000000"></path><g id="SvgjsG1267"><text id="SvgjsText1268" font-family="&quot;Microsoft YaHei&quot;, 微软雅黑, Arial" text-anchor="middle" font-size="20px" width="27px" fill="#323232" font-weight="400" align="middle" lineHeight="125%" anchor="middle" family="&quot;Microsoft YaHei&quot;, 微软雅黑, Arial" size="20px" weight="400" font-style="" opacity="1" y="2.166499999999999" transform="rotate(0)"></text></g></g><g id="SvgjsG1269"><path id="SvgjsPath1270" d="M757.9089664735625 589.4140137119256L702.3609710613854 643.8873318056866" stroke="#323232" stroke-width="1.5" fill="none" marker-end="url(#SvgjsMarker1271)"></path></g><g id="SvgjsG1273"><path id="SvgjsPath1274" d="M758.9252740528351 589.4644837197529L804.2355940575792 643.705639777508" stroke="#323232" stroke-width="1.5" fill="none" marker-end="url(#SvgjsMarker1275)"></path></g><g id="SvgjsG1277"><path id="SvgjsPath1278" d="M659.5863573746117 448.59787382426225L561.7646892163722 517.3365492250606" stroke="#323232" stroke-width="1.5" fill="none" marker-end="url(#SvgjsMarker1279)"></path></g><g id="SvgjsG1281"><path id="SvgjsPath1282" d="M660.8086949724311 448.6048406698594L756.2531627531112 517.3114685809109" stroke="#323232" stroke-width="1.5" fill="none" marker-end="url(#SvgjsMarker1283)"></path></g><g id="SvgjsG1285" transform="translate(302.977781507704,533.7222239176432)"><path id="SvgjsPath1286" d="M 0 4Q 0 0 4 0L 42.022 0Q 46.022 0 46.022 4L 46.022 36.333Q 46.022 40.333 42.022 40.333L 4 40.333Q 0 40.333 0 36.333Z" stroke="rgba(33,41,48,1)" stroke-width="1.5" fill-opacity="1" fill="#000000"></path><g id="SvgjsG1287"><text id="SvgjsText1288" font-family="&quot;Microsoft YaHei&quot;, 微软雅黑, Arial" text-anchor="middle" font-size="20px" width="27px" fill="#323232" font-weight="400" align="middle" lineHeight="125%" anchor="middle" family="&quot;Microsoft YaHei&quot;, 微软雅黑, Arial" size="20px" weight="400" font-style="" opacity="1" y="2.166499999999999" transform="rotate(0)"></text></g></g><g id="SvgjsG1289" transform="translate(408.51111178927965,533.722223917643)"><path id="SvgjsPath1290" d="M 0 4Q 0 0 4 0L 42.022 0Q 46.022 0 46.022 4L 46.022 36.333Q 46.022 40.333 42.022 40.333L 4 40.333Q 0 40.333 0 36.333Z" stroke="rgba(33,41,48,1)" stroke-width="1.5" fill-opacity="1" fill="#000000"></path><g id="SvgjsG1291"><text id="SvgjsText1292" font-family="&quot;Microsoft YaHei&quot;, 微软雅黑, Arial" text-anchor="middle" font-size="20px" width="27px" fill="#323232" font-weight="400" align="middle" lineHeight="125%" anchor="middle" family="&quot;Microsoft YaHei&quot;, 微软雅黑, Arial" size="20px" weight="400" font-style="" opacity="1" y="2.166499999999999" transform="rotate(0)"></text></g></g><g id="SvgjsG1293"><path id="SvgjsPath1294" d="M383.57910097823174 448.78742459815817L327.50404240013177 531.4875014677898" stroke="#323232" stroke-width="1.5" fill="none" marker-end="url(#SvgjsMarker1295)"></path></g><g id="SvgjsG1297"><path id="SvgjsPath1298" d="M384.3641876851859 448.8223148137097L430.21106053667256 531.3618966918038" stroke="#323232" stroke-width="1.5" fill="none" marker-end="url(#SvgjsMarker1299)"></path></g><g id="SvgjsG1301" transform="translate(974.4222259521483,538.0000033908422)"><path id="SvgjsPath1302" d="M 0 4Q 0 0 4 0L 42.022 0Q 46.022 0 46.022 4L 46.022 36.333Q 46.022 40.333 42.022 40.333L 4 40.333Q 0 40.333 0 36.333Z" stroke="rgba(33,41,48,1)" stroke-width="1.5" fill-opacity="1" fill="#000000"></path><g id="SvgjsG1303"><text id="SvgjsText1304" font-family="&quot;Microsoft YaHei&quot;, 微软雅黑, Arial" text-anchor="middle" font-size="20px" width="27px" fill="#323232" font-weight="400" align="middle" lineHeight="125%" anchor="middle" family="&quot;Microsoft YaHei&quot;, 微软雅黑, Arial" size="20px" weight="400" font-style="" opacity="1" y="2.166499999999999" transform="rotate(0)"></text></g></g><g id="SvgjsG1305" transform="translate(1015.2000037299262,378.1666683620881)"><path id="SvgjsPath1306" d="M 0 35C 0 -11.667 70 -11.667 70 35C 70 81.667 0 81.667 0 35Z" stroke="rgba(255,255,255,1)" stroke-width="1.5" fill-opacity="1" fill="#e60c0c"></path><g id="SvgjsG1307"><text id="SvgjsText1308" font-family="&quot;Microsoft YaHei&quot;, 微软雅黑, Arial" text-anchor="middle" font-size="20px" width="50px" fill="#323232" font-weight="400" align="middle" lineHeight="125%" anchor="middle" family="&quot;Microsoft YaHei&quot;, 微软雅黑, Arial" size="20px" weight="400" font-style="" opacity="1" y="17" transform="rotate(0)"></text></g></g><g id="SvgjsG1309" transform="translate(1079.9555562337239,538.0000033908419)"><path id="SvgjsPath1310" d="M 0 4Q 0 0 4 0L 42.022 0Q 46.022 0 46.022 4L 46.022 36.333Q 46.022 40.333 42.022 40.333L 4 40.333Q 0 40.333 0 36.333Z" stroke="rgba(33,41,48,1)" stroke-width="1.5" fill-opacity="1" fill="#000000"></path><g id="SvgjsG1311"><text id="SvgjsText1312" font-family="&quot;Microsoft YaHei&quot;, 微软雅黑, Arial" text-anchor="middle" font-size="20px" width="27px" fill="#323232" font-weight="400" align="middle" lineHeight="125%" anchor="middle" family="&quot;Microsoft YaHei&quot;, 微软雅黑, Arial" size="20px" weight="400" font-style="" opacity="1" y="2.166499999999999" transform="rotate(0)"></text></g></g><g id="SvgjsG1313"><path id="SvgjsPath1314" d="M1049.8201471017264 448.8133591243635L998.8007098136669 535.6719166466494" stroke="#323232" stroke-width="1.5" fill="none" marker-end="url(#SvgjsMarker1315)"></path></g><g id="SvgjsG1317"><path id="SvgjsPath1318" d="M1050.579859152419 448.81335983257634L1101.5990767127494 535.6719140970829" stroke="#323232" stroke-width="1.5" fill="none" marker-end="url(#SvgjsMarker1319)"></path></g><g id="SvgjsG1321" transform="translate(1196.6444481743708,538.0000033908419)"><path id="SvgjsPath1322" d="M 0 4Q 0 0 4 0L 42.022 0Q 46.022 0 46.022 4L 46.022 36.333Q 46.022 40.333 42.022 40.333L 4 40.333Q 0 40.333 0 36.333Z" stroke="rgba(33,41,48,1)" stroke-width="1.5" fill-opacity="1" fill="#000000"></path><g id="SvgjsG1323"><text id="SvgjsText1324" font-family="&quot;Microsoft YaHei&quot;, 微软雅黑, Arial" text-anchor="middle" font-size="20px" width="27px" fill="#323232" font-weight="400" align="middle" lineHeight="125%" anchor="middle" family="&quot;Microsoft YaHei&quot;, 微软雅黑, Arial" size="20px" weight="400" font-style="" opacity="1" y="2.166499999999999" transform="rotate(0)"></text></g></g><g id="SvgjsG1325" transform="translate(1237.4222259521487,378.1666683620879)"><path id="SvgjsPath1326" d="M 0 35C 0 -11.667 70 -11.667 70 35C 70 81.667 0 81.667 0 35Z" stroke="rgba(255,255,255,1)" stroke-width="1.5" fill-opacity="1" fill="#e60c0c"></path><g id="SvgjsG1327"><text id="SvgjsText1328" font-family="&quot;Microsoft YaHei&quot;, 微软雅黑, Arial" text-anchor="middle" font-size="20px" width="50px" fill="#323232" font-weight="400" align="middle" lineHeight="125%" anchor="middle" family="&quot;Microsoft YaHei&quot;, 微软雅黑, Arial" size="20px" weight="400" font-style="" opacity="1" y="17" transform="rotate(0)"></text></g></g><g id="SvgjsG1329" transform="translate(1302.1777784559465,538.0000033908417)"><path id="SvgjsPath1330" d="M 0 4Q 0 0 4 0L 42.022 0Q 46.022 0 46.022 4L 46.022 36.333Q 46.022 40.333 42.022 40.333L 4 40.333Q 0 40.333 0 36.333Z" stroke="rgba(33,41,48,1)" stroke-width="1.5" fill-opacity="1" fill="#000000"></path><g id="SvgjsG1331"><text id="SvgjsText1332" font-family="&quot;Microsoft YaHei&quot;, 微软雅黑, Arial" text-anchor="middle" font-size="20px" width="27px" fill="#323232" font-weight="400" align="middle" lineHeight="125%" anchor="middle" family="&quot;Microsoft YaHei&quot;, 微软雅黑, Arial" size="20px" weight="400" font-style="" opacity="1" y="2.166499999999999" transform="rotate(0)"></text></g></g><g id="SvgjsG1333"><path id="SvgjsPath1334" d="M1272.042369323949 448.8133591243633L1221.0229320358894 535.6719166466492" stroke="#323232" stroke-width="1.5" fill="none" marker-end="url(#SvgjsMarker1335)"></path></g><g id="SvgjsG1337"><path id="SvgjsPath1338" d="M1272.8020813746416 448.8133598325761L1323.821298934972 535.6719140970827" stroke="#323232" stroke-width="1.5" fill="none" marker-end="url(#SvgjsMarker1339)"></path></g><g id="SvgjsG1341"><path id="SvgjsPath1342" d="M523.1964578902152 297.0443074306867L386.3327608183155 376.8071616116157" stroke="#323232" stroke-width="1.5" fill="none" marker-end="url(#SvgjsMarker1343)"></path></g><g id="SvgjsG1345"><path id="SvgjsPath1346" d="M524.4882165434581 297.0514501872376L657.8824266148837 376.78144768803236" stroke="#323232" stroke-width="1.5" fill="none" marker-end="url(#SvgjsMarker1347)"></path></g><g id="SvgjsG1349"><path id="SvgjsPath1350" d="M1160.3736623523446 297.1111214406627L1052.3748326892196 376.566631175702" stroke="#323232" stroke-width="1.5" fill="none" marker-end="url(#SvgjsMarker1351)"></path></g><g id="SvgjsG1353"><path id="SvgjsPath1354" d="M1161.5831699847245 297.1093909509458L1270.2428274348742 376.5728609386823" stroke="#323232" stroke-width="1.5" fill="none" marker-end="url(#SvgjsMarker1355)"></path></g><g id="SvgjsG1357" transform="translate(25,26.05555555555557)"><path id="SvgjsPath1358" d="M 0 0L 209.556 0L 225.556 16L 225.556 49L 0 49L 0 0Z" stroke="none" fill-opacity="1" fill="#fff7bc"></path><path id="SvgjsPath1359" d="M 209.556 0L 209.556 16L 225.556 16Z" stroke="none" fill-opacity="1" fill="#e4d089"></path><path id="SvgjsPath1360" d="M 0 0L 209.556 0L 225.556 16L 225.556 49L 0 49L 0 0Z" stroke="none" fill="none"></path><g id="SvgjsG1361"><text id="SvgjsText1362" font-family="&quot;Microsoft YaHei&quot;, 微软雅黑, Arial" text-anchor="middle" font-size="20px" width="206px" fill="#323232" font-weight="400" align="middle" lineHeight="125%" anchor="middle" family="&quot;Microsoft YaHei&quot;, 微软雅黑, Arial" size="20px" weight="400" font-style="" opacity="1" y="6.5" transform="rotate(0)"><tspan id="SvgjsTspan1363" dy="25" x="113"><tspan id="SvgjsTspan1364" style="">1. 根节点： 黑色</tspan></tspan></text></g></g><g id="SvgjsG1365" transform="translate(25,545.9999974568684)"><path id="SvgjsPath1366" d="M 0 0L 251.778 0L 267.778 16L 267.778 49L 0 49L 0 0Z" stroke="none" fill-opacity="1" fill="#fff7bc"></path><path id="SvgjsPath1367" d="M 251.778 0L 251.778 16L 267.778 16Z" stroke="none" fill-opacity="1" fill="#e4d089"></path><path id="SvgjsPath1368" d="M 0 0L 251.778 0L 267.778 16L 267.778 49L 0 49L 0 0Z" stroke="none" fill="none"></path><g id="SvgjsG1369"><text id="SvgjsText1370" font-family="&quot;Microsoft YaHei&quot;, 微软雅黑, Arial" text-anchor="middle" font-size="20px" width="248px" fill="#323232" font-weight="400" align="middle" lineHeight="125%" anchor="middle" family="&quot;Microsoft YaHei&quot;, 微软雅黑, Arial" size="20px" weight="400" font-style="" opacity="1" y="6.5" transform="rotate(0)"><tspan id="SvgjsTspan1371" dy="25" x="134"><tspan id="SvgjsTspan1372" style="">4. 叶子节点是黑色空节点</tspan></tspan></text></g></g><g id="SvgjsG1373" transform="translate(25,296.66666666666663)"><path id="SvgjsPath1374" d="M 0 0L 314 0L 330 16L 330 74L 0 74L 0 0Z" stroke="none" fill-opacity="1" fill="#fff7bc"></path><path id="SvgjsPath1375" d="M 314 0L 314 16L 330 16Z" stroke="none" fill-opacity="1" fill="#e4d089"></path><path id="SvgjsPath1376" d="M 0 0L 314 0L 330 16L 330 74L 0 74L 0 0Z" stroke="none" fill="none"></path><g id="SvgjsG1377"><text id="SvgjsText1378" font-family="&quot;Microsoft YaHei&quot;, 微软雅黑, Arial" text-anchor="middle" font-size="20px" width="310px" fill="#323232" font-weight="400" align="middle" lineHeight="125%" anchor="middle" family="&quot;Microsoft YaHei&quot;, 微软雅黑, Arial" size="20px" weight="400" font-style="" opacity="1" y="19" transform="rotate(0)"><tspan id="SvgjsTspan1379" dy="25" x="165"><tspan id="SvgjsTspan1380" style="">2. 红色节点的子节点必须是黑色</tspan></tspan></text></g></g><g id="SvgjsG1381" transform="translate(1365,312.24999788072364)"><path id="SvgjsPath1382" d="M 0 0L 451.778 0L 467.778 16L 467.778 99L 0 99L 0 0Z" stroke="none" fill-opacity="1" fill="#fff7bc"></path><path id="SvgjsPath1383" d="M 451.778 0L 451.778 16L 467.778 16Z" stroke="none" fill-opacity="1" fill="#e4d089"></path><path id="SvgjsPath1384" d="M 0 0L 451.778 0L 467.778 16L 467.778 99L 0 99L 0 0Z" stroke="none" fill="none"></path><g id="SvgjsG1385"><text id="SvgjsText1386" font-family="&quot;Microsoft YaHei&quot;, 微软雅黑, Arial" text-anchor="middle" font-size="20px" width="448px" fill="#323232" font-weight="400" align="middle" lineHeight="125%" anchor="middle" family="&quot;Microsoft YaHei&quot;, 微软雅黑, Arial" size="20px" weight="400" font-style="" opacity="1" y="19" transform="rotate(0)"><tspan id="SvgjsTspan1387" dy="25" x="234"><tspan id="SvgjsTspan1388" style="">3. 从任意节点到其所有可达的叶子节点的路径上，</tspan></tspan><tspan id="SvgjsTspan1389" dy="25" x="234"><tspan id="SvgjsTspan1390" style="">包含黑色节点的数量相同</tspan></tspan></text></g></g><g id="SvgjsG1391"></g></svg>