<svg id="SvgjsSvg1006" width="3223.453155275375" height="545.833346048991" xmlns="http://www.w3.org/2000/svg" version="1.1" xmlns:xlink="http://www.w3.org/1999/xlink" xmlns:svgjs="http://svgjs.com/svgjs"><defs id="SvgjsDefs1007"><pattern patternUnits="userSpaceOnUse" id="pattern_mark_0" width="300" height="300"><text x="150" y="100" fill="rgba(229,229,229,0.8)" font-size="18" transform="rotate(-45, 150, 150)" style="dominant-baseline: middle; text-anchor: middle;"></text></pattern><pattern patternUnits="userSpaceOnUse" id="pattern_mark_1" width="300" height="300"><text x="150" y="200" fill="rgba(229,229,229,0.8)" font-size="18" transform="rotate(-45, 150, 150)" style="dominant-baseline: middle; text-anchor: middle;"></text></pattern></defs><rect id="svgbackgroundid" width="3223.453155275375" height="545.833346048991" fill="transparent"></rect><rect id="SvgjsRect1009" width="3223.453155275375" height="545.833346048991" fill="url(#pattern_mark_0)"></rect><rect id="SvgjsRect1010" width="3223.453155275375" height="545.833346048991" fill="url(#pattern_mark_1)"></rect><g id="SvgjsG1011" transform="translate(150.9531552753752,25)"><path id="SvgjsPath1012" d="M 0 4Q 0 0 4 0L 3043.5 0Q 3047.5 0 3047.5 4L 3047.5 491.833Q 3047.5 495.833 3043.5 495.833L 4 495.833Q 0 495.833 0 491.833Z" stroke="rgba(33,41,48,1)" stroke-width="1.5" fill-opacity="1" fill="#ffffff"></path><g id="SvgjsG1013"><text id="SvgjsText1014" font-family="&quot;Microsoft YaHei&quot;, 微软雅黑, Arial" text-anchor="middle" font-size="13px" width="3028px" fill="#323232" font-weight="400" align="middle" lineHeight="125%" anchor="middle" family="&quot;Microsoft YaHei&quot;, 微软雅黑, Arial" size="13px" weight="400" font-style="" opacity="1" y="237.2915" transform="rotate(0)"></text></g></g><g id="SvgjsG1015" transform="translate(434.0642833406964,191.2777803209092)"><path id="SvgjsPath1016" d="M 0 4Q 0 0 3.9999999999999996 0L 100.578 0Q 104.578 0 104.578 4L 104.578 95.556Q 104.578 99.556 100.578 99.556L 3.9999999999999996 99.556Q 0 99.556 0 95.556Z" stroke-dasharray="3,4.5" stroke="rgba(70,105,234,1)" stroke-width="3" fill-opacity="1" fill="#ffffff"></path><g id="SvgjsG1017"><text id="SvgjsText1018" font-family="&quot;Microsoft YaHei&quot;, 微软雅黑, Arial" text-anchor="middle" font-size="30px" width="85px" fill="#ffffff" font-weight="400" align="middle" lineHeight="125%" anchor="middle" family="&quot;Microsoft YaHei&quot;, 微软雅黑, Arial" size="30px" weight="400" font-style="" opacity="1" y="24.028" transform="rotate(0)"></text></g></g><g id="SvgjsG1019" transform="translate(326.3531796894377,103.49999237060547)"><path id="SvgjsPath1020" d="M 0 35C 0 -11.667 70 -11.667 70 35C 70 81.667 0 81.667 0 35Z" stroke="rgba(255,255,255,1)" stroke-width="1.5" fill-opacity="1" fill="#000000"></path><g id="SvgjsG1021"><text id="SvgjsText1022" font-family="&quot;Microsoft YaHei&quot;, 微软雅黑, Arial" text-anchor="middle" font-size="30px" width="50px" fill="#ffffff" font-weight="400" align="middle" lineHeight="125%" anchor="middle" family="&quot;Microsoft YaHei&quot;, 微软雅黑, Arial" size="30px" weight="400" font-style="" opacity="1" y="9.25" transform="rotate(0)"><tspan id="SvgjsTspan1023" dy="37.5" x="35"><tspan id="SvgjsTspan1024" style="">7</tspan></tspan></text></g></g><g id="SvgjsG1025" transform="translate(208.57540191165992,209.055547926161)"><path id="SvgjsPath1026" d="M 0 35C 0 -11.667 70 -11.667 70 35C 70 81.667 0 81.667 0 35Z" stroke="rgba(255,255,255,1)" stroke-width="1.5" fill-opacity="1" fill="#000000"></path><g id="SvgjsG1027"><text id="SvgjsText1028" font-family="&quot;Microsoft YaHei&quot;, 微软雅黑, Arial" text-anchor="middle" font-size="30px" width="50px" fill="#ffffff" font-weight="400" align="middle" lineHeight="125%" anchor="middle" family="&quot;Microsoft YaHei&quot;, 微软雅黑, Arial" size="30px" weight="400" font-style="" opacity="1" y="9.25" transform="rotate(0)"><tspan id="SvgjsTspan1029" dy="37.5" x="35"><tspan id="SvgjsTspan1030" style="">5</tspan></tspan></text></g></g><g id="SvgjsG1031" transform="translate(326.3531796894377,310.1666590372721)"><path id="SvgjsPath1032" d="M 0 35C 0 -11.667 70 -11.667 70 35C 70 81.667 0 81.667 0 35Z" stroke="rgba(255,255,255,1)" stroke-width="1.5" fill-opacity="1" fill="#e60c0c"></path><g id="SvgjsG1033"><text id="SvgjsText1034" font-family="&quot;Microsoft YaHei&quot;, 微软雅黑, Arial" text-anchor="middle" font-size="30px" width="50px" fill="#ffffff" font-weight="400" align="middle" lineHeight="125%" anchor="middle" family="&quot;Microsoft YaHei&quot;, 微软雅黑, Arial" size="30px" weight="400" font-style="" opacity="1" y="9.25" transform="rotate(0)"><tspan id="SvgjsTspan1035" dy="37.5" x="35"><tspan id="SvgjsTspan1036" style="">6</tspan></tspan></text></g></g><g id="SvgjsG1037"><path id="SvgjsPath1038" d="M325.782387367967 138.98650663118792L244.14619423313064 208.56903366557856" stroke="#323232" stroke-width="1.5" fill="none"></path></g><g id="SvgjsG1039"><path id="SvgjsPath1040" d="M279.16143704151375 244.52358940570872L360.76714455958387 309.69861755772445" stroke="#323232" stroke-width="1.5" fill="none"></path></g><g id="SvgjsG1041" transform="translate(451.3531796894377,203.4999923706054)"><path id="SvgjsPath1042" d="M 0 35C 0 -11.667 70 -11.667 70 35C 70 81.667 0 81.667 0 35Z" stroke="rgba(255,255,255,1)" stroke-width="1.5" fill-opacity="1" fill="#000000"></path><g id="SvgjsG1043"><text id="SvgjsText1044" font-family="&quot;Microsoft YaHei&quot;, 微软雅黑, Arial" text-anchor="middle" font-size="30px" width="50px" fill="#ffffff" font-weight="400" align="middle" lineHeight="125%" anchor="middle" family="&quot;Microsoft YaHei&quot;, 微软雅黑, Arial" size="30px" weight="400" font-style="" opacity="1" y="9.25" transform="rotate(0)"><tspan id="SvgjsTspan1045" dy="37.5" x="35"><tspan id="SvgjsTspan1046" style="">9</tspan></tspan></text></g></g><g id="SvgjsG1047"><path id="SvgjsPath1048" d="M396.9611891107376 138.93911028598876L485.74517026813777 203.06087445522212" stroke="#323232" stroke-width="1.5" fill="none"></path></g><g id="SvgjsG1049" transform="translate(1012.6357119121249,190.50000747044868)"><path id="SvgjsPath1050" d="M 0 4Q 0 0 3.9999999999999996 0L 100.578 0Q 104.578 0 104.578 4L 104.578 95.556Q 104.578 99.556 100.578 99.556L 3.9999999999999996 99.556Q 0 99.556 0 95.556Z" stroke-dasharray="3,4.5" stroke="rgba(70,105,234,1)" stroke-width="3" fill-opacity="1" fill="#ffffff"></path><g id="SvgjsG1051"><text id="SvgjsText1052" font-family="&quot;Microsoft YaHei&quot;, 微软雅黑, Arial" text-anchor="middle" font-size="30px" width="85px" fill="#ffffff" font-weight="400" align="middle" lineHeight="125%" anchor="middle" family="&quot;Microsoft YaHei&quot;, 微软雅黑, Arial" size="30px" weight="400" font-style="" opacity="1" y="24.028" transform="rotate(0)"></text></g></g><g id="SvgjsG1053" transform="translate(904.9246082608663,102.72221952014496)"><path id="SvgjsPath1054" d="M 0 35C 0 -11.667 70 -11.667 70 35C 70 81.667 0 81.667 0 35Z" stroke="rgba(255,255,255,1)" stroke-width="1.5" fill-opacity="1" fill="#000000"></path><g id="SvgjsG1055"><text id="SvgjsText1056" font-family="&quot;Microsoft YaHei&quot;, 微软雅黑, Arial" text-anchor="middle" font-size="30px" width="50px" fill="#ffffff" font-weight="400" align="middle" lineHeight="125%" anchor="middle" family="&quot;Microsoft YaHei&quot;, 微软雅黑, Arial" size="30px" weight="400" font-style="" opacity="1" y="9.25" transform="rotate(0)"><tspan id="SvgjsTspan1057" dy="37.5" x="35"><tspan id="SvgjsTspan1058" style="">7</tspan></tspan></text></g></g><g id="SvgjsG1059" transform="translate(787.1468304830885,208.27777507570062)"><path id="SvgjsPath1060" d="M 0 35C 0 -11.667 70 -11.667 70 35C 70 81.667 0 81.667 0 35Z" stroke="rgba(255,255,255,1)" stroke-width="1.5" fill-opacity="1" fill="#000000"></path><g id="SvgjsG1061"><text id="SvgjsText1062" font-family="&quot;Microsoft YaHei&quot;, 微软雅黑, Arial" text-anchor="middle" font-size="30px" width="50px" fill="#ffffff" font-weight="400" align="middle" lineHeight="125%" anchor="middle" family="&quot;Microsoft YaHei&quot;, 微软雅黑, Arial" size="30px" weight="400" font-style="" opacity="1" y="9.25" transform="rotate(0)"><tspan id="SvgjsTspan1063" dy="37.5" x="35"><tspan id="SvgjsTspan1064" style="">5</tspan></tspan></text></g></g><g id="SvgjsG1065" transform="translate(904.9246082608663,309.3888861868113)"><path id="SvgjsPath1066" d="M 0 35C 0 -11.667 70 -11.667 70 35C 70 81.667 0 81.667 0 35Z" stroke="rgba(255,255,255,1)" stroke-width="1.5" fill-opacity="1" fill="#000000"></path><g id="SvgjsG1067"><text id="SvgjsText1068" font-family="&quot;Microsoft YaHei&quot;, 微软雅黑, Arial" text-anchor="middle" font-size="30px" width="50px" fill="#ffffff" font-weight="400" align="middle" lineHeight="125%" anchor="middle" family="&quot;Microsoft YaHei&quot;, 微软雅黑, Arial" size="30px" weight="400" font-style="" opacity="1" y="9.25" transform="rotate(0)"><tspan id="SvgjsTspan1069" dy="37.5" x="35"><tspan id="SvgjsTspan1070" style="">6</tspan></tspan></text></g></g><g id="SvgjsG1071"><path id="SvgjsPath1072" d="M904.3538159393956 138.20873378072747L822.7176228045594 207.79126081511816" stroke="#323232" stroke-width="1.5" fill="none"></path></g><g id="SvgjsG1073"><path id="SvgjsPath1074" d="M857.7328656129423 243.7458165552482L939.3385731310125 308.92084470726365" stroke="#323232" stroke-width="1.5" fill="none"></path></g><g id="SvgjsG1075" transform="translate(1029.9246082608665,202.72221952014496)"><path id="SvgjsPath1076" d="M 0 35C 0 -11.667 70 -11.667 70 35C 70 81.667 0 81.667 0 35Z" stroke="rgba(0,0,0,1)" stroke-width="1.5" fill="none"></path><g id="SvgjsG1077"><text id="SvgjsText1078" font-family="&quot;Microsoft YaHei&quot;, 微软雅黑, Arial" text-anchor="middle" font-size="30px" width="50px" fill="#000000" font-weight="400" align="middle" lineHeight="125%" anchor="middle" family="&quot;Microsoft YaHei&quot;, 微软雅黑, Arial" size="30px" weight="400" font-style="" opacity="1" y="9.25" transform="rotate(0)"><tspan id="SvgjsTspan1079" dy="37.5" x="35"><tspan id="SvgjsTspan1080" style="">9</tspan></tspan></text></g></g><g id="SvgjsG1081"><path id="SvgjsPath1082" d="M975.5326176821663 138.1613374355283L1064.3165988395665 202.28310160476167" stroke="#323232" stroke-width="1.5" fill="none"></path></g><g id="SvgjsG1083" transform="translate(291.7031629047697,82.24998474121094)"><path id="SvgjsPath1084" d="M 0 0L 47.5 0L 47.5 40L 0 40Z" stroke="none" fill="none"></path><g id="SvgjsG1085"><text id="SvgjsText1086" font-family="&quot;Microsoft YaHei&quot;, 微软雅黑, Arial" text-anchor="middle" font-size="30px" width="48px" fill="#323232" font-weight="400" align="middle" lineHeight="125%" anchor="middle" family="&quot;Microsoft YaHei&quot;, 微软雅黑, Arial" size="30px" weight="400" font-style="" opacity="1" y="-5.75" transform="rotate(0)"><tspan id="SvgjsTspan1087" dy="37.5" x="24"><tspan id="SvgjsTspan1088" style="">P</tspan></tspan></text></g></g><g id="SvgjsG1089" transform="translate(166.70316290476973,221.05555285347828)"><path id="SvgjsPath1090" d="M 0 0L 41.25 0L 41.25 40L 0 40Z" stroke="none" fill="none"></path><g id="SvgjsG1091"><text id="SvgjsText1092" font-family="&quot;Microsoft YaHei&quot;, 微软雅黑, Arial" text-anchor="middle" font-size="30px" width="42px" fill="#323232" font-weight="400" align="middle" lineHeight="125%" anchor="middle" family="&quot;Microsoft YaHei&quot;, 微软雅黑, Arial" size="30px" weight="400" font-style="" opacity="1" y="-5.75" transform="rotate(0)"><tspan id="SvgjsTspan1093" dy="37.5" x="21"><tspan id="SvgjsTspan1094" style="">S</tspan></tspan></text></g></g><g id="SvgjsG1095" transform="translate(278.5754019116599,325.1666590372721)"><path id="SvgjsPath1096" d="M 0 0L 43.4 0L 43.4 40L 0 40Z" stroke="none" fill="none"></path><g id="SvgjsG1097"><text id="SvgjsText1098" font-family="&quot;Microsoft YaHei&quot;, 微软雅黑, Arial" text-anchor="middle" font-size="30px" width="44px" fill="#323232" font-weight="400" align="middle" lineHeight="125%" anchor="middle" family="&quot;Microsoft YaHei&quot;, 微软雅黑, Arial" size="30px" weight="400" font-style="" opacity="1" y="-5.75" transform="rotate(0)"><tspan id="SvgjsTspan1099" dy="37.5" x="22"><tspan id="SvgjsTspan1100" style="">R</tspan></tspan></text></g></g><g id="SvgjsG1101"><path id="SvgjsPath1102" d="M361.3531796894377 102.74999237060547L361.3531796894377 42.24998474121094" stroke="#323232" stroke-width="1.5" fill="none"></path></g><g id="SvgjsG1103" transform="translate(557.9531629047697,211.05555285347828)"><path id="SvgjsPath1104" d="M 0 19.8L 187.5 19.8L 187.5 0L 217.5 30L 187.5 60L 187.5 40.2L 0 40.2L 0 19.8Z" stroke="rgba(33,41,48,1)" stroke-width="1.5" fill-opacity="1" fill="#ffffff"></path><g id="SvgjsG1105"><text id="SvgjsText1106" font-family="&quot;Microsoft YaHei&quot;, 微软雅黑, Arial" text-anchor="middle" font-size="13px" width="218px" fill="#323232" font-weight="400" align="middle" lineHeight="125%" anchor="middle" family="&quot;Microsoft YaHei&quot;, 微软雅黑, Arial" size="13px" weight="400" font-style="" opacity="1" y="19.375" transform="rotate(0)"></text></g></g><g id="SvgjsG1107" transform="translate(599.8281629047697,181.05555285347828)"><path id="SvgjsPath1108" d="M 0 0L 100 0L 100 40L 0 40Z" stroke="none" fill="none"></path><g id="SvgjsG1109"><text id="SvgjsText1110" font-family="&quot;Microsoft YaHei&quot;, 微软雅黑, Arial" text-anchor="middle" font-size="30px" width="100px" fill="#323232" font-weight="400" align="middle" lineHeight="125%" anchor="middle" family="&quot;Microsoft YaHei&quot;, 微软雅黑, Arial" size="30px" weight="400" font-style="" opacity="1" y="-5.75" transform="rotate(0)"><tspan id="SvgjsTspan1111" dy="37.5" x="50"><tspan id="SvgjsTspan1112" style="">变色</tspan></tspan></text></g></g><g id="SvgjsG1113" transform="translate(544.2031629047697,250.1666590372721)"><path id="SvgjsPath1114" d="M 0 0L 211.25 0L 211.25 75L 0 75Z" stroke="none" fill="none"></path><g id="SvgjsG1115"><text id="SvgjsText1116" font-family="&quot;Microsoft YaHei&quot;, 微软雅黑, Arial" text-anchor="middle" font-size="30px" width="212px" fill="#323232" font-weight="400" align="middle" lineHeight="125%" anchor="middle" family="&quot;Microsoft YaHei&quot;, 微软雅黑, Arial" size="30px" weight="400" font-style="" opacity="1" y="-6.75" transform="rotate(0)"><tspan id="SvgjsTspan1117" dy="37.5" x="106"><tspan id="SvgjsTspan1118" style="">R变为P的颜色</tspan></tspan><tspan id="SvgjsTspan1119" dy="37.5" x="106"><tspan id="SvgjsTspan1120" style="">P变为黑色</tspan></tspan></text></g></g><g id="SvgjsG1121" transform="translate(1610.3619117131311,191.72066070163078)"><path id="SvgjsPath1122" d="M 0 4Q 0 0 3.9999999999999996 0L 100.578 0Q 104.578 0 104.578 4L 104.578 95.556Q 104.578 99.556 100.578 99.556L 3.9999999999999996 99.556Q 0 99.556 0 95.556Z" stroke-dasharray="3,4.5" stroke="rgba(70,105,234,1)" stroke-width="3" fill-opacity="1" fill="#ffffff"></path><g id="SvgjsG1123"><text id="SvgjsText1124" font-family="&quot;Microsoft YaHei&quot;, 微软雅黑, Arial" text-anchor="middle" font-size="30px" width="85px" fill="#ffffff" font-weight="400" align="middle" lineHeight="125%" anchor="middle" family="&quot;Microsoft YaHei&quot;, 微软雅黑, Arial" size="30px" weight="400" font-style="" opacity="1" y="24.028" transform="rotate(0)"></text></g></g><g id="SvgjsG1125" transform="translate(1502.650808061873,103.942872751327)"><path id="SvgjsPath1126" d="M 0 35C 0 -11.667 70 -11.667 70 35C 70 81.667 0 81.667 0 35Z" stroke="rgba(255,255,255,1)" stroke-width="1.5" fill-opacity="1" fill="#000000"></path><g id="SvgjsG1127"><text id="SvgjsText1128" font-family="&quot;Microsoft YaHei&quot;, 微软雅黑, Arial" text-anchor="middle" font-size="30px" width="50px" fill="#ffffff" font-weight="400" align="middle" lineHeight="125%" anchor="middle" family="&quot;Microsoft YaHei&quot;, 微软雅黑, Arial" size="30px" weight="400" font-style="" opacity="1" y="9.25" transform="rotate(0)"><tspan id="SvgjsTspan1129" dy="37.5" x="35"><tspan id="SvgjsTspan1130" style="">7</tspan></tspan></text></g></g><g id="SvgjsG1131" transform="translate(1413.623030284095,426.99842830688283)"><path id="SvgjsPath1132" d="M 0 35C 0 -11.667 70 -11.667 70 35C 70 81.667 0 81.667 0 35Z" stroke="rgba(255,255,255,1)" stroke-width="1.5" fill-opacity="1" fill="#000000"></path><g id="SvgjsG1133"><text id="SvgjsText1134" font-family="&quot;Microsoft YaHei&quot;, 微软雅黑, Arial" text-anchor="middle" font-size="30px" width="50px" fill="#ffffff" font-weight="400" align="middle" lineHeight="125%" anchor="middle" family="&quot;Microsoft YaHei&quot;, 微软雅黑, Arial" size="30px" weight="400" font-style="" opacity="1" y="9.25" transform="rotate(0)"><tspan id="SvgjsTspan1135" dy="37.5" x="35"><tspan id="SvgjsTspan1136" style="">5</tspan></tspan></text></g></g><g id="SvgjsG1137" transform="translate(1502.650808061873,309.3888861868113)"><path id="SvgjsPath1138" d="M 0 35C 0 -11.667 70 -11.667 70 35C 70 81.667 0 81.667 0 35Z" stroke="rgba(255,255,255,1)" stroke-width="1.5" fill-opacity="1" fill="#000000"></path><g id="SvgjsG1139"><text id="SvgjsText1140" font-family="&quot;Microsoft YaHei&quot;, 微软雅黑, Arial" text-anchor="middle" font-size="30px" width="50px" fill="#ffffff" font-weight="400" align="middle" lineHeight="125%" anchor="middle" family="&quot;Microsoft YaHei&quot;, 微软雅黑, Arial" size="30px" weight="400" font-style="" opacity="1" y="9.25" transform="rotate(0)"><tspan id="SvgjsTspan1141" dy="37.5" x="35"><tspan id="SvgjsTspan1142" style="">6</tspan></tspan></text></g></g><g id="SvgjsG1143"><path id="SvgjsPath1144" d="M1502.1593953883282 139.50945335837213L1460.4682590545171 187.57778900388712" stroke="#323232" stroke-width="1.5" fill="none"></path></g><g id="SvgjsG1145" transform="translate(1627.6508080618728,203.94287275132706)"><path id="SvgjsPath1146" d="M 0 35C 0 -11.667 70 -11.667 70 35C 70 81.667 0 81.667 0 35Z" stroke="rgba(0,0,0,1)" stroke-width="1.5" fill="none"></path><g id="SvgjsG1147"><text id="SvgjsText1148" font-family="&quot;Microsoft YaHei&quot;, 微软雅黑, Arial" text-anchor="middle" font-size="30px" width="50px" fill="#000000" font-weight="400" align="middle" lineHeight="125%" anchor="middle" family="&quot;Microsoft YaHei&quot;, 微软雅黑, Arial" size="30px" weight="400" font-style="" opacity="1" y="9.25" transform="rotate(0)"><tspan id="SvgjsTspan1149" dy="37.5" x="35"><tspan id="SvgjsTspan1150" style="">9</tspan></tspan></text></g></g><g id="SvgjsG1151"><path id="SvgjsPath1152" d="M1573.2588174831728 139.38199066671035L1662.0427986405734 203.50375483594377" stroke="#323232" stroke-width="1.5" fill="none"></path></g><g id="SvgjsG1153" transform="translate(1166.750005086263,161.05555285347828)"><path id="SvgjsPath1154" d="M 0 19.8L 197.857 19.8L 197.857 0L 227.857 30L 197.857 60L 197.857 40.2L 0 40.2L 0 19.8Z" stroke="rgba(33,41,48,1)" stroke-width="1.5" fill-opacity="1" fill="#ffffff"></path><g id="SvgjsG1155"><text id="SvgjsText1156" font-family="&quot;Microsoft YaHei&quot;, 微软雅黑, Arial" text-anchor="middle" font-size="13px" width="228px" fill="#323232" font-weight="400" align="middle" lineHeight="125%" anchor="middle" family="&quot;Microsoft YaHei&quot;, 微软雅黑, Arial" size="13px" weight="400" font-style="" opacity="1" y="19.375" transform="rotate(0)"></text></g></g><g id="SvgjsG1157" transform="translate(1145.7214362734842,144.388886186812)"><path id="SvgjsPath1158" d="M 0 0L 240 0L 240 40L 0 40Z" stroke="none" fill="none"></path><g id="SvgjsG1159"><text id="SvgjsText1160" font-family="&quot;Microsoft YaHei&quot;, 微软雅黑, Arial" text-anchor="middle" font-size="30px" width="240px" fill="#323232" font-weight="400" align="middle" lineHeight="125%" anchor="middle" family="&quot;Microsoft YaHei&quot;, 微软雅黑, Arial" size="30px" weight="400" font-style="" opacity="1" y="-5.75" transform="rotate(0)"><tspan id="SvgjsTspan1161" dy="37.5" x="120"><tspan id="SvgjsTspan1162" style="">左旋转P的左孩子</tspan></tspan></text></g></g><g id="SvgjsG1163"><path id="SvgjsPath1164" d="M1502.2402973431604 345.01656520495817L1449.0335410028076 426.37074928873574" stroke="#323232" stroke-width="1.5" fill="none"></path></g><g id="SvgjsG1165" transform="translate(2169.3789826650464,190.55555809868713)"><path id="SvgjsPath1166" d="M 0 4Q 0 0 3.9999999999999996 0L 100.578 0Q 104.578 0 104.578 4L 104.578 95.556Q 104.578 99.556 100.578 99.556L 3.9999999999999996 99.556Q 0 99.556 0 95.556Z" stroke-dasharray="3,4.5" stroke="rgba(70,105,234,1)" stroke-width="3" fill-opacity="1" fill="#ffffff"></path><g id="SvgjsG1167"><text id="SvgjsText1168" font-family="&quot;Microsoft YaHei&quot;, 微软雅黑, Arial" text-anchor="middle" font-size="30px" width="85px" fill="#ffffff" font-weight="400" align="middle" lineHeight="125%" anchor="middle" family="&quot;Microsoft YaHei&quot;, 微软雅黑, Arial" size="30px" weight="400" font-style="" opacity="1" y="24.028" transform="rotate(0)"></text></g></g><g id="SvgjsG1169" transform="translate(2061.6678790137885,102.77777014838347)"><path id="SvgjsPath1170" d="M 0 35C 0 -11.667 70 -11.667 70 35C 70 81.667 0 81.667 0 35Z" stroke="rgba(255,255,255,1)" stroke-width="1.5" fill-opacity="1" fill="#000000"></path><g id="SvgjsG1171"><text id="SvgjsText1172" font-family="&quot;Microsoft YaHei&quot;, 微软雅黑, Arial" text-anchor="middle" font-size="30px" width="50px" fill="#ffffff" font-weight="400" align="middle" lineHeight="125%" anchor="middle" family="&quot;Microsoft YaHei&quot;, 微软雅黑, Arial" size="30px" weight="400" font-style="" opacity="1" y="9.25" transform="rotate(0)"><tspan id="SvgjsTspan1173" dy="37.5" x="35"><tspan id="SvgjsTspan1174" style="">7</tspan></tspan></text></g></g><g id="SvgjsG1175" transform="translate(1861.528990124899,319.1666590372722)"><path id="SvgjsPath1176" d="M 0 35C 0 -11.667 70 -11.667 70 35C 70 81.667 0 81.667 0 35Z" stroke="rgba(255,255,255,1)" stroke-width="1.5" fill-opacity="1" fill="#000000"></path><g id="SvgjsG1177"><text id="SvgjsText1178" font-family="&quot;Microsoft YaHei&quot;, 微软雅黑, Arial" text-anchor="middle" font-size="30px" width="50px" fill="#ffffff" font-weight="400" align="middle" lineHeight="125%" anchor="middle" family="&quot;Microsoft YaHei&quot;, 微软雅黑, Arial" size="30px" weight="400" font-style="" opacity="1" y="9.25" transform="rotate(0)"><tspan id="SvgjsTspan1179" dy="37.5" x="35"><tspan id="SvgjsTspan1180" style="">5</tspan></tspan></text></g></g><g id="SvgjsG1181" transform="translate(1950.556767902677,202.7777701483834)"><path id="SvgjsPath1182" d="M 0 35C 0 -11.667 70 -11.667 70 35C 70 81.667 0 81.667 0 35Z" stroke="rgba(255,255,255,1)" stroke-width="1.5" fill-opacity="1" fill="#000000"></path><g id="SvgjsG1183"><text id="SvgjsText1184" font-family="&quot;Microsoft YaHei&quot;, 微软雅黑, Arial" text-anchor="middle" font-size="30px" width="50px" fill="#ffffff" font-weight="400" align="middle" lineHeight="125%" anchor="middle" family="&quot;Microsoft YaHei&quot;, 微软雅黑, Arial" size="30px" weight="400" font-style="" opacity="1" y="9.25" transform="rotate(0)"><tspan id="SvgjsTspan1185" dy="37.5" x="35"><tspan id="SvgjsTspan1186" style="">6</tspan></tspan></text></g></g><g id="SvgjsG1187"><path id="SvgjsPath1188" d="M2061.097555926575 138.2648343907486L1986.1270909898908 202.29070590601822" stroke="#323232" stroke-width="1.5" fill="none"></path></g><g id="SvgjsG1189" transform="translate(2186.6678790137885,202.7777701483834)"><path id="SvgjsPath1190" d="M 0 35C 0 -11.667 70 -11.667 70 35C 70 81.667 0 81.667 0 35Z" stroke="rgba(0,0,0,1)" stroke-width="1.5" fill="none"></path><g id="SvgjsG1191"><text id="SvgjsText1192" font-family="&quot;Microsoft YaHei&quot;, 微软雅黑, Arial" text-anchor="middle" font-size="30px" width="50px" fill="#000000" font-weight="400" align="middle" lineHeight="125%" anchor="middle" family="&quot;Microsoft YaHei&quot;, 微软雅黑, Arial" size="30px" weight="400" font-style="" opacity="1" y="9.25" transform="rotate(0)"><tspan id="SvgjsTspan1193" dy="37.5" x="35"><tspan id="SvgjsTspan1194" style="">9</tspan></tspan></text></g></g><g id="SvgjsG1195"><path id="SvgjsPath1196" d="M2132.2758884350883 138.2168880637667L2221.0598695924887 202.33865223300012" stroke="#323232" stroke-width="1.5" fill="none"></path></g><g id="SvgjsG1197"><path id="SvgjsPath1198" d="M1950.1419739199916 238.40262689350783L1896.9437841075844 318.5418022921473" stroke="#323232" stroke-width="1.5" fill="none"></path></g><g id="SvgjsG1199" transform="translate(2310.281751118009,166.61110840903422)"><path id="SvgjsPath1200" d="M 0 19.8L 151.489 19.8L 151.489 0L 181.489 30L 151.489 60L 151.489 40.2L 0 40.2L 0 19.8Z" stroke="rgba(33,41,48,1)" stroke-width="1.5" fill-opacity="1" fill="#ffffff"></path><g id="SvgjsG1201"><text id="SvgjsText1202" font-family="&quot;Microsoft YaHei&quot;, 微软雅黑, Arial" text-anchor="middle" font-size="13px" width="182px" fill="#323232" font-weight="400" align="middle" lineHeight="125%" anchor="middle" family="&quot;Microsoft YaHei&quot;, 微软雅黑, Arial" size="13px" weight="400" font-style="" opacity="1" y="19.375" transform="rotate(0)"></text></g></g><g id="SvgjsG1203" transform="translate(2340.3261719961015,144.388886186812)"><path id="SvgjsPath1204" d="M 0 0L 100 0L 100 40L 0 40Z" stroke="none" fill="none"></path><g id="SvgjsG1205"><text id="SvgjsText1206" font-family="&quot;Microsoft YaHei&quot;, 微软雅黑, Arial" text-anchor="middle" font-size="30px" width="100px" fill="#323232" font-weight="400" align="middle" lineHeight="125%" anchor="middle" family="&quot;Microsoft YaHei&quot;, 微软雅黑, Arial" size="30px" weight="400" font-style="" opacity="1" y="-5.75" transform="rotate(0)"><tspan id="SvgjsTspan1207" dy="37.5" x="50"><tspan id="SvgjsTspan1208" style="">右旋P</tspan></tspan></text></g></g><g id="SvgjsG1209" transform="translate(2026.7353300064322,67.16267822659216)"><path id="SvgjsPath1210" d="M 0 0L 47.5 0L 47.5 40L 0 40Z" stroke="none" fill="none"></path><g id="SvgjsG1211"><text id="SvgjsText1212" font-family="&quot;Microsoft YaHei&quot;, 微软雅黑, Arial" text-anchor="middle" font-size="30px" width="48px" fill="#323232" font-weight="400" align="middle" lineHeight="125%" anchor="middle" family="&quot;Microsoft YaHei&quot;, 微软雅黑, Arial" size="30px" weight="400" font-style="" opacity="1" y="-5.75" transform="rotate(0)"><tspan id="SvgjsTspan1213" dy="37.5" x="24"><tspan id="SvgjsTspan1214" style="">P</tspan></tspan></text></g></g><g id="SvgjsG1215" transform="translate(1365.7182590545171,441.99842830688283)"><path id="SvgjsPath1216" d="M 0 0L 41.25 0L 41.25 40L 0 40Z" stroke="none" fill="none"></path><g id="SvgjsG1217"><text id="SvgjsText1218" font-family="&quot;Microsoft YaHei&quot;, 微软雅黑, Arial" text-anchor="middle" font-size="30px" width="42px" fill="#323232" font-weight="400" align="middle" lineHeight="125%" anchor="middle" family="&quot;Microsoft YaHei&quot;, 微软雅黑, Arial" size="30px" weight="400" font-style="" opacity="1" y="-5.75" transform="rotate(0)"><tspan id="SvgjsTspan1219" dy="37.5" x="21"><tspan id="SvgjsTspan1220" style="">S</tspan></tspan></text></g></g><g id="SvgjsG1221" transform="translate(1572.650808061873,356.99842830688283)"><path id="SvgjsPath1222" d="M 0 0L 43.4 0L 43.4 40L 0 40Z" stroke="none" fill="none"></path><g id="SvgjsG1223"><text id="SvgjsText1224" font-family="&quot;Microsoft YaHei&quot;, 微软雅黑, Arial" text-anchor="middle" font-size="30px" width="44px" fill="#323232" font-weight="400" align="middle" lineHeight="125%" anchor="middle" family="&quot;Microsoft YaHei&quot;, 微软雅黑, Arial" size="30px" weight="400" font-style="" opacity="1" y="-5.75" transform="rotate(0)"><tspan id="SvgjsTspan1225" dy="37.5" x="22"><tspan id="SvgjsTspan1226" style="">R</tspan></tspan></text></g></g><g id="SvgjsG1227" transform="translate(1460.4682590545171,63.942872751327)"><path id="SvgjsPath1228" d="M 0 0L 47.5 0L 47.5 40L 0 40Z" stroke="none" fill="none"></path><g id="SvgjsG1229"><text id="SvgjsText1230" font-family="&quot;Microsoft YaHei&quot;, 微软雅黑, Arial" text-anchor="middle" font-size="30px" width="48px" fill="#323232" font-weight="400" align="middle" lineHeight="125%" anchor="middle" family="&quot;Microsoft YaHei&quot;, 微软雅黑, Arial" size="30px" weight="400" font-style="" opacity="1" y="-5.75" transform="rotate(0)"><tspan id="SvgjsTspan1231" dy="37.5" x="24"><tspan id="SvgjsTspan1232" style="">P</tspan></tspan></text></g></g><g id="SvgjsG1233"><path id="SvgjsPath1234" d="M1537.650808061873 103.192872751327L1537.650808061873 38.77777014838347" stroke="#323232" stroke-width="1.5" fill="none"></path></g><g id="SvgjsG1235"><path id="SvgjsPath1236" d="M939.9246082608663 101.97221952014496L939.9246082608663 46.699974060058594" stroke="#323232" stroke-width="1.5" fill="none"></path></g><g id="SvgjsG1237"><path id="SvgjsPath1238" d="M2096.6678790137885 102.02777014838347L2096.6678790137885 33.61266754543993" stroke="#323232" stroke-width="1.5" fill="none"></path></g><g id="SvgjsG1239" transform="translate(3098.762186807303,309.6666537920639)"><path id="SvgjsPath1240" d="M 0 35C 0 -11.667 70 -11.667 70 35C 70 81.667 0 81.667 0 35Z" stroke="rgba(255,255,255,1)" stroke-width="1.5" fill-opacity="1" fill="#000000"></path><g id="SvgjsG1241"><text id="SvgjsText1242" font-family="&quot;Microsoft YaHei&quot;, 微软雅黑, Arial" text-anchor="middle" font-size="30px" width="50px" fill="#ffffff" font-weight="400" align="middle" lineHeight="125%" anchor="middle" family="&quot;Microsoft YaHei&quot;, 微软雅黑, Arial" size="30px" weight="400" font-style="" opacity="1" y="9.25" transform="rotate(0)"><tspan id="SvgjsTspan1243" dy="37.5" x="35"><tspan id="SvgjsTspan1244" style="">7</tspan></tspan></text></g></g><g id="SvgjsG1245" transform="translate(2920.289964585081,309.6666537920639)"><path id="SvgjsPath1246" d="M 0 35C 0 -11.667 70 -11.667 70 35C 70 81.667 0 81.667 0 35Z" stroke="rgba(255,255,255,1)" stroke-width="1.5" fill-opacity="1" fill="#000000"></path><g id="SvgjsG1247"><text id="SvgjsText1248" font-family="&quot;Microsoft YaHei&quot;, 微软雅黑, Arial" text-anchor="middle" font-size="30px" width="50px" fill="#ffffff" font-weight="400" align="middle" lineHeight="125%" anchor="middle" family="&quot;Microsoft YaHei&quot;, 微软雅黑, Arial" size="30px" weight="400" font-style="" opacity="1" y="9.25" transform="rotate(0)"><tspan id="SvgjsTspan1249" dy="37.5" x="35"><tspan id="SvgjsTspan1250" style="">5</tspan></tspan></text></g></g><g id="SvgjsG1251" transform="translate(3009.3177423628586,193.27776490317524)"><path id="SvgjsPath1252" d="M 0 35C 0 -11.667 70 -11.667 70 35C 70 81.667 0 81.667 0 35Z" stroke="rgba(255,255,255,1)" stroke-width="1.5" fill-opacity="1" fill="#000000"></path><g id="SvgjsG1253"><text id="SvgjsText1254" font-family="&quot;Microsoft YaHei&quot;, 微软雅黑, Arial" text-anchor="middle" font-size="30px" width="50px" fill="#ffffff" font-weight="400" align="middle" lineHeight="125%" anchor="middle" family="&quot;Microsoft YaHei&quot;, 微软雅黑, Arial" size="30px" weight="400" font-style="" opacity="1" y="9.25" transform="rotate(0)"><tspan id="SvgjsTspan1255" dy="37.5" x="35"><tspan id="SvgjsTspan1256" style="">6</tspan></tspan></text></g></g><g id="SvgjsG1257"><path id="SvgjsPath1258" d="M3044.3177423628586 144.388886186812L3044.3177423628586 192.52776490317524" stroke="#323232" stroke-width="1.5" fill="none"></path></g><g id="SvgjsG1259"><path id="SvgjsPath1260" d="M3008.9029483801733 228.9026216482996L2955.7047585677665 309.041797046939" stroke="#323232" stroke-width="1.5" fill="none"></path></g><g id="SvgjsG1261"><path id="SvgjsPath1262" d="M3079.7347489571207 228.90114720990357L3133.3451802130407 309.0432714853355" stroke="#323232" stroke-width="1.5" fill="none"></path></g><g id="SvgjsG1263" transform="translate(2786.107934134348,221.05555285347828)"><path id="SvgjsPath1264" d="M 0 19.8L 60 19.8L 60 0L 90 30L 60 60L 60 40.2L 0 40.2L 0 19.8Z" stroke="rgba(33,41,48,1)" stroke-width="1.5" fill-opacity="1" fill="#ffffff"></path><g id="SvgjsG1265"><text id="SvgjsText1266" font-family="&quot;Microsoft YaHei&quot;, 微软雅黑, Arial" text-anchor="middle" font-size="13px" width="90px" fill="#323232" font-weight="400" align="middle" lineHeight="125%" anchor="middle" family="&quot;Microsoft YaHei&quot;, 微软雅黑, Arial" size="13px" weight="400" font-style="" opacity="1" y="19.375" transform="rotate(0)"></text></g></g><g id="SvgjsG1267" transform="translate(2759.278918069507,407.08333587646484)"><path id="SvgjsPath1268" d="M 0 4Q 0 0 3.9999999999999996 0L 100.578 0Q 104.578 0 104.578 4L 104.578 95.556Q 104.578 99.556 100.578 99.556L 3.9999999999999996 99.556Q 0 99.556 0 95.556Z" stroke-dasharray="3,4.5" stroke="rgba(70,105,234,1)" stroke-width="3" fill-opacity="1" fill="#ffffff"></path><g id="SvgjsG1269"><text id="SvgjsText1270" font-family="&quot;Microsoft YaHei&quot;, 微软雅黑, Arial" text-anchor="middle" font-size="30px" width="85px" fill="#ffffff" font-weight="400" align="middle" lineHeight="125%" anchor="middle" family="&quot;Microsoft YaHei&quot;, 微软雅黑, Arial" size="30px" weight="400" font-style="" opacity="1" y="24.028" transform="rotate(0)"></text></g></g><g id="SvgjsG1271" transform="translate(2651.5678144182493,319.30554792616135)"><path id="SvgjsPath1272" d="M 0 35C 0 -11.667 70 -11.667 70 35C 70 81.667 0 81.667 0 35Z" stroke="rgba(255,255,255,1)" stroke-width="1.5" fill-opacity="1" fill="#000000"></path><g id="SvgjsG1273"><text id="SvgjsText1274" font-family="&quot;Microsoft YaHei&quot;, 微软雅黑, Arial" text-anchor="middle" font-size="30px" width="50px" fill="#ffffff" font-weight="400" align="middle" lineHeight="125%" anchor="middle" family="&quot;Microsoft YaHei&quot;, 微软雅黑, Arial" size="30px" weight="400" font-style="" opacity="1" y="9.25" transform="rotate(0)"><tspan id="SvgjsTspan1275" dy="37.5" x="35"><tspan id="SvgjsTspan1276" style="">7</tspan></tspan></text></g></g><g id="SvgjsG1277" transform="translate(2473.0955921960267,319.30554792616135)"><path id="SvgjsPath1278" d="M 0 35C 0 -11.667 70 -11.667 70 35C 70 81.667 0 81.667 0 35Z" stroke="rgba(255,255,255,1)" stroke-width="1.5" fill-opacity="1" fill="#000000"></path><g id="SvgjsG1279"><text id="SvgjsText1280" font-family="&quot;Microsoft YaHei&quot;, 微软雅黑, Arial" text-anchor="middle" font-size="30px" width="50px" fill="#ffffff" font-weight="400" align="middle" lineHeight="125%" anchor="middle" family="&quot;Microsoft YaHei&quot;, 微软雅黑, Arial" size="30px" weight="400" font-style="" opacity="1" y="9.25" transform="rotate(0)"><tspan id="SvgjsTspan1281" dy="37.5" x="35"><tspan id="SvgjsTspan1282" style="">5</tspan></tspan></text></g></g><g id="SvgjsG1283" transform="translate(2562.123369973805,202.91665903727255)"><path id="SvgjsPath1284" d="M 0 35C 0 -11.667 70 -11.667 70 35C 70 81.667 0 81.667 0 35Z" stroke="rgba(255,255,255,1)" stroke-width="1.5" fill-opacity="1" fill="#000000"></path><g id="SvgjsG1285"><text id="SvgjsText1286" font-family="&quot;Microsoft YaHei&quot;, 微软雅黑, Arial" text-anchor="middle" font-size="30px" width="50px" fill="#ffffff" font-weight="400" align="middle" lineHeight="125%" anchor="middle" family="&quot;Microsoft YaHei&quot;, 微软雅黑, Arial" size="30px" weight="400" font-style="" opacity="1" y="9.25" transform="rotate(0)"><tspan id="SvgjsTspan1287" dy="37.5" x="35"><tspan id="SvgjsTspan1288" style="">6</tspan></tspan></text></g></g><g id="SvgjsG1289"><path id="SvgjsPath1290" d="M2597.123369973805 154.0277803209093L2597.123369973805 202.16665903727255" stroke="#323232" stroke-width="1.5" fill="none"></path></g><g id="SvgjsG1291" transform="translate(2776.5678144182493,419.3055479261611)"><path id="SvgjsPath1292" d="M 0 35C 0 -11.667 70 -11.667 70 35C 70 81.667 0 81.667 0 35Z" stroke="rgba(0,0,0,1)" stroke-width="1.5" fill="none"></path><g id="SvgjsG1293"><text id="SvgjsText1294" font-family="&quot;Microsoft YaHei&quot;, 微软雅黑, Arial" text-anchor="middle" font-size="30px" width="50px" fill="#000000" font-weight="400" align="middle" lineHeight="125%" anchor="middle" family="&quot;Microsoft YaHei&quot;, 微软雅黑, Arial" size="30px" weight="400" font-style="" opacity="1" y="9.25" transform="rotate(0)"><tspan id="SvgjsTspan1295" dy="37.5" x="35"><tspan id="SvgjsTspan1296" style="">9</tspan></tspan></text></g></g><g id="SvgjsG1297"><path id="SvgjsPath1298" d="M2722.1758238395482 354.7446658415446L2810.9598049969495 418.8664300107779" stroke="#323232" stroke-width="1.5" fill="none"></path></g><g id="SvgjsG1299"><path id="SvgjsPath1300" d="M2561.7085759911197 238.54151578239697L2508.510386178712 318.6806911810364" stroke="#323232" stroke-width="1.5" fill="none"></path></g><g id="SvgjsG1301"><path id="SvgjsPath1302" d="M2632.540376568067 238.54004134400094L2686.150807823987 318.6821656194329" stroke="#323232" stroke-width="1.5" fill="none"></path></g><g id="SvgjsG1303"><path id="SvgjsPath1304" d="M975.6746082608663 344.3888861868113L1238.7877081613697 344.3888861868113L1238.7877081613697 344.3888861868113L1501.900808061873 344.3888861868113" stroke-dasharray="1,1.5" stroke="#323232" stroke-width="1" fill="none"></path></g><g id="SvgjsG1305" transform="translate(1756.9531781635587,191.72066070163078)"><path id="SvgjsPath1306" d="M 0 19.8L 60 19.8L 60 0L 90 30L 60 60L 60 40.2L 0 40.2L 0 19.8Z" stroke="rgba(33,41,48,1)" stroke-width="1.5" fill-opacity="1" fill="#ffffff"></path><g id="SvgjsG1307"><text id="SvgjsText1308" font-family="&quot;Microsoft YaHei&quot;, 微软雅黑, Arial" text-anchor="middle" font-size="13px" width="90px" fill="#323232" font-weight="400" align="middle" lineHeight="125%" anchor="middle" family="&quot;Microsoft YaHei&quot;, 微软雅黑, Arial" size="13px" weight="400" font-style="" opacity="1" y="19.375" transform="rotate(0)"></text></g></g><g id="SvgjsG1309"><path id="SvgjsPath1310" d="M1573.400808061873 138.942872751327L1817.1593435378309 138.942872751327L1817.1593435378309 138.942872751327L2060.9178790137885 138.942872751327" stroke-dasharray="1.5,2.25" stroke="#323232" stroke-width="1.5" fill="none"></path></g><g id="SvgjsG1311"><path id="SvgjsPath1312" d="M2021.306767902677 237.7777701483834L2291.340068938241 237.7777701483834L2291.340068938241 237.91665903727255L2561.373369973805 237.91665903727255" stroke-dasharray="1.5,2.25" stroke="#323232" stroke-width="1.5" fill="none"></path></g><g id="SvgjsG1313" transform="translate(25,221.05555285347828)"><path id="SvgjsPath1314" d="M 0 0L 109.953 0L 125.953 16L 125.953 62L 0 62L 0 0Z" stroke="none" fill-opacity="1" fill="#fff7bc"></path><path id="SvgjsPath1315" d="M 109.953 0L 109.953 16L 125.953 16Z" stroke="none" fill-opacity="1" fill="#e4d089"></path><path id="SvgjsPath1316" d="M 0 0L 109.953 0L 125.953 16L 125.953 62L 0 62L 0 0Z" stroke="none" fill="none"></path><g id="SvgjsG1317"><text id="SvgjsText1318" font-family="&quot;Microsoft YaHei&quot;, 微软雅黑, Arial" text-anchor="middle" font-size="30px" width="106px" fill="#323232" font-weight="400" align="middle" lineHeight="125%" anchor="middle" family="&quot;Microsoft YaHei&quot;, 微软雅黑, Arial" size="30px" weight="400" font-style="" opacity="1" y="5.25" transform="rotate(0)"><tspan id="SvgjsTspan1319" dy="37.5" x="63"><tspan id="SvgjsTspan1320" style="">LR</tspan></tspan></text></g></g><g id="SvgjsG1321"></g></svg>