<svg id="SvgjsSvg1006" width="661.0854163976032" height="321.1170454403466" xmlns="http://www.w3.org/2000/svg" version="1.1" xmlns:xlink="http://www.w3.org/1999/xlink" xmlns:svgjs="http://svgjs.com/svgjs"><defs id="SvgjsDefs1007"><pattern patternUnits="userSpaceOnUse" id="pattern_mark_0" width="300" height="300"><text x="150" y="100" fill="rgba(229,229,229,0.8)" font-size="18" transform="rotate(-45, 150, 150)" style="dominant-baseline: middle; text-anchor: middle;"></text></pattern><pattern patternUnits="userSpaceOnUse" id="pattern_mark_1" width="300" height="300"><text x="150" y="200" fill="rgba(229,229,229,0.8)" font-size="18" transform="rotate(-45, 150, 150)" style="dominant-baseline: middle; text-anchor: middle;"></text></pattern><marker id="SvgjsMarker1069" markerWidth="13" markerHeight="9" refX="9.5" refY="4.5" viewBox="0 0 13 9" orient="auto" markerUnits="userSpaceOnUse" stroke-dasharray="0,0"><path id="SvgjsPath1070" d="M0,0 L13,4.5 L0,9 L0,0" fill="#323232" stroke="#323232" stroke-width="1"></path></marker><marker id="SvgjsMarker1079" markerWidth="13" markerHeight="9" refX="9.5" refY="4.5" viewBox="0 0 13 9" orient="auto" markerUnits="userSpaceOnUse" stroke-dasharray="0,0"><path id="SvgjsPath1080" d="M0,0 L13,4.5 L0,9 L0,0" fill="#323232" stroke="#323232" stroke-width="1"></path></marker><marker id="SvgjsMarker1083" markerWidth="13" markerHeight="9" refX="9.5" refY="4.5" viewBox="0 0 13 9" orient="auto" markerUnits="userSpaceOnUse" stroke-dasharray="0,0"><path id="SvgjsPath1084" d="M0,0 L13,4.5 L0,9 L0,0" fill="#323232" stroke="#323232" stroke-width="1"></path></marker><marker id="SvgjsMarker1091" markerWidth="13" markerHeight="9" refX="9.5" refY="4.5" viewBox="0 0 13 9" orient="auto" markerUnits="userSpaceOnUse" stroke-dasharray="0,0"><path id="SvgjsPath1092" d="M0,0 L13,4.5 L0,9 L0,0" fill="#323232" stroke="#323232" stroke-width="1"></path></marker><marker id="SvgjsMarker1095" markerWidth="13" markerHeight="9" refX="9.5" refY="4.5" viewBox="0 0 13 9" orient="auto" markerUnits="userSpaceOnUse" stroke-dasharray="0,0"><path id="SvgjsPath1096" d="M0,0 L13,4.5 L0,9 L0,0" fill="#323232" stroke="#323232" stroke-width="1"></path></marker><marker id="SvgjsMarker1099" markerWidth="13" markerHeight="9" refX="9.5" refY="4.5" viewBox="0 0 13 9" orient="auto" markerUnits="userSpaceOnUse" stroke-dasharray="0,0"><path id="SvgjsPath1100" d="M0,0 L13,4.5 L0,9 L0,0" fill="#323232" stroke="#323232" stroke-width="1"></path></marker><marker id="SvgjsMarker1103" markerWidth="13" markerHeight="9" refX="9.5" refY="4.5" viewBox="0 0 13 9" orient="auto" markerUnits="userSpaceOnUse" stroke-dasharray="0,0"><path id="SvgjsPath1104" d="M0,0 L13,4.5 L0,9 L0,0" fill="#323232" stroke="#323232" stroke-width="1"></path></marker></defs><rect id="svgbackgroundid" width="661.0854163976032" height="321.1170454403466" fill="transparent"></rect><rect id="SvgjsRect1009" width="661.0854163976032" height="321.1170454403466" fill="url(#pattern_mark_0)"></rect><rect id="SvgjsRect1010" width="661.0854163976032" height="321.1170454403466" fill="url(#pattern_mark_1)"></rect><g id="SvgjsG1011" transform="translate(359.81181403865855,36.7813740621643)"><path id="SvgjsPath1012" d="M 0 4Q 0 0 4 0L 139.557 0Q 143.557 0 143.557 4L 143.557 255.336Q 143.557 259.336 139.557 259.336L 4 259.336Q 0 259.336 0 255.336Z" stroke="rgba(33,41,48,1)" stroke-width="1.5" fill-opacity="1" fill="#ffffff"></path><g id="SvgjsG1013"><text id="SvgjsText1014" font-family="&quot;Microsoft YaHei&quot;, 微软雅黑, Arial" text-anchor="middle" font-size="13px" width="124px" fill="#323232" font-weight="400" align="middle" lineHeight="125%" anchor="middle" family="&quot;Microsoft YaHei&quot;, 微软雅黑, Arial" size="13px" weight="400" font-style="" opacity="1" y="119.043" transform="rotate(0)"></text></g></g><g id="SvgjsG1015" transform="translate(360.11950730669423,184.3583006603465)"><path id="SvgjsPath1016" d="M 0 4Q 0 0 4 0L 138.941 0Q 142.941 0 142.941 4L 142.941 31Q 142.941 35 138.941 35L 4 35Q 0 35 0 31Z" stroke="rgba(33,41,48,1)" stroke-width="1.5" fill-opacity="1" fill="#ec7270"></path><g id="SvgjsG1017"><text id="SvgjsText1018" font-family="&quot;Microsoft YaHei&quot;, 微软雅黑, Arial" text-anchor="middle" font-size="18px" width="123px" fill="#fcf9ea" font-weight="400" align="middle" lineHeight="125%" anchor="middle" family="&quot;Microsoft YaHei&quot;, 微软雅黑, Arial" size="18px" weight="400" font-style="" opacity="1" y="1.75" transform="rotate(0)"><tspan id="SvgjsTspan1019" dy="22.5" x="71.5"><tspan id="SvgjsTspan1020" style="">uboot-proper</tspan></tspan></text></g></g><g id="SvgjsG1021" transform="translate(359.71041639760324,219.8583006603465)"><path id="SvgjsPath1022" d="M 0 4Q 0 0 4 0L 139.759 0Q 143.759 0 143.759 4L 143.759 32.898Q 143.759 36.898 139.759 36.898L 4 36.898Q 0 36.898 0 32.898Z" stroke="rgba(33,41,48,1)" stroke-width="1.5" fill-opacity="1" fill="#ec7270"></path><g id="SvgjsG1023"><text id="SvgjsText1024" font-family="&quot;Microsoft YaHei&quot;, 微软雅黑, Arial" text-anchor="middle" font-size="18px" width="124px" fill="#fcf9ea" font-weight="400" align="middle" lineHeight="125%" anchor="middle" family="&quot;Microsoft YaHei&quot;, 微软雅黑, Arial" size="18px" weight="400" font-style="" opacity="1" y="2.6990000000000016" transform="rotate(0)"><tspan id="SvgjsTspan1025" dy="22.5" x="72"><tspan id="SvgjsTspan1026" style="">uboot-spl</tspan></tspan></text></g></g><g id="SvgjsG1027" transform="translate(359.21041639760324,258.7583021862256)"><path id="SvgjsPath1028" d="M 0 4Q 0 0 4 0L 140.759 0Q 144.759 0 144.759 4L 144.759 31.998Q 144.759 35.998 140.759 35.998L 4 35.998Q 0 35.998 0 31.998Z" stroke="rgba(33,41,48,1)" stroke-width="1.5" fill-opacity="1" fill="#9d8c88"></path><g id="SvgjsG1029"><text id="SvgjsText1030" font-family="&quot;Microsoft YaHei&quot;, 微软雅黑, Arial" text-anchor="middle" font-size="18px" width="125px" fill="#fcf9ea" font-weight="400" align="middle" lineHeight="125%" anchor="middle" family="&quot;Microsoft YaHei&quot;, 微软雅黑, Arial" size="18px" weight="400" font-style="" opacity="1" y="2.2489999999999988" transform="rotate(0)"><tspan id="SvgjsTspan1031" dy="22.5" x="72.5"><tspan id="SvgjsTspan1032" style="">MBR</tspan></tspan></text></g></g><g id="SvgjsG1033" transform="translate(536.0854163976032,197.67319517296696)"><path id="SvgjsPath1034" d="M 16.667 0L 83.333 0C 105.556 0 105.556 50 83.333 50L 16.667 50C -5.556 50 -5.556 0 16.667 0Z" stroke="rgba(33,41,48,1)" stroke-width="1.5" fill-opacity="1" fill="#ffffff"></path><g id="SvgjsG1035"><text id="SvgjsText1036" font-family="&quot;Microsoft YaHei&quot;, 微软雅黑, Arial" text-anchor="middle" font-size="18px" width="80px" fill="#323232" font-weight="400" align="middle" lineHeight="125%" anchor="middle" family="&quot;Microsoft YaHei&quot;, 微软雅黑, Arial" size="18px" weight="400" font-style="" opacity="1" y="9.25" transform="rotate(0)"><tspan id="SvgjsTspan1037" dy="22.5" x="50"><tspan id="SvgjsTspan1038" style="">U-Boot</tspan></tspan></text></g></g><g id="SvgjsG1039" transform="translate(25,125.76410426387605)"><path id="SvgjsPath1040" d="M 0 4Q 0 0 4 0L 293.091 0Q 297.091 0 297.091 4L 297.091 166.353Q 297.091 170.353 293.091 170.353L 4 170.353Q 0 170.353 0 166.353Z" stroke="rgba(33,41,48,1)" stroke-width="1.5" fill-opacity="1" fill="#ffffff"></path><g id="SvgjsG1041"><text id="SvgjsText1042" font-family="&quot;Microsoft YaHei&quot;, 微软雅黑, Arial" text-anchor="middle" font-size="13px" width="278px" fill="#323232" font-weight="400" align="middle" lineHeight="125%" anchor="middle" family="&quot;Microsoft YaHei&quot;, 微软雅黑, Arial" size="13px" weight="400" font-style="" opacity="1" y="74.5515" transform="rotate(0)"></text></g></g><g id="SvgjsG1043" transform="translate(42.27272727272725,137.94592244569424)"><path id="SvgjsPath1044" d="M 0 4Q 0 0 4 0L 92 0Q 96 0 96 4L 96 133.636Q 96 137.636 92 137.636L 4 137.636Q 0 137.636 0 133.636Z" stroke="rgba(33,41,48,1)" stroke-width="1.5" fill-opacity="1" fill="#9d8c88"></path><g id="SvgjsG1045"><text id="SvgjsText1046" font-family="&quot;Microsoft YaHei&quot;, 微软雅黑, Arial" text-anchor="middle" font-size="18px" width="76px" fill="#fcf9ea" font-weight="400" align="middle" lineHeight="125%" anchor="middle" family="&quot;Microsoft YaHei&quot;, 微软雅黑, Arial" size="18px" weight="400" font-style="" opacity="1" y="53.068" transform="rotate(0)"><tspan id="SvgjsTspan1047" dy="22.5" x="48"><tspan id="SvgjsTspan1048" style="">CPU</tspan></tspan></text></g></g><g id="SvgjsG1049" transform="translate(168.63636363636357,137.94592244569424)"><path id="SvgjsPath1050" d="M 0 4Q 0 0 4 0L 127.636 0Q 131.636 0 131.636 4L 131.636 55.727Q 131.636 59.727 127.636 59.727L 4 59.727Q 0 59.727 0 55.727Z" stroke="rgba(33,41,48,1)" stroke-width="1.5" fill-opacity="1" fill="#e9d66f"></path><g id="SvgjsG1051"><text id="SvgjsText1052" font-family="&quot;Microsoft YaHei&quot;, 微软雅黑, Arial" text-anchor="middle" font-size="18px" width="112px" fill="#323232" font-weight="400" align="middle" lineHeight="125%" anchor="middle" family="&quot;Microsoft YaHei&quot;, 微软雅黑, Arial" size="18px" weight="400" font-style="" opacity="1" y="14.113499999999998" transform="rotate(0)"><tspan id="SvgjsTspan1053" dy="22.5" x="66"><tspan id="SvgjsTspan1054" style="">SRAM</tspan></tspan></text></g></g><g id="SvgjsG1055" transform="translate(168.63636363636363,218.58228608205783)"><path id="SvgjsPath1056" d="M 0 4Q 0 0 4 0L 127.636 0Q 131.636 0 131.636 4L 131.636 53Q 131.636 57 127.636 57L 4 57Q 0 57 0 53Z" stroke="rgba(33,41,48,1)" stroke-width="1.5" fill-opacity="1" fill="#e9d66f"></path><g id="SvgjsG1057"><text id="SvgjsText1058" font-family="&quot;Microsoft YaHei&quot;, 微软雅黑, Arial" text-anchor="middle" font-size="18px" width="112px" fill="#323232" font-weight="400" align="middle" lineHeight="125%" anchor="middle" family="&quot;Microsoft YaHei&quot;, 微软雅黑, Arial" size="18px" weight="400" font-style="" opacity="1" y="12.75" transform="rotate(0)"><tspan id="SvgjsTspan1059" dy="22.5" x="66"><tspan id="SvgjsTspan1060" style="">BROM</tspan></tspan></text></g></g><g id="SvgjsG1061" transform="translate(25,36.7813740621643)"><path id="SvgjsPath1062" d="M 0 4Q 0 0 4 0L 293.091 0Q 297.091 0 297.091 4L 297.091 67.669Q 297.091 71.669 293.091 71.669L 4 71.669Q 0 71.669 0 67.669Z" stroke="rgba(33,41,48,1)" stroke-width="1.5" fill-opacity="1" fill="#f1e4a2"></path><g id="SvgjsG1063"><text id="SvgjsText1064" font-family="&quot;Microsoft YaHei&quot;, 微软雅黑, Arial" text-anchor="middle" font-size="18px" width="278px" fill="#323232" font-weight="400" align="middle" lineHeight="125%" anchor="middle" family="&quot;Microsoft YaHei&quot;, 微软雅黑, Arial" size="18px" weight="400" font-style="" opacity="1" y="20.0845" transform="rotate(0)"><tspan id="SvgjsTspan1065" dy="22.5" x="149"><tspan id="SvgjsTspan1066" style="">LDDR</tspan></tspan></text></g></g><g id="SvgjsG1067"><path id="SvgjsPath1068" d="M359.0056349194026 238.0508185596352C 321.5454600941051 231.1186436149059 334.0454600941051 186.6186436149059 302.41141123806085 169.45748894137" stroke="#323232" stroke-width="1.5" fill="none" marker-end="url(#SvgjsMarker1069)"></path></g><g id="SvgjsG1071" transform="translate(359.71041639760324,137.94592244569426)"><path id="SvgjsPath1072" d="M 0 4Q 0 0 4 0L 139.759 0Q 143.759 0 143.759 4L 143.759 40.173Q 143.759 44.173 139.759 44.173L 4 44.173Q 0 44.173 0 40.173Z" stroke="rgba(33,41,48,1)" stroke-width="1.5" fill-opacity="1" fill="#f1ac6a"></path><g id="SvgjsG1073"><text id="SvgjsText1074" font-family="&quot;Microsoft YaHei&quot;, 微软雅黑, Arial" text-anchor="middle" font-size="18px" width="124px" fill="#fcf9ea" font-weight="400" align="middle" lineHeight="125%" anchor="middle" family="&quot;Microsoft YaHei&quot;, 微软雅黑, Arial" size="18px" weight="400" font-style="" opacity="1" y="6.336500000000001" transform="rotate(0)"><tspan id="SvgjsTspan1075" dy="22.5" x="72"><tspan id="SvgjsTspan1076" style="">Kernel</tspan></tspan></text></g></g><g id="SvgjsG1077"><path id="SvgjsPath1078" d="M359.6851477840304 201.24688279581252C 327.5454600941051 166.1186436149059 362.0454600941051 103.61864361490589 324.0014084908028 74.52434140943959" stroke="#323232" stroke-width="1.5" fill="none" marker-end="url(#SvgjsMarker1079)"></path></g><g id="SvgjsG1081"><path id="SvgjsPath1082" d="M359.6369352190759 159.28553078148423C 347.43434898299404 43.663089076602944 361.8787934274385 1.9964139328312314 176.2056237835813 36.321938449437994" stroke="#323232" stroke-width="1.5" fill="none" marker-end="url(#SvgjsMarker1083)"></path></g><g id="SvgjsG1085" transform="translate(359.71041639760324,36.7813740621643)"><path id="SvgjsPath1086" d="M 0 4Q 0 0 4 0L 139.759 0Q 143.759 0 143.759 4L 143.759 95.104Q 143.759 99.104 139.759 99.104L 4 99.104Q 0 99.104 0 95.104Z" stroke="rgba(33,41,48,1)" stroke-width="1.5" fill-opacity="1" fill="#b7eaeb"></path><g id="SvgjsG1087"><text id="SvgjsText1088" font-family="&quot;Microsoft YaHei&quot;, 微软雅黑, Arial" text-anchor="middle" font-size="13px" width="124px" fill="#323232" font-weight="400" align="middle" lineHeight="125%" anchor="middle" family="&quot;Microsoft YaHei&quot;, 微软雅黑, Arial" size="13px" weight="400" font-style="" opacity="1" y="38.927" transform="rotate(0)"></text></g></g><g id="SvgjsG1089"><path id="SvgjsPath1090" d="M174.26746336903938 108.65173612511603L234.69459196556318 125.49374056974932" stroke="#323232" stroke-width="1.5" fill="none" marker-end="url(#SvgjsMarker1091)"></path></g><g id="SvgjsG1093"><path id="SvgjsPath1094" d="M172.82470137591173 125.55513083940147L113.01353514082268 108.20268310178838" stroke="#323232" stroke-width="1.5" fill="none" marker-end="url(#SvgjsMarker1095)"></path></g><g id="SvgjsG1097"><path id="SvgjsPath1098" d="M535.3928747598006 222.3852957462399C 520.4705288653316 222.67319517296696 518.6753948389659 201.8583006603465 505.5536572027835 202.8947385965638" stroke="#323232" stroke-width="1.5" fill="none" marker-end="url(#SvgjsMarker1099)"></path></g><g id="SvgjsG1101"><path id="SvgjsPath1102" d="M535.3766106421991 222.91833676696106C 521.6176386255166 222.67319517296696 517.9371941696899 238.3073006603465 506.0211171170581 237.42479092196763" stroke="#323232" stroke-width="1.5" fill="none" marker-end="url(#SvgjsMarker1103)"></path></g><g id="SvgjsG1105"></g></svg>