<svg id="SvgjsSvg1260" width="2650.0666821797704" height="939.5492424242424" xmlns="http://www.w3.org/2000/svg" version="1.1" xmlns:xlink="http://www.w3.org/1999/xlink" xmlns:svgjs="http://svgjs.com/svgjs"><defs id="SvgjsDefs1261"><pattern patternUnits="userSpaceOnUse" id="pattern_mark_0" width="300" height="300"><text x="150" y="100" fill="rgba(229,229,229,0.8)" font-size="18" transform="rotate(-45, 150, 150)" style="dominant-baseline: middle; text-anchor: middle;"></text></pattern><pattern patternUnits="userSpaceOnUse" id="pattern_mark_1" width="300" height="300"><text x="150" y="200" fill="rgba(229,229,229,0.8)" font-size="18" transform="rotate(-45, 150, 150)" style="dominant-baseline: middle; text-anchor: middle;"></text></pattern><marker id="SvgjsMarker1313" markerWidth="16" markerHeight="16" refX="11" refY="8" viewBox="0 0 16 16" orient="auto" markerUnits="userSpaceOnUse" stroke-dasharray="0,0"><path id="SvgjsPath1314" d="M0,0 L10,8 L0,16" fill="none" stroke="#323232" stroke-width="1.5"></path></marker><marker id="SvgjsMarker1363" markerWidth="16" markerHeight="16" refX="11" refY="8" viewBox="0 0 16 16" orient="auto" markerUnits="userSpaceOnUse" stroke-dasharray="0,0"><path id="SvgjsPath1364" d="M0,0 L10,8 L0,16" fill="none" stroke="#323232" stroke-width="1.5"></path></marker><marker id="SvgjsMarker1385" markerWidth="13" markerHeight="9" refX="9.5" refY="4.5" viewBox="0 0 13 9" orient="auto" markerUnits="userSpaceOnUse" stroke-dasharray="0,0"><path id="SvgjsPath1386" d="M0,0 L13,4.5 L0,9 L0,0" fill="#323232" stroke="#323232" stroke-width="1"></path></marker><marker id="SvgjsMarker1395" markerWidth="13" markerHeight="9" refX="9.5" refY="4.5" viewBox="0 0 13 9" orient="auto" markerUnits="userSpaceOnUse" stroke-dasharray="0,0"><path id="SvgjsPath1396" d="M0,0 L13,4.5 L0,9 L0,0" fill="#323232" stroke="#323232" stroke-width="1"></path></marker><marker id="SvgjsMarker1443" markerWidth="16" markerHeight="16" refX="11" refY="8" viewBox="0 0 16 16" orient="auto" markerUnits="userSpaceOnUse" stroke-dasharray="0,0"><path id="SvgjsPath1444" d="M0,0 L10,8 L0,16" fill="none" stroke="#323232" stroke-width="1.5"></path></marker><marker id="SvgjsMarker1465" markerWidth="13" markerHeight="9" refX="9.5" refY="4.5" viewBox="0 0 13 9" orient="auto" markerUnits="userSpaceOnUse" stroke-dasharray="0,0"><path id="SvgjsPath1466" d="M0,0 L13,4.5 L0,9 L0,0" fill="#323232" stroke="#323232" stroke-width="1"></path></marker><marker id="SvgjsMarker1477" markerWidth="13" markerHeight="9" refX="9.5" refY="4.5" viewBox="0 0 13 9" orient="auto" markerUnits="userSpaceOnUse" stroke-dasharray="0,0"><path id="SvgjsPath1478" d="M0,0 L13,4.5 L0,9 L0,0" fill="#323232" stroke="#323232" stroke-width="1"></path></marker><marker id="SvgjsMarker1533" markerWidth="16" markerHeight="16" refX="11" refY="8" viewBox="0 0 16 16" orient="auto" markerUnits="userSpaceOnUse" stroke-dasharray="0,0"><path id="SvgjsPath1534" d="M0,0 L10,8 L0,16" fill="none" stroke="#323232" stroke-width="1.5"></path></marker><marker id="SvgjsMarker1545" markerWidth="13" markerHeight="9" refX="9.5" refY="4.5" viewBox="0 0 13 9" orient="auto" markerUnits="userSpaceOnUse" stroke-dasharray="0,0"><path id="SvgjsPath1546" d="M0,0 L13,4.5 L0,9 L0,0" fill="#323232" stroke="#323232" stroke-width="1"></path></marker><marker id="SvgjsMarker1557" markerWidth="13" markerHeight="9" refX="9.5" refY="4.5" viewBox="0 0 13 9" orient="auto" markerUnits="userSpaceOnUse" stroke-dasharray="0,0"><path id="SvgjsPath1558" d="M0,0 L13,4.5 L0,9 L0,0" fill="#323232" stroke="#323232" stroke-width="1"></path></marker></defs><rect id="svgbackgroundid" width="2650.0666821797704" height="939.5492424242424" fill="transparent"></rect><rect id="SvgjsRect1263" width="2650.0666821797704" height="939.5492424242424" fill="url(#pattern_mark_0)"></rect><rect id="SvgjsRect1264" width="2650.0666821797704" height="939.5492424242424" fill="url(#pattern_mark_1)"></rect><g id="SvgjsG1265" transform="translate(469.26667785644537,58.375)"><path id="SvgjsPath1266" d="M 0 35C 0 -11.667 70 -11.667 70 35C 70 81.667 0 81.667 0 35Z" stroke="rgba(255,255,255,1)" stroke-width="1.5" fill-opacity="1" fill="#000000"></path><g id="SvgjsG1267"><text id="SvgjsText1268" font-family="&quot;Microsoft YaHei&quot;, 微软雅黑, Arial" text-anchor="middle" font-size="40px" width="50px" fill="#ffffff" font-weight="400" align="middle" lineHeight="125%" anchor="middle" family="&quot;Microsoft YaHei&quot;, 微软雅黑, Arial" size="40px" weight="400" font-style="" opacity="1" y="0" transform="rotate(0)"><tspan id="SvgjsTspan1269" dy="50" x="35"><tspan id="SvgjsTspan1270" style="">9</tspan></tspan></text></g></g><g id="SvgjsG1271" transform="translate(346.26667785644537,198.375)"><path id="SvgjsPath1272" d="M 0 35C 0 -11.667 70 -11.667 70 35C 70 81.667 0 81.667 0 35Z" stroke="rgba(255,255,255,1)" stroke-width="1.5" fill-opacity="1" fill="#e60c0c"></path><g id="SvgjsG1273"><text id="SvgjsText1274" font-family="&quot;Microsoft YaHei&quot;, 微软雅黑, Arial" text-anchor="middle" font-size="40px" width="50px" fill="#ffffff" font-weight="400" align="middle" lineHeight="125%" anchor="middle" family="&quot;Microsoft YaHei&quot;, 微软雅黑, Arial" size="40px" weight="400" font-style="" opacity="1" y="0" transform="rotate(0)"><tspan id="SvgjsTspan1275" dy="50" x="35"><tspan id="SvgjsTspan1276" style="">7</tspan></tspan></text></g></g><g id="SvgjsG1277" transform="translate(222.26667785644537,330.375)"><path id="SvgjsPath1278" d="M 0 35C 0 -11.667 70 -11.667 70 35C 70 81.667 0 81.667 0 35Z" stroke="rgba(255,255,255,1)" stroke-width="1.5" fill-opacity="1" fill="#e60c0c"></path><g id="SvgjsG1279"><text id="SvgjsText1280" font-family="&quot;Microsoft YaHei&quot;, 微软雅黑, Arial" text-anchor="middle" font-size="40px" width="50px" fill="#ffffff" font-weight="400" align="middle" lineHeight="125%" anchor="middle" family="&quot;Microsoft YaHei&quot;, 微软雅黑, Arial" size="40px" weight="400" font-style="" opacity="1" y="0" transform="rotate(0)"><tspan id="SvgjsTspan1281" dy="50" x="35"><tspan id="SvgjsTspan1282" style="">2</tspan></tspan></text></g></g><g id="SvgjsG1283"><path id="SvgjsPath1284" d="M482.3418181678851 121.11342721704582L403.19153754500564 205.63657278295418" stroke="#323232" stroke-width="1.5" fill="none"></path></g><g id="SvgjsG1285"><path id="SvgjsPath1286" d="M357.06986844578785 260.41648267442633L282.9471782003377 340.6525252898744" stroke="#323232" stroke-width="1.5" fill="none"></path></g><g id="SvgjsG1287"><path id="SvgjsPath1288" d="M528.7242853026228 119.73401746154848L590.8669969482423 198.375" stroke="#323232" stroke-width="1.5" fill="none"></path></g><g id="SvgjsG1289" transform="translate(211.26667785644537,412.375)"><path id="SvgjsPath1290" d="M 0 0L 84 0L 100 16L 100 40L 0 40L 0 0Z" stroke="none" fill-opacity="1" fill="#fff7bc"></path><path id="SvgjsPath1291" d="M 84 0L 84 16L 100 16Z" stroke="none" fill-opacity="1" fill="#e4d089"></path><path id="SvgjsPath1292" d="M 0 0L 84 0L 100 16L 100 40L 0 40L 0 0Z" stroke="none" fill="none"></path><g id="SvgjsG1293"><text id="SvgjsText1294" font-family="&quot;Microsoft YaHei&quot;, 微软雅黑, Arial" text-anchor="middle" font-size="20px" width="80px" fill="#323232" font-weight="400" align="middle" lineHeight="125%" anchor="middle" family="&quot;Microsoft YaHei&quot;, 微软雅黑, Arial" size="20px" weight="400" font-style="" opacity="1" y="2" transform="rotate(0)"><tspan id="SvgjsTspan1295" dy="25" x="50"><tspan id="SvgjsTspan1296" style="">新节点</tspan></tspan></text></g></g><g id="SvgjsG1297" transform="translate(630.6000111897788,209.625)"><path id="SvgjsPath1298" d="M 0 0L 84 0L 100 16L 100 31.5L 0 31.5L 0 0Z" stroke="none" fill-opacity="1" fill="#fff7bc"></path><path id="SvgjsPath1299" d="M 84 0L 84 16L 100 16Z" stroke="none" fill-opacity="1" fill="#e4d089"></path><path id="SvgjsPath1300" d="M 0 0L 84 0L 100 16L 100 31.5L 0 31.5L 0 0Z" stroke="none" fill="none"></path><g id="SvgjsG1301"><text id="SvgjsText1302" font-family="&quot;Microsoft YaHei&quot;, 微软雅黑, Arial" text-anchor="middle" font-size="20px" width="80px" fill="#323232" font-weight="400" align="middle" lineHeight="125%" anchor="middle" family="&quot;Microsoft YaHei&quot;, 微软雅黑, Arial" size="20px" weight="400" font-style="" opacity="1" y="-2.25" transform="rotate(0)"><tspan id="SvgjsTspan1303" dy="25" x="50"><tspan id="SvgjsTspan1304" style="">它叔叔</tspan></tspan></text></g></g><g id="SvgjsG1305" transform="translate(25,328.375)"><path id="SvgjsPath1306" d="M 0 37C 0 -12.333 161.6 -12.333 161.6 37C 161.6 86.333 0 86.333 0 37Z" stroke="rgba(33,41,48,1)" stroke-width="1.5" fill-opacity="1" fill="#569230"></path><g id="SvgjsG1307"><text id="SvgjsText1308" font-family="&quot;Microsoft YaHei&quot;, 微软雅黑, Arial" text-anchor="middle" font-size="30px" width="142px" fill="#ffffff" font-weight="400" align="middle" lineHeight="125%" anchor="middle" family="&quot;Microsoft YaHei&quot;, 微软雅黑, Arial" size="30px" weight="400" font-style="" opacity="1" y="11.25" transform="rotate(0)"><tspan id="SvgjsTspan1309" dy="37.5" x="81"><tspan id="SvgjsTspan1310" style="">cur_node</tspan></tspan></text></g></g><g id="SvgjsG1311"><path id="SvgjsPath1312" d="M187.35 365.375L220.76667785644537 365.375" stroke-dasharray="7.5,3" stroke="#323232" stroke-width="1.5" fill="none" marker-end="url(#SvgjsMarker1313)"></path></g><g id="SvgjsG1315" transform="translate(1372.2666778564453,58.375)"><path id="SvgjsPath1316" d="M 0 35C 0 -11.667 70 -11.667 70 35C 70 81.667 0 81.667 0 35Z" stroke="rgba(255,255,255,1)" stroke-width="1.5" fill-opacity="1" fill="#000000"></path><g id="SvgjsG1317"><text id="SvgjsText1318" font-family="&quot;Microsoft YaHei&quot;, 微软雅黑, Arial" text-anchor="middle" font-size="40px" width="50px" fill="#ffffff" font-weight="400" align="middle" lineHeight="125%" anchor="middle" family="&quot;Microsoft YaHei&quot;, 微软雅黑, Arial" size="40px" weight="400" font-style="" opacity="1" y="0" transform="rotate(0)"><tspan id="SvgjsTspan1319" dy="50" x="35"><tspan id="SvgjsTspan1320" style="">9</tspan></tspan></text></g></g><g id="SvgjsG1321" transform="translate(1249.2666778564453,198.375)"><path id="SvgjsPath1322" d="M 0 35C 0 -11.667 70 -11.667 70 35C 70 81.667 0 81.667 0 35Z" stroke="rgba(255,255,255,1)" stroke-width="1.5" fill-opacity="1" fill="#e60c0c"></path><g id="SvgjsG1323"><text id="SvgjsText1324" font-family="&quot;Microsoft YaHei&quot;, 微软雅黑, Arial" text-anchor="middle" font-size="40px" width="50px" fill="#ffffff" font-weight="400" align="middle" lineHeight="125%" anchor="middle" family="&quot;Microsoft YaHei&quot;, 微软雅黑, Arial" size="40px" weight="400" font-style="" opacity="1" y="0" transform="rotate(0)"><tspan id="SvgjsTspan1325" dy="50" x="35"><tspan id="SvgjsTspan1326" style="">7</tspan></tspan></text></g></g><g id="SvgjsG1327" transform="translate(1125.2666778564453,330.375)"><path id="SvgjsPath1328" d="M 0 35C 0 -11.667 70 -11.667 70 35C 70 81.667 0 81.667 0 35Z" stroke="rgba(255,255,255,1)" stroke-width="1.5" fill-opacity="1" fill="#e60c0c"></path><g id="SvgjsG1329"><text id="SvgjsText1330" font-family="&quot;Microsoft YaHei&quot;, 微软雅黑, Arial" text-anchor="middle" font-size="40px" width="50px" fill="#ffffff" font-weight="400" align="middle" lineHeight="125%" anchor="middle" family="&quot;Microsoft YaHei&quot;, 微软雅黑, Arial" size="40px" weight="400" font-style="" opacity="1" y="0" transform="rotate(0)"><tspan id="SvgjsTspan1331" dy="50" x="35"><tspan id="SvgjsTspan1332" style="">2</tspan></tspan></text></g></g><g id="SvgjsG1333"><path id="SvgjsPath1334" d="M1385.3418181678849 121.11342721704582L1306.1915375450058 205.63657278295418" stroke="#323232" stroke-width="1.5" fill="none"></path></g><g id="SvgjsG1335"><path id="SvgjsPath1336" d="M1260.0698684457877 260.41648267442633L1185.9471782003377 340.6525252898744" stroke="#323232" stroke-width="1.5" fill="none"></path></g><g id="SvgjsG1337"><path id="SvgjsPath1338" d="M1431.8359068251668 119.62515750335811L1525.9414286354197 197.89540802020971" stroke="#323232" stroke-width="1.5" fill="none"></path></g><g id="SvgjsG1339" transform="translate(1114.2666778564453,412.375)"><path id="SvgjsPath1340" d="M 0 0L 84 0L 100 16L 100 40L 0 40L 0 0Z" stroke="none" fill-opacity="1" fill="#fff7bc"></path><path id="SvgjsPath1341" d="M 84 0L 84 16L 100 16Z" stroke="none" fill-opacity="1" fill="#e4d089"></path><path id="SvgjsPath1342" d="M 0 0L 84 0L 100 16L 100 40L 0 40L 0 0Z" stroke="none" fill="none"></path><g id="SvgjsG1343"><text id="SvgjsText1344" font-family="&quot;Microsoft YaHei&quot;, 微软雅黑, Arial" text-anchor="middle" font-size="20px" width="80px" fill="#323232" font-weight="400" align="middle" lineHeight="125%" anchor="middle" family="&quot;Microsoft YaHei&quot;, 微软雅黑, Arial" size="20px" weight="400" font-style="" opacity="1" y="2" transform="rotate(0)"><tspan id="SvgjsTspan1345" dy="25" x="50"><tspan id="SvgjsTspan1346" style="">新节点</tspan></tspan></text></g></g><g id="SvgjsG1347" transform="translate(1570.2666778564453,209.625)"><path id="SvgjsPath1348" d="M 0 0L 84 0L 100 16L 100 31.5L 0 31.5L 0 0Z" stroke="none" fill-opacity="1" fill="#fff7bc"></path><path id="SvgjsPath1349" d="M 84 0L 84 16L 100 16Z" stroke="none" fill-opacity="1" fill="#e4d089"></path><path id="SvgjsPath1350" d="M 0 0L 84 0L 100 16L 100 31.5L 0 31.5L 0 0Z" stroke="none" fill="none"></path><g id="SvgjsG1351"><text id="SvgjsText1352" font-family="&quot;Microsoft YaHei&quot;, 微软雅黑, Arial" text-anchor="middle" font-size="20px" width="80px" fill="#323232" font-weight="400" align="middle" lineHeight="125%" anchor="middle" family="&quot;Microsoft YaHei&quot;, 微软雅黑, Arial" size="20px" weight="400" font-style="" opacity="1" y="-2.25" transform="rotate(0)"><tspan id="SvgjsTspan1353" dy="25" x="50"><tspan id="SvgjsTspan1354" style="">它叔叔</tspan></tspan></text></g></g><g id="SvgjsG1355" transform="translate(928,328.375)"><path id="SvgjsPath1356" d="M 0 37C 0 -12.333 161.6 -12.333 161.6 37C 161.6 86.333 0 86.333 0 37Z" stroke="rgba(33,41,48,1)" stroke-width="1.5" fill-opacity="1" fill="#569230"></path><g id="SvgjsG1357"><text id="SvgjsText1358" font-family="&quot;Microsoft YaHei&quot;, 微软雅黑, Arial" text-anchor="middle" font-size="30px" width="142px" fill="#ffffff" font-weight="400" align="middle" lineHeight="125%" anchor="middle" family="&quot;Microsoft YaHei&quot;, 微软雅黑, Arial" size="30px" weight="400" font-style="" opacity="1" y="11.25" transform="rotate(0)"><tspan id="SvgjsTspan1359" dy="37.5" x="81"><tspan id="SvgjsTspan1360" style="">cur_node</tspan></tspan></text></g></g><g id="SvgjsG1361"><path id="SvgjsPath1362" d="M1090.35 365.375L1123.7666778564453 365.375" stroke-dasharray="7.5,3" stroke="#323232" stroke-width="1.5" fill="none" marker-end="url(#SvgjsMarker1363)"></path></g><g id="SvgjsG1365" transform="translate(782.0666847229004,217.625)"><path id="SvgjsPath1366" d="M 0 19.8L 213 19.8L 213 0L 243 30L 213 60L 213 40.2L 0 40.2L 0 19.8Z" stroke="rgba(33,41,48,1)" stroke-width="1.5" fill-opacity="1" fill="#ffffff"></path><g id="SvgjsG1367"><text id="SvgjsText1368" font-family="&quot;Microsoft YaHei&quot;, 微软雅黑, Arial" text-anchor="middle" font-size="13px" width="243px" fill="#323232" font-weight="400" align="middle" lineHeight="125%" anchor="middle" family="&quot;Microsoft YaHei&quot;, 微软雅黑, Arial" size="13px" weight="400" font-style="" opacity="1" y="19.375" transform="rotate(0)"></text></g></g><g id="SvgjsG1369" transform="translate(834.0666847229004,198.375)"><path id="SvgjsPath1370" d="M 0 0L 100 0L 100 40L 0 40Z" stroke="none" fill="none"></path><g id="SvgjsG1371"><text id="SvgjsText1372" font-family="&quot;Microsoft YaHei&quot;, 微软雅黑, Arial" text-anchor="middle" font-size="24px" width="100px" fill="#323232" font-weight="400" align="middle" lineHeight="125%" anchor="middle" family="&quot;Microsoft YaHei&quot;, 微软雅黑, Arial" size="24px" weight="400" font-style="" opacity="1" y="-1" transform="rotate(0)"><tspan id="SvgjsTspan1373" dy="30" x="50"><tspan id="SvgjsTspan1374" style="">旋转</tspan></tspan></text></g></g><g id="SvgjsG1375" transform="translate(1167.0666847229004,143.375)"><path id="SvgjsPath1376" d="M 0 0L 51.2 0L 51.2 65.25L 0 65.25Z" stroke="none" fill="none"></path><g id="SvgjsG1377"><text id="SvgjsText1378" font-family="&quot;Microsoft YaHei&quot;, 微软雅黑, Arial" text-anchor="middle" font-size="24px" width="52px" fill="#323232" font-weight="400" align="middle" lineHeight="125%" anchor="middle" family="&quot;Microsoft YaHei&quot;, 微软雅黑, Arial" size="24px" weight="400" font-style="" opacity="1" y="-3.375" transform="rotate(0)"><tspan id="SvgjsTspan1379" dy="30" x="26"><tspan id="SvgjsTspan1380" style="">旋转</tspan></tspan><tspan id="SvgjsTspan1381" dy="30" x="26"><tspan id="SvgjsTspan1382" style="">中心</tspan></tspan></text></g></g><g id="SvgjsG1383"><path id="SvgjsPath1384" d="M1219.2618962598924 176.09767461000695C 1240.2578304763638 176 1254.2855180372146 185.0964049715626 1264.038261507231 201.75242352527908" stroke-dasharray="1.5,2.25" stroke="#323232" stroke-width="1.5" fill="none" marker-end="url(#SvgjsMarker1385)"></path></g><g id="SvgjsG1387" transform="translate(1214.2666778564453,25)"><path id="SvgjsPath1388" d="M 0 0L 102.2 0L 102.2 40L 0 40Z" stroke="none" fill="none"></path><g id="SvgjsG1389"><text id="SvgjsText1390" font-family="&quot;Microsoft YaHei&quot;, 微软雅黑, Arial" text-anchor="middle" font-size="24px" width="103px" fill="#323232" font-weight="400" align="middle" lineHeight="125%" anchor="middle" family="&quot;Microsoft YaHei&quot;, 微软雅黑, Arial" size="24px" weight="400" font-style="" opacity="1" y="-1" transform="rotate(0)"><tspan id="SvgjsTspan1391" dy="30" x="51.5"><tspan id="SvgjsTspan1392" style="">被旋转点</tspan></tspan></text></g></g><g id="SvgjsG1393"><path id="SvgjsPath1394" d="M1317.4665775397107 45.01367083854004C 1344.970679299864 45.00000000000001 1365.3345497957587 46.12688059445699 1382.086167566708 65.77028130263083" stroke-dasharray="1.5,2.25" stroke="#323232" stroke-width="1.5" fill="none" marker-end="url(#SvgjsMarker1395)"></path></g><g id="SvgjsG1397" transform="translate(1374.7666778564453,734.375)"><path id="SvgjsPath1398" d="M 0 35C 0 -11.667 70 -11.667 70 35C 70 81.667 0 81.667 0 35Z" stroke="rgba(255,255,255,1)" stroke-width="1.5" fill-opacity="1" fill="#000000"></path><g id="SvgjsG1399"><text id="SvgjsText1400" font-family="&quot;Microsoft YaHei&quot;, 微软雅黑, Arial" text-anchor="middle" font-size="40px" width="50px" fill="#ffffff" font-weight="400" align="middle" lineHeight="125%" anchor="middle" family="&quot;Microsoft YaHei&quot;, 微软雅黑, Arial" size="40px" weight="400" font-style="" opacity="1" y="0" transform="rotate(0)"><tspan id="SvgjsTspan1401" dy="50" x="35"><tspan id="SvgjsTspan1402" style="">9</tspan></tspan></text></g></g><g id="SvgjsG1403" transform="translate(1249.2666778564453,602.375)"><path id="SvgjsPath1404" d="M 0 35C 0 -11.667 70 -11.667 70 35C 70 81.667 0 81.667 0 35Z" stroke="rgba(255,255,255,1)" stroke-width="1.5" fill-opacity="1" fill="#e60c0c"></path><g id="SvgjsG1405"><text id="SvgjsText1406" font-family="&quot;Microsoft YaHei&quot;, 微软雅黑, Arial" text-anchor="middle" font-size="40px" width="50px" fill="#ffffff" font-weight="400" align="middle" lineHeight="125%" anchor="middle" family="&quot;Microsoft YaHei&quot;, 微软雅黑, Arial" size="40px" weight="400" font-style="" opacity="1" y="0" transform="rotate(0)"><tspan id="SvgjsTspan1407" dy="50" x="35"><tspan id="SvgjsTspan1408" style="">7</tspan></tspan></text></g></g><g id="SvgjsG1409" transform="translate(1125.2666778564453,734.375)"><path id="SvgjsPath1410" d="M 0 35C 0 -11.667 70 -11.667 70 35C 70 81.667 0 81.667 0 35Z" stroke="rgba(255,255,255,1)" stroke-width="1.5" fill-opacity="1" fill="#e60c0c"></path><g id="SvgjsG1411"><text id="SvgjsText1412" font-family="&quot;Microsoft YaHei&quot;, 微软雅黑, Arial" text-anchor="middle" font-size="40px" width="50px" fill="#ffffff" font-weight="400" align="middle" lineHeight="125%" anchor="middle" family="&quot;Microsoft YaHei&quot;, 微软雅黑, Arial" size="40px" weight="400" font-style="" opacity="1" y="0" transform="rotate(0)"><tspan id="SvgjsTspan1413" dy="50" x="35"><tspan id="SvgjsTspan1414" style="">2</tspan></tspan></text></g></g><g id="SvgjsG1415"><path id="SvgjsPath1416" d="M1260.0698684457877 664.4164826744263L1185.9471782003382 744.6525252898743" stroke="#323232" stroke-width="1.5" fill="none"></path></g><g id="SvgjsG1417"><path id="SvgjsPath1418" d="M1434.2453166472053 795.7167697307494L1485.3726255028344 855.8037957928184" stroke="#323232" stroke-width="1.5" fill="none"></path></g><g id="SvgjsG1419" transform="translate(1114.2666778564453,816.375)"><path id="SvgjsPath1420" d="M 0 0L 84 0L 100 16L 100 40L 0 40L 0 0Z" stroke="none" fill-opacity="1" fill="#fff7bc"></path><path id="SvgjsPath1421" d="M 84 0L 84 16L 100 16Z" stroke="none" fill-opacity="1" fill="#e4d089"></path><path id="SvgjsPath1422" d="M 0 0L 84 0L 100 16L 100 40L 0 40L 0 0Z" stroke="none" fill="none"></path><g id="SvgjsG1423"><text id="SvgjsText1424" font-family="&quot;Microsoft YaHei&quot;, 微软雅黑, Arial" text-anchor="middle" font-size="20px" width="80px" fill="#323232" font-weight="400" align="middle" lineHeight="125%" anchor="middle" family="&quot;Microsoft YaHei&quot;, 微软雅黑, Arial" size="20px" weight="400" font-style="" opacity="1" y="2" transform="rotate(0)"><tspan id="SvgjsTspan1425" dy="25" x="50"><tspan id="SvgjsTspan1426" style="">新节点</tspan></tspan></text></g></g><g id="SvgjsG1427" transform="translate(1526.116714477539,857.2083384195964)"><path id="SvgjsPath1428" d="M 0 0L 128.15 0L 144.15 16L 144.15 49L 0 49L 0 0Z" stroke="none" fill-opacity="1" fill="#fff7bc"></path><path id="SvgjsPath1429" d="M 128.15 0L 128.15 16L 144.15 16Z" stroke="none" fill-opacity="1" fill="#e4d089"></path><path id="SvgjsPath1430" d="M 0 0L 128.15 0L 144.15 16L 144.15 49L 0 49L 0 0Z" stroke="none" fill="none"></path><g id="SvgjsG1431"><text id="SvgjsText1432" font-family="&quot;Microsoft YaHei&quot;, 微软雅黑, Arial" text-anchor="middle" font-size="20px" width="125px" fill="#323232" font-weight="400" align="middle" lineHeight="125%" anchor="middle" family="&quot;Microsoft YaHei&quot;, 微软雅黑, Arial" size="20px" weight="400" font-style="" opacity="1" y="6.5" transform="rotate(0)"><tspan id="SvgjsTspan1433" dy="25" x="72.5"><tspan id="SvgjsTspan1434" style="">原来的叔叔</tspan></tspan></text></g></g><g id="SvgjsG1435" transform="translate(928,732.375)"><path id="SvgjsPath1436" d="M 0 37C 0 -12.333 161.6 -12.333 161.6 37C 161.6 86.333 0 86.333 0 37Z" stroke="rgba(33,41,48,1)" stroke-width="1.5" fill-opacity="1" fill="#569230"></path><g id="SvgjsG1437"><text id="SvgjsText1438" font-family="&quot;Microsoft YaHei&quot;, 微软雅黑, Arial" text-anchor="middle" font-size="30px" width="142px" fill="#ffffff" font-weight="400" align="middle" lineHeight="125%" anchor="middle" family="&quot;Microsoft YaHei&quot;, 微软雅黑, Arial" size="30px" weight="400" font-style="" opacity="1" y="11.25" transform="rotate(0)"><tspan id="SvgjsTspan1439" dy="37.5" x="81"><tspan id="SvgjsTspan1440" style="">cur_node</tspan></tspan></text></g></g><g id="SvgjsG1441"><path id="SvgjsPath1442" d="M1090.35 769.375L1123.7666778564453 769.375" stroke-dasharray="7.5,3" stroke="#323232" stroke-width="1.5" fill="none" marker-end="url(#SvgjsMarker1443)"></path></g><g id="SvgjsG1445" transform="matrix(6.123233995736766e-17,1,-1,6.123233995736766e-17,1414.6510009765625,328.671875)"><path id="SvgjsPath1446" d="M 0 19.8L 91.938 19.8L 91.938 0L 121.938 30L 91.938 60L 91.938 40.2L 0 40.2L 0 19.8Z" stroke="rgba(33,41,48,1)" stroke-width="1.5" fill-opacity="1" fill="#ffffff"></path><g id="SvgjsG1447"><text id="SvgjsText1448" font-family="&quot;Microsoft YaHei&quot;, 微软雅黑, Arial" text-anchor="middle" font-size="13px" width="122px" fill="#323232" font-weight="400" align="middle" lineHeight="125%" anchor="middle" family="&quot;Microsoft YaHei&quot;, 微软雅黑, Arial" size="13px" weight="400" font-style="" opacity="1" y="19.375" transform="rotate(0)"></text></g></g><g id="SvgjsG1449" transform="translate(1395.8510494232178,357.359375)"><path id="SvgjsPath1450" d="M 0 0L 100 0L 100 40L 0 40Z" stroke="none" fill="none"></path><g id="SvgjsG1451"><text id="SvgjsText1452" font-family="&quot;Microsoft YaHei&quot;, 微软雅黑, Arial" text-anchor="middle" font-size="24px" width="100px" fill="#323232" font-weight="400" align="middle" lineHeight="125%" anchor="middle" family="&quot;Microsoft YaHei&quot;, 微软雅黑, Arial" size="24px" weight="400" font-style="" opacity="1" y="-1" transform="rotate(0)"><tspan id="SvgjsTspan1453" dy="30" x="50"><tspan id="SvgjsTspan1454" style="">旋转</tspan></tspan></text></g></g><g id="SvgjsG1455" transform="translate(1167.0666847229004,547.375)"><path id="SvgjsPath1456" d="M 0 0L 51.2 0L 51.2 65.25L 0 65.25Z" stroke="none" fill="none"></path><g id="SvgjsG1457"><text id="SvgjsText1458" font-family="&quot;Microsoft YaHei&quot;, 微软雅黑, Arial" text-anchor="middle" font-size="24px" width="52px" fill="#323232" font-weight="400" align="middle" lineHeight="125%" anchor="middle" family="&quot;Microsoft YaHei&quot;, 微软雅黑, Arial" size="24px" weight="400" font-style="" opacity="1" y="-3.375" transform="rotate(0)"><tspan id="SvgjsTspan1459" dy="30" x="26"><tspan id="SvgjsTspan1460" style="">旋转</tspan></tspan><tspan id="SvgjsTspan1461" dy="30" x="26"><tspan id="SvgjsTspan1462" style="">中心</tspan></tspan></text></g></g><g id="SvgjsG1463"><path id="SvgjsPath1464" d="M1219.2618962598924 580.097674610007C 1240.2578304763638 580 1254.2855180372144 589.0964049715626 1264.038261507231 605.752423525279" stroke-dasharray="1.5,2.25" stroke="#323232" stroke-width="1.5" fill="none" marker-end="url(#SvgjsMarker1465)"></path></g><g id="SvgjsG1467" transform="translate(1510.7666778564453,632.375)"><path id="SvgjsPath1468" d="M 0 0L 102.2 0L 102.2 40L 0 40Z" stroke="none" fill="none"></path><g id="SvgjsG1469"><text id="SvgjsText1470" font-family="&quot;Microsoft YaHei&quot;, 微软雅黑, Arial" text-anchor="middle" font-size="24px" width="103px" fill="#323232" font-weight="400" align="middle" lineHeight="125%" anchor="middle" family="&quot;Microsoft YaHei&quot;, 微软雅黑, Arial" size="24px" weight="400" font-style="" opacity="1" y="-1" transform="rotate(0)"><tspan id="SvgjsTspan1471" dy="30" x="51.5"><tspan id="SvgjsTspan1472" style="">被旋转点</tspan></tspan></text></g></g><g id="SvgjsG1473"><path id="SvgjsPath1474" d="M1308.3996838545659 663.9813332949025L1382.4197989012987 746.388178746529" stroke="#323232" stroke-width="1.5" fill="none"></path></g><g id="SvgjsG1475"><path id="SvgjsPath1476" d="M1509.7762478853883 652.5130162035131C 1462.760986798522 652.375 1472.3423293263677 714.848991967511 1437.954202407798 744.3696806404796" stroke-dasharray="1.5,2.25" stroke="#323232" stroke-width="1.5" fill="none" marker-end="url(#SvgjsMarker1477)"></path></g><g id="SvgjsG1479" transform="translate(1455.191656112671,740.6250038146973)"><path id="SvgjsPath1480" d="M 0 0L 154.925 0L 170.925 16L 170.925 49L 0 49L 0 0Z" stroke="none" fill-opacity="1" fill="#fff7bc"></path><path id="SvgjsPath1481" d="M 154.925 0L 154.925 16L 170.925 16Z" stroke="none" fill-opacity="1" fill="#e4d089"></path><path id="SvgjsPath1482" d="M 0 0L 154.925 0L 170.925 16L 170.925 49L 0 49L 0 0Z" stroke="none" fill="none"></path><g id="SvgjsG1483"><text id="SvgjsText1484" font-family="&quot;Microsoft YaHei&quot;, 微软雅黑, Arial" text-anchor="middle" font-size="20px" width="151px" fill="#323232" font-weight="400" align="middle" lineHeight="125%" anchor="middle" family="&quot;Microsoft YaHei&quot;, 微软雅黑, Arial" size="20px" weight="400" font-style="" opacity="1" y="6.5" transform="rotate(0)"><tspan id="SvgjsTspan1485" dy="25" x="85.5"><tspan id="SvgjsTspan1486" style="">原来的爷爷节点</tspan></tspan></text></g></g><g id="SvgjsG1487" transform="translate(2364.5666821797704,741.7992424242424)"><path id="SvgjsPath1488" d="M 0 35C 0 -11.667 70 -11.667 70 35C 70 81.667 0 81.667 0 35Z" stroke="rgba(255,255,255,1)" stroke-width="1.5" fill-opacity="1" fill="#e60c0c"></path><g id="SvgjsG1489"><text id="SvgjsText1490" font-family="&quot;Microsoft YaHei&quot;, 微软雅黑, Arial" text-anchor="middle" font-size="40px" width="50px" fill="#ffffff" font-weight="400" align="middle" lineHeight="125%" anchor="middle" family="&quot;Microsoft YaHei&quot;, 微软雅黑, Arial" size="40px" weight="400" font-style="" opacity="1" y="0" transform="rotate(0)"><tspan id="SvgjsTspan1491" dy="50" x="35"><tspan id="SvgjsTspan1492" style="">9</tspan></tspan></text></g></g><g id="SvgjsG1493" transform="translate(2239.0666821797713,609.7992424242424)"><path id="SvgjsPath1494" d="M 0 35C 0 -11.667 70 -11.667 70 35C 70 81.667 0 81.667 0 35Z" stroke="rgba(255,255,255,1)" stroke-width="1.5" fill-opacity="1" fill="#000000"></path><g id="SvgjsG1495"><text id="SvgjsText1496" font-family="&quot;Microsoft YaHei&quot;, 微软雅黑, Arial" text-anchor="middle" font-size="40px" width="50px" fill="#ffffff" font-weight="400" align="middle" lineHeight="125%" anchor="middle" family="&quot;Microsoft YaHei&quot;, 微软雅黑, Arial" size="40px" weight="400" font-style="" opacity="1" y="0" transform="rotate(0)"><tspan id="SvgjsTspan1497" dy="50" x="35"><tspan id="SvgjsTspan1498" style="">7</tspan></tspan></text></g></g><g id="SvgjsG1499" transform="translate(2115.0666821797695,741.7992424242424)"><path id="SvgjsPath1500" d="M 0 35C 0 -11.667 70 -11.667 70 35C 70 81.667 0 81.667 0 35Z" stroke="rgba(255,255,255,1)" stroke-width="1.5" fill-opacity="1" fill="#e60c0c"></path><g id="SvgjsG1501"><text id="SvgjsText1502" font-family="&quot;Microsoft YaHei&quot;, 微软雅黑, Arial" text-anchor="middle" font-size="40px" width="50px" fill="#ffffff" font-weight="400" align="middle" lineHeight="125%" anchor="middle" family="&quot;Microsoft YaHei&quot;, 微软雅黑, Arial" size="40px" weight="400" font-style="" opacity="1" y="0" transform="rotate(0)"><tspan id="SvgjsTspan1503" dy="50" x="35"><tspan id="SvgjsTspan1504" style="">2</tspan></tspan></text></g></g><g id="SvgjsG1505"><path id="SvgjsPath1506" d="M2249.869872769114 671.8407250986687L2175.747182523662 752.0767677141167" stroke="#323232" stroke-width="1.5" fill="none"></path></g><g id="SvgjsG1507"><path id="SvgjsPath1508" d="M2424.0864826759675 803.1032573481439L2480.331463797397 860.0157930239087" stroke="#323232" stroke-width="1.5" fill="none"></path></g><g id="SvgjsG1509" transform="translate(2104.0666821797695,823.7992424242424)"><path id="SvgjsPath1510" d="M 0 0L 84 0L 100 16L 100 40L 0 40L 0 0Z" stroke="none" fill-opacity="1" fill="#fff7bc"></path><path id="SvgjsPath1511" d="M 84 0L 84 16L 100 16Z" stroke="none" fill-opacity="1" fill="#e4d089"></path><path id="SvgjsPath1512" d="M 0 0L 84 0L 100 16L 100 40L 0 40L 0 0Z" stroke="none" fill="none"></path><g id="SvgjsG1513"><text id="SvgjsText1514" font-family="&quot;Microsoft YaHei&quot;, 微软雅黑, Arial" text-anchor="middle" font-size="20px" width="80px" fill="#323232" font-weight="400" align="middle" lineHeight="125%" anchor="middle" family="&quot;Microsoft YaHei&quot;, 微软雅黑, Arial" size="20px" weight="400" font-style="" opacity="1" y="2" transform="rotate(0)"><tspan id="SvgjsTspan1515" dy="25" x="50"><tspan id="SvgjsTspan1516" style="">新节点</tspan></tspan></text></g></g><g id="SvgjsG1517" transform="translate(2525.0666821797704,871.7992424242424)"><path id="SvgjsPath1518" d="M 0 0L 84 0L 100 16L 100 31.5L 0 31.5L 0 0Z" stroke="none" fill-opacity="1" fill="#fff7bc"></path><path id="SvgjsPath1519" d="M 84 0L 84 16L 100 16Z" stroke="none" fill-opacity="1" fill="#e4d089"></path><path id="SvgjsPath1520" d="M 0 0L 84 0L 100 16L 100 31.5L 0 31.5L 0 0Z" stroke="none" fill="none"></path><g id="SvgjsG1521"><text id="SvgjsText1522" font-family="&quot;Microsoft YaHei&quot;, 微软雅黑, Arial" text-anchor="middle" font-size="20px" width="80px" fill="#323232" font-weight="400" align="middle" lineHeight="125%" anchor="middle" family="&quot;Microsoft YaHei&quot;, 微软雅黑, Arial" size="20px" weight="400" font-style="" opacity="1" y="-2.25" transform="rotate(0)"><tspan id="SvgjsTspan1523" dy="25" x="50"><tspan id="SvgjsTspan1524" style="">它叔叔</tspan></tspan></text></g></g><g id="SvgjsG1525" transform="translate(1917.8000043233237,739.7992424242424)"><path id="SvgjsPath1526" d="M 0 37C 0 -12.333 161.6 -12.333 161.6 37C 161.6 86.333 0 86.333 0 37Z" stroke="rgba(33,41,48,1)" stroke-width="1.5" fill-opacity="1" fill="#569230"></path><g id="SvgjsG1527"><text id="SvgjsText1528" font-family="&quot;Microsoft YaHei&quot;, 微软雅黑, Arial" text-anchor="middle" font-size="30px" width="142px" fill="#ffffff" font-weight="400" align="middle" lineHeight="125%" anchor="middle" family="&quot;Microsoft YaHei&quot;, 微软雅黑, Arial" size="30px" weight="400" font-style="" opacity="1" y="11.25" transform="rotate(0)"><tspan id="SvgjsTspan1529" dy="37.5" x="81"><tspan id="SvgjsTspan1530" style="">cur_node</tspan></tspan></text></g></g><g id="SvgjsG1531"><path id="SvgjsPath1532" d="M2080.1500043233236 776.7992424242424L2113.5666821797695 776.7992424242424" stroke-dasharray="7.5,3" stroke="#323232" stroke-width="1.5" fill="none" marker-end="url(#SvgjsMarker1533)"></path></g><g id="SvgjsG1535" transform="translate(2156.8666890462246,554.7992424242424)"><path id="SvgjsPath1536" d="M 0 0L 51.2 0L 51.2 65.25L 0 65.25Z" stroke="none" fill="none"></path><g id="SvgjsG1537"><text id="SvgjsText1538" font-family="&quot;Microsoft YaHei&quot;, 微软雅黑, Arial" text-anchor="middle" font-size="24px" width="52px" fill="#323232" font-weight="400" align="middle" lineHeight="125%" anchor="middle" family="&quot;Microsoft YaHei&quot;, 微软雅黑, Arial" size="24px" weight="400" font-style="" opacity="1" y="-3.375" transform="rotate(0)"><tspan id="SvgjsTspan1539" dy="30" x="26"><tspan id="SvgjsTspan1540" style="">旋转</tspan></tspan><tspan id="SvgjsTspan1541" dy="30" x="26"><tspan id="SvgjsTspan1542" style="">中心</tspan></tspan></text></g></g><g id="SvgjsG1543"><path id="SvgjsPath1544" d="M2209.061900583217 587.5219170342493C 2230.0578347996898 587.4242424242424 2244.0855223605404 596.520647395805 2253.8382658305563 613.1766659495214" stroke-dasharray="1.5,2.25" stroke="#323232" stroke-width="1.5" fill="none" marker-end="url(#SvgjsMarker1545)"></path></g><g id="SvgjsG1547" transform="translate(2500.5666821797704,639.7992424242424)"><path id="SvgjsPath1548" d="M 0 0L 102.2 0L 102.2 40L 0 40Z" stroke="none" fill="none"></path><g id="SvgjsG1549"><text id="SvgjsText1550" font-family="&quot;Microsoft YaHei&quot;, 微软雅黑, Arial" text-anchor="middle" font-size="24px" width="103px" fill="#323232" font-weight="400" align="middle" lineHeight="125%" anchor="middle" family="&quot;Microsoft YaHei&quot;, 微软雅黑, Arial" size="24px" weight="400" font-style="" opacity="1" y="-1" transform="rotate(0)"><tspan id="SvgjsTspan1551" dy="30" x="51.5"><tspan id="SvgjsTspan1552" style="">被旋转点</tspan></tspan></text></g></g><g id="SvgjsG1553"><path id="SvgjsPath1554" d="M2298.199688177892 671.4055757191448L2372.219803224624 753.8124211707714" stroke="#323232" stroke-width="1.5" fill="none"></path></g><g id="SvgjsG1555"><path id="SvgjsPath1556" d="M2499.5762522087134 659.9372586277555C 2452.560991121847 659.7992424242424 2462.142333649693 722.2732343917534 2427.754206731123 751.793923064722" stroke-dasharray="1.5,2.25" stroke="#323232" stroke-width="1.5" fill="none" marker-end="url(#SvgjsMarker1557)"></path></g><g id="SvgjsG1559" transform="translate(2444.991660435996,749.7992424242424)"><path id="SvgjsPath1560" d="M 0 0L 154.925 0L 170.925 16L 170.925 45.5L 0 45.5L 0 0Z" stroke="none" fill-opacity="1" fill="#fff7bc"></path><path id="SvgjsPath1561" d="M 154.925 0L 154.925 16L 170.925 16Z" stroke="none" fill-opacity="1" fill="#e4d089"></path><path id="SvgjsPath1562" d="M 0 0L 154.925 0L 170.925 16L 170.925 45.5L 0 45.5L 0 0Z" stroke="none" fill="none"></path><g id="SvgjsG1563"><text id="SvgjsText1564" font-family="&quot;Microsoft YaHei&quot;, 微软雅黑, Arial" text-anchor="middle" font-size="20px" width="151px" fill="#323232" font-weight="400" align="middle" lineHeight="125%" anchor="middle" family="&quot;Microsoft YaHei&quot;, 微软雅黑, Arial" size="20px" weight="400" font-style="" opacity="1" y="4.75" transform="rotate(0)"><tspan id="SvgjsTspan1565" dy="25" x="85.5"><tspan id="SvgjsTspan1566" style="">原来的祖父节点</tspan></tspan></text></g></g><g id="SvgjsG1567" transform="translate(1660.2666778564453,744.7500038146973)"><path id="SvgjsPath1568" d="M 0 19.8L 186.933 19.8L 186.933 0L 216.933 30L 186.933 60L 186.933 40.2L 0 40.2L 0 19.8Z" stroke="rgba(33,41,48,1)" stroke-width="1.5" fill-opacity="1" fill="#ffffff"></path><g id="SvgjsG1569"><text id="SvgjsText1570" font-family="&quot;Microsoft YaHei&quot;, 微软雅黑, Arial" text-anchor="middle" font-size="13px" width="217px" fill="#323232" font-weight="400" align="middle" lineHeight="125%" anchor="middle" family="&quot;Microsoft YaHei&quot;, 微软雅黑, Arial" size="13px" weight="400" font-style="" opacity="1" y="19.375" transform="rotate(0)"></text></g></g><g id="SvgjsG1571" transform="translate(1710.6000111897786,725.5000038146973)"><path id="SvgjsPath1572" d="M 0 0L 100 0L 100 40L 0 40Z" stroke="none" fill="none"></path><g id="SvgjsG1573"><text id="SvgjsText1574" font-family="&quot;Microsoft YaHei&quot;, 微软雅黑, Arial" text-anchor="middle" font-size="24px" width="100px" fill="#323232" font-weight="400" align="middle" lineHeight="125%" anchor="middle" family="&quot;Microsoft YaHei&quot;, 微软雅黑, Arial" size="24px" weight="400" font-style="" opacity="1" y="-1" transform="rotate(0)"><tspan id="SvgjsTspan1575" dy="30" x="50"><tspan id="SvgjsTspan1576" style="">变色</tspan></tspan></text></g></g><g id="SvgjsG1577" transform="translate(2325.916718800864,517.7992627692945)"><path id="SvgjsPath1578" d="M 0 0L 290 0L 290 68.667L 0 68.667Z" stroke="none" fill="none"></path><g id="SvgjsG1579"><text id="SvgjsText1580" font-family="&quot;Microsoft YaHei&quot;, 微软雅黑, Arial" text-anchor="middle" font-size="24px" width="290px" fill="#4669ea" font-weight="700" align="middle" lineHeight="125%" anchor="middle" family="&quot;Microsoft YaHei&quot;, 微软雅黑, Arial" size="24px" weight="700" font-style="" opacity="1" y="13.3335" transform="rotate(0)"><tspan id="SvgjsTspan1581" dy="30" x="145"><tspan id="SvgjsTspan1582" style="">旋转中心和被旋转点变色</tspan></tspan></text></g></g><g id="SvgjsG1583" transform="translate(560.1999969482422,198.375)"><path id="SvgjsPath1584" d="M 0 4Q 0 0 4 0L 57.333 0Q 61.333 0 61.333 4L 61.333 50Q 61.333 54 57.333 54L 4 54Q 0 54 0 50Z" stroke="rgba(33,41,48,1)" stroke-width="1.5" fill-opacity="1" fill="#000000"></path><g id="SvgjsG1585"><text id="SvgjsText1586" font-family="&quot;Microsoft YaHei&quot;, 微软雅黑, Arial" text-anchor="middle" font-size="13px" width="42px" fill="#323232" font-weight="400" align="middle" lineHeight="125%" anchor="middle" family="&quot;Microsoft YaHei&quot;, 微软雅黑, Arial" size="13px" weight="400" font-style="" opacity="1" y="16.375" transform="rotate(0)"></text></g></g><g id="SvgjsG1587" transform="translate(1495.8510494232178,198.375)"><path id="SvgjsPath1588" d="M 0 4Q 0 0 4 0L 57.333 0Q 61.333 0 61.333 4L 61.333 50Q 61.333 54 57.333 54L 4 54Q 0 54 0 50Z" stroke="rgba(33,41,48,1)" stroke-width="1.5" fill-opacity="1" fill="#000000"></path><g id="SvgjsG1589"><text id="SvgjsText1590" font-family="&quot;Microsoft YaHei&quot;, 微软雅黑, Arial" text-anchor="middle" font-size="13px" width="42px" fill="#323232" font-weight="400" align="middle" lineHeight="125%" anchor="middle" family="&quot;Microsoft YaHei&quot;, 微软雅黑, Arial" size="13px" weight="400" font-style="" opacity="1" y="16.375" transform="rotate(0)"></text></g></g><g id="SvgjsG1591" transform="translate(1455.191656112671,856.375)"><path id="SvgjsPath1592" d="M 0 4Q 0 0 4 0L 57.333 0Q 61.333 0 61.333 4L 61.333 50Q 61.333 54 57.333 54L 4 54Q 0 54 0 50Z" stroke="rgba(33,41,48,1)" stroke-width="1.5" fill-opacity="1" fill="#000000"></path><g id="SvgjsG1593"><text id="SvgjsText1594" font-family="&quot;Microsoft YaHei&quot;, 微软雅黑, Arial" text-anchor="middle" font-size="13px" width="42px" fill="#323232" font-weight="400" align="middle" lineHeight="125%" anchor="middle" family="&quot;Microsoft YaHei&quot;, 微软雅黑, Arial" size="13px" weight="400" font-style="" opacity="1" y="16.375" transform="rotate(0)"></text></g></g><g id="SvgjsG1595" transform="translate(2450.191656112671,860.5492424242424)"><path id="SvgjsPath1596" d="M 0 4Q 0 0 4 0L 57.333 0Q 61.333 0 61.333 4L 61.333 50Q 61.333 54 57.333 54L 4 54Q 0 54 0 50Z" stroke="rgba(33,41,48,1)" stroke-width="1.5" fill-opacity="1" fill="#000000"></path><g id="SvgjsG1597"><text id="SvgjsText1598" font-family="&quot;Microsoft YaHei&quot;, 微软雅黑, Arial" text-anchor="middle" font-size="13px" width="42px" fill="#323232" font-weight="400" align="middle" lineHeight="125%" anchor="middle" family="&quot;Microsoft YaHei&quot;, 微软雅黑, Arial" size="13px" weight="400" font-style="" opacity="1" y="16.375" transform="rotate(0)"></text></g></g><g id="SvgjsG1599"></g></svg>