<svg id="SvgjsSvg1310" width="1682.9021327621094" height="891.836139370399" xmlns="http://www.w3.org/2000/svg" version="1.1" xmlns:xlink="http://www.w3.org/1999/xlink" xmlns:svgjs="http://svgjs.com/svgjs"><defs id="SvgjsDefs1311"><pattern patternUnits="userSpaceOnUse" id="pattern_mark_0" width="300" height="300"><text x="150" y="100" fill="rgba(229,229,229,0.8)" font-size="18" transform="rotate(-45, 150, 150)" style="dominant-baseline: middle; text-anchor: middle;"></text></pattern><pattern patternUnits="userSpaceOnUse" id="pattern_mark_1" width="300" height="300"><text x="150" y="200" fill="rgba(229,229,229,0.8)" font-size="18" transform="rotate(-45, 150, 150)" style="dominant-baseline: middle; text-anchor: middle;"></text></pattern><marker id="SvgjsMarker1357" markerWidth="13" markerHeight="9" refX="9.5" refY="4.5" viewBox="0 0 13 9" orient="auto" markerUnits="userSpaceOnUse" stroke-dasharray="0,0"><path id="SvgjsPath1358" d="M0,0 L13,4.5 L0,9 L0,0" fill="#323232" stroke="#323232" stroke-width="1"></path></marker><marker id="SvgjsMarker1509" markerWidth="13" markerHeight="9" refX="9.5" refY="4.5" viewBox="0 0 13 9" orient="auto" markerUnits="userSpaceOnUse" stroke-dasharray="0,0"><path id="SvgjsPath1510" d="M0,0 L13,4.5 L0,9 L0,0" fill="#323232" stroke="#323232" stroke-width="1"></path></marker><marker id="SvgjsMarker1519" markerWidth="13" markerHeight="9" refX="9.5" refY="4.5" viewBox="0 0 13 9" orient="auto" markerUnits="userSpaceOnUse" stroke-dasharray="0,0"><path id="SvgjsPath1520" d="M0,0 L13,4.5 L0,9 L0,0" fill="#323232" stroke="#323232" stroke-width="1"></path></marker><marker id="SvgjsMarker1529" markerWidth="13" markerHeight="9" refX="9.5" refY="4.5" viewBox="0 0 13 9" orient="auto" markerUnits="userSpaceOnUse" stroke-dasharray="0,0"><path id="SvgjsPath1530" d="M0,0 L13,4.5 L0,9 L0,0" fill="#323232" stroke="#323232" stroke-width="1"></path></marker><marker id="SvgjsMarker1583" markerWidth="13" markerHeight="9" refX="9.5" refY="4.5" viewBox="0 0 13 9" orient="auto" markerUnits="userSpaceOnUse" stroke-dasharray="0,0"><path id="SvgjsPath1584" d="M0,0 L13,4.5 L0,9 L0,0" fill="#323232" stroke="#323232" stroke-width="1"></path></marker><marker id="SvgjsMarker1593" markerWidth="13" markerHeight="9" refX="9.5" refY="4.5" viewBox="0 0 13 9" orient="auto" markerUnits="userSpaceOnUse" stroke-dasharray="0,0"><path id="SvgjsPath1594" d="M0,0 L13,4.5 L0,9 L0,0" fill="#323232" stroke="#323232" stroke-width="1"></path></marker></defs><rect id="svgbackgroundid" width="1682.9021327621094" height="891.836139370399" fill="transparent"></rect><rect id="SvgjsRect1313" width="1682.9021327621094" height="891.836139370399" fill="url(#pattern_mark_0)"></rect><rect id="SvgjsRect1314" width="1682.9021327621094" height="891.836139370399" fill="url(#pattern_mark_1)"></rect><g id="SvgjsG1315" transform="translate(189,25)"><path id="SvgjsPath1316" d="M 0 35C 0 -11.667 70 -11.667 70 35C 70 81.667 0 81.667 0 35Z" stroke="rgba(255,255,255,1)" stroke-width="1.5" fill-opacity="1" fill="#000000"></path><g id="SvgjsG1317"><text id="SvgjsText1318" font-family="&quot;Microsoft YaHei&quot;, 微软雅黑, Arial" text-anchor="middle" font-size="30px" width="50px" fill="#ffffff" font-weight="400" align="middle" lineHeight="125%" anchor="middle" family="&quot;Microsoft YaHei&quot;, 微软雅黑, Arial" size="30px" weight="400" font-style="" opacity="1" y="9.25" transform="rotate(0)"><tspan id="SvgjsTspan1319" dy="37.5" x="35"><tspan id="SvgjsTspan1320" style="">7</tspan></tspan></text></g></g><g id="SvgjsG1321" transform="translate(88,142)"><path id="SvgjsPath1322" d="M 0 35C 0 -11.667 70 -11.667 70 35C 70 81.667 0 81.667 0 35Z" stroke="rgba(255,255,255,1)" stroke-width="1.5" fill-opacity="1" fill="#e60c0c"></path><g id="SvgjsG1323"><text id="SvgjsText1324" font-family="&quot;Microsoft YaHei&quot;, 微软雅黑, Arial" text-anchor="middle" font-size="30px" width="50px" fill="#ffffff" font-weight="400" align="middle" lineHeight="125%" anchor="middle" family="&quot;Microsoft YaHei&quot;, 微软雅黑, Arial" size="30px" weight="400" font-style="" opacity="1" y="9.25" transform="rotate(0)"><tspan id="SvgjsTspan1325" dy="37.5" x="35"><tspan id="SvgjsTspan1326" style="">3</tspan></tspan></text></g></g><g id="SvgjsG1327" transform="translate(189,267)"><path id="SvgjsPath1328" d="M 0 35C 0 -11.667 70 -11.667 70 35C 70 81.667 0 81.667 0 35Z" stroke="rgba(255,255,255,1)" stroke-width="1.5" fill-opacity="1" fill="#e60c0c"></path><g id="SvgjsG1329"><text id="SvgjsText1330" font-family="&quot;Microsoft YaHei&quot;, 微软雅黑, Arial" text-anchor="middle" font-size="30px" width="50px" fill="#ffffff" font-weight="400" align="middle" lineHeight="125%" anchor="middle" family="&quot;Microsoft YaHei&quot;, 微软雅黑, Arial" size="30px" weight="400" font-style="" opacity="1" y="9.25" transform="rotate(0)"><tspan id="SvgjsTspan1331" dy="37.5" x="35"><tspan id="SvgjsTspan1332" style="">5</tspan></tspan></text></g></g><g id="SvgjsG1333" transform="translate(25,267)"><path id="SvgjsPath1334" d="M 0 35C 0 -11.667 133 -11.667 133 35C 133 81.667 0 81.667 0 35Z" stroke="rgba(255,255,255,1)" stroke-width="1.5" fill-opacity="1" fill="#7bd144"></path><g id="SvgjsG1335"><text id="SvgjsText1336" font-family="&quot;Microsoft YaHei&quot;, 微软雅黑, Arial" text-anchor="middle" font-size="24px" width="113px" fill="#323232" font-weight="400" align="middle" lineHeight="125%" anchor="middle" family="&quot;Microsoft YaHei&quot;, 微软雅黑, Arial" size="24px" weight="400" font-style="" opacity="1" y="14" transform="rotate(0)"><tspan id="SvgjsTspan1337" dy="30" x="66.5"><tspan id="SvgjsTspan1338" style="">cur_node</tspan></tspan></text></g></g><g id="SvgjsG1339" transform="translate(538.3591358239644,137)"><path id="SvgjsPath1340" d="M 0 0L 100 0L 100 40L 0 40Z" stroke="none" fill="none"></path><g id="SvgjsG1341"><text id="SvgjsText1342" font-family="&quot;Microsoft YaHei&quot;, 微软雅黑, Arial" text-anchor="middle" font-size="20px" width="100px" fill="#323232" font-weight="400" align="middle" lineHeight="125%" anchor="middle" family="&quot;Microsoft YaHei&quot;, 微软雅黑, Arial" size="20px" weight="400" font-style="" opacity="1" y="2" transform="rotate(0)"><tspan id="SvgjsTspan1343" dy="25" x="50"><tspan id="SvgjsTspan1344" style="">左旋</tspan></tspan></text></g></g><g id="SvgjsG1345" transform="translate(285,150)"><path id="SvgjsPath1346" d="M 0 4Q 0 0 4 0L 53 0Q 57 0 57 4L 57 50Q 57 54 53 54L 4 54Q 0 54 0 50Z" stroke="rgba(33,41,48,1)" stroke-width="1.5" fill-opacity="1" fill="#000000"></path><g id="SvgjsG1347"><text id="SvgjsText1348" font-family="&quot;Microsoft YaHei&quot;, 微软雅黑, Arial" text-anchor="middle" font-size="13px" width="37px" fill="#323232" font-weight="400" align="middle" lineHeight="125%" anchor="middle" family="&quot;Microsoft YaHei&quot;, 微软雅黑, Arial" size="13px" weight="400" font-style="" opacity="1" y="16.375" transform="rotate(0)"></text></g></g><g id="SvgjsG1349"><path id="SvgjsPath1350" d="M199.85582366008322 86.08795246506253L146.19686233326144 149.9578467702206" stroke="#323232" stroke-width="1.5" fill="none"></path></g><g id="SvgjsG1351"><path id="SvgjsPath1352" d="M143.79953703980334 206.09155865789808L200.4108454229339 274.7527665088077" stroke="#323232" stroke-width="1.5" fill="none"></path></g><g id="SvgjsG1353"><path id="SvgjsPath1354" d="M248.8035681123917 85.60368094643877L312.9684384473584 149.47090424708455" stroke="#323232" stroke-width="1.5" fill="none"></path></g><g id="SvgjsG1355"><path id="SvgjsPath1356" d="M158.75 302L186.3 302" stroke-dasharray="1.5,2.25" stroke="#323232" stroke-width="1.5" fill="none" marker-end="url(#SvgjsMarker1357)"></path></g><g id="SvgjsG1359" transform="translate(787,25)"><path id="SvgjsPath1360" d="M 0 35C 0 -11.667 70 -11.667 70 35C 70 81.667 0 81.667 0 35Z" stroke="rgba(255,255,255,1)" stroke-width="1.5" fill-opacity="1" fill="#000000"></path><g id="SvgjsG1361"><text id="SvgjsText1362" font-family="&quot;Microsoft YaHei&quot;, 微软雅黑, Arial" text-anchor="middle" font-size="30px" width="50px" fill="#ffffff" font-weight="400" align="middle" lineHeight="125%" anchor="middle" family="&quot;Microsoft YaHei&quot;, 微软雅黑, Arial" size="30px" weight="400" font-style="" opacity="1" y="9.25" transform="rotate(0)"><tspan id="SvgjsTspan1363" dy="37.5" x="35"><tspan id="SvgjsTspan1364" style="">7</tspan></tspan></text></g></g><g id="SvgjsG1365" transform="translate(670.4217816081658,307.4971939629345)"><path id="SvgjsPath1366" d="M 0 35C 0 -11.667 70 -11.667 70 35C 70 81.667 0 81.667 0 35Z" stroke="rgba(255,255,255,1)" stroke-width="1.5" fill-opacity="1" fill="#e60c0c"></path><g id="SvgjsG1367"><text id="SvgjsText1368" font-family="&quot;Microsoft YaHei&quot;, 微软雅黑, Arial" text-anchor="middle" font-size="30px" width="50px" fill="#ffffff" font-weight="400" align="middle" lineHeight="125%" anchor="middle" family="&quot;Microsoft YaHei&quot;, 微软雅黑, Arial" size="30px" weight="400" font-style="" opacity="1" y="9.25" transform="rotate(0)"><tspan id="SvgjsTspan1369" dy="37.5" x="35"><tspan id="SvgjsTspan1370" style="">3</tspan></tspan></text></g></g><g id="SvgjsG1371" transform="translate(750.5782183918341,180.5028060370655)"><path id="SvgjsPath1372" d="M 0 35C 0 -11.667 70 -11.667 70 35C 70 81.667 0 81.667 0 35Z" stroke="rgba(255,255,255,1)" stroke-width="1.5" fill-opacity="1" fill="#e60c0c"></path><g id="SvgjsG1373"><text id="SvgjsText1374" font-family="&quot;Microsoft YaHei&quot;, 微软雅黑, Arial" text-anchor="middle" font-size="30px" width="50px" fill="#ffffff" font-weight="400" align="middle" lineHeight="125%" anchor="middle" family="&quot;Microsoft YaHei&quot;, 微软雅黑, Arial" size="30px" weight="400" font-style="" opacity="1" y="9.25" transform="rotate(0)"><tspan id="SvgjsTspan1375" dy="37.5" x="35"><tspan id="SvgjsTspan1376" style="">5</tspan></tspan></text></g></g><g id="SvgjsG1377" transform="translate(883,150)"><path id="SvgjsPath1378" d="M 0 4Q 0 0 4 0L 53 0Q 57 0 57 4L 57 50Q 57 54 53 54L 4 54Q 0 54 0 50Z" stroke="rgba(33,41,48,1)" stroke-width="1.5" fill-opacity="1" fill="#000000"></path><g id="SvgjsG1379"><text id="SvgjsText1380" font-family="&quot;Microsoft YaHei&quot;, 微软雅黑, Arial" text-anchor="middle" font-size="13px" width="37px" fill="#323232" font-weight="400" align="middle" lineHeight="125%" anchor="middle" family="&quot;Microsoft YaHei&quot;, 微软雅黑, Arial" size="13px" weight="400" font-style="" opacity="1" y="16.375" transform="rotate(0)"></text></g></g><g id="SvgjsG1381"><path id="SvgjsPath1382" d="M797.8884411243439 86.11384524062817L756 142" stroke="#323232" stroke-width="1.5" fill="none"></path></g><g id="SvgjsG1383"><path id="SvgjsPath1384" d="M846.8035681123918 85.60368094643877L910.9684384473583 149.47090424708455" stroke="#323232" stroke-width="1.5" fill="none"></path></g><g id="SvgjsG1385" transform="translate(512.5999959309896,157)"><path id="SvgjsPath1386" d="M 0 19.8L 155 19.8L 155 0L 185 30L 155 60L 155 40.2L 0 40.2L 0 19.8Z" stroke="rgba(33,41,48,1)" stroke-width="1.5" fill-opacity="1" fill="#ffffff"></path><g id="SvgjsG1387"><text id="SvgjsText1388" font-family="&quot;Microsoft YaHei&quot;, 微软雅黑, Arial" text-anchor="middle" font-size="13px" width="185px" fill="#323232" font-weight="400" align="middle" lineHeight="125%" anchor="middle" family="&quot;Microsoft YaHei&quot;, 微软雅黑, Arial" size="13px" weight="400" font-style="" opacity="1" y="19.375" transform="rotate(0)"></text></g></g><g id="SvgjsG1389"><path id="SvgjsPath1390" d="M770.5379998218652 247.52456555048087L726.268502947879 314.0140203079005" stroke="#323232" stroke-width="1.5" fill="none"></path></g><g id="SvgjsG1391" transform="translate(1369.7973009597038,25)"><path id="SvgjsPath1392" d="M 0 35C 0 -11.667 70 -11.667 70 35C 70 81.667 0 81.667 0 35Z" stroke="rgba(255,255,255,1)" stroke-width="1.5" fill-opacity="1" fill="#000000"></path><g id="SvgjsG1393"><text id="SvgjsText1394" font-family="&quot;Microsoft YaHei&quot;, 微软雅黑, Arial" text-anchor="middle" font-size="30px" width="50px" fill="#ffffff" font-weight="400" align="middle" lineHeight="125%" anchor="middle" family="&quot;Microsoft YaHei&quot;, 微软雅黑, Arial" size="30px" weight="400" font-style="" opacity="1" y="9.25" transform="rotate(0)"><tspan id="SvgjsTspan1395" dy="37.5" x="35"><tspan id="SvgjsTspan1396" style="">7</tspan></tspan></text></g></g><g id="SvgjsG1397" transform="translate(1211.3755193515378,279.5028060370655)"><path id="SvgjsPath1398" d="M 0 35C 0 -11.667 70 -11.667 70 35C 70 81.667 0 81.667 0 35Z" stroke="rgba(255,255,255,1)" stroke-width="1.5" fill-opacity="1" fill="#e60c0c"></path><g id="SvgjsG1399"><text id="SvgjsText1400" font-family="&quot;Microsoft YaHei&quot;, 微软雅黑, Arial" text-anchor="middle" font-size="30px" width="50px" fill="#ffffff" font-weight="400" align="middle" lineHeight="125%" anchor="middle" family="&quot;Microsoft YaHei&quot;, 微软雅黑, Arial" size="30px" weight="400" font-style="" opacity="1" y="9.25" transform="rotate(0)"><tspan id="SvgjsTspan1401" dy="37.5" x="35"><tspan id="SvgjsTspan1402" style="">3</tspan></tspan></text></g></g><g id="SvgjsG1403" transform="translate(1287.3755193515378,147)"><path id="SvgjsPath1404" d="M 0 35C 0 -11.667 70 -11.667 70 35C 70 81.667 0 81.667 0 35Z" stroke="rgba(255,255,255,1)" stroke-width="1.5" fill-opacity="1" fill="#e60c0c"></path><g id="SvgjsG1405"><text id="SvgjsText1406" font-family="&quot;Microsoft YaHei&quot;, 微软雅黑, Arial" text-anchor="middle" font-size="30px" width="50px" fill="#ffffff" font-weight="400" align="middle" lineHeight="125%" anchor="middle" family="&quot;Microsoft YaHei&quot;, 微软雅黑, Arial" size="30px" weight="400" font-style="" opacity="1" y="9.25" transform="rotate(0)"><tspan id="SvgjsTspan1407" dy="37.5" x="35"><tspan id="SvgjsTspan1408" style="">5</tspan></tspan></text></g></g><g id="SvgjsG1409" transform="translate(1465.7973009597038,150)"><path id="SvgjsPath1410" d="M 0 4Q 0 0 4 0L 53 0Q 57 0 57 4L 57 50Q 57 54 53 54L 4 54Q 0 54 0 50Z" stroke="rgba(33,41,48,1)" stroke-width="1.5" fill-opacity="1" fill="#000000"></path><g id="SvgjsG1411"><text id="SvgjsText1412" font-family="&quot;Microsoft YaHei&quot;, 微软雅黑, Arial" text-anchor="middle" font-size="13px" width="37px" fill="#323232" font-weight="400" align="middle" lineHeight="125%" anchor="middle" family="&quot;Microsoft YaHei&quot;, 微软雅黑, Arial" size="13px" weight="400" font-style="" opacity="1" y="16.375" transform="rotate(0)"></text></g></g><g id="SvgjsG1413"><path id="SvgjsPath1414" d="M1380.7053716820717 86.1280686663265L1336.5967247956842 149.1199633887075" stroke="#323232" stroke-width="1.5" fill="none"></path></g><g id="SvgjsG1415"><path id="SvgjsPath1416" d="M1429.6008690720955 85.60368094643877L1493.765739407062 149.47090424708455" stroke="#323232" stroke-width="1.5" fill="none"></path></g><g id="SvgjsG1417" transform="translate(1002.5999959309897,157)"><path id="SvgjsPath1418" d="M 0 19.8L 128.333 19.8L 128.333 0L 158.333 30L 128.333 60L 128.333 40.2L 0 40.2L 0 19.8Z" stroke="rgba(33,41,48,1)" stroke-width="1.5" fill-opacity="1" fill="#ffffff"></path><g id="SvgjsG1419"><text id="SvgjsText1420" font-family="&quot;Microsoft YaHei&quot;, 微软雅黑, Arial" text-anchor="middle" font-size="13px" width="159px" fill="#323232" font-weight="400" align="middle" lineHeight="125%" anchor="middle" family="&quot;Microsoft YaHei&quot;, 微软雅黑, Arial" size="13px" weight="400" font-style="" opacity="1" y="19.375" transform="rotate(0)"></text></g></g><g id="SvgjsG1421"><path id="SvgjsPath1422" d="M1307.385005196814 214.0521356207197L1267.172536276006 285.98925627472715" stroke="#323232" stroke-width="1.5" fill="none"></path></g><g id="SvgjsG1423" transform="translate(530.2924650882874,197)"><path id="SvgjsPath1424" d="M 0 0L 116.133 0L 116.133 65L 0 65Z" stroke="none" fill="none"></path><g id="SvgjsG1425"><text id="SvgjsText1426" font-family="&quot;Microsoft YaHei&quot;, 微软雅黑, Arial" text-anchor="middle" font-size="20px" width="117px" fill="#323232" font-weight="400" align="middle" lineHeight="125%" anchor="middle" family="&quot;Microsoft YaHei&quot;, 微软雅黑, Arial" size="20px" weight="400" font-style="" opacity="1" y="2" transform="rotate(0)"><tspan id="SvgjsTspan1427" dy="25" x="58.5"><tspan id="SvgjsTspan1428" style="">当前节点和</tspan></tspan><tspan id="SvgjsTspan1429" dy="25" x="58.5"><tspan id="SvgjsTspan1430" style="">父节点左旋</tspan></tspan></text></g></g><g id="SvgjsG1431" transform="translate(1398.9115517251676,687.8361393703989)"><path id="SvgjsPath1432" d="M 0 35C 0 -11.667 70 -11.667 70 35C 70 81.667 0 81.667 0 35Z" stroke="rgba(255,255,255,1)" stroke-width="1.5" fill-opacity="1" fill="#000000"></path><g id="SvgjsG1433"><text id="SvgjsText1434" font-family="&quot;Microsoft YaHei&quot;, 微软雅黑, Arial" text-anchor="middle" font-size="30px" width="50px" fill="#ffffff" font-weight="400" align="middle" lineHeight="125%" anchor="middle" family="&quot;Microsoft YaHei&quot;, 微软雅黑, Arial" size="30px" weight="400" font-style="" opacity="1" y="9.25" transform="rotate(0)"><tspan id="SvgjsTspan1435" dy="37.5" x="35"><tspan id="SvgjsTspan1436" style="">7</tspan></tspan></text></g></g><g id="SvgjsG1437" transform="translate(1211.3755193515378,687.8361393703989)"><path id="SvgjsPath1438" d="M 0 35C 0 -11.667 70 -11.667 70 35C 70 81.667 0 81.667 0 35Z" stroke="rgba(255,255,255,1)" stroke-width="1.5" fill-opacity="1" fill="#e60c0c"></path><g id="SvgjsG1439"><text id="SvgjsText1440" font-family="&quot;Microsoft YaHei&quot;, 微软雅黑, Arial" text-anchor="middle" font-size="30px" width="50px" fill="#ffffff" font-weight="400" align="middle" lineHeight="125%" anchor="middle" family="&quot;Microsoft YaHei&quot;, 微软雅黑, Arial" size="30px" weight="400" font-style="" opacity="1" y="9.25" transform="rotate(0)"><tspan id="SvgjsTspan1441" dy="37.5" x="35"><tspan id="SvgjsTspan1442" style="">3</tspan></tspan></text></g></g><g id="SvgjsG1443" transform="translate(1287.3755193515378,555.3333333333333)"><path id="SvgjsPath1444" d="M 0 35C 0 -11.667 70 -11.667 70 35C 70 81.667 0 81.667 0 35Z" stroke="rgba(255,255,255,1)" stroke-width="1.5" fill-opacity="1" fill="#e60c0c"></path><g id="SvgjsG1445"><text id="SvgjsText1446" font-family="&quot;Microsoft YaHei&quot;, 微软雅黑, Arial" text-anchor="middle" font-size="30px" width="50px" fill="#ffffff" font-weight="400" align="middle" lineHeight="125%" anchor="middle" family="&quot;Microsoft YaHei&quot;, 微软雅黑, Arial" size="30px" weight="400" font-style="" opacity="1" y="9.25" transform="rotate(0)"><tspan id="SvgjsTspan1447" dy="37.5" x="35"><tspan id="SvgjsTspan1448" style="">5</tspan></tspan></text></g></g><g id="SvgjsG1449" transform="translate(1484.130634293037,812.8361393703988)"><path id="SvgjsPath1450" d="M 0 4Q 0 0 4 0L 53 0Q 57 0 57 4L 57 50Q 57 54 53 54L 4 54Q 0 54 0 50Z" stroke="rgba(33,41,48,1)" stroke-width="1.5" fill-opacity="1" fill="#000000"></path><g id="SvgjsG1451"><text id="SvgjsText1452" font-family="&quot;Microsoft YaHei&quot;, 微软雅黑, Arial" text-anchor="middle" font-size="13px" width="37px" fill="#323232" font-weight="400" align="middle" lineHeight="125%" anchor="middle" family="&quot;Microsoft YaHei&quot;, 微软雅黑, Arial" size="13px" weight="400" font-style="" opacity="1" y="16.375" transform="rotate(0)"></text></g></g><g id="SvgjsG1453" transform="translate(1549.130634293037,819.8361393703988)"><path id="SvgjsPath1454" d="M 0 0L 84 0L 100 16L 100 40L 0 40L 0 0Z" stroke="none" fill-opacity="1" fill="#fff7bc"></path><path id="SvgjsPath1455" d="M 84 0L 84 16L 100 16Z" stroke="none" fill-opacity="1" fill="#e4d089"></path><path id="SvgjsPath1456" d="M 0 0L 84 0L 100 16L 100 40L 0 40L 0 0Z" stroke="none" fill="none"></path><g id="SvgjsG1457"><text id="SvgjsText1458" font-family="&quot;Microsoft YaHei&quot;, 微软雅黑, Arial" text-anchor="middle" font-size="20px" width="80px" fill="#323232" font-weight="400" align="middle" lineHeight="125%" anchor="middle" family="&quot;Microsoft YaHei&quot;, 微软雅黑, Arial" size="20px" weight="400" font-style="" opacity="1" y="2" transform="rotate(0)"><tspan id="SvgjsTspan1459" dy="25" x="50"><tspan id="SvgjsTspan1460" style="">叔叔节点</tspan></tspan></text></g></g><g id="SvgjsG1461"><path id="SvgjsPath1462" d="M1458.6654837176725 748.4853965375421L1512.148708860282 812.2614673967792" stroke="#323232" stroke-width="1.5" fill="none"></path></g><g id="SvgjsG1463"><path id="SvgjsPath1464" d="M1307.385005196814 622.3854689540531L1267.172536276006 694.3225896080605" stroke="#323232" stroke-width="1.5" fill="none"></path></g><g id="SvgjsG1465" transform="translate(350,157)"><path id="SvgjsPath1466" d="M 0 0L 84 0L 100 16L 100 40L 0 40L 0 0Z" stroke="none" fill-opacity="1" fill="#fff7bc"></path><path id="SvgjsPath1467" d="M 84 0L 84 16L 100 16Z" stroke="none" fill-opacity="1" fill="#e4d089"></path><path id="SvgjsPath1468" d="M 0 0L 84 0L 100 16L 100 40L 0 40L 0 0Z" stroke="none" fill="none"></path><g id="SvgjsG1469"><text id="SvgjsText1470" font-family="&quot;Microsoft YaHei&quot;, 微软雅黑, Arial" text-anchor="middle" font-size="20px" width="80px" fill="#323232" font-weight="400" align="middle" lineHeight="125%" anchor="middle" family="&quot;Microsoft YaHei&quot;, 微软雅黑, Arial" size="20px" weight="400" font-style="" opacity="1" y="2" transform="rotate(0)"><tspan id="SvgjsTspan1471" dy="25" x="50"><tspan id="SvgjsTspan1472" style="">叔叔节点</tspan></tspan></text></g></g><g id="SvgjsG1473" transform="translate(750.5782183918341,317.9971939629345)"><path id="SvgjsPath1474" d="M 0 0L 84 0L 100 16L 100 49L 0 49L 0 0Z" stroke="none" fill-opacity="1" fill="#fff7bc"></path><path id="SvgjsPath1475" d="M 84 0L 84 16L 100 16Z" stroke="none" fill-opacity="1" fill="#e4d089"></path><path id="SvgjsPath1476" d="M 0 0L 84 0L 100 16L 100 49L 0 49L 0 0Z" stroke="none" fill="none"></path><g id="SvgjsG1477"><text id="SvgjsText1478" font-family="&quot;Microsoft YaHei&quot;, 微软雅黑, Arial" text-anchor="middle" font-size="20px" width="80px" fill="#323232" font-weight="400" align="middle" lineHeight="125%" anchor="middle" family="&quot;Microsoft YaHei&quot;, 微软雅黑, Arial" size="20px" weight="400" font-style="" opacity="1" y="6.5" transform="rotate(0)"><tspan id="SvgjsTspan1479" dy="25" x="50"><tspan id="SvgjsTspan1480" style="">父节点</tspan></tspan></text></g></g><g id="SvgjsG1481" transform="translate(1287.3755193515378,291.25140301853276)"><path id="SvgjsPath1482" d="M 0 0L 147.688 0L 163.688 16L 163.688 46.503L 0 46.503L 0 0Z" stroke="none" fill-opacity="1" fill="#fff7bc"></path><path id="SvgjsPath1483" d="M 147.688 0L 147.688 16L 163.688 16Z" stroke="none" fill-opacity="1" fill="#e4d089"></path><path id="SvgjsPath1484" d="M 0 0L 147.688 0L 163.688 16L 163.688 46.503L 0 46.503L 0 0Z" stroke="none" fill="none"></path><g id="SvgjsG1485"><text id="SvgjsText1486" font-family="&quot;Microsoft YaHei&quot;, 微软雅黑, Arial" text-anchor="middle" font-size="20px" width="144px" fill="#323232" font-weight="400" align="middle" lineHeight="125%" anchor="middle" family="&quot;Microsoft YaHei&quot;, 微软雅黑, Arial" size="20px" weight="400" font-style="" opacity="1" y="5.2515" transform="rotate(0)"><tspan id="SvgjsTspan1487" dy="25" x="82"><tspan id="SvgjsTspan1488" style="">原来的父节点</tspan></tspan></text></g></g><g id="SvgjsG1489"><path id="SvgjsPath1490" d="M1346.093167954446 616.660522610577L1408.6142226231514 696.7946884490932" stroke="#323232" stroke-width="1.5" fill="none"></path></g><g id="SvgjsG1491" transform="translate(1398.9115517251676,377.4971939629345)"><path id="SvgjsPath1492" d="M 19.8 0L 40.2 0L 40.2 120.836L 60 120.836L 30 150.836L 0 120.836L 19.8 120.836L 19.8 0Z" stroke="rgba(33,41,48,1)" stroke-width="1.5" fill-opacity="1" fill="#ffffff"></path><g id="SvgjsG1493"><text id="SvgjsText1494" font-family="&quot;Microsoft YaHei&quot;, 微软雅黑, Arial" text-anchor="middle" font-size="13px" width="84px" fill="#323232" font-weight="400" align="middle" lineHeight="125%" anchor="middle" family="&quot;Microsoft YaHei&quot;, 微软雅黑, Arial" size="13px" weight="400" font-style="" opacity="1" y="57.25150000000001" transform="rotate(0)"></text></g></g><g id="SvgjsG1495" transform="translate(1277.5999959309897,420.0000000000001)"><path id="SvgjsPath1496" d="M 0 0L 133.364 0L 133.364 40L 0 40Z" stroke="none" fill="none"></path><g id="SvgjsG1497"><text id="SvgjsText1498" font-family="&quot;Microsoft YaHei&quot;, 微软雅黑, Arial" text-anchor="middle" font-size="20px" width="134px" fill="#323232" font-weight="400" align="middle" lineHeight="125%" anchor="middle" family="&quot;Microsoft YaHei&quot;, 微软雅黑, Arial" size="20px" weight="400" font-style="" opacity="1" y="2" transform="rotate(0)"><tspan id="SvgjsTspan1499" dy="25" x="67"><tspan id="SvgjsTspan1500" style="">右旋爷爷节点</tspan></tspan></text></g></g><g id="SvgjsG1501" transform="translate(1504.2666625976565,647.8361393703989)"><path id="SvgjsPath1502" d="M 0 0L 100 0L 100 40L 0 40Z" stroke="none" fill="none"></path><g id="SvgjsG1503"><text id="SvgjsText1504" font-family="&quot;Microsoft YaHei&quot;, 微软雅黑, Arial" text-anchor="middle" font-size="20px" width="100px" fill="#323232" font-weight="400" align="middle" lineHeight="125%" anchor="middle" family="&quot;Microsoft YaHei&quot;, 微软雅黑, Arial" size="20px" weight="400" font-style="" opacity="1" y="2" transform="rotate(0)"><tspan id="SvgjsTspan1505" dy="25" x="50"><tspan id="SvgjsTspan1506" style="">被旋转点</tspan></tspan></text></g></g><g id="SvgjsG1507"><path id="SvgjsPath1508" d="M1503.2824717739074 668.0132506982355C 1482.4112963447328 667.8361393703989 1475.8691189688536 684.7190946190885 1461.517052807781 697.4146468674815" stroke-dasharray="1.5,2.25" stroke="#323232" stroke-width="1.5" fill="none" marker-end="url(#SvgjsMarker1509)"></path></g><g id="SvgjsG1511" transform="translate(1111.3755193515378,528.3333333333334)"><path id="SvgjsPath1512" d="M 0 0L 100 0L 100 40L 0 40Z" stroke="none" fill="none"></path><g id="SvgjsG1513"><text id="SvgjsText1514" font-family="&quot;Microsoft YaHei&quot;, 微软雅黑, Arial" text-anchor="middle" font-size="20px" width="100px" fill="#323232" font-weight="400" align="middle" lineHeight="125%" anchor="middle" family="&quot;Microsoft YaHei&quot;, 微软雅黑, Arial" size="20px" weight="400" font-style="" opacity="1" y="2" transform="rotate(0)"><tspan id="SvgjsTspan1515" dy="25" x="50"><tspan id="SvgjsTspan1516" style="">旋转中心</tspan></tspan></text></g></g><g id="SvgjsG1517"><path id="SvgjsPath1518" d="M1212.3753121631537 548.3536885253253C 1245.4441749672364 548.3333333333334 1264.8876366830282 552.5014087896151 1291.14961570684 569.6593695750352" stroke-dasharray="1.5,2.25" stroke="#323232" stroke-width="1.5" fill="none" marker-end="url(#SvgjsMarker1519)"></path></g><g id="SvgjsG1521" transform="translate(1130,60.333333333333314)"><path id="SvgjsPath1522" d="M 0 35C 0 -11.667 133 -11.667 133 35C 133 81.667 0 81.667 0 35Z" stroke="rgba(255,255,255,1)" stroke-width="1.5" fill-opacity="1" fill="#7bd144"></path><g id="SvgjsG1523"><text id="SvgjsText1524" font-family="&quot;Microsoft YaHei&quot;, 微软雅黑, Arial" text-anchor="middle" font-size="24px" width="113px" fill="#323232" font-weight="400" align="middle" lineHeight="125%" anchor="middle" family="&quot;Microsoft YaHei&quot;, 微软雅黑, Arial" size="24px" weight="400" font-style="" opacity="1" y="14" transform="rotate(0)"><tspan id="SvgjsTspan1525" dy="30" x="66.5"><tspan id="SvgjsTspan1526" style="">cur_node</tspan></tspan></text></g></g><g id="SvgjsG1527"><path id="SvgjsPath1528" d="M1263.7440227074715 95.42783312575108C 1292.9583798424019 95.33333333333331 1311.07840755417 118.46637076954238 1315.6103367482845 145.35413986497662" stroke="#323232" stroke-width="1.5" fill="none" marker-end="url(#SvgjsMarker1529)"></path></g><g id="SvgjsG1531" transform="translate(1484.130634293037,702.3347363518661)"><path id="SvgjsPath1532" d="M 0 0L 157.771 0L 173.771 16L 173.771 41.003L 0 41.003L 0 0Z" stroke="none" fill-opacity="1" fill="#fff7bc"></path><path id="SvgjsPath1533" d="M 157.771 0L 157.771 16L 173.771 16Z" stroke="none" fill-opacity="1" fill="#e4d089"></path><path id="SvgjsPath1534" d="M 0 0L 157.771 0L 173.771 16L 173.771 41.003L 0 41.003L 0 0Z" stroke="none" fill="none"></path><g id="SvgjsG1535"><text id="SvgjsText1536" font-family="&quot;Microsoft YaHei&quot;, 微软雅黑, Arial" text-anchor="middle" font-size="20px" width="154px" fill="#323232" font-weight="400" align="middle" lineHeight="125%" anchor="middle" family="&quot;Microsoft YaHei&quot;, 微软雅黑, Arial" size="20px" weight="400" font-style="" opacity="1" y="2.5015" transform="rotate(0)"><tspan id="SvgjsTspan1537" dy="25" x="87"><tspan id="SvgjsTspan1538" style="">原来的爷爷节点</tspan></tspan></text></g></g><g id="SvgjsG1539" transform="translate(664.8489059409662,687.8361393703989)"><path id="SvgjsPath1540" d="M 0 35C 0 -11.667 70 -11.667 70 35C 70 81.667 0 81.667 0 35Z" stroke="rgba(255,255,255,1)" stroke-width="1.5" fill-opacity="1" fill="#e60c0c"></path><g id="SvgjsG1541"><text id="SvgjsText1542" font-family="&quot;Microsoft YaHei&quot;, 微软雅黑, Arial" text-anchor="middle" font-size="30px" width="50px" fill="#ffffff" font-weight="400" align="middle" lineHeight="125%" anchor="middle" family="&quot;Microsoft YaHei&quot;, 微软雅黑, Arial" size="30px" weight="400" font-style="" opacity="1" y="9.25" transform="rotate(0)"><tspan id="SvgjsTspan1543" dy="37.5" x="35"><tspan id="SvgjsTspan1544" style="">7</tspan></tspan></text></g></g><g id="SvgjsG1545" transform="translate(477.31287356733674,687.8361393703989)"><path id="SvgjsPath1546" d="M 0 35C 0 -11.667 70 -11.667 70 35C 70 81.667 0 81.667 0 35Z" stroke="rgba(255,255,255,1)" stroke-width="1.5" fill-opacity="1" fill="#e60c0c"></path><g id="SvgjsG1547"><text id="SvgjsText1548" font-family="&quot;Microsoft YaHei&quot;, 微软雅黑, Arial" text-anchor="middle" font-size="30px" width="50px" fill="#ffffff" font-weight="400" align="middle" lineHeight="125%" anchor="middle" family="&quot;Microsoft YaHei&quot;, 微软雅黑, Arial" size="30px" weight="400" font-style="" opacity="1" y="9.25" transform="rotate(0)"><tspan id="SvgjsTspan1549" dy="37.5" x="35"><tspan id="SvgjsTspan1550" style="">3</tspan></tspan></text></g></g><g id="SvgjsG1551" transform="translate(553.3128735673367,555.3333333333333)"><path id="SvgjsPath1552" d="M 0 35C 0 -11.667 70 -11.667 70 35C 70 81.667 0 81.667 0 35Z" stroke="rgba(255,255,255,1)" stroke-width="1.5" fill-opacity="1" fill="#000000"></path><g id="SvgjsG1553"><text id="SvgjsText1554" font-family="&quot;Microsoft YaHei&quot;, 微软雅黑, Arial" text-anchor="middle" font-size="30px" width="50px" fill="#ffffff" font-weight="400" align="middle" lineHeight="125%" anchor="middle" family="&quot;Microsoft YaHei&quot;, 微软雅黑, Arial" size="30px" weight="400" font-style="" opacity="1" y="9.25" transform="rotate(0)"><tspan id="SvgjsTspan1555" dy="37.5" x="35"><tspan id="SvgjsTspan1556" style="">5</tspan></tspan></text></g></g><g id="SvgjsG1557" transform="translate(750.0679885088352,812.836139370399)"><path id="SvgjsPath1558" d="M 0 4Q 0 0 4 0L 53 0Q 57 0 57 4L 57 50Q 57 54 53 54L 4 54Q 0 54 0 50Z" stroke="rgba(33,41,48,1)" stroke-width="1.5" fill-opacity="1" fill="#000000"></path><g id="SvgjsG1559"><text id="SvgjsText1560" font-family="&quot;Microsoft YaHei&quot;, 微软雅黑, Arial" text-anchor="middle" font-size="13px" width="37px" fill="#323232" font-weight="400" align="middle" lineHeight="125%" anchor="middle" family="&quot;Microsoft YaHei&quot;, 微软雅黑, Arial" size="13px" weight="400" font-style="" opacity="1" y="16.375" transform="rotate(0)"></text></g></g><g id="SvgjsG1561" transform="translate(815.0679885088352,819.836139370399)"><path id="SvgjsPath1562" d="M 0 0L 84 0L 100 16L 100 40L 0 40L 0 0Z" stroke="none" fill-opacity="1" fill="#fff7bc"></path><path id="SvgjsPath1563" d="M 84 0L 84 16L 100 16Z" stroke="none" fill-opacity="1" fill="#e4d089"></path><path id="SvgjsPath1564" d="M 0 0L 84 0L 100 16L 100 40L 0 40L 0 0Z" stroke="none" fill="none"></path><g id="SvgjsG1565"><text id="SvgjsText1566" font-family="&quot;Microsoft YaHei&quot;, 微软雅黑, Arial" text-anchor="middle" font-size="20px" width="80px" fill="#323232" font-weight="400" align="middle" lineHeight="125%" anchor="middle" family="&quot;Microsoft YaHei&quot;, 微软雅黑, Arial" size="20px" weight="400" font-style="" opacity="1" y="2" transform="rotate(0)"><tspan id="SvgjsTspan1567" dy="25" x="50"><tspan id="SvgjsTspan1568" style="">叔叔节点</tspan></tspan></text></g></g><g id="SvgjsG1569"><path id="SvgjsPath1570" d="M724.6028379334712 748.4853965375422L778.0860630760802 812.2614673967794" stroke="#323232" stroke-width="1.5" fill="none"></path></g><g id="SvgjsG1571"><path id="SvgjsPath1572" d="M573.3223594126129 622.3854689540531L533.109890491805 694.3225896080605" stroke="#323232" stroke-width="1.5" fill="none"></path></g><g id="SvgjsG1573"><path id="SvgjsPath1574" d="M612.0305221702447 616.660522610577L674.55157683895 696.7946884490932" stroke="#323232" stroke-width="1.5" fill="none"></path></g><g id="SvgjsG1575" transform="translate(770.2040168134549,647.8361393703989)"><path id="SvgjsPath1576" d="M 0 0L 100 0L 100 40L 0 40Z" stroke="none" fill="none"></path><g id="SvgjsG1577"><text id="SvgjsText1578" font-family="&quot;Microsoft YaHei&quot;, 微软雅黑, Arial" text-anchor="middle" font-size="20px" width="100px" fill="#323232" font-weight="400" align="middle" lineHeight="125%" anchor="middle" family="&quot;Microsoft YaHei&quot;, 微软雅黑, Arial" size="20px" weight="400" font-style="" opacity="1" y="2" transform="rotate(0)"><tspan id="SvgjsTspan1579" dy="25" x="50"><tspan id="SvgjsTspan1580" style="">被旋转点</tspan></tspan></text></g></g><g id="SvgjsG1581"><path id="SvgjsPath1582" d="M769.2198259897058 668.0132506982355C 748.348650560531 667.8361393703989 741.8064731846522 684.7190946190885 727.4544070235798 697.4146468674815" stroke-dasharray="1.5,2.25" stroke="#323232" stroke-width="1.5" fill="none" marker-end="url(#SvgjsMarker1583)"></path></g><g id="SvgjsG1585" transform="translate(377.3128735673366,528.3333333333334)"><path id="SvgjsPath1586" d="M 0 0L 100 0L 100 40L 0 40Z" stroke="none" fill="none"></path><g id="SvgjsG1587"><text id="SvgjsText1588" font-family="&quot;Microsoft YaHei&quot;, 微软雅黑, Arial" text-anchor="middle" font-size="20px" width="100px" fill="#323232" font-weight="400" align="middle" lineHeight="125%" anchor="middle" family="&quot;Microsoft YaHei&quot;, 微软雅黑, Arial" size="20px" weight="400" font-style="" opacity="1" y="2" transform="rotate(0)"><tspan id="SvgjsTspan1589" dy="25" x="50"><tspan id="SvgjsTspan1590" style="">旋转中心</tspan></tspan></text></g></g><g id="SvgjsG1591"><path id="SvgjsPath1592" d="M478.3126663789527 548.3536885253253C 511.3815291830351 548.3333333333334 530.8249908988269 552.5014087896151 557.0869699226387 569.6593695750353" stroke-dasharray="1.5,2.25" stroke="#323232" stroke-width="1.5" fill="none" marker-end="url(#SvgjsMarker1593)"></path></g><g id="SvgjsG1595" transform="translate(750.0679885088352,702.3347363518661)"><path id="SvgjsPath1596" d="M 0 0L 157.771 0L 173.771 16L 173.771 41.003L 0 41.003L 0 0Z" stroke="none" fill-opacity="1" fill="#fff7bc"></path><path id="SvgjsPath1597" d="M 157.771 0L 157.771 16L 173.771 16Z" stroke="none" fill-opacity="1" fill="#e4d089"></path><path id="SvgjsPath1598" d="M 0 0L 157.771 0L 173.771 16L 173.771 41.003L 0 41.003L 0 0Z" stroke="none" fill="none"></path><g id="SvgjsG1599"><text id="SvgjsText1600" font-family="&quot;Microsoft YaHei&quot;, 微软雅黑, Arial" text-anchor="middle" font-size="20px" width="154px" fill="#323232" font-weight="400" align="middle" lineHeight="125%" anchor="middle" family="&quot;Microsoft YaHei&quot;, 微软雅黑, Arial" size="20px" weight="400" font-style="" opacity="1" y="2.5015" transform="rotate(0)"><tspan id="SvgjsTspan1601" dy="25" x="87"><tspan id="SvgjsTspan1602" style="">原来的爷爷节点</tspan></tspan></text></g></g><g id="SvgjsG1603" transform="translate(961.6000111897788,692.8361393703989)"><path id="SvgjsPath1604" d="M 0 30L 30 0L 30 19.8L 208.333 19.8L 208.333 40.2L 30 40.2L 30 60L 0 30Z" stroke="rgba(33,41,48,1)" stroke-width="1.5" fill-opacity="1" fill="#ffffff"></path><g id="SvgjsG1605"><text id="SvgjsText1606" font-family="&quot;Microsoft YaHei&quot;, 微软雅黑, Arial" text-anchor="middle" font-size="13px" width="209px" fill="#323232" font-weight="400" align="middle" lineHeight="125%" anchor="middle" family="&quot;Microsoft YaHei&quot;, 微软雅黑, Arial" size="13px" weight="400" font-style="" opacity="1" y="19.375" transform="rotate(0)"></text></g></g><g id="SvgjsG1607" transform="translate(1017.6075031647229,675)"><path id="SvgjsPath1608" d="M 0 0L 100 0L 100 40L 0 40Z" stroke="none" fill="none"></path><g id="SvgjsG1609"><text id="SvgjsText1610" font-family="&quot;Microsoft YaHei&quot;, 微软雅黑, Arial" text-anchor="middle" font-size="20px" width="100px" fill="#323232" font-weight="400" align="middle" lineHeight="125%" anchor="middle" family="&quot;Microsoft YaHei&quot;, 微软雅黑, Arial" size="20px" weight="400" font-style="" opacity="1" y="2" transform="rotate(0)"><tspan id="SvgjsTspan1611" dy="25" x="50"><tspan id="SvgjsTspan1612" style="">变色</tspan></tspan></text></g></g><g id="SvgjsG1613" transform="translate(1458.9115517251676,25)"><path id="SvgjsPath1614" d="M 0 0L 157.771 0L 173.771 16L 173.771 41.003L 0 41.003L 0 0Z" stroke="none" fill-opacity="1" fill="#fff7bc"></path><path id="SvgjsPath1615" d="M 157.771 0L 157.771 16L 173.771 16Z" stroke="none" fill-opacity="1" fill="#e4d089"></path><path id="SvgjsPath1616" d="M 0 0L 157.771 0L 173.771 16L 173.771 41.003L 0 41.003L 0 0Z" stroke="none" fill="none"></path><g id="SvgjsG1617"><text id="SvgjsText1618" font-family="&quot;Microsoft YaHei&quot;, 微软雅黑, Arial" text-anchor="middle" font-size="20px" width="154px" fill="#323232" font-weight="400" align="middle" lineHeight="125%" anchor="middle" family="&quot;Microsoft YaHei&quot;, 微软雅黑, Arial" size="20px" weight="400" font-style="" opacity="1" y="2.5015" transform="rotate(0)"><tspan id="SvgjsTspan1619" dy="25" x="87"><tspan id="SvgjsTspan1620" style="">原来的爷爷节点</tspan></tspan></text></g></g><g id="SvgjsG1621"></g></svg>