<svg id="SvgjsSvg1006" width="2069.2857142857156" height="1019.9999898274737" xmlns="http://www.w3.org/2000/svg" version="1.1" xmlns:xlink="http://www.w3.org/1999/xlink" xmlns:svgjs="http://svgjs.com/svgjs"><defs id="SvgjsDefs1007"><pattern patternUnits="userSpaceOnUse" id="pattern_mark_0" width="300" height="300"><text x="150" y="100" fill="rgba(229,229,229,0.8)" font-size="18" transform="rotate(-45, 150, 150)" style="dominant-baseline: middle; text-anchor: middle;"></text></pattern><pattern patternUnits="userSpaceOnUse" id="pattern_mark_1" width="300" height="300"><text x="150" y="200" fill="rgba(229,229,229,0.8)" font-size="18" transform="rotate(-45, 150, 150)" style="dominant-baseline: middle; text-anchor: middle;"></text></pattern><marker id="SvgjsMarker1041" markerWidth="13" markerHeight="9" refX="9.5" refY="4.5" viewBox="0 0 13 9" orient="auto" markerUnits="userSpaceOnUse" stroke-dasharray="0,0"><path id="SvgjsPath1042" d="M0,0 L13,4.5 L0,9 L0,0" fill="#323232" stroke="#323232" stroke-width="1"></path></marker><marker id="SvgjsMarker1099" markerWidth="13" markerHeight="9" refX="9.5" refY="4.5" viewBox="0 0 13 9" orient="auto" markerUnits="userSpaceOnUse" stroke-dasharray="0,0"><path id="SvgjsPath1100" d="M0,0 L13,4.5 L0,9 L0,0" fill="#323232" stroke="#323232" stroke-width="1"></path></marker><marker id="SvgjsMarker1187" markerWidth="13" markerHeight="9" refX="9.5" refY="4.5" viewBox="0 0 13 9" orient="auto" markerUnits="userSpaceOnUse" stroke-dasharray="0,0"><path id="SvgjsPath1188" d="M0,0 L13,4.5 L0,9 L0,0" fill="#323232" stroke="#323232" stroke-width="1"></path></marker><marker id="SvgjsMarker1265" markerWidth="13" markerHeight="9" refX="9.5" refY="4.5" viewBox="0 0 13 9" orient="auto" markerUnits="userSpaceOnUse" stroke-dasharray="0,0"><path id="SvgjsPath1266" d="M0,0 L13,4.5 L0,9 L0,0" fill="#323232" stroke="#323232" stroke-width="1"></path></marker><marker id="SvgjsMarker1327" markerWidth="13" markerHeight="9" refX="9.5" refY="4.5" viewBox="0 0 13 9" orient="auto" markerUnits="userSpaceOnUse" stroke-dasharray="0,0"><path id="SvgjsPath1328" d="M0,0 L13,4.5 L0,9 L0,0" fill="#323232" stroke="#323232" stroke-width="1"></path></marker><marker id="SvgjsMarker1367" markerWidth="13" markerHeight="9" refX="9.5" refY="4.5" viewBox="0 0 13 9" orient="auto" markerUnits="userSpaceOnUse" stroke-dasharray="0,0"><path id="SvgjsPath1368" d="M0,0 L13,4.5 L0,9 L0,0" fill="#323232" stroke="#323232" stroke-width="1"></path></marker><marker id="SvgjsMarker1377" markerWidth="13" markerHeight="9" refX="9.5" refY="4.5" viewBox="0 0 13 9" orient="auto" markerUnits="userSpaceOnUse" stroke-dasharray="0,0"><path id="SvgjsPath1378" d="M0,0 L13,4.5 L0,9 L0,0" fill="#323232" stroke="#323232" stroke-width="1"></path></marker></defs><rect id="svgbackgroundid" width="2069.2857142857156" height="1019.9999898274737" fill="transparent"></rect><rect id="SvgjsRect1009" width="2069.2857142857156" height="1019.9999898274737" fill="url(#pattern_mark_0)"></rect><rect id="SvgjsRect1010" width="2069.2857142857156" height="1019.9999898274737" fill="url(#pattern_mark_1)"></rect><g id="SvgjsG1011" transform="translate(218,25.000000000000057)"><path id="SvgjsPath1012" d="M 0 35C 0 -11.667 70 -11.667 70 35C 70 81.667 0 81.667 0 35Z" stroke="rgba(255,255,255,1)" stroke-width="1.5" fill-opacity="1" fill="#000000"></path><g id="SvgjsG1013"><text id="SvgjsText1014" font-family="&quot;Microsoft YaHei&quot;, 微软雅黑, Arial" text-anchor="middle" font-size="30px" width="50px" fill="#ffffff" font-weight="400" align="middle" lineHeight="125%" anchor="middle" family="&quot;Microsoft YaHei&quot;, 微软雅黑, Arial" size="30px" weight="400" font-style="" opacity="1" y="9.25" transform="rotate(0)"><tspan id="SvgjsTspan1015" dy="37.5" x="35"><tspan id="SvgjsTspan1016" style="">7</tspan></tspan></text></g></g><g id="SvgjsG1017" transform="translate(325,156.00000000000006)"><path id="SvgjsPath1018" d="M 0 35C 0 -11.667 70 -11.667 70 35C 70 81.667 0 81.667 0 35Z" stroke="rgba(255,255,255,1)" stroke-width="1.5" fill-opacity="1" fill="#e60c0c"></path><g id="SvgjsG1019"><text id="SvgjsText1020" font-family="&quot;Microsoft YaHei&quot;, 微软雅黑, Arial" text-anchor="middle" font-size="30px" width="50px" fill="#ffffff" font-weight="400" align="middle" lineHeight="125%" anchor="middle" family="&quot;Microsoft YaHei&quot;, 微软雅黑, Arial" size="30px" weight="400" font-style="" opacity="1" y="9.25" transform="rotate(0)"><tspan id="SvgjsTspan1021" dy="37.5" x="35"><tspan id="SvgjsTspan1022" style="">12</tspan></tspan></text></g></g><g id="SvgjsG1023" transform="translate(218,280.00000000000006)"><path id="SvgjsPath1024" d="M 0 35C 0 -11.667 70 -11.667 70 35C 70 81.667 0 81.667 0 35Z" stroke="rgba(255,255,255,1)" stroke-width="1.5" fill-opacity="1" fill="#e60c0c"></path><g id="SvgjsG1025"><text id="SvgjsText1026" font-family="&quot;Microsoft YaHei&quot;, 微软雅黑, Arial" text-anchor="middle" font-size="30px" width="50px" fill="#ffffff" font-weight="400" align="middle" lineHeight="125%" anchor="middle" family="&quot;Microsoft YaHei&quot;, 微软雅黑, Arial" size="30px" weight="400" font-style="" opacity="1" y="9.25" transform="rotate(0)"><tspan id="SvgjsTspan1027" dy="37.5" x="35"><tspan id="SvgjsTspan1028" style="">8</tspan></tspan></text></g></g><g id="SvgjsG1029" transform="translate(54,280.00000000000006)"><path id="SvgjsPath1030" d="M 0 35C 0 -11.667 133 -11.667 133 35C 133 81.667 0 81.667 0 35Z" stroke="rgba(255,255,255,1)" stroke-width="1.5" fill-opacity="1" fill="#7bd144"></path><g id="SvgjsG1031"><text id="SvgjsText1032" font-family="&quot;Microsoft YaHei&quot;, 微软雅黑, Arial" text-anchor="middle" font-size="24px" width="113px" fill="#323232" font-weight="400" align="middle" lineHeight="125%" anchor="middle" family="&quot;Microsoft YaHei&quot;, 微软雅黑, Arial" size="24px" weight="400" font-style="" opacity="1" y="14" transform="rotate(0)"><tspan id="SvgjsTspan1033" dy="30" x="66.5"><tspan id="SvgjsTspan1034" style="">cur_node</tspan></tspan></text></g></g><g id="SvgjsG1035" transform="translate(130,164.00000000000006)"><path id="SvgjsPath1036" d="M 0 4Q 0 0 4 0L 53 0Q 57 0 57 4L 57 50Q 57 54 53 54L 4 54Q 0 54 0 50Z" stroke="rgba(33,41,48,1)" stroke-width="1.5" fill-opacity="1" fill="#000000"></path><g id="SvgjsG1037"><text id="SvgjsText1038" font-family="&quot;Microsoft YaHei&quot;, 微软雅黑, Arial" text-anchor="middle" font-size="13px" width="37px" fill="#323232" font-weight="400" align="middle" lineHeight="125%" anchor="middle" family="&quot;Microsoft YaHei&quot;, 微软雅黑, Arial" size="13px" weight="400" font-style="" opacity="1" y="16.375" transform="rotate(0)"></text></g></g><g id="SvgjsG1039"><path id="SvgjsPath1040" d="M187.75 315.00000000000006L215.3 315.00000000000006" stroke-dasharray="1.5,2.25" stroke="#323232" stroke-width="1.5" fill="none" marker-end="url(#SvgjsMarker1041)"></path></g><g id="SvgjsG1043" transform="translate(25,171.00000000000006)"><path id="SvgjsPath1044" d="M 0 0L 84 0L 100 16L 100 40L 0 40L 0 0Z" stroke="none" fill-opacity="1" fill="#fff7bc"></path><path id="SvgjsPath1045" d="M 84 0L 84 16L 100 16Z" stroke="none" fill-opacity="1" fill="#e4d089"></path><path id="SvgjsPath1046" d="M 0 0L 84 0L 100 16L 100 40L 0 40L 0 0Z" stroke="none" fill="none"></path><g id="SvgjsG1047"><text id="SvgjsText1048" font-family="&quot;Microsoft YaHei&quot;, 微软雅黑, Arial" text-anchor="middle" font-size="20px" width="80px" fill="#323232" font-weight="400" align="middle" lineHeight="125%" anchor="middle" family="&quot;Microsoft YaHei&quot;, 微软雅黑, Arial" size="20px" weight="400" font-style="" opacity="1" y="2" transform="rotate(0)"><tspan id="SvgjsTspan1049" dy="25" x="50"><tspan id="SvgjsTspan1050" style="">叔叔节点</tspan></tspan></text></g></g><g id="SvgjsG1051"><path id="SvgjsPath1052" d="M338.2567555780978 219.12599174475469L275.8772797877299 287.2241032335775" stroke="#323232" stroke-width="1.5" fill="none"></path></g><g id="SvgjsG1053"><path id="SvgjsPath1054" d="M278.3643599360432 85.45018177017658L341.983791283183 160.31144547912282" stroke="#323232" stroke-width="1.5" fill="none"></path></g><g id="SvgjsG1055"><path id="SvgjsPath1056" d="M158.98135567129435 163.424850699633L225.78277306937395 83.60697221339558" stroke="#323232" stroke-width="1.5" fill="none"></path></g><g id="SvgjsG1057" transform="translate(923,25.000000000000057)"><path id="SvgjsPath1058" d="M 0 35C 0 -11.667 70 -11.667 70 35C 70 81.667 0 81.667 0 35Z" stroke="rgba(255,255,255,1)" stroke-width="1.5" fill-opacity="1" fill="#000000"></path><g id="SvgjsG1059"><text id="SvgjsText1060" font-family="&quot;Microsoft YaHei&quot;, 微软雅黑, Arial" text-anchor="middle" font-size="30px" width="50px" fill="#ffffff" font-weight="400" align="middle" lineHeight="125%" anchor="middle" family="&quot;Microsoft YaHei&quot;, 微软雅黑, Arial" size="30px" weight="400" font-style="" opacity="1" y="9.25" transform="rotate(0)"><tspan id="SvgjsTspan1061" dy="37.5" x="35"><tspan id="SvgjsTspan1062" style="">7</tspan></tspan></text></g></g><g id="SvgjsG1063" transform="translate(1030,156.00000000000006)"><path id="SvgjsPath1064" d="M 0 35C 0 -11.667 70 -11.667 70 35C 70 81.667 0 81.667 0 35Z" stroke="rgba(255,255,255,1)" stroke-width="1.5" fill-opacity="1" fill="#e60c0c"></path><g id="SvgjsG1065"><text id="SvgjsText1066" font-family="&quot;Microsoft YaHei&quot;, 微软雅黑, Arial" text-anchor="middle" font-size="30px" width="50px" fill="#ffffff" font-weight="400" align="middle" lineHeight="125%" anchor="middle" family="&quot;Microsoft YaHei&quot;, 微软雅黑, Arial" size="30px" weight="400" font-style="" opacity="1" y="9.25" transform="rotate(0)"><tspan id="SvgjsTspan1067" dy="37.5" x="35"><tspan id="SvgjsTspan1068" style="">8</tspan></tspan></text></g></g><g id="SvgjsG1069" transform="translate(1117.6000061035156,292.85714285714295)"><path id="SvgjsPath1070" d="M 0 35C 0 -11.667 70 -11.667 70 35C 70 81.667 0 81.667 0 35Z" stroke="rgba(255,255,255,1)" stroke-width="1.5" fill-opacity="1" fill="#e60c0c"></path><g id="SvgjsG1071"><text id="SvgjsText1072" font-family="&quot;Microsoft YaHei&quot;, 微软雅黑, Arial" text-anchor="middle" font-size="30px" width="50px" fill="#ffffff" font-weight="400" align="middle" lineHeight="125%" anchor="middle" family="&quot;Microsoft YaHei&quot;, 微软雅黑, Arial" size="30px" weight="400" font-style="" opacity="1" y="9.25" transform="rotate(0)"><tspan id="SvgjsTspan1073" dy="37.5" x="35"><tspan id="SvgjsTspan1074" style="">12</tspan></tspan></text></g></g><g id="SvgjsG1075" transform="translate(1132,156.00000000000006)"><path id="SvgjsPath1076" d="M 0 35C 0 -11.667 133 -11.667 133 35C 133 81.667 0 81.667 0 35Z" stroke="rgba(255,255,255,1)" stroke-width="1.5" fill-opacity="1" fill="#7bd144"></path><g id="SvgjsG1077"><text id="SvgjsText1078" font-family="&quot;Microsoft YaHei&quot;, 微软雅黑, Arial" text-anchor="middle" font-size="24px" width="113px" fill="#323232" font-weight="400" align="middle" lineHeight="125%" anchor="middle" family="&quot;Microsoft YaHei&quot;, 微软雅黑, Arial" size="24px" weight="400" font-style="" opacity="1" y="14" transform="rotate(0)"><tspan id="SvgjsTspan1079" dy="30" x="66.5"><tspan id="SvgjsTspan1080" style="">cur_node</tspan></tspan></text></g></g><g id="SvgjsG1081" transform="translate(835,164.00000000000006)"><path id="SvgjsPath1082" d="M 0 4Q 0 0 4 0L 53 0Q 57 0 57 4L 57 50Q 57 54 53 54L 4 54Q 0 54 0 50Z" stroke="rgba(33,41,48,1)" stroke-width="1.5" fill-opacity="1" fill="#000000"></path><g id="SvgjsG1083"><text id="SvgjsText1084" font-family="&quot;Microsoft YaHei&quot;, 微软雅黑, Arial" text-anchor="middle" font-size="13px" width="37px" fill="#323232" font-weight="400" align="middle" lineHeight="125%" anchor="middle" family="&quot;Microsoft YaHei&quot;, 微软雅黑, Arial" size="13px" weight="400" font-style="" opacity="1" y="16.375" transform="rotate(0)"></text></g></g><g id="SvgjsG1085" transform="translate(730,171.00000000000006)"><path id="SvgjsPath1086" d="M 0 0L 84 0L 100 16L 100 40L 0 40L 0 0Z" stroke="none" fill-opacity="1" fill="#fff7bc"></path><path id="SvgjsPath1087" d="M 84 0L 84 16L 100 16Z" stroke="none" fill-opacity="1" fill="#e4d089"></path><path id="SvgjsPath1088" d="M 0 0L 84 0L 100 16L 100 40L 0 40L 0 0Z" stroke="none" fill="none"></path><g id="SvgjsG1089"><text id="SvgjsText1090" font-family="&quot;Microsoft YaHei&quot;, 微软雅黑, Arial" text-anchor="middle" font-size="20px" width="80px" fill="#323232" font-weight="400" align="middle" lineHeight="125%" anchor="middle" family="&quot;Microsoft YaHei&quot;, 微软雅黑, Arial" size="20px" weight="400" font-style="" opacity="1" y="2" transform="rotate(0)"><tspan id="SvgjsTspan1091" dy="25" x="50"><tspan id="SvgjsTspan1092" style="">叔叔节点</tspan></tspan></text></g></g><g id="SvgjsG1093"><path id="SvgjsPath1094" d="M983.3659152369128 85.44885637389012L1024 133.00000000000006" stroke="#323232" stroke-width="1.5" fill="none"></path></g><g id="SvgjsG1095"><path id="SvgjsPath1096" d="M863.9813556712943 163.424850699633L930.7827730693739 83.60697221339558" stroke="#323232" stroke-width="1.5" fill="none"></path></g><g id="SvgjsG1097"><path id="SvgjsPath1098" d="M1131.25 191.00000000000006L1102.7 191.00000000000006" stroke-dasharray="1.5,2.25" stroke="#323232" stroke-width="1.5" fill="none" marker-end="url(#SvgjsMarker1099)"></path></g><g id="SvgjsG1101" transform="translate(397,173.25000000000006)"><path id="SvgjsPath1102" d="M 0 0L 84 0L 100 16L 100 35.5L 0 35.5L 0 0Z" stroke="none" fill-opacity="1" fill="#fff7bc"></path><path id="SvgjsPath1103" d="M 84 0L 84 16L 100 16Z" stroke="none" fill-opacity="1" fill="#e4d089"></path><path id="SvgjsPath1104" d="M 0 0L 84 0L 100 16L 100 35.5L 0 35.5L 0 0Z" stroke="none" fill="none"></path><g id="SvgjsG1105"><text id="SvgjsText1106" font-family="&quot;Microsoft YaHei&quot;, 微软雅黑, Arial" text-anchor="middle" font-size="20px" width="80px" fill="#323232" font-weight="400" align="middle" lineHeight="125%" anchor="middle" family="&quot;Microsoft YaHei&quot;, 微软雅黑, Arial" size="20px" weight="400" font-style="" opacity="1" y="-0.25" transform="rotate(0)"><tspan id="SvgjsTspan1107" dy="25" x="50"><tspan id="SvgjsTspan1108" style="">父节点</tspan></tspan></text></g></g><g id="SvgjsG1109" transform="translate(1194.2857142857144,301.00000000000006)"><path id="SvgjsPath1110" d="M 0 0L 84 0L 100 16L 100 49L 0 49L 0 0Z" stroke="none" fill-opacity="1" fill="#fff7bc"></path><path id="SvgjsPath1111" d="M 84 0L 84 16L 100 16Z" stroke="none" fill-opacity="1" fill="#e4d089"></path><path id="SvgjsPath1112" d="M 0 0L 84 0L 100 16L 100 49L 0 49L 0 0Z" stroke="none" fill="none"></path><g id="SvgjsG1113"><text id="SvgjsText1114" font-family="&quot;Microsoft YaHei&quot;, 微软雅黑, Arial" text-anchor="middle" font-size="20px" width="80px" fill="#323232" font-weight="400" align="middle" lineHeight="125%" anchor="middle" family="&quot;Microsoft YaHei&quot;, 微软雅黑, Arial" size="20px" weight="400" font-style="" opacity="1" y="6.5" transform="rotate(0)"><tspan id="SvgjsTspan1115" dy="25" x="50"><tspan id="SvgjsTspan1116" style="">原父节点</tspan></tspan></text></g></g><g id="SvgjsG1117" transform="translate(295,37.75000000000006)"><path id="SvgjsPath1118" d="M 0 0L 84 0L 100 16L 100 34.5L 0 34.5L 0 0Z" stroke="none" fill-opacity="1" fill="#fff7bc"></path><path id="SvgjsPath1119" d="M 84 0L 84 16L 100 16Z" stroke="none" fill-opacity="1" fill="#e4d089"></path><path id="SvgjsPath1120" d="M 0 0L 84 0L 100 16L 100 34.5L 0 34.5L 0 0Z" stroke="none" fill="none"></path><g id="SvgjsG1121"><text id="SvgjsText1122" font-family="&quot;Microsoft YaHei&quot;, 微软雅黑, Arial" text-anchor="middle" font-size="20px" width="80px" fill="#323232" font-weight="400" align="middle" lineHeight="125%" anchor="middle" family="&quot;Microsoft YaHei&quot;, 微软雅黑, Arial" size="20px" weight="400" font-style="" opacity="1" y="-0.75" transform="rotate(0)"><tspan id="SvgjsTspan1123" dy="25" x="50"><tspan id="SvgjsTspan1124" style="">爷爷节点</tspan></tspan></text></g></g><g id="SvgjsG1125" transform="translate(993,35.50000000000006)"><path id="SvgjsPath1126" d="M 0 0L 108.6 0L 124.6 16L 124.6 39L 0 39L 0 0Z" stroke="none" fill-opacity="1" fill="#fff7bc"></path><path id="SvgjsPath1127" d="M 108.6 0L 108.6 16L 124.6 16Z" stroke="none" fill-opacity="1" fill="#e4d089"></path><path id="SvgjsPath1128" d="M 0 0L 108.6 0L 124.6 16L 124.6 39L 0 39L 0 0Z" stroke="none" fill="none"></path><g id="SvgjsG1129"><text id="SvgjsText1130" font-family="&quot;Microsoft YaHei&quot;, 微软雅黑, Arial" text-anchor="middle" font-size="20px" width="105px" fill="#323232" font-weight="400" align="middle" lineHeight="125%" anchor="middle" family="&quot;Microsoft YaHei&quot;, 微软雅黑, Arial" size="20px" weight="400" font-style="" opacity="1" y="1.5" transform="rotate(0)"><tspan id="SvgjsTspan1131" dy="25" x="62.5"><tspan id="SvgjsTspan1132" style="">原爷爷节点</tspan></tspan></text></g></g><g id="SvgjsG1133" transform="translate(497,96.00000000000006)"><path id="SvgjsPath1134" d="M 0 19.8L 177.6 19.8L 177.6 0L 207.6 30L 177.6 60L 177.6 40.2L 0 40.2L 0 19.8Z" stroke="rgba(33,41,48,1)" stroke-width="1.5" fill-opacity="1" fill="#ffffff"></path><g id="SvgjsG1135"><text id="SvgjsText1136" font-family="&quot;Microsoft YaHei&quot;, 微软雅黑, Arial" text-anchor="middle" font-size="13px" width="208px" fill="#323232" font-weight="400" align="middle" lineHeight="125%" anchor="middle" family="&quot;Microsoft YaHei&quot;, 微软雅黑, Arial" size="13px" weight="400" font-style="" opacity="1" y="19.375" transform="rotate(0)"></text></g></g><g id="SvgjsG1137" transform="translate(541,72.25000000000006)"><path id="SvgjsPath1138" d="M 0 0L 100 0L 100 40L 0 40Z" stroke="none" fill="none"></path><g id="SvgjsG1139"><text id="SvgjsText1140" font-family="&quot;Microsoft YaHei&quot;, 微软雅黑, Arial" text-anchor="middle" font-size="20px" width="100px" fill="#323232" font-weight="400" align="middle" lineHeight="125%" anchor="middle" family="&quot;Microsoft YaHei&quot;, 微软雅黑, Arial" size="20px" weight="400" font-style="" opacity="1" y="2" transform="rotate(0)"><tspan id="SvgjsTspan1141" dy="25" x="50"><tspan id="SvgjsTspan1142" style="">右旋</tspan></tspan></text></g></g><g id="SvgjsG1143"><path id="SvgjsPath1144" d="M1084.632268655002 221.06014373482458L1133.4098483342623 297.23441121535615" stroke="#323232" stroke-width="1.5" fill="none"></path></g><g id="SvgjsG1145" transform="translate(1673,25)"><path id="SvgjsPath1146" d="M 0 35C 0 -11.667 70 -11.667 70 35C 70 81.667 0 81.667 0 35Z" stroke="rgba(255,255,255,1)" stroke-width="1.5" fill-opacity="1" fill="#000000"></path><g id="SvgjsG1147"><text id="SvgjsText1148" font-family="&quot;Microsoft YaHei&quot;, 微软雅黑, Arial" text-anchor="middle" font-size="30px" width="50px" fill="#ffffff" font-weight="400" align="middle" lineHeight="125%" anchor="middle" family="&quot;Microsoft YaHei&quot;, 微软雅黑, Arial" size="30px" weight="400" font-style="" opacity="1" y="9.25" transform="rotate(0)"><tspan id="SvgjsTspan1149" dy="37.5" x="35"><tspan id="SvgjsTspan1150" style="">7</tspan></tspan></text></g></g><g id="SvgjsG1151" transform="translate(1780,156)"><path id="SvgjsPath1152" d="M 0 35C 0 -11.667 70 -11.667 70 35C 70 81.667 0 81.667 0 35Z" stroke="rgba(255,255,255,1)" stroke-width="1.5" fill-opacity="1" fill="#e60c0c"></path><g id="SvgjsG1153"><text id="SvgjsText1154" font-family="&quot;Microsoft YaHei&quot;, 微软雅黑, Arial" text-anchor="middle" font-size="30px" width="50px" fill="#ffffff" font-weight="400" align="middle" lineHeight="125%" anchor="middle" family="&quot;Microsoft YaHei&quot;, 微软雅黑, Arial" size="30px" weight="400" font-style="" opacity="1" y="9.25" transform="rotate(0)"><tspan id="SvgjsTspan1155" dy="37.5" x="35"><tspan id="SvgjsTspan1156" style="">8</tspan></tspan></text></g></g><g id="SvgjsG1157" transform="translate(1867.6000061035174,292.85714285714306)"><path id="SvgjsPath1158" d="M 0 35C 0 -11.667 70 -11.667 70 35C 70 81.667 0 81.667 0 35Z" stroke="rgba(255,255,255,1)" stroke-width="1.5" fill-opacity="1" fill="#e60c0c"></path><g id="SvgjsG1159"><text id="SvgjsText1160" font-family="&quot;Microsoft YaHei&quot;, 微软雅黑, Arial" text-anchor="middle" font-size="30px" width="50px" fill="#ffffff" font-weight="400" align="middle" lineHeight="125%" anchor="middle" family="&quot;Microsoft YaHei&quot;, 微软雅黑, Arial" size="30px" weight="400" font-style="" opacity="1" y="9.25" transform="rotate(0)"><tspan id="SvgjsTspan1161" dy="37.5" x="35"><tspan id="SvgjsTspan1162" style="">12</tspan></tspan></text></g></g><g id="SvgjsG1163" transform="translate(1882.0000000000018,156)"><path id="SvgjsPath1164" d="M 0 35C 0 -11.667 133 -11.667 133 35C 133 81.667 0 81.667 0 35Z" stroke="rgba(255,255,255,1)" stroke-width="1.5" fill-opacity="1" fill="#7bd144"></path><g id="SvgjsG1165"><text id="SvgjsText1166" font-family="&quot;Microsoft YaHei&quot;, 微软雅黑, Arial" text-anchor="middle" font-size="24px" width="113px" fill="#323232" font-weight="400" align="middle" lineHeight="125%" anchor="middle" family="&quot;Microsoft YaHei&quot;, 微软雅黑, Arial" size="24px" weight="400" font-style="" opacity="1" y="14" transform="rotate(0)"><tspan id="SvgjsTspan1167" dy="30" x="66.5"><tspan id="SvgjsTspan1168" style="">cur_node</tspan></tspan></text></g></g><g id="SvgjsG1169" transform="translate(1585,164)"><path id="SvgjsPath1170" d="M 0 4Q 0 0 4 0L 53 0Q 57 0 57 4L 57 50Q 57 54 53 54L 4 54Q 0 54 0 50Z" stroke="rgba(33,41,48,1)" stroke-width="1.5" fill-opacity="1" fill="#000000"></path><g id="SvgjsG1171"><text id="SvgjsText1172" font-family="&quot;Microsoft YaHei&quot;, 微软雅黑, Arial" text-anchor="middle" font-size="13px" width="37px" fill="#323232" font-weight="400" align="middle" lineHeight="125%" anchor="middle" family="&quot;Microsoft YaHei&quot;, 微软雅黑, Arial" size="13px" weight="400" font-style="" opacity="1" y="16.375" transform="rotate(0)"></text></g></g><g id="SvgjsG1173" transform="translate(1480,171)"><path id="SvgjsPath1174" d="M 0 0L 84 0L 100 16L 100 40L 0 40L 0 0Z" stroke="none" fill-opacity="1" fill="#fff7bc"></path><path id="SvgjsPath1175" d="M 84 0L 84 16L 100 16Z" stroke="none" fill-opacity="1" fill="#e4d089"></path><path id="SvgjsPath1176" d="M 0 0L 84 0L 100 16L 100 40L 0 40L 0 0Z" stroke="none" fill="none"></path><g id="SvgjsG1177"><text id="SvgjsText1178" font-family="&quot;Microsoft YaHei&quot;, 微软雅黑, Arial" text-anchor="middle" font-size="20px" width="80px" fill="#323232" font-weight="400" align="middle" lineHeight="125%" anchor="middle" family="&quot;Microsoft YaHei&quot;, 微软雅黑, Arial" size="20px" weight="400" font-style="" opacity="1" y="2" transform="rotate(0)"><tspan id="SvgjsTspan1179" dy="25" x="50"><tspan id="SvgjsTspan1180" style="">叔叔节点</tspan></tspan></text></g></g><g id="SvgjsG1181"><path id="SvgjsPath1182" d="M1733.3344862147464 85.47428051389886L1792.7054675056454 163.05413696976797" stroke="#323232" stroke-width="1.5" fill="none"></path></g><g id="SvgjsG1183"><path id="SvgjsPath1184" d="M1613.9813556712943 163.42485069963294L1680.782773069374 83.60697221339552" stroke="#323232" stroke-width="1.5" fill="none"></path></g><g id="SvgjsG1185"><path id="SvgjsPath1186" d="M1881.2500000000018 191L1852.6999999999998 191" stroke-dasharray="1.5,2.25" stroke="#323232" stroke-width="1.5" fill="none" marker-end="url(#SvgjsMarker1187)"></path></g><g id="SvgjsG1189" transform="translate(1944.2857142857156,301.00000000000017)"><path id="SvgjsPath1190" d="M 0 0L 84 0L 100 16L 100 49L 0 49L 0 0Z" stroke="none" fill-opacity="1" fill="#fff7bc"></path><path id="SvgjsPath1191" d="M 84 0L 84 16L 100 16Z" stroke="none" fill-opacity="1" fill="#e4d089"></path><path id="SvgjsPath1192" d="M 0 0L 84 0L 100 16L 100 49L 0 49L 0 0Z" stroke="none" fill="none"></path><g id="SvgjsG1193"><text id="SvgjsText1194" font-family="&quot;Microsoft YaHei&quot;, 微软雅黑, Arial" text-anchor="middle" font-size="20px" width="80px" fill="#323232" font-weight="400" align="middle" lineHeight="125%" anchor="middle" family="&quot;Microsoft YaHei&quot;, 微软雅黑, Arial" size="20px" weight="400" font-style="" opacity="1" y="6.5" transform="rotate(0)"><tspan id="SvgjsTspan1195" dy="25" x="50"><tspan id="SvgjsTspan1196" style="">原父节点</tspan></tspan></text></g></g><g id="SvgjsG1197" transform="translate(1743,35.5)"><path id="SvgjsPath1198" d="M 0 0L 108.6 0L 124.6 16L 124.6 39L 0 39L 0 0Z" stroke="none" fill-opacity="1" fill="#fff7bc"></path><path id="SvgjsPath1199" d="M 108.6 0L 108.6 16L 124.6 16Z" stroke="none" fill-opacity="1" fill="#e4d089"></path><path id="SvgjsPath1200" d="M 0 0L 108.6 0L 124.6 16L 124.6 39L 0 39L 0 0Z" stroke="none" fill="none"></path><g id="SvgjsG1201"><text id="SvgjsText1202" font-family="&quot;Microsoft YaHei&quot;, 微软雅黑, Arial" text-anchor="middle" font-size="20px" width="105px" fill="#323232" font-weight="400" align="middle" lineHeight="125%" anchor="middle" family="&quot;Microsoft YaHei&quot;, 微软雅黑, Arial" size="20px" weight="400" font-style="" opacity="1" y="1.5" transform="rotate(0)"><tspan id="SvgjsTspan1203" dy="25" x="62.5"><tspan id="SvgjsTspan1204" style="">原爷爷节点</tspan></tspan></text></g></g><g id="SvgjsG1205"><path id="SvgjsPath1206" d="M1834.6322686550025 221.06014373482475L1883.4098483342636 297.2344112153564" stroke="#323232" stroke-width="1.5" fill="none"></path></g><g id="SvgjsG1207" transform="matrix(0.7071067811865474,-0.7071067811865477,0.7071067811865477,0.7071067811865474,169.84362666324128,300.2588997082952)"><path id="SvgjsPath1208" d="M 0 64.64C 0 -21.547 266.826 -21.547 266.826 64.64C 266.826 150.828 0 150.828 0 64.64Z" stroke-dasharray="2,3" stroke="rgba(70,105,234,1)" stroke-width="2" fill="none"></path><g id="SvgjsG1209"><text id="SvgjsText1210" font-family="&quot;Microsoft YaHei&quot;, 微软雅黑, Arial" text-anchor="middle" font-size="13px" width="247px" fill="#323232" font-weight="400" align="middle" lineHeight="125%" anchor="middle" family="&quot;Microsoft YaHei&quot;, 微软雅黑, Arial" size="13px" weight="400" font-style="" opacity="1" y="54.0155" transform="rotate(0)"></text></g></g><g id="SvgjsG1211" transform="matrix(-0.5000000000000004,-0.8660254037844384,0.8660254037844384,-0.5000000000000004,1120.6146303617672,406.155290423308)"><path id="SvgjsPath1212" d="M 0 64.64C 0 -21.547 266.826 -21.547 266.826 64.64C 266.826 150.828 0 150.828 0 64.64Z" stroke-dasharray="2,3" stroke="rgba(70,105,234,1)" stroke-width="2" fill="none"></path><g id="SvgjsG1213"><text id="SvgjsText1214" font-family="&quot;Microsoft YaHei&quot;, 微软雅黑, Arial" text-anchor="middle" font-size="13px" width="247px" fill="#323232" font-weight="400" align="middle" lineHeight="125%" anchor="middle" family="&quot;Microsoft YaHei&quot;, 微软雅黑, Arial" size="13px" weight="400" font-style="" opacity="1" y="54.0155" transform="rotate(0)"></text></g></g><g id="SvgjsG1215" transform="translate(1698.2666625976562,331.3333384195965)"><path id="SvgjsPath1216" d="M 19.8 0L 40.2 0L 40.2 171.667L 60 171.667L 30 201.667L 0 171.667L 19.8 171.667L 19.8 0Z" stroke="rgba(33,41,48,1)" stroke-width="1.5" fill-opacity="1" fill="#ffffff"></path><g id="SvgjsG1217"><text id="SvgjsText1218" font-family="&quot;Microsoft YaHei&quot;, 微软雅黑, Arial" text-anchor="middle" font-size="13px" width="84px" fill="#323232" font-weight="400" align="middle" lineHeight="125%" anchor="middle" family="&quot;Microsoft YaHei&quot;, 微软雅黑, Arial" size="13px" weight="400" font-style="" opacity="1" y="80.125" transform="rotate(0)"></text></g></g><g id="SvgjsG1219" transform="translate(1571.5999959309897,401.3333384195965)"><path id="SvgjsPath1220" d="M 0 0L 100 0L 100 40L 0 40Z" stroke="none" fill="none"></path><g id="SvgjsG1221"><text id="SvgjsText1222" font-family="&quot;Microsoft YaHei&quot;, 微软雅黑, Arial" text-anchor="middle" font-size="20px" width="100px" fill="#323232" font-weight="400" align="middle" lineHeight="125%" anchor="middle" family="&quot;Microsoft YaHei&quot;, 微软雅黑, Arial" size="20px" weight="400" font-style="" opacity="1" y="2" transform="rotate(0)"><tspan id="SvgjsTspan1223" dy="25" x="50"><tspan id="SvgjsTspan1224" style="">左旋爷爷</tspan></tspan></text></g></g><g id="SvgjsG1225" transform="translate(1668,714.3333333333333)"><path id="SvgjsPath1226" d="M 0 35C 0 -11.667 70 -11.667 70 35C 70 81.667 0 81.667 0 35Z" stroke="rgba(255,255,255,1)" stroke-width="1.5" fill-opacity="1" fill="#000000"></path><g id="SvgjsG1227"><text id="SvgjsText1228" font-family="&quot;Microsoft YaHei&quot;, 微软雅黑, Arial" text-anchor="middle" font-size="30px" width="50px" fill="#ffffff" font-weight="400" align="middle" lineHeight="125%" anchor="middle" family="&quot;Microsoft YaHei&quot;, 微软雅黑, Arial" size="30px" weight="400" font-style="" opacity="1" y="9.25" transform="rotate(0)"><tspan id="SvgjsTspan1229" dy="37.5" x="35"><tspan id="SvgjsTspan1230" style="">7</tspan></tspan></text></g></g><g id="SvgjsG1231" transform="translate(1746.6666666666665,569.3333333333333)"><path id="SvgjsPath1232" d="M 0 35C 0 -11.667 70 -11.667 70 35C 70 81.667 0 81.667 0 35Z" stroke="rgba(255,255,255,1)" stroke-width="1.5" fill-opacity="1" fill="#e60c0c"></path><g id="SvgjsG1233"><text id="SvgjsText1234" font-family="&quot;Microsoft YaHei&quot;, 微软雅黑, Arial" text-anchor="middle" font-size="30px" width="50px" fill="#ffffff" font-weight="400" align="middle" lineHeight="125%" anchor="middle" family="&quot;Microsoft YaHei&quot;, 微软雅黑, Arial" size="30px" weight="400" font-style="" opacity="1" y="9.25" transform="rotate(0)"><tspan id="SvgjsTspan1235" dy="37.5" x="35"><tspan id="SvgjsTspan1236" style="">8</tspan></tspan></text></g></g><g id="SvgjsG1237" transform="translate(1834.2666727701835,706.1904761904764)"><path id="SvgjsPath1238" d="M 0 35C 0 -11.667 70 -11.667 70 35C 70 81.667 0 81.667 0 35Z" stroke="rgba(255,255,255,1)" stroke-width="1.5" fill-opacity="1" fill="#e60c0c"></path><g id="SvgjsG1239"><text id="SvgjsText1240" font-family="&quot;Microsoft YaHei&quot;, 微软雅黑, Arial" text-anchor="middle" font-size="30px" width="50px" fill="#ffffff" font-weight="400" align="middle" lineHeight="125%" anchor="middle" family="&quot;Microsoft YaHei&quot;, 微软雅黑, Arial" size="30px" weight="400" font-style="" opacity="1" y="9.25" transform="rotate(0)"><tspan id="SvgjsTspan1241" dy="37.5" x="35"><tspan id="SvgjsTspan1242" style="">12</tspan></tspan></text></g></g><g id="SvgjsG1243" transform="translate(1848.6666666666679,569.3333333333333)"><path id="SvgjsPath1244" d="M 0 35C 0 -11.667 133 -11.667 133 35C 133 81.667 0 81.667 0 35Z" stroke="rgba(255,255,255,1)" stroke-width="1.5" fill-opacity="1" fill="#7bd144"></path><g id="SvgjsG1245"><text id="SvgjsText1246" font-family="&quot;Microsoft YaHei&quot;, 微软雅黑, Arial" text-anchor="middle" font-size="24px" width="113px" fill="#323232" font-weight="400" align="middle" lineHeight="125%" anchor="middle" family="&quot;Microsoft YaHei&quot;, 微软雅黑, Arial" size="24px" weight="400" font-style="" opacity="1" y="14" transform="rotate(0)"><tspan id="SvgjsTspan1247" dy="30" x="66.5"><tspan id="SvgjsTspan1248" style="">cur_node</tspan></tspan></text></g></g><g id="SvgjsG1249" transform="translate(1580,853.333333333333)"><path id="SvgjsPath1250" d="M 0 4Q 0 0 4 0L 53 0Q 57 0 57 4L 57 50Q 57 54 53 54L 4 54Q 0 54 0 50Z" stroke="rgba(33,41,48,1)" stroke-width="1.5" fill-opacity="1" fill="#000000"></path><g id="SvgjsG1251"><text id="SvgjsText1252" font-family="&quot;Microsoft YaHei&quot;, 微软雅黑, Arial" text-anchor="middle" font-size="13px" width="37px" fill="#323232" font-weight="400" align="middle" lineHeight="125%" anchor="middle" family="&quot;Microsoft YaHei&quot;, 微软雅黑, Arial" size="13px" weight="400" font-style="" opacity="1" y="16.375" transform="rotate(0)"></text></g></g><g id="SvgjsG1253" transform="translate(1475,860.333333333333)"><path id="SvgjsPath1254" d="M 0 0L 84 0L 100 16L 100 40L 0 40L 0 0Z" stroke="none" fill-opacity="1" fill="#fff7bc"></path><path id="SvgjsPath1255" d="M 84 0L 84 16L 100 16Z" stroke="none" fill-opacity="1" fill="#e4d089"></path><path id="SvgjsPath1256" d="M 0 0L 84 0L 100 16L 100 40L 0 40L 0 0Z" stroke="none" fill="none"></path><g id="SvgjsG1257"><text id="SvgjsText1258" font-family="&quot;Microsoft YaHei&quot;, 微软雅黑, Arial" text-anchor="middle" font-size="20px" width="80px" fill="#323232" font-weight="400" align="middle" lineHeight="125%" anchor="middle" family="&quot;Microsoft YaHei&quot;, 微软雅黑, Arial" size="20px" weight="400" font-style="" opacity="1" y="2" transform="rotate(0)"><tspan id="SvgjsTspan1259" dy="25" x="50"><tspan id="SvgjsTspan1260" style="">叔叔节点</tspan></tspan></text></g></g><g id="SvgjsG1261"><path id="SvgjsPath1262" d="M1608.9813556712943 852.758184032966L1675.782773069374 772.940305546729" stroke="#323232" stroke-width="1.5" fill="none"></path></g><g id="SvgjsG1263"><path id="SvgjsPath1264" d="M1847.9166666666679 604.3333333333335L1819.366666666666 604.3333333333335" stroke-dasharray="1.5,2.25" stroke="#323232" stroke-width="1.5" fill="none" marker-end="url(#SvgjsMarker1265)"></path></g><g id="SvgjsG1267" transform="translate(1910.9523809523816,714.3333333333333)"><path id="SvgjsPath1268" d="M 0 0L 84 0L 100 16L 100 49L 0 49L 0 0Z" stroke="none" fill-opacity="1" fill="#fff7bc"></path><path id="SvgjsPath1269" d="M 84 0L 84 16L 100 16Z" stroke="none" fill-opacity="1" fill="#e4d089"></path><path id="SvgjsPath1270" d="M 0 0L 84 0L 100 16L 100 49L 0 49L 0 0Z" stroke="none" fill="none"></path><g id="SvgjsG1271"><text id="SvgjsText1272" font-family="&quot;Microsoft YaHei&quot;, 微软雅黑, Arial" text-anchor="middle" font-size="20px" width="80px" fill="#323232" font-weight="400" align="middle" lineHeight="125%" anchor="middle" family="&quot;Microsoft YaHei&quot;, 微软雅黑, Arial" size="20px" weight="400" font-style="" opacity="1" y="6.5" transform="rotate(0)"><tspan id="SvgjsTspan1273" dy="25" x="50"><tspan id="SvgjsTspan1274" style="">原父节点</tspan></tspan></text></g></g><g id="SvgjsG1275" transform="translate(1532.066660563151,724.8333231608069)"><path id="SvgjsPath1276" d="M 0 0L 108.6 0L 124.6 16L 124.6 39L 0 39L 0 0Z" stroke="none" fill-opacity="1" fill="#fff7bc"></path><path id="SvgjsPath1277" d="M 108.6 0L 108.6 16L 124.6 16Z" stroke="none" fill-opacity="1" fill="#e4d089"></path><path id="SvgjsPath1278" d="M 0 0L 108.6 0L 124.6 16L 124.6 39L 0 39L 0 0Z" stroke="none" fill="none"></path><g id="SvgjsG1279"><text id="SvgjsText1280" font-family="&quot;Microsoft YaHei&quot;, 微软雅黑, Arial" text-anchor="middle" font-size="20px" width="105px" fill="#323232" font-weight="400" align="middle" lineHeight="125%" anchor="middle" family="&quot;Microsoft YaHei&quot;, 微软雅黑, Arial" size="20px" weight="400" font-style="" opacity="1" y="1.5" transform="rotate(0)"><tspan id="SvgjsTspan1281" dy="25" x="62.5"><tspan id="SvgjsTspan1282" style="">原爷爷节点</tspan></tspan></text></g></g><g id="SvgjsG1283"><path id="SvgjsPath1284" d="M1801.2989353216685 634.3934770681581L1850.0765150009297 710.5677445486895" stroke="#323232" stroke-width="1.5" fill="none"></path></g><g id="SvgjsG1285"><path id="SvgjsPath1286" d="M1764.2722890633436 635.9869235540302L1720.2028563773647 717.601909897794" stroke="#323232" stroke-width="1.5" fill="none"></path></g><g id="SvgjsG1287" transform="translate(789.0476190476186,801.9999898274739)"><path id="SvgjsPath1288" d="M 0 35C 0 -11.667 70 -11.667 70 35C 70 81.667 0 81.667 0 35Z" stroke="rgba(255,255,255,1)" stroke-width="1.5" fill-opacity="1" fill="#e60c0c"></path><g id="SvgjsG1289"><text id="SvgjsText1290" font-family="&quot;Microsoft YaHei&quot;, 微软雅黑, Arial" text-anchor="middle" font-size="30px" width="50px" fill="#ffffff" font-weight="400" align="middle" lineHeight="125%" anchor="middle" family="&quot;Microsoft YaHei&quot;, 微软雅黑, Arial" size="30px" weight="400" font-style="" opacity="1" y="9.25" transform="rotate(0)"><tspan id="SvgjsTspan1291" dy="37.5" x="35"><tspan id="SvgjsTspan1292" style="">7</tspan></tspan></text></g></g><g id="SvgjsG1293" transform="translate(867.7142857142858,656.9999898274739)"><path id="SvgjsPath1294" d="M 0 35C 0 -11.667 70 -11.667 70 35C 70 81.667 0 81.667 0 35Z" stroke="rgba(255,255,255,1)" stroke-width="1.5" fill-opacity="1" fill="#000000"></path><g id="SvgjsG1295"><text id="SvgjsText1296" font-family="&quot;Microsoft YaHei&quot;, 微软雅黑, Arial" text-anchor="middle" font-size="30px" width="50px" fill="#ffffff" font-weight="400" align="middle" lineHeight="125%" anchor="middle" family="&quot;Microsoft YaHei&quot;, 微软雅黑, Arial" size="30px" weight="400" font-style="" opacity="1" y="9.25" transform="rotate(0)"><tspan id="SvgjsTspan1297" dy="37.5" x="35"><tspan id="SvgjsTspan1298" style="">8</tspan></tspan></text></g></g><g id="SvgjsG1299" transform="translate(955.3142918178023,793.857132684617)"><path id="SvgjsPath1300" d="M 0 35C 0 -11.667 70 -11.667 70 35C 70 81.667 0 81.667 0 35Z" stroke="rgba(255,255,255,1)" stroke-width="1.5" fill-opacity="1" fill="#e60c0c"></path><g id="SvgjsG1301"><text id="SvgjsText1302" font-family="&quot;Microsoft YaHei&quot;, 微软雅黑, Arial" text-anchor="middle" font-size="30px" width="50px" fill="#ffffff" font-weight="400" align="middle" lineHeight="125%" anchor="middle" family="&quot;Microsoft YaHei&quot;, 微软雅黑, Arial" size="30px" weight="400" font-style="" opacity="1" y="9.25" transform="rotate(0)"><tspan id="SvgjsTspan1303" dy="37.5" x="35"><tspan id="SvgjsTspan1304" style="">12</tspan></tspan></text></g></g><g id="SvgjsG1305" transform="translate(969.7142857142867,656.9999898274739)"><path id="SvgjsPath1306" d="M 0 35C 0 -11.667 133 -11.667 133 35C 133 81.667 0 81.667 0 35Z" stroke="rgba(255,255,255,1)" stroke-width="1.5" fill-opacity="1" fill="#7bd144"></path><g id="SvgjsG1307"><text id="SvgjsText1308" font-family="&quot;Microsoft YaHei&quot;, 微软雅黑, Arial" text-anchor="middle" font-size="24px" width="113px" fill="#323232" font-weight="400" align="middle" lineHeight="125%" anchor="middle" family="&quot;Microsoft YaHei&quot;, 微软雅黑, Arial" size="24px" weight="400" font-style="" opacity="1" y="14" transform="rotate(0)"><tspan id="SvgjsTspan1309" dy="30" x="66.5"><tspan id="SvgjsTspan1310" style="">cur_node</tspan></tspan></text></g></g><g id="SvgjsG1311" transform="translate(701.0476190476186,940.9999898274737)"><path id="SvgjsPath1312" d="M 0 4Q 0 0 4 0L 53 0Q 57 0 57 4L 57 50Q 57 54 53 54L 4 54Q 0 54 0 50Z" stroke="rgba(33,41,48,1)" stroke-width="1.5" fill-opacity="1" fill="#000000"></path><g id="SvgjsG1313"><text id="SvgjsText1314" font-family="&quot;Microsoft YaHei&quot;, 微软雅黑, Arial" text-anchor="middle" font-size="13px" width="37px" fill="#323232" font-weight="400" align="middle" lineHeight="125%" anchor="middle" family="&quot;Microsoft YaHei&quot;, 微软雅黑, Arial" size="13px" weight="400" font-style="" opacity="1" y="16.375" transform="rotate(0)"></text></g></g><g id="SvgjsG1315" transform="translate(596.0476190476186,947.9999898274737)"><path id="SvgjsPath1316" d="M 0 0L 84 0L 100 16L 100 40L 0 40L 0 0Z" stroke="none" fill-opacity="1" fill="#fff7bc"></path><path id="SvgjsPath1317" d="M 84 0L 84 16L 100 16Z" stroke="none" fill-opacity="1" fill="#e4d089"></path><path id="SvgjsPath1318" d="M 0 0L 84 0L 100 16L 100 40L 0 40L 0 0Z" stroke="none" fill="none"></path><g id="SvgjsG1319"><text id="SvgjsText1320" font-family="&quot;Microsoft YaHei&quot;, 微软雅黑, Arial" text-anchor="middle" font-size="20px" width="80px" fill="#323232" font-weight="400" align="middle" lineHeight="125%" anchor="middle" family="&quot;Microsoft YaHei&quot;, 微软雅黑, Arial" size="20px" weight="400" font-style="" opacity="1" y="2" transform="rotate(0)"><tspan id="SvgjsTspan1321" dy="25" x="50"><tspan id="SvgjsTspan1322" style="">叔叔节点</tspan></tspan></text></g></g><g id="SvgjsG1323"><path id="SvgjsPath1324" d="M730.028974718913 940.4248405271067L796.8303921169924 860.6069620408696" stroke="#323232" stroke-width="1.5" fill="none"></path></g><g id="SvgjsG1325"><path id="SvgjsPath1326" d="M968.9642857142867 691.9999898274741L940.4142857142845 691.9999898274741" stroke-dasharray="1.5,2.25" stroke="#323232" stroke-width="1.5" fill="none" marker-end="url(#SvgjsMarker1327)"></path></g><g id="SvgjsG1329" transform="translate(1032,801.9999898274739)"><path id="SvgjsPath1330" d="M 0 0L 84 0L 100 16L 100 49L 0 49L 0 0Z" stroke="none" fill-opacity="1" fill="#fff7bc"></path><path id="SvgjsPath1331" d="M 84 0L 84 16L 100 16Z" stroke="none" fill-opacity="1" fill="#e4d089"></path><path id="SvgjsPath1332" d="M 0 0L 84 0L 100 16L 100 49L 0 49L 0 0Z" stroke="none" fill="none"></path><g id="SvgjsG1333"><text id="SvgjsText1334" font-family="&quot;Microsoft YaHei&quot;, 微软雅黑, Arial" text-anchor="middle" font-size="20px" width="80px" fill="#323232" font-weight="400" align="middle" lineHeight="125%" anchor="middle" family="&quot;Microsoft YaHei&quot;, 微软雅黑, Arial" size="20px" weight="400" font-style="" opacity="1" y="6.5" transform="rotate(0)"><tspan id="SvgjsTspan1335" dy="25" x="50"><tspan id="SvgjsTspan1336" style="">原父节点</tspan></tspan></text></g></g><g id="SvgjsG1337" transform="translate(653.1142796107695,812.4999796549475)"><path id="SvgjsPath1338" d="M 0 0L 108.6 0L 124.6 16L 124.6 39L 0 39L 0 0Z" stroke="none" fill-opacity="1" fill="#fff7bc"></path><path id="SvgjsPath1339" d="M 108.6 0L 108.6 16L 124.6 16Z" stroke="none" fill-opacity="1" fill="#e4d089"></path><path id="SvgjsPath1340" d="M 0 0L 108.6 0L 124.6 16L 124.6 39L 0 39L 0 0Z" stroke="none" fill="none"></path><g id="SvgjsG1341"><text id="SvgjsText1342" font-family="&quot;Microsoft YaHei&quot;, 微软雅黑, Arial" text-anchor="middle" font-size="20px" width="105px" fill="#323232" font-weight="400" align="middle" lineHeight="125%" anchor="middle" family="&quot;Microsoft YaHei&quot;, 微软雅黑, Arial" size="20px" weight="400" font-style="" opacity="1" y="1.5" transform="rotate(0)"><tspan id="SvgjsTspan1343" dy="25" x="62.5"><tspan id="SvgjsTspan1344" style="">原爷爷节点</tspan></tspan></text></g></g><g id="SvgjsG1345"><path id="SvgjsPath1346" d="M922.3465543692873 722.0601335622987L971.1241340485485 798.2344010428301" stroke="#323232" stroke-width="1.5" fill="none"></path></g><g id="SvgjsG1347"><path id="SvgjsPath1348" d="M885.3199081109628 723.6535800481709L841.2504754249835 805.2685663919347" stroke="#323232" stroke-width="1.5" fill="none"></path></g><g id="SvgjsG1349" transform="translate(1219.933329264323,783.3333129882806)"><path id="SvgjsPath1350" d="M 0 30L 30 0L 30 19.8L 198.333 19.8L 198.333 40.2L 30 40.2L 30 60L 0 30Z" stroke="rgba(33,41,48,1)" stroke-width="1.5" fill-opacity="1" fill="#ffffff"></path><g id="SvgjsG1351"><text id="SvgjsText1352" font-family="&quot;Microsoft YaHei&quot;, 微软雅黑, Arial" text-anchor="middle" font-size="13px" width="199px" fill="#323232" font-weight="400" align="middle" lineHeight="125%" anchor="middle" family="&quot;Microsoft YaHei&quot;, 微软雅黑, Arial" size="13px" weight="400" font-style="" opacity="1" y="19.375" transform="rotate(0)"></text></g></g><g id="SvgjsG1353" transform="translate(1269.9333292643232,763.8333231608069)"><path id="SvgjsPath1354" d="M 0 0L 100 0L 100 40L 0 40Z" stroke="none" fill="none"></path><g id="SvgjsG1355"><text id="SvgjsText1356" font-family="&quot;Microsoft YaHei&quot;, 微软雅黑, Arial" text-anchor="middle" font-size="20px" width="100px" fill="#323232" font-weight="400" align="middle" lineHeight="125%" anchor="middle" family="&quot;Microsoft YaHei&quot;, 微软雅黑, Arial" size="20px" weight="400" font-style="" opacity="1" y="2" transform="rotate(0)"><tspan id="SvgjsTspan1357" dy="25" x="50"><tspan id="SvgjsTspan1358" style="">变色</tspan></tspan></text></g></g><g id="SvgjsG1359" transform="translate(1491.5999959309895,616.9999898274739)"><path id="SvgjsPath1360" d="M 0 0L 100 0L 100 40L 0 40Z" stroke="none" fill="none"></path><g id="SvgjsG1361"><text id="SvgjsText1362" font-family="&quot;Microsoft YaHei&quot;, 微软雅黑, Arial" text-anchor="middle" font-size="20px" width="100px" fill="#323232" font-weight="400" align="middle" lineHeight="125%" anchor="middle" family="&quot;Microsoft YaHei&quot;, 微软雅黑, Arial" size="20px" weight="400" font-style="" opacity="1" y="2" transform="rotate(0)"><tspan id="SvgjsTspan1363" dy="25" x="50"><tspan id="SvgjsTspan1364" style="">被旋转点</tspan></tspan></text></g></g><g id="SvgjsG1365"><path id="SvgjsPath1366" d="M1592.5992753921855 637.037944516668C 1645.8444897335805 636.9999898274739 1703 660.0888395307425 1702.7442621813227 711.6454720705265" stroke-dasharray="1.5,2.25" stroke="#323232" stroke-width="1.5" fill="none" marker-end="url(#SvgjsMarker1367)"></path></g><g id="SvgjsG1369" transform="translate(1898.5000000000018,478.3333333333334)"><path id="SvgjsPath1370" d="M 0 0L 100 0L 100 40L 0 40Z" stroke="none" fill="none"></path><g id="SvgjsG1371"><text id="SvgjsText1372" font-family="&quot;Microsoft YaHei&quot;, 微软雅黑, Arial" text-anchor="middle" font-size="20px" width="100px" fill="#323232" font-weight="400" align="middle" lineHeight="125%" anchor="middle" family="&quot;Microsoft YaHei&quot;, 微软雅黑, Arial" size="20px" weight="400" font-style="" opacity="1" y="2" transform="rotate(0)"><tspan id="SvgjsTspan1373" dy="25" x="50"><tspan id="SvgjsTspan1374" style="">旋转中心</tspan></tspan></text></g></g><g id="SvgjsG1375"><path id="SvgjsPath1376" d="M1897.5027074291556 498.40686923024833C 1849.0410413055129 498.3333333333334 1829.7944634619803 534.8085194722628 1803.6345323265898 573.5649701891759" stroke-dasharray="1.5,2.25" stroke="#323232" stroke-width="1.5" fill="none" marker-end="url(#SvgjsMarker1377)"></path></g><g id="SvgjsG1379"></g></svg>