<svg id="SvgjsSvg1006" width="2420.9999999999995" height="773.25" xmlns="http://www.w3.org/2000/svg" version="1.1" xmlns:xlink="http://www.w3.org/1999/xlink" xmlns:svgjs="http://svgjs.com/svgjs"><defs id="SvgjsDefs1007"><pattern patternUnits="userSpaceOnUse" id="pattern_mark_0" width="300" height="300"><text x="150" y="100" fill="rgba(229,229,229,0.8)" font-size="18" transform="rotate(-45, 150, 150)" style="dominant-baseline: middle; text-anchor: middle;"></text></pattern><pattern patternUnits="userSpaceOnUse" id="pattern_mark_1" width="300" height="300"><text x="150" y="200" fill="rgba(229,229,229,0.8)" font-size="18" transform="rotate(-45, 150, 150)" style="dominant-baseline: middle; text-anchor: middle;"></text></pattern><marker id="SvgjsMarker1031" markerWidth="13" markerHeight="9" refX="9.5" refY="4.5" viewBox="0 0 13 9" orient="auto" markerUnits="userSpaceOnUse" stroke-dasharray="0,0"><path id="SvgjsPath1032" d="M0,0 L13,4.5 L0,9 L0,0" fill="#323232" stroke="#323232" stroke-width="1"></path></marker><marker id="SvgjsMarker1035" markerWidth="13" markerHeight="9" refX="9.5" refY="4.5" viewBox="0 0 13 9" orient="auto" markerUnits="userSpaceOnUse" stroke-dasharray="0,0"><path id="SvgjsPath1036" d="M0,0 L13,4.5 L0,9 L0,0" fill="#323232" stroke="#323232" stroke-width="1"></path></marker><marker id="SvgjsMarker1045" markerWidth="13" markerHeight="9" refX="9.5" refY="4.5" viewBox="0 0 13 9" orient="auto" markerUnits="userSpaceOnUse" stroke-dasharray="0,0"><path id="SvgjsPath1046" d="M0,0 L13,4.5 L0,9 L0,0" fill="#323232" stroke="#323232" stroke-width="1"></path></marker><marker id="SvgjsMarker1053" markerWidth="13" markerHeight="9" refX="9.5" refY="4.5" viewBox="0 0 13 9" orient="auto" markerUnits="userSpaceOnUse" stroke-dasharray="0,0"><path id="SvgjsPath1054" d="M0,0 L13,4.5 L0,9 L0,0" fill="#323232" stroke="#323232" stroke-width="1"></path></marker><marker id="SvgjsMarker1083" markerWidth="13" markerHeight="9" refX="9.5" refY="4.5" viewBox="0 0 13 9" orient="auto" markerUnits="userSpaceOnUse" stroke-dasharray="0,0"><path id="SvgjsPath1084" d="M0,0 L13,4.5 L0,9 L0,0" fill="#323232" stroke="#323232" stroke-width="1"></path></marker><marker id="SvgjsMarker1087" markerWidth="13" markerHeight="9" refX="9.5" refY="4.5" viewBox="0 0 13 9" orient="auto" markerUnits="userSpaceOnUse" stroke-dasharray="0,0"><path id="SvgjsPath1088" d="M0,0 L13,4.5 L0,9 L0,0" fill="#323232" stroke="#323232" stroke-width="1"></path></marker><marker id="SvgjsMarker1097" markerWidth="13" markerHeight="9" refX="9.5" refY="4.5" viewBox="0 0 13 9" orient="auto" markerUnits="userSpaceOnUse" stroke-dasharray="0,0"><path id="SvgjsPath1098" d="M0,0 L13,4.5 L0,9 L0,0" fill="#323232" stroke="#323232" stroke-width="1"></path></marker><marker id="SvgjsMarker1105" markerWidth="13" markerHeight="9" refX="9.5" refY="4.5" viewBox="0 0 13 9" orient="auto" markerUnits="userSpaceOnUse" stroke-dasharray="0,0"><path id="SvgjsPath1106" d="M0,0 L13,4.5 L0,9 L0,0" fill="#323232" stroke="#323232" stroke-width="1"></path></marker><marker id="SvgjsMarker1123" markerWidth="13" markerHeight="9" refX="9.5" refY="4.5" viewBox="0 0 13 9" orient="auto" markerUnits="userSpaceOnUse" stroke-dasharray="0,0"><path id="SvgjsPath1124" d="M0,0 L13,4.5 L0,9 L0,0" fill="#323232" stroke="#323232" stroke-width="1"></path></marker><marker id="SvgjsMarker1133" markerWidth="13" markerHeight="9" refX="9.5" refY="4.5" viewBox="0 0 13 9" orient="auto" markerUnits="userSpaceOnUse" stroke-dasharray="0,0"><path id="SvgjsPath1134" d="M0,0 L13,4.5 L0,9 L0,0" fill="#323232" stroke="#323232" stroke-width="1"></path></marker><marker id="SvgjsMarker1155" markerWidth="13" markerHeight="9" refX="9.5" refY="4.5" viewBox="0 0 13 9" orient="auto" markerUnits="userSpaceOnUse" stroke-dasharray="0,0"><path id="SvgjsPath1156" d="M0,0 L13,4.5 L0,9 L0,0" fill="#323232" stroke="#323232" stroke-width="1"></path></marker><marker id="SvgjsMarker1165" markerWidth="13" markerHeight="9" refX="9.5" refY="4.5" viewBox="0 0 13 9" orient="auto" markerUnits="userSpaceOnUse" stroke-dasharray="0,0"><path id="SvgjsPath1166" d="M0,0 L13,4.5 L0,9 L0,0" fill="#323232" stroke="#323232" stroke-width="1"></path></marker><marker id="SvgjsMarker1173" markerWidth="13" markerHeight="9" refX="9.5" refY="4.5" viewBox="0 0 13 9" orient="auto" markerUnits="userSpaceOnUse" stroke-dasharray="0,0"><path id="SvgjsPath1174" d="M0,0 L13,4.5 L0,9 L0,0" fill="#323232" stroke="#323232" stroke-width="1"></path></marker><marker id="SvgjsMarker1191" markerWidth="13" markerHeight="9" refX="9.5" refY="4.5" viewBox="0 0 13 9" orient="auto" markerUnits="userSpaceOnUse" stroke-dasharray="0,0"><path id="SvgjsPath1192" d="M0,0 L13,4.5 L0,9 L0,0" fill="#323232" stroke="#323232" stroke-width="1"></path></marker><marker id="SvgjsMarker1201" markerWidth="13" markerHeight="9" refX="9.5" refY="4.5" viewBox="0 0 13 9" orient="auto" markerUnits="userSpaceOnUse" stroke-dasharray="0,0"><path id="SvgjsPath1202" d="M0,0 L13,4.5 L0,9 L0,0" fill="#323232" stroke="#323232" stroke-width="1"></path></marker><marker id="SvgjsMarker1205" markerWidth="13" markerHeight="9" refX="9.5" refY="4.5" viewBox="0 0 13 9" orient="auto" markerUnits="userSpaceOnUse" stroke-dasharray="0,0"><path id="SvgjsPath1206" d="M0,0 L13,4.5 L0,9 L0,0" fill="#323232" stroke="#323232" stroke-width="1"></path></marker><marker id="SvgjsMarker1235" markerWidth="13" markerHeight="9" refX="9.5" refY="4.5" viewBox="0 0 13 9" orient="auto" markerUnits="userSpaceOnUse" stroke-dasharray="0,0"><path id="SvgjsPath1236" d="M0,0 L13,4.5 L0,9 L0,0" fill="#323232" stroke="#323232" stroke-width="1"></path></marker><marker id="SvgjsMarker1245" markerWidth="13" markerHeight="9" refX="9.5" refY="4.5" viewBox="0 0 13 9" orient="auto" markerUnits="userSpaceOnUse" stroke-dasharray="0,0"><path id="SvgjsPath1246" d="M0,0 L13,4.5 L0,9 L0,0" fill="#323232" stroke="#323232" stroke-width="1"></path></marker><marker id="SvgjsMarker1253" markerWidth="13" markerHeight="9" refX="9.5" refY="4.5" viewBox="0 0 13 9" orient="auto" markerUnits="userSpaceOnUse" stroke-dasharray="0,0"><path id="SvgjsPath1254" d="M0,0 L13,4.5 L0,9 L0,0" fill="#323232" stroke="#323232" stroke-width="1"></path></marker><marker id="SvgjsMarker1271" markerWidth="13" markerHeight="9" refX="9.5" refY="4.5" viewBox="0 0 13 9" orient="auto" markerUnits="userSpaceOnUse" stroke-dasharray="0,0"><path id="SvgjsPath1272" d="M0,0 L13,4.5 L0,9 L0,0" fill="#323232" stroke="#323232" stroke-width="1"></path></marker><marker id="SvgjsMarker1281" markerWidth="13" markerHeight="9" refX="9.5" refY="4.5" viewBox="0 0 13 9" orient="auto" markerUnits="userSpaceOnUse" stroke-dasharray="0,0"><path id="SvgjsPath1282" d="M0,0 L13,4.5 L0,9 L0,0" fill="#323232" stroke="#323232" stroke-width="1"></path></marker><marker id="SvgjsMarker1285" markerWidth="13" markerHeight="9" refX="9.5" refY="4.5" viewBox="0 0 13 9" orient="auto" markerUnits="userSpaceOnUse" stroke-dasharray="0,0"><path id="SvgjsPath1286" d="M0,0 L13,4.5 L0,9 L0,0" fill="#323232" stroke="#323232" stroke-width="1"></path></marker></defs><rect id="svgbackgroundid" width="2420.9999999999995" height="773.25" fill="transparent"></rect><rect id="SvgjsRect1009" width="2420.9999999999995" height="773.25" fill="url(#pattern_mark_0)"></rect><rect id="SvgjsRect1010" width="2420.9999999999995" height="773.25" fill="url(#pattern_mark_1)"></rect><g id="SvgjsG1011" transform="translate(194,25)"><path id="SvgjsPath1012" d="M 0 35C 0 -11.667 70 -11.667 70 35C 70 81.667 0 81.667 0 35Z" stroke="rgba(255,255,255,1)" stroke-width="1.5" fill-opacity="1" fill="#000000"></path><g id="SvgjsG1013"><text id="SvgjsText1014" font-family="&quot;Microsoft YaHei&quot;, 微软雅黑, Arial" text-anchor="middle" font-size="30px" width="50px" fill="#ffffff" font-weight="400" align="middle" lineHeight="125%" anchor="middle" family="&quot;Microsoft YaHei&quot;, 微软雅黑, Arial" size="30px" weight="400" font-style="" opacity="1" y="9.25" transform="rotate(0)"><tspan id="SvgjsTspan1015" dy="37.5" x="35"><tspan id="SvgjsTspan1016" style="">7</tspan></tspan></text></g></g><g id="SvgjsG1017" transform="translate(274,142)"><path id="SvgjsPath1018" d="M 0 35C 0 -11.667 70 -11.667 70 35C 70 81.667 0 81.667 0 35Z" stroke="rgba(255,255,255,1)" stroke-width="1.5" fill-opacity="1" fill="#e60c0c"></path><g id="SvgjsG1019"><text id="SvgjsText1020" font-family="&quot;Microsoft YaHei&quot;, 微软雅黑, Arial" text-anchor="middle" font-size="30px" width="50px" fill="#ffffff" font-weight="400" align="middle" lineHeight="125%" anchor="middle" family="&quot;Microsoft YaHei&quot;, 微软雅黑, Arial" size="30px" weight="400" font-style="" opacity="1" y="9.25" transform="rotate(0)"><tspan id="SvgjsTspan1021" dy="37.5" x="35"><tspan id="SvgjsTspan1022" style="">9</tspan></tspan></text></g></g><g id="SvgjsG1023" transform="translate(348,257)"><path id="SvgjsPath1024" d="M 0 35C 0 -11.667 70 -11.667 70 35C 70 81.667 0 81.667 0 35Z" stroke="rgba(255,255,255,1)" stroke-width="1.5" fill-opacity="1" fill="#e60c0c"></path><g id="SvgjsG1025"><text id="SvgjsText1026" font-family="&quot;Microsoft YaHei&quot;, 微软雅黑, Arial" text-anchor="middle" font-size="30px" width="50px" fill="#ffffff" font-weight="400" align="middle" lineHeight="125%" anchor="middle" family="&quot;Microsoft YaHei&quot;, 微软雅黑, Arial" size="30px" weight="400" font-style="" opacity="1" y="9.25" transform="rotate(0)"><tspan id="SvgjsTspan1027" dy="37.5" x="35"><tspan id="SvgjsTspan1028" style="">12</tspan></tspan></text></g></g><g id="SvgjsG1029"><path id="SvgjsPath1030" d="M248.77815373956548 89.37581948833144L288.10969610253255 146.0224245919734" stroke="#323232" stroke-width="1.5" fill="none" marker-end="url(#SvgjsMarker1031)"></path></g><g id="SvgjsG1033"><path id="SvgjsPath1034" d="M327.9221898965483 206.75385820726893L363.949587935212 259.65136659306694" stroke="#323232" stroke-width="1.5" fill="none" marker-end="url(#SvgjsMarker1035)"></path></g><g id="SvgjsG1037" transform="translate(455,257)"><path id="SvgjsPath1038" d="M 0 35C 0 -11.667 133 -11.667 133 35C 133 81.667 0 81.667 0 35Z" stroke="rgba(255,255,255,1)" stroke-width="1.5" fill-opacity="1" fill="#7bd144"></path><g id="SvgjsG1039"><text id="SvgjsText1040" font-family="&quot;Microsoft YaHei&quot;, 微软雅黑, Arial" text-anchor="middle" font-size="24px" width="113px" fill="#323232" font-weight="400" align="middle" lineHeight="125%" anchor="middle" family="&quot;Microsoft YaHei&quot;, 微软雅黑, Arial" size="24px" weight="400" font-style="" opacity="1" y="14" transform="rotate(0)"><tspan id="SvgjsTspan1041" dy="30" x="66.5"><tspan id="SvgjsTspan1042" style="">cur_node</tspan></tspan></text></g></g><g id="SvgjsG1043"><path id="SvgjsPath1044" d="M454.25 292L420.70000000000005 292" stroke-dasharray="1.5,2.25" stroke="#323232" stroke-width="1.5" fill="none" marker-end="url(#SvgjsMarker1045)"></path></g><g id="SvgjsG1047" transform="translate(133,150)"><path id="SvgjsPath1048" d="M 0 4Q 0 0 4 0L 53 0Q 57 0 57 4L 57 50Q 57 54 53 54L 4 54Q 0 54 0 50Z" stroke="rgba(33,41,48,1)" stroke-width="1.5" fill-opacity="1" fill="#000000"></path><g id="SvgjsG1049"><text id="SvgjsText1050" font-family="&quot;Microsoft YaHei&quot;, 微软雅黑, Arial" text-anchor="middle" font-size="13px" width="37px" fill="#323232" font-weight="400" align="middle" lineHeight="125%" anchor="middle" family="&quot;Microsoft YaHei&quot;, 微软雅黑, Arial" size="13px" weight="400" font-style="" opacity="1" y="16.375" transform="rotate(0)"></text></g></g><g id="SvgjsG1051"><path id="SvgjsPath1052" d="M208.71835182300993 89.23752713929548L163.1567355413806 147.86804612012213" stroke="#323232" stroke-width="1.5" fill="none" marker-end="url(#SvgjsMarker1053)"></path></g><g id="SvgjsG1055" transform="translate(25,157)"><path id="SvgjsPath1056" d="M 0 0L 84 0L 100 16L 100 40L 0 40L 0 0Z" stroke="none" fill-opacity="1" fill="#fff7bc"></path><path id="SvgjsPath1057" d="M 84 0L 84 16L 100 16Z" stroke="none" fill-opacity="1" fill="#e4d089"></path><path id="SvgjsPath1058" d="M 0 0L 84 0L 100 16L 100 40L 0 40L 0 0Z" stroke="none" fill="none"></path><g id="SvgjsG1059"><text id="SvgjsText1060" font-family="&quot;Microsoft YaHei&quot;, 微软雅黑, Arial" text-anchor="middle" font-size="20px" width="80px" fill="#323232" font-weight="400" align="middle" lineHeight="125%" anchor="middle" family="&quot;Microsoft YaHei&quot;, 微软雅黑, Arial" size="20px" weight="400" font-style="" opacity="1" y="2" transform="rotate(0)"><tspan id="SvgjsTspan1061" dy="25" x="50"><tspan id="SvgjsTspan1062" style="">叔叔节点</tspan></tspan></text></g></g><g id="SvgjsG1063" transform="translate(1117,38)"><path id="SvgjsPath1064" d="M 0 35C 0 -11.667 70 -11.667 70 35C 70 81.667 0 81.667 0 35Z" stroke="rgba(255,255,255,1)" stroke-width="1.5" fill-opacity="1" fill="#000000"></path><g id="SvgjsG1065"><text id="SvgjsText1066" font-family="&quot;Microsoft YaHei&quot;, 微软雅黑, Arial" text-anchor="middle" font-size="30px" width="50px" fill="#ffffff" font-weight="400" align="middle" lineHeight="125%" anchor="middle" family="&quot;Microsoft YaHei&quot;, 微软雅黑, Arial" size="30px" weight="400" font-style="" opacity="1" y="9.25" transform="rotate(0)"><tspan id="SvgjsTspan1067" dy="37.5" x="35"><tspan id="SvgjsTspan1068" style="">7</tspan></tspan></text></g></g><g id="SvgjsG1069" transform="translate(1197,155)"><path id="SvgjsPath1070" d="M 0 35C 0 -11.667 70 -11.667 70 35C 70 81.667 0 81.667 0 35Z" stroke="rgba(255,255,255,1)" stroke-width="1.5" fill-opacity="1" fill="#e60c0c"></path><g id="SvgjsG1071"><text id="SvgjsText1072" font-family="&quot;Microsoft YaHei&quot;, 微软雅黑, Arial" text-anchor="middle" font-size="30px" width="50px" fill="#ffffff" font-weight="400" align="middle" lineHeight="125%" anchor="middle" family="&quot;Microsoft YaHei&quot;, 微软雅黑, Arial" size="30px" weight="400" font-style="" opacity="1" y="9.25" transform="rotate(0)"><tspan id="SvgjsTspan1073" dy="37.5" x="35"><tspan id="SvgjsTspan1074" style="">9</tspan></tspan></text></g></g><g id="SvgjsG1075" transform="translate(1271,270)"><path id="SvgjsPath1076" d="M 0 35C 0 -11.667 70 -11.667 70 35C 70 81.667 0 81.667 0 35Z" stroke="rgba(255,255,255,1)" stroke-width="1.5" fill-opacity="1" fill="#e60c0c"></path><g id="SvgjsG1077"><text id="SvgjsText1078" font-family="&quot;Microsoft YaHei&quot;, 微软雅黑, Arial" text-anchor="middle" font-size="30px" width="50px" fill="#ffffff" font-weight="400" align="middle" lineHeight="125%" anchor="middle" family="&quot;Microsoft YaHei&quot;, 微软雅黑, Arial" size="30px" weight="400" font-style="" opacity="1" y="9.25" transform="rotate(0)"><tspan id="SvgjsTspan1079" dy="37.5" x="35"><tspan id="SvgjsTspan1080" style="">12</tspan></tspan></text></g></g><g id="SvgjsG1081"><path id="SvgjsPath1082" d="M1171.7781537395656 102.37581948833144L1211.1096961025326 159.0224245919734" stroke="#323232" stroke-width="1.5" fill="none" marker-end="url(#SvgjsMarker1083)"></path></g><g id="SvgjsG1085"><path id="SvgjsPath1086" d="M1250.9221898965484 219.75385820726893L1286.949587935212 272.65136659306694" stroke="#323232" stroke-width="1.5" fill="none" marker-end="url(#SvgjsMarker1087)"></path></g><g id="SvgjsG1089" transform="translate(1378,270)"><path id="SvgjsPath1090" d="M 0 35C 0 -11.667 133 -11.667 133 35C 133 81.667 0 81.667 0 35Z" stroke="rgba(255,255,255,1)" stroke-width="1.5" fill-opacity="1" fill="#7bd144"></path><g id="SvgjsG1091"><text id="SvgjsText1092" font-family="&quot;Microsoft YaHei&quot;, 微软雅黑, Arial" text-anchor="middle" font-size="24px" width="113px" fill="#323232" font-weight="400" align="middle" lineHeight="125%" anchor="middle" family="&quot;Microsoft YaHei&quot;, 微软雅黑, Arial" size="24px" weight="400" font-style="" opacity="1" y="14" transform="rotate(0)"><tspan id="SvgjsTspan1093" dy="30" x="66.5"><tspan id="SvgjsTspan1094" style="">cur_node</tspan></tspan></text></g></g><g id="SvgjsG1095"><path id="SvgjsPath1096" d="M1377.25 305L1343.7 305" stroke-dasharray="1.5,2.25" stroke="#323232" stroke-width="1.5" fill="none" marker-end="url(#SvgjsMarker1097)"></path></g><g id="SvgjsG1099" transform="translate(1056,163)"><path id="SvgjsPath1100" d="M 0 4Q 0 0 4 0L 53 0Q 57 0 57 4L 57 50Q 57 54 53 54L 4 54Q 0 54 0 50Z" stroke="rgba(33,41,48,1)" stroke-width="1.5" fill-opacity="1" fill="#000000"></path><g id="SvgjsG1101"><text id="SvgjsText1102" font-family="&quot;Microsoft YaHei&quot;, 微软雅黑, Arial" text-anchor="middle" font-size="13px" width="37px" fill="#323232" font-weight="400" align="middle" lineHeight="125%" anchor="middle" family="&quot;Microsoft YaHei&quot;, 微软雅黑, Arial" size="13px" weight="400" font-style="" opacity="1" y="16.375" transform="rotate(0)"></text></g></g><g id="SvgjsG1103"><path id="SvgjsPath1104" d="M1131.71835182301 102.23752713929548L1086.1567355413806 160.86804612012213" stroke="#323232" stroke-width="1.5" fill="none" marker-end="url(#SvgjsMarker1105)"></path></g><g id="SvgjsG1107" transform="translate(948,170)"><path id="SvgjsPath1108" d="M 0 0L 84 0L 100 16L 100 40L 0 40L 0 0Z" stroke="none" fill-opacity="1" fill="#fff7bc"></path><path id="SvgjsPath1109" d="M 84 0L 84 16L 100 16Z" stroke="none" fill-opacity="1" fill="#e4d089"></path><path id="SvgjsPath1110" d="M 0 0L 84 0L 100 16L 100 40L 0 40L 0 0Z" stroke="none" fill="none"></path><g id="SvgjsG1111"><text id="SvgjsText1112" font-family="&quot;Microsoft YaHei&quot;, 微软雅黑, Arial" text-anchor="middle" font-size="20px" width="80px" fill="#323232" font-weight="400" align="middle" lineHeight="125%" anchor="middle" family="&quot;Microsoft YaHei&quot;, 微软雅黑, Arial" size="20px" weight="400" font-style="" opacity="1" y="2" transform="rotate(0)"><tspan id="SvgjsTspan1113" dy="25" x="50"><tspan id="SvgjsTspan1114" style="">叔叔节点</tspan></tspan></text></g></g><g id="SvgjsG1115" transform="translate(909.2000122070312,25)"><path id="SvgjsPath1116" d="M 0 0L 100 0L 100 40L 0 40Z" stroke="none" fill="none"></path><g id="SvgjsG1117"><text id="SvgjsText1118" font-family="&quot;Microsoft YaHei&quot;, 微软雅黑, Arial" text-anchor="middle" font-size="20px" width="100px" fill="#323232" font-weight="400" align="middle" lineHeight="125%" anchor="middle" family="&quot;Microsoft YaHei&quot;, 微软雅黑, Arial" size="20px" weight="400" font-style="" opacity="1" y="2" transform="rotate(0)"><tspan id="SvgjsTspan1119" dy="25" x="50"><tspan id="SvgjsTspan1120" style="">被旋转节点</tspan></tspan></text></g></g><g id="SvgjsG1121"><path id="SvgjsPath1122" d="M1010.1998851551407 45.01594012669693C 1053.6515177093977 45 1075.9609202967008 51.27156092781564 1116.2895090573245 62.07864925258997" stroke-dasharray="1.5,2.25" stroke="#323232" stroke-width="1.5" fill="none" marker-end="url(#SvgjsMarker1123)"></path></g><g id="SvgjsG1125" transform="translate(1315.2000122070312,123)"><path id="SvgjsPath1126" d="M 0 0L 86 0L 86 40L 0 40Z" stroke="none" fill="none"></path><g id="SvgjsG1127"><text id="SvgjsText1128" font-family="&quot;Microsoft YaHei&quot;, 微软雅黑, Arial" text-anchor="middle" font-size="20px" width="86px" fill="#323232" font-weight="400" align="middle" lineHeight="125%" anchor="middle" family="&quot;Microsoft YaHei&quot;, 微软雅黑, Arial" size="20px" weight="400" font-style="" opacity="1" y="2" transform="rotate(0)"><tspan id="SvgjsTspan1129" dy="25" x="43"><tspan id="SvgjsTspan1130" style="">旋转中心</tspan></tspan></text></g></g><g id="SvgjsG1131"><path id="SvgjsPath1132" d="M1314.2041237418941 143.09058788554046C 1290.6433327661532 143 1279.0132129073177 153.82323641690255 1261.551222390961 166.9683636182766" stroke-dasharray="1.5,2.25" stroke="#323232" stroke-width="1.5" fill="none" marker-end="url(#SvgjsMarker1133)"></path></g><g id="SvgjsG1135" transform="translate(1125.75,551.75)"><path id="SvgjsPath1136" d="M 0 35C 0 -11.667 70 -11.667 70 35C 70 81.667 0 81.667 0 35Z" stroke="rgba(255,255,255,1)" stroke-width="1.5" fill-opacity="1" fill="#000000"></path><g id="SvgjsG1137"><text id="SvgjsText1138" font-family="&quot;Microsoft YaHei&quot;, 微软雅黑, Arial" text-anchor="middle" font-size="30px" width="50px" fill="#ffffff" font-weight="400" align="middle" lineHeight="125%" anchor="middle" family="&quot;Microsoft YaHei&quot;, 微软雅黑, Arial" size="30px" weight="400" font-style="" opacity="1" y="9.25" transform="rotate(0)"><tspan id="SvgjsTspan1139" dy="37.5" x="35"><tspan id="SvgjsTspan1140" style="">7</tspan></tspan></text></g></g><g id="SvgjsG1141" transform="translate(1197,433.75)"><path id="SvgjsPath1142" d="M 0 35C 0 -11.667 70 -11.667 70 35C 70 81.667 0 81.667 0 35Z" stroke="rgba(255,255,255,1)" stroke-width="1.5" fill-opacity="1" fill="#e60c0c"></path><g id="SvgjsG1143"><text id="SvgjsText1144" font-family="&quot;Microsoft YaHei&quot;, 微软雅黑, Arial" text-anchor="middle" font-size="30px" width="50px" fill="#ffffff" font-weight="400" align="middle" lineHeight="125%" anchor="middle" family="&quot;Microsoft YaHei&quot;, 微软雅黑, Arial" size="30px" weight="400" font-style="" opacity="1" y="9.25" transform="rotate(0)"><tspan id="SvgjsTspan1145" dy="37.5" x="35"><tspan id="SvgjsTspan1146" style="">9</tspan></tspan></text></g></g><g id="SvgjsG1147" transform="translate(1271,548.75)"><path id="SvgjsPath1148" d="M 0 35C 0 -11.667 70 -11.667 70 35C 70 81.667 0 81.667 0 35Z" stroke="rgba(255,255,255,1)" stroke-width="1.5" fill-opacity="1" fill="#e60c0c"></path><g id="SvgjsG1149"><text id="SvgjsText1150" font-family="&quot;Microsoft YaHei&quot;, 微软雅黑, Arial" text-anchor="middle" font-size="30px" width="50px" fill="#ffffff" font-weight="400" align="middle" lineHeight="125%" anchor="middle" family="&quot;Microsoft YaHei&quot;, 微软雅黑, Arial" size="30px" weight="400" font-style="" opacity="1" y="9.25" transform="rotate(0)"><tspan id="SvgjsTspan1151" dy="37.5" x="35"><tspan id="SvgjsTspan1152" style="">12</tspan></tspan></text></g></g><g id="SvgjsG1153"><path id="SvgjsPath1154" d="M1250.9221898965484 498.5038582072689L1286.949587935212 551.4013665930669" stroke="#323232" stroke-width="1.5" fill="none" marker-end="url(#SvgjsMarker1155)"></path></g><g id="SvgjsG1157" transform="translate(1378,548.75)"><path id="SvgjsPath1158" d="M 0 35C 0 -11.667 133 -11.667 133 35C 133 81.667 0 81.667 0 35Z" stroke="rgba(255,255,255,1)" stroke-width="1.5" fill-opacity="1" fill="#7bd144"></path><g id="SvgjsG1159"><text id="SvgjsText1160" font-family="&quot;Microsoft YaHei&quot;, 微软雅黑, Arial" text-anchor="middle" font-size="24px" width="113px" fill="#323232" font-weight="400" align="middle" lineHeight="125%" anchor="middle" family="&quot;Microsoft YaHei&quot;, 微软雅黑, Arial" size="24px" weight="400" font-style="" opacity="1" y="14" transform="rotate(0)"><tspan id="SvgjsTspan1161" dy="30" x="66.5"><tspan id="SvgjsTspan1162" style="">cur_node</tspan></tspan></text></g></g><g id="SvgjsG1163"><path id="SvgjsPath1164" d="M1377.25 583.75L1343.7 583.75" stroke-dasharray="1.5,2.25" stroke="#323232" stroke-width="1.5" fill="none" marker-end="url(#SvgjsMarker1165)"></path></g><g id="SvgjsG1167" transform="translate(1064.75,676.75)"><path id="SvgjsPath1168" d="M 0 4Q 0 0 4 0L 53 0Q 57 0 57 4L 57 50Q 57 54 53 54L 4 54Q 0 54 0 50Z" stroke="rgba(33,41,48,1)" stroke-width="1.5" fill-opacity="1" fill="#000000"></path><g id="SvgjsG1169"><text id="SvgjsText1170" font-family="&quot;Microsoft YaHei&quot;, 微软雅黑, Arial" text-anchor="middle" font-size="13px" width="37px" fill="#323232" font-weight="400" align="middle" lineHeight="125%" anchor="middle" family="&quot;Microsoft YaHei&quot;, 微软雅黑, Arial" size="13px" weight="400" font-style="" opacity="1" y="16.375" transform="rotate(0)"></text></g></g><g id="SvgjsG1171"><path id="SvgjsPath1172" d="M1140.46835182301 615.9875271392955L1094.9067355413806 674.6180461201221" stroke="#323232" stroke-width="1.5" fill="none" marker-end="url(#SvgjsMarker1173)"></path></g><g id="SvgjsG1175" transform="translate(956.75,683.75)"><path id="SvgjsPath1176" d="M 0 0L 84 0L 100 16L 100 40L 0 40L 0 0Z" stroke="none" fill-opacity="1" fill="#fff7bc"></path><path id="SvgjsPath1177" d="M 84 0L 84 16L 100 16Z" stroke="none" fill-opacity="1" fill="#e4d089"></path><path id="SvgjsPath1178" d="M 0 0L 84 0L 100 16L 100 40L 0 40L 0 0Z" stroke="none" fill="none"></path><g id="SvgjsG1179"><text id="SvgjsText1180" font-family="&quot;Microsoft YaHei&quot;, 微软雅黑, Arial" text-anchor="middle" font-size="20px" width="80px" fill="#323232" font-weight="400" align="middle" lineHeight="125%" anchor="middle" family="&quot;Microsoft YaHei&quot;, 微软雅黑, Arial" size="20px" weight="400" font-style="" opacity="1" y="2" transform="rotate(0)"><tspan id="SvgjsTspan1181" dy="25" x="50"><tspan id="SvgjsTspan1182" style="">叔叔节点</tspan></tspan></text></g></g><g id="SvgjsG1183" transform="translate(969.25,608)"><path id="SvgjsPath1184" d="M 0 0L 100 0L 100 40L 0 40Z" stroke="none" fill="none"></path><g id="SvgjsG1185"><text id="SvgjsText1186" font-family="&quot;Microsoft YaHei&quot;, 微软雅黑, Arial" text-anchor="middle" font-size="20px" width="100px" fill="#323232" font-weight="400" align="middle" lineHeight="125%" anchor="middle" family="&quot;Microsoft YaHei&quot;, 微软雅黑, Arial" size="20px" weight="400" font-style="" opacity="1" y="2" transform="rotate(0)"><tspan id="SvgjsTspan1187" dy="25" x="50"><tspan id="SvgjsTspan1188" style="">被旋转节点</tspan></tspan></text></g></g><g id="SvgjsG1189"><path id="SvgjsPath1190" d="M1070.2460626505786 627.9113478927363C 1095.5798257610065 628 1106.9219726180927 615.5455102326525 1128.018469194082 604.8972518692848" stroke-dasharray="1.5,2.25" stroke="#323232" stroke-width="1.5" fill="none" marker-end="url(#SvgjsMarker1191)"></path></g><g id="SvgjsG1193" transform="translate(1315.2000122070312,401.75)"><path id="SvgjsPath1194" d="M 0 0L 86 0L 86 40L 0 40Z" stroke="none" fill="none"></path><g id="SvgjsG1195"><text id="SvgjsText1196" font-family="&quot;Microsoft YaHei&quot;, 微软雅黑, Arial" text-anchor="middle" font-size="20px" width="86px" fill="#323232" font-weight="400" align="middle" lineHeight="125%" anchor="middle" family="&quot;Microsoft YaHei&quot;, 微软雅黑, Arial" size="20px" weight="400" font-style="" opacity="1" y="2" transform="rotate(0)"><tspan id="SvgjsTspan1197" dy="25" x="43"><tspan id="SvgjsTspan1198" style="">旋转中心</tspan></tspan></text></g></g><g id="SvgjsG1199"><path id="SvgjsPath1200" d="M1314.2041237418941 421.84058788554046C 1290.6433327661532 421.75 1279.0132129073177 432.57323641690255 1261.551222390961 445.7183636182766" stroke-dasharray="1.5,2.25" stroke="#323232" stroke-width="1.5" fill="none" marker-end="url(#SvgjsMarker1201)"></path></g><g id="SvgjsG1203"><path id="SvgjsPath1204" d="M1210.4975495671524 496.8612174118258L1169.3647163791004 551.0238135569399" stroke="#323232" stroke-width="1.5" fill="none" marker-end="url(#SvgjsMarker1205)"></path></g><g id="SvgjsG1207" transform="translate(969.25,538.0000004768372)"><path id="SvgjsPath1208" d="M 0 0L 134.6 0L 150.6 16L 150.6 41.25L 0 41.25L 0 0Z" stroke="none" fill-opacity="1" fill="#fff7bc"></path><path id="SvgjsPath1209" d="M 134.6 0L 134.6 16L 150.6 16Z" stroke="none" fill-opacity="1" fill="#e4d089"></path><path id="SvgjsPath1210" d="M 0 0L 134.6 0L 150.6 16L 150.6 41.25L 0 41.25L 0 0Z" stroke="none" fill="none"></path><g id="SvgjsG1211"><text id="SvgjsText1212" font-family="&quot;Microsoft YaHei&quot;, 微软雅黑, Arial" text-anchor="middle" font-size="20px" width="131px" fill="#323232" font-weight="400" align="middle" lineHeight="125%" anchor="middle" family="&quot;Microsoft YaHei&quot;, 微软雅黑, Arial" size="20px" weight="400" font-style="" opacity="1" y="2.625" transform="rotate(0)"><tspan id="SvgjsTspan1213" dy="25" x="75.5"><tspan id="SvgjsTspan1214" style="">原来爷爷节点</tspan></tspan></text></g></g><g id="SvgjsG1215" transform="translate(2010.7499999999995,569.25)"><path id="SvgjsPath1216" d="M 0 35C 0 -11.667 70 -11.667 70 35C 70 81.667 0 81.667 0 35Z" stroke="rgba(255,255,255,1)" stroke-width="1.5" fill-opacity="1" fill="#e60c0c"></path><g id="SvgjsG1217"><text id="SvgjsText1218" font-family="&quot;Microsoft YaHei&quot;, 微软雅黑, Arial" text-anchor="middle" font-size="30px" width="50px" fill="#ffffff" font-weight="400" align="middle" lineHeight="125%" anchor="middle" family="&quot;Microsoft YaHei&quot;, 微软雅黑, Arial" size="30px" weight="400" font-style="" opacity="1" y="9.25" transform="rotate(0)"><tspan id="SvgjsTspan1219" dy="37.5" x="35"><tspan id="SvgjsTspan1220" style="">7</tspan></tspan></text></g></g><g id="SvgjsG1221" transform="translate(2081.9999999999995,451.25)"><path id="SvgjsPath1222" d="M 0 35C 0 -11.667 70 -11.667 70 35C 70 81.667 0 81.667 0 35Z" stroke="rgba(255,255,255,1)" stroke-width="1.5" fill-opacity="1" fill="#000000"></path><g id="SvgjsG1223"><text id="SvgjsText1224" font-family="&quot;Microsoft YaHei&quot;, 微软雅黑, Arial" text-anchor="middle" font-size="30px" width="50px" fill="#ffffff" font-weight="400" align="middle" lineHeight="125%" anchor="middle" family="&quot;Microsoft YaHei&quot;, 微软雅黑, Arial" size="30px" weight="400" font-style="" opacity="1" y="9.25" transform="rotate(0)"><tspan id="SvgjsTspan1225" dy="37.5" x="35"><tspan id="SvgjsTspan1226" style="">9</tspan></tspan></text></g></g><g id="SvgjsG1227" transform="translate(2155.9999999999995,566.25)"><path id="SvgjsPath1228" d="M 0 35C 0 -11.667 70 -11.667 70 35C 70 81.667 0 81.667 0 35Z" stroke="rgba(255,255,255,1)" stroke-width="1.5" fill-opacity="1" fill="#e60c0c"></path><g id="SvgjsG1229"><text id="SvgjsText1230" font-family="&quot;Microsoft YaHei&quot;, 微软雅黑, Arial" text-anchor="middle" font-size="30px" width="50px" fill="#ffffff" font-weight="400" align="middle" lineHeight="125%" anchor="middle" family="&quot;Microsoft YaHei&quot;, 微软雅黑, Arial" size="30px" weight="400" font-style="" opacity="1" y="9.25" transform="rotate(0)"><tspan id="SvgjsTspan1231" dy="37.5" x="35"><tspan id="SvgjsTspan1232" style="">12</tspan></tspan></text></g></g><g id="SvgjsG1233"><path id="SvgjsPath1234" d="M2135.922189896548 516.0038582072689L2171.949587935211 568.9013665930669" stroke="#323232" stroke-width="1.5" fill="none" marker-end="url(#SvgjsMarker1235)"></path></g><g id="SvgjsG1237" transform="translate(2262.9999999999995,566.25)"><path id="SvgjsPath1238" d="M 0 35C 0 -11.667 133 -11.667 133 35C 133 81.667 0 81.667 0 35Z" stroke="rgba(255,255,255,1)" stroke-width="1.5" fill-opacity="1" fill="#7bd144"></path><g id="SvgjsG1239"><text id="SvgjsText1240" font-family="&quot;Microsoft YaHei&quot;, 微软雅黑, Arial" text-anchor="middle" font-size="24px" width="113px" fill="#323232" font-weight="400" align="middle" lineHeight="125%" anchor="middle" family="&quot;Microsoft YaHei&quot;, 微软雅黑, Arial" size="24px" weight="400" font-style="" opacity="1" y="14" transform="rotate(0)"><tspan id="SvgjsTspan1241" dy="30" x="66.5"><tspan id="SvgjsTspan1242" style="">cur_node</tspan></tspan></text></g></g><g id="SvgjsG1243"><path id="SvgjsPath1244" d="M2262.2499999999995 601.25L2228.6999999999994 601.25" stroke-dasharray="1.5,2.25" stroke="#323232" stroke-width="1.5" fill="none" marker-end="url(#SvgjsMarker1245)"></path></g><g id="SvgjsG1247" transform="translate(1949.7499999999995,694.25)"><path id="SvgjsPath1248" d="M 0 4Q 0 0 4 0L 53 0Q 57 0 57 4L 57 50Q 57 54 53 54L 4 54Q 0 54 0 50Z" stroke="rgba(33,41,48,1)" stroke-width="1.5" fill-opacity="1" fill="#000000"></path><g id="SvgjsG1249"><text id="SvgjsText1250" font-family="&quot;Microsoft YaHei&quot;, 微软雅黑, Arial" text-anchor="middle" font-size="13px" width="37px" fill="#323232" font-weight="400" align="middle" lineHeight="125%" anchor="middle" family="&quot;Microsoft YaHei&quot;, 微软雅黑, Arial" size="13px" weight="400" font-style="" opacity="1" y="16.375" transform="rotate(0)"></text></g></g><g id="SvgjsG1251"><path id="SvgjsPath1252" d="M2025.4683518230095 633.4875271392955L1979.9067355413804 692.1180461201221" stroke="#323232" stroke-width="1.5" fill="none" marker-end="url(#SvgjsMarker1253)"></path></g><g id="SvgjsG1255" transform="translate(1841.7499999999995,701.25)"><path id="SvgjsPath1256" d="M 0 0L 84 0L 100 16L 100 40L 0 40L 0 0Z" stroke="none" fill-opacity="1" fill="#fff7bc"></path><path id="SvgjsPath1257" d="M 84 0L 84 16L 100 16Z" stroke="none" fill-opacity="1" fill="#e4d089"></path><path id="SvgjsPath1258" d="M 0 0L 84 0L 100 16L 100 40L 0 40L 0 0Z" stroke="none" fill="none"></path><g id="SvgjsG1259"><text id="SvgjsText1260" font-family="&quot;Microsoft YaHei&quot;, 微软雅黑, Arial" text-anchor="middle" font-size="20px" width="80px" fill="#323232" font-weight="400" align="middle" lineHeight="125%" anchor="middle" family="&quot;Microsoft YaHei&quot;, 微软雅黑, Arial" size="20px" weight="400" font-style="" opacity="1" y="2" transform="rotate(0)"><tspan id="SvgjsTspan1261" dy="25" x="50"><tspan id="SvgjsTspan1262" style="">叔叔节点</tspan></tspan></text></g></g><g id="SvgjsG1263" transform="translate(1854.2499999999995,625.5)"><path id="SvgjsPath1264" d="M 0 0L 100 0L 100 40L 0 40Z" stroke="none" fill="none"></path><g id="SvgjsG1265"><text id="SvgjsText1266" font-family="&quot;Microsoft YaHei&quot;, 微软雅黑, Arial" text-anchor="middle" font-size="20px" width="100px" fill="#323232" font-weight="400" align="middle" lineHeight="125%" anchor="middle" family="&quot;Microsoft YaHei&quot;, 微软雅黑, Arial" size="20px" weight="400" font-style="" opacity="1" y="2" transform="rotate(0)"><tspan id="SvgjsTspan1267" dy="25" x="50"><tspan id="SvgjsTspan1268" style="">被旋转节点</tspan></tspan></text></g></g><g id="SvgjsG1269"><path id="SvgjsPath1270" d="M1955.246062650578 645.4113478927363C 1980.5798257610063 645.5 1991.9219726180922 633.0455102326525 2013.0184691940817 622.3972518692848" stroke-dasharray="1.5,2.25" stroke="#323232" stroke-width="1.5" fill="none" marker-end="url(#SvgjsMarker1271)"></path></g><g id="SvgjsG1273" transform="translate(2200.200012207031,419.25)"><path id="SvgjsPath1274" d="M 0 0L 86 0L 86 40L 0 40Z" stroke="none" fill="none"></path><g id="SvgjsG1275"><text id="SvgjsText1276" font-family="&quot;Microsoft YaHei&quot;, 微软雅黑, Arial" text-anchor="middle" font-size="20px" width="86px" fill="#323232" font-weight="400" align="middle" lineHeight="125%" anchor="middle" family="&quot;Microsoft YaHei&quot;, 微软雅黑, Arial" size="20px" weight="400" font-style="" opacity="1" y="2" transform="rotate(0)"><tspan id="SvgjsTspan1277" dy="25" x="43"><tspan id="SvgjsTspan1278" style="">旋转中心</tspan></tspan></text></g></g><g id="SvgjsG1279"><path id="SvgjsPath1280" d="M2199.2041237418935 439.34058788554046C 2175.643332766153 439.25 2164.0132129073177 450.07323641690255 2146.55122239096 463.2183636182767" stroke-dasharray="1.5,2.25" stroke="#323232" stroke-width="1.5" fill="none" marker-end="url(#SvgjsMarker1281)"></path></g><g id="SvgjsG1283"><path id="SvgjsPath1284" d="M2095.4975495671515 514.3612174118258L2054.3647163791 568.5238135569398" stroke="#323232" stroke-width="1.5" fill="none" marker-end="url(#SvgjsMarker1285)"></path></g><g id="SvgjsG1287" transform="translate(1854.2499999999995,555.5000004768372)"><path id="SvgjsPath1288" d="M 0 0L 134.6 0L 150.6 16L 150.6 41.25L 0 41.25L 0 0Z" stroke="none" fill-opacity="1" fill="#fff7bc"></path><path id="SvgjsPath1289" d="M 134.6 0L 134.6 16L 150.6 16Z" stroke="none" fill-opacity="1" fill="#e4d089"></path><path id="SvgjsPath1290" d="M 0 0L 134.6 0L 150.6 16L 150.6 41.25L 0 41.25L 0 0Z" stroke="none" fill="none"></path><g id="SvgjsG1291"><text id="SvgjsText1292" font-family="&quot;Microsoft YaHei&quot;, 微软雅黑, Arial" text-anchor="middle" font-size="20px" width="131px" fill="#323232" font-weight="400" align="middle" lineHeight="125%" anchor="middle" family="&quot;Microsoft YaHei&quot;, 微软雅黑, Arial" size="20px" weight="400" font-style="" opacity="1" y="2.625" transform="rotate(0)"><tspan id="SvgjsTspan1293" dy="25" x="75.5"><tspan id="SvgjsTspan1294" style="">原来爷爷节点</tspan></tspan></text></g></g><g id="SvgjsG1295" transform="translate(597.6666666666666,170)"><path id="SvgjsPath1296" d="M 0 19.8L 218.6 19.8L 218.6 0L 248.6 30L 218.6 60L 218.6 40.2L 0 40.2L 0 19.8Z" stroke="rgba(33,41,48,1)" stroke-width="1.5" fill-opacity="1" fill="#ffffff"></path><g id="SvgjsG1297"><text id="SvgjsText1298" font-family="&quot;Microsoft YaHei&quot;, 微软雅黑, Arial" text-anchor="middle" font-size="13px" width="249px" fill="#323232" font-weight="400" align="middle" lineHeight="125%" anchor="middle" family="&quot;Microsoft YaHei&quot;, 微软雅黑, Arial" size="13px" weight="400" font-style="" opacity="1" y="19.375" transform="rotate(0)"></text></g></g><g id="SvgjsG1299" transform="translate(664.6000067392986,142)"><path id="SvgjsPath1300" d="M 0 0L 100 0L 100 40L 0 40Z" stroke="none" fill="none"></path><g id="SvgjsG1301"><text id="SvgjsText1302" font-family="&quot;Microsoft YaHei&quot;, 微软雅黑, Arial" text-anchor="middle" font-size="20px" width="100px" fill="#323232" font-weight="400" align="middle" lineHeight="125%" anchor="middle" family="&quot;Microsoft YaHei&quot;, 微软雅黑, Arial" size="20px" weight="400" font-style="" opacity="1" y="2" transform="rotate(0)"><tspan id="SvgjsTspan1303" dy="25" x="50"><tspan id="SvgjsTspan1304" style="">旋转</tspan></tspan></text></g></g><g id="SvgjsG1305" transform="matrix(6.123233995736766e-17,1,-1,6.123233995736766e-17,1156.2999930381775,294.3333077430725)"><path id="SvgjsPath1306" d="M 0 19.8L 131.717 19.8L 131.717 0L 161.717 30L 131.717 60L 131.717 40.2L 0 40.2L 0 19.8Z" stroke="rgba(33,41,48,1)" stroke-width="1.5" fill-opacity="1" fill="#ffffff"></path><g id="SvgjsG1307"><text id="SvgjsText1308" font-family="&quot;Microsoft YaHei&quot;, 微软雅黑, Arial" text-anchor="middle" font-size="13px" width="162px" fill="#323232" font-weight="400" align="middle" lineHeight="125%" anchor="middle" family="&quot;Microsoft YaHei&quot;, 微软雅黑, Arial" size="13px" weight="400" font-style="" opacity="1" y="19.375" transform="rotate(0)"></text></g></g><g id="SvgjsG1309" transform="translate(1056,327)"><path id="SvgjsPath1310" d="M 0 0L 57 0L 57 83.283L 0 83.283Z" stroke="none" fill="none"></path><g id="SvgjsG1311"><text id="SvgjsText1312" font-family="&quot;Microsoft YaHei&quot;, 微软雅黑, Arial" text-anchor="middle" font-size="20px" width="57px" fill="#323232" font-weight="400" align="middle" lineHeight="125%" anchor="middle" family="&quot;Microsoft YaHei&quot;, 微软雅黑, Arial" size="20px" weight="400" font-style="" opacity="1" y="11.1415" transform="rotate(0)"><tspan id="SvgjsTspan1313" dy="25" x="28.5"><tspan id="SvgjsTspan1314" style="">旋</tspan></tspan><tspan id="SvgjsTspan1315" dy="25" x="28.5"><tspan id="SvgjsTspan1316" style="">转</tspan></tspan></text></g></g><g id="SvgjsG1317" transform="translate(1575.8583272298174,588.25)"><path id="SvgjsPath1318" d="M 0 19.8L 183.533 19.8L 183.533 0L 213.533 30L 183.533 60L 183.533 40.2L 0 40.2L 0 19.8Z" stroke="rgba(33,41,48,1)" stroke-width="1.5" fill-opacity="1" fill="#ffffff"></path><g id="SvgjsG1319"><text id="SvgjsText1320" font-family="&quot;Microsoft YaHei&quot;, 微软雅黑, Arial" text-anchor="middle" font-size="13px" width="214px" fill="#323232" font-weight="400" align="middle" lineHeight="125%" anchor="middle" family="&quot;Microsoft YaHei&quot;, 微软雅黑, Arial" size="13px" weight="400" font-style="" opacity="1" y="19.375" transform="rotate(0)"></text></g></g><g id="SvgjsG1321" transform="translate(1633.3502807553386,560.25)"><path id="SvgjsPath1322" d="M 0 0L 85.894 0L 85.894 40L 0 40Z" stroke="none" fill="none"></path><g id="SvgjsG1323"><text id="SvgjsText1324" font-family="&quot;Microsoft YaHei&quot;, 微软雅黑, Arial" text-anchor="middle" font-size="20px" width="86px" fill="#323232" font-weight="400" align="middle" lineHeight="125%" anchor="middle" family="&quot;Microsoft YaHei&quot;, 微软雅黑, Arial" size="20px" weight="400" font-style="" opacity="1" y="2" transform="rotate(0)"><tspan id="SvgjsTspan1325" dy="25" x="43"><tspan id="SvgjsTspan1326" style="">变色</tspan></tspan></text></g></g><g id="SvgjsG1327"></g></svg>